<?xml version="1.0" encoding="UTF-8" standalone="no"?>
<!-- Generator: Adobe Illustrator 14.0.0, SVG Export Plug-In . SVG Version: 6.00 Build 43363)  -->

<svg
   version="1.1"
   id="Layer_1"
   x="0px"
   y="0px"
   width="200"
   height="200"
   viewBox="0 0 200 200"
   enable-background="new 0 0 612 792"
   xml:space="preserve"
   sodipodi:docname="logo_KEC.svg"
   inkscape:version="1.1 (c68e22c387, 2021-05-23)"
   xmlns:inkscape="http://www.inkscape.org/namespaces/inkscape"
   xmlns:sodipodi="http://sodipodi.sourceforge.net/DTD/sodipodi-0.dtd"
   xmlns="http://www.w3.org/2000/svg"
   xmlns:svg="http://www.w3.org/2000/svg"><defs
   id="defs924">
	
	
	
	
	
	
	
	
	
	
	
	
	
	
	
	
	
	
	
	
	
	
</defs><sodipodi:namedview
   id="namedview922"
   pagecolor="#ffffff"
   bordercolor="#666666"
   borderopacity="1.0"
   inkscape:pageshadow="2"
   inkscape:pageopacity="0.0"
   inkscape:pagecheckerboard="0"
   showgrid="false"
   inkscape:zoom="1.0214646"
   inkscape:cx="305.93326"
   inkscape:cy="239.36219"
   inkscape:window-width="1920"
   inkscape:window-height="1017"
   inkscape:window-x="-8"
   inkscape:window-y="-8"
   inkscape:window-maximized="1"
   inkscape:current-layer="Layer_1" />
<polygon
   fill-rule="evenodd"
   clip-rule="evenodd"
   fill="#ffffff"
   points="401.756,300 401.756,492.756 209,492.756 209,300 "
   id="polygon875"
   transform="translate(269.43043,-51.631388)" /><g
   id="g886"
   transform="matrix(1.137993,0,0,1.137993,-13.7993,-13.799362)"><path
     fill="#ffffff"
     d="m 164.911,62.283 h 22.963 V 28.453 H 118.73 v 12.192 h -1.821 c 0,0 0.397,-0.43 0.37,-4.687 -0.033,-5.063 -4.847,-7.505 -7.271,-7.505 -2.995,0 -54.348,0 -54.348,0 V 23.198 H 36.27 v 5.255 H 12.126 v 14.003 h 1.66 v 5.606 h -1.66 V 62.24 h 23.607 l 23.651,0.007 51.563,12.356 33.974,-12.327 z"
     id="path877" /><path
     d="m 113.492,122.47 c 0,0 -13.898,5.754 -16.786,7.003 -2.891,1.25 -3.496,2.61 -3.78,3.587 -0.445,1.538 -1.188,6.644 -2.609,8.798 -2.106,3.193 -2.924,3.3 -4.021,3.133 -0.665,-0.103 -0.785,-1.61 -0.785,-2.228 0,-0.95 -0.151,-3.646 -1.975,-5.878 -0.926,-1.129 -1.342,-1.397 -4.204,-0.178 -2.862,1.219 -4.082,1.371 -4.656,4.2 -0.572,2.833 -1.871,9.749 -2.246,12.143 -0.374,2.401 -0.887,5.833 -1.008,7.056 -0.12,1.22 -0.075,9.431 -0.211,10.832 -0.18,1.883 -0.766,3.708 -2.408,0.394 -0.697,-1.404 -1.28,-3.828 -1.915,-8.453 -0.634,-4.628 -0.768,-7.529 -0.775,-10.351 -0.009,-2.822 0.129,-7.416 -0.264,-9.977 -0.392,-2.56 -0.991,-6.09 -1.853,-7.851 -1.026,-2.095 -2.065,-3.659 -3.828,-6.208 -1.763,-2.545 -3.286,-4.522 -4.898,-7.174 -1.611,-2.646 -2.669,-4.612 -4.263,-7.786 -2.186,-4.355 -1.13,-6.45 1.462,-4.144 0.271,0.242 3.617,4.685 8.332,9.191 1.166,1.114 6.944,6.567 11.104,8.753 0.71,0.371 3.691,1.693 8.587,-1.208 4.837,-2.859 9.855,-6.545 11.195,-8.132 1.147,-1.359 0.877,-2.034 -1.583,-0.996 -1.927,0.814 -5.319,2.337 -8.15,3.89 -2.833,1.553 -6.763,3.617 -8.255,3.254 -1.491,-0.363 -3.062,-0.617 -2.729,-6.45 0.332,-5.833 0.283,-7.537 1.521,-11.949 1.239,-4.413 2.265,-7.536 2.911,-9.702 0.645,-2.17 0.705,-2.369 0.797,-3.136 0.091,-0.767 0.151,-0.633 -1.491,-1.43 -1.643,-0.798 -5.513,-2.531 -9.433,-4.414 -3.919,-1.884 -9.491,-4.789 -12.777,-7.217 -3.285,-2.427 -6.25,-4.673 -8.556,-7.173 -2.308,-2.5 -4.735,-5.502 -6.195,-9.521 -1.462,-4.021 -2.037,-5.887 1.703,-6.854 3.739,-0.966 11.485,-2.711 16.787,-3.103 5.302,-0.394 11.026,-0.949 16.193,-0.453 5.17,0.494 11.135,1.292 16.456,2.348 5.319,1.056 10.55,1.933 16.364,4.13 0,0 8.496,-5.168 15.274,-6.782 6.784,-1.611 8.125,-1.882 10.533,-1.762 0.429,0.021 0.455,0.875 0.061,1.039 -0.567,0.235 -5.787,2.529 -8.768,6.328 -2.98,3.798 -3.075,4.536 -3.193,4.987 -0.124,0.455 0.401,0.423 0.947,0.302 0.542,-0.119 7.927,-1.775 11.828,-2.408 3.901,-0.633 13.271,-1.867 19.661,-1.431 6.389,0.435 8.635,2.408 5.29,5.3 -3.348,2.893 -8.044,7.749 -10.351,10.248 -2.307,2.5 -5.545,6.662 -7.757,9.704 -2.219,3.042 -5.332,7.427 -8.094,7.67 0,0 0.284,6.235 -5.833,16.523 0,0 5.227,11.806 6.178,13.969 0.905,2.067 1.167,2.791 1.731,4.253 1.03,2.651 0.181,4.352 -3.012,2.769 -2.451,-1.217 -16.253,-7.455 -16.253,-7.455 z"
     id="path879" /><path
     fill-rule="evenodd"
     clip-rule="evenodd"
     fill="#ffffff"
     d="m 91.963,66.068 0.789,-2.853 1.511,3.211 1.055,-2.804 1.63,3.188 1.343,-2.95 1.485,3.453 1.583,-2.707 1.63,3.833 1.414,-2.732 1.727,4.004 0.909,-3.26 c 0,0 3.071,3.382 3.882,5.825 0,0 1.92,-0.687 3.932,-2.014 4.029,-2.661 4.605,-2.827 7.503,-4.027 2.901,-1.2 5.56,-2.4 11.528,-3.668 5.97,-1.27 10.049,-1.492 15.271,-1.464 4.962,0.027 6.951,0.694 7.022,1.367 0.072,0.672 0.026,0.935 -2.609,3.213 -2.64,2.278 -6.62,5.514 -10.404,8.916 -3.787,3.403 -8.56,7.744 -9.756,9.087 -1.201,1.341 -4.337,4.072 -6.928,4.121 -2.587,0.048 -4.34,-0.479 -5.704,-0.431 -1.366,0.048 -2.158,1.462 -1.727,2.661 0.432,1.2 2.083,5.705 2.015,10.14 -0.041,2.351 0.068,3.498 -1.534,7.74 0,0 2.61,2.204 5.754,7.435 0.908,1.519 4.291,6.806 6.275,12.487 0.375,1.057 0.026,1.318 -0.67,1.079 -0.693,-0.243 -17.282,-7.983 -17.282,-7.983 0,0 -13.304,5.741 -17.931,7.669 -4.192,1.75 -4,4.484 -4.865,7.745 -0.525,1.978 -1.246,5.442 -3.379,6.879 -0.584,0.394 -0.582,0.313 -0.598,-0.913 -0.049,-3.617 -2.579,-6.783 -3.092,-7.12 -1.776,-1.148 -3.574,-0.451 -6.281,0.84 -2.225,1.064 -3.405,1.8 -3.788,3.333 -0.384,1.534 -2.043,9.878 -2.711,14.431 -0.669,4.557 -0.983,6.775 -0.983,11.487 v 6.029 c 0,0 -0.729,-0.814 -1.508,-6.624 -0.778,-5.81 -1.026,-8.427 -0.989,-13.177 0.038,-4.745 0.104,-9.578 -1.368,-14.744 -1.252,-4.386 -5.441,-9.306 -8.643,-14.423 -3.202,-5.117 -4.711,-7.181 -6.477,-12.286 0,0 7.07,8.344 15.265,15.153 0.578,0.481 4.536,4.265 8.577,4.265 2.792,0 7.279,-2.45 9.382,-3.632 2.1,-1.189 7.937,-5.238 9.306,-6.333 1.305,-1.038 1.727,-1.186 1.039,-1.791 -0.527,-0.466 -1.347,-1.121 -1.347,-1.121 0,0 5.862,-3.829 8.352,-5.874 0.666,-0.546 4.964,-4.603 1.202,-7.954 -0.434,-0.386 -0.778,-0.201 -0.803,0.984 -0.004,0.213 -0.03,1.901 -2.845,4.155 -2.813,2.249 -5.992,4.791 -9.279,6.529 -3.284,1.742 -6.358,3.386 -9.566,5.091 -3.212,1.704 -5.409,3.208 -6.74,2.503 -1.078,-0.575 -1.213,-4.484 -0.229,-6.76 1.104,-2.55 2.389,-5.068 3.621,-7.799 1.133,-2.511 3.119,-6.647 4.154,-9.172 1.033,-2.525 2.173,-5.257 1.673,-6.078 -0.503,-0.82 -1.774,-1.481 -4.428,-2.426 -2.654,-0.945 -5.689,-1.673 -8.07,-2.525 -2.379,-0.853 -5.386,-1.879 -6.442,-3.165 -0.487,-0.591 -0.708,-1.194 -0.341,-1.468 l -3.438,-3.165 3.732,1.355 0.296,-0.479 -2.981,-3.652 3.971,1.652 0.411,-0.593 -2.983,-3.529 3.948,2.015 0.458,-0.409 -2.22,-3.212 3.21,2.496 0.706,-0.388 -1.877,-3.644 3.916,2.631 0.6,-0.183 -1.786,-3.05 3.597,2.754 0.411,-0.091 -1.24,-2.663 3.232,2.526 -0.685,-2.221 2.641,2.221 0.638,0.022 c 0,0 -0.251,-1.08 -0.638,-1.468 0,0 1.924,1.24 2.06,1.401 0.138,0.159 0.114,-0.253 0.091,-0.479 -0.021,-0.229 -0.203,-0.807 0.092,-0.692 0.296,0.111 0.987,0.802 1.332,1.147 0.159,0.159 0.662,0.115 0.662,-0.159 0,-0.274 -0.168,-1.218 0.183,-1.104 0.35,0.115 0.618,0.043 1.194,1.194 0.068,0.137 1.438,0.228 1.809,0.068 L 82.573,70.61 c 0,0 -1.353,-0.807 -1.65,-0.783 -0.296,0.022 -0.349,0.851 -0.601,0.874 -0.25,0.023 -1.504,-1.694 -2.082,-1.886 -0.2,-0.066 -0.344,1.445 -0.344,1.445 0,0 -1.444,-2.7 -2.935,-2.866 -0.21,-0.025 0.434,1.27 0.229,1.907 0,0 -1.651,-2.561 -3.507,-3.026 l 0.365,2.176 -2.54,-2.45 -1.149,-0.212 0.797,2.41 -2.835,-2.333 -1.036,0.091 1.127,2.744 -2.869,-2.22 -0.988,0.343 1.4,3.187 -3.232,-2.449 -1.174,0.731 2.183,3.391 -3.672,-2.311 -1.049,0.843 3.277,4.153 -4.769,-2.253 -0.716,1.423 4.199,3.948 -4.815,-1.49 c 0,0 -0.092,0.957 -0.092,1.764 0,0.806 -0.195,0.775 -0.59,0.57 -0.398,-0.206 -5.176,-2.891 -8.125,-6.168 -2.949,-3.28 -4.683,-5.306 -6.091,-9.653 -0.877,-2.7 -0.07,-2.981 1.718,-3.277 1.789,-0.297 6.877,-0.729 11.736,-0.433 4.859,0.294 9.819,0.897 13.761,1.58 3.938,0.684 7.672,1.319 12.1,2.413 4.425,1.096 13.359,3.275 13.359,3.275 z"
     id="path881" /><path
     fill="#ed1c24"
     d="m 25.516,33.037 h -8.848 v 5.004 h 1.673 v 14.488 h -1.673 v 5.198 h 8.848 v -9.444 h 3.745 v 9.444 h 6.02 c 0,-1.664 0.03,-2.5 14.609,-5.229 H 36.446 v -8.913 h -4.64 l 3.072,-5.358 h 2.53 v -5.19 H 30.596 L 25.517,43.586 V 33.037 Z"
     id="path883" /><polygon
     fill="#ed1c24"
     points="249.923,324.091 246.17,324.091 246.17,327.916 249.923,327.916 "
     id="polygon885"
     transform="translate(-205.378,-296.378)" /><polygon
     fill="#ed1c24"
     points="256.463,324.091 252.711,324.091 252.711,327.916 256.463,327.916 "
     id="polygon887"
     transform="translate(-205.378,-296.378)" /><path
     fill-rule="evenodd"
     clip-rule="evenodd"
     fill="#ed1c24"
     d="m 44.587,36.737 v 10.217 h 2.706 V 36.737 Z m -2.057,-3.7 h 6.716 c 1.547,0 2.802,1.252 2.802,2.799 v 11.943 c 0,1.547 -1.254,2.802 -2.802,2.802 H 42.53 c -1.547,0 -2.802,-1.254 -2.802,-2.802 V 35.836 c -0.001,-1.547 1.255,-2.799 2.802,-2.799 z"
     id="path889" /><polygon
     fill="#ed1c24"
     points="266.002,332.973 266.002,329.415 258.418,329.415 258.418,332.973 259.653,332.973 259.653,343.259 258.418,343.259 258.418,346.959 271.7,346.959 271.7,340.263 266.964,340.263 266.964,343.259 264.725,343.259 264.725,332.973 "
     id="polygon891"
     transform="translate(-205.378,-296.378)" /><polygon
     fill="#ed1c24"
     points="283.342,338.152 278.608,329.415 272.75,329.415 272.75,332.973 273.98,332.973 273.98,343.259 272.75,343.259 272.75,346.959 278.661,346.959 278.661,338.052 283.342,346.959 288.054,346.959 288.054,332.973 289.149,332.973 289.149,329.415 283.342,329.415 "
     id="polygon893"
     transform="translate(-205.378,-296.378)" /><polygon
     fill="#ed1c24"
     points="299.904,336.281 296.096,336.281 296.096,332.973 298.936,332.973 298.936,334.92 303.009,334.92 303.009,329.415 289.978,329.415 289.978,332.973 291.186,332.973 291.186,343.259 289.978,343.259 289.978,346.959 303.286,346.959 303.286,340.972 298.919,340.972 298.919,343.259 296.096,343.259 296.096,339.599 299.904,339.599 "
     id="polygon895"
     transform="translate(-205.378,-296.378)" /><path
     fill="#ed1c24"
     d="m 129.399,39.903 v -6.866 h -6.128 v 3.558 h 1.197 v 10.286 h -1.197 v 3.564 c 0,0 2.966,-1.073 6.128,-1.073 v -5.78 h 2.712 v 6.072 c 0,0 0.353,0.067 0.743,0.918 h 5.465 v -3.701 h -1.303 V 36.595 h 1.303 v -3.558 h -6.208 v 6.866 z"
     id="path897" /><path
     fill-rule="evenodd"
     clip-rule="evenodd"
     fill="#ed1c24"
     d="m 147.401,36.049 h -0.208 l -1.03,7.172 h 2.404 z m -6.62,10.832 h -1.428 v 3.701 h 5.897 l 0.621,-4.315 h 3.04 l 0.568,4.315 h 5.678 v -3.701 h -1.238 l -2.735,-13.844 h -8.014 z"
     id="path899" /><polygon
     fill="#ed1c24"
     points="361.453,329.415 361.453,332.973 362.706,332.973 362.706,343.259 361.453,343.259 361.453,346.959 368.823,346.959 368.823,343.259 367.63,343.259 367.63,332.973 368.823,332.973 368.823,329.415 "
     id="polygon901"
     transform="translate(-205.378,-296.378)" /><path
     fill="#ed1c24"
     d="m 164.722,33.037 v 5.113 h 1.678 v 14.292 h -33.825 c 0,0 -5.072,2.331 -7.568,5.286 h 58.354 V 49.32 h -6.121 v 3.122 h -3.942 v -5.045 h 5.317 v -4.641 h -5.317 V 38.15 h 3.942 v 2.656 h 5.757 v -7.77 h -18.275 z"
     id="path903" /><path
     fill="#ed1c24"
     d="M 116.147,52.442 H 82.452 c 0,0 13.172,2.017 22.833,5.054 0,0 1.526,-0.87 4.938,-2.568 2.52,-1.253 5.924,-2.486 5.924,-2.486 z"
     id="path905" /><path
     fill-rule="evenodd"
     clip-rule="evenodd"
     fill="#ed1c24"
     d="m 104.998,36.789 v 3.34 h 2.848 v -3.34 z m -6.096,-3.752 v 3.558 h 1.209 v 10.286 h -1.209 v 3.701 h 6.096 v -7.105 h 2.844 v 5.625 c 0,0.689 0.538,1.487 1.103,1.479 0.564,-0.007 4.98,0 4.98,0 V 46.88 h -1.182 c 0,-4.354 -0.58,-4.491 -2.439,-5.042 -0.026,-0.008 2.439,-0.775 2.439,-3.296 v -2.534 c 0,-1.199 -1.363,-2.971 -3.03,-2.971 z"
     id="path907" /><path
     fill="#ffffff"
     d="m 61.22,57.35 c 0,-1.294 1.096,-2.344 2.447,-2.344 1.352,0 2.447,1.05 2.447,2.344 0,1.295 -1.096,2.344 -2.447,2.344 -1.352,0 -2.447,-1.049 -2.447,-2.344 z"
     id="path909" /><path
     d="m 62.084,57.583 c 0,-0.677 0.503,-1.228 1.121,-1.228 0.619,0 1.121,0.551 1.121,1.228 0,0.678 -0.502,1.227 -1.121,1.227 -0.618,0 -1.121,-0.549 -1.121,-1.227 z"
     id="path911" /><path
     d="m 36.27,23.198 v 5.255 H 12.126 v 14.003 h 1.66 v 5.606 h -1.66 v 14.346 h 26.409 c 0,0 -0.609,-1.357 -0.605,-2.961 H 15.076 v -8.441 h 1.677 V 39.648 H 15.076 V 31.395 H 27.09 v 5.143 l 2.491,-5.143 h 9.606 v -5.289 h 13.509 v 5.289 h 9.513 v 6.815 h -1.271 v 4.039 h 6.063 V 38.21 h -1.206 v -6.815 h 8.39 l 2.175,4.073 v -4.073 h 33.165 c 2.72,0 4.787,2.37 4.787,4.563 0,2.208 0,2.787 0,2.787 0,1.237 -0.345,2.118 -1.102,3.012 0,0 1.102,1.027 1.102,3.609 h 1.254 v 5.641 h 5.65 c 0,0 0.372,-0.157 0.492,-0.157 v -5.484 h 1.187 v -7.155 h -1.187 v -6.815 h 18.191 v 6.815 h -1.295 v 7.155 h 0.784 l 2.477,-13.97 h 10.662 l 2.723,13.97 h 0.512 v -7.155 h -1.254 v -6.815 h 30.068 v 11.061 h -4.345 v 5.283 h 4.75 v 11.709 h -36.605 l 9.268,3.009 c -0.008,0.008 2.371,0 2.371,0 -0.367,2.232 -1.803,3.008 -3.352,4.455 -3.512,3.285 -8.886,8.718 -12.556,13.297 -3.67,4.576 -8.987,12.758 -11.851,13.431 0,0 0.136,5.251 -5.519,15.078 0,0 2.287,5.723 4.408,10.336 2.121,4.609 4.28,9.741 3.671,11.378 -0.538,1.446 -1.853,1.412 -2.292,1.515 0,0 3.064,1.783 4.916,1.95 1.852,0.167 3.258,-1.008 2.996,-2.625 -0.939,-5.889 -5.89,-14.036 -8.181,-20.564 0,0 5.487,-9.359 5.457,-15.251 0,0 1.478,-0.27 4.341,-3.769 1.208,-1.482 4.746,-6.126 6.329,-8.079 1.579,-1.954 9.794,-11.141 12.99,-14.137 3.2,-2.997 5.42,-3.905 3.534,-7.02 h 22.967 V 28.455 h -69.144 v 12.192 h -1.821 c 0,0 0.397,-0.43 0.37,-4.687 -0.033,-5.063 -4.847,-7.505 -7.271,-7.505 -2.995,0 -54.348,0 -54.348,0 V 23.2 H 36.27 Z"
     id="path913" /><path
     d="m 117.81,125.954 -4.341,-1.806 c 0,0 -13.657,5.632 -15.715,6.479 -2.057,0.841 -3.234,1.686 -3.713,3.859 -0.479,2.17 -1.101,8.533 -4.487,11.075 0,0 -0.257,3.199 2.831,2.98 3.091,-0.224 5.484,-3.572 6.328,-7.84 0.846,-4.266 0.957,-7.098 4.675,-8.644 3.715,-1.542 14.422,-6.103 14.422,-6.103 z"
     id="path915" /><path
     d="m 82.812,142.941 c 0.564,-2.224 0.788,-3.962 -1.068,-5.132 -0.664,-0.417 -4.619,1.48 -4.978,2.495 -0.497,1.409 -0.685,2.97 -1.583,7.688 -0.898,4.724 -1.607,7.39 -1.838,9.692 -0.231,2.299 -0.487,5.521 -0.461,7.764 0.024,2.238 0.248,6.325 -0.385,7.628 0,0 0.948,3.901 3.421,3.72 1.216,-0.087 2.375,-0.352 2.53,-3.901 0.153,-3.549 0.273,-7.146 0.812,-11.816 0.54,-4.67 1.001,-6.561 1.941,-10.923 0.942,-4.359 1.044,-4.992 1.609,-7.215 z"
     id="path917" /></g>
</svg>
