<?xml version="1.0" encoding="UTF-8" standalone="no"?>
<svg
   clip-rule="evenodd"
   fill-rule="evenodd"
   stroke-linejoin="round"
   stroke-miterlimit="2"
   viewBox="0 0 200 200"
   version="1.1"
   id="svg3309"
   sodipodi:docname="logo_IEC.svg"
   width="200"
   height="200"
   inkscape:version="1.1 (c68e22c387, 2021-05-23)"
   xmlns:inkscape="http://www.inkscape.org/namespaces/inkscape"
   xmlns:sodipodi="http://sodipodi.sourceforge.net/DTD/sodipodi-0.dtd"
   xmlns:xlink="http://www.w3.org/1999/xlink"
   xmlns="http://www.w3.org/2000/svg"
   xmlns:svg="http://www.w3.org/2000/svg">
  <defs
     id="defs3313" />
  <sodipodi:namedview
     id="namedview3311"
     pagecolor="#ffffff"
     bordercolor="#666666"
     borderopacity="1.0"
     inkscape:pageshadow="2"
     inkscape:pageopacity="0.0"
     inkscape:pagecheckerboard="0"
     showgrid="false"
     inkscape:zoom="1.8892857"
     inkscape:cx="280.26465"
     inkscape:cy="199.81096"
     inkscape:window-width="1920"
     inkscape:window-height="1017"
     inkscape:window-x="-8"
     inkscape:window-y="-8"
     inkscape:window-maximized="1"
     inkscape:current-layer="svg3309" />
  <linearGradient
     id="a">
    <stop
       offset="0"
       stop-color="#0069b4"
       id="stop3098" />
    <stop
       offset="1"
       stop-color="#003063"
       id="stop3100" />
  </linearGradient>
  <linearGradient
     id="b"
     gradientTransform="matrix(10.252,-8.00975,8.00975,10.252,834.66,403.521)"
     gradientUnits="userSpaceOnUse"
     x1="0"
     x2="1"
     xlink:href="#a"
     y1="0"
     y2="0" />
  <linearGradient
     id="c"
     gradientTransform="matrix(5.58109,-4.36043,4.36043,5.58109,820.7,428.524)"
     gradientUnits="userSpaceOnUse"
     x1="0"
     x2="1"
     xlink:href="#a"
     y1="0"
     y2="0" />
  <linearGradient
     id="d"
     gradientTransform="matrix(6.59439,-5.1521,5.1521,6.59439,788.689,342.191)"
     gradientUnits="userSpaceOnUse"
     x1="0"
     x2="1"
     xlink:href="#a"
     y1="0"
     y2="0" />
  <linearGradient
     id="e"
     gradientTransform="matrix(5.27036,-4.11765,4.11765,5.27036,742.208,291.602)"
     gradientUnits="userSpaceOnUse"
     x1="0"
     x2="1"
     xlink:href="#a"
     y1="0"
     y2="0" />
  <linearGradient
     id="f"
     gradientTransform="matrix(120.277,75.1572,-75.1572,120.277,712.55,284.102)"
     gradientUnits="userSpaceOnUse"
     x1="0"
     x2="1"
     y1="0"
     y2="0">
    <stop
       offset="0"
       stop-color="#003063"
       id="stop3107" />
    <stop
       offset=".15"
       stop-color="#003063"
       id="stop3109" />
    <stop
       offset=".51"
       stop-color="#0069b4"
       id="stop3111" />
    <stop
       offset=".86"
       stop-color="#002c5c"
       id="stop3113" />
    <stop
       offset="1"
       stop-color="#002c5c"
       id="stop3115" />
  </linearGradient>
  <clipPath
     id="g">
    <path
       clip-rule="evenodd"
       d="M 696.959,277.975 H 857.371 V 442.667 H 696.959 Z"
       id="path3118" />
  </clipPath>
  <g
     fill-rule="nonzero"
     id="g3307"
     transform="matrix(0.7407373,0,0,0.7407373,-107.40444,-48.147025)">
    <g
       clip-path="url(#g)"
       transform="matrix(1.6394315,0,0,-1.6394315,-993.55986,790.72101)"
       id="g3167">
      <path
         d="m 0,0.036 c -1.171,-0.846 -3.314,-3.317 -3.197,-5.477 0.055,-1.067 0.667,-1.837 1.311,-2.14 1.518,1.151 3.239,3.096 3.434,5.08 C 1.646,-1.525 1.337,-0.65 0.631,0.095 0.556,0.176 0.481,0.251 0.407,0.329 Z m -10.531,-4.843 c -0.722,-0.904 -1.35,-1.931 -1.642,-3.008 -0.069,-0.25 -0.114,-0.52 -0.127,-0.781 0.036,0.095 0.071,0.186 0.107,0.277 0.41,1.024 0.83,2.085 1.321,2.946 0.11,0.192 0.224,0.381 0.341,0.566 m -8.183,-47.74 c -0.032,0 -0.068,-0.006 -0.11,-0.016 -0.267,-0.081 -1.08,-0.498 -1.249,-0.592 -0.576,-0.377 -1.22,-0.81 -1.812,-1.317 -0.494,-0.423 -0.991,-0.816 -1.489,-1.21 -0.202,-0.159 -0.397,-0.315 -0.592,-0.472 2.016,0.69 4.033,1.259 6.013,1.695 0.111,0.777 -0.039,1.359 -0.442,1.74 -0.185,0.172 -0.283,0.172 -0.319,0.172 M -35.56,-150.7 c -0.462,0 -0.882,0.058 -1.187,0.162 -2.606,0.869 -4.866,2.966 -4.027,5.688 0.586,1.903 3.766,5.015 6.092,7.286 0.494,0.481 0.933,0.913 1.278,1.261 0.058,0.065 0.793,0.937 1.571,1.861 0.871,1.034 1.925,2.283 2.693,3.187 -0.03,0.042 -0.059,0.088 -0.088,0.133 -1.142,0.927 -4.807,4.976 -6.264,7.409 -0.166,-0.468 -0.39,-1.242 -0.638,-2.443 l -0.175,-0.829 -0.732,0.429 c -0.93,0.547 -3.743,5.926 -3.838,6.173 -0.016,0.039 -0.032,0.088 -0.048,0.14 l -0.147,0.225 c -0.078,-0.16 -0.166,-0.329 -0.27,-0.514 l -0.374,-0.667 -0.566,0.511 c -0.396,0.357 -0.783,0.735 -1.154,1.122 -2.696,2.839 -4.459,6.231 -4.921,9.369 l -0.361,-0.614 -0.549,0.722 c -1.825,2.393 -3.741,6.42 -4.254,9.639 -0.01,-0.022 -0.446,-1.105 -0.446,-1.105 l -0.647,0.917 c -1.542,2.195 -1.685,5.454 -0.394,8.934 1.132,3.044 3.096,5.535 5.295,6.843 -0.345,-0.056 -0.732,-0.196 -1.246,-0.446 l -1.369,-0.66 0.534,1.421 c 1.902,5.077 9.363,11.77 11.88,13.458 0.238,0.198 0.524,0.429 0.823,0.65 0.377,0.277 0.748,0.54 1.119,0.797 l -1.731,-0.462 0.326,1.051 c 1.301,4.212 5.317,7.883 9.704,10.371 l -0.032,0.426 c 0.075,4.18 1.418,7.155 4.355,9.643 0.182,0.157 0.494,0.381 0.894,0.667 0.462,0.335 1.031,0.742 1.591,1.181 -1.048,-0.082 -1.932,-0.781 -2.866,-1.516 -0.696,-0.549 -1.414,-1.115 -2.244,-1.457 l -0.276,-0.114 c -1.165,-0.481 -2.371,-0.979 -3.555,-0.979 -0.498,0 -0.959,0.091 -1.372,0.27 -1.483,0.638 -1.877,2.283 -1.617,3.545 0.296,1.438 1.321,2.368 2.608,2.368 0.147,0 0.303,-0.01 0.466,-0.039 l 0.631,-0.319 -0.368,-0.767 c -0.394,-0.296 -0.566,-1.142 -0.462,-1.389 0.088,-0.042 0.199,-0.062 0.329,-0.062 0.637,0 1.476,0.495 1.886,0.95 1.359,1.515 2.963,3.161 5.178,4.238 -1.991,0.419 -4.193,0.494 -5.51,0.494 l -0.702,-0.003 c -0.93,-0.013 -1.734,-0.023 -2.667,-0.127 -0.504,-0.055 -1.519,-0.319 -2.065,-0.459 l -0.267,-0.071 c -1.21,-0.449 -3.005,-1.116 -4.234,-1.779 -0.869,-0.465 -3.36,-1.991 -3.799,-2.342 l -1.428,-1.135 0.459,1.763 c 1.629,6.306 5.024,9.259 8.452,11.51 1.688,1.105 3.344,1.97 5.546,2.888 0.419,0.172 0.822,0.325 1.19,0.452 -0.026,0.013 -0.052,0.022 -0.075,0.032 -5.168,2.205 -8.001,6.033 -7.776,10.499 0.237,4.741 2.039,9.028 4.943,11.76 5.324,5.005 10.3,7.223 17.172,7.652 l 2.332,0.127 -1.997,-1.265 c -3.018,-1.688 -5.203,-4.004 -6.156,-5.474 -1.061,-1.632 -2.482,-4.504 -2.131,-6.312 0.358,0.663 0.703,1.346 1.002,1.935 l 0.273,0.537 c 0.963,1.879 2.053,4.01 3.679,5.616 2.598,2.573 6.007,3.292 9.012,3.929 l 1.815,0.341 c 0.884,0.638 1.86,1.135 2.936,1.5 l 0.017,0.016 0.159,0.042 0.039,0.017 c 0.091,0.029 0.276,0.091 0.446,0.152 1.274,0.407 2.237,0.631 3.382,0.866 l 0.023,0.006 C -1.639,2.147 -2.937,2.898 -4.319,3.37 L -4.452,3.412 C -5.155,3.656 -6.335,4.059 -7.51,4.098 l -1.642,0.059 1.281,1.027 c 0.352,0.28 0.885,0.55 1.636,0.826 2.056,0.755 3.939,1.109 5.929,1.109 0.7,0 1.431,-0.048 2.17,-0.136 C 3.207,6.817 4.54,6.524 5.851,6.111 3.75,7.536 0.407,8.983 -4.342,9.936 l -1.805,0.364 1.665,0.784 c 1.334,0.628 3.63,1.203 5.207,1.444 1.06,0.166 2.153,0.247 3.246,0.247 7.24,0 14.847,-3.763 18.935,-9.36 3.239,-4.439 3.977,-11.318 1.759,-16.356 -2.182,-4.946 -6.335,-7.646 -9.724,-9.444 0.299,-0.205 0.881,-0.469 1.194,-0.608 0.364,-0.166 0.679,-0.306 0.9,-0.449 1.217,-0.784 2.225,-1.464 3.191,-2.228 2.107,-1.668 3.818,-3.249 5.233,-4.826 2.146,-2.397 5.155,-5.981 6.485,-9.412 l 0.247,-0.631 -0.657,-0.176 c -0.117,-0.033 -0.244,-0.049 -0.387,-0.049 -0.276,0 -0.585,0.059 -0.885,0.121 0.586,-1.171 0.999,-1.942 2.427,-1.942 0.065,0 0.13,0.003 0.195,0.006 0.182,0.007 0.361,0.01 0.543,0.01 1.724,0 3.636,-0.361 5.379,-1.021 0.631,-0.237 1.223,-0.553 1.799,-0.855 0.481,-0.254 0.94,-0.495 1.405,-0.69 0.618,0.504 1.271,1.002 2.097,1.298 0.644,0.234 1.285,0.426 1.783,0.572 0.559,0.322 1.814,0.999 2.803,1.142 0.01,0.003 0.602,0.084 0.914,0.091 0.075,0.01 0.153,0.013 0.228,0.013 0.289,0 0.559,-0.062 0.796,-0.117 0.134,-0.033 0.261,-0.062 0.374,-0.078 0.355,0.406 0.696,0.862 1.025,1.304 0.293,0.39 0.595,0.793 0.894,1.151 1.389,1.639 2.787,3.272 4.189,4.898 0.67,0.781 1.35,1.551 2.033,2.325 1.454,1.649 2.959,3.35 4.322,5.1 0.062,0.075 0.498,0.862 -2.729,4.628 l -0.136,0.156 c -1.929,2.27 -3.701,4.27 -5.906,5.734 -2.352,1.561 -5.152,3.346 -8.092,4.751 -1.304,0.625 -2.829,1.327 -4.42,1.757 -0.153,0.042 -0.315,0.081 -0.484,0.123 -1.171,0.286 -2.778,0.68 -3.139,2.183 -0.728,3.011 1.047,4.462 2.931,5.997 0.195,0.162 0.396,0.325 0.598,0.494 0.663,0.556 1.441,1.239 2.205,1.909 0.956,0.839 1.857,1.633 2.514,2.156 l 0.299,0.254 c 0.299,0.257 0.56,0.478 0.888,0.709 0.761,0.533 1.529,0.615 1.919,0.615 0.065,0 0.156,0 0.254,-0.016 0.058,0.003 0.117,0.006 0.172,0.006 2.491,0 6.674,-2.228 8.921,-3.425 l 0.543,-0.289 c 4.547,-2.387 7.773,-4.465 10.791,-6.95 0.368,-0.303 0.745,-0.608 1.129,-0.917 2.598,-2.105 5.542,-4.488 7.181,-7.429 2.478,-4.992 2.637,-9.025 0.484,-12.017 -2.055,-2.852 -4.416,-5.532 -6.699,-8.121 l -0.15,-0.172 c -2.605,-2.956 -5.246,-5.864 -7.711,-8.566 l -0.586,-0.641 c -0.543,-0.595 -1.089,-1.19 -1.622,-1.795 -0.137,-0.309 0.452,-1.496 0.803,-1.744 1.899,-0.032 3.298,-0.894 3.847,-2.367 0.244,-0.654 0.228,-1.288 0.215,-1.851 -0.01,-0.436 -0.02,-0.849 0.098,-1.197 0.77,-2.299 -0.401,-4.273 -1.431,-6.016 -0.313,-0.527 -0.609,-1.028 -0.853,-1.526 -0.338,-0.696 -0.393,-1.323 -0.455,-2.049 -0.032,-0.383 -0.068,-0.78 -0.143,-1.219 -0.276,-1.568 -0.689,-3.1 -1.259,-4.684 -1.011,-2.803 -2.745,-5.154 -5.018,-6.797 -1.714,-1.236 -3.49,-2.078 -5.591,-2.647 l -0.657,-0.176 c -0.406,-0.143 -0.835,-0.257 -1.242,-0.325 l -0.263,-0.075 -0.524,-0.14 c -0.228,-0.055 -0.569,-0.175 -0.842,-0.27 -0.065,-0.055 -0.127,-0.11 -0.189,-0.169 -0.136,-0.123 -0.273,-0.25 -0.452,-0.377 -1.19,-1.021 -2.218,-1.418 -3.561,-1.568 0.634,-0.604 0.806,-0.819 0.748,-1.177 l -0.055,-0.319 -0.306,-0.152 c -0.319,-0.147 -0.67,-0.228 -0.979,-0.3 -0.124,-0.029 -0.247,-0.058 -0.361,-0.087 -0.277,-0.079 -0.556,-0.16 -0.842,-0.244 -0.963,-0.287 -1.962,-0.586 -2.989,-0.648 -0.521,-0.032 -1.048,-0.045 -1.571,-0.045 -2.657,0 -5.389,0.406 -8.131,1.216 -2.92,-3.372 -26.594,-30.685 -27.046,-31.173 -0.032,-0.036 -0.123,-0.146 -0.237,-0.283 -0.286,-0.351 -0.485,-0.588 -0.631,-0.758 0.787,-1.996 0.686,-4.237 0.533,-5.785 -0.058,-0.576 -0.767,-4.371 -1.675,-5.22 -0.809,-0.755 -0.936,-0.999 -1.131,-1.369 -0.131,-0.248 -0.293,-0.553 -0.648,-1.031 -0.429,-0.579 -0.357,-0.84 -0.273,-1.142 0.055,-0.205 0.127,-0.465 0.036,-0.758 -0.312,-1.327 -1.171,-2.686 -2.056,-3.955 -0.708,-1.021 -1.961,-2.299 -3.356,-2.822 l -0.185,-0.072 c -0.426,-0.143 -0.543,-0.273 -0.738,-0.491 -0.215,-0.241 -0.482,-0.543 -1.054,-0.803 l -0.088,-0.039 c -0.826,-0.381 -1.958,-0.898 -3.187,-0.898 -0.098,0 -0.195,0.003 -0.293,0.01 -0.533,0.039 -0.898,0.078 -1.174,0.11 -0.224,0.023 -0.381,0.043 -0.52,0.043 -0.046,0 -0.091,0 -0.137,-0.007 -0.472,-0.059 -2.338,-0.341 -3.028,-0.543 l -0.153,-0.046 c -0.026,-0.006 -0.049,-0.009 -0.075,-0.016 -0.413,-0.091 -0.842,-0.13 -1.284,-0.13 -0.442,0 -1.285,0.046 -1.968,0.354 -0.26,0.121 -0.51,0.375 -1.015,0.895 -0.211,0.221 -0.439,0.458 -0.686,0.696 -0.068,-0.065 -0.13,-0.12 -0.192,-0.176 -0.1,-0.091 -0.214,-0.192 -0.387,-0.364 -0.907,-0.907 -1.606,-1.594 -2.266,-2.241 -1.002,-0.982 -1.864,-1.828 -3.191,-3.187 -0.924,-0.956 -1.047,-1.109 -1.155,-1.246 -0.139,-0.172 -0.26,-0.322 -1.242,-1.336 l -0.432,-0.449 c -0.973,-1.021 -2.186,-2.293 -3.106,-2.758 -0.807,-0.397 -1.688,-0.455 -2.14,-0.455"
         transform="translate(775.19,429.282)"
         id="path3121" />
      <path
         d="m 0,0.036 c 0,0 -0.146,0.745 -1.398,0.885 -1.253,0.143 -2.81,-0.973 -3.162,-2.684 -0.377,-1.824 0.433,-3.564 1.971,-4.227 0.491,-0.212 1.034,-0.319 1.613,-0.319 1.308,0 2.628,0.546 3.792,1.028 l 0.166,0.068 C 1.353,-7.366 0.576,-9.9 0.517,-13.113 v -0.107 c -4.371,-2.557 -8.332,-6.264 -9.643,-10.521 l -0.592,-1.916 c -2.868,-2.039 -9.906,-8.453 -11.815,-13.542 l -1.067,-2.849 0.423,0.204 c -1.047,-1.274 -1.935,-2.816 -2.57,-4.517 -1.362,-3.672 -1.193,-7.132 0.469,-9.497 l 1.288,-1.837 0.14,0.348 c 0.829,-2.878 2.409,-5.984 3.928,-7.981 l 1.103,-1.444 0.023,0.039 c 0.754,-2.791 2.416,-5.662 4.754,-8.121 0.378,-0.4 0.778,-0.79 1.184,-1.158 l 1.135,-1.021 0.475,0.849 c 0.816,-1.571 2.794,-5.214 3.734,-5.767 l 1.463,-0.858 0.345,1.662 c 0.091,0.432 0.179,0.81 0.26,1.132 1.574,-2.225 4.075,-4.999 5.311,-6.141 -0.715,-0.845 -1.59,-1.883 -2.335,-2.764 -0.735,-0.872 -1.431,-1.698 -1.561,-1.848 -0.338,-0.341 -0.768,-0.761 -1.246,-1.229 -3.073,-3.005 -5.665,-5.646 -6.251,-7.542 -0.956,-3.116 1.532,-5.483 4.423,-6.449 0.358,-0.12 0.849,-0.189 1.376,-0.189 0.504,0 1.49,0.065 2.4,0.514 0.953,0.478 2.053,1.59 3.288,2.888 0.15,0.159 0.293,0.309 0.426,0.446 1.002,1.034 1.132,1.193 1.282,1.379 0.094,0.12 0.215,0.266 1.119,1.206 1.317,1.347 2.179,2.192 3.174,3.171 0.663,0.647 1.366,1.337 2.273,2.244 0.049,0.049 0.091,0.091 0.13,0.127 0.091,-0.091 0.182,-0.185 0.267,-0.273 0.514,-0.533 0.823,-0.852 1.194,-1.025 0.754,-0.341 1.626,-0.413 2.227,-0.413 0.478,0 0.95,0.046 1.36,0.134 l 0.016,-0.004 0.309,0.088 c 0.624,0.182 2.42,0.459 2.93,0.524 0.02,0 0.039,0.003 0.059,0.003 0.091,0 0.244,-0.016 0.455,-0.042 0.277,-0.029 0.654,-0.072 1.2,-0.111 0.111,-0.006 0.225,-0.009 0.335,-0.009 1.36,0 2.612,0.572 3.438,0.949 l 0.091,0.042 c 0.686,0.313 1.028,0.696 1.252,0.95 0.173,0.192 0.205,0.228 0.42,0.299 l 0.058,0.017 0.056,0.026 c 0.009,0.003 0.048,0.019 0.081,0.029 0.026,0.01 0.049,0.019 0.068,0.029 h 0.003 c 1.295,0.485 2.657,1.623 3.643,3.048 0.911,1.304 1.802,2.715 2.15,4.169 0.12,0.442 0.016,0.82 -0.046,1.05 -0.058,0.212 -0.078,0.274 0.176,0.615 0.384,0.514 0.562,0.859 0.696,1.112 0.172,0.326 0.276,0.521 1.008,1.207 1.2,1.119 1.86,5.561 1.867,5.604 0.149,1.525 0.25,3.701 -0.446,5.72 0.114,0.14 0.247,0.3 0.41,0.498 0.101,0.12 0.182,0.221 0.218,0.263 0.442,0.475 22.389,25.798 26.799,30.884 2.67,-0.751 5.33,-1.132 7.925,-1.132 0.534,0 1.074,0.017 1.607,0.049 1.096,0.065 2.13,0.374 3.125,0.67 0.28,0.081 0.557,0.166 0.83,0.241 0.107,0.029 0.221,0.055 0.338,0.081 0.338,0.078 0.722,0.169 1.096,0.341 l 0.589,0.27 0.117,0.654 c 0.055,0.338 0,0.599 -0.169,0.872 0.956,0.247 1.821,0.699 2.78,1.509 0.196,0.143 0.345,0.283 0.465,0.393 0.03,0.026 0.059,0.052 0.088,0.078 0.238,0.082 0.517,0.176 0.683,0.222 0.179,0.045 0.355,0.091 0.534,0.139 l 0.263,0.072 c 0.407,0.071 0.836,0.185 1.278,0.338 l 0.251,0.065 0.37,0.101 c 2.173,0.589 4.014,1.46 5.786,2.742 2.374,1.717 4.183,4.166 5.233,7.083 0.585,1.62 1.005,3.184 1.288,4.788 0.081,0.461 0.117,0.891 0.15,1.268 0.058,0.693 0.107,1.242 0.396,1.834 0.231,0.478 0.521,0.966 0.83,1.483 1.044,1.763 2.341,3.958 1.483,6.521 -0.085,0.247 -0.075,0.592 -0.065,0.992 0.013,0.585 0.029,1.314 -0.254,2.078 -0.605,1.626 -2.14,2.638 -4.147,2.752 -0.185,0.237 -0.393,0.666 -0.452,0.93 0.478,0.536 0.973,1.073 1.451,1.597 l 0.585,0.64 c 2.465,2.706 5.11,5.617 7.718,8.577 l 0.149,0.172 c 2.293,2.602 4.664,5.291 6.736,8.166 2.296,3.191 2.156,7.435 -0.42,12.619 l -0.013,0.026 -0.013,0.023 c -1.694,3.044 -4.689,5.47 -7.33,7.607 -0.384,0.309 -0.758,0.615 -1.122,0.914 -3.054,2.514 -6.313,4.615 -10.895,7.022 -0.16,0.081 -0.342,0.178 -0.544,0.286 -2.292,1.223 -6.563,3.496 -9.203,3.496 -0.059,0 -0.118,-0.003 -0.173,-0.003 -0.081,0.006 -0.162,0.01 -0.254,0.01 -0.461,0 -1.369,-0.092 -2.27,-0.722 -0.351,-0.248 -0.621,-0.479 -0.933,-0.745 -0.098,-0.082 -0.195,-0.166 -0.306,-0.257 -0.644,-0.517 -1.554,-1.314 -2.514,-2.16 -0.758,-0.663 -1.538,-1.349 -2.195,-1.899 -0.198,-0.166 -0.397,-0.329 -0.592,-0.488 -1.854,-1.512 -3.955,-3.229 -3.138,-6.612 0.448,-1.863 2.338,-2.325 3.587,-2.631 0.162,-0.042 0.322,-0.078 0.471,-0.12 1.539,-0.416 3.035,-1.106 4.316,-1.717 2.905,-1.389 5.682,-3.162 8.017,-4.713 2.137,-1.418 3.883,-3.382 5.779,-5.617 l 0.137,-0.159 c 2.296,-2.68 2.599,-3.682 2.631,-3.964 -1.333,-1.698 -2.8,-3.36 -4.218,-4.967 C 88.836,12.222 88.15,11.448 87.48,10.668 86.234,9.22 84.761,7.506 83.291,5.763 82.979,5.396 82.67,4.986 82.374,4.586 82.123,4.251 81.863,3.906 81.603,3.584 c 0,0.003 0,0.003 -0.003,0.003 -0.254,0.059 -0.576,0.134 -0.937,0.134 -0.094,0 -0.185,-0.007 -0.277,-0.016 C 79.999,3.692 79.447,3.613 79.44,3.613 78.409,3.461 77.189,2.836 76.477,2.43 75.983,2.283 75.362,2.095 74.731,1.867 73.953,1.587 73.313,1.148 72.747,0.703 72.412,0.859 72.07,1.038 71.719,1.226 c -0.592,0.309 -1.203,0.635 -1.867,0.885 -1.811,0.686 -3.798,1.06 -5.594,1.06 -0.191,0 -0.38,-0.003 -0.569,-0.01 -0.058,-0.003 -0.114,-0.003 -0.169,-0.003 -0.66,0 -1.382,0.27 -1.658,0.93 0.113,0.013 0.572,-0.016 0.816,-0.016 0.244,0 1.096,0.117 1.096,0.117 l -0.429,1.256 c -1.37,3.522 -4.424,7.164 -6.603,9.597 -1.437,1.603 -3.174,3.203 -5.307,4.895 -0.986,0.78 -2.007,1.47 -3.24,2.263 -0.26,0.169 -0.595,0.319 -0.978,0.491 -0.046,0.02 -0.098,0.043 -0.15,0.069 3.255,1.84 6.944,4.553 8.983,9.184 2.302,5.223 1.538,12.359 -1.822,16.961 -4.198,5.75 -12.004,9.61 -19.425,9.61 -1.126,0 -2.248,-0.084 -3.34,-0.254 -1.571,-0.24 -3.923,-0.813 -5.373,-1.496 l -3.337,-1.567 3.616,-0.729 c 2.326,-0.465 4.31,-1.057 5.965,-1.704 -0.618,0.062 -1.223,0.091 -1.811,0.091 -2.062,0 -4.014,-0.364 -6.141,-1.145 -0.823,-0.302 -1.395,-0.595 -1.801,-0.92 l -2.567,-2.055 3.285,-0.114 c 1.083,-0.039 2.209,-0.423 2.882,-0.654 l 0.133,-0.046 c 0.93,-0.315 1.815,-0.764 2.657,-1.343 -0.683,-0.159 -1.362,-0.344 -2.159,-0.598 L 26.786,45.974 26.76,45.965 C 26.6,45.906 26.428,45.844 26.34,45.818 L 26.282,45.799 26.025,45.73 25.992,45.698 c -1.044,-0.364 -2,-0.849 -2.868,-1.46 L 21.53,43.935 21.455,43.922 c -1.938,-0.41 -4.361,-1.106 -6.319,-2.032 0.231,0.143 0.999,1.063 1.87,1.678 0.872,0.611 2.456,1.388 2.456,1.388 L 15.507,44.839 C 8.479,44.4 3.392,42.133 -2.042,37.021 -5.064,34.185 -6.934,29.746 -7.181,24.848 -7.399,20.486 -4.898,16.714 -0.276,14.339 -2.449,13.429 -4.104,12.56 -5.789,11.455 -9.318,9.139 -12.817,6.095 -14.499,-0.41 l -0.914,-3.532 2.853,2.277 c 0.38,0.303 2.806,1.795 3.707,2.28 1.187,0.641 2.944,1.294 4.127,1.733 l 0.241,0.062 c 0.491,0.127 1.519,0.394 1.977,0.446 0.905,0.101 1.695,0.11 2.609,0.12 l 0.293,0.003 c 0.123,0.004 0.26,0.004 0.403,0.004 0.767,0 2.202,-0.03 3.717,-0.215 C 3.591,2.15 2.784,1.451 2.055,0.729 L 1.33,-0.016 C 1.106,-0.257 0.885,-0.497 0.673,-0.735 0.407,-1.031 -0.351,-1.606 -0.494,-1.496 -0.781,-1.278 -0.696,-0.819 -0.563,-0.553 -0.429,-0.286 0,0.036 0,0.036 m 28.903,38.26 c -0.342,0.289 -0.628,0.79 -0.664,1.424 -0.097,1.802 1.806,4.114 2.918,4.931 0.488,-0.579 0.689,-1.226 0.614,-1.961 -0.152,-1.562 -1.473,-3.246 -2.868,-4.394 m 5.9,19.003 c 7.496,0 14.677,-3.955 18.44,-9.113 3.093,-4.235 3.831,-10.902 1.694,-15.751 -1.912,-4.338 -5.411,-7.009 -9.48,-9.168 -1.503,-0.797 1.314,-1.597 2.078,-2.091 1.073,-0.693 2.14,-1.399 3.142,-2.192 1.834,-1.454 3.594,-3.012 5.158,-4.755 2.29,-2.556 5.119,-5.997 6.371,-9.227 -0.068,-0.016 -0.143,-0.026 -0.231,-0.026 -0.481,0 -1.213,0.247 -1.694,0.247 -0.088,0 -0.166,-0.009 -0.231,-0.026 -0.007,-0.003 -0.01,-0.003 -0.016,-0.006 0.923,-1.594 1.219,-3.252 3.486,-3.252 0.072,0 0.147,0 0.221,0.006 0.173,0.007 0.345,0.01 0.517,0.01 1.734,0 3.558,-0.377 5.162,-0.982 1.216,-0.462 2.325,-1.236 3.529,-1.672 0.679,0.553 1.346,1.116 2.195,1.421 0.601,0.215 1.206,0.4 1.818,0.579 0.764,0.449 1.857,0.989 2.65,1.106 0.173,0.026 0.654,0.084 0.856,0.084 h 0.013 c 0.058,0.007 0.12,0.013 0.182,0.013 0.442,0 0.878,-0.208 1.317,-0.208 0.042,0 0.085,0.004 0.124,0.007 0.764,0.829 1.437,1.87 2.117,2.676 1.385,1.64 2.784,3.269 4.182,4.895 2.127,2.469 4.371,4.875 6.375,7.445 0.949,1.213 -2.186,4.735 -2.878,5.554 -1.815,2.137 -3.685,4.284 -6.037,5.845 -2.602,1.73 -5.34,3.447 -8.163,4.797 -1.46,0.696 -2.956,1.369 -4.524,1.795 -1.167,0.316 -2.875,0.537 -3.194,1.86 -0.705,2.928 1.266,4.154 3.328,5.881 1.486,1.242 3.538,3.119 4.712,4.058 0.452,0.378 0.748,0.654 1.155,0.937 0.621,0.436 1.242,0.504 1.567,0.504 0.153,0 0.241,-0.016 0.241,-0.016 0.062,0.006 0.123,0.006 0.189,0.006 2.569,0 7.398,-2.705 9.181,-3.642 3.85,-2.023 7.304,-4.098 10.687,-6.882 2.826,-2.329 6.345,-4.911 8.163,-8.173 1.743,-3.512 3.011,-7.906 0.523,-11.363 -2.084,-2.888 -4.458,-5.575 -6.813,-8.245 -2.537,-2.881 -5.116,-5.724 -7.705,-8.563 -0.738,-0.81 -1.486,-1.616 -2.214,-2.439 -0.576,-0.654 0.611,-2.752 1.174,-2.755 1.392,-0.007 2.829,-0.533 3.362,-1.971 0.387,-1.037 -0.013,-2.088 0.306,-3.031 0.891,-2.664 -1.174,-4.865 -2.254,-7.083 -0.575,-1.184 -0.429,-2.17 -0.65,-3.428 -0.277,-1.568 -0.693,-3.084 -1.233,-4.583 -0.933,-2.589 -2.553,-4.881 -4.803,-6.508 -1.685,-1.219 -3.405,-2.016 -5.389,-2.556 -0.222,-0.058 -0.439,-0.114 -0.661,-0.176 -0.403,-0.139 -0.8,-0.247 -1.183,-0.312 -0.28,-0.075 -0.557,-0.149 -0.836,-0.224 -0.267,-0.068 -0.686,-0.215 -0.986,-0.319 -0.244,-0.179 -0.413,-0.387 -0.702,-0.595 -1.451,-1.236 -2.582,-1.496 -4.631,-1.529 0.647,-0.66 1.701,-1.561 1.557,-1.626 -0.377,-0.172 -0.845,-0.244 -1.245,-0.354 -1.197,-0.329 -2.456,-0.794 -3.708,-0.869 -0.51,-0.032 -1.021,-0.045 -1.532,-0.045 -2.784,0 -5.567,0.449 -8.332,1.301 0,0 -26.821,-30.946 -27.293,-31.453 -0.117,-0.13 -0.969,-1.207 -1.142,-1.32 0.885,-1.909 0.81,-4.212 0.648,-5.861 -0.078,-0.79 -0.81,-4.205 -1.487,-4.836 -1.408,-1.314 -0.975,-1.301 -1.85,-2.482 -0.875,-1.18 -0.205,-1.675 -0.329,-2.084 -0.318,-1.34 -1.232,-2.716 -1.974,-3.783 -0.745,-1.07 -1.899,-2.162 -3.07,-2.602 0.007,0 -0.163,-0.058 -0.218,-0.084 -0.998,-0.329 -0.839,-0.859 -1.798,-1.298 -0.784,-0.357 -1.883,-0.881 -3.022,-0.881 -0.084,0 -0.166,0.003 -0.25,0.01 -1.012,0.071 -1.408,0.153 -1.74,0.153 -0.072,0 -0.137,-0.004 -0.208,-0.014 -0.397,-0.048 -2.358,-0.338 -3.126,-0.562 h -0.003 c -0.029,-0.007 -0.058,-0.016 -0.088,-0.023 -0.052,-0.019 -0.088,-0.026 -0.136,-0.036 -0.319,-0.068 -0.709,-0.107 -1.113,-0.107 -0.611,0 -1.248,0.088 -1.72,0.299 -0.303,0.143 -1.064,1.086 -1.971,1.89 -0.481,-0.53 -0.537,-0.511 -0.985,-0.963 -2.257,-2.254 -3.243,-3.155 -5.464,-5.431 -1.909,-1.974 -0.488,-0.618 -2.4,-2.583 -0.921,-0.952 -2.407,-2.601 -3.376,-3.089 -0.579,-0.283 -1.275,-0.39 -1.864,-0.39 -0.41,0 -0.764,0.052 -0.992,0.13 -2.101,0.699 -4.41,2.436 -3.642,4.933 0.663,2.153 5.359,6.401 7.223,8.3 0.14,0.153 3.138,3.721 4.579,5.415 -0.094,0.176 -0.231,0.384 -0.387,0.612 -1.135,0.861 -5.428,5.649 -6.504,7.867 -0.069,0.146 -0.143,0.208 -0.218,0.208 -0.413,0 -0.908,-1.864 -1.226,-3.405 -0.67,0.393 -3.448,5.516 -3.578,5.864 -0.019,0.049 -0.042,0.114 -0.065,0.188 l -0.891,1.363 c -0.12,-0.667 -0.28,-1.018 -0.611,-1.62 -0.384,0.342 -0.758,0.706 -1.119,1.09 -2.823,2.969 -4.921,6.97 -4.875,10.664 -0.225,-0.185 -0.628,-0.748 -0.918,-1.239 -2.009,2.641 -4.335,7.692 -4.26,10.97 -0.494,-0.342 -0.807,-0.885 -1.07,-1.538 -3.324,4.732 1.08,14.29 6.475,15.65 -0.696,0.263 -1.21,0.413 -1.733,0.413 -0.54,0 -1.086,-0.163 -1.851,-0.534 1.857,4.957 9.214,11.533 11.65,13.165 0.276,0.225 0.553,0.453 0.842,0.667 1.382,1.012 2.81,1.952 4.306,2.791 0.612,0.341 0.576,0.383 1.226,0.65 -0.829,-0.338 -1.196,-0.494 -1.762,-0.715 -0.14,-0.056 -0.426,-0.14 -0.787,-0.212 -1.015,-0.273 -2.03,-0.546 -3.045,-0.816 1.753,5.678 8.638,10.192 13.979,12.134 2.374,1.012 4.416,1.776 7.077,2.384 0.25,0.81 0.549,1.177 -0.212,1.893 -0.266,0.247 -0.504,0.335 -0.735,0.335 -0.088,0 -0.169,-0.013 -0.257,-0.033 -0.413,-0.127 -1.382,-0.64 -1.401,-0.653 C 9.828,-8.472 9.087,-8.944 8.55,-9.311 8.014,-9.679 6.033,-10.83 4.849,-11.949 4.68,-12.111 3.756,-12.716 2.641,-13.041 c -0.296,-0.082 -0.449,-0.101 -0.553,-0.101 -0.094,0 -0.146,0.016 -0.231,0.016 -0.032,0 -0.072,0 -0.12,-0.01 0.071,3.883 1.219,6.716 4.137,9.191 0.484,0.41 2.231,1.542 3.522,2.713 -0.436,0.149 -0.839,0.214 -1.223,0.214 -2.215,0 -3.633,-2.237 -5.548,-3.024 -1.184,-0.485 -2.446,-1.048 -3.601,-1.048 -0.39,0 -0.77,0.065 -1.131,0.218 -2.14,0.924 -1.542,4.749 0.751,4.749 0.117,0 0.24,-0.01 0.364,-0.033 -0.696,-0.52 -0.998,-2.062 -0.436,-2.384 0.199,-0.114 0.426,-0.162 0.667,-0.162 0.829,0 1.824,0.578 2.342,1.154 C 3.447,0.53 5.356,2.335 8.218,3.187 5.88,4.053 2.634,4.199 0.797,4.199 H 0.377 C -0.689,4.183 -1.581,4.183 -2.644,4.066 -3.301,3.991 -4.644,3.623 -5.09,3.513 -6.326,3.054 -8.147,2.378 -9.428,1.688 c -0.875,-0.471 -3.412,-2.02 -3.893,-2.403 1.525,5.899 4.628,8.807 8.199,11.152 1.87,1.226 3.577,2.055 5.447,2.836 1.347,0.559 2.54,0.878 2.908,0.985 -0.527,0.16 -1.327,0.423 -1.789,0.621 -4.147,1.77 -7.653,5.032 -7.409,9.907 0.208,4.166 1.711,8.488 4.755,11.35 4.849,4.557 9.523,7.032 16.792,7.487 C 12.677,42 10.349,39.704 9.21,37.951 8.261,36.487 5.783,32.051 7.552,29.993 c 0.663,1.125 1.343,2.497 1.857,3.506 0.979,1.909 2.023,3.938 3.564,5.463 2.394,2.365 5.513,3.087 8.713,3.763 0.023,0.004 0.046,0.01 0.068,0.013 -1.492,-1.349 -3.131,-3.232 -3.684,-5.262 -0.248,-0.91 -0.254,-2.101 0.426,-2.605 0.663,1.477 1.252,3.285 1.99,4.583 1.441,2.523 3.379,4.28 6.153,5.177 l 0.004,0.003 c 0.003,0 0.006,0.004 0.013,0.004 0.019,0.006 0.035,0.013 0.052,0.019 0.097,0.029 0.292,0.098 0.475,0.163 1.17,0.374 2.074,0.592 3.291,0.842 -1.366,-0.985 -3.578,-3.646 -3.451,-6.007 0.078,-1.415 0.986,-2.511 2.02,-2.787 2.807,2 5.551,5.922 2.862,8.775 -1.454,1.544 -3.187,2.748 -5.197,3.434 -0.693,0.234 -2.02,0.716 -3.366,0.761 0.276,0.224 0.741,0.465 1.463,0.732 1.922,0.706 3.756,1.07 5.718,1.07 0.679,0 1.375,-0.046 2.097,-0.134 2.374,-0.289 4.68,-0.988 6.83,-2.016 -1.551,2.244 -5.909,4.781 -12.84,6.176 1.213,0.569 3.382,1.138 5.038,1.392 1.05,0.163 2.107,0.241 3.155,0.241"
         fill="#ffffff"
         transform="translate(744.36,384.152)"
         id="path3123" />
      <path
         d="m 0,0.036 c -0.01,0 -0.02,-0.007 -0.029,-0.01 C 0.01,0.029 0.029,0.033 0,0.036"
         transform="translate(761.378,324.153)"
         id="path3125" />
      <path
         d="M 0,0.036 C 0.107,0.088 0.852,0.491 0.872,0.504 0.81,-0.205 1.275,-1.161 1.577,-1.577 1.411,-1.577 1.239,-1.541 1.07,-1.476 0.42,-1.236 -0.153,-0.582 0,0.036"
         fill="#ffffff"
         transform="translate(759.025,398.511)"
         id="path3127" />
      <path
         d="m 0,0.036 c 0.033,-1.529 -0.998,-2.732 -2.205,-2.982 -0.664,-0.14 -1.389,0.006 -2.013,0.556 0.097,-0.049 0.195,-0.091 0.283,-0.124 2.328,-0.917 1.193,1.974 1.997,3.282 0.149,0.253 1.236,0.891 1.626,0.689 C -0.029,1.321 -0.007,0.394 0,0.036"
         fill="#f9b234"
         transform="translate(763.875,399.151)"
         id="path3129" />
      <path
         d="m 0,0.036 c -0.068,-0.299 -0.068,-0.598 0.007,-0.885 0.12,-0.471 0.445,-0.842 0.842,-0.959 0.267,-0.091 0.546,-0.133 0.849,-0.133 1.84,0 3.893,1.518 4.468,2.052 1.191,1.041 2.84,2.228 5.119,2.228 0.287,0 0.579,-0.02 0.872,-0.056 0.293,-0.035 0.585,-0.055 0.865,-0.055 1.555,0 2.713,0.556 3.939,1.142 0.091,0.042 0.178,0.084 0.266,0.126 -1.001,0.905 -3.502,1.705 -3.99,1.718 L 13.116,5.217 C 10.869,5.217 8.31,3.435 6.579,2.098 6.335,1.909 6.033,1.578 5.678,1.191 4.765,0.199 3.512,-1.164 2.046,-1.317 1.119,-1.31 0.459,-0.995 0.15,-0.426 0.081,-0.283 0.029,-0.127 0,0.036"
         fill="#7f0f00"
         transform="translate(741.838,381.824)"
         id="path3131" />
      <path
         d="m 0,0.036 c 2.068,1.587 10.079,2.566 16.629,-0.972 3.977,-2.15 14.834,-11.8 12.492,-9.715 -0.758,0.676 -7.074,4.872 -10.355,6.147 6.081,-4.856 12.339,-12.138 13.845,-19.992 0,0 -7.611,17.338 -16.093,17.829 0,0 11.266,-13.663 12.609,-25.865 -2.722,6.986 -5.961,12.924 -10.504,16.469 7.851,-12.397 9.594,-24.665 6.114,-34.519 -0.228,5.05 0.384,16.085 -1.945,19.887 -0.517,-1.896 1.359,-7.444 -0.033,-11.506 -0.016,8.742 -2.998,14.199 -7.555,18.251 2.231,-6.956 4.014,-15.175 2.014,-21.865 0,0 0.871,15.797 -5.471,25.677 5.806,-2.091 8.489,-5.89 10.027,-7.877 -1.857,8.498 -9.249,18.362 -12.564,19.501 0,0 4.398,-0.579 9.754,-5.249 -3.207,4.745 -4.186,8.231 -9.243,8.986 2.166,0.923 5.057,0.79 6.723,-0.013 C 12.164,2.095 2.13,0.465 0,0.036"
         fill="#575756"
         transform="translate(768.147,404.553)"
         id="path3133" />
      <path
         d="M 0,0.036 C -0.761,0.407 -1.753,0.693 -2.638,0.761 -2.729,1.376 -1.327,2.166 -0.624,2.612 0.218,3.145 2.205,3.971 3.821,4.605 3.909,4.739 3.997,4.869 4.082,5.002 3.112,4.703 2.127,4.332 1.226,3.997 -0.813,3.236 -3.854,1.691 -5.256,-0.016 c 1.061,-0.231 3.123,0.062 4.547,-0.498 0.247,0.186 0.485,0.368 0.709,0.55"
         fill="#575756"
         transform="translate(751.871,366.577)"
         id="path3135" />
      <path
         d="M 0,0.036 C 0.511,0.992 1.532,2.459 2.764,3.805 2.465,4.124 2.238,4.388 2.078,4.576 0.302,3.139 -1.681,1.116 -2.543,-1.154 -1.555,-1.382 4.147,-1.489 5.727,-0.897 5.659,-2.302 2.712,-9.093 2.882,-8.885 5.233,-6.023 6.14,-3.138 7.158,0.316 5.454,-0.107 2.387,-0.588 0,0.036"
         fill="#575756"
         transform="translate(746.848,359.163)"
         id="path3137" />
      <path
         d="m 0,0.036 c 0.771,-0.911 3.49,-3.899 6.96,-5.018 2.133,-0.69 3.701,-1.008 4.937,-1.008 0.4,0 0.735,0.032 1.037,0.081 -2.052,1.431 -7.168,5.119 -7.955,8.547 L 4.934,2.833 5.093,2.95 C 5.158,2.999 11.546,7.854 9.939,12.687 9.734,12.622 9.422,12.388 9.253,11.588 8.677,8.879 6.036,5.142 4.465,3.535 3.444,2.495 1.938,1.194 0,0.036"
         fill="#7f0f00"
         transform="translate(749.378,364.115)"
         id="path3139" />
      <path
         d="m 0,0.036 c 0,0 -0.813,-1.369 -4.212,-3.197 0,0 5.279,-5.633 10.86,-5.483 -6.394,2.032 -8.729,5.129 -8.729,5.129 0,0 1.727,1.47 2.081,3.551"
         fill="#a61916"
         transform="translate(754.044,367.192)"
         id="path3141" />
      <path
         d="M 0,0.036 C -0.963,0.673 -1.021,2.091 -2.257,2.498 -2.413,2.404 -2.273,2.078 -2.465,1.994 -3.239,1.883 -4.195,3.031 -3.252,3.36 -1.395,4.01 0.322,1.815 0,0.036 M 6.924,-2.862 C 7.064,-1.984 6.648,-0.452 6.501,0.13 6.417,0.465 6.189,1.09 6.023,1.412 4.969,3.464 3.239,5.897 0.598,5.825 -0.576,5.793 -2.013,5.506 -3.012,6.339 -3.503,6.752 -3.808,7.08 -4.153,7.64 -4.332,7.689 -4.472,7.585 -4.8,7.51 -6.296,7.168 -7.77,6.697 -9.181,6.108 c -2.348,-0.985 -4.527,-2.296 -6.381,-3.877 -2.111,-1.798 -3.513,-3.522 -4.771,-6.117 7.051,3.984 19.068,3.541 26.616,-0.992 0.13,0.64 0.501,1.135 0.641,2.016"
         fill="#faba36"
         transform="translate(754.552,390.682)"
         id="path3143" />
      <path
         d="M 0,0.036 C 0.159,0.02 0.312,0.01 0.455,0.01 0.423,0.303 0.403,0.651 0.384,1.031 0.312,2.303 0.068,4.326 -0.397,5.048 -0.514,5.23 -0.761,5.763 -1.2,5.955 -2.072,6.336 -3.906,5.178 -4.846,4.762 -7.158,3.747 -9.942,1.74 -11.585,-0.175 c -1.509,-1.76 -2.348,-3.897 -2.618,-5.851 1.812,1.772 3.747,3.815 6.141,4.989 2.075,1.018 5.444,2.406 8.062,1.073"
         fill="#faba36"
         transform="translate(761.815,378.472)"
         id="path3145" />
      <path
         d="M 0,0.036 C -1.021,0.332 -0.959,0.443 -0.127,-0.078 1.646,-1.18 4.394,-3.086 4.238,-4.231 4.02,-5.828 1.363,-5.714 -0.459,-5.428 c -1.528,0.238 -4.94,0.163 -6.338,-0.049 -1.402,-0.211 -7.328,-0.923 -9.637,-2.666 4.462,1.661 9.214,2.442 15,1.736 C 4.352,-7.116 7.955,-8 8.31,-9.789 8.521,-7.6 8.245,-6.397 7.659,-4.933 7.067,-3.45 5.448,0.306 3.184,-0.097 1.87,-0.335 0.794,-0.195 0,0.036"
         fill="#f39200"
         transform="translate(752.304,395.993)"
         id="path3147" />
      <path
         d="M 0,0.036 C -1.802,-1.545 -4.069,-3.402 -4.374,-5.051 -2.79,-2.959 -0.732,-1.307 1.32,0.117 4.817,2.543 9.819,4.28 10.55,4.674 8.755,4.589 2.569,2.29 0,0.036"
         fill="#fdcd7a"
         transform="translate(739.717,392.975)"
         id="path3149" />
      <path
         d="m 0,0.036 c 0,0 1.499,-3.096 1.418,-4.352 -1.938,0.635 -5.877,-0.169 -7.467,-1.011 -1.067,-0.566 -2.862,-1.473 -5.62,-4.348 0.771,1.584 3.529,4.315 5.028,5.145 1.502,0.829 5.672,1.964 6.072,1.958 C 0.052,-1.72 0,0.036 0,0.036"
         fill="#f39200"
         transform="translate(760.27,383.342)"
         id="path3151" />
      <path
         d="m 0,0.036 c 3.493,-5.503 10.869,-10.915 18.645,-10.915 h 0.004 c 1.352,0 2.689,0.166 3.971,0.495 -2.391,4.481 -1.887,8.01 -1.402,11.425 0.478,3.35 0.969,6.81 -1.109,11.406 -1.561,3.444 -6.352,7.74 -6.401,7.786 l -0.813,0.722 1.09,-0.03 c 0.136,-0.006 3.233,-0.133 7.526,-3.304 -0.306,0.966 -0.947,2.098 -1.617,3.282 -1.379,2.442 -2.943,5.206 -2.65,8.046 0.283,2.738 1.727,5.89 4.901,7.028 -1.269,0.273 -3.249,0.585 -5.038,0.51 C 14.391,36.374 11.12,35.518 9.519,34.738 9.877,33.385 9.741,32.064 9.123,30.978 8.553,29.976 7.636,29.284 6.54,29.03 5.711,28.838 4.823,28.916 3.974,29.254 4.904,28.002 5.809,26.682 6.27,25.069 6.706,23.143 6.706,22.542 6.612,21.947 7.243,20.642 7.002,19.589 6.787,18.659 6.7,18.268 6.615,17.901 6.605,17.543 7.269,16.362 7.366,14.574 7.438,13.256 7.47,12.691 7.496,12.199 7.562,11.923 L 7.649,11.53 7.256,11.445 C 6.846,11.36 6.261,11.416 5.714,11.481 5.396,11.52 5.067,11.559 4.781,11.559 5.093,11.139 5.392,10.69 5.584,10.134 6.199,8.804 5.135,5.838 3.76,3.617 3.161,2.648 1.691,0.534 0,0.036"
         fill="#a61916"
         transform="translate(755.551,366.291)"
         id="path3153" />
      <g
         fill="#7f0f00"
         id="g3161">
        <path
           d="m 0,0.036 c 0,0 3.181,-3.132 -3.018,-5.903 7.535,1.064 12.84,-9.035 12.84,-9.035 0,0 -3.503,5.633 -3.487,9.12 0.163,3.05 2.479,6.738 4.895,7.249 C 8.547,1.984 6.992,1.639 5.139,1.236 3.278,0.836 0,0.036 0,0.036"
           transform="translate(765.489,400.604)"
           id="path3155" />
        <path
           d="m 0,0.036 c 0,0 -0.829,-0.293 -1.265,-0.231 C -0.93,-0.397 2.524,-3.119 3.828,-5.252 2.338,-1.47 0,0.036 0,0.036"
           transform="translate(762.254,394.61)"
           id="path3157" />
        <path
           d="m 0,0.036 c 0,0 2.351,-2.299 3.477,-4.241 1.258,-2.176 2.832,-4.765 1.818,-11.006 -0.956,-5.88 -0.768,-9.545 -0.355,-10.505 0.456,-1.066 1.877,-2.435 2.485,-3.096 -4.706,-1.788 -15.328,2.589 -20.389,9.403 0,0 5.555,-4.401 9.211,-4.456 2.55,-0.036 4.029,1.327 4.849,2.182 0.82,0.856 2.42,11.611 2.218,13.631 C 3.122,-6.127 2.842,-4.569 0,0.036"
           transform="translate(769.737,385.089)"
           id="path3159" />
      </g>
      <path
         d="m 0,0.036 c -2.143,5.093 6.248,8.758 12.603,8.606 2.579,-0.062 4.774,-0.784 7.203,-1.253 2.557,-0.491 5.025,-1.297 7.155,-2.185 0.661,-0.273 1.197,-0.556 1.705,-0.784 1.011,-0.455 1.886,-0.673 3.31,-0.081 4.391,1.831 10.398,6.631 11.091,12.557 0.601,5.132 -1.204,10.514 -5.884,14.323 -3.473,2.823 -9.685,6.267 -17.985,5.125 5.022,-0.9 9.897,-4.189 11.269,-6.355 1.285,-2.029 1.805,-3.45 1.181,-5.109 -0.677,0.722 -2.117,1.883 -3.09,2.553 -1.72,1.187 -7.226,4.459 -12.745,3.317 2.969,-0.419 7.535,-2.627 7.935,-5.889 0.446,-3.607 -2.329,-7.614 -5.786,-8.378 -0.393,-0.088 -0.767,-0.13 -1.112,-0.134 -2.309,-0.013 -3.789,1.09 -3.373,3.793 0.202,1.32 0.804,2.592 1.929,3.857 C 12.105,22.682 10.193,18.629 8.96,15.666 8.814,15.312 8.609,14.814 8.349,14.333 7.916,13.526 7.347,12.769 6.677,12.804 4.238,12.938 4.602,16.239 4.849,17.123 5.038,17.806 5.6,19.273 6.446,20.473 3.008,19.101 1.753,16.366 0.13,13.91 -0.898,12.356 -1.857,9.139 -3.62,8.544 -4.569,8.228 -5.457,9.237 -5.76,9.738 c -0.93,1.544 -0.384,3.603 0.306,5.431 0.833,2.215 2.79,5.48 5.633,7.409 -3.626,-0.778 -8.625,-4.3 -10.372,-6.014 -1.476,-1.45 -4.234,-4.036 -4.78,-9.997 -0.173,-1.897 0.094,-3.471 0.692,-4.785 1.467,-3.229 4.921,-4.901 8.671,-6.003 -0.517,3.541 2.663,5.782 5.925,3.584 C 0.046,-0.299 0.107,-0.465 0,0.036"
         fill="#a61916"
         transform="translate(755.691,403.523)"
         id="path3163" />
      <path
         d="m 0,0.036 c 0.868,3.86 6.072,6.111 11.968,5.939 5.718,-0.166 10.3,-1.422 13.393,-2.459 0.608,-0.205 1.122,-0.374 1.597,-0.527 0.95,-0.302 2.143,-0.634 3.448,-0.299 1.896,0.484 7.32,3.145 9.34,7.815 2.277,5.269 1.116,13.399 -5.48,18.018 3.197,-4.365 3.171,-10.33 -2.488,-13.195 -0.585,5.682 -3.669,8.69 -6.599,10.212 2.475,-4.53 1.551,-9.431 -1.268,-12.446 -2.761,-2.953 -8.154,-3.727 -9.37,-3.698 -4.475,0.042 -2.693,5.61 -2.166,6.007 C 12.043,15.367 10.232,12.756 9.435,11.517 8.638,10.277 7.958,7.663 6.17,7.741 3.168,7.51 1.89,10.755 3.096,12.652 -0.696,9.62 -0.553,6.596 -2.013,5.477 -3.89,4.04 -6.885,4.049 -7.62,4.732 c -1.571,1.461 -1.535,5.045 -1.06,5.467 -1.389,-0.185 -4.544,-5.437 -4.014,-9.217 0.449,-3.229 3.064,-6.156 7.012,-7.33 0.072,4.524 3.679,4.709 6.105,3.389 C 0.163,-2.741 -0.25,-1.457 0,0.036"
         fill="#7f0f00"
         transform="translate(755.764,405.648)"
         id="path3165" />
    </g>
    <path
       d="m 841.302,411.637 c -0.228,-0.227 -1.389,-1.232 -1.415,-1.421 -0.052,-0.364 2.859,-3.151 2.933,-4.566 0.124,-2.43 -1.876,-4.856 -3.236,-6.726 -1.684,-2.332 -9.047,-9.578 -10.804,-11.822 -0.305,-0.393 -0.618,-0.793 -0.94,-1.193 0.771,-0.277 2.053,-0.735 3.236,-1.165 1.214,-0.442 2.329,-0.855 2.674,-1.014 2.211,1.925 15.728,16.915 17.978,20.782 0.657,1.128 1.018,2.488 0.7,4.153 -0.599,3.167 -2.927,6.885 -4.902,8.15 -0.029,-0.01 -4.169,-3.135 -6.224,-5.178"
       fill="url(#b)"
       transform="matrix(1.6394315,0,0,-1.6394315,-993.55986,790.72101)"
       id="path3169"
       style="fill:url(#b)" />
    <path
       d="M 0,0.036 C 0.023,-0.842 -1.691,-1.72 -2.277,-2.172 -4.179,-3.636 -5.6,-5.174 -7.295,-6.631 c -1.06,0.839 -4.14,3.262 -4.153,3.535 -0.036,0.855 6.407,6.612 7.321,6.892 C -3.308,3.353 -0.01,0.433 0,0.036"
       fill="#dadada"
       transform="matrix(1.6394315,0,0,-1.6394315,394.60419,106.38459)"
       id="path3171" />
    <path
       d="M 0,0.036 C -0.101,-1.369 -0.524,-1.502 -0.823,-2.208 -1.636,-0.123 -2.947,1.62 -3.633,2.41 -3.197,3.152 -3.125,3.695 -2.66,4.443 -2.169,3.822 -0.455,1.945 0,0.036"
       fill="#9daecb"
       transform="matrix(1.6394315,0,0,-1.6394315,387.16281,126.49386)"
       id="path3173" />
    <path
       d="m 0,0.036 c 1.467,-0.699 5.239,-3.356 5.057,-3.662 -0.465,-0.777 -5.815,-4.57 -7.265,-6.797 -1.08,0.793 -4.566,2.712 -5.627,3.502 1.76,2.072 6.358,6.137 7.835,6.957"
       fill="#dadada"
       transform="matrix(1.6394315,0,0,-1.6394315,378.55088,93.534724)"
       id="path3175" />
    <path
       d="m 0,0.036 c -0.384,-0.693 -0.371,-0.979 -0.894,-1.987 -0.56,0.93 -3.575,3.808 -4.18,4.329 -0.107,0.393 0.222,0.966 0.599,1.57 C -3.35,2.908 -0.758,1.184 0,0.036"
       fill="#dadada"
       transform="matrix(1.6394315,0,0,-1.6394315,382.11992,118.54097)"
       id="path3177" />
    <path
       d="M 0,0.036 C -0.117,-0.771 -0.267,-0.897 -0.647,-1.46 -1.864,-0.696 -4.007,0.804 -5.405,1.587 -5.565,1.711 -5.721,1.89 -5.057,3.298 -4.521,3.126 -0.504,0.904 0,0.036"
       fill="#dadada"
       transform="matrix(1.6394315,0,0,-1.6394315,373.91129,111.39961)"
       id="path3179" />
    <path
       d="m 0,0.036 c 1.203,-0.241 5.428,-2.602 5.451,-2.911 -1.516,-0.784 -6.996,-5.642 -7.906,-6.885 -1.067,0.413 -4.85,2.605 -5.549,2.95 2.449,2.664 5.295,4.768 8.004,6.846"
       fill="#dadada"
       transform="matrix(1.6394315,0,0,-1.6394315,368.68806,88.195095)"
       id="path3181" />
    <path
       d="m 0,0.036 c -0.107,-0.663 -0.153,-1.09 -0.504,-1.607 -1.925,0.996 -3.909,2.14 -6.007,3.064 0,0.319 0.172,1.968 0.533,1.88 C -5.21,3.187 -1.473,1.34 0,0.036"
       fill="#dadada"
       transform="matrix(1.6394315,0,0,-1.6394315,364.78785,105.57471)"
       id="path3183" />
    <path
       d="m 825.502,430.832 c -1.535,-0.608 -3.46,-2.595 -5.038,-3.766 -1.271,-0.94 -2.592,-2.01 -3.454,-3.249 1.376,-0.488 3.672,-1.171 5.015,-1.74 2.215,2.117 7.045,5.919 8.03,6.954 -0.058,0.357 -3.633,1.818 -4.439,1.818 -0.049,0 -0.088,-0.004 -0.114,-0.017"
       fill="url(#c)"
       transform="matrix(1.6394315,0,0,-1.6394315,-993.55986,790.72101)"
       id="path3185"
       style="fill:url(#c)" />
    <path
       d="m 0,0.036 c 1.236,-0.488 0.371,-1.002 0.322,-2.27 -1.545,0.52 -2.875,1.226 -4.875,1.35 -0.068,0.637 -0.124,1.681 0.156,2.279 C -2.979,1.236 -1.142,0.482 0,0.036"
       fill="#9daecb"
       transform="matrix(1.6394315,0,0,-1.6394315,352.64294,99.079281)"
       id="path3187" />
    <path
       d="m 771.501,320.229 c 1.75,-0.732 3.249,-1.682 3.812,-3.438 3.721,4.088 36.253,41.187 37.004,42.088 -1.232,0.917 -2.891,3.298 -3.867,4.033 -3.867,-4.027 -33.065,-38.345 -36.949,-42.683"
       fill="url(#d)"
       transform="matrix(1.6394315,0,0,-1.6394315,-993.55986,790.72101)"
       id="path3189"
       style="fill:url(#d)" />
    <path
       d="m 0,0.036 c -0.689,-0.498 -1.727,-1.411 -2.976,-1.499 -0.917,-0.065 -2.208,0.572 -1.824,1.834 0.361,1.187 1.593,1.769 2.956,1.22 -2.53,1.333 -4.287,-0.361 -4.225,-2.105 0.039,-1.014 1.161,-2.595 3.428,-1.831 1.028,0.348 2.543,1.496 2.543,1.496 0,0 3.204,3.347 8.678,4.404 C 4.865,2.898 3.226,2.374 0,0.036"
       fill="#575756"
       transform="matrix(1.6394315,0,0,-1.6394315,248.31116,134.25001)"
       id="path3191" />
    <path
       d="m 0,0.036 c -2.995,-1.06 -4.316,-3.103 -5.168,-4.368 1.688,1.896 4.033,3.34 6.443,4.013 4.098,1.145 8.287,0.667 9.106,0.801 C 8.658,0.989 3.223,1.178 0,0.036"
       fill="#575756"
       transform="matrix(1.6394315,0,0,-1.6394315,258.01495,122.70841)"
       id="path3193" />
    <path
       d="m 0,0.036 c -1.551,2.231 -9.663,2.426 -9.663,2.426 0,0 0.81,-0.689 1.11,-0.985 0.783,-0.774 1.7,-1.916 1.977,-2.911 -0.934,0.475 -1.844,0.807 -2.995,1.011 0.143,-0.322 0.243,-0.696 0.292,-1.05 1.568,-0.355 3.109,-1.064 4.284,-2.234 -0.3,2.045 -0.758,3.063 -1.753,4.494 2.829,-0.439 4.231,-0.357 6.042,-1.593 0.023,0.045 0.735,0.8 0.706,0.842"
       fill="#575756"
       transform="matrix(1.6394315,0,0,-1.6394315,344.03921,164.86803)"
       id="path3195" />
    <path
       d="M 0,0.036 C 0.52,0.42 0.572,0.582 1.09,0.43 0.755,-0.8 -0.062,-1.47 -0.176,-2.823 c -0.068,-0.832 -0.133,-0.878 -0.556,-1.535 -0.706,-1.106 -1.815,-1.255 -3.203,-1.737 -0.111,0.293 -0.179,0.573 -0.221,0.836 -0.381,2.531 2.075,3.753 3.723,4.957 0.15,0.114 0.293,0.227 0.433,0.338"
       fill="#faba36"
       transform="matrix(1.6394315,0,0,-1.6394315,349.79361,161.94)"
       id="path3197" />
    <path
       d="m 0,0.036 c -0.794,-0.911 -0.862,-2.156 -0.969,-3.525 -0.046,-0.654 -3.357,-1.415 -3.438,-0.277 -0.068,1.015 0.94,2.316 1.617,2.765 0.744,0.504 1.941,0.712 2.79,1.037"
       fill="#faba36"
       transform="matrix(1.6394315,0,0,-1.6394315,346.12948,172.22088)"
       id="path3199" />
    <path
       d="m 0,0.036 c 0.481,0.013 0.325,-0.361 -0.016,-0.813 -0.472,-0.615 -1.301,-1.382 -1.431,-1.584 -0.511,-0.771 -1.451,-2.842 -2.609,-2.299 -0.139,0.065 -0.13,0.27 -0.042,0.52 0.176,0.546 0.683,1.317 0.842,1.512 0.657,0.852 2.072,2.631 3.256,2.664"
       fill="#faba36"
       transform="matrix(1.6394315,0,0,-1.6394315,341.88827,179.67537)"
       id="path3201" />
    <path
       d="m 0,0.036 c 0.072,-0.546 0.101,-1.083 -0.016,-1.226 -1.753,-0.524 -3.493,-2.8 -2.3,-4.882 -0.956,-1.054 -1.99,-2.019 -2.523,-3.564 -0.101,-0.29 -0.179,-0.595 -0.238,-0.93 -2.14,0.107 -2.706,2.679 -1.366,4.084 0.026,0.033 0.062,0.059 0.088,0.091 0.836,0.781 1.76,1.207 2.342,2.345 1.125,2.231 1.346,5.009 3.743,5.474 C -0.25,1.421 -0.088,0.716 0,0.036"
       fill="#faba36"
       transform="matrix(1.6394315,0,0,-1.6394315,342.16042,170.45193)"
       id="path3203" />
    <path
       d="m 0,0.036 c 0.221,-0.904 1.018,-1.961 1.707,-2.677 0.264,-0.279 0.976,-0.923 0.976,-0.923 0,0 -6.983,0.774 -8.322,2.829 -0.026,0.039 0.933,0.989 0.956,1.031 1.6,-1.164 2.234,-1.798 4.781,-2.27 -0.862,1.321 -1.253,2.251 -1.47,4.108 C -0.02,0.703 2.13,-0.13 3.831,-0.286 4.296,-0.328 6.898,-0.637 9.552,-0.455 6.189,-1.756 2.504,-1.327 0,0.036"
       fill="#575756"
       transform="matrix(1.6394315,0,0,-1.6394315,338.71105,215.78549)"
       id="path3205" />
    <path
       d="m 0,0.036 c 1.668,-3.834 -0.829,-7.994 -2.602,-10.752 -1.974,-3.077 -5.597,-6.153 -8.007,-8.423 -2.41,-2.274 -5.145,-2.014 -8.118,-3.61 2.511,0.217 4.189,0.874 6.219,1.509 1.236,0.38 2.589,1.548 3.629,2.666 1.552,1.662 5.269,4.967 6.654,6.785 -0.048,-2.306 -0.972,-4.121 -2.579,-5.884 -1.314,-1.457 -3.096,-2.878 -5.22,-4.511 -1.255,-0.962 -2.182,-1.291 -3.538,-1.687 -2.309,-0.683 -5.07,-1.877 -8.007,-1.945 -0.146,0 -0.29,0.003 -0.429,0.013 -1.389,0.104 -2.778,0.813 -3.37,1.262 -0.79,0.952 -0.979,3.171 0.634,4.185 0.97,-0.244 1.945,-0.345 2.905,-0.351 3.392,0.003 6.482,1.359 7.913,2.657 4.735,4.277 9.766,10.063 12.908,16.115 0.296,0.569 0.65,1.48 1.008,1.971"
       fill="#a61916"
       transform="matrix(1.6394315,0,0,-1.6394315,381.4953,171.60281)"
       id="path3207" />
    <path
       d="m 0,0.036 c -0.049,-0.049 -0.104,-0.107 -0.156,-0.159 -1.486,-1.854 -4.999,-4.983 -6.495,-6.586 -1.041,-1.119 -2.394,-2.287 -3.629,-2.667 -2.03,-0.634 -3.711,-1.291 -6.219,-1.509 0.186,0.101 0.371,0.192 0.553,0.28 -1.512,-0.29 -2.826,-0.589 -3.288,-0.973 2.563,0.117 8.879,0.335 10.293,1.259 1.412,0.92 4.316,3.363 5.36,4.732 1.6,1.665 2.999,2.979 3.574,5.525 0,0.033 0.007,0.065 0.007,0.098"
       fill="#7f0f00"
       transform="matrix(1.6394315,0,0,-1.6394315,377.84428,191.05303)"
       id="path3209" />
    <path
       d="M 0,0.036 C 0.088,-0.029 0.192,-0.071 0.286,-0.127 0.946,0.039 2.065,1.119 2.208,1.542 2.166,1.522 2.137,1.522 2.137,1.568 2.147,3.422 4.976,5.324 6.043,6.345 5.822,7.155 4.221,7.763 3.168,8.401 2.436,8.83 1.662,9.246 0.904,9.585 0.452,9.79 0.007,9.965 -0.429,10.115 -0.641,10.183 -0.859,10.212 -1.077,10.209 -2.205,10.17 -3.35,9.269 -4.036,8.215 -4.049,8.193 -4.065,8.173 -4.078,8.15 -4.088,8.134 -4.098,8.118 -4.108,8.102 -4.365,7.679 -4.547,7.233 -4.628,6.814 -4.963,5.025 -3.574,3.932 -2.895,2.852 -2.153,1.675 -0.039,0.124 0,0.036"
       fill="#faba36"
       transform="matrix(1.6394315,0,0,-1.6394315,341.41611,203.79797)"
       id="path3211" />
    <path
       d="M 0,0.036 C -0.572,0.234 -1.594,-0.279 -2.439,-1.08 -3.555,-2.133 -4.482,-3.594 -4.748,-3.72 -4.891,-4.146 -6.01,-5.223 -6.67,-5.389 c 0.683,-0.387 1.499,-0.53 2.305,-0.533 1.171,0 2.303,0.273 2.918,0.452 1.135,0.319 3.541,1.128 3.727,2.02 C 2.338,-3.135 0.976,-0.185 0,0.036"
       fill="#f39200"
       transform="matrix(1.6394315,0,0,-1.6394315,352.82164,195.168)"
       id="path3213" />
    <path
       d="M 0,0.036 C -0.289,0.885 -1.382,3.009 -2.205,3.197 -2.781,3.396 -3.799,2.878 -4.648,2.078 -5.012,1.734 -5.356,1.343 -5.665,0.973 -5.516,-0.351 -3.669,-1.31 -2.576,-1.18 -1.772,-1.083 -0.488,-0.771 0,0.036"
       fill="#f7a946"
       transform="matrix(1.6394315,0,0,-1.6394315,356.43823,200.34861)"
       id="path3215" />
    <path
       d="M 0,0.036 C 1.327,0.117 3.574,2.944 4.374,3.096 3.766,3.607 2.738,4.049 1.984,4.508 1.252,4.937 0.478,5.353 -0.28,5.692 -0.732,5.897 -1.181,6.072 -1.613,6.219 -1.825,6.29 -2.042,6.319 -2.26,6.316 -3.389,6.277 -4.534,5.376 -5.22,4.322 -5.233,4.3 -5.249,4.277 -5.265,4.257 -5.275,4.241 -5.282,4.225 -5.291,4.209 -5.304,4.183 -5.317,4.16 -5.33,4.134 -5.028,3.503 -1.402,-0.049 0,0.036"
       fill="#fdcd7a"
       transform="matrix(1.6394315,0,0,-1.6394315,343.3572,197.41566)"
       id="path3217" />
    <path
       d="m 0,0.036 c 0.153,0.816 -3.412,5.724 -4.049,5.877 -1.49,0.345 -2.543,-2.644 -2.898,-4.199 0.706,-0.488 1.109,-1.197 1.568,-2.101 0.429,-0.839 2.302,-3.041 0.696,-3.194 -0.299,-0.026 -0.908,1.461 -1.422,2.206 -0.367,0.539 -1.125,1.863 -1.876,1.645 -2.387,-0.715 -4.742,-3.779 -3.464,-6.02 0.134,-0.24 0.563,-0.914 0.673,-1.115 0.758,-1.379 1.441,-1.76 1.568,-3.37 0.595,0.322 3.636,3.347 4.508,4.251 0.423,0.439 1.398,1.529 1.398,1.529 0.625,0.728 1.223,1.479 1.747,2.192 C -1.07,-1.61 -0.14,-0.774 0,0.036"
       fill="#f39200"
       transform="matrix(1.6394315,0,0,-1.6394315,372.38989,183.77067)"
       id="path3219" />
    <path
       d="m 0,0.036 c -0.029,-1.782 2.013,-4.231 3.337,-4.257 1.018,-0.02 2.556,0.097 3.174,1.21 0.12,0.279 0,0.78 -0.257,1.369 -0.016,0 -0.026,-0.007 -0.045,-0.007 C 5.909,-1.678 5.304,-0.188 4.787,0.556 4.42,1.093 3.665,2.417 2.914,2.199 1.818,1.87 0.735,1.047 0,0.036"
       fill="#f7a946"
       transform="matrix(1.6394315,0,0,-1.6394315,354.52993,186.93478)"
       id="path3221" />
    <path
       d="M 0,0.036 C -0.696,1.61 -3.337,5.155 -3.88,5.282 -5.009,5.545 -5.887,3.887 -6.4,2.394 c 0.208,-1.721 2.592,-4.017 3.736,-3.909 0.83,0.074 2.179,0.562 2.664,1.551"
       fill="#f7a946"
       transform="matrix(1.6394315,0,0,-1.6394315,372.10955,182.73783)"
       id="path3223" />
    <path
       d="m 0,0.036 c 0.078,-0.033 0.156,-0.075 0.234,-0.117 -2.143,-1.486 -3.711,-2.943 -4.79,-5.88 -1.425,0.787 -3.061,1.333 -4.609,2.039 -0.455,0.202 -0.894,0.416 -1.327,0.657 -0.244,0.13 -0.361,0.332 -0.38,0.569 -0.104,0.901 1.05,2.345 1.499,2.813 1.008,1.044 1.929,1.22 3.519,1.064 C -4.537,1.057 -2.007,1.015 0,0.036"
       fill="#faba36"
       transform="matrix(1.6394315,0,0,-1.6394315,358.30882,181.20169)"
       id="path3225" />
    <path
       d="m 0,0.036 c -1.831,0.647 -3.88,0.693 -5.022,0.8 -1.59,0.159 -2.51,-0.019 -3.518,-1.06 -0.257,-0.273 -0.748,-0.872 -1.103,-1.503 0,-0.084 0.023,-0.159 0.075,-0.214 0.465,-0.485 5.525,-1.867 6.543,-1.145 0.937,0.81 2.29,2.82 3.025,3.122"
       fill="#fdcd7a"
       transform="matrix(1.6394315,0,0,-1.6394315,356.94153,180.63772)"
       id="path3227" />
    <path
       d="m 0,0.036 c 0.046,-0.029 0.101,-0.049 0.146,-0.078 -1.138,-1.574 -2.79,-2.712 -3.19,-4.979 -0.478,0.237 -1.028,0.445 -1.62,0.618 -1.893,0.543 -4.241,0.741 -6.338,0.855 0.009,0.068 0.026,0.137 0.039,0.211 0.292,1.61 0.722,3.789 2.009,4.3 C -6.426,1.978 -2.28,1.217 0,0.036"
       fill="#faba36"
       transform="matrix(1.6394315,0,0,-1.6394315,364.34356,172.1553)"
       id="path3229" />
    <path
       d="m 0,0.036 c -2.355,0.989 -5.974,1.529 -8.267,0.608 -0.911,-0.361 -1.392,-1.558 -1.698,-2.797 0.52,-1.58 6.875,-1.385 7.828,-0.712 0.976,0.842 1.487,2.745 2.137,2.901"
       fill="#fdcd7a"
       transform="matrix(1.6394315,0,0,-1.6394315,363.21564,171.6356)"
       id="path3231" />
    <path
       d="m 0,0.036 c -1.522,-1.421 -3.265,-2.686 -3.392,-5.652 -1.064,0.575 -2.778,1.076 -4.602,1.408 -1.626,0.296 -3.327,0.449 -4.745,0.393 0.397,2.921 1.584,6.024 4.273,6.323 0.771,0.088 4.732,-0.797 6.651,-1.474 C -1.044,0.748 -0.202,0.303 0,0.036"
       fill="#faba36"
       transform="matrix(1.6394315,0,0,-1.6394315,371.51444,162.46954)"
       id="path3233" />
    <path
       d="m 0,0.036 c -0.322,0.172 -0.699,0.341 -1.067,0.478 -1.919,0.677 -5.877,1.561 -6.651,1.477 -1.723,-0.196 -2.826,-1.539 -3.502,-3.243 -0.225,-1.795 7.044,-2.426 8.127,-1.854 1.051,0.693 2.374,2.944 3.093,3.142"
       fill="#fdcd7a"
       transform="matrix(1.6394315,0,0,-1.6394315,370.28814,161.61704)"
       id="path3235" />
    <path
       d="m 0,0.036 c 0.085,-0.452 -0.091,-0.885 -0.719,-0.979 -0.14,0.355 -0.832,1.116 -0.875,1.652 -0.019,0.156 0.03,0.296 0.163,0.4 C -0.885,1.529 -0.127,0.751 0,0.036"
       fill="#7f0f00"
       transform="matrix(1.6394315,0,0,-1.6394315,380.55918,170.24209)"
       id="path3237" />
    <path
       d="m 0,0.036 c 0.237,-1.024 -0.719,-2.143 -1.333,-3.197 -0.205,-0.354 -1.653,-2.423 -1.685,-2.091 -0.098,0.933 -3.526,4.716 -3.727,5.844 -0.374,2.056 2.032,4.765 3.688,5.174 0.123,0.033 0.341,-0.039 0.478,-0.159 C -1.46,4.618 -0.354,1.558 0,0.036"
       fill="#f39200"
       transform="matrix(1.6394315,0,0,-1.6394315,378.10495,173.23733)"
       id="path3239" />
    <path
       d="M 0,0.036 C -0.354,1.558 -1.46,4.618 -2.579,5.607 -2.716,5.727 -2.934,5.799 -3.057,5.766 -4.082,5.513 -5.392,4.378 -6.153,3.064 -6.196,2.979 -6.238,2.898 -6.27,2.817 c -0.056,-2 2.471,-5.158 3.808,-5.204 0.943,-0.032 1.877,0.872 2.491,1.984 0.01,0.146 0.004,0.296 -0.029,0.439"
       fill="#f7a946"
       transform="matrix(1.6394315,0,0,-1.6394315,378.10495,173.23733)"
       id="path3241" />
    <path
       d="m 0,0.036 c 0.914,-1.369 2.781,-4.68 3.73,-9.516 1.103,-5.607 0.404,-11.546 0.478,-12.502 0.381,2.085 2.111,7.705 1.122,12.655 C 4.687,-6.121 2.589,-1.564 0,0.036"
       fill="#575756"
       transform="matrix(1.6394315,0,0,-1.6394315,277.75699,163.06629)"
       id="path3243" />
    <path
       d="m 0,0.036 c -0.091,0.091 -0.185,0.195 -0.276,0.293 -0.407,0.455 -0.853,0.998 -1.396,1.437 -0.247,0.225 -0.51,0.443 -0.803,0.631 -2.976,1.952 -5.311,4.157 -6.992,2.456 -0.918,-1.324 -2.075,-3.311 -3.175,-4.677 -0.159,-0.195 -0.309,-0.377 -0.465,-0.543 -1.349,-1.467 -2.969,-3.266 -4.689,-5.032 -2.209,-2.266 -4.586,-4.478 -6.785,-5.88 -0.39,-0.244 -1.057,-0.988 -1.301,-1.379 -0.481,-0.77 2.134,-2.741 2.927,-3.671 0.573,-0.674 1.737,-2.414 2.462,-2.993 0.635,-0.507 0.674,-0.907 1.815,-0.614 1.301,0.335 3.259,1.128 3.178,2.393 -0.046,0.784 -0.784,1.981 -1.428,2.658 -0.719,0.741 -2.732,3.089 -2.423,3.427 0.312,0.348 3.22,-3.294 4.722,-5.252 0.436,-0.569 1.343,-0.598 2.209,-0.101 1.122,0.644 2.224,2.013 2.679,2.573 0.703,0.862 0.937,1.063 0.566,1.756 -0.982,1.838 -5.613,5.506 -5.512,6.065 0,0.01 0.003,0.023 0.009,0.03 0.277,0.455 4.362,-3.116 5.529,-4.293 0.836,-0.846 0.599,-1.909 2.189,-1.259 1.259,0.514 3.526,2.901 3.844,4.859 0.15,0.92 -1.021,1.938 -1.808,2.55 -2.042,1.606 -2.729,2.348 -4.241,3.324 -0.758,0.497 -1.158,0.816 -1.141,0.914 0.013,0.071 0.282,0.009 0.839,-0.222 1.883,-0.777 1.909,-1.138 3.886,-2.458 1.379,-0.921 1.981,-2.114 2.986,-2.303 1.06,-0.198 2.719,0.963 3.034,2.215 C 0.745,-1.857 0.807,-0.774 0,0.036"
       fill="#faba36"
       transform="matrix(1.6394315,0,0,-1.6394315,275.48802,272.57212)"
       id="path3245" />
    <path
       d="m 0,0.036 c -0.504,0.504 -1.037,1.171 -1.698,1.759 -0.078,0.056 -0.149,0.111 -0.224,0.163 -1.464,1.041 -3.165,2.225 -4.257,2.888 -0.41,0.225 -0.804,0.4 -1.174,0.504 -0.817,-0.172 -1.22,-2.143 -1.018,-3.314 0.156,-0.566 2.162,-1.418 4.045,-3.037 1.832,-1.575 3.536,-3.936 3.985,-3.162 0.159,0.101 0.295,0.218 0.419,0.352 0.163,0.24 0.296,0.491 0.361,0.751 C 0.745,-1.857 0.807,-0.774 0,0.036"
       fill="#fdcd7a"
       transform="matrix(1.6394315,0,0,-1.6394315,275.48802,272.57212)"
       id="path3247" />
    <path
       d="M 0,0.036 C -2.042,1.639 -2.729,2.384 -4.244,3.357 -4.69,3.653 -5.009,3.883 -5.194,4.043 -5.265,4.082 -5.34,4.124 -5.402,4.157 -6.075,3.389 -7.779,1.519 -7.714,0.319 c 0.091,-0.595 2.631,-1.272 4.465,-2.96 1.594,-1.463 2.481,-4.065 2.982,-3.395 -0.087,-0.062 0.778,0.881 1.448,1.886 0.312,0.547 0.543,1.106 0.627,1.636 0.15,0.921 -1.021,1.935 -1.808,2.55"
       fill="#fdcd7a"
       transform="matrix(1.6394315,0,0,-1.6394315,267.41709,280.05613)"
       id="path3249" />
    <path
       d="M 0,0.036 C -0.8,1.532 -4.017,4.241 -5.132,5.5 -5.22,5.565 -5.301,5.617 -5.366,5.659 -6.056,5.477 -7.776,3.321 -8.059,2.13 c -0.098,-0.673 2.107,-1.707 3.581,-3.135 1.024,-0.992 1.398,-2.589 1.642,-2.66 0.163,-0.046 0.478,0.101 0.846,0.358 0.621,0.598 1.144,1.245 1.424,1.587 0.703,0.865 0.937,1.063 0.566,1.756"
       fill="#fdcd7a"
       transform="matrix(1.6394315,0,0,-1.6394315,260.44787,293.09781)"
       id="path3251" />
    <path
       d="M 0,0.036 C -0.54,0.592 -1.805,2.052 -2.273,2.891 -2.338,2.963 -2.39,3.022 -2.42,3.054 -2.895,2.94 -6.176,1.047 -5.171,0.225 c 0.566,-0.462 1.476,-1.718 2.358,-2.898 0.693,-0.93 0.875,-2.153 1.138,-2.225 0.111,-0.026 0.293,-0.003 0.517,0.059 0.218,0.068 0.446,0.153 0.667,0.244 0.449,0.201 0.937,0.478 1.33,0.784 0.377,0.335 0.621,0.731 0.592,1.193 C 1.382,-1.837 0.644,-0.637 0,0.036"
       fill="#fdcd7a"
       transform="matrix(1.6394315,0,0,-1.6394315,247.73572,297.03736)"
       id="path3253" />
    <path
       d="m 0,0.036 c -0.413,0.179 -0.774,0.439 -0.937,0.846 1.831,0.217 3.623,0.244 4.973,1.476 0.088,0.072 0.166,0.15 0.247,0.234 0.095,0.101 0.182,0.205 0.27,0.319 0.013,0.007 0.029,0.023 0.039,0.042 0.095,0.117 0.186,0.231 0.264,0.335 0.234,0.29 0.442,0.514 0.66,0.696 0.39,0.319 0.819,0.495 1.528,0.638 0.784,0.156 1.575,0.699 2.254,1.405 0.075,0.071 0.153,0.153 0.215,0.234 0.023,0.013 0.029,0.026 0.039,0.042 0.032,0.033 0.062,0.062 0.088,0.094 0.211,0.248 0.413,0.508 0.592,0.771 0.208,0.296 0.39,0.592 0.546,0.891 0.085,0.16 0.146,0.345 0.218,0.524 C 11.035,8.417 11.067,8.232 11.09,8.017 11.282,6.271 9.988,4.742 8.872,3.591 7.923,2.612 6.729,1.877 5.669,1.021 5.083,0.547 4.602,0.052 4.098,-0.377 3.226,-0.631 2.472,-0.595 1.542,-0.371 1.21,-0.289 0.559,-0.201 0,0.036"
       fill="#f39200"
       transform="matrix(1.6394315,0,0,-1.6394315,254.71806,312.04799)"
       id="path3255" />
    <path
       d="m 0,0.036 c -0.211,-0.124 -0.494,-0.312 -0.833,-0.54 -0.201,-0.143 -0.426,-0.296 -0.663,-0.468 -2.195,-1.548 -5.685,-4.196 -6.836,-5.142 -1.87,-1.532 -2.163,-3.33 -2.215,-3.747 -0.264,-2.315 -0.761,-4.859 0.114,-6.488 0.497,-0.924 0.478,-1.594 1.203,-0.602 0.036,0.056 2.904,2.118 3.324,2.381 5.164,3.151 9.656,7.565 12.752,12.866 0.117,0.182 0.579,0.589 0.683,0.771 C 7.991,-0.127 1.281,0.8 0,0.036"
       fill="#a61916"
       transform="matrix(1.6394315,0,0,-1.6394315,241.63048,260.81084)"
       id="path3257" />
    <path
       d="m 0,0.036 c -0.211,-0.124 -0.494,-0.312 -0.833,-0.54 -0.201,-0.143 -0.426,-0.296 -0.663,-0.468 -2.195,-1.548 -5.685,-4.196 -6.836,-5.142 -1.87,-1.532 -2.163,-3.33 -2.215,-3.747 -0.075,-0.657 -0.166,-1.333 -0.241,-2.003 1.789,2.722 7.123,7.357 7.08,6.865 -1.58,-1.206 -5.06,-5.655 -5.324,-7.899 2.319,2.865 8.661,9.093 11.914,10.986 1.616,0.943 2.998,1.519 3.063,1.636 0.036,0.055 -0.01,0.114 -0.097,0.172 C 3.886,0.322 0.823,0.527 0,0.036"
       fill="#7f0f00"
       transform="matrix(1.6394315,0,0,-1.6394315,241.63048,260.81084)"
       id="path3259" />
    <path
       d="m 0,0.036 c 1.135,0.488 2.481,1.561 3.942,2.686 1.636,1.259 3.285,2.576 4.999,4.163 1.004,0.93 4.019,3.861 4.91,5.23 1.363,2.072 2.628,4.218 3.337,4.14 0.225,-0.023 1.386,-0.049 0.859,-1.239 C 17.087,12.843 14.912,10.687 13.442,8.931 10.69,5.646 7.379,3.028 4.794,0.865 4.335,0.482 1.958,-0.741 1.249,-1.323 0.543,-1.912 1.359,-3.821 1.366,-5.213 l -1.603,2.247 C -0.273,-1.977 -1.203,-0.481 0,0.036"
       fill="#a61916"
       transform="matrix(1.6394315,0,0,-1.6394315,228.73963,288.93365)"
       id="path3261" />
    <path
       d="m 0,0.036 c -0.059,-0.068 -0.117,-0.14 -0.176,-0.215 -0.211,-0.299 -0.439,-0.611 -0.683,-0.936 -0.471,-0.693 -0.982,-1.506 -1.512,-2.313 -0.891,-1.366 -3.584,-3.974 -4.989,-5.213 -1.753,-1.545 -3.285,-2.917 -4.921,-4.176 -1.46,-1.125 -2.806,-2.199 -3.941,-2.686 -1.204,-0.517 -0.274,-2.014 -0.238,-3.002 l 0.065,-0.091 c 0.26,-0.339 0.511,-0.573 0.608,-0.602 0.101,1.025 -1.105,2.55 0,3.369 2.248,1.292 7.812,5.506 10.248,8.007 1.76,1.809 5.002,6.375 5.539,7.858"
       fill="#7f0f00"
       transform="matrix(1.6394315,0,0,-1.6394315,255.33776,263.45688)"
       id="path3263" />
    <path
       d="m 748.976,297.561 c -0.231,-0.118 -0.777,-0.54 -2.078,-1.919 -2.735,-2.875 -6.993,-7.539 -9.318,-9.942 -0.878,-0.914 0.107,-1.714 0.914,-2.469 0.072,-0.075 0.146,-0.146 0.231,-0.215 l 0.006,-0.006 c 0.553,-0.498 1.155,-0.924 1.766,-1.194 0.251,0.348 10.121,9.845 12.076,12.226 -1.099,0.67 -1.942,2.702 -3.06,3.441 -0.101,0.061 -0.267,0.104 -0.4,0.104 -0.056,0 -0.104,-0.007 -0.137,-0.026"
       fill="url(#e)"
       transform="matrix(1.6394315,0,0,-1.6394315,-993.55986,790.72101)"
       id="path3265"
       style="fill:url(#e)" />
    <path
       d="M 0,0.036 C 3.148,1.659 0.719,6.053 0.761,6.075 0,5.162 -2.95,3.555 -4.212,3.565 -3.376,1.61 -2.488,-0.8 0,0.036"
       fill="#f39200"
       transform="matrix(1.6394315,0,0,-1.6394315,250.34078,312.46441)"
       id="path3267" />
    <path
       d="M 0,0.036 C 3.148,1.659 0.719,6.053 0.761,6.075 0.296,5.516 -0.989,4.7 -2.205,4.153 c 0.117,-0.478 1.024,-1.304 1.444,-2.036 0.455,-0.79 0.312,-1.72 0.205,-2.214 0.179,0.029 0.361,0.068 0.556,0.133"
       fill="#f7a946"
       transform="matrix(1.6394315,0,0,-1.6394315,250.34078,312.46441)"
       id="path3269" />
    <path
       d="m 0,0.036 c 0.237,0.211 0.846,0.202 1.512,0.556 0.667,0.351 2.462,2.43 3.483,2.94 0.879,0.439 1.428,-2.797 1.448,-3.311 0.019,-0.513 0,-1.675 -0.495,-2.169 C 5.454,-2.442 4.205,-3.616 2.904,-3.929 2.511,-4.02 1.171,-4.595 0.998,-3.168 0.888,-2.228 -0.368,-0.621 -0.007,0.026 -0.007,0.029 0,0.029 0,0.036"
       fill="#f39200"
       transform="matrix(1.6394315,0,0,-1.6394315,253.1524,301.90975)"
       id="path3271" />
    <path
       d="M 0,0.036 C 0.494,0.53 0.514,1.691 0.494,2.205 0.475,2.719 -0.075,5.955 -0.953,5.516 -1.688,5.149 -2.816,3.978 -3.646,3.213 c 0.325,-0.471 0.989,-1.112 1.22,-2.071 0.188,-0.768 0.221,-2.007 0.075,-2.836 1.031,0.471 1.944,1.323 2.351,1.73"
       fill="#f7a946"
       transform="matrix(1.6394315,0,0,-1.6394315,262.90374,305.16238)"
       id="path3273" />
    <path
       d="m 0,0.036 c 0.039,0.036 0.075,0.068 0.111,0.098 0.042,0.035 0.087,0.071 0.13,0.1 C 0.263,0.247 0.276,0.257 0.296,0.273 0.452,0.381 0.624,0.472 0.803,0.569 0.67,0.452 3.08,2.371 2.963,2.241 2.67,1.324 4.979,-2.859 1.704,-6.563 1.33,-7.021 0.891,-7.461 0.397,-7.893 0.354,-7.929 0.315,-7.971 0.28,-8 0.273,-8.004 0.263,-8.01 0.263,-8.017 l -0.006,0.004 c 0.019,2.185 -0.439,4.598 -0.703,6.69 -0.013,0.13 -0.019,0.26 -0.013,0.37 0.02,0.339 0.127,0.595 0.296,0.813 0.043,0.062 0.098,0.114 0.15,0.166 0.006,0.007 0.006,0.007 0.013,0.01"
       fill="#f39200"
       transform="matrix(1.6394315,0,0,-1.6394315,272.85837,282.50708)"
       id="path3275" />
    <path
       d="m 0,0.036 c 0.117,0.127 -2.293,-1.789 -2.16,-1.672 -0.045,-0.026 -0.084,-0.052 -0.126,-0.074 0.087,-0.631 0.754,-1.949 0.979,-3.165 0.266,-1.444 -0.309,-3.295 0.048,-3.893 3.275,3.704 0.966,7.884 1.259,8.804"
       fill="#f7a946"
       transform="matrix(1.6394315,0,0,-1.6394315,277.716,278.89049)"
       id="path3277" />
    <path
       d="m 0,0.036 c -0.361,1.132 -0.985,2.296 -1.067,2.836 0.273,0.13 2.374,1.509 2.664,1.802 0.006,0.013 0.023,0.029 0.039,0.045 0.036,0.03 0.075,0.065 0.104,0.104 0.01,0.01 0.026,0.026 0.039,0.043 0.023,0.013 0.036,0.029 0.052,0.052 0.033,0.029 0.062,0.061 0.094,0.094 0.098,0.101 0.186,0.202 0.27,0.302 0.017,0.017 0.033,0.033 0.039,0.049 0.01,0.007 0.017,0.01 0.017,0.01 C 2.319,5.454 2.39,5.532 2.449,5.61 2.612,5.802 2.745,5.991 2.849,6.144 3.021,6.42 3.418,7.37 3.727,7.711 3.734,7.715 3.743,7.728 3.75,7.731 3.773,7.754 3.792,7.767 3.812,7.776 3.903,7.48 3.984,7.002 4.046,6.427 4.013,5.871 3.939,5.295 3.932,5.025 3.909,3.802 4.117,2.719 4.124,1.626 4.124,0.631 3.779,-0.136 3.269,-0.735 3.19,-0.826 2.683,-1.704 0.172,-2.55 0.143,-2.01 0.306,-0.92 0,0.036"
       fill="#f7a946"
       transform="matrix(1.6394315,0,0,-1.6394315,264.58907,299.20305)"
       id="path3279" />
    <path
       d="M 0,0.036 C -0.254,0.849 -0.28,2.927 -0.559,3.139 -0.572,3.126 -0.585,3.113 -0.598,3.103 -0.615,3.087 -0.628,3.07 -0.637,3.061 -0.927,2.765 -3.028,1.389 -3.298,1.256 c 0.078,-0.54 0.703,-1.701 1.064,-2.836 0.305,-0.957 0.143,-2.046 0.172,-2.586 1.236,0.416 1.984,0.839 2.439,1.174 C 0.517,-2.403 0.433,-1.34 0,0.036"
       fill="#f39200"
       transform="matrix(1.6394315,0,0,-1.6394315,268.24993,296.55537)"
       id="path3281" />
    <g
       fill="#575756"
       id="g3299">
      <path
         d="m 0,0.036 c -2.859,3.812 -5.178,6.446 -5.594,11.025 -0.267,-0.136 -0.774,-0.621 -1.145,-1.063 -0.992,1.632 -2.117,3.844 -2.549,5.873 -0.43,2.03 -0.049,4.739 0.152,6.446 -0.585,-0.231 -1.105,-1.59 -1.463,-2.205 -2.589,5.965 3.246,9.445 4.452,9.972 -0.582,-1.376 -3.616,-1.496 -4.101,-7.285 0.807,0.689 2.147,2.309 3.584,2.4 -1.528,-2.056 -1.782,-4.033 -1.698,-6.436 0.072,-2.01 0.209,-4.323 1.64,-7.22 0.422,0.8 1.196,4.042 2.052,3.974 -0.482,-0.995 0.442,-5.178 0.608,-6.446 C -3.695,6.293 0,0.036 0,0.036"
         transform="matrix(1.6394315,0,0,-1.6394315,208.77791,279.51512)"
         id="path3283" />
      <path
         d="m 0,0.036 c -1.727,-1.795 -2.777,-4.576 -2.491,-4.716 1.727,1.792 4.335,2.979 4.546,3.096 -1.57,-3.554 -2.348,-6.641 -1.125,-11.035 0.901,0.81 1.304,1.597 1.717,1.965 -1.353,-4.573 1.041,-7.88 1.041,-7.88 0,0 1.714,5.818 5.031,5.815 -3.509,-2.16 -3.863,-5.829 -4.855,-8.489 -3.392,4.771 -2.303,7.451 -2.303,7.451 0,0 -1.857,-2.777 -0.754,-8.788 -3.968,8.59 -2.742,15.133 -2.027,17.159 -2.468,-1.635 -3.707,-7.197 -3.818,-7.945 -0.075,-0.442 -0.618,7.269 1.526,11.204 -1.253,0.482 -3.168,-0.527 -4.124,-1.109 1.021,2.404 4.598,7.191 8.296,7.171 0,0 -3.925,-2.052 -4.595,-4.241 0.832,0.482 3.018,0.362 3.935,0.342"
         transform="matrix(1.6394315,0,0,-1.6394315,218.04233,236.43249)"
         id="path3285" />
      <path
         d="m 0,0.036 c -4.54,3.447 -6.797,1.711 -8.205,2.251 1.242,0.383 7.929,1.616 10.4,-3.78 -0.699,0.183 -1.34,0.257 -1.925,0.059 1.018,-0.725 2.559,-3.574 2.338,-3.799 -1.98,2.394 -4.312,4.258 -6.911,4.671 1.096,0.806 3.226,0.556 4.303,0.598"
         transform="matrix(1.6394315,0,0,-1.6394315,245.55527,248.31181)"
         id="path3287" />
      <path
         d="m 0,0.036 c 0.894,0.13 2.709,-0.27 3.077,-0.442 -5.077,9.23 -16.496,17.064 -26.09,19.419 -4.504,1.106 -9.311,1.746 -14.323,1.177 -3.539,-0.4 -8.876,-3.802 -7.367,-8.228 -0.065,0.189 0.244,1.893 0.267,2.121 0.225,2.501 4.882,5.597 8.742,5.623 5.867,0.039 12.551,-0.982 17.894,-3.347 6.726,-2.972 12.782,-8.778 16.795,-15.055 -1.096,0.391 -2.784,0.908 -2.267,0.722 5.679,-8.924 6.632,-13.435 6.983,-18.707 -0.81,0.898 -7.432,5.019 -7.38,4.742 2.001,-2.02 3.246,-8.378 3.334,-8.797 0.429,-2.043 0.663,-5.867 0.156,-7.884 -0.514,0.621 -4.504,5.975 -4.491,5.926 0.878,-3.213 0.484,-8.573 -0.397,-11.094 -2.065,-5.88 -4.361,-7.786 -5.057,-7.756 0.257,0.647 0.133,6.361 -3.37,9.591 0.244,-2.381 -2.738,-6.882 -4.498,-8.577 -1.655,-1.59 -4.924,-3.642 -4.924,-3.642 -0.315,0.829 -1.079,2.267 -1.726,3.021 -0.599,0.703 -1.568,2.14 -2.436,2.804 -0.303,-1.422 -1.243,-2.544 -1.607,-3.077 -0.881,-1.288 -2.29,-2.485 -3.659,-3.392 -0.699,2.624 -4.455,8.719 -6.836,10.641 -2.589,-1.356 -4.196,-3.057 -5.266,-5.109 -0.37,1.659 -0.861,4.586 -0.201,7.1 -0.091,0.029 -0.176,0.052 -0.27,0.084 -0.377,0.121 -0.745,0.27 -1.103,0.43 -0.624,-3.464 -0.032,-8.528 1.626,-11.562 -0.003,0.003 2.547,6.283 5.012,7.808 0.748,-0.611 1.626,-1.515 2.218,-2.517 0.589,-1.002 2.296,-4.241 2.384,-6.852 0.052,-1.509 -0.136,-2.501 -0.127,-2.7 3.477,1.418 5.913,4.267 8.222,7.129 0.055,-0.039 2.745,-2.989 2.856,-5.418 -0.072,-0.114 3.896,1.776 5.893,3.802 3.369,3.418 4.924,6.332 5.07,7.187 0.595,-0.455 1.125,-1.333 1.421,-2.38 0.156,-0.547 0.459,-5.409 -0.305,-6.554 1.753,0.748 3.603,1.435 5.597,4.404 1.993,2.966 2.937,7.148 3.545,10.089 0.009,0.087 0.022,0.175 0.035,0.26 l 0.017,-0.004 c 0.075,0.378 0.149,0.742 0.214,1.057 0.462,-0.335 0.605,-0.578 0.931,-0.998 0.227,-0.299 1.792,-2.221 1.743,-5.113 0.709,1.015 1.291,4.983 1.333,5.266 0.491,3.411 0.478,5.542 -0.016,8.537 -0.192,1.158 -0.582,2.521 -1.262,4.082 0.52,-0.215 3.444,-1.594 4.765,-4.284 C 6.01,-15.705 3.535,-5.145 0,0.036"
         transform="matrix(1.6394315,0,0,-1.6394315,319.98547,150.27217)"
         id="path3289" />
      <path
         d="m 0,0.036 c -0.501,0.65 -1.226,1.99 -1.659,3.444 -0.432,1.457 -0.302,3.243 0.052,4.374 -0.471,-0.309 -1.886,-1.905 -2.211,-2.722 -2.111,4.352 -2.765,6.586 -0.673,10.408 -1.896,-0.778 -3.175,-3.571 -4.049,-4.859 -1.776,4.839 2.042,9.057 3.232,11.649 -1.45,-1.262 -8.143,-8.599 -2.868,-15.412 0.286,0.982 0.673,1.821 1.382,2.4 0.185,-1.76 2.709,-6.228 3.177,-6.118 -0.019,0.049 0.55,2.144 0.501,1.49 C -3.216,3.324 -1.558,0.709 0,0.036"
         transform="matrix(1.6394315,0,0,-1.6394315,262.95128,256.34667)"
         id="path3291" />
      <path
         d="m 0,0.036 c 0,0 -1.981,-6.791 2.403,-9.331 0.56,2.189 0.748,3.07 1.783,4.3 0.396,-2.261 2.374,-5.048 5.041,-6.498 1.21,0.927 2.228,6.491 2.228,6.491 1.086,-1.151 1.769,-1.493 2.897,-2.078 2.147,1.08 3.311,4.29 3.311,4.29 0,0 -1.431,-1.916 -3.412,-2.983 -1.369,0.687 -2.091,1.409 -3.645,3.21 C 10.576,-3.411 10.04,-5.75 8.453,-8.108 6.339,-6.807 5.379,-2.989 5.23,-1.85 4.205,-2.423 2.374,-5.125 1.805,-6 0.062,-5.265 0,0.036 0,0.036"
         transform="matrix(1.6394315,0,0,-1.6394315,265.81045,228.43207)"
         id="path3293" />
      <path
         d="m 0,0.036 c -3.177,-1.503 -7.256,-4.891 -10.228,-8.97 1.45,0.137 3.945,-0.325 6.172,0.667 -3.928,-4.397 -5.584,-4.339 -8.098,-6.098 -2.283,-1.6 -2.436,-1.6 -3.135,-2.205 1.005,2.267 4.143,4.195 7.604,6.608 -1.584,-0.13 -3.581,-0.042 -8.378,-3.096 4.693,6.417 12.115,11.361 12.398,11.621 -0.257,-0.098 -5.035,-0.901 -5.978,-1.324 1.6,2.947 10.658,10.589 18.502,11.487 0,0 -13.198,-4.257 -13.604,-8.986 1.597,0.296 4.231,0.25 4.745,0.296"
         transform="matrix(1.6394315,0,0,-1.6394315,233.27757,192.74984)"
         id="path3295" />
      <path
         d="m 0,0.036 c -0.41,2.293 -0.348,4.267 -0.348,4.267 -1.129,-1.516 -1.223,-3.467 0.234,-5.864 -0.797,1.031 -1.889,1.968 -3.382,2.612 -1.701,0.735 -3.37,0.38 -4.238,0.006 1.584,0.069 3.35,-0.436 4.586,-1.174 2.15,-1.285 3.437,-2.768 3.955,-3.454 C 0.618,-2.546 0.185,-0.995 0,0.036"
         transform="matrix(1.6394315,0,0,-1.6394315,236.63021,230.62563)"
         id="path3297" />
    </g>
    <path
       d="M 0,0.036 C -0.41,1.825 -0.826,3.613 -1.246,5.402 -1.704,7.357 -2.4,9.129 -3.324,10.713 l -0.852,3.506 c -0.641,2.631 -1.301,5.301 -1.964,7.936 l -1.262,5.005 -4.479,1.083 c -4.097,0.992 -8.218,1.909 -12.257,2.716 -1.061,0.214 -1.997,0.315 -2.875,0.315 -0.583,0 -1.119,-0.049 -1.614,-0.133 l -0.12,0.705 -4.66,0.781 c -0.459,0.078 -0.918,0.153 -1.376,0.228 l -0.01,0.019 -1.863,0.283 -5.168,0.826 0.006,-0.052 -0.823,0.101 -1.2,0.172 -0.003,0.02 -0.511,0.055 -1.616,0.234 0.003,-0.058 -2.273,0.247 -5.33,0.605 0.003,-0.059 -3.288,0.332 0.009,-0.166 c -0.497,0.117 -0.946,0.163 -1.32,0.189 -0.517,0.039 -1.041,0.071 -1.561,0.107 -0.185,0.01 -0.351,0.016 -0.511,0.016 -1.187,0 -1.697,-0.097 -1.909,-0.296 v 0.524 l -6.826,0.172 c -0.934,0.023 -1.867,0.043 -2.8,0.056 l -5.324,0.078 -0.007,-0.368 c -0.777,0.251 -1.463,0.28 -1.922,0.28 -0.088,0 -0.169,0 -0.25,-0.003 -1.188,-0.02 -2.414,-0.052 -3.653,-0.091 l -0.107,-0.004 0.003,0.062 -2.631,-0.146 -2.4,-0.078 -0.003,-0.055 -0.501,-0.03 c -1.623,-0.091 -3.288,-0.201 -4.953,-0.328 l -0.147,-0.01 0.003,0.072 -2.845,-0.29 -1.981,-0.149 -0.006,-0.053 -0.966,-0.097 c -1.057,-0.104 -2.118,-0.218 -3.178,-0.338 -0.214,-0.023 -0.478,-0.059 -0.657,-0.221 l 0.039,0.227 -6.081,-0.849 c -0.963,-0.136 -1.929,-0.273 -2.895,-0.419 l -4.735,-0.709 -0.221,-1.243 c -0.501,0.157 -1.051,0.274 -1.659,0.348 -0.355,0.046 -0.729,0.069 -1.119,0.069 -1.164,0 -2.309,-0.199 -3.386,-0.407 -4.933,-0.933 -9.981,-2.019 -15.006,-3.229 l -4.491,-1.074 -1.398,-4.992 c -0.517,-1.844 -1.028,-3.685 -1.532,-5.525 l -2.169,-7.907 1.996,0.452 c -0.302,-1.174 -0.605,-2.348 -0.904,-3.522 l -2.003,-0.471 -1.285,-5.064 c -0.53,-2.101 -1.057,-4.215 -1.567,-6.287 l -1.9,-7.792 8.017,1.821 c 3.571,0.816 7.184,1.587 10.739,2.286 l 5.275,1.048 0.052,0.305 c 0.202,-0.013 0.413,-0.019 0.628,-0.019 1.203,0 2.345,0.201 3.103,0.331 l 0.279,0.049 c 1.919,0.325 3.867,0.638 5.796,0.927 l 5.425,0.823 0.003,0.026 c 0.377,0.026 0.771,0.068 1.19,0.12 1.227,0.16 2.488,0.316 3.747,0.462 0.937,0.107 3.213,0.368 5.496,1.727 1.145,-0.468 2.475,-0.715 3.975,-0.715 0.487,0 0.995,0.022 1.554,0.068 1.22,0.097 2.469,0.185 3.698,0.267 0.322,0.022 0.803,0.052 1.386,0.136 l 5.096,0.221 c 2.8,0.121 5.63,0.202 8.413,0.241 l 0.043,0.003 c 0.673,0.01 1.593,0.023 2.663,0.264 l 0.033,0.009 0.036,0.007 c 0.201,0.049 0.429,0.107 0.673,0.185 l -0.007,-0.377 5.998,-0.117 c 2.442,-0.049 4.924,-0.13 7.369,-0.241 l 2.82,-0.13 2.781,-0.182 c 4.393,-0.286 8.865,-0.683 13.295,-1.177 l 1.376,-0.153 c 2.081,-0.244 4.202,-0.511 6.293,-0.797 l 4.251,-0.582 c 0.474,-0.104 0.881,-0.166 1.19,-0.211 l 0.143,-0.023 c 0.065,-0.01 0.13,-0.02 0.192,-0.029 l 0.029,-0.241 5.357,-0.924 c 4.501,-0.771 9.099,-1.658 13.672,-2.634 l 0.042,-0.01 c 1.028,-0.218 2.306,-0.491 3.724,-0.491 h 0.085 c 2.423,0.026 10.14,0.95 7.685,11.744"
       fill="#ffffff"
       transform="matrix(1.6394315,0,0,-1.6394315,400.89961,268.84897)"
       id="path3301" />
    <path
       d="m 774.65,353.08 -0.017,-1.089 c -0.419,0.315 -0.92,0.592 -1.519,0.78 -0.657,0.218 -1.258,0.244 -1.652,0.244 -0.081,0 -0.162,0 -0.237,-0.003 -1.216,-0.02 -2.449,-0.049 -3.659,-0.091 l -1.398,-0.046 v 0.033 l -1.431,-0.082 -1.116,-0.035 v -0.026 l -1.707,-0.091 c -1.649,-0.091 -3.318,-0.205 -4.967,-0.329 l -1.499,-0.114 0.003,0.033 -1.489,-0.147 -0.833,-0.061 -0.003,-0.023 -2.134,-0.211 c -1.06,-0.108 -2.13,-0.222 -3.187,-0.342 -0.751,-0.081 -1.45,-0.283 -2.094,-0.595 l 0.055,0.403 -4.677,-0.647 c -0.959,-0.133 -1.938,-0.273 -2.901,-0.416 l -3.633,-0.54 -0.351,-2.03 c -0.819,0.501 -1.811,0.823 -2.972,0.96 -0.309,0.042 -0.644,0.062 -0.992,0.062 -1.158,0 -2.381,-0.231 -3.191,-0.387 -4.94,-0.931 -9.997,-2.014 -15.035,-3.22 l -3.447,-0.823 -1.051,-3.812 c -0.501,-1.827 -1.005,-3.685 -1.499,-5.519 l -1.633,-6.043 1.971,0.449 c -0.559,-2.188 -1.112,-4.377 -1.652,-6.563 l -2.004,-0.471 -0.962,-3.871 c -0.521,-2.088 -1.038,-4.202 -1.539,-6.283 l -1.421,-5.948 6.092,1.388 c 3.584,0.823 7.204,1.597 10.755,2.303 l 4.017,0.793 0.146,0.843 c 0.621,-0.182 1.311,-0.273 2.068,-0.273 1.07,0 2.085,0.179 2.83,0.309 0.097,0.016 0.195,0.032 0.289,0.052 1.935,0.328 3.887,0.64 5.806,0.933 l 4.127,0.624 0.026,0.202 c 0.117,-0.003 0.231,-0.003 0.348,-0.003 0.637,0 1.333,0.049 2.127,0.149 1.242,0.163 2.504,0.319 3.74,0.462 0.933,0.108 3.314,0.384 5.496,1.932 1.652,-0.904 3.412,-0.904 4.118,-0.904 0.445,0 0.913,0.02 1.431,0.062 1.226,0.094 2.475,0.188 3.704,0.266 0.364,0.027 0.95,0.066 1.652,0.189 l -0.003,-0.039 4.839,0.211 c 2.797,0.124 5.627,0.205 8.42,0.244 h 0.017 c 0.618,0.01 1.463,0.02 2.406,0.238 l 0.02,0.003 0.016,0.003 c 0.963,0.231 1.773,0.576 2.449,0.979 l -0.019,-1.158 4.559,-0.091 c 2.449,-0.052 4.927,-0.133 7.376,-0.244 l 2.84,-0.13 2.767,-0.182 c 4.407,-0.289 8.885,-0.689 13.312,-1.187 l 0.758,-0.084 0.618,-0.072 c 2.091,-0.244 4.208,-0.511 6.306,-0.8 l 4.273,-0.585 c 0.452,-0.104 0.849,-0.163 1.165,-0.212 0.052,-0.01 0.1,-0.013 0.152,-0.023 0.485,-0.078 0.976,-0.152 1.47,-0.23 l 0.033,-0.261 4.075,-0.705 c 4.521,-0.781 9.126,-1.672 13.695,-2.654 l 0.049,-0.01 c 0.953,-0.202 2.134,-0.459 3.389,-0.459 h 0.062 c 4.016,0.046 5.734,2.02 6.449,3.662 0.956,2.238 0.54,4.856 0.143,6.632 -0.397,1.776 -0.806,3.577 -1.219,5.366 -0.427,1.857 -1.09,3.529 -1.978,5.002 l -0.907,3.809 c -0.625,2.614 -1.272,5.281 -1.929,7.929 l -0.946,3.821 -3.435,0.826 c -4.104,0.989 -8.234,1.903 -12.277,2.706 -0.989,0.202 -1.857,0.293 -2.664,0.293 -1.066,0 -2.013,-0.169 -2.836,-0.508 l -0.211,1.285 -3.581,0.595 c -0.679,0.114 -1.362,0.225 -2.032,0.332 l -0.004,0.01 -1.157,0.175 -3.793,0.605 0.004,-0.042 -1.239,0.176 -0.004,0.019 -0.959,0.117 -1.978,0.283 0.004,-0.042 -0.43,0.052 -0.003,0.029 -3.223,0.348 -4.016,0.452 0.003,-0.039 -3.317,0.329 0.042,-0.638 c -0.225,0.14 -0.429,0.241 -0.599,0.319 l -0.029,0.01 -0.029,0.013 c -0.774,0.331 -1.503,0.416 -2.049,0.458 -0.527,0.036 -1.051,0.075 -1.574,0.108 -0.15,0.006 -0.299,0.013 -0.446,0.013 -1.226,0 -2.149,-0.371 -2.836,-0.846 0,0.517 0,0.924 -0.006,1.024 -0.358,0.043 -1.171,0.082 -2.023,0.117 v 0.004 c 0,0 -0.091,0.003 -0.247,0.01 -1.217,0.045 -2.436,0.078 -2.436,0.078 -0.436,0.009 -0.839,0.022 -1.129,0.035 -1.093,0.033 -1.889,0.033 -3.714,0.065 -1.031,0.023 -1.961,0.026 -2.576,0.026 -0.471,0 -0.757,-0.003 -0.757,-0.003 m 4.514,-6.397 -0.465,0.006 v 1.529 c 0.94,-0.016 1.879,-0.033 2.819,-0.055 0.007,-0.511 0.01,-1.022 0.017,-1.529 -0.15,0.007 -0.3,0.01 -0.449,0.01 0.013,-1.451 0.029,-2.901 0.039,-4.348 0.293,-0.01 0.585,-0.017 0.878,-0.023 -0.007,0.445 -0.01,0.888 -0.02,1.33 0.609,-0.013 1.22,-0.033 1.825,-0.055 0.019,-0.973 0.042,-1.942 0.058,-2.911 -1.72,0.058 -3.44,0.098 -5.161,0.12 v 1.584 c 0.156,-0.003 0.316,-0.006 0.468,-0.01 -0.003,1.451 -0.006,2.905 -0.009,4.352 m -11.696,1.428 c 1.227,0.042 2.453,0.071 3.679,0.091 0.058,0 0.114,0.003 0.175,0.003 0.205,0 0.426,-0.01 0.609,-0.072 0.803,-0.25 0.887,-0.816 0.871,-1.6 -0.013,-0.458 0.007,-1.109 -0.305,-1.492 -0.176,-0.222 -0.495,-0.427 -0.768,-0.495 0.761,-0.179 0.976,-0.559 0.959,-1.385 -0.006,-0.27 -0.013,-0.543 -0.019,-0.813 0.159,0.003 0.319,0.003 0.478,0.006 -0.013,-0.527 -0.02,-1.054 -0.033,-1.58 -0.448,-0.004 -0.9,-0.01 -1.352,-0.017 h -0.202 c -0.251,0 -0.547,0.023 -0.699,0.212 -0.13,0.172 -0.124,0.354 -0.121,0.559 0.023,0.761 0.046,1.522 0.069,2.283 -0.368,-0.006 -0.735,-0.013 -1.103,-0.019 -0.032,-1.025 -0.068,-2.046 -0.104,-3.07 -0.816,-0.02 -1.629,-0.043 -2.446,-0.069 0.02,0.527 0.043,1.054 0.065,1.581 0.153,0.006 0.306,0.01 0.459,0.016 0.058,1.447 0.117,2.901 0.176,4.352 -0.15,-0.007 -0.3,-0.01 -0.453,-0.017 0.023,0.511 0.046,1.022 0.065,1.526 m -10.66,-0.566 c 1.661,0.123 3.327,0.231 4.985,0.322 -0.052,-0.804 -0.104,-1.607 -0.156,-2.407 -0.54,-0.026 -1.083,-0.062 -1.623,-0.094 0.017,0.292 0.039,0.585 0.062,0.881 -0.345,-0.023 -0.686,-0.042 -1.028,-0.068 -0.035,-0.469 -0.071,-0.937 -0.107,-1.405 0.488,0.032 0.972,0.062 1.46,0.091 -0.032,-0.455 -0.065,-0.914 -0.097,-1.373 -0.488,-0.029 -0.976,-0.061 -1.464,-0.091 -0.039,-0.526 -0.075,-1.053 -0.117,-1.577 0.348,0.02 0.696,0.046 1.044,0.065 0.023,0.325 0.049,0.647 0.068,0.973 0.586,0.035 1.168,0.068 1.753,0.097 -0.055,-0.849 -0.107,-1.701 -0.162,-2.55 -1.747,-0.094 -3.49,-0.205 -5.24,-0.335 0.046,0.524 0.088,1.054 0.13,1.581 0.16,0.013 0.316,0.023 0.472,0.036 0.117,1.453 0.237,2.904 0.355,4.361 -0.157,-0.013 -0.309,-0.023 -0.462,-0.036 0.042,0.511 0.084,1.018 0.127,1.529 m 36.022,-7.37 c -0.488,0.033 -0.976,0.065 -1.461,0.094 -1.291,0.082 -1.853,0.511 -1.915,1.942 -0.049,1.252 -0.101,2.508 -0.159,3.763 -0.053,1.213 0.198,1.785 1.3,1.785 0.075,0 0.15,-0.003 0.228,-0.006 0.527,-0.033 1.054,-0.068 1.581,-0.107 0.27,-0.017 0.608,-0.052 0.875,-0.163 0.757,-0.335 0.91,-1.041 0.959,-1.773 0.068,-1.174 0.143,-2.344 0.208,-3.518 0.085,-1.344 -0.081,-2.027 -1.33,-2.027 -0.091,0 -0.185,0.004 -0.286,0.01 m 7.317,5.298 c -0.156,0.016 -0.312,0.033 -0.465,0.049 -0.042,0.51 -0.088,1.021 -0.127,1.532 0.797,-0.078 1.594,-0.16 2.394,-0.244 0.088,-0.956 0.176,-1.916 0.267,-2.869 0.335,-0.036 0.67,-0.075 1.008,-0.107 -0.094,0.953 -0.185,1.909 -0.276,2.868 0.8,-0.091 1.603,-0.182 2.409,-0.279 0.056,-0.514 0.108,-1.025 0.163,-1.535 -0.159,0.019 -0.312,0.035 -0.468,0.055 0.153,-1.46 0.302,-2.917 0.449,-4.374 0.156,-0.02 0.315,-0.039 0.474,-0.059 0.056,-0.53 0.111,-1.06 0.16,-1.59 -0.826,0.101 -1.649,0.195 -2.478,0.289 -0.092,1.015 -0.192,2.033 -0.287,3.051 -0.338,0.039 -0.673,0.075 -1.014,0.11 0.094,-1.018 0.185,-2.036 0.279,-3.053 -0.822,0.087 -1.642,0.172 -2.462,0.25 -0.045,0.527 -0.087,1.057 -0.133,1.584 0.159,-0.013 0.315,-0.029 0.475,-0.042 -0.12,1.453 -0.244,2.91 -0.368,4.364 m -54.417,-1.707 c 0.049,0.406 0.098,0.813 0.153,1.219 0.137,1.106 0.725,1.597 1.747,1.711 1.066,0.117 2.136,0.228 3.2,0.332 -0.078,-0.719 -0.153,-1.441 -0.231,-2.16 -0.579,-0.058 -1.158,-0.117 -1.74,-0.175 0.026,0.208 0.049,0.419 0.072,0.63 -0.361,-0.039 -0.726,-0.078 -1.087,-0.117 -0.052,-0.455 -0.107,-0.904 -0.159,-1.356 0.439,0.046 0.878,0.095 1.317,0.137 0.163,0.019 0.316,0.026 0.455,0.026 0.797,0 1.23,-0.306 1.116,-1.386 -0.046,-0.458 -0.094,-0.914 -0.143,-1.369 -0.088,-0.829 -0.358,-1.463 -1.23,-1.756 -0.188,-0.059 -0.387,-0.081 -0.585,-0.101 -1.119,-0.114 -2.241,-0.237 -3.366,-0.367 0.098,0.777 0.192,1.551 0.283,2.328 0.631,0.072 1.262,0.143 1.889,0.215 -0.029,-0.251 -0.058,-0.494 -0.084,-0.742 0.364,0.039 0.735,0.078 1.102,0.117 0.056,0.508 0.111,1.012 0.17,1.516 -0.531,-0.052 -1.057,-0.107 -1.591,-0.169 -0.084,-0.01 -0.169,-0.013 -0.247,-0.013 -0.833,0 -1.158,0.549 -1.041,1.48 m -7.747,1.688 c 0.97,0.143 1.942,0.283 2.908,0.413 -0.072,-0.511 -0.15,-1.025 -0.224,-1.535 -0.157,-0.026 -0.316,-0.049 -0.472,-0.069 -0.218,-1.46 -0.429,-2.92 -0.644,-4.384 0.159,0.02 0.319,0.042 0.478,0.065 -0.075,-0.53 -0.15,-1.06 -0.228,-1.59 -0.995,-0.137 -1.993,-0.277 -2.988,-0.423 0.081,0.533 0.162,1.064 0.243,1.597 0.163,0.023 0.322,0.045 0.485,0.065 0.221,1.463 0.446,2.927 0.673,4.391 -0.156,-0.023 -0.315,-0.046 -0.471,-0.069 0.078,0.511 0.159,1.028 0.24,1.539 m 73.495,-1.347 c -0.159,0.023 -0.318,0.049 -0.471,0.068 -0.065,0.511 -0.134,1.025 -0.199,1.539 0.768,-0.108 1.535,-0.218 2.303,-0.332 0.686,-1.168 1.379,-2.338 2.059,-3.509 0.231,-0.39 0.426,-0.764 0.601,-1.171 -0.104,0.446 -0.185,0.885 -0.247,1.32 -0.143,1.022 -0.289,2.04 -0.432,3.058 0.735,-0.114 1.473,-0.235 2.211,-0.355 0.078,-0.514 0.153,-1.031 0.234,-1.542 -0.159,0.023 -0.318,0.049 -0.475,0.075 0.215,-1.47 0.433,-2.933 0.644,-4.4 l 0.482,-0.078 c 0.081,-0.53 0.156,-1.064 0.234,-1.594 -0.79,0.124 -1.577,0.251 -2.365,0.374 -0.634,1.067 -1.268,2.137 -1.909,3.201 -0.299,0.507 -0.559,0.995 -0.77,1.525 0.048,-0.238 0.1,-0.472 0.133,-0.706 0.176,-1.239 0.348,-2.475 0.52,-3.714 -0.761,0.114 -1.522,0.224 -2.28,0.328 -0.065,0.531 -0.13,1.064 -0.195,1.594 0.156,-0.023 0.316,-0.045 0.478,-0.065 -0.185,1.46 -0.37,2.924 -0.556,4.384 m -99.734,-3.737 c 5.077,1.197 10.095,2.257 15.068,3.178 0.803,0.149 1.733,0.318 2.537,0.318 0.204,0 0.4,-0.009 0.582,-0.032 3.089,-0.351 3.119,-2.319 2.634,-5.103 -0.289,-1.662 -0.579,-4.007 -2.059,-5.604 -0.855,-0.936 -2.286,-1.896 -3.463,-2.331 3.083,-0.153 3.756,-1.441 3.239,-4.563 -0.172,-1.038 -0.341,-2.072 -0.507,-3.103 0.673,0.107 1.346,0.215 2.019,0.319 -0.318,-2.056 -0.634,-4.111 -0.94,-6.163 -1.928,-0.296 -3.86,-0.612 -5.802,-0.944 -0.653,-0.113 -1.518,-0.292 -2.283,-0.292 -0.618,0 -1.171,0.12 -1.489,0.484 -0.449,0.576 -0.322,1.295 -0.173,2.095 0.537,2.93 1.09,5.854 1.652,8.784 -1.551,-0.293 -3.109,-0.592 -4.673,-0.91 -0.829,-3.975 -1.626,-7.946 -2.397,-11.914 -3.571,-0.718 -7.161,-1.496 -10.775,-2.338 0.465,2.078 0.943,4.16 1.428,6.241 0.67,0.156 1.34,0.312 2.007,0.462 1.239,5.451 2.533,10.911 3.886,16.372 -0.631,-0.146 -1.265,-0.293 -1.899,-0.439 0.462,1.831 0.933,3.655 1.408,5.483 M 835.48,325.738 c -2.137,0.456 -4.218,0.882 -6.335,1.291 -4.004,0.774 -6.212,3.409 -6.811,7.204 -0.231,1.487 -0.468,2.976 -0.705,4.466 -0.524,3.223 0.54,4.605 3.027,4.605 0.579,0 1.233,-0.075 1.962,-0.218 4.071,-0.8 8.169,-1.688 12.306,-2.673 0.608,-2.625 1.207,-5.25 1.789,-7.877 -2.299,0.543 -4.586,1.06 -6.866,1.551 -0.152,0.767 -0.305,1.538 -0.461,2.309 -1.412,0.302 -2.82,0.595 -4.222,0.878 0.316,-1.665 0.621,-3.33 0.927,-4.995 1.72,-0.345 3.447,-0.709 5.181,-1.083 4.293,-0.934 7.139,-2.573 8.176,-7.416 0.384,-1.779 0.758,-3.554 1.129,-5.327 0.679,-3.291 0.299,-5.538 -3.054,-5.577 h -0.01 c -0.735,0 -1.545,0.182 -2.355,0.354 -4.602,1.005 -9.168,1.903 -13.708,2.696 -0.426,3.044 -0.868,6.088 -1.324,9.136 2.488,-0.439 4.986,-0.908 7.494,-1.412 0.169,-0.959 0.331,-1.915 0.494,-2.878 1.486,-0.296 2.969,-0.602 4.462,-0.92 -0.361,1.961 -0.725,3.922 -1.096,5.886 m -72.623,6.043 c 0.055,0.943 0.11,1.89 0.166,2.833 0.149,2.546 1.509,3.587 3.977,3.665 2.579,0.081 5.158,0.124 7.734,0.127 -0.029,-1.659 -0.058,-3.317 -0.084,-4.973 -1.418,-0.003 -2.833,-0.019 -4.251,-0.042 0.013,0.488 0.032,0.972 0.045,1.457 -0.878,-0.013 -1.759,-0.033 -2.644,-0.059 -0.045,-1.05 -0.088,-2.101 -0.133,-3.151 1.076,0.029 2.153,0.052 3.226,0.068 0.075,0.003 0.15,0.003 0.221,0.003 2.518,0 4.02,-0.676 3.971,-3.59 -0.019,-1.086 -0.032,-2.173 -0.048,-3.259 -0.03,-1.997 -0.579,-3.48 -2.71,-4 -0.468,-0.111 -0.959,-0.117 -1.453,-0.12 -2.801,-0.043 -5.607,-0.124 -8.414,-0.251 0.104,1.87 0.208,3.74 0.315,5.61 1.558,0.069 3.113,0.124 4.667,0.169 -0.022,-0.592 -0.045,-1.18 -0.071,-1.772 0.914,0.026 1.828,0.049 2.742,0.062 0.039,1.21 0.078,2.413 0.117,3.623 -1.317,-0.023 -2.609,-0.056 -3.926,-0.098 -0.071,0 -0.136,-0.003 -0.208,-0.003 -2.355,0 -3.376,1.379 -3.239,3.701 m 13.412,0.348 c 0.026,2.091 0.052,4.179 0.075,6.274 4.924,-0.026 9.854,-0.192 14.791,-0.501 0.095,-2.095 0.186,-4.192 0.273,-6.284 -1.135,0.069 -2.266,0.134 -3.401,0.189 -0.03,0.924 -0.059,1.841 -0.088,2.761 -0.586,0.029 -1.171,0.055 -1.756,0.078 0.084,-3.428 0.169,-6.859 0.243,-10.293 0.397,-0.016 0.784,-0.033 1.181,-0.052 0.036,-1.278 0.068,-2.56 0.098,-3.838 -2.459,0.117 -4.915,0.198 -7.37,0.247 -0.003,1.278 -0.007,2.557 -0.01,3.835 0.397,-0.007 0.787,-0.017 1.181,-0.03 -0.023,3.435 -0.042,6.866 -0.068,10.297 -0.586,0.01 -1.171,0.023 -1.753,0.036 v -2.758 c -1.129,0.019 -2.261,0.032 -3.396,0.039 m -28.23,-8.251 c 0.316,2.976 0.635,5.955 0.966,8.934 0.329,2.995 1.243,4.423 4.449,4.693 1.295,0.107 2.586,0.208 3.877,0.296 0.277,0.016 0.582,0.032 0.885,0.032 0.432,0 0.871,-0.032 1.232,-0.133 1.776,-0.536 1.935,-2.13 1.825,-3.821 -0.185,-2.774 -0.368,-5.542 -0.543,-8.31 -0.225,-3.477 -0.93,-5.194 -4.755,-5.444 -1.236,-0.081 -2.475,-0.176 -3.708,-0.273 -0.377,-0.03 -0.728,-0.049 -1.053,-0.049 -2.518,0 -3.493,0.998 -3.175,4.075 m 45.779,10.332 c -0.383,0.026 -0.761,0.052 -1.141,0.079 -0.055,1.174 -0.111,2.348 -0.166,3.522 4.069,-0.273 8.15,-0.647 12.245,-1.113 0.172,-1.863 0.341,-3.727 0.51,-5.587 -1.353,0.153 -2.705,0.296 -4.055,0.429 -0.049,0.687 -0.101,1.37 -0.153,2.049 -0.849,0.088 -1.698,0.166 -2.543,0.241 0.075,-1.09 0.146,-2.189 0.221,-3.285 1.21,-0.107 2.416,-0.221 3.629,-0.348 0.085,-1.083 0.17,-2.169 0.251,-3.252 -1.223,0.123 -2.446,0.241 -3.672,0.351 0.081,-1.259 0.163,-2.52 0.241,-3.782 0.878,-0.078 1.756,-0.16 2.634,-0.247 -0.059,0.78 -0.114,1.557 -0.169,2.338 1.473,-0.143 2.946,-0.303 4.42,-0.472 0.179,-2.062 0.354,-4.127 0.527,-6.189 -4.449,0.508 -8.882,0.908 -13.305,1.204 -0.052,1.278 -0.105,2.556 -0.163,3.837 0.397,-0.029 0.79,-0.055 1.187,-0.081 -0.163,3.434 -0.325,6.872 -0.498,10.306 m -60.414,-12.127 c 0.455,2.992 0.924,5.987 1.408,8.983 0.478,3.011 1.477,4.484 4.729,4.923 1.311,0.179 2.625,0.348 3.929,0.501 0.393,0.049 0.852,0.095 1.281,0.095 0.303,0 0.596,-0.023 0.846,-0.082 1.763,-0.439 1.841,-2.026 1.642,-3.727 -0.325,-2.78 -0.644,-5.558 -0.953,-8.335 -0.393,-3.487 -1.183,-5.24 -5.05,-5.692 -1.249,-0.146 -2.501,-0.306 -3.753,-0.468 -0.557,-0.078 -1.054,-0.117 -1.497,-0.117 -2.218,0 -3.021,1.011 -2.582,3.919 m 74.409,10.758 c -0.374,0.046 -0.755,0.095 -1.129,0.137 -0.11,1.18 -0.224,2.358 -0.338,3.538 3.048,-0.367 6.105,-0.783 9.172,-1.252 0.627,-0.094 1.375,-0.211 2.006,-0.501 2.124,-0.927 2.566,-2.302 2.826,-4.13 0.157,-1.083 0.449,-2.631 -0.198,-3.402 -0.367,-0.455 -1.102,-0.803 -1.782,-0.846 2.033,-0.764 2.725,-1.782 2.998,-3.772 0.088,-0.657 0.176,-1.314 0.264,-1.968 0.413,-0.071 0.826,-0.14 1.236,-0.211 0.179,-1.291 0.354,-2.582 0.527,-3.874 -1.174,0.199 -2.349,0.391 -3.519,0.576 -0.722,0.117 -1.828,0.234 -2.43,0.924 -0.393,0.474 -0.445,0.923 -0.504,1.424 -0.218,1.844 -0.432,3.688 -0.657,5.532 -0.943,0.143 -1.88,0.28 -2.816,0.41 0.273,-2.485 0.546,-4.973 0.806,-7.457 -2.104,0.296 -4.205,0.569 -6.306,0.813 -0.107,1.284 -0.218,2.569 -0.332,3.857 0.387,-0.049 0.778,-0.094 1.168,-0.143 -0.319,3.45 -0.647,6.898 -0.992,10.345 M 769.8,346.65 c -0.016,-0.484 -0.032,-0.972 -0.048,-1.466 0.367,0.009 0.731,0.019 1.099,0.026 0.013,0.487 0.029,0.975 0.042,1.463 -0.361,-0.003 -0.728,-0.013 -1.093,-0.023 m 21.635,-4.806 c 0.361,-0.023 0.718,-0.046 1.076,-0.069 -0.078,1.451 -0.156,2.908 -0.234,4.358 -0.351,0.023 -0.703,0.046 -1.054,0.072 0.072,-1.454 0.143,-2.908 0.212,-4.361 m -71.092,-4.768 c -0.393,-1.789 -0.774,-3.575 -1.158,-5.36 1.535,0.312 3.067,0.615 4.592,0.898 0.355,1.782 0.713,3.564 1.074,5.343 -1.5,-0.28 -2.999,-0.572 -4.508,-0.881 m 33.564,-3.031 c -0.319,-3.441 -0.631,-6.882 -0.94,-10.32 0.907,0.072 1.808,0.14 2.712,0.202 0.273,3.437 0.556,6.875 0.842,10.309 -0.868,-0.058 -1.74,-0.123 -2.614,-0.191 m -14.083,-1.49 c -0.497,-3.457 -0.979,-6.911 -1.454,-10.368 0.918,0.12 1.835,0.237 2.745,0.348 0.439,3.447 0.891,6.898 1.357,10.352 -0.882,-0.104 -1.766,-0.218 -2.648,-0.332 m 73.267,-3.805 c 0.931,-0.133 1.857,-0.267 2.788,-0.407 -0.14,1.148 -0.283,2.303 -0.433,3.454 -0.92,0.137 -1.834,0.27 -2.751,0.4 0.133,-1.151 0.266,-2.299 0.396,-3.447"
       fill="url(#f)"
       transform="matrix(1.6394315,0,0,-1.6394315,-993.55986,790.72101)"
       id="path3303"
       style="fill:url(#f)" />
    <path
       d="M 0,0.036 -0.82,-3.171 C -1.389,-5.395 -1.945,-7.6 -2.472,-9.721 l -0.289,-1.177 -2.026,-0.495 -0.648,-2.67 c -0.517,-2.078 -1.034,-4.185 -1.531,-6.267 l -0.68,-2.836 2.933,0.713 c 3.594,0.826 7.23,1.603 10.814,2.312 l 2.683,0.533 0.274,1.652 2.159,-0.588 c 0.439,-0.127 0.947,-0.192 1.509,-0.192 0.895,0 1.773,0.153 2.478,0.276 l 0.27,0.049 c 1.939,0.329 3.903,0.644 5.871,0.946 l 2.657,0.404 0.042,0.475 1.821,-0.033 c 0.638,-0.019 1.331,0.026 2.153,0.133 1.334,0.173 2.599,0.329 3.766,0.466 0.84,0.097 2.801,0.321 4.56,1.57 l 1.015,0.719 1.122,-0.592 c 1.2,-0.66 2.566,-0.66 3.151,-0.66 0.391,0 0.807,0.019 1.269,0.059 1.297,0.1 2.553,0.195 3.733,0.269 0.335,0.023 0.839,0.059 1.431,0.163 l 2.462,0.436 0.017,-0.384 2.624,0.146 c 2.83,0.127 5.672,0.209 8.453,0.244 0.592,0.01 1.265,0.02 1.98,0.176 l 0.085,0.02 c 0.683,0.165 1.311,0.416 1.864,0.744 l 3.053,1.822 0.01,-2.765 2.553,-0.023 c 2.498,-0.048 4.996,-0.133 7.425,-0.244 l 2.843,-0.13 2.806,-0.185 c 4.427,-0.289 8.938,-0.693 13.403,-1.19 l 1.386,-0.16 c 2.126,-0.247 4.263,-0.52 6.345,-0.806 l 4.446,-0.618 c 0.364,-0.082 0.696,-0.134 0.985,-0.176 l 0.176,-0.029 c 0.51,-0.078 1.008,-0.156 1.505,-0.238 l 1.467,-0.237 0.062,-0.302 2.595,-0.426 c 4.54,-0.781 9.175,-1.682 13.777,-2.671 0.95,-0.201 1.977,-0.422 3.012,-0.422 2.413,0.026 3.967,0.852 4.667,2.452 0.715,1.685 0.354,3.88 0.019,5.386 -0.393,1.766 -0.803,3.564 -1.216,5.346 -0.378,1.643 -0.963,3.129 -1.74,4.417 l -0.16,0.263 -0.982,4.118 c -0.631,2.654 -1.278,5.314 -1.925,7.909 l -0.654,2.654 -2.237,0.521 c -4.121,0.995 -8.225,1.899 -12.2,2.692 -1.866,0.371 -3.278,0.332 -4.332,-0.104 l -2.309,-0.956 -0.432,2.374 -2.157,0.339 c -0.676,0.11 -1.353,0.221 -2.019,0.328 l -2.358,0.374 -4.596,0.657 -7.399,0.872 -3.304,0.322 0.176,-2.072 -3.314,1.948 c -0.124,0.075 -0.251,0.143 -0.381,0.202 -0.52,0.221 -1.011,0.279 -1.428,0.312 -0.513,0.036 -1.034,0.068 -1.554,0.101 -0.117,0.009 -0.221,0.013 -0.319,0.013 -0.66,0 -1.213,-0.16 -1.685,-0.488 l -3.112,-2.16 -0.055,2.97 -0.098,-0.023 -0.39,0.016 c -1.164,0.042 -2.26,0.072 -2.26,0.072 v 0.029 l -0.579,-0.013 -0.57,0.019 c -0.666,0.02 -1.222,0.03 -1.983,0.04 -0.469,0.009 -1.012,0.016 -1.698,0.029 -0.475,0.01 -0.927,0.016 -1.337,0.019 l -0.013,-3.015 -3.174,2.329 c -0.276,0.211 -0.579,0.364 -0.924,0.475 -0.39,0.127 -0.761,0.146 -1.037,0.146 L 62.144,19 c -1.235,-0.02 -2.458,-0.052 -3.642,-0.091 l -3.9,-0.153 -1.71,-0.094 C 51.301,18.574 49.643,18.467 47.968,18.34 L 44.195,18.031 42.062,17.819 C 41.014,17.712 39.951,17.602 38.9,17.481 38.387,17.426 37.902,17.286 37.463,17.075 l -3.324,-1.613 0.153,1.509 -2.055,-0.322 c -0.953,-0.134 -1.923,-0.27 -2.879,-0.413 l -2.215,-0.332 -0.081,-0.589 -0.501,-2.885 -2.543,1.509 c -0.566,0.348 -1.291,0.576 -2.153,0.677 -1.112,0.143 -2.638,-0.124 -3.568,-0.303 -4.907,-0.923 -9.932,-2 -14.944,-3.2 L 1.05,10.564 0.335,7.906 C -0.169,6.082 -0.673,4.228 -1.168,2.397 l -0.767,-2.849 z m -10.394,-25.888 1.434,6 c 0.501,2.082 1.018,4.193 1.538,6.284 l 0.963,3.87 2.023,0.491 c 0.52,2.163 1.073,4.355 1.633,6.544 l -1.932,-0.488 1.59,6.082 c 0.494,1.834 1.002,3.691 1.503,5.519 l 1.05,3.815 3.467,0.842 c 5.048,1.206 10.108,2.289 15.039,3.22 0.809,0.152 2.029,0.387 3.197,0.387 0.351,0 0.686,-0.023 0.995,-0.062 1.158,-0.137 2.162,-0.462 2.982,-0.966 l 0.306,2.007 3.662,0.569 c 0.962,0.143 1.938,0.283 2.901,0.416 l 4.673,0.647 -0.019,-0.439 c 0.605,0.345 1.314,0.547 2.062,0.631 1.057,0.12 2.127,0.234 3.187,0.342 l 4.495,0.445 -0.007,-0.071 1.467,0.146 c 1.681,0.13 3.35,0.241 4.966,0.328 l 4.287,0.241 V 20.88 l 1.366,0.078 c 1.213,0.039 2.445,0.068 3.662,0.091 h 0.234 c 0.397,0 1.002,-0.023 1.665,-0.241 0.556,-0.179 1.07,-0.445 1.529,-0.787 l -0.036,1.067 c 0.071,0.068 1.541,0.045 3.366,0.01 0.683,-0.013 1.223,-0.023 1.688,-0.03 0.774,-0.009 1.343,-0.019 2.029,-0.042 L 73.7,20.99 c -0.007,0 1.219,-0.029 2.436,-0.078 l 0.244,-0.006 c 1.053,-0.046 1.717,-0.085 2.026,-0.124 0.032,-0.127 0.032,-0.533 0.032,-1.053 0.768,0.591 1.731,0.878 2.807,0.878 0.143,0 0.293,-0.007 0.449,-0.017 0.524,-0.032 1.047,-0.068 1.571,-0.104 0.553,-0.039 1.288,-0.13 2.062,-0.462 l 0.055,-0.026 c 0.205,-0.091 0.41,-0.195 0.605,-0.315 l -0.088,0.608 3.35,-0.296 7.259,-0.764 0.006,-0.055 0.404,-0.026 2.933,-0.355 1.246,-0.198 4.94,-0.735 c 0.68,-0.117 1.36,-0.228 2.039,-0.342 l 3.581,-0.595 0.241,-1.314 c 0.777,0.364 1.736,0.537 2.803,0.537 0.81,0 1.682,-0.095 2.67,-0.293 4.001,-0.797 8.131,-1.707 12.278,-2.709 l 3.434,-0.823 0.969,-3.847 c 0.657,-2.644 1.304,-5.311 1.929,-7.929 l 0.907,-3.809 c 0.885,-1.463 1.552,-3.151 1.978,-5.002 0.413,-1.789 0.822,-3.59 1.219,-5.366 0.397,-1.779 0.813,-4.407 -0.143,-6.648 -0.722,-1.652 -2.429,-3.636 -6.482,-3.678 l -0.061,-0.003 c -1.253,0 -2.433,0.253 -3.386,0.458 -4.628,0.995 -9.233,1.887 -13.751,2.664 l -4.075,0.706 -0.058,0.286 c -0.465,0.052 -0.956,0.13 -1.444,0.205 l -0.153,0.022 c -0.345,0.053 -0.729,0.114 -1.165,0.212 l -4.273,0.585 c -2.042,0.283 -4.166,0.553 -6.303,0.8 l -1.376,0.16 c -4.436,0.494 -8.911,0.894 -13.311,1.184 l -2.768,0.182 -2.839,0.13 c -2.417,0.11 -4.898,0.192 -7.373,0.244 l -4.56,0.088 -0.013,1.19 c -0.689,-0.462 -1.515,-0.794 -2.41,-1.008 -0.985,-0.228 -1.831,-0.238 -2.452,-0.244 -2.774,-0.039 -5.607,-0.121 -8.433,-0.244 l -4.872,-0.212 0.003,0.072 c -0.663,-0.156 -1.258,-0.195 -1.613,-0.218 -1.232,-0.081 -2.481,-0.172 -3.711,-0.27 -0.52,-0.042 -0.992,-0.062 -1.431,-0.062 -0.676,0 -2.475,0 -4.133,0.908 -2.157,-1.552 -4.57,-1.831 -5.477,-1.935 -1.239,-0.144 -2.498,-0.3 -3.74,-0.459 -0.94,-0.124 -1.74,-0.172 -2.478,-0.15 l 0.003,-0.172 -4.153,-0.654 c -1.952,-0.296 -3.903,-0.611 -5.806,-0.933 l -0.289,-0.052 c -0.745,-0.13 -1.763,-0.309 -2.833,-0.309 -0.754,0 -1.454,0.091 -2.075,0.273 l -0.11,-0.813 -4.04,-0.823 c -3.574,-0.709 -7.194,-1.483 -10.755,-2.302 z"
       transform="matrix(1.6394315,0,0,-1.6394315,169.01022,246.43958)"
       id="path3305" />
  </g>
</svg>
