<?xml version="1.0" encoding="UTF-8" standalone="no"?>
<svg
   height="200"
   viewBox="0 0 200 200"
   width="200"
   version="1.1"
   id="svg23"
   sodipodi:docname="logo_MAN.svg"
   inkscape:version="1.1 (c68e22c387, 2021-05-23)"
   xmlns:inkscape="http://www.inkscape.org/namespaces/inkscape"
   xmlns:sodipodi="http://sodipodi.sourceforge.net/DTD/sodipodi-0.dtd"
   xmlns="http://www.w3.org/2000/svg"
   xmlns:svg="http://www.w3.org/2000/svg">
  <sodipodi:namedview
     id="namedview31"
     pagecolor="#ffffff"
     bordercolor="#666666"
     borderopacity="1.0"
     inkscape:pageshadow="2"
     inkscape:pageopacity="0.0"
     inkscape:pagecheckerboard="0"
     showgrid="false"
     width="200px"
     inkscape:zoom="1.0072639"
     inkscape:cx="499.86899"
     inkscape:cy="334.07332"
     inkscape:window-width="1920"
     inkscape:window-height="1017"
     inkscape:window-x="-8"
     inkscape:window-y="-8"
     inkscape:window-maximized="1"
     inkscape:current-layer="svg23" />
  <defs
     id="defs23" />
  <g
     transform="matrix(0.2,0,0,0.2,3.3418628e-6,17.400003)"
     id="g23">
    <path
       d="m 896.72919,-1.5e-5 c 5.11504,40.442578 -1.37964,82.83915 -24.29709,117.355825 -8.02702,13.56907 -19.86921,23.56936 -31.78602,33.48808 -0.95144,40.30459 -17.31211,74.7871 -44.41122,96.71044 3.57882,26.53036 -8.67422,45.81535 -25.813,67.60903 -0.10192,5.24322 0.58201,11.93814 -0.96293,17.19098 l 229.22011,-89.40208 c 9.84856,82.40302 -38.08173,132.20711 -54.08324,148.69087 -4.34441,37.17433 -13.48174,62.10532 -39.63181,91.33702 -1.41832,35.18469 -16.16164,56.54846 -36.03033,76.10494 0.11697,8.22241 -1.83501,17.99902 -3.70511,25.43721 -6.19883,24.65555 -17.1269,35.79133 -32.60481,48.72546 L 574.65016,733.72023 c -99.85608,48.9954 -223.86805,33.53994 -309.87849,-50.07365 -4.99566,21.18201 -11.45825,46.70515 -18.82071,71.07815 -11.24268,37.2182 -42.79344,60.72319 -79.94623,71.27526 -2.86186,-1.33256 -5.74004,-3.35818 -8.27464,-5.34146 -14.44601,-0.11421 -63.120699,-8.82275 -78.405336,-26.35121 -17.658389,-20.25069 -25.021669,-47.55835 -29.386062,-81.3675 20.542297,13.50034 37.75857,31.07196 61.943198,38.5602 5.80778,1.7983 14.17246,4.27839 22.91284,4.27133 22.90905,-19.48468 34.57746,-51.95726 35.60836,-54.67101 11.6954,-30.78716 10.23508,-64.64472 -2.13015,-107.55066 -4.5,-15.61447 -19.9647,-34.58969 -23.85819,-54.16424 -4.18807,-21.05597 7.93573,-39.89577 12.34265,-59.80632 8.49194,-38.36691 -20.89124,-72.99822 -29.75398,-81.91341 -6.44507,-6.48319 -24.27294,-21.35495 -32.62099,-31.76557 -26.042894,6.13921 -51.956835,18.03646 -74.600165,38.0033 -0.06239,-17.96809 -3.572881,-33.30524 0.02828,-49.57912 3.393174,-15.33397 42.83817,-49.53501 69.454378,-51.27065 1.337558,-2.39847 3.569379,-4.27553 6.974111,-5.77983 -3.759724,-3.39606 -8.326329,-7.86839 -11.060182,-11.19182 -4.78585,-0.003 -15.389537,0.96396 -20.726591,1.7602 C 47.566868,290.36137 21.472245,308.65971 -1.801e-5,321.08363 3.9563238,302.00782 5.0039242,281.14416 11.742392,268.56429 c 13.730635,-25.63336 46.885765,-38.73707 66.627875,-41.68593 5.639779,-0.84241 13.34975,-9.36348 19.527259,-12.07218 71.617334,15.89812 117.322604,67.5444 136.379284,109.70713 16.0145,-51.29737 56.56445,-79.90412 115.04424,-103.51359 z"
       fill="#ffffff"
       id="path1" />
    <g
       fill="#044089"
       transform="matrix(1.1286681,0,0,1.1284152,2e-6,2e-6)"
       id="g6">
      <path
         d="M 604.30724,341.97879 870.2814,237.99887 c -0.93499,31.74917 -11.23676,65.25867 -51.76295,104.44835 l -198.99794,77.03164 z"
         id="path2" />
      <path
         d="M 351.95325,200.10021 779.47741,26.635599 c -1.78515,37.563534 -17.81709,70.47161 -47.98365,98.760881 l -234.40085,94.04368 c -44.9088,-18.7883 -93.53956,-24.34295 -145.13966,-19.33995 z"
         id="path3" />
      <path
         d="M 556.44589,263.25935 689.01007,212.905 c -1.97648,18.63701 -0.69152,36.39469 -24.65743,60.96037 l -78.50992,30.64437 z"
         id="path4" />
      <path
         d="m 611.01744,491.19449 172.28969,-69.49188 c 1.06681,24.68162 -7.73487,46.9467 -27.6674,66.48611 L 582.46964,557.8223 Z"
         id="path5" />
      <path
         d="m 262.70995,604.06556 c 54.00758,-31.14287 54.21315,-101.45653 25.93634,-176.11606 17.8385,20.86052 36.2824,41.79226 45.4583,61.63365 13.96739,-21.18226 6.47297,-43.93489 -0.55777,-66.65359 35.76492,39.35718 47.34534,93.95763 51.78528,140.87007 33.32816,-72.43722 21.7735,-126.21345 0.54058,-157.01056 22.73215,17.71614 53.71999,53.57425 66.7052,116.53491 4.70184,-15.39598 15.55314,-52.08832 -5.37375,-100.12916 11.28883,17.93827 30.50806,45.46285 41.57722,72.97699 -0.0234,-49.19585 -9.56942,-97.46219 -28.31541,-121.88301 51.59219,37.63862 74.80348,98.19149 82.10542,149.4578 14.45108,-48.83244 7.98872,-89.64491 -2.53454,-121.65236 15.78864,23.92646 42.15195,69.72813 66.24286,94.69886 -19.38477,-65.41841 -32.76182,-114.99828 -31.77596,-126.7123 9.61653,12.81033 33.48558,42.96688 45.43487,49.70997 29.48577,169.17464 -198.57134,318.51968 -357.22864,184.27479 z"
         id="path6" />
    </g>
    <path
       d="m 245.27794,366.16554 c -5.38439,-19.15325 -0.21329,-38.78697 7.7963,-52.09651 37.62327,-62.5187 136.54497,-108.0213 198.87369,-102.5835 153.05331,13.35298 241.13068,112.36929 256.48431,236.15929 15.06664,121.47602 -43.08444,236.58891 -168.40983,284.17247 -82.64991,31.38054 -182.50816,20.4878 -257.97906,-53.63856 -6.66581,-6.54706 -10.92118,-12.9691 -27.0805,-11.25408 l 10.38738,-9.83433 c 18.50891,1.60666 27.59653,12.78292 37.14274,20.4554 71.39193,57.37911 167.45408,60.19601 230.01394,35.30839 48.41187,-19.25926 84.51679,-50.85929 109.53419,-88.04305 15.41004,-22.90419 26.6132,-47.92697 33.89455,-73.48913 l 8.3529,9.26698 -5.70083,-19.35956 c 6.12536,-25.35323 12.14287,-66.43566 3.12568,-111.39214 C 652.34946,283.43907 497.92687,194.20948 358.1236,245.16735 c -40.47384,14.7526 -74.09053,47.68194 -98.75398,79.60143 -0.96613,6.04513 -1.75003,13.72995 -2.12468,25.09721 z"
       stroke-linecap="round"
       stroke-linejoin="round"
       stroke-miterlimit="3"
       stroke-width="2.25709"
       id="path7" />
    <g
       fill="none"
       stroke="#000000"
       stroke-linecap="round"
       stroke-width="11"
       transform="matrix(1.1286681,0,0,1.1284152,2e-6,2e-6)"
       id="g15">
      <path
         d="M 351.95325,200.10021 779.47741,26.635599 c -0.52926,37.623623 -21.35547,76.401761 -51.8995,102.185481 -1.57709,41.22478 -19.87383,70.09795 -38.56784,84.08392 1.00342,26.38746 -10.64642,47.61532 -24.65743,60.96037 3.90275,19.5651 -7.93316,40.3509 -21.96187,53.22505 L 870.2814,237.99887 c -0.85621,39.41288 -20.10564,76.07197 -51.76295,104.44835 -1.19513,38.31146 -16.65527,63.42789 -35.21132,79.25539 0.41995,35.8495 -15.29523,53.85878 -27.6674,66.48611 1.3129,24.70336 -16.19218,47.85078 -26.9801,57.68141 l -253.71796,97.93659"
         id="path8" />
      <path
         d="M 731.49376,125.39648 497.09291,219.44016"
         id="path9" />
      <path
         d="M 696.52012,206.43212 556.44589,263.25935"
         id="path10" />
      <path
         d="m 668.45083,269.65467 -82.60811,34.85507"
         id="path11" />
      <path
         d="m 659.52353,320.39254 -55.21629,21.58625"
         id="path12" />
      <path
         d="M 821.47313,339.74099 619.52051,419.47886"
         id="path13" />
      <path
         d="M 784.91741,420.29853 611.01744,491.19449"
         id="path14" />
      <path
         d="M 758.22158,485.51554 582.46964,557.8223"
         id="path15" />
    </g>
    <path
       d="m 245.83455,562.52345 c -39.98704,-15.33396 -60.19993,-76.98654 -41.51046,-129.04398 1.7501,-4.87472 6.54248,-17.69844 11.27497,-33.74095 l 4.76163,-2.22717 36.88425,-47.64536 c 16.01145,7.75425 22.24344,9.01098 29.20942,19.74868 9.73057,-0.907 19.17349,-3.25204 28.71221,-5.11807 17.44207,11.71225 35.08723,21.86395 52.32618,29.34849 19.15534,8.31658 34.50067,9.60257 56.59457,3.6763 6.90065,-1.85096 18.51919,-3.12406 24.93059,-3.0469 1.53748,8.42684 -0.003,14.08475 -7.63616,18.4908 -8.6685,5.00362 -17.36828,8.84748 -41.15303,14.86722 -17.3397,4.38856 -30.74158,9.83535 -35.31931,15.85573 l 16.27579,4.96046 c -38.38818,10.52408 -75.61049,29.10835 -107.25752,57.6224 -0.0353,13.83424 2.63202,23.36895 3.09677,37.93299 0.42001,13.16216 -2.24246,23.40962 -2.30426,35.58958 -0.10338,20.3876 34.06895,42.77341 47.4575,49.39688 l 6.51429,12.22656 c -15.44947,2.48845 -29.14694,-11.08612 -37.77936,-22.06376 -9.77739,-12.4337 -17.66135,-25.7462 -23.81555,-39.27573 3.81622,-21.17572 4.56835,-39.20372 -3.47807,-61.76931 -11.96616,14.58359 -17.38761,29.33496 -17.78445,44.21514 z"
       id="path16" />
    <path
       d="m 240.42388,552.21475 c -30.1114,-30.16619 -57.19383,-77.059 -13.94796,-140.37307 l -3.15424,-9.79113 c 0,0 19.18831,3.82903 20.73769,0.81143 1.51211,-2.94502 -9.02105,-10.24851 -9.02105,-10.24851 2.27083,-5.25558 4.66711,-10.45706 8.90417,-15.76671 12.10485,-15.16919 25.11271,-11.35369 35.02976,-5.1018 5.9428,3.74645 10.07094,7.71194 14.70906,12.47657 l 17.70148,-13.87524 c 13.44495,8.25609 27.01806,16.19731 40.548,22.50581 31.92234,14.88421 52.98753,12.95714 86.04336,7.1959 7.86833,-1.37136 5.84709,5.33864 3.08656,7.72979 -9.91724,8.59018 -22.34032,11.71429 -34.19313,14.5754 -25.35289,6.11984 -30.9414,7.97116 -47.13311,20.51843 -9.21175,7.13837 -19.07345,12.99199 -27.93308,18.02495 -16.196,9.20058 -30.62038,18.77727 -45.17166,30.71406 -4.4143,3.62117 -5.42107,-0.30013 -3.80669,-2.82752 13.96099,-21.8566 48.63139,-42.12124 63.83594,-50.13284 21.26656,-11.20579 40.26554,-20.30515 59.54081,-25.25734 4.28511,-1.10092 8.83126,-2.22225 12.36423,-2.16076 3.25103,0.0566 6.47137,1.54704 8.96532,1.2318 1.96328,-0.24817 6.37612,-4.18798 8.34697,-8.31251 -6.23027,6.0074 -9.63785,5.71409 -16.76145,5.2712 -2.6546,-0.16504 -7.60644,0.32131 -11.56775,1.18011 -22.02063,4.7741 -40.99765,13.51554 -59.09788,22.69763 -12.19589,6.18689 -38.89994,21.91208 -41.40665,18.70431 -2.3566,-3.01567 18.25943,-18.79998 29.44543,-27.39785 -13.61134,5.91386 -25.3844,16.74977 -35.88366,28.84657 -11.1619,12.86027 -20.65113,25.80427 -29.93961,39.31822 -4.53896,6.60382 -9.24348,14.00159 -14.03546,20.37192 -4.2998,5.71602 -6.17873,10.6957 -8.33983,16.14657 -2.56967,6.48142 -5.25855,14.82351 -7.86557,22.92461 z"
       fill="#e40423"
       id="path17" />
    <path
       d="m 255.85026,405.1353 c -2.21114,-1.65346 1.12896,-5.03307 2.83784,-5.50751 3.48782,-0.96835 5.82452,0.973 9.79778,1.08986 3.6598,0.10765 5.8856,0.46311 6.83972,0.38438 0.7828,-0.0647 1.26127,-1.18681 2.78219,-0.72321 4.49831,1.37113 12.58854,6.49275 12.18599,8.51159 -0.36205,1.81574 -5.30506,3.61972 -7.95706,3.39352 -4.5871,-0.39127 -2.08723,-3.4301 -17.86166,-6.0082 -3.23798,-0.5292 -6.32993,0.57565 -8.6248,-1.14043 z"
       id="path18" />
    <path
       d="m 259.46711,487.60877 c -8.09618,6.39528 -16.17882,12.80522 -22.53574,21.08428 -1.49862,1.95176 -1.27163,4.34674 -0.5008,6.73139 0.94474,2.92268 -3.57456,3.99504 -4.39586,1.44642 -8.48721,-26.33726 22.37647,-30.94804 27.4324,-29.26209 z"
       id="path19" />
    <path
       d="m 308.00142,363.63404 c 0.30734,-10.18509 11.91886,-14.87892 17.78445,-28.00817 l 1.57384,4.72048 5.40671,-4.36922 0.63909,3.5364 13.52552,-12.59749 c -0.85958,2.47656 -2.64261,4.60595 -2.27812,8.03435 8.01068,-3.91342 12.43112,-10.00032 18.20259,-14.96726 -0.76947,3.36458 -4.29787,8.98097 -1.97289,9.82083 1.71177,0.61834 16.14523,-13.21102 23.72745,-20.82745 14.23837,-14.30267 18.78172,-17.18612 22.03494,-18.58088 -2.7679,4.31392 -9.74243,10.69977 -8.05206,12.74914 1.88055,2.27991 12.24731,-3.51093 17.48566,-6.28914 2.43167,4.49767 9.44911,1.01797 14.38196,0.77208 -7.09131,3.27197 -14.40465,7.52892 -13.46581,9.01228 1.60666,2.53852 8.94203,1.79183 12.36412,0.26301 l 13.78847,-6.15994 c 10.06355,-4.49584 19.46847,-1.45141 22.36882,0.89011 l -7.10332,2.74898 c 29.77481,2.31823 36.01727,14.81551 40.18358,22.75801 -14.48343,-16.2495 -24.87551,-11.07609 -34.97215,-1.80804 -10.17408,9.33916 -19.34811,19.25838 -28.48963,29.37336 -25.40645,28.11191 -57.95521,26.55069 -72.61518,0.44504 22.0136,20.97189 44.73492,19.63034 55.35849,5.63174 8.91698,-11.74983 9.05311,-38.94483 -5.22342,-52.69585 l -42.84573,38.94195 c -9.78749,8.89573 -14.67282,6.73812 -22.25752,6.11944 -8.81276,-0.71885 -30.42126,-2.28607 -39.54986,10.48624 z"
       id="path20" />
    <ellipse
       cx="390.84216"
       cy="338.68365"
       rx="11.128763"
       ry="11.12627"
       id="ellipse20" />
    <path
       d="m 370.0109,353.485 c 29.71373,24.98361 61.3207,-12.84868 33.28682,-33.51537 l 5.42977,-0.47205 -0.15739,-5.82191 c 30.48037,39.11691 -14.43071,69.13586 -38.5592,39.80933 z"
       id="path21" />
    <path
       d="m 352.85599,357.49742 c 9.83218,7.48841 15.95979,16.07177 24.58062,21.85408 18.71978,12.55602 31.36335,4.56876 42.93733,-1.55603 10.91315,-5.77509 21.16677,-16.63978 29.4309,-27.06407 1.78557,-2.25231 4.93166,-2.97173 7.47575,-4.56312 5.3212,-3.32851 6.81328,-5.2908 12.51207,-7.71012 4.03725,-1.71395 7.23969,-2.15272 10.85954,-2.04554 -17.23658,8.10315 -27.20788,20.71134 -30.30048,28.34195 -9.4939,23.42505 -27.01712,29.87726 -45.54207,29.87726 -27.16163,0 -43.0565,-15.13102 -51.95366,-37.13441 z"
       id="path22" />
    <path
       d="m 100.2707,228.19995 c -4.736789,2.63461 -7.514954,6.37542 -10.7003,10.1381 -10.916204,-0.0241 -29.97535,3.23389 -45.188609,12.63297 -17.215876,10.63632 -25.409505,25.60721 -28.512097,48.1582 20.831339,-13.2768 38.627558,-25.91598 73.969646,-25.01908 9.743604,12.39217 34.50579,32.31013 52.27806,47.0386 -13.58505,-5.89263 -24.69099,-13.41434 -43.089996,-11.27754 l -1.684184,6.55892 c -15.319257,-0.13729 -39.263255,11.09716 -53.197304,25.33204 -14.312053,14.62104 -11.351909,25.59124 -11.566644,37.13411 17.583222,-10.74417 44.254349,-27.7473 69.091248,-25.2549 7.83758,10.87868 17.77511,18.41906 27.07039,26.20039 41.47129,34.7167 48.0362,77.14875 41.06633,101.37225 -18.30197,63.60783 -15.7152,48.66688 9.38206,104.05222 7.35288,16.22659 20.83134,67.47408 7.47522,109.14993 -6.9725,21.75668 -19.24817,44.11842 -40.05229,66.04095 l -3.47197,6.62062 c -29.99436,5.07872 -53.840014,-10.88882 -73.630172,-23.3507 4.460391,42.64001 41.741172,62.87961 93.090872,64.28882 2.28957,2.53157 4.67551,3.82865 7.2173,2.88275 17.50605,-6.51465 43.89869,-19.9232 58.23002,-51.89167 0.74242,-1.65609 -0.83973,-6.48126 -3.01125,-1.11741 -7.81704,19.30888 -31.8935,30.1303 -55.06225,41.36569 -7.09367,-7.80638 -13.50661,-16.0977 -17.62221,-25.98001 -1.76572,-4.2398 -2.12856,-8.35393 1.44609,-12.01586 0,0 13.26634,-18.50131 19.80902,-27.81587 26.50689,-37.73684 34.0945,-47.72141 28.93534,-88.78777 -2.7879,-22.1914 -11.534,-50.50851 -22.18097,-71.90562 -21.34156,-42.88989 -16.54006,-42.63165 -6.18342,-95.98361 8.02344,-41.33265 0.87068,-79.1416 -42.92026,-110.45687 -13.60356,-9.72802 -22.14298,-20.73071 -23.64251,-46.56696 22.30959,2.94849 28.00962,6.35296 44.89322,14.90963 15.77941,7.99705 29.70516,23.66424 37.79274,38.63499 7.91031,14.64259 8.59796,27.6063 19.68997,46.53391 l 2.67838,-2.92022 c -6.25669,-10.61704 -8.9131,-22.05817 -13.42056,-33.91196 -11.29204,-29.69596 -28.33616,-62.35863 -72.18406,-89.4798 -25.86481,-15.99813 -33.872235,-31.14023 -25.78742,-58.54317 7.47888,4.20833 15.1511,7.51792 20.13747,9.03394 43.12847,13.11252 92.87824,68.48799 113.53916,136.14374 l 3.42789,-4.19849 C 227.40871,321.10295 181.30831,248.81432 100.2707,228.19995 Z m -15.598544,22.61458 c -0.485205,4.34028 -0.992334,8.65798 0.158719,14.63413 -31.708763,0.99615 -41.841733,6.71562 -60.593166,21.08507 9.26902,-23.35302 32.089672,-37.45656 60.434447,-35.7192 z m 11.125758,77.57635 c -0.164322,5.02432 0.23407,10.92357 1.29841,15.58404 -28.823195,1.55567 -44.805694,12.86364 -57.202807,20.88092 5.93689,-21.95389 30.256067,-35.89192 55.904397,-36.46496 z M 78.680516,756.47461 c 16.021992,12.93065 34.675934,22.08584 62.431664,20.24976 1.37594,7.04323 3.81828,13.0208 7.56781,17.69099 -25.11859,1.75888 -60.934883,-12.99043 -69.999474,-37.94075 z"
       stroke-linecap="round"
       stroke-width="12.4139"
       id="path23" />
  </g>
</svg>
