<?xml version="1.0" encoding="UTF-8" standalone="no"?>
<!-- Created with Inkscape (http://www.inkscape.org/) -->

<svg
   version="1.1"
   width="200"
   height="200"
   id="svg2"
   xml:space="preserve"
   sodipodi:docname="logo_SWW.svg"
   inkscape:version="1.1 (c68e22c387, 2021-05-23)"
   xmlns:inkscape="http://www.inkscape.org/namespaces/inkscape"
   xmlns:sodipodi="http://sodipodi.sourceforge.net/DTD/sodipodi-0.dtd"
   xmlns="http://www.w3.org/2000/svg"
   xmlns:svg="http://www.w3.org/2000/svg"
   xmlns:rdf="http://www.w3.org/1999/02/22-rdf-syntax-ns#"
   xmlns:cc="http://creativecommons.org/ns#"
   xmlns:dc="http://purl.org/dc/elements/1.1/"><sodipodi:namedview
     id="namedview2591"
     pagecolor="#ffffff"
     bordercolor="#666666"
     borderopacity="1.0"
     inkscape:pageshadow="2"
     inkscape:pageopacity="0.0"
     inkscape:pagecheckerboard="0"
     showgrid="false"
     inkscape:zoom="2.4728292"
     inkscape:cx="213.72281"
     inkscape:cy="122.32951"
     inkscape:window-width="1920"
     inkscape:window-height="1017"
     inkscape:window-x="-8"
     inkscape:window-y="-8"
     inkscape:window-maximized="1"
     inkscape:current-layer="svg2" /><metadata
     id="metadata8"><rdf:RDF><cc:Work
         rdf:about=""><dc:format>image/svg+xml</dc:format><dc:type
           rdf:resource="http://purl.org/dc/dcmitype/StillImage" /></cc:Work></rdf:RDF></metadata><defs
     id="defs6"><clipPath
       id="clipPath18"><path
         d="M 0,1958.54 V 0 h 3422.84 v 1958.54 z"
         inkscape:connector-curvature="0"
         id="path20" /></clipPath></defs><g
     transform="matrix(0.58431011,0,0,-0.58431011,-8.4562001e-7,157.21963)"
     id="g10"><g
       transform="scale(0.1)"
       id="g12"><g
         id="g14"><g
           clip-path="url(#clipPath18)"
           id="g16"><path
             d="m 1100.33,1429.4 c -18.94,-11.58 -40.16,-20.76 -48.68,-23.05 l -13.83,22.65 c 12.69,6.02 26.95,12.97 45.11,24.07 17.58,10.74 22.75,21.17 14.09,35.35 -6.2,10.17 -13.41,13.61 -31.86,11.34 l -27.83,-3.62 c -27.3,-3.61 -46.971,2.68 -60.935,25.56 -18.606,30.48 -7.75,52.23 26.635,73.24 18.36,11.22 37.49,18.54 45.49,20.82 l 13.69,-22.46 c -11.77,-5.74 -27.65,-13.11 -42.89,-22.42 -17,-10.38 -24.238,-19.16 -16.48,-31.86 5.82,-9.54 12.89,-11.9 31.22,-9.43 l 25.03,3.39 c 32.25,4.29 49.25,-0.73 65.54,-27.39 17.45,-28.58 8.32,-56.25 -24.3,-76.19"
             inkscape:connector-curvature="0"
             id="path22"
             style="fill:#1b2647;fill-opacity:1;fill-rule:nonzero;stroke:none" /><path
             d="m 1234.62,1504.9 c -38.68,-20.35 -72.53,-17.97 -103.27,40.43 l -11.44,21.73 c -30.74,58.41 -13.43,87.43 25.26,107.78 13.16,6.93 32.37,13.68 40.19,15.54 l 12.82,-24.37 c -10.38,-4.34 -25.34,-10.81 -37.09,-16.99 -25.32,-13.33 -32.58,-29.48 -12.82,-67.04 l 11.44,-21.72 c 19.77,-37.55 37.32,-40.93 62.63,-27.62 11.76,6.18 25.56,14.86 35.02,20.96 l 12.95,-24.59 c -5.96,-5.39 -22.52,-17.19 -35.69,-24.11"
             inkscape:connector-curvature="0"
             id="path24"
             style="fill:#1b2647;fill-opacity:1;fill-rule:nonzero;stroke:none" /><path
             d="m 1388.29,1582.05 -33.1,74.07 -67.94,-30.37 33.12,-74.07 -29.26,-13.09 -75.25,168.3 29.27,13.09 29.97,-67.05 67.93,30.37 -29.97,67.05 29.26,13.09 75.23,-168.31 -29.26,-13.08"
             inkscape:connector-curvature="0"
             id="path26"
             style="fill:#1b2647;fill-opacity:1;fill-rule:nonzero;stroke:none" /><path
             d="m 1597.99,1661.51 -40.35,-14.35 -52.89,84.65 c -4.46,7.11 -8.45,14.89 -12.74,21.53 l -0.43,-0.16 c 0.84,-7.87 2.67,-16.41 3.68,-24.75 l 12.56,-98.98 -40.78,-14.49 -89.49,163.75 30.63,10.89 53.31,-99.5 c 5.71,-10.6 11.24,-22.06 16.48,-32.04 l 0.87,0.31 c -1.44,11.59 -3.41,23.25 -4.76,34.63 l -10.33,82.41 36.47,12.97 44.22,-71.16 c 5.81,-9.51 11.99,-19.42 17.66,-29.26 l 0.87,0.31 c -2.6,11.46 -5.12,22.67 -7.42,35.28 l -21.16,110.93 29.99,10.66 33.61,-183.63"
             inkscape:connector-curvature="0"
             id="path28"
             style="fill:#1b2647;fill-opacity:1;fill-rule:nonzero;stroke:none" /><path
             d="m 1649.41,1676.99 -48.97,177.63 104.35,28.77 7.64,-27.73 -73.46,-20.25 12.46,-45.18 68.82,18.96 7.38,-26.77 -68.83,-18.98 13.91,-50.43 73.46,20.24 7.58,-27.5 -104.34,-28.76"
             inkscape:connector-curvature="0"
             id="path30"
             style="fill:#1b2647;fill-opacity:1;fill-rule:nonzero;stroke:none" /><path
             d="m 1873.75,1731.9 -75.55,96.02 c -5.73,7.42 -12.46,16.15 -18.14,24.35 l -0.45,-0.08 c 2.57,-10.12 5.34,-21.19 7.6,-32.13 l 21.13,-101.76 -28.68,-5.95 -37.46,180.45 36.3,7.54 74.88,-93.88 c 5.76,-7.43 13.07,-16.8 18.46,-24.8 l 0.45,0.1 c -2.89,10.54 -5.73,23.12 -8.01,34.05 l -20.36,98.12 28.9,6.01 37.46,-180.45 -36.53,-7.59"
             inkscape:connector-curvature="0"
             id="path32"
             style="fill:#1b2647;fill-opacity:1;fill-rule:nonzero;stroke:none" /><path
             d="m 2037.47,1757.61 -68.48,101.28 c -5.21,7.81 -11.28,17.01 -16.35,25.62 l -0.46,-0.07 c 1.84,-10.28 3.79,-21.52 5.28,-32.59 l 13.74,-103.05 -29.06,-3.85 -24.36,182.72 36.76,4.89 67.96,-99.11 c 5.19,-7.81 11.82,-17.69 16.64,-26.06 l 0.45,0.06 c -2.13,10.73 -4.05,23.48 -5.54,34.56 l -13.23,99.35 29.25,3.89 24.38,-182.73 -36.98,-4.91"
             inkscape:connector-curvature="0"
             id="path34"
             style="fill:#1b2647;fill-opacity:1;fill-rule:nonzero;stroke:none" /><path
             d="m 2107.47,1764.76 -14.76,183.68 31.93,2.58 14.77,-183.68 -31.94,-2.58"
             inkscape:connector-curvature="0"
             id="path36"
             style="fill:#1b2647;fill-opacity:1;fill-rule:nonzero;stroke:none" /><path
             d="m 2268.43,1773.15 -57.49,107.86 c -4.35,8.32 -9.44,18.11 -13.58,27.17 l -0.47,-0.02 c 0.75,-10.39 1.53,-21.79 1.85,-32.96 l 2.89,-103.91 -29.29,-0.82 -5.13,184.27 37.06,1.05 57.22,-105.64 c 4.34,-8.33 9.91,-18.83 13.81,-27.65 h 0.47 c -1,10.9 -1.6,23.79 -1.9,34.95 l -2.78,100.19 29.5,0.83 5.15,-184.28 -37.31,-1.04"
             inkscape:connector-curvature="0"
             id="path38"
             style="fill:#1b2647;fill-opacity:1;fill-rule:nonzero;stroke:none" /><path
             d="m 2403.96,1766.68 c -38.87,1.75 -70.36,19.59 -67.33,86.22 l 1.18,26.02 c 3.2,70.35 40.34,81.08 75.56,79.47 24.91,-1.12 49.16,-6.7 54.35,-8.68 l -1.21,-26.51 c -10.93,1.49 -37.38,4.19 -49.03,4.72 -27.67,1.26 -45.81,-4.62 -47.9,-50.46 l -1.18,-26 c -1.91,-42.12 11.79,-53.42 39.22,-54.66 8.46,-0.39 16.92,-0.53 22.88,-0.31 l 3.24,71.11 30.42,-1.39 -4.4,-96.37 c -9.46,-1.8 -31.35,-4.29 -55.8,-3.16"
             inkscape:connector-curvature="0"
             id="path40"
             style="fill:#1b2647;fill-opacity:1;fill-rule:nonzero;stroke:none" /><path
             d="m 2489.47,1765.43 20.53,183.18 107.62,-12.03 -3.2,-28.59 -75.76,8.46 -5.22,-46.59 70.99,-7.93 -3.11,-27.62 -70.98,7.94 -5.83,-52.02 75.76,-8.46 -3.18,-28.35 -107.62,12.01"
             inkscape:connector-curvature="0"
             id="path42"
             style="fill:#1b2647;fill-opacity:1;fill-rule:nonzero;stroke:none" /><path
             d="m 2735.65,1859.07 c 5.03,28.08 -12.95,31.55 -53.97,38.91 l -10.66,-59.58 c 5.81,-1.29 11.45,-2.31 17.3,-3.36 28.84,-5.18 42.87,-0.89 47.06,22.56 z m -14.37,-126.98 -24.93,73.79 c -4.55,0.57 -9.5,1.46 -14.69,2.37 l -15.54,2.8 -11.97,-66.93 -30.66,5.52 32.49,181.44 c 15,-1.94 30.19,-4.17 47.08,-7.19 40.34,-7.23 72.12,-22 63.55,-69.88 l -0.3,-1.71 c -4.95,-27.6 -18.57,-40.01 -37.85,-45.12 l 26.18,-81.07 -33.36,5.98"
             inkscape:connector-curvature="0"
             id="path44"
             style="fill:#1b2647;fill-opacity:1;fill-rule:nonzero;stroke:none" /><path
             d="m 3373.91,747.672 c -37.47,11.68 -76.11,17.59 -114.84,17.59 -51.1,0 -94.46,-10.621 -130.02,-31.602 l -30.74,11.059 c -15.34,5.5 -35.53,12.793 -69.96,17.043 55.76,37.629 97.87,101.32 130.09,194.519 l 11.6,33.524 c 21.18,61.205 44.36,149.515 1.47,209.755 -26.15,36.72 -79.01,55.24 -142.03,56.9 v 0.33 h -358.8 c 63.91,219.66 82.24,418.82 82.24,418.82 -140.94,29.44 -303.62,48.31 -447.83,48.31 -702.56,0 -1212.24,-349.42 -1217.31,-352.95 l -16.53,-11.81 50.63,-127.7 L 0,1290.31 31.1562,1234.53 C 38.9414,1220.59 222.5,896.82 489.547,850.281 508.492,745.551 622.898,617.762 772.691,586.25 c 0.684,-0.129 12.508,-2.289 23.27,-3.91 24.777,-115.801 180.926,-198.828 387.539,-205.25 47.54,-124.539 182.26,-148.551 308.58,-155.36 l 0.95,-0.05 C 1554.19,119.211 1586.35,72.5508 1653.67,7.53125 L 1661.47,0 1672.04,2.42969 C 1833.22,39.4414 1980.86,116.871 2112.87,232.75 h 335.81 l 11.8,33.289 7.45,21 0.84,-8.949 4.26,-45.34 h 180.49 l 11.73,33.449 7.03,20.063 c 1.9,-3.301 3.94,-6.524 6.13,-9.633 38.39,-54.109 107.56,-54.109 130.29,-54.109 55.77,0 110.74,7.992 143.57,15.46 l 10.53,2.399 7.36,-2.18 c 32.29,-9.519 84.02,-15.679 131.8,-15.679 106.26,0 184.84,59.3 221.29,166.96 28.9,85.379 12.06,143.36 -54.69,187.211 16.02,-1.062 30.83,-2.812 48.63,-4.921 l 9.06,-1.079 40.19,-4.703 12.99,38.321 26.96,79.582 16.45,48.531 -48.93,15.25"
             inkscape:connector-curvature="0"
             id="path46"
             style="fill:#1b2647;fill-opacity:1;fill-rule:nonzero;stroke:none" /><path
             d="m 2966.5,1113.03 c 9.48,0 18.1,0 25.87,0 46.13,0 53.2,-19.33 22.7,-106.86 l -11.68,-33.533 c -30.49,-87.528 -51.88,-109.125 -98.25,-109.125 -7.79,0 -17.32,0 -25.99,0 z m 135.63,-143.452 11.62,33.532 c 49.81,143.8 18.72,199.35 -93.18,199.35 -46.04,0 -76.7,2.08 -121.95,-3.03 L 2749.93,777.109 c 42.05,-5.121 73.81,-7.39 118.95,-7.39 114.19,0 182.67,53.781 233.25,199.859"
             inkscape:connector-curvature="0"
             id="path48"
             style="fill:#ffffff;fill-opacity:1;fill-rule:nonzero;stroke:none" /><path
             d="m 2674.3,705.07 -61.4,-173.929 c -8.83,-25.012 -17.03,-49.45 -20.93,-64.231 h -0.88 c 0.12,17.621 -0.52,38.078 -2.98,54.559 l -19.88,183.601 h -96.06 L 2321.35,282.75 h 92.49 l 63.22,177.898 c 7.07,19.911 14.53,40.934 20.52,60.262 h 1.32 c 0.26,-16.488 1.01,-35.238 2.82,-52.289 l 17.34,-185.871 h 99.51 l 148.33,422.32 h -92.6"
             inkscape:connector-curvature="0"
             id="path50"
             style="fill:#ffffff;fill-opacity:1;fill-rule:nonzero;stroke:none" /><path
             d="m 2926.7,514.09 -50.04,-144.371 c -9.16,-1.137 -20.54,-1.137 -31.04,-1.137 -37.64,0 -44.79,22.168 -15.89,105.156 l 14.06,40.352 c 32.28,92.648 59.75,104.019 108.97,104.019 29.18,0 76.95,-2.847 100.76,-4.558 l 29.01,84.14 c -18.95,6.809 -67.81,17.61 -116.49,17.61 -73.45,0 -160.28,-23.301 -222.62,-201.211 l -14.14,-40.352 c -59.14,-168.816 0.55,-201.207 80.35,-201.207 51.3,0 102.52,7.379 132.49,14.199 l 78.4,227.36 h -93.82"
             inkscape:connector-curvature="0"
             id="path52"
             style="fill:#ffffff;fill-opacity:1;fill-rule:nonzero;stroke:none" /><path
             d="m 3082.54,593.102 c -25.62,-74.461 -4.41,-102.891 34.66,-129.032 l 34.65,-23.859 c 23.17,-15.359 28.09,-22.75 21.49,-42.082 -8.52,-25 -24.41,-36.938 -54.62,-36.938 -48.58,0 -76.55,3.981 -104.89,6.829 l -28.14,-81.86 c 23.06,-6.808 68.53,-13.629 117.64,-13.629 78.04,0 142.2,39.219 173.99,133 23.12,68.207 9.61,101.739 -38.6,131.86 l -34.07,21.597 c -22.16,14.211 -27.05,21.614 -21.21,38.66 7.97,23.301 24.67,30.114 52.97,30.114 38.32,0 63.28,-3.403 97.19,-7.383 l 27.01,79.57 c -20.05,6.25 -55.21,15.352 -99.98,15.352 -87.35,0 -147.57,-33.531 -178.09,-122.199"
             inkscape:connector-curvature="0"
             id="path54"
             style="fill:#ffffff;fill-opacity:1;fill-rule:nonzero;stroke:none" /><path
             d="M 2749.85,1199.43 H 2648.72 L 2497.9,777.109 h 217.91 l 32.89,93.211 H 2633 l 116.85,329.11"
             inkscape:connector-curvature="0"
             id="path56"
             style="fill:#ffffff;fill-opacity:1;fill-rule:nonzero;stroke:none" /><path
             d="m 2493.42,1199.43 h 101.14 L 2443.31,777.109 h -102 l 152.11,422.321"
             inkscape:connector-curvature="0"
             id="path58"
             style="fill:#ffffff;fill-opacity:1;fill-rule:nonzero;stroke:none" /><path
             d="m 1755.47,282.738 h -222.51 l -55,817.662 -266.25,84.98 572.5,199.18 -97.5,-757.279 215.35,798.429 237.09,81.33 -22.44,-720.392 162.5,770.002 316.2,109.54 c 0.36,-0.05 0.73,-0.1 1.1,-0.14 L 2098.97,282.738 h -183.93 l 59.17,752.472 -218.74,-752.472"
             inkscape:connector-curvature="0"
             id="path60"
             style="fill:#ffffff;fill-opacity:1;fill-rule:nonzero;stroke:none" /><path
             d="m 2315.36,705.07 -151.84,-421.558 -0.27,-0.762 h 103.01 l 80.91,225.93 70.33,196.39 h -102.14"
             inkscape:connector-curvature="0"
             id="path62"
             style="fill:#ffffff;fill-opacity:1;fill-rule:nonzero;stroke:none" /><path
             d="m 3003.39,972.637 11.68,33.533 c 30.5,87.53 23.43,106.86 -22.7,106.86 -7.77,0 -16.39,0 -25.87,0 l -87.35,-249.518 c 8.67,0 18.2,0 25.99,0 46.37,0 67.76,21.597 98.25,109.125"
             inkscape:connector-curvature="0"
             id="path64"
             style="fill:#1b2647;fill-opacity:1;fill-rule:nonzero;stroke:none" /><path
             d="m 1051.67,453.73 c -2.45,0.54 -4.88,1.079 -7.29,1.641 2.41,-0.562 4.84,-1.101 7.29,-1.641"
             inkscape:connector-curvature="0"
             id="path66"
             style="fill:#1c58aa;fill-opacity:1;fill-rule:nonzero;stroke:none" /><path
             d="m 1067.82,450.41 c -2.59,0.5 -5.18,1 -7.75,1.512 2.57,-0.524 5.16,-1.012 7.75,-1.512"
             inkscape:connector-curvature="0"
             id="path68"
             style="fill:#1c58aa;fill-opacity:1;fill-rule:nonzero;stroke:none" /><path
             d="m 1118.91,442.738 c -3.1,0.352 -6.21,0.684 -9.28,1.063 3.07,-0.379 6.18,-0.711 9.28,-1.063"
             inkscape:connector-curvature="0"
             id="path70"
             style="fill:#1c58aa;fill-opacity:1;fill-rule:nonzero;stroke:none" /><path
             d="m 1101.49,444.891 c -2.94,0.41 -5.88,0.8 -8.78,1.238 2.9,-0.438 5.84,-0.828 8.78,-1.238"
             inkscape:connector-curvature="0"
             id="path72"
             style="fill:#1c58aa;fill-opacity:1;fill-rule:nonzero;stroke:none" /><path
             d="m 1035.94,457.43 c -2.29,0.57 -4.57,1.152 -6.83,1.75 2.26,-0.598 4.54,-1.168 6.83,-1.75"
             inkscape:connector-curvature="0"
             id="path74"
             style="fill:#1c58aa;fill-opacity:1;fill-rule:nonzero;stroke:none" /><path
             d="m 1084.45,447.461 c -2.76,0.449 -5.52,0.898 -8.24,1.379 2.72,-0.488 5.48,-0.93 8.24,-1.379"
             inkscape:connector-curvature="0"
             id="path76"
             style="fill:#1c58aa;fill-opacity:1;fill-rule:nonzero;stroke:none" /><path
             d="m 977.695,475.73 c -1.562,0.61 -3.101,1.219 -4.644,1.84 1.543,-0.621 3.086,-1.23 4.644,-1.84"
             inkscape:connector-curvature="0"
             id="path78"
             style="fill:#1c58aa;fill-opacity:1;fill-rule:nonzero;stroke:none" /><path
             d="m 939.516,492.82 c -0.879,0.461 -1.735,0.93 -2.602,1.391 0.867,-0.461 1.723,-0.93 2.602,-1.391"
             inkscape:connector-curvature="0"
             id="path80"
             style="fill:#1c58aa;fill-opacity:1;fill-rule:nonzero;stroke:none" /><path
             d="m 951.695,486.82 c -1.136,0.532 -2.254,1.078 -3.375,1.629 1.121,-0.551 2.239,-1.097 3.375,-1.629"
             inkscape:connector-curvature="0"
             id="path82"
             style="fill:#1c58aa;fill-opacity:1;fill-rule:nonzero;stroke:none" /><path
             d="m 991.523,470.641 c -1.761,0.621 -3.5,1.238 -5.234,1.879 1.734,-0.641 3.477,-1.258 5.234,-1.879"
             inkscape:connector-curvature="0"
             id="path84"
             style="fill:#1c58aa;fill-opacity:1;fill-rule:nonzero;stroke:none" /><path
             d="m 1020.67,461.48 c -2.13,0.61 -4.25,1.219 -6.35,1.829 2.1,-0.61 4.22,-1.219 6.35,-1.829"
             inkscape:connector-curvature="0"
             id="path86"
             style="fill:#1c58aa;fill-opacity:1;fill-rule:nonzero;stroke:none" /><path
             d="m 1005.86,465.898 c -1.95,0.614 -3.9,1.231 -5.83,1.864 1.93,-0.633 3.88,-1.25 5.83,-1.864"
             inkscape:connector-curvature="0"
             id="path88"
             style="fill:#1c58aa;fill-opacity:1;fill-rule:nonzero;stroke:none" /><path
             d="m 964.43,481.121 c -1.364,0.578 -2.707,1.168 -4.047,1.77 1.34,-0.602 2.683,-1.192 4.047,-1.77"
             inkscape:connector-curvature="0"
             id="path90"
             style="fill:#1c58aa;fill-opacity:1;fill-rule:nonzero;stroke:none" /><path
             d="m 1415.99,285.48 c -4.44,0.641 -8.88,1.282 -13.15,2 4.27,-0.718 8.71,-1.359 13.15,-2"
             inkscape:connector-curvature="0"
             id="path92"
             style="fill:#1c58aa;fill-opacity:1;fill-rule:nonzero;stroke:none" /><path
             d="m 1368.83,294.461 c -3.07,0.75 -6.11,1.527 -9.08,2.328 2.97,-0.801 6.01,-1.578 9.08,-2.328"
             inkscape:connector-curvature="0"
             id="path94"
             style="fill:#1c58aa;fill-opacity:1;fill-rule:nonzero;stroke:none" /><path
             d="m 1391.37,289.59 c -3.69,0.699 -7.37,1.422 -10.93,2.18 3.56,-0.758 7.24,-1.481 10.93,-2.18"
             inkscape:connector-curvature="0"
             id="path96"
             style="fill:#1c58aa;fill-opacity:1;fill-rule:nonzero;stroke:none" /><path
             d="m 1443.5,282.09 c -5.59,0.582 -11.19,1.148 -16.56,1.84 5.37,-0.692 10.97,-1.258 16.56,-1.84"
             inkscape:connector-curvature="0"
             id="path98"
             style="fill:#1c58aa;fill-opacity:1;fill-rule:nonzero;stroke:none" /><path
             d="m 1480.46,279.012 c -9.51,0.57 -18.71,1.277 -27.65,2.09 8.94,-0.813 18.14,-1.52 27.65,-2.09"
             inkscape:connector-curvature="0"
             id="path100"
             style="fill:#1c58aa;fill-opacity:1;fill-rule:nonzero;stroke:none" /><path
             d="m 1311.68,313.961 c -1.11,0.508 -2.15,1.078 -3.24,1.609 1.09,-0.539 2.13,-1.101 3.24,-1.609"
             inkscape:connector-curvature="0"
             id="path102"
             style="fill:#1c58aa;fill-opacity:1;fill-rule:nonzero;stroke:none" /><path
             d="m 1348.11,300.141 c -2.49,0.769 -4.92,1.558 -7.34,2.371 2.41,-0.813 4.85,-1.602 7.34,-2.371"
             inkscape:connector-curvature="0"
             id="path104"
             style="fill:#1c58aa;fill-opacity:1;fill-rule:nonzero;stroke:none" /><path
             d="m 1199.19,438.352 c -6.22,0 -12.38,0.078 -18.51,0.23 6.13,-0.152 12.29,-0.23 18.51,-0.23"
             inkscape:connector-curvature="0"
             id="path106"
             style="fill:#1c58aa;fill-opacity:1;fill-rule:nonzero;stroke:none" /><path
             d="m 1155.14,439.691 c -3.54,0.2 -7.1,0.399 -10.61,0.661 3.51,-0.262 7.07,-0.461 10.61,-0.661"
             inkscape:connector-curvature="0"
             id="path108"
             style="fill:#1c58aa;fill-opacity:1;fill-rule:nonzero;stroke:none" /><path
             d="m 1174.66,438.801 c -4.08,0.129 -8.17,0.25 -12.2,0.449 4.03,-0.199 8.12,-0.32 12.2,-0.449"
             inkscape:connector-curvature="0"
             id="path110"
             style="fill:#1c58aa;fill-opacity:1;fill-rule:nonzero;stroke:none" /><path
             d="m 1136.76,441.012 c -3.29,0.269 -6.6,0.539 -9.86,0.859 3.26,-0.32 6.57,-0.59 9.86,-0.859"
             inkscape:connector-curvature="0"
             id="path112"
             style="fill:#1c58aa;fill-opacity:1;fill-rule:nonzero;stroke:none" /><path
             d="m 1329.08,306.629 c -1.87,0.711 -3.67,1.473 -5.49,2.211 1.82,-0.738 3.62,-1.5 5.49,-2.211"
             inkscape:connector-curvature="0"
             id="path114"
             style="fill:#1c58aa;fill-opacity:1;fill-rule:nonzero;stroke:none" /><path
             d="m 465.699,916.238 c -0.008,0 -0.011,0 -0.015,0 0.004,0 0.007,0 0.015,0"
             inkscape:connector-curvature="0"
             id="path116"
             style="fill:#1c58aa;fill-opacity:1;fill-rule:nonzero;stroke:none" /><path
             d="m 120.906,1189.36 c -1.019,1.4 -1.992,2.76 -2.976,4.14 0.992,-1.38 1.957,-2.74 2.976,-4.14"
             inkscape:connector-curvature="0"
             id="path118"
             style="fill:#1c58aa;fill-opacity:1;fill-rule:nonzero;stroke:none" /><path
             d="m 113.414,1199.82 c -1.09,1.53 -2.113,3.01 -3.164,4.5 1.051,-1.49 2.074,-2.96 3.164,-4.5"
             inkscape:connector-curvature="0"
             id="path120"
             style="fill:#1c58aa;fill-opacity:1;fill-rule:nonzero;stroke:none" /><path
             d="m 106.477,1209.73 c -1.243,1.8 -2.411,3.52 -3.59,5.25 1.179,-1.74 2.343,-3.45 3.59,-5.25"
             inkscape:connector-curvature="0"
             id="path122"
             style="fill:#1c58aa;fill-opacity:1;fill-rule:nonzero;stroke:none" /><path
             d="m 128.867,1178.52 c -0.929,1.24 -1.82,2.46 -2.73,3.69 0.91,-1.23 1.801,-2.44 2.73,-3.69"
             inkscape:connector-curvature="0"
             id="path124"
             style="fill:#1c58aa;fill-opacity:1;fill-rule:nonzero;stroke:none" /><path
             d="m 146.27,1155.73 c -0.739,0.94 -1.465,1.87 -2.192,2.81 0.731,-0.94 1.449,-1.87 2.192,-2.81"
             inkscape:connector-curvature="0"
             id="path126"
             style="fill:#1c58aa;fill-opacity:1;fill-rule:nonzero;stroke:none" /><path
             d="m 137.34,1167.27 c -0.84,1.1 -1.652,2.18 -2.477,3.27 0.825,-1.09 1.637,-2.17 2.477,-3.27"
             inkscape:connector-curvature="0"
             id="path128"
             style="fill:#1c58aa;fill-opacity:1;fill-rule:nonzero;stroke:none" /><path
             d="m 927.938,499.102 c -0.598,0.339 -1.176,0.687 -1.77,1.046 0.594,-0.359 1.172,-0.707 1.77,-1.046"
             inkscape:connector-curvature="0"
             id="path130"
             style="fill:#1c58aa;fill-opacity:1;fill-rule:nonzero;stroke:none" /><path
             d="m 155.629,1143.96 c -0.613,0.76 -1.219,1.51 -1.824,2.27 0.605,-0.76 1.211,-1.51 1.824,-2.27"
             inkscape:connector-curvature="0"
             id="path132"
             style="fill:#1c58aa;fill-opacity:1;fill-rule:nonzero;stroke:none" /><path
             d="m 100.074,1219.1 c -1.4256,2.11 -2.7654,4.11 -4.0974,6.11 1.332,-2 2.6679,-4 4.0974,-6.11"
             inkscape:connector-curvature="0"
             id="path134"
             style="fill:#1c58aa;fill-opacity:1;fill-rule:nonzero;stroke:none" /><path
             d="m 94.1914,1227.89 c -1.8711,2.83 -3.6484,5.55 -5.3203,8.13 1.6719,-2.58 3.4492,-5.3 5.3203,-8.13"
             inkscape:connector-curvature="0"
             id="path136"
             style="fill:#1c58aa;fill-opacity:1;fill-rule:nonzero;stroke:none" /><path
             d="m 563.453,794.898 c -0.023,0.051 -0.055,0.09 -0.086,0.141 0.031,-0.051 0.063,-0.09 0.086,-0.141"
             inkscape:connector-curvature="0"
             id="path138"
             style="fill:#1c58aa;fill-opacity:1;fill-rule:nonzero;stroke:none" /><path
             d="m 630.957,717.961 c -0.055,0.051 -0.102,0.09 -0.156,0.141 0.054,-0.051 0.101,-0.09 0.156,-0.141"
             inkscape:connector-curvature="0"
             id="path140"
             style="fill:#1c58aa;fill-opacity:1;fill-rule:nonzero;stroke:none" /><path
             d="m 759.133,650 c -2.871,0.738 -5.715,1.57 -8.559,2.41 2.864,-0.871 5.664,-1.691 8.559,-2.41"
             inkscape:connector-curvature="0"
             id="path142"
             style="fill:#1c58aa;fill-opacity:1;fill-rule:nonzero;stroke:none" /><path
             d="m 916.977,505.648 c -0.274,0.184 -0.536,0.364 -0.817,0.532 0.281,-0.168 0.543,-0.348 0.817,-0.532"
             inkscape:connector-curvature="0"
             id="path144"
             style="fill:#1c58aa;fill-opacity:1;fill-rule:nonzero;stroke:none" /><path
             d="m 838.438,608.738 c 0,-0.019 0.003,-0.027 0.007,-0.047 -0.004,0.02 -0.004,0.028 -0.007,0.047 v 0"
             inkscape:connector-curvature="0"
             id="path146"
             style="fill:#1c58aa;fill-opacity:1;fill-rule:nonzero;stroke:none" /><path
             d="m 165.465,1131.94 c -0.504,0.61 -1,1.21 -1.5,1.81 0.5,-0.6 0.996,-1.2 1.5,-1.81"
             inkscape:connector-curvature="0"
             id="path148"
             style="fill:#1c58aa;fill-opacity:1;fill-rule:nonzero;stroke:none" /><path
             d="m 726.172,660.75 c -0.086,0.031 -0.176,0.07 -0.266,0.102 0.09,-0.032 0.18,-0.071 0.266,-0.102"
             inkscape:connector-curvature="0"
             id="path150"
             style="fill:#1c58aa;fill-opacity:1;fill-rule:nonzero;stroke:none" /><path
             d="m 175.68,1119.84 c -0.36,0.41 -0.719,0.84 -1.075,1.25 0.356,-0.41 0.711,-0.84 1.075,-1.25"
             inkscape:connector-curvature="0"
             id="path152"
             style="fill:#1c58aa;fill-opacity:1;fill-rule:nonzero;stroke:none" /><path
             d="m 483.59,912.281 h 0.027 c -0.058,0.008 -0.121,0.008 -0.183,0.028 0.05,-0.02 0.101,-0.02 0.156,-0.028"
             inkscape:connector-curvature="0"
             id="path154"
             style="fill:#1c58aa;fill-opacity:1;fill-rule:nonzero;stroke:none" /><path
             d="m 186.27,1107.67 c -0.192,0.22 -0.379,0.44 -0.571,0.65 0.192,-0.21 0.379,-0.43 0.571,-0.65"
             inkscape:connector-curvature="0"
             id="path156"
             style="fill:#1c58aa;fill-opacity:1;fill-rule:nonzero;stroke:none" /><path
             d="m 532.727,873.531 c 0,0 0,-0.011 0.003,-0.011 l -0.003,0.011 v 0"
             inkscape:connector-curvature="0"
             id="path158"
             style="fill:#1c58aa;fill-opacity:1;fill-rule:nonzero;stroke:none" /><path
             d="m 1092.93,1174.93 -67.36,5.53 -936.6989,55.56 c 1.6719,-2.58 3.4492,-5.3 5.3203,-8.13 0.5703,-0.86 1.1992,-1.79 1.7852,-2.68 1.332,-2 2.6718,-4 4.0974,-6.11 0.899,-1.33 1.875,-2.75 2.813,-4.12 1.179,-1.73 2.347,-3.45 3.59,-5.25 1.214,-1.76 2.503,-3.59 3.773,-5.41 1.051,-1.49 2.074,-2.97 3.164,-4.5 1.453,-2.06 2.988,-4.2 4.516,-6.32 0.984,-1.38 1.957,-2.74 2.976,-4.14 1.696,-2.34 3.457,-4.74 5.231,-7.15 0.91,-1.23 1.801,-2.45 2.73,-3.69 1.949,-2.63 3.961,-5.3 5.996,-7.98 0.825,-1.09 1.637,-2.17 2.477,-3.27 2.191,-2.88 4.445,-5.79 6.738,-8.73 0.727,-0.94 1.453,-1.87 2.192,-2.81 2.457,-3.14 4.968,-6.3 7.535,-9.5 0.605,-0.76 1.211,-1.51 1.824,-2.27 2.726,-3.38 5.5,-6.78 8.336,-10.21 0.5,-0.6 0.996,-1.2 1.5,-1.81 2.988,-3.59 6.027,-7.21 9.14,-10.85 0.356,-0.41 0.715,-0.84 1.075,-1.25 3.273,-3.82 6.609,-7.67 10.019,-11.52 0.192,-0.21 0.379,-0.43 0.571,-0.65 69.96,-79.04 167.027,-163.35 279.414,-191.432 0.004,0 0.007,0 0.015,0 5.867,-1.468 11.781,-2.777 17.735,-3.929 0.062,-0.02 0.125,-0.02 0.183,-0.028 l 680.613,-18.75 0.6,-20 H 532.727 l 0.003,-0.011 c 3.086,-24.43 13.809,-51.59 30.637,-78.481 0.031,-0.051 0.063,-0.09 0.086,-0.141 16.844,-26.867 39.793,-53.468 67.348,-76.796 0.054,-0.051 0.101,-0.09 0.156,-0.141 27.559,-23.313 59.711,-43.34 94.949,-57.109 0.09,-0.032 0.18,-0.071 0.266,-0.102 7.027,-2.73 14.164,-5.219 21.422,-7.441 1.019,-0.309 1.992,-0.598 2.98,-0.899 2.844,-0.84 5.688,-1.672 8.559,-2.41 3.726,-0.941 7.66,-1.73 12.277,-2.289 9.445,-1.172 21.09,-0.981 21.09,-0.981 l 471.25,-2.761 1.21,-17.52 -426.522,-17.711 c 0.003,-0.019 0.003,-0.027 0.007,-0.047 4.993,-38.992 33.133,-74.293 77.715,-102.511 0.281,-0.168 0.543,-0.348 0.817,-0.532 2.984,-1.867 6.066,-3.699 9.191,-5.5 0.594,-0.359 1.172,-0.707 1.77,-1.046 2.925,-1.661 5.933,-3.293 8.976,-4.891 0.867,-0.461 1.723,-0.93 2.602,-1.391 2.879,-1.48 5.828,-2.941 8.804,-4.371 1.121,-0.551 2.239,-1.097 3.375,-1.629 2.848,-1.34 5.75,-2.64 8.688,-3.929 1.34,-0.602 2.683,-1.192 4.047,-1.77 2.832,-1.211 5.711,-2.391 8.621,-3.551 1.543,-0.621 3.082,-1.23 4.644,-1.84 2.828,-1.089 5.7,-2.171 8.594,-3.21 1.734,-0.641 3.473,-1.258 5.234,-1.879 2.809,-0.969 5.645,-1.93 8.507,-2.879 1.93,-0.633 3.88,-1.25 5.83,-1.864 2.8,-0.886 5.61,-1.75 8.46,-2.589 2.1,-0.61 4.22,-1.219 6.35,-1.829 2.79,-0.781 5.6,-1.558 8.44,-2.3 2.26,-0.598 4.54,-1.18 6.83,-1.75 2.8,-0.7 5.6,-1.391 8.44,-2.059 2.41,-0.562 4.84,-1.101 7.29,-1.641 2.79,-0.609 5.58,-1.218 8.4,-1.808 2.57,-0.512 5.16,-1.012 7.75,-1.512 2.79,-0.539 5.57,-1.07 8.39,-1.57 2.72,-0.481 5.48,-0.93 8.24,-1.379 2.74,-0.461 5.48,-0.91 8.26,-1.332 2.9,-0.438 5.84,-0.828 8.78,-1.238 2.71,-0.371 5.41,-0.75 8.14,-1.09 3.07,-0.379 6.18,-0.711 9.28,-1.063 2.66,-0.289 5.3,-0.597 7.99,-0.867 3.26,-0.32 6.57,-0.59 9.86,-0.859 2.59,-0.223 5.16,-0.461 7.77,-0.66 3.51,-0.262 7.07,-0.461 10.61,-0.661 2.44,-0.152 4.86,-0.32 7.32,-0.441 4.03,-0.199 8.12,-0.32 12.2,-0.449 2.01,-0.071 4,-0.18 6.02,-0.219 6.13,-0.152 12.29,-0.23 18.51,-0.23 l 15.64,-0.543 122.24,-4.168 0.3,-15.93 -110.67,-18.41 c 15.09,-36.692 41.64,-64.172 81.74,-83.731 1.09,-0.531 2.13,-1.101 3.24,-1.609 3.82,-1.789 7.85,-3.473 11.91,-5.121 1.82,-0.738 3.62,-1.5 5.49,-2.211 3.78,-1.43 7.71,-2.789 11.69,-4.117 2.42,-0.813 4.85,-1.602 7.34,-2.371 3.79,-1.172 7.68,-2.282 11.64,-3.352 2.97,-0.801 6.01,-1.578 9.08,-2.328 3.8,-0.922 7.65,-1.832 11.61,-2.691 3.56,-0.758 7.24,-1.481 10.93,-2.18 3.78,-0.719 7.55,-1.461 11.47,-2.11 4.27,-0.718 8.71,-1.359 13.15,-2 3.63,-0.531 7.21,-1.082 10.95,-1.55 5.37,-0.692 10.97,-1.258 16.56,-1.84 3.12,-0.32 6.12,-0.692 9.31,-0.988 8.94,-0.813 18.14,-1.52 27.65,-2.09 v 11.226 c -11.46,254.133 -55.74,782.032 -55.74,782.032 0,0 -207.01,74.34 -331.79,102.66"
             inkscape:connector-curvature="0"
             id="path160"
             style="fill:#1c58aa;fill-opacity:1;fill-rule:nonzero;stroke:none" /></g></g></g></g></svg>
