<?xml version="1.0" encoding="UTF-8" standalone="no"?>
<!-- Generator: Adobe Illustrator 24.3.0, SVG Export Plug-In . SVG Version: 6.00 Build 0)  -->

<svg
   version="1.0"
   id="katman_1"
   x="0px"
   y="0px"
   viewBox="0 0 200 199.99999"
   xml:space="preserve"
   sodipodi:docname="logo_STR.svg"
   width="200"
   height="200"
   inkscape:version="1.1 (c68e22c387, 2021-05-23)"
   xmlns:inkscape="http://www.inkscape.org/namespaces/inkscape"
   xmlns:sodipodi="http://sodipodi.sourceforge.net/DTD/sodipodi-0.dtd"
   xmlns="http://www.w3.org/2000/svg"
   xmlns:svg="http://www.w3.org/2000/svg"><defs
   id="defs2867" /><sodipodi:namedview
   id="namedview2865"
   pagecolor="#ffffff"
   bordercolor="#666666"
   borderopacity="1.0"
   inkscape:pageshadow="2"
   inkscape:pageopacity="0.0"
   inkscape:pagecheckerboard="0"
   showgrid="false"
   width="200px"
   inkscape:zoom="1.3457815"
   inkscape:cx="420.945"
   inkscape:cy="275.30472"
   inkscape:window-width="1920"
   inkscape:window-height="1017"
   inkscape:window-x="-8"
   inkscape:window-y="-8"
   inkscape:window-maximized="1"
   inkscape:current-layer="katman_1" />
<style
   type="text/css"
   id="style2843">
	.st0{fill-rule:evenodd;clip-rule:evenodd;fill:#1D1E41;}
	.st1{fill:#B6C8E9;}
	.st2{fill-rule:evenodd;clip-rule:evenodd;fill:#FFFFFF;}
	.st3{fill-rule:evenodd;clip-rule:evenodd;fill:#6C87C3;}
	.st4{fill-rule:evenodd;clip-rule:evenodd;fill:#D01322;}
</style>




<g
   id="g2961"
   transform="matrix(0.42179795,0,0,0.42179795,-77.682386,-26.952604)"><g
     id="Mitternachtsblau">
	<path
   class="st0"
   d="m 608.1,247.94 v 0 c 0.01,-0.29 -0.02,-0.58 -0.09,-0.85 v 0 C 604.23,202.96 586.15,164.69 553.76,132.28 518.8,97.31 476.68,79.04 427.42,77.47 391.12,67.08 353.86,71.45 315.63,90.6 l -0.28,0.1 -0.29,0.09 c -22.87,4.16 -40.38,13.96 -52.54,29.4 -0.52,7.2 0.25,14.43 2.27,21.36 l 0.29,1.04 -0.57,0.85 c -17.96,25.98 -29.64,56.84 -35.04,92.6 l 6.8,-3.4 -0.66,4.25 c -0.57,3.88 -1.04,7.28 -1.23,10.21 v 0 c 0.02,0.26 -0.02,0.51 -0.09,0.76 v 0 c -0.48,5.6 -0.7,11.24 -0.7,17.01 -0.1,16.51 1.94,32.96 6.05,48.95 l 0.7,2.8 h -17.5 v 41.06 h 9.73 V 499.7 l -9.73,3.5 v 24 c 57.45,-21.83 123.44,-32.72 197.97,-32.69 74.53,0.03 140.9,10.96 199.1,32.79 l -0.08,-24 -10.02,-3.59 0.19,-141.93 h 9.8 l -0.1,-41.11 h -17.8 l 0.67,-2.8 c 4.11,-15.99 6.14,-32.44 6.05,-48.95 0.18,-5.64 0.02,-11.29 -0.48,-16.91"
   id="path2845" />
</g><g
     id="Himmelblau">
	<g
   id="g2852">
		<path
   class="st1"
   d="m 525.32,207.78 v 0 c 2.05,10.77 2.65,21.76 1.8,32.69 l -0.1,0.7 0.38,-0.57 c 1.7,-2.18 3.59,-4.73 5.48,-7.37 l 7.46,9.73 -0.38,-36.66 v -0.1 l -0.09,-0.09 c -0.1,-0.1 -0.38,-0.29 -1.23,-1.04 v -12.79 h -0.38 c 0.29,-0.76 0.76,-1.8 1.32,-3.02 0.38,-1.61 1.4,-4.9 2.8,-9.74 0.57,2.93 1.4,6.15 2.46,9.74 0.17,0.62 0.41,1.22 0.7,1.79 l 0.38,1.04 v -6.43 h -0.29 c 0.19,-0.57 0.48,-1.32 0.76,-2.18 1.23,-6.3 2.37,-12.19 3.4,-17.76 1.23,6.43 2.37,12.19 3.4,17.76 v 0 c 0.2,0.74 0.45,1.47 0.76,2.18 h -0.28 v 6.24 l 0.38,-0.85 c 0.28,-0.57 0.47,-1.23 0.76,-1.89 0.85,-3.5 1.7,-6.8 2.46,-9.73 1.4,4.9 2.36,8.22 2.8,9.8 0.47,1.23 0.95,2.27 1.32,3.02 h -0.48 v 12.8 l -1.4,1.04 0.09,34.77 10.3,-14.27 v -0.1 l 0.19,-4.35 1.23,-4.16 1.4,4.16 0.1,4.16 8.63,12.34 4.73,-6.9 4.54,-0.09 v -0.29 c -6.14,-33.45 -22.11,-63.21 -47.53,-88.73 -16.8,-16.8 -35.63,-29.58 -55.84,-37.99 l -1.04,-0.38 0.79,0.78 c 8.6,8.23 16.26,18.62 22.77,30.8 16.02,17.98 21.22,42.08 15.45,71.94 z"
   id="path2848" />
		<path
   class="st1"
   d="m 574.94,259.84 c 5.67,-0.57 12.29,-0.85 19.47,-0.85 h 0.19 v -0.19 c -0.1,-0.7 -0.1,-1.8 -0.19,-3.31 v -0.19 h -0.21 c -7.61,-0.51 -15.25,-0.6 -22.87,-0.28 -12.1,0.47 -21.45,1.32 -27.78,2.65 -8.22,2.27 -12.47,4.73 -12.85,7.75 -0.29,2.46 1.98,5.1 7,7.94 l 0.57,0.28 v 0 c 2.61,1.32 5.14,2.81 7.56,4.45 1.61,1.13 2.37,2.27 2.18,3.3 -0.48,2.56 -5.96,5.01 -16.16,7.27 -0.29,0.1 -0.57,0.1 -0.95,0.19 -6.43,1.29 -12.93,2.18 -19.47,2.65 h -0.1 l -0.09,0.1 c -4.94,8.73 -10.63,17.02 -17,24.76 l -0.28,0.38 h 61.6 c 20.13,-9.1 31.56,-17.77 34.02,-25.71 2.1,-6.8 -1.4,-12.75 -10.3,-17.77 -2.11,-1.17 -4.29,-2.21 -6.52,-3.12 -8.69,-3.31 -10.39,-5.39 -10.2,-6.52 0.18,-1.13 2.36,-2.73 12.38,-3.78 z"
   id="path2850" />
	</g>
</g><g
     id="Eiszeit">
	<path
   class="st2"
   d="m 469.66,112.64 c -0.09,-0.09 -0.28,-0.09 -0.38,-0.19 -6.62,-2.74 -12.47,-4.25 -17.76,-4.54 v 0 c 5.67,2.93 9.8,6.24 12.38,10.02 2.16,2.96 4.04,6.13 5.6,9.45 3.48,-1.59 7.13,-2.8 10.87,-3.59 3.5,-0.56 7.05,-0.69 10.58,-0.38 -4.45,-5.48 -8.32,-9.1 -11.72,-10.77 0.64,3.01 0.89,6.09 0.76,9.17 -1.61,-3.5 -5.1,-6.62 -10.3,-9.17 m -108.51,0.57 c 0.21,-0.09 0.4,-0.22 0.57,-0.38 2.27,-1.51 4.35,-2.8 6.05,-3.97 0.09,-2.27 -1.8,-3.4 -5.77,-3.59 0.76,-2.1 3.69,-3.3 8.6,-3.59 6.8,-0.38 14.55,2.37 23.15,8.13 8.6,5.76 14.2,7.63 16.72,5.83 2.37,-1.7 1.8,-6.14 -1.89,-13.3 l -0.19,-0.29 c -0.47,-0.38 -0.95,-0.66 -1.6,-1.13 -3.83,-2.7 -8.12,-4.69 -12.66,-5.85 0.38,0.38 0.76,0.66 1.13,1.04 3.22,3.1 5.21,7.26 5.6,11.72 0,0.57 0.1,1.13 0.1,1.79 l -7.97,-7.67 c -1.87,-1.74 -3.93,-3.26 -6.15,-4.54 -4.44,-2.55 -9.8,-4.35 -16.25,-5.48 0,0 -0.67,0.29 -1.89,0.76 -1.23,0.47 -2.56,1.04 -3.88,1.61 -1.32,0.57 -2.27,1.04 -3.02,1.4 l -1.04,0.48 h -0.1 c -4.06,2.74 -6.05,5.76 -5.86,9.1 0.18,1.9 0.87,3.73 1.99,5.28 0.92,1.3 2.16,2.34 3.59,3.02 z m 55.66,31.28 c 0.38,-3.3 2.1,-6.3 5.01,-9.16 -4.06,-4.54 -10.11,-6.52 -18.33,-5.95 3.12,1.7 5.3,4.91 6.52,9.63 -14.65,-8.6 -25.9,-8.41 -33.74,0.57 12.19,-1.89 22.11,2.37 29.86,12.76 -15.31,-6.8 -27.41,-4.06 -36.28,8.22 13.13,-6.14 25.99,-4.35 38.55,5.48 -27.21,-0.09 -37.23,9.14 -30.05,27.69 21.83,-12.94 45.45,-16.8 70.7,-11.53 3.78,-8.69 2.93,-14.55 -2.56,-17.76 -7.84,-4.26 -11.9,-4.54 -12.29,-0.76 -4.9,-1.7 -9.54,-5.2 -14,-10.3 -2.63,-2.65 -3.76,-5.68 -3.39,-8.89 m 18.2,51.88 c 0.02,1.82 0.24,3.62 0.66,5.39 3.88,0.19 10.12,1.13 18.71,2.93 0,-0.19 1.13,-1.79 3.5,-4.9 0.09,4.63 1.13,8.23 3.3,10.77 3.06,-3.86 5.51,-8.16 7.27,-12.75 -7.24,-2.84 -14.77,-4.87 -22.45,-6.06 -7.55,-1.04 -15.17,-1.45 -22.78,-1.23 -0.28,5.96 0.85,10.87 3.4,14.74 3.97,-0.95 6.71,-3.97 8.4,-8.88 m -17.49,-6.05 c -7.28,0.83 -14.47,2.31 -21.48,4.41 -0.48,9.92 1.32,21.83 5.38,35.63 3.88,-5.39 9.17,-18.8 16.16,-40.07 m 98.09,-20.7 c 0.1,-1.98 -0.29,-3.96 -1.13,-5.76 -5.67,-4.26 -11.62,-6.9 -17.76,-7.85 3.09,-1.12 6.29,-1.91 9.54,-2.36 -1.73,-1.52 -3.63,-2.82 -5.67,-3.88 -3.87,-1.98 -8.59,-2.45 -14.18,-1.4 1.04,8.79 -2.84,16.44 -11.72,22.77 -4.35,-1.89 -7.75,-1.04 -10.02,2.74 -1.79,3.02 -2.8,7 -2.93,11.81 12.35,5.89 25.31,10.39 38.65,13.42 1.93,-0.98 3.71,-2.22 5.29,-3.69 -0.29,-5.6 -3.69,-10.11 -10.3,-13.7 6.05,-0.46 12.06,1.21 17,4.73 1.23,-2.14 2.1,-4.48 2.56,-6.9 -3.4,-5.01 -9.45,-8.6 -18.24,-10.5 7.76,-2.36 14.09,-2.1 18.91,0.57 m -25.03,37.33 c -6.71,-3.78 -12.38,-6.24 -17.01,-7.27 -3.02,13.41 -5.38,26.74 -7.08,40.16 8.22,-8.6 16.25,-19.57 24.1,-32.9 m -34.03,135.8 c -0.48,0.38 -1.09,0.55 -1.7,0.47 h -8.64 v -5.83 h 8.6 c 0.6,-0.03 1.2,0.14 1.7,0.48 0.43,0.42 0.64,1.01 0.57,1.6 v 1.61 c 0.08,0.62 -0.13,1.25 -0.57,1.7 m -10.3,-8.13 v -5.66 h 7.94 c 0.6,-0.03 1.2,0.13 1.7,0.47 0.34,0.5 0.51,1.1 0.48,1.7 v 1.32 c 0.03,0.58 -0.14,1.14 -0.48,1.61 v 0 c -0.42,0.43 -1.01,0.64 -1.6,0.57 z m 13.14,2.55 c -0.26,-0.36 -0.58,-0.68 -0.94,-0.95 -0.34,-0.26 -0.72,-0.45 -1.13,-0.57 0.73,-0.32 1.33,-0.89 1.69,-1.6 0.43,-0.88 0.62,-1.86 0.57,-2.84 v -0.38 c 0,-3.31 -1.69,-4.9 -5.19,-4.9 H 443.3 v 20.22 h 11.72 c 3.5,0 5.19,-1.61 5.19,-4.9 v -1.11 c -0.01,-0.6 -0.07,-1.2 -0.19,-1.79 -0.19,-0.38 -0.38,-0.85 -0.57,-1.23 m 12.29,-11.14 h -3.21 v 20.22 h 3.16 v -20.22 z m 12.29,0 h -3.12 v 20.22 h 3.12 v -15.49 l 12.76,15.5 h 3.12 v -20.22 h -3.02 v 15.5 z m 26.08,0.88 c -0.3,0.25 -0.53,0.58 -0.67,0.95 -0.15,0.36 -0.22,0.75 -0.19,1.13 v 14.36 c 0.01,0.38 0.07,0.77 0.19,1.13 0.17,0.35 0.39,0.67 0.67,0.95 0.26,0.27 0.58,0.47 0.95,0.57 v 0 c 0.38,0.19 0.8,0.29 1.23,0.28 h 11.63 c 0.43,0.01 0.85,-0.09 1.23,-0.28 0.36,-0.1 0.69,-0.29 0.95,-0.57 0.27,-0.27 0.5,-0.59 0.67,-0.95 v 0 c 0.15,-0.36 0.22,-0.75 0.19,-1.13 v -7.76 h -8.88 v 3.02 h 5.76 v 4.82 h -11.52 v -14.27 h 11.53 v 2.65 h 3.12 v -2.65 c -0.02,-0.38 -0.08,-0.76 -0.19,-1.13 -0.33,-0.71 -0.9,-1.28 -1.61,-1.61 -0.38,-0.18 -0.8,-0.28 -1.23,-0.28 h -11.63 c -0.43,-0.01 -0.85,0.09 -1.23,0.28 -0.36,0.04 -0.7,0.21 -0.95,0.48 z M 422.79,277.9 c -2.1,2.74 -3.87,4.35 -5.29,4.9 0.67,-7.17 0.32,-14.39 -1.04,-21.46 -0.57,-2.85 -1.32,-5.65 -2.27,-8.4 -1.84,3.23 -3.48,6.58 -4.9,10.02 -1.5,3.55 -2.58,7.26 -3.21,11.05 1.86,1.05 3.63,2.26 5.29,3.59 -6.8,-0.47 -12.66,-3.97 -17.77,-10.58 -1.17,-1.51 -2.24,-3.08 -3.21,-4.73 -0.19,1.89 -0.19,3.79 0,5.67 1.23,11.72 9.73,18.99 25.52,21.83 18.24,3.21 29.86,5.2 34.87,6.15 8.5,-5.1 12.85,-15.4 13.13,-31 l -20.13,22.87 -0.57,-5.48 c -8.4,-0.19 -15.22,-1.6 -20.41,-4.44 m -44.92,56.8 c -0.53,0.35 -1.16,0.52 -1.79,0.48 h -8.4 v -6.2 h 8.4 c 0.63,-0.04 1.26,0.12 1.79,0.47 0.41,0.47 0.61,1.08 0.57,1.7 v 1.99 c -0.02,0.58 -0.22,1.14 -0.57,1.6 z m 3.59,-1.52 v -2.27 c 0,-3.3 -1.7,-4.9 -5.19,-4.9 h -11.7 v 20.22 h 3.12 v -8.04 h 6.62 l 3.97,8.03 h 3.5 l -4.06,-8.16 c 2.56,-0.47 3.78,-2.1 3.78,-4.9 m 20.4,5.4 h -7.09 l 3.59,-8.69 z m -5.1,-12.6 v 0 l -8.32,20.22 h 3.12 l 1.89,-4.63 h 9.64 l 1.89,4.63 h 3.12 l -8.23,-20.22 h -3.14 z m -7.47,-23.59 c -3.02,4.63 -5.1,7.37 -6.23,8.32 24.94,3.4 45.73,1.4 62.18,-6.05 -44.51,-3.5 -68.92,-13.58 -73.24,-30.24 -8.88,8.79 -14,21.36 -15.31,37.8 7.18,-6.52 17.96,-9.8 32.6,-9.8 m 29.4,23.61 h -3.13 v 17.3 c 0.01,0.38 0.07,0.77 0.19,1.13 0.17,0.35 0.39,0.67 0.67,0.95 0.26,0.27 0.58,0.47 0.95,0.57 v 0 c 0.38,0.19 0.8,0.29 1.23,0.28 h 12.19 c 0.43,0.01 0.85,-0.09 1.23,-0.28 v 0 c 0.36,-0.1 0.69,-0.29 0.95,-0.57 0.27,-0.28 0.49,-0.6 0.66,-0.95 0.18,-0.35 0.28,-0.74 0.29,-1.13 v -17.31 h -3.12 v 17.2 h -12.09 v -17.2 z m 8.79,56.61 -9.54,-7.84 37.89,0.28 v -17.39 h -47.25 v 112.71 c 7.28,-0.19 14.46,-0.29 21.64,-0.1 7.18,0.19 15.69,0.38 25.52,0.76 l 0.1,-18.05 -28.64,-0.76 -0.1,-29.46 h 25.99 v -14.94 l -25.71,-0.38 z m -50.66,-7.1 0.28,9.92 18.99,8.04 0.1,-26.18 c 0,-6.61 -3.78,-9.92 -11.34,-9.92 h -35.44 c -3.1,-0.12 -6.14,0.93 -8.51,2.93 -1.96,1.71 -3.07,4.2 -3.02,6.8 l -0.28,91.2 c 0.09,11.05 5.48,16.1 16.16,15.12 10.68,-0.98 21.93,-1.8 33.74,-2.46 5.29,-0.38 8.03,-4.26 8.32,-11.72 l -0.29,-51.8 -27.88,-0.07 0.1,15.21 h 17.19 l -7.93,6.3 -0.19,24.56 -20.22,1.32 0.28,-73.04 -8.03,-6.9 z m 109.43,6.71 -9.35,-7.18 31.47,0.19 -0.19,36.95 -21.83,-0.85 z m 37.23,-22.02 c -2.37,-1.89 -5.77,-2.93 -10.12,-2.93 H 468.05 V 471.8 c 5.19,0.29 11.15,0.76 17.77,1.4 l 0.19,-44.1 10.86,0.47 12.57,46.31 c 8.32,1.13 15.4,2.26 21.36,3.3 l -14.74,-47.81 c 3.4,-0.29 6.15,-1.32 8.04,-3.02 1.84,-1.9 2.85,-4.45 2.84,-7.09 v -53.79 c 0.12,-2.83 -1.15,-5.55 -3.4,-7.27 m 18.7,0.74 c -2.08,1.88 -3.25,4.57 -3.21,7.37 l -0.09,27.41 c 0.17,3.31 1.43,6.46 3.59,8.97 l 30.71,38.65 0.19,25.04 -16.35,-3.5 0.28,-17.58 -18.71,-9.8 v 31.85 c -0.09,4.07 0.85,7.08 2.74,9.16 1.72,1.99 4.04,3.37 6.6,3.96 10.4,2.1 20.5,4.54 30.52,7.37 9.45,2.74 14,-5.29 13.61,-24.38 l 0.09,-27.41 c 0,-3.87 -1.6,-7.56 -4.63,-10.96 l -29.4,-34.49 -0.1,-10.11 -8.4,-7.09 24.1,-0.09 -0.1,10.96 18.73,8.48 0.1,-26.37 c 0.09,-2.88 -1.01,-5.68 -3.02,-7.74 -1.99,-1.99 -4.82,-3.02 -8.32,-3.02 h -30.62 c -3.08,0.07 -6.03,1.24 -8.32,3.3 M 265.72,211.43 c -3.02,-6.3 -4.9,-14.18 -5.67,-23.44 -12.85,37.51 -12.22,71.22 1.89,101.11 -0.76,-10.82 -0.86,-21.68 -0.28,-32.51 -0.29,-7.35 1.13,-22.47 4.06,-45.16 m 15.87,-53.39 c -9.72,19.71 -14.91,37.45 -15.72,53.42 2.32,14.68 6.68,28.96 12.94,42.43 1.15,-16.28 3.33,-32.47 6.52,-48.48 v 0 c 2.27,12.94 6.9,27.12 13.8,42.62 v 0 c -1.7,16.26 -2.36,28.92 -2.1,37.99 6.52,10.77 14.08,19.27 22.58,25.61 -1.86,-10.89 -2.75,-21.93 -2.64,-32.98 -7.2,-9.46 -13.2,-19.77 -17.86,-30.71 0,-11.63 1.4,-25.52 4.35,-41.86 -3.12,-14.65 -3.97,-26.75 -2.65,-36.4 -6.94,11.02 -12.17,23.03 -15.5,35.63 -5.29,-18.24 -6.52,-33.99 -3.68,-47.25 m 35.44,83.9 c -0.74,12.18 -0.78,24.4 -0.1,36.59 6.1,8.6 13.24,16.41 21.27,23.25 5.29,-20.88 18.08,-38.74 38.36,-53.58 -16.72,4.73 -30.14,11.62 -40.35,20.79 -6.3,-6.24 -12.75,-15.22 -19.18,-27.03 m -17.88,74.28 c -1.51,-11.62 -2.27,-21.74 -2.18,-30.24 -7.06,-10.13 -13.16,-20.88 -18.24,-32.13 -1.8,11.24 -1.99,23.72 -0.57,37.52 5.27,9.6 12.41,18.05 21,24.85 m 19.95,9.73 c -0.43,-0.01 -0.85,0.09 -1.23,0.29 -0.35,0.17 -0.67,0.39 -0.95,0.66 v 0 c -0.3,0.25 -0.53,0.58 -0.66,0.95 -0.15,0.36 -0.22,0.75 -0.19,1.13 v 5.77 c 0.01,0.39 0.07,0.77 0.19,1.13 0.19,0.33 0.41,0.65 0.66,0.95 0.26,0.27 0.58,0.47 0.95,0.57 v 0 c 0.38,0.19 0.8,0.29 1.23,0.28 h 10.3 v 5.67 h -10.61 v -2.74 h -3.12 v 2.55 c -0.01,0.4 0.09,0.79 0.28,1.13 0.16,0.35 0.39,0.67 0.67,0.95 0.29,0.28 0.64,0.48 1.04,0.57 v 0 c 0.35,0.18 0.74,0.28 1.13,0.29 h 10.68 c 0.42,0 0.84,-0.1 1.23,-0.29 0.36,-0.09 0.69,-0.29 0.95,-0.57 0.28,-0.26 0.51,-0.57 0.68,-0.91 0.18,-0.35 0.28,-0.74 0.28,-1.13 v -5.8 c 0,-0.39 -0.1,-0.78 -0.28,-1.13 v 0 c -0.33,-0.71 -0.9,-1.28 -1.61,-1.61 -0.39,-0.15 -0.81,-0.22 -1.23,-0.19 h -10.32 v -5.67 h 10.3 v 2.65 h 3.12 v -2.65 c 0,-0.39 -0.1,-0.78 -0.28,-1.13 v 0 c -0.33,-0.71 -0.9,-1.27 -1.61,-1.6 -0.38,-0.18 -0.8,-0.28 -1.23,-0.29 h -10.4 z m 20.86,2.97 h 7 v 17.29 h 3.12 v -17.29 h 7.09 v -2.93 h -17.21 z m -99.22,46.08 h 16.26 l 0.48,116.61 21.26,-5.77 -0.19,-104.31 -7,-6.62 25.08,0.2 v -17.5 h -11.9 c -0.05,0 -0.09,0.04 -0.09,0.09 v 0 -0.09 H 240.8 v 17.39 z m 82.97,-17.3 -21.45,0.29 -0.28,122.75 21.64,-3.68 V 357.74 Z M 608.1,247.94 v 0 c 0.48,5.6 0.7,11.24 0.7,17 0.1,16.51 -1.94,32.96 -6.05,48.95 l -0.67,2.84 h 17.86 l 0.1,41.11 h -9.8 l -0.25,141.93 10.02,3.59 0.09,24 C 561.89,505.53 495.52,494.6 420.99,494.57 346.46,494.54 280.47,505.44 223.02,527.28 v -24 l 9.73,-3.4 V 357.84 h -9.73 v -40.92 h 17.38 l -0.66,-2.84 c -4.06,-16 -6.09,-32.45 -6.05,-48.95 0,-5.76 0.19,-11.43 0.66,-17 v 0 c -0.02,-0.26 0.02,-0.51 0.1,-0.76 v 0 c 0.28,-2.93 0.66,-6.3 1.23,-10.21 l 0.7,-4.26 -6.8,3.4 c 5.38,-35.72 17.07,-66.59 35.06,-92.61 l 0.57,-0.85 -0.28,-1.04 c -2.01,-6.93 -2.78,-14.16 -2.27,-21.35 12.19,-15.5 29.67,-25.2 52.54,-29.4 l 0.28,-0.1 0.29,-0.09 c 38.27,-19.09 75.53,-23.47 111.79,-13.14 49.23,1.61 91.35,19.88 126.34,54.81 32.31,32.31 50.39,70.58 54.24,114.81 v 0 c -0.09,0 0,0.28 0,0.57 m 19.28,61.52 h -16.2 c 3.26,-14.8 4.88,-29.92 4.82,-45.08 0,-53.95 -19.09,-100 -57.26,-138.15 -36.87,-36.87 -81.13,-55.93 -132.77,-57.17 -36,-10.09 -73.71,-5.3 -113.11,14.39 -25.52,4.63 -44.89,15.88 -57.83,33.83 -0.95,8.97 -0.38,17.01 1.6,24 -20.6,30.34 -33.04,66.43 -37.33,108.3 l 6.8,-3.4 c -0.47,6.05 -0.76,12.1 -0.76,18.33 -0.06,15.07 1.56,30.09 4.82,44.8 v 0.19 h -15.12 v 55.75 h 9.8 l -0.7,129.47 -8.88,3.21 h -0.19 v 40.16 c 61.04,-23.91 129.77,-35.85 206.19,-35.81 76.42,0.04 145.12,11.97 206.1,35.81 v -40.18 l -9.64,-3.5 V 365.21 h 9.64 v -55.75 z"
   id="path2855" />
</g><g
     id="Kornblau">
	<path
   class="st3"
   d="m 469.28,112.43 c 0.1,0.1 0.29,0.1 0.38,0.19 -2.94,-2.87 -6.13,-5.46 -9.54,-7.75 -2.87,-1.87 -5.87,-3.54 -8.97,-5.01 -3.51,-1.65 -7.14,-3 -10.87,-4.06 -3.99,-1.16 -8.06,-1.98 -12.19,-2.46 -4.02,-0.47 -8.05,-0.7 -12.1,-0.7 -4.14,0.02 -8.27,0.27 -12.38,0.76 h -0.48 l -6.05,0.85 h -0.31 c -0.94,0.2 -1.88,0.36 -2.84,0.47 l 1.4,1.13 c -0.36,-0.37 -0.73,-0.72 -1.13,-1.04 4.55,1.2 8.86,3.21 12.71,5.92 0.57,0.38 1.13,0.76 1.61,1.13 0.09,0 0.28,0.19 0.38,0.29 8.88,4.06 15.97,12.47 21.35,25.14 6.34,-0.57 11.44,0.95 15.31,4.44 -10.21,-0.19 -15.4,2.18 -15.69,7 0.57,2.93 3.78,5.01 9.64,6.3 4.91,-2.93 10.4,-2.07 16.44,2.56 5.19,3.87 11.05,4.63 17.5,2.1 2.59,-0.72 5.32,-0.78 7.94,-0.19 -5.03,-7.69 -12.52,-13.06 -22.23,-16.19 0.85,-10.3 -1.7,-18.81 -7.75,-25.61 l 0.1,0.1 c 5.31,0.38 11.16,1.89 17.77,4.63 M 400.21,83.98 c -0.95,0 -1.89,-0.09 -2.8,-0.09 -13.8,-0.29 -24.38,0.19 -31.85,1.6 -7.85,1.42 -15.57,3.5 -23.06,6.24 -7.18,2.65 -14.65,6.9 -22.4,12.75 -22.49,1.87 -37.83,8.2 -46.02,19 -0.04,7.13 2.07,14.11 6.05,20.03 -1.32,-7.93 -1.32,-14 0.09,-18.33 8.13,-6.05 17.96,-9.26 29.3,-9.36 -12.94,12.1 -19.09,28.16 -18.24,48.1 4.54,-18.2 13.51,-32.31 26.93,-42.43 -0.03,1.67 0.03,3.35 0.19,5.01 0.26,2.4 0.83,4.75 1.7,7 2.54,-5.38 5.81,-10.37 9.73,-14.84 3.21,-3.6 6.75,-6.88 10.58,-9.8 8.97,-6.9 15.69,-11.05 20.22,-12.47 v 0 l 1.04,-0.48 c 0.7,-0.38 1.7,-0.85 3.02,-1.4 1.32,-0.55 2.65,-1.13 3.88,-1.61 1.23,-0.48 1.89,-0.76 1.89,-0.76 v 0 c 9.6,-3.77 19.57,-6.51 29.75,-8.16 m 86.27,164.05 c -1.32,1.4 -2.74,2.84 -4.16,4.25 -0.79,19.89 -7.32,39.12 -18.8,55.38 0.27,-0.13 0.52,-0.29 0.76,-0.48 4.54,-2.83 9.17,-7.56 13.89,-14.18 5.39,-7.55 10.77,-17.67 16.26,-30.24 1.23,3.02 1.8,6.8 1.7,11.43 4.45,-8.43 7.85,-17.38 10.11,-26.64 2.69,-11.26 3.58,-22.87 2.65,-34.4 -3.6,11.35 -11.07,22.98 -22.41,34.88 M 265.74,211.46 v 0 c -3.02,22.77 -4.35,37.8 -4.06,45.27 2.65,12.38 8.13,23.91 16.44,34.77 -1.4,-13.79 -1.23,-26.27 0.57,-37.52 -6.19,-13.53 -10.55,-27.83 -12.95,-42.52 m 20.79,2.55 z m -1.32,-8.69 v 0 c -3.2,16.04 -5.38,32.26 -6.52,48.57 5.13,11.22 11.24,21.97 18.24,32.13 v 0 c -0.29,-9.1 0.38,-21.74 2.1,-37.99 v 0 c -6.9,-15.59 -11.53,-29.77 -13.8,-42.7 m 31.74,73.23 v 0 c -0.68,-12.18 -0.64,-24.39 0.1,-36.57 -7,-13.3 -11.53,-25.33 -13.61,-35.91 -2.93,16.35 -4.35,30.24 -4.35,41.86 5.11,11.62 11.06,21.92 17.86,30.62 m 48.31,-145.24 c -10.68,3.3 -19.18,10.11 -25.61,20.3 0.37,-13.06 4.82,-25.67 12.72,-36.07 -14.65,9.55 -24.28,25.52 -28.7,47.82 -4.16,-4.63 -6.52,-10.4 -7.09,-17.11 -7.56,19.85 -6.52,40.26 3.12,61.43 6.52,14.65 18.99,25.32 37.61,32.13 -21.07,-22.11 -28.85,-44.79 -23.34,-68.04 4.16,22.58 17.39,37.52 39.59,44.6 -28.55,-28.74 -31.32,-57.09 -8.3,-85.06"
   id="path2858" />
</g><g
     id="Straubingrot">
	<path
   class="st4"
   d="m 398.22,125.94 1.99,-2.56 c -4.63,-4.54 -10.58,-7.56 -18.05,-9.1 -2.27,3.12 -3.02,6.9 -2.18,11.25 5.86,-2.93 12,-2.8 18.24,0.38 m 87.23,16.92 c 3.68,-0.76 5.86,-3.5 6.3,-8.32 -6.14,-1.23 -11.05,-0.85 -14.55,1.32 3.37,1.48 6.23,3.91 8.23,7 m -33.72,111.72 c -0.95,-7.18 -5.29,-12.66 -13.3,-16.44 3.5,4.73 3.4,10.21 -0.09,16.44 -2.08,-18.14 -13.8,-24.69 -35.16,-19.65 4.23,2.35 6.22,7.25 6.02,14.74 l 5.2,-6.43 c 3.97,2.93 6.71,8.5 8.22,16.72 0.47,2.27 0.76,4.82 1.04,7.46 8.26,2.21 16.77,3.35 25.33,3.4 2.36,-6.03 3.31,-11.51 2.74,-16.24 m 89.01,76.35 v 11.06 h 60.86 v -11.25 z m -239.26,0 -60.86,-0.19 v 11.25 h 60.86 z"
   id="path2861" />
</g></g>
</svg>
