<?xml version="1.0" encoding="UTF-8" standalone="no"?>
<!-- Generator: Adobe Illustrator 24.3.0, SVG Export Plug-In . SVG Version: 6.00 Build 0)  -->

<svg
   version="1.0"
   id="katman_1"
   x="0px"
   y="0px"
   viewBox="0 0 200 200"
   xml:space="preserve"
   sodipodi:docname="logo_WOB.svg"
   width="200"
   height="200"
   inkscape:version="1.1 (c68e22c387, 2021-05-23)"
   xmlns:inkscape="http://www.inkscape.org/namespaces/inkscape"
   xmlns:sodipodi="http://sodipodi.sourceforge.net/DTD/sodipodi-0.dtd"
   xmlns="http://www.w3.org/2000/svg"
   xmlns:svg="http://www.w3.org/2000/svg"><defs
   id="defs3096" /><sodipodi:namedview
   id="namedview3094"
   pagecolor="#ffffff"
   bordercolor="#666666"
   borderopacity="1.0"
   inkscape:pageshadow="2"
   inkscape:pageopacity="0.0"
   inkscape:pagecheckerboard="0"
   showgrid="false"
   inkscape:zoom="1.5357371"
   inkscape:cx="299.20485"
   inkscape:cy="-25.069394"
   inkscape:window-width="1920"
   inkscape:window-height="1017"
   inkscape:window-x="-8"
   inkscape:window-y="-8"
   inkscape:window-maximized="1"
   inkscape:current-layer="katman_1" />
<style
   type="text/css"
   id="style3039">
	.st0{fill:#FFFFFF;}
	.st1{fill:#EC6400;}
	.st2{fill:#F5B47D;}
</style>

























<g
   id="g3295"
   transform="matrix(2.0924684,0,0,2.0924684,-80.215541,-22.387542)"><path
     class="st0"
     d="m 86.12,106.28 c -8.6,0 -13.89,-4.31 -15.97,-8.35 l -0.7,-1.35 C 67.04,94.84 64.83,92.83 62.87,90.59 60.7,88.12 58.83,85.41 57.28,82.51 L 56.88,83.26 55,81.13 c -1.49,-1.91 -2.52,-4.15 -3.01,-6.52 -0.83,-3.52 -1.17,-9.3 1.79,-17.01 -1.66,-2.1 -2.22,-5.12 -2.39,-7.31 l -3.01,1.08 1.51,-3.98 c 0.07,-0.19 1.79,-4.61 6.24,-5.4 0.28,-0.05 0.57,-0.09 0.87,-0.11 v -1.11 c 0,-0.25 -0.01,-0.49 -0.05,-0.74 l -0.05,0.01 -4.85,0.87 c -0.66,0.13 -1.33,0.2 -2,0.2 -1.79,0.04 -3.53,-0.56 -4.92,-1.69 -3.17,-2.6 -3.7,-7.28 -3.8,-11.52 v -2.04 c 0.01,-3.14 0.63,-6.24 1.83,-9.14 1.79,-3.87 4.94,-6 8.85,-6 h 2.8 c 0.88,0 1.32,0 1.54,0 0.06,0 0.11,0 0.17,0.01 0.08,-0.01 0.15,-0.01 0.24,-0.01 h 5.7 c 1.72,-0.04 3.43,0.27 5.02,0.91 0.61,-0.68 1.52,-1.02 2.42,-0.91 h 6.65 c 2.96,0 6.04,0 9.03,0 h 1.01 4.22 14.87 c 0.07,0 0.15,0 0.22,0.01 v -0.01 h 12.97 c 0.69,-0.06 1.38,0.01 2.04,0.2 0.67,-0.14 1.35,-0.2 2.03,-0.2 h 5.34 c 1.42,-0.03 2.6,1.1 2.64,2.52 0,0.05 0,0.1 0,0.15 v 6.15 c 0.05,1.42 -1.06,2.61 -2.48,2.67 -0.05,0 -0.1,0 -0.16,0 h -1.71 c 0.09,0.14 0.2,0.28 0.31,0.44 l 0.05,0.07 c 0.32,0.47 0.62,0.9 0.88,1.28 l 0.06,0.08 c 1.81,2.6 3.12,4.49 3.03,8.48 v 0.29 0.07 c -0.22,3.26 -1.2,5.53 -3.01,6.96 -1.24,0.96 -2.78,1.46 -4.35,1.42 -0.62,0 -1.23,-0.06 -1.84,-0.18 l -5.76,-0.98 c -0.07,-0.01 -0.15,-0.02 -0.22,-0.02 -0.44,0 -0.49,0.44 -0.49,0.63 v 1.11 c 0.3,0.03 0.59,0.06 0.87,0.11 4.44,0.79 6.17,5.21 6.24,5.4 l 1.5,3.98 -3,-1.08 c -0.17,2.19 -0.73,5.2 -2.39,7.31 1.68,4.4 3.26,10.76 1.79,17.01 -0.48,2.38 -1.51,4.61 -3.01,6.52 l -1.89,2.12 -0.39,-0.74 c -1.55,2.9 -3.42,5.61 -5.58,8.08 -1.96,2.24 -4.17,4.24 -6.58,5.99 l -0.7,1.35 c -2.08,4.05 -7.37,8.37 -15.97,8.37"
     id="path3041" /><polygon
     points="128.83,21.33 129,21.33 "
     id="polygon3043" /><path
     d="m 86.12,105.24 c -8.14,0 -13.12,-4.02 -15.06,-7.79 L 70.25,95.88 70.22,95.86 C 67.8,94.14 65.6,92.14 63.64,89.91 61.16,87.08 59.07,83.93 57.44,80.53 l -0.13,-0.27 -0.63,1.2 -0.9,-1.02 C 54.4,78.66 53.45,76.58 53,74.37 52.19,70.92 51.87,65.2 54.94,57.48 l 0.03,-0.09 -0.06,-0.07 c -2.09,-2.25 -2.49,-6.15 -2.55,-8.27 l -0.01,-0.21 -2.21,0.79 0.71,-1.87 c 0.06,-0.17 1.58,-4.05 5.45,-4.74 0.52,-0.09 1.05,-0.14 1.57,-0.14 h 0.15 V 40.2 c 0,-1.18 -0.52,-1.28 -0.68,-1.28 -0.02,0 -0.03,0 -0.05,0 L 56.74,39 51.87,39.87 c -0.6,0.12 -1.21,0.18 -1.83,0.18 -1.55,0.04 -3.07,-0.48 -4.28,-1.46 -2.84,-2.33 -3.32,-6.74 -3.42,-10.74 v -2.01 c 0.01,-2.98 0.59,-5.94 1.73,-8.7 1.62,-3.48 4.43,-5.4 7.92,-5.4 h 3.36 c 0.6,0 0.9,0 1.05,0 v 0.01 l 0.16,-0.01 c 0.06,-0.01 0.11,-0.01 0.17,-0.01 h 5.7 c 1.61,-0.05 3.21,0.25 4.7,0.88 0.19,0.14 0.42,0.23 0.66,0.25 0.28,-0.01 0.49,-0.24 0.49,-0.51 0,-0.01 0,-0.01 0,-0.02 0,-0.58 1.04,-0.59 1.05,-0.59 h 7.21 c 2.96,0 6.04,0 9.03,0 h 1.02 4.22 5.83 c 0,0 8.99,0 9.12,0 v 0 h 0.14 9.88 3.65 c 0.33,-0.01 0.65,0.01 0.97,0.07 l -0.09,0.31 0.26,-0.07 c 0.77,-0.21 1.56,-0.31 2.36,-0.31 h 5.91 c 0.56,-0.01 1.03,0.43 1.05,1 0,0.02 0,0.04 0,0.06 v 7.29 c 0.02,0.56 -0.42,1.04 -0.98,1.06 -0.02,0 -0.04,0 -0.06,0 h -2.71 c -0.93,0 -1.13,0.12 -1.2,0.24 -0.03,0.06 -0.04,0.13 0,0.19 0.11,0.19 0.5,0.79 1.12,1.66 l 0.04,0.06 c 0.32,0.48 0.63,0.92 0.9,1.31 l 0.04,0.05 c 1.76,2.53 2.93,4.21 2.85,7.86 v 0.28 0.03 c -0.2,2.95 -1.05,4.98 -2.61,6.22 -1.06,0.82 -2.37,1.24 -3.71,1.2 -0.56,0 -1.11,-0.06 -1.65,-0.16 l -6.33,-1.07 C 115.5,39 115.41,39 115.32,38.99 c -0.61,0.01 -1.09,0.51 -1.08,1.12 0,0.02 0,0.04 0,0.06 v 2.68 h 0.15 c 0.53,0 1.05,0.05 1.57,0.14 3.88,0.69 5.39,4.58 5.46,4.74 l 0.71,1.87 -2.21,-0.79 v 0.21 c -0.06,2.12 -0.46,6.02 -2.55,8.27 l -0.07,0.07 0.04,0.09 c 1.7,4.26 3.41,10.65 1.94,16.89 -0.44,2.21 -1.39,4.29 -2.78,6.07 l -0.9,1.02 -0.63,-1.2 -0.13,0.27 c -1.63,3.39 -3.72,6.55 -6.2,9.38 -1.96,2.23 -4.16,4.23 -6.58,5.95 l -0.03,0.02 -0.81,1.57 c -1.98,3.79 -6.96,7.82 -15.1,7.82"
     id="path3045" /><path
     class="st0"
     d="m 124.27,24.76 c -1.29,-1.78 -2.1,-3.13 -2.1,-3.94 v -0.07 c 0,-0.8 0.47,-1.66 1.3,-1.64 h 4.2 c 0,-1.88 0,-3.03 0,-4.91 -1.77,0 -3.42,0 -4.75,0 -3.8,0 -5.68,2.73 -5.68,6.48 v 0.2 c 0,2.32 0.69,2.89 3.88,7.56 1.14,1.57 1.65,2.47 1.67,3.67 v 0.07 c 0,0.95 -0.46,1.05 -1.38,0.89 -1.6,-0.31 -4.38,-0.9 -6.78,-1.33 0,1.76 0,3.25 0,5.01 l 7.64,1.27 c 3.9,0.72 5.17,-1.73 5.39,-5.19 v -0.18 c 0.09,-3.4 -0.98,-4.34 -3.39,-7.89"
     id="path3047" /><path
     class="st0"
     d="m 113.56,28.72 c 1.3,-4.84 2.52,-9.71 3.91,-14.52 h -4.8 c -0.51,2.45 -0.98,4.92 -1.46,7.38 -0.47,-2.46 -0.96,-4.92 -1.48,-7.38 -1.67,0 -3.35,0 -5.02,0 1.42,4.66 2.73,9.34 3.99,14.04 0,2.58 0,5.07 0,7.65 1.62,0.2 3.24,0.42 4.85,0.66 0.01,-2.63 0.01,-5.18 0.01,-7.83"
     id="path3049" /><path
     class="st0"
     d="m 103.54,14.2 h -4.9 v 20.77 c 2.96,0.2 5.94,0.46 8.89,0.78 v -4.78 c -1.33,-0.12 -2.66,-0.23 -3.99,-0.33 z"
     id="path3051" /><path
     class="st0"
     d="m 93.13,30.08 c 1.79,-4.83 2.51,-6.82 4.37,-11.85 0,-1.34 0,-2.68 -0.01,-4.02 -3.28,0 -6.59,0 -9.87,0 v 4.62 c 1.47,0 2.97,0 4.45,0 -1.51,3.92 -2.91,7.83 -4.45,11.74 0,1.34 0,2.67 0,4.01 3.35,0.03 6.56,0.15 9.9,0.33 0,-1.55 0,-3.1 -0.01,-4.64 -1.5,-0.08 -2.88,-0.15 -4.38,-0.19"
     id="path3053" /><path
     class="st0"
     d="m 76.54,18.83 h 4.58 c -1.54,3.99 -3.07,7.99 -4.58,11.98 v 4.01 c 3.35,-0.16 6.7,-0.24 10.05,-0.25 0,-1.54 0,-3.08 0,-4.62 -1.51,0 -3.03,0.02 -4.53,0.06 1.5,-3.94 3.01,-7.87 4.53,-11.79 0,-1.34 0,-2.67 0,-4.01 -3.3,0 -6.76,0 -10.05,0 0,1.54 0,3.08 0,4.62"
     id="path3055" /><path
     class="st0"
     d="m 70.49,35.24 c 1.63,-0.13 3.27,-0.25 4.91,-0.34 V 14.2 c -1.63,0 -3.28,0 -4.91,0 z"
     id="path3057" /><path
     class="st0"
     d="m 64.49,22.02 c 0.09,1.23 -0.42,2.89 -1.85,2.98 -0.06,0 -0.08,0 -0.14,0.01 v -6.36 h 0.09 c 1.44,-0.04 2,1.55 1.9,2.78 0,0.24 0,0.36 0,0.59 m 5.02,-0.59 V 21.1 c 0.1,-1.85 -0.53,-3.66 -1.75,-5.05 -1.46,-1.29 -3.37,-1.95 -5.31,-1.84 -1.62,0 -3.23,0 -4.84,0 v 22.54 c 1.61,-0.25 3.28,-0.47 4.89,-0.68 v -6.71 l 0.18,-0.02 c 0.62,2.16 1.26,4.32 1.92,6.48 1.73,-0.19 3.47,-0.37 5.21,-0.53 -0.92,-2.67 -1.81,-5.35 -2.69,-8.03 1.74,-1.58 2.25,-3.51 2.39,-5.83"
     id="path3059" /><path
     class="st0"
     d="m 44.56,26.08 v 1.89 c 0.11,4.59 0.71,11.02 6.91,9.83 L 56.4,36.93 V 23.56 c -1.91,0.11 -3.88,0.23 -5.78,0.37 v 5.3 c 0.55,-0.07 0.85,-0.1 1.4,-0.17 0,1.46 0,2.75 0,4.21 -0.1,0.08 -0.22,0.13 -0.35,0.16 -2.35,0.3 -2.16,-4.48 -2.19,-5.91 0,-0.8 0,-1.21 0,-2.01 0.06,-2.04 0.09,-6.12 3.01,-6.29 1.11,-0.06 1.35,-0.08 3.9,-0.1 V 14.2 h -4.4 c -5.97,0 -7.3,6.98 -7.43,11.88"
     id="path3061" /><path
     class="st1"
     d="m 77.03,30.91 c 1.42,-3.75 2.91,-7.64 4.55,-11.9 l 0.26,-0.68 H 77.03 V 14.7 c 2.92,0 5.96,0 8.89,0 h 0.17 v 3.42 l -0.04,0.11 c -1.47,3.8 -2.99,7.73 -4.46,11.6 l -0.26,0.69 0.73,-0.02 c 1.53,-0.03 2.82,-0.05 4.03,-0.06 v 3.63 c -3,0.01 -6.04,0.09 -9.07,0.23 v -3.39 z m 20,3.47 c -3.04,-0.16 -5.96,-0.26 -8.91,-0.3 v -3.42 c 0.83,-2.13 1.64,-4.28 2.42,-6.37 l 0.01,-0.04 c 0.64,-1.71 1.3,-3.48 1.98,-5.24 l 0.26,-0.68 h -0.72 c -0.82,0 -1.66,0 -2.49,0 -0.49,0 -0.98,0 -1.47,0 V 14.7 h 8.88 l 0.01,3.44 -1.43,3.89 c -0.93,2.54 -1.67,4.54 -2.9,7.87 l -0.24,0.65 0.69,0.02 c 1.22,0.04 2.43,0.09 3.91,0.17 z M 70.99,14.7 h 3.92 v 19.72 c -1.31,0.08 -2.63,0.17 -3.92,0.28 z m 36.04,20.5 c -2.58,-0.27 -5.24,-0.51 -7.9,-0.69 V 14.7 h 3.91 v 16.4 l 0.45,0.03 c 1.22,0.09 2.41,0.19 3.54,0.29 z m 6.04,0.79 c -1.29,-0.19 -2.59,-0.37 -3.87,-0.53 v -7.28 l -0.02,-0.06 c -1.4,-5.18 -2.61,-9.45 -3.8,-13.42 0.68,0 2.96,0 3.96,0 0.5,2.38 0.97,4.75 1.39,6.97 l 0.49,2.33 0.15,-0.64 c 0.36,-1.86 1.18,-6.16 1.7,-8.66 h 3.75 c -0.86,3 -1.66,6.05 -2.43,9 l -0.01,0.02 c -0.42,1.59 -0.85,3.24 -1.29,4.87 l -0.02,0.06 v 7.34 M 62,18.15 v 7.39 l 0.66,-0.04 c 0.59,-0.03 1.15,-0.31 1.53,-0.77 0.59,-0.78 0.87,-1.75 0.79,-2.73 V 21.44 C 65.07,20.5 64.79,19.57 64.2,18.83 63.8,18.39 63.23,18.14 62.64,18.14 62.61,18.15 62,18.15 62,18.15 M 58.09,14.7 h 4.35 c 1.54,0.01 3.65,0.32 4.96,1.69 1.13,1.29 1.71,2.97 1.62,4.69 v 0.34 c 0.05,2.05 -0.77,4.04 -2.24,5.47 l -0.24,0.22 0.1,0.31 c 0.88,2.68 1.69,5.11 2.48,7.44 -1.41,0.13 -2.81,0.27 -4.18,0.42 -0.6,-1.97 -1.2,-4.01 -1.8,-6.08 L 63.03,28.8 62,28.91 v 6.72 c -1.45,0.19 -2.73,0.36 -3.91,0.54 z m -8.04,22.75 c -4.2,0 -4.89,-4.8 -5,-9.49 v -1.88 c 0,-2.59 0.5,-5.16 1.48,-7.57 1.18,-2.53 3.02,-3.82 5.48,-3.82 h 3.9 v 3.92 c -2.05,0.02 -2.39,0.03 -3.34,0.09 l -0.09,0.01 c -3.28,0.18 -3.4,4.33 -3.47,6.56 L 49,25.48 v 2.03 c 0,0.13 0,0.27 0.01,0.42 v 0.04 c 0.02,1.93 0.05,5.95 2.47,5.95 0.09,0 0.18,-0.01 0.26,-0.02 0.21,-0.04 0.41,-0.12 0.58,-0.25 l 0.2,-0.15 -0.01,-5.02 c 0,0 -1.02,0.12 -1.4,0.17 v -4.27 c 1.56,-0.11 3.17,-0.21 4.8,-0.31 V 36.5 l -4.52,0.8 c -0.44,0.1 -0.89,0.15 -1.34,0.15 m 73.5,0.21 c -0.4,0 -0.79,-0.04 -1.18,-0.12 l -7.2,-1.29 v -3.86 c 1.02,0.21 2.64,0.52 4.08,0.79 0.82,0.15 1.57,0.29 2.08,0.39 0.22,0.04 0.45,0.07 0.68,0.07 0.36,0.03 0.71,-0.11 0.96,-0.37 0.24,-0.31 0.36,-0.69 0.33,-1.08 v -0.07 c -0.02,-1.34 -0.56,-2.3 -1.76,-3.97 -0.48,-0.71 -0.92,-1.33 -1.3,-1.88 -2.06,-2.97 -2.49,-3.59 -2.49,-5.39 v -0.2 c 0,-3.75 1.94,-5.99 5.19,-5.99 h 4.25 v 3.91 h -3.73 c -0.54,0 -1.05,0.28 -1.35,0.73 -0.28,0.42 -0.42,0.91 -0.42,1.4 v 0.07 c 0,0.85 0.66,2.11 2.2,4.23 0.34,0.5 0.66,0.97 0.95,1.38 1.71,2.45 2.42,3.47 2.35,6.22 v 0.18 c -0.24,3.31 -1.39,4.85 -3.64,4.85"
     id="path3063" /><path
     class="st0"
     d="m 62.02,42.76 1.03,-0.13 0.86,-2.62 0.85,2.41 1.03,-0.13 1.43,-4.57 -1.23,0.15 -0.75,2.62 -0.82,-2.43 -1.02,0.13 -0.82,2.64 -0.75,-2.43 -1.25,0.16 z m 8.84,-0.93 c 1.29,-0.1 2.3,-1.17 2.32,-2.46 v -0.01 c 0.02,-1.12 -0.87,-2.06 -1.99,-2.08 -0.11,0 -0.21,0 -0.32,0.02 -1.29,0.1 -2.3,1.17 -2.32,2.46 v 0.01 c -0.02,1.12 0.87,2.06 1.99,2.08 0.1,0 0.21,0 0.32,-0.02 m 0.01,-1.09 c -0.56,0.05 -1.06,-0.37 -1.1,-0.93 0,-0.05 0,-0.1 0,-0.15 v -0.01 c -0.02,-0.64 0.46,-1.19 1.09,-1.26 0.56,-0.05 1.05,0.36 1.1,0.92 0,0.05 0.01,0.11 0,0.16 v 0.01 c 0.02,0.64 -0.46,1.19 -1.09,1.26 m 4.15,0.68 3.28,-0.17 V 40.19 L 76.22,40.3 V 37 l -1.19,0.06 v 4.36 z m 5.02,-0.25 1.19,-0.03 v -1.56 l 2.04,-0.05 v -1 l -2.04,0.05 v -0.74 l 2.25,-0.06 v -1.06 l -3.45,0.08 v 4.37 z m 6.93,-0.02 c 1.05,0.01 1.74,-0.52 1.74,-1.41 v -0.01 c 0,-0.82 -0.62,-1.15 -1.6,-1.37 -0.6,-0.14 -0.75,-0.23 -0.75,-0.43 v -0.01 c 0,-0.16 0.14,-0.28 0.43,-0.28 0.44,0.02 0.86,0.17 1.21,0.44 l 0.6,-0.85 c -0.5,-0.4 -1.13,-0.61 -1.77,-0.59 -1.03,-0.01 -1.67,0.58 -1.67,1.39 v 0.01 c 0,0.89 0.71,1.16 1.63,1.37 0.59,0.15 0.73,0.24 0.73,0.43 v 0.01 c 0,0.19 -0.17,0.3 -0.5,0.3 -0.51,-0.01 -1.01,-0.2 -1.4,-0.53 l -0.67,0.8 c 0.56,0.48 1.27,0.74 2.02,0.73 m 3.55,-0.04 2.22,0.09 c 1.03,0.04 1.63,-0.39 1.63,-1.14 v -0.01 c 0.01,-0.52 -0.35,-0.98 -0.86,-1.1 0.41,-0.13 0.68,-0.52 0.66,-0.95 v -0.01 c 0.01,-0.27 -0.09,-0.53 -0.28,-0.72 -0.32,-0.29 -0.74,-0.45 -1.18,-0.43 L 90.5,36.75 Z m 2.49,-2.91 c 0,0.26 -0.21,0.37 -0.57,0.36 l -0.75,-0.03 v -0.77 l 0.78,0.03 c 0.35,0.01 0.54,0.15 0.54,0.4 z m 0.17,1.63 v 0.01 c 0,0.26 -0.2,0.39 -0.57,0.38 l -0.92,-0.04 v -0.8 l 0.91,0.03 c 0.39,0.02 0.58,0.18 0.58,0.42 m 4.91,1.72 c 0.91,0.2 1.8,-0.38 2,-1.29 0.04,-0.2 0.05,-0.4 0.02,-0.6 V 37.24 L 98.9,37.16 v 2.46 c 0,0.61 -0.31,0.88 -0.8,0.84 -0.48,-0.03 -0.79,-0.35 -0.79,-0.98 V 37.06 L 96.1,36.98 v 2.45 c -0.11,1.06 0.66,2.02 1.73,2.12 0.08,0 0.17,0.01 0.26,0 m 3.95,0.21 1.19,0.12 v -1.32 l 0.53,0.05 0.86,1.41 1.37,0.14 -1.02,-1.63 c 0.55,-0.16 0.92,-0.68 0.88,-1.26 v -0.01 c 0.01,-0.39 -0.12,-0.77 -0.38,-1.06 -0.37,-0.37 -0.87,-0.59 -1.4,-0.61 l -2.03,-0.21 z m 1.19,-2.14 v -1.05 l 0.78,0.08 c 0.39,0.04 0.64,0.24 0.64,0.59 v 0.01 c 0,0.32 -0.24,0.49 -0.64,0.45 z m 6.62,3.12 c 0.65,0.1 1.32,-0.05 1.86,-0.43 v -1.96 l -1.96,-0.26 v 0.88 l 0.84,0.11 v 0.53 c -0.21,0.1 -0.45,0.13 -0.68,0.09 -0.68,-0.09 -1.18,-0.68 -1.16,-1.37 v -0.01 c -0.05,-0.53 0.35,-1 0.88,-1.05 0.07,-0.01 0.14,0 0.22,0.01 0.4,0.06 0.76,0.25 1.03,0.55 l 0.7,-0.77 c -0.46,-0.48 -1.07,-0.79 -1.73,-0.86 -1.04,-0.21 -2.05,0.46 -2.26,1.5 -0.03,0.15 -0.04,0.31 -0.04,0.46 v 0.01 c -0.01,1.32 0.98,2.43 2.3,2.57"
     id="path3065" /><path
     class="st2"
     d="m 75.97,58.66 c -5.16,2.6 -4.52,9.49 -4.35,11.1 0.23,-0.47 0.57,-0.87 1,-1.16 0,0 -0.79,6.7 2.54,10.97 -1.4,-8.16 2.45,-13.36 2.45,-13.36 -0.09,0.61 -0.13,1.23 -0.12,1.85 2.03,-1.16 7.71,-1.16 7.71,-1.16 0,0 0.26,-4.94 -1.55,-5.58 -1.81,-0.65 -7.6,2.33 -7.68,-2.66"
     id="path3067" /><path
     class="st2"
     d="m 96.26,58.66 c 5.16,2.6 4.52,9.49 4.35,11.1 -0.23,-0.47 -0.57,-0.87 -1,-1.16 0,0 0.79,6.7 -2.53,10.97 1.4,-8.16 -2.45,-13.36 -2.45,-13.36 0.09,0.61 0.13,1.23 0.12,1.85 -2.03,-1.16 -7.71,-1.16 -7.71,-1.16 0,0 -0.26,-4.94 1.55,-5.58 1.81,-0.65 7.6,2.33 7.67,-2.66"
     id="path3069" /><path
     class="st2"
     d="m 95.9,88.56 c -0.45,2.84 -1.44,5.58 -2.9,8.06 -4.51,1.19 -9.25,1.19 -13.77,0 -1.46,-2.48 -2.44,-5.21 -2.9,-8.06 -2.76,7.7 2.81,11.23 2.81,11.23 -0.57,0.05 -1.15,0.04 -1.71,-0.05 0.53,0.88 3.24,2.78 8.69,2.78 5.45,0 8.15,-1.89 8.69,-2.78 -0.57,0.08 -1.14,0.1 -1.71,0.05 -0.01,0 5.56,-3.54 2.8,-11.23"
     id="path3071" /><path
     class="st0"
     d="m 86.12,55.62 c -5,0 -8,3.02 -7.08,3.55 0.95,-0.07 1.9,-0.27 2.79,-0.6 0.26,-0.97 1.25,-1.54 2.22,-1.28 0.41,0.11 0.76,0.35 1.01,0.7 0.35,-0.03 0.71,-0.06 1.06,-0.06 0.35,0.01 0.71,0.03 1.06,0.06 0.58,-0.81 1.71,-1 2.53,-0.42 0.34,0.24 0.59,0.6 0.7,1.01 0.9,0.33 1.84,0.53 2.79,0.6 0.92,-0.54 -2.08,-3.56 -7.08,-3.56"
     id="path3073" /><path
     class="st0"
     d="m 94.63,69.59 c -6.22,-1.63 -8.51,-0.53 -8.51,-0.53 0,0 -2.29,-1.1 -8.51,0.53 -0.01,2.76 0.5,5.49 1.5,8.06 0.49,-5.21 1.82,-6.44 1.82,-6.44 l 1.17,1.46 1.37,-1.36 1.37,1.36 1.28,-1.26 1.28,1.26 1.37,-1.36 1.37,1.36 1.17,-1.46 c 0,0 1.33,1.24 1.82,6.44 1,-2.57 1.51,-5.3 1.5,-8.06"
     id="path3075" /><path
     class="st1"
     d="m 113.41,45.82 c -4.25,0.05 -9.49,3.78 -9.49,3.78 0,0 -8.9,-5.2 -17.8,-1.89 v 0 c -2.6,-0.94 -5.38,-1.29 -8.13,-1.02 -3.39,0.29 -6.68,1.28 -9.67,2.91 0,0 -0.54,-0.39 -1.42,-0.91 -0.12,-0.07 -0.25,-0.15 -0.39,-0.23 -0.13,-0.08 -0.27,-0.16 -0.42,-0.24 -0.18,-0.1 -0.36,-0.2 -0.55,-0.3 -0.02,-0.01 -0.03,-0.02 -0.05,-0.03 -2.04,-1.18 -4.32,-1.88 -6.66,-2.08 v 0 c -0.5,-0.01 -1,0.07 -1.48,0.23 -0.01,0.01 -0.03,0.01 -0.04,0.02 -0.1,0.04 -0.2,0.08 -0.3,0.13 -0.05,0.02 -0.09,0.05 -0.13,0.07 -0.04,0.02 -0.08,0.05 -0.12,0.07 -3.15,1.92 -0.4,8.61 0.55,9.07 v -0.03 l 0.02,0.03 c 0.77,-1.26 1.78,-2.36 2.97,-3.22 l -2.57,1.07 c 0,0 -0.83,-2.7 1.57,-3.63 0.04,-0.01 0.09,-0.02 0.13,-0.03 1.88,-0.19 6.38,1.8 6.38,1.8 -2.32,1.37 -4.28,3.26 -5.74,5.53 2.47,-0.42 3.07,-0.19 3.07,-0.19 -2.72,3.95 -3.86,8.76 -3.21,13.51 0.25,-0.45 0.59,-0.85 0.99,-1.17 l 0.04,-0.03 C 60.98,69.03 61,69.01 61.02,69 c 0.03,-0.02 0.07,-0.03 0.1,-0.04 0,0 -0.59,7.51 8.01,14.08 -3.64,-10.6 -1.38,-16.44 -1.38,-16.44 0.36,0.59 0.83,1.1 1.38,1.51 0,-5.77 2.25,-9.22 5.11,-11.27 -1.37,-0.23 -2.61,-0.97 -3.46,-2.07 0.73,-1.56 2.04,-2.78 3.66,-3.38 -1.74,-0.94 -6.49,2.04 -6.49,2.04 0,0 4.54,-4.99 9.89,-2.98 3.34,1.26 2.99,2.78 7.65,3.45 0.05,0 0.1,0 0.14,0.01 l 0.52,-1.67 0.52,1.67 c 0.04,0 0.09,0 0.14,-0.01 4.65,-0.67 4.3,-2.19 7.64,-3.45 5.35,-2.01 9.89,2.98 9.89,2.98 0,0 -4.75,-2.98 -6.49,-2.04 1.61,0.6 2.93,1.82 3.66,3.38 -0.85,1.1 -2.09,1.84 -3.46,2.07 2.86,2.05 5.11,5.5 5.11,11.27 0,7.12 -3.42,10.96 -3.42,10.96 1.67,-0.6 3.24,-1.45 4.66,-2.53 -0.35,2.59 -1.11,5.69 -2.96,7.9 1.92,-1.3 3.66,-2.84 5.21,-4.56 1.13,-1.26 2.09,-2.65 2.87,-4.16 l 0.01,-0.01 c 0.08,-0.16 0.16,-0.31 0.23,-0.47 0.96,-1.88 1.46,-3.96 1.48,-6.07 0.66,0.4 1.3,0.84 1.91,1.31 0.69,-5.84 -1.96,-10.38 -3.99,-13.74 l -0.01,-0.01 v 0 0 0 c 1.02,-0.15 2.06,-0.08 3.06,0.19 -1.49,-2.28 -3.53,-4.15 -5.93,-5.43 0,0 3.56,-3.54 5.44,-3.35 1.29,0.14 1.83,1.75 1.83,1.75 0,0 0.64,-1.37 0.44,-1.75 1.63,0.24 2.22,4.87 2.22,4.87 0,0 2.69,-7.19 -2.8,-7.19"
     id="path3077" /><path
     class="st0"
     d="m 92.28,88.47 c -0.8,3.89 -2,5.3 -2,5.3 l -0.93,-1.46 -1.1,1.08 -1.1,-1.08 -1.03,1.01 -1.03,-1.01 -1.09,1.08 -1.1,-1.08 -0.93,1.46 c 0,0 -1.2,-1.4 -2,-5.3 -0.7,2.15 -0.7,4.47 0,6.62 0.22,0.44 2.51,0.75 4.23,0.92 0.64,0.05 1.29,0.07 1.93,0.07 0.63,0 1.28,-0.02 1.93,-0.07 1.72,-0.17 4.01,-0.47 4.23,-0.92 0.69,-2.15 0.69,-4.47 -0.01,-6.62"
     id="path3079" /><path
     class="st1"
     d="m 81.05,81.04 c 1.47,0.8 2.88,1.69 4.23,2.67 0.41,0.84 0.69,1.74 0.85,2.67 0.2,-0.91 0.48,-1.81 0.85,-2.67 0.3,-0.38 4.23,-0.89 4.23,-0.89 0,0 -1.66,5.54 -2.54,6.23 -1.6,0.78 -3.47,0.78 -5.07,0 -1.32,-0.89 -2.55,-8.01 -2.55,-8.01"
     id="path3081" /><path
     class="st0"
     d="m 79.22,55.2 c -0.97,-0.48 -1.81,-1.2 -2.44,-2.08 -1.39,-0.17 -3.18,1.14 -3.18,1.14 0.39,0.33 0.83,0.59 1.29,0.78 0.28,-0.7 1.07,-1.03 1.77,-0.75 0.5,0.2 0.83,0.68 0.85,1.22 0.58,-0.04 1.16,-0.14 1.71,-0.31"
     id="path3083" /><path
     class="st0"
     d="m 98.63,54.25 c 0,0 -1.79,-1.31 -3.18,-1.14 -0.63,0.88 -1.47,1.6 -2.44,2.08 0.55,0.17 1.13,0.28 1.71,0.31 0.02,-0.75 0.65,-1.34 1.4,-1.32 0.54,0.02 1.02,0.35 1.22,0.85 0.47,-0.19 0.91,-0.45 1.29,-0.78"
     id="path3085" /><path
     class="st1"
     d="m 71.26,92.85 c -0.27,-0.9 -0.44,-1.82 -0.5,-2.75 -3.41,-1.86 -5.32,-3.67 -8.55,-6.73 1.34,3.09 6.65,8.07 9.05,9.48"
     id="path3087" /><path
     class="st1"
     d="m 100.97,92.85 c 0.27,-0.9 0.44,-1.82 0.5,-2.75 3.41,-1.86 5.32,-3.67 8.55,-6.73 -1.34,3.09 -6.64,8.07 -9.05,9.48"
     id="path3089" /><path
     class="st0"
     d="M 86.12,47.71 C 77,44.42 68.32,49.6 68.32,49.6 c 0,0 -5.24,-3.73 -9.49,-3.78 -6.2,0.04 -2.63,9.05 -1.52,9.59 v -0.03 l 0.02,0.03 c 0.77,-1.26 1.78,-2.36 2.97,-3.22 l -2.57,1.08 c 0,0 -0.83,-2.7 1.57,-3.63 0.04,-0.01 0.09,-0.02 0.13,-0.03 1.88,-0.19 6.38,1.79 6.38,1.79 -2.32,1.37 -4.28,3.26 -5.74,5.53 2.47,-0.42 3.07,-0.19 3.07,-0.19 -2.72,3.95 -3.86,8.77 -3.21,13.51 0.74,-1.18 1.19,-1.28 1.19,-1.28 0,0 -0.59,7.51 8.01,14.08 -3.36,-5.67 -5.54,-7.37 -5.24,-17.39 0.34,-0.5 -0.59,-0.14 -1.63,0.09 0.52,-4.52 1.14,-7.56 4.9,-10.87 -0.72,-0.09 -1.45,-0.09 -2.18,0 6.9,-7.93 13.62,-8.12 21.14,-7.17"
     id="path3091" /></g>
</svg>
