<?xml version="1.0" encoding="UTF-8" standalone="no"?>
<!-- Generator: Adobe Illustrator 26.0.1, SVG Export Plug-In . SVG Version: 6.00 Build 0)  -->

<svg
   version="1.1"
   id="Layer_1"
   x="0px"
   y="0px"
   viewBox="0 0 200 200"
   xml:space="preserve"
   sodipodi:docname="logo_ING.svg"
   width="200"
   height="200"
   inkscape:version="1.1 (c68e22c387, 2021-05-23)"
   xmlns:inkscape="http://www.inkscape.org/namespaces/inkscape"
   xmlns:sodipodi="http://sodipodi.sourceforge.net/DTD/sodipodi-0.dtd"
   xmlns="http://www.w3.org/2000/svg"
   xmlns:svg="http://www.w3.org/2000/svg"><defs
   id="defs4572">
	
	
	
	
	
	
	
	
	
	
	
	
	
	
	
	
	
	
	
	
	
	
	
	
	
	
	
	
	
	
	
	
	
	
	
	
	
	
	
	
	
	
	
	
	
	
	
	
	
	
	
	
	
	
	
	
	
	
	
	
	
	
	
	
	
	
	
	
	
	
	
	
	
		
	
	
	
	
	
	
	
	
	
	
	
	
	
	
	
	
	
	
	
	
	
	
	
	
	
	
	
	
	
	
	
	
	
	
	
	
	
	
	
	
	
	
	
	
	
	
	
	
	
</defs><sodipodi:namedview
   id="namedview4570"
   pagecolor="#ffffff"
   bordercolor="#666666"
   borderopacity="1.0"
   inkscape:pageshadow="2"
   inkscape:pageopacity="0.0"
   inkscape:pagecheckerboard="0"
   showgrid="false"
   inkscape:zoom="0.832"
   inkscape:cx="499.39904"
   inkscape:cy="308.29327"
   inkscape:window-width="1920"
   inkscape:window-height="1017"
   inkscape:window-x="-8"
   inkscape:window-y="-8"
   inkscape:window-maximized="1"
   inkscape:current-layer="Layer_1" />
<g
   id="watermark_1_">
	<g
   id="g4272">
		<g
   id="watermark"
   style="opacity:0.61">
			<g
   id="g4153">
				<g
   id="g4115">
					<g
   id="g4045">
						<g
   id="g4031">
							<polygon
   style="fill:#ffffff"
   points="402.615,952.493 390.55,924.528 397.541,924.528 406.051,944.503 414.68,924.528 421.112,924.528 409.007,952.493 "
   id="polygon4029" />
						</g>
						<g
   id="g4035">
							<path
   style="fill:#ffffff"
   d="m 442.323,943.185 h -16.26 c 0.599,2.677 2.876,4.315 6.153,4.315 2.277,0 3.915,-0.679 5.393,-2.077 l 3.316,3.595 c -1.997,2.278 -4.994,3.476 -8.868,3.476 -7.431,0 -12.265,-4.674 -12.265,-11.067 0,-6.432 4.914,-11.066 11.466,-11.066 6.312,0 11.186,4.235 11.186,11.146 -0.001,0.48 -0.081,1.159 -0.121,1.678 m -16.34,-3.635 h 10.587 c -0.44,-2.717 -2.478,-4.475 -5.274,-4.475 -2.836,0 -4.874,1.718 -5.313,4.475"
   id="path4033" />
						</g>
						<g
   id="g4039">
							<path
   style="fill:#ffffff"
   d="m 444.997,941.427 c 0,-6.471 4.994,-11.066 11.985,-11.066 4.514,0 8.07,1.958 9.628,5.473 l -4.834,2.597 c -1.159,-2.038 -2.877,-2.956 -4.834,-2.956 -3.156,0 -5.633,2.198 -5.633,5.952 0,3.756 2.477,5.953 5.633,5.953 1.958,0 3.675,-0.879 4.834,-2.956 l 4.834,2.637 c -1.558,3.436 -5.114,5.433 -9.628,5.433 -6.991,-10e-4 -11.985,-4.595 -11.985,-11.067"
   id="path4037" />
						</g>
						<g
   id="g4043">
							<path
   style="fill:#ffffff"
   d="m 484.386,951.135 c -1.279,0.919 -3.157,1.358 -5.074,1.358 -5.073,0 -8.03,-2.597 -8.03,-7.711 v -8.829 h -3.316 v -4.794 h 3.316 v -5.233 h 6.232 v 5.233 h 5.353 v 4.794 h -5.353 v 8.749 c 0,1.837 0.998,2.836 2.677,2.836 0.918,0 1.837,-0.279 2.517,-0.799 z"
   id="path4041" />
						</g>
					</g>
					<g
   id="g4049">
						<path
   style="fill:#ffffff"
   d="m 527.157,930.68 v 5.753 c -0.519,-0.04 -0.918,-0.08 -1.398,-0.08 -3.435,0 -5.713,1.877 -5.713,5.993 v 10.147 h -6.232 V 931 h 5.953 v 2.836 c 1.517,-2.077 4.074,-3.156 7.39,-3.156"
   id="path4047" />
					</g>
					<g
   id="g4053">
						<path
   style="fill:#ffffff"
   d="m 528.954,949.257 2.197,-4.874 c 2.357,1.718 5.873,2.916 9.229,2.916 3.836,0 5.393,-1.278 5.393,-2.996 0,-5.233 -16.26,-1.638 -16.26,-12.025 0,-4.754 3.835,-8.709 11.785,-8.709 3.516,0 7.112,0.839 9.708,2.477 l -1.998,4.914 c -2.597,-1.478 -5.273,-2.197 -7.75,-2.197 -3.835,0 -5.313,1.438 -5.313,3.196 0,5.154 16.259,1.598 16.259,11.865 0,4.675 -3.875,8.67 -11.865,8.67 -4.434,-10e-4 -8.909,-1.319 -11.385,-3.237"
   id="path4051" />
					</g>
					<g
   id="g4057">
						<path
   style="fill:#ffffff"
   d="m 577.131,943.185 h -16.26 c 0.599,2.677 2.876,4.315 6.153,4.315 2.277,0 3.915,-0.679 5.393,-2.077 l 3.316,3.595 c -1.998,2.278 -4.994,3.476 -8.869,3.476 -7.431,0 -12.265,-4.674 -12.265,-11.067 0,-6.432 4.914,-11.066 11.466,-11.066 6.312,0 11.187,4.235 11.187,11.146 -10e-4,0.48 -0.081,1.159 -0.121,1.678 m -16.34,-3.635 h 10.587 c -0.439,-2.717 -2.477,-4.475 -5.273,-4.475 -2.837,0 -4.874,1.718 -5.314,4.475"
   id="path4055" />
					</g>
					<g
   id="g4061">
						<path
   style="fill:#ffffff"
   d="m 602.337,943.185 h -16.26 c 0.599,2.677 2.876,4.315 6.152,4.315 2.277,0 3.915,-0.679 5.393,-2.077 l 3.316,3.595 c -1.998,2.278 -4.994,3.476 -8.869,3.476 -7.431,0 -12.265,-4.674 -12.265,-11.067 0,-6.432 4.914,-11.066 11.466,-11.066 6.312,0 11.186,4.235 11.186,11.146 10e-4,0.48 -0.079,1.159 -0.119,1.678 m -16.34,-3.635 h 10.587 c -0.439,-2.717 -2.477,-4.475 -5.273,-4.475 -2.837,0 -4.874,1.718 -5.314,4.475"
   id="path4059" />
					</g>
					<g
   id="g4065">
						<polygon
   style="fill:#ffffff"
   points="612.841,952.493 606.61,952.493 606.61,922.85 612.841,922.85 612.841,939.629 621.95,931 629.381,931 620.432,940.108 630.18,952.493 622.63,952.493 615.838,944.064 612.841,947.02 "
   id="polygon4063" />
					</g>
					<g
   id="g4069">
						<path
   style="fill:#ffffff"
   d="m 514.371,955.416 v 0 l -6.226,-6.226 c -0.947,1.107 -2.075,2.054 -3.339,2.796 -0.201,0.15 -0.406,0.296 -0.616,0.433 l 6.589,6.589 c 0.992,0.992 2.601,0.992 3.592,0 0.992,-0.991 0.992,-2.6 0,-3.592"
   id="path4067" />
					</g>
					<g
   id="g4073">
						<path
   style="fill:#ffffff"
   d="m 499.965,929.04 c 0.48,-0.377 1.077,-0.612 1.735,-0.612 0.091,0 0.181,0.005 0.27,0.013 -0.466,-0.34 -1.041,-0.542 -1.663,-0.542 -0.859,0 -1.619,0.392 -2.137,0.998 -0.111,0 -0.218,0.013 -0.328,0.016 0.086,-0.167 0.139,-0.354 0.139,-0.555 0,-0.509 -0.311,-0.945 -0.752,-1.13 0.19,0.275 0.301,0.608 0.301,0.968 0,0.267 -0.066,0.517 -0.176,0.742 -6.119,0.437 -10.95,5.527 -10.95,11.757 0,6.516 5.283,11.799 11.799,11.799 6.517,0 11.8,-5.283 11.8,-11.799 0.001,-5.918 -4.359,-10.803 -10.038,-11.655 m -4.355,3.074 c 0.947,0 1.837,0.244 2.611,0.674 0.813,-0.532 1.785,-0.842 2.828,-0.842 1.547,0 2.934,0.68 3.883,1.756 -0.948,-0.826 -2.186,-1.328 -3.541,-1.328 -0.977,0 -1.895,0.261 -2.686,0.716 -0.172,0.1 -0.34,0.208 -0.499,0.326 -0.142,-0.104 -0.29,-0.203 -0.444,-0.292 -0.803,-0.476 -1.741,-0.749 -2.743,-0.749 -0.653,0 -1.279,0.117 -1.86,0.331 0.736,-0.378 1.568,-0.592 2.451,-0.592 m 8.248,9.671 c 0.25,0.664 0.394,1.38 0.394,2.131 0,3.34 -2.707,6.047 -6.047,6.047 -3.339,0 -6.047,-2.707 -6.047,-6.047 0,-0.751 0.143,-1.467 0.394,-2.131 -1.35,-0.831 -2.253,-2.317 -2.253,-4.019 0,-2.607 2.114,-4.72 4.72,-4.72 1.23,0 2.346,0.474 3.186,1.244 0.84,-0.77 1.956,-1.244 3.186,-1.244 2.607,0 4.72,2.113 4.72,4.72 0,1.701 -0.903,3.188 -2.253,4.019"
   id="path4071" />
					</g>
					<g
   id="g4077">
						<path
   style="fill:#ffffff"
   d="m 503.627,937.351 c 0,1.082 -0.879,1.961 -1.961,1.961 -1.082,0 -1.961,-0.879 -1.961,-1.961 0,-1.082 0.879,-1.961 1.961,-1.961 0.22,0 0.428,0.037 0.625,0.102 -0.065,0.135 -0.099,0.287 -0.099,0.445 0,0.595 0.482,1.076 1.077,1.076 0.11,0 0.217,-0.017 0.318,-0.048 0.026,0.124 0.04,0.253 0.04,0.386"
   id="path4075" />
					</g>
					<g
   id="g4081">
						<path
   style="fill:#ffffff"
   d="m 496.201,937.351 c 0,0.818 -0.665,1.482 -1.483,1.482 -0.818,0 -1.483,-0.664 -1.483,-1.482 0,-0.818 0.665,-1.483 1.483,-1.483 0.166,0 0.324,0.027 0.473,0.077 -0.049,0.102 -0.075,0.217 -0.075,0.337 0,0.449 0.364,0.814 0.814,0.814 0.083,0 0.164,-0.013 0.241,-0.036 0.02,0.093 0.03,0.191 0.03,0.291"
   id="path4079" />
					</g>
					<g
   id="g4113">
						<g
   id="g4095">
							<g
   id="g4085">
								<rect
   x="484.56"
   y="939.02399"
   style="fill:#ffffff"
   width="1.34"
   height="1.34"
   id="rect4083" />
							</g>
							<g
   id="g4089">
								<rect
   x="510.51001"
   y="939.02399"
   style="fill:#ffffff"
   width="1.34"
   height="1.34"
   id="rect4087" />
							</g>
							<g
   id="g4093">
								<path
   style="fill:#ffffff"
   d="m 511.332,939.572 h -0.304 c 0,-7.07 -5.752,-12.823 -12.823,-12.823 -7.07,0 -12.823,5.753 -12.823,12.823 h -0.305 c 0,-3.506 1.365,-6.803 3.845,-9.282 2.479,-2.48 5.776,-3.845 9.282,-3.845 3.507,0 6.803,1.365 9.283,3.845 2.479,2.479 3.845,5.775 3.845,9.282"
   id="path4091" />
							</g>
						</g>
						<g
   id="g4099">
							<rect
   x="497.534"
   y="925.927"
   style="fill:#ffffff"
   width="1.34"
   height="1.34"
   id="rect4097" />
						</g>
						<g
   id="g4103">
							<rect
   x="489.00601"
   y="926.44501"
   style="fill:#ffffff"
   width="18.396999"
   height="0.30399999"
   id="rect4101" />
						</g>
						<g
   id="g4107">
							<path
   style="fill:#ffffff"
   d="m 489.494,926.658 c 0,0.235 -0.191,0.427 -0.427,0.427 -0.235,0 -0.426,-0.191 -0.426,-0.427 0,-0.236 0.191,-0.427 0.426,-0.427 0.236,0 0.427,0.191 0.427,0.427"
   id="path4105" />
						</g>
						<g
   id="g4111">
							<path
   style="fill:#ffffff"
   d="m 507.829,926.658 c 0,0.235 -0.191,0.427 -0.427,0.427 -0.235,0 -0.426,-0.191 -0.426,-0.427 0,-0.236 0.191,-0.427 0.426,-0.427 0.237,0 0.427,0.191 0.427,0.427"
   id="path4109" />
						</g>
					</g>
				</g>
				<g
   id="g4119">
					<path
   style="fill:#ffffff"
   d="m 640.109,951.171 c 0,3.395 -5.146,3.395 -5.146,0 0,-3.392 5.146,-3.392 5.146,0 z"
   id="path4117" />
				</g>
				<g
   id="g4151">
					<g
   id="g4133">
						<g
   id="g4123">
							<path
   style="fill:#ffffff"
   d="m 307.849,936.236 3.859,13.253 4.038,-13.253 h 4.823 l -6.145,17.721 h -5.073 l -1.822,-5.216 -1.572,-5.896 -1.571,5.896 -1.822,5.216 h -5.073 l -6.18,-17.721 h 4.858 l 4.038,13.253 3.822,-13.253 z"
   id="path4121" />
						</g>
						<g
   id="g4127">
							<path
   style="fill:#ffffff"
   d="m 340.449,936.236 3.859,13.253 4.038,-13.253 h 4.823 l -6.145,17.721 h -5.073 l -1.822,-5.216 -1.571,-5.896 -1.572,5.896 -1.822,5.216 h -5.073 l -6.18,-17.721 h 4.858 l 4.038,13.253 3.822,-13.253 z"
   id="path4125" />
						</g>
						<g
   id="g4131">
							<path
   style="fill:#ffffff"
   d="m 373.048,936.236 3.859,13.253 4.038,-13.253 h 4.823 l -6.145,17.721 h -5.073 l -1.822,-5.216 -1.572,-5.896 -1.571,5.896 -1.822,5.216 h -5.073 l -6.18,-17.721 h 4.858 l 4.038,13.253 3.822,-13.253 z"
   id="path4129" />
						</g>
					</g>
					<g
   id="g4137">
						<path
   style="fill:#ffffff"
   d="m 393.123,951.412 c 0,3.395 -5.146,3.395 -5.146,0 0,-3.392 5.146,-3.392 5.146,0 z"
   id="path4135" />
					</g>
					<g
   id="g4141">
						<path
   style="fill:#ffffff"
   d="m 658.296,951.171 c -2.036,2.001 -4.177,2.787 -6.787,2.787 -5.108,0 -9.361,-3.072 -9.361,-9.323 0,-6.251 4.253,-9.326 9.361,-9.326 2.502,0 4.43,0.716 6.359,2.609 l -2.752,2.894 c -1.036,-0.931 -2.321,-1.393 -3.534,-1.393 -2.929,0 -5.073,2.144 -5.073,5.216 0,3.357 2.286,5.143 5,5.143 1.393,0 2.787,-0.393 3.857,-1.463 z"
   id="path4139" />
					</g>
					<g
   id="g4145">
						<path
   style="fill:#ffffff"
   d="m 678.097,944.777 c 0,5.073 -3.465,9.181 -9.181,9.181 -5.716,0 -9.146,-4.107 -9.146,-9.181 0,-5.038 3.502,-9.181 9.111,-9.181 5.609,0 9.216,4.143 9.216,9.181 z m -13.969,0 c 0,2.679 1.609,5.181 4.788,5.181 3.179,0 4.788,-2.502 4.788,-5.181 0,-2.644 -1.859,-5.216 -4.788,-5.216 -3.144,0 -4.788,2.572 -4.788,5.216 z"
   id="path4143" />
					</g>
					<g
   id="g4149">
						<path
   style="fill:#ffffff"
   d="m 692.828,953.958 v -9.431 c 0,-2.324 -1.216,-4.43 -3.61,-4.43 -2.356,0 -3.75,2.106 -3.75,4.43 v 9.431 h -4.36 v -17.649 h 4.038 l 0.323,2.144 c 0.928,-1.786 2.964,-2.429 4.643,-2.429 2.109,0 4.218,0.858 5.216,3.287 1.574,-2.502 3.61,-3.217 5.896,-3.217 5,0 7.467,3.075 7.467,8.36 v 9.504 h -4.361 v -9.504 c 0,-2.321 -0.963,-4.288 -3.322,-4.288 -2.356,0 -3.822,2.036 -3.822,4.36 v 9.431 h -4.358 z"
   id="path4147" />
					</g>
				</g>
			</g>
		</g>
		<g
   style="opacity:0.61"
   id="g4266">
			<g
   id="g4210">
				<g
   id="g4158">
					<path
   style="fill:#ffffff"
   d="m 708.973,859.493 c -0.013,-2.665 -2.087,-4.618 -4.766,-4.659 -2.011,-0.031 -1.81,0.261 -1.815,-1.887 -0.006,-2.389 -0.015,-4.778 0.006,-7.166 0.007,-0.824 -0.243,-1.505 -0.787,-2.125 -5.098,-5.81 -10.184,-11.63 -15.281,-17.441 -0.262,-0.299 -0.599,-0.532 -0.901,-0.796 -13.528,0 -27.055,0 -40.583,0 -1.729,0.639 -2.482,1.889 -2.478,3.72 0.021,8.159 0.009,16.318 0.008,24.478 0,1.21 -0.007,1.281 -1.197,1.201 -3.258,-0.221 -5.477,2.147 -5.436,5.426 0.096,7.568 0.028,15.137 0.031,22.706 10e-4,3.44 1.887,5.32 5.333,5.331 1.267,0.004 1.268,0.004 1.268,1.306 10e-4,4.831 -0.002,9.662 0.002,14.493 0.002,2.595 1.262,3.855 3.85,3.855 17.446,0.001 34.891,0.001 52.337,0 2.543,0 3.822,-1.268 3.824,-3.799 0.005,-4.912 10e-4,-9.823 0.003,-14.735 0,-1.115 0.005,-1.112 1.131,-1.121 0.589,-0.005 1.177,0.017 1.761,-0.127 2.169,-0.535 3.68,-2.273 3.689,-4.503 0.035,-8.053 0.039,-16.105 10e-4,-24.157 z m -61.939,-30.777 c 11.619,-10e-4 23.237,-10e-4 34.856,0 1.193,0 1.206,0.015 1.207,1.222 10e-4,4.884 -0.002,9.767 0.002,14.651 10e-4,1.765 0.543,2.305 2.307,2.306 4.159,0.003 8.318,0 12.477,0.003 0.997,10e-4 1.044,0.046 1.046,1.052 0.006,1.932 0.005,3.864 0,5.796 -0.003,1.038 -0.051,1.085 -1.098,1.085 -8.479,0.002 -16.958,10e-4 -25.438,10e-4 -8.452,0 -16.905,0 -25.357,0 -1.198,0 -1.202,-0.003 -1.202,-1.221 -10e-4,-7.889 -10e-4,-15.778 0,-23.667 0.001,-1.22 0.01,-1.228 1.2,-1.228 z m 50.694,74.929 c -8.454,10e-4 -16.908,10e-4 -25.362,10e-4 -8.427,0 -16.854,0.001 -25.281,0 -1.245,0 -1.249,-0.003 -1.249,-1.262 -10e-4,-4.348 -0.003,-8.696 10e-4,-13.043 10e-4,-1.01 0.051,-1.059 1.041,-1.059 16.989,-0.002 33.977,-0.002 50.966,0 1.041,0 1.086,0.044 1.087,1.094 0.003,4.348 0.003,8.696 10e-4,13.043 -10e-4,1.215 -0.012,1.226 -1.204,1.226 z"
   id="path4156" />
				</g>
				<g
   id="g4208">
					<g
   id="g4162">
						<rect
   x="668.54602"
   y="828.47803"
   style="fill:#ffffff"
   width="3.825"
   height="2.2950001"
   id="rect4160" />
					</g>
					<g
   id="g4166">
						<rect
   x="664.72198"
   y="830.77301"
   style="fill:#ffffff"
   width="3.825"
   height="2.2950001"
   id="rect4164" />
					</g>
					<g
   id="g4170">
						<rect
   x="668.54602"
   y="833.06799"
   style="fill:#ffffff"
   width="3.825"
   height="2.2950001"
   id="rect4168" />
					</g>
					<g
   id="g4174">
						<rect
   x="664.72198"
   y="835.36298"
   style="fill:#ffffff"
   width="3.825"
   height="2.2950001"
   id="rect4172" />
					</g>
					<g
   id="g4178">
						<rect
   x="668.54602"
   y="837.65802"
   style="fill:#ffffff"
   width="3.825"
   height="2.2950001"
   id="rect4176" />
					</g>
					<g
   id="g4182">
						<rect
   x="664.72198"
   y="839.953"
   style="fill:#ffffff"
   width="3.825"
   height="2.2950001"
   id="rect4180" />
					</g>
					<g
   id="g4186">
						<rect
   x="668.54602"
   y="842.24701"
   style="fill:#ffffff"
   width="3.825"
   height="2.2950001"
   id="rect4184" />
					</g>
					<g
   id="g4190">
						<rect
   x="664.72198"
   y="844.54199"
   style="fill:#ffffff"
   width="3.825"
   height="2.2950001"
   id="rect4188" />
					</g>
					<g
   id="g4194">
						<rect
   x="668.54602"
   y="846.83698"
   style="fill:#ffffff"
   width="3.825"
   height="2.2950001"
   id="rect4192" />
					</g>
					<g
   id="g4198">
						<rect
   x="664.72198"
   y="849.13202"
   style="fill:#ffffff"
   width="3.825"
   height="2.2950001"
   id="rect4196" />
					</g>
					<g
   id="g4202">
						<rect
   x="668.54602"
   y="851.427"
   style="fill:#ffffff"
   width="3.825"
   height="2.2950001"
   id="rect4200" />
					</g>
					<g
   id="g4206">
						<rect
   x="664.72198"
   y="853.72198"
   style="fill:#ffffff"
   width="3.825"
   height="2.2950001"
   id="rect4204" />
					</g>
				</g>
			</g>
			<g
   id="g4214">
				<path
   style="fill:#ffffff"
   d="m 364.231,859.493 c -0.013,-2.665 -2.087,-4.618 -4.766,-4.659 -2.011,-0.031 -1.81,0.261 -1.815,-1.887 -0.006,-2.389 -0.015,-4.778 0.006,-7.166 0.007,-0.824 -0.243,-1.505 -0.787,-2.125 -5.098,-5.81 -10.184,-11.63 -15.281,-17.441 -0.262,-0.299 -0.599,-0.532 -0.901,-0.796 -13.528,0 -27.055,0 -40.583,0 -1.729,0.639 -2.482,1.889 -2.478,3.72 0.021,8.159 0.009,16.318 0.008,24.478 0,1.21 -0.007,1.281 -1.197,1.201 -3.258,-0.221 -5.477,2.147 -5.436,5.426 0.096,7.568 0.028,15.137 0.031,22.706 0.001,3.44 1.887,5.32 5.333,5.331 1.267,0.004 1.268,0.004 1.268,1.306 0.001,4.831 -0.002,9.662 0.002,14.493 0.002,2.595 1.262,3.855 3.85,3.855 17.446,0.001 34.891,0.001 52.337,0 2.543,0 3.822,-1.268 3.824,-3.799 0.005,-4.912 10e-4,-9.823 0.003,-14.735 0,-1.115 0.004,-1.112 1.131,-1.121 0.589,-0.005 1.177,0.017 1.761,-0.127 2.169,-0.535 3.68,-2.273 3.689,-4.503 0.034,-8.053 0.039,-16.105 10e-4,-24.157 z m -61.939,-30.777 c 11.619,-10e-4 23.237,-10e-4 34.856,0 1.192,0 1.206,0.015 1.207,1.222 10e-4,4.884 -0.001,9.767 0.002,14.651 10e-4,1.765 0.543,2.305 2.307,2.306 4.159,0.003 8.318,0 12.477,0.003 0.997,10e-4 1.044,0.046 1.046,1.052 0.006,1.932 0.005,3.864 0,5.796 -0.003,1.038 -0.051,1.085 -1.098,1.085 -8.479,0.002 -16.958,10e-4 -25.438,10e-4 -8.452,0 -16.905,0 -25.357,0 -1.198,0 -1.202,-0.003 -1.202,-1.221 -10e-4,-7.889 -10e-4,-15.778 0,-23.667 0.001,-1.22 0.01,-1.228 1.2,-1.228 z m 50.693,74.929 c -8.454,10e-4 -16.908,10e-4 -25.362,10e-4 -8.427,0 -16.854,0.001 -25.281,0 -1.245,0 -1.249,-0.003 -1.249,-1.262 -0.001,-4.348 -0.003,-8.696 10e-4,-13.043 0.001,-1.01 0.051,-1.059 1.041,-1.059 16.989,-0.002 33.977,-0.002 50.966,0 1.041,0 1.086,0.044 1.087,1.094 0.003,4.348 0.003,8.696 0.001,13.043 -0.001,1.215 -0.012,1.226 -1.204,1.226 z"
   id="path4212" />
			</g>
			<g
   id="g4222">
				<path
   style="fill:#ffffff"
   d="m 303.581,879.891 v -17.193 h 6.051 c 0.816,0 1.581,0.132 2.293,0.396 0.712,0.264 1.333,0.636 1.861,1.117 0.527,0.48 0.944,1.053 1.248,1.717 0.304,0.665 0.456,1.397 0.456,2.198 0,0.816 -0.152,1.557 -0.456,2.221 -0.304,0.664 -0.721,1.236 -1.248,1.717 -0.529,0.48 -1.149,0.852 -1.861,1.117 -0.713,0.264 -1.477,0.396 -2.293,0.396 h -2.809 v 6.315 h -3.242 z m 6.099,-9.388 c 0.848,0 1.489,-0.241 1.921,-0.721 0.432,-0.48 0.648,-1.032 0.648,-1.656 0,-0.304 -0.052,-0.601 -0.156,-0.889 -0.105,-0.288 -0.264,-0.54 -0.48,-0.756 -0.216,-0.217 -0.484,-0.388 -0.805,-0.516 -0.32,-0.129 -0.696,-0.193 -1.128,-0.193 h -2.857 v 4.731 z"
   id="path4216" />
				<path
   style="fill:#ffffff"
   d="m 317.796,862.699 h 3.77 l 6.916,11.526 h 0.191 l -0.191,-3.314 v -8.212 h 3.217 v 17.193 h -3.409 l -7.3,-12.174 h -0.191 l 0.191,3.314 v 8.86 h -3.193 v -17.193 z"
   id="path4218" />
				<path
   style="fill:#ffffff"
   d="m 343.08,870.454 h 8.429 c 0.048,0.193 0.087,0.425 0.12,0.697 0.031,0.272 0.048,0.544 0.048,0.816 0,1.104 -0.167,2.145 -0.504,3.121 -0.336,0.977 -0.865,1.849 -1.585,2.618 -0.768,0.817 -1.69,1.449 -2.761,1.897 -1.073,0.448 -2.298,0.672 -3.674,0.672 -1.249,0 -2.426,-0.224 -3.53,-0.672 -1.104,-0.447 -2.065,-1.072 -2.881,-1.873 -0.816,-0.8 -1.465,-1.749 -1.945,-2.845 -0.48,-1.097 -0.72,-2.293 -0.72,-3.59 0,-1.296 0.24,-2.493 0.72,-3.589 0.48,-1.096 1.129,-2.045 1.945,-2.845 0.816,-0.8 1.777,-1.425 2.881,-1.873 1.104,-0.448 2.281,-0.672 3.53,-0.672 1.392,0 2.637,0.24 3.734,0.72 1.097,0.48 2.036,1.144 2.821,1.993 l -2.232,2.185 c -0.562,-0.592 -1.185,-1.044 -1.874,-1.357 -0.689,-0.313 -1.513,-0.468 -2.473,-0.468 -0.786,0 -1.53,0.14 -2.234,0.421 -0.705,0.28 -1.321,0.676 -1.85,1.188 -0.527,0.512 -0.949,1.133 -1.259,1.861 -0.312,0.728 -0.469,1.541 -0.469,2.437 0,0.897 0.157,1.709 0.469,2.438 0.311,0.728 0.735,1.349 1.271,1.861 0.536,0.512 1.156,0.909 1.862,1.188 0.704,0.281 1.457,0.421 2.258,0.421 0.911,0 1.684,-0.132 2.317,-0.396 0.632,-0.264 1.171,-0.604 1.62,-1.021 0.321,-0.288 0.598,-0.652 0.829,-1.092 0.231,-0.44 0.412,-0.932 0.541,-1.477 h -5.404 z"
   id="path4220" />
			</g>
			<g
   id="g4226">
				<path
   style="fill:#ffffff"
   d="m 443.437,859.493 c -0.013,-2.665 -2.087,-4.618 -4.766,-4.659 -2.011,-0.031 -1.81,0.261 -1.815,-1.887 -0.006,-2.389 -0.015,-4.778 0.006,-7.166 0.007,-0.824 -0.243,-1.505 -0.787,-2.125 -5.098,-5.81 -10.184,-11.63 -15.281,-17.441 -0.262,-0.299 -0.599,-0.532 -0.901,-0.796 -13.528,0 -27.055,0 -40.583,0 -1.729,0.639 -2.482,1.889 -2.478,3.72 0.021,8.159 0.009,16.318 0.008,24.478 0,1.21 -0.007,1.281 -1.197,1.201 -3.258,-0.221 -5.477,2.147 -5.436,5.426 0.096,7.568 0.028,15.137 0.031,22.706 10e-4,3.44 1.887,5.32 5.333,5.331 1.267,0.004 1.268,0.004 1.268,1.306 10e-4,4.831 -0.002,9.662 0.002,14.493 0.002,2.595 1.262,3.855 3.85,3.855 17.446,0.001 34.891,0.001 52.337,0 2.543,0 3.822,-1.268 3.824,-3.799 0.005,-4.912 0.001,-9.823 0.003,-14.735 0,-1.115 0.004,-1.112 1.131,-1.121 0.589,-0.005 1.177,0.017 1.761,-0.127 2.169,-0.535 3.68,-2.273 3.689,-4.503 0.034,-8.053 0.039,-16.105 0.001,-24.157 z m -61.939,-30.777 c 11.619,-10e-4 23.237,-10e-4 34.856,0 1.192,0 1.206,0.015 1.207,1.222 0.001,4.884 -10e-4,9.767 0.002,14.651 0.001,1.765 0.543,2.305 2.307,2.306 4.159,0.003 8.318,0 12.477,0.003 0.997,10e-4 1.044,0.046 1.046,1.052 0.006,1.932 0.005,3.864 0,5.796 -0.003,1.038 -0.051,1.085 -1.098,1.085 -8.479,0.002 -16.958,10e-4 -25.438,10e-4 -8.452,0 -16.905,0 -25.357,0 -1.198,0 -1.202,-0.003 -1.202,-1.221 -10e-4,-7.889 -10e-4,-15.778 0,-23.667 10e-4,-1.22 0.01,-1.228 1.2,-1.228 z m 50.694,74.929 c -8.454,10e-4 -16.908,10e-4 -25.362,10e-4 -8.427,0 -16.854,0.001 -25.281,0 -1.245,0 -1.249,-0.003 -1.249,-1.262 -0.001,-4.348 -0.002,-8.696 10e-4,-13.043 0.001,-1.01 0.051,-1.059 1.041,-1.059 16.989,-0.002 33.977,-0.002 50.966,0 1.041,0 1.086,0.044 1.087,1.094 0.003,4.348 0.003,8.696 0.001,13.043 -0.002,1.215 -0.012,1.226 -1.204,1.226 z"
   id="path4224" />
			</g>
			<g
   id="g4232">
				<path
   style="fill:#ffffff"
   d="m 402.272,862.699 h 3.698 l 6.46,17.193 h -3.578 l -1.416,-4.106 h -6.628 l -1.417,4.106 h -3.578 z m 4.107,10.109 -1.537,-4.298 -0.625,-2.089 h -0.192 l -0.625,2.089 -1.537,4.298 z"
   id="path4228" />
				<path
   style="fill:#ffffff"
   d="m 415.815,866.541 c -0.273,0 -0.533,-0.052 -0.781,-0.156 -0.248,-0.104 -0.465,-0.248 -0.648,-0.432 -0.184,-0.184 -0.328,-0.396 -0.432,-0.636 -0.105,-0.241 -0.156,-0.504 -0.156,-0.793 0,-0.289 0.052,-0.552 0.156,-0.793 0.104,-0.24 0.248,-0.452 0.432,-0.636 0.184,-0.184 0.4,-0.328 0.648,-0.432 0.248,-0.104 0.508,-0.156 0.781,-0.156 0.56,0 1.041,0.196 1.441,0.588 0.4,0.393 0.601,0.869 0.601,1.429 0,0.56 -0.201,1.037 -0.601,1.428 -0.4,0.393 -0.881,0.589 -1.441,0.589 z m -1.56,13.35 v -11.766 h 3.145 v 11.766 z"
   id="path4230" />
			</g>
			<g
   id="g4236">
				<path
   style="fill:#ffffff"
   d="m 524.043,859.493 c -0.013,-2.665 -2.087,-4.618 -4.766,-4.659 -2.011,-0.031 -1.81,0.261 -1.815,-1.887 -0.006,-2.389 -0.015,-4.778 0.006,-7.166 0.007,-0.824 -0.243,-1.505 -0.787,-2.125 -5.098,-5.81 -10.184,-11.63 -15.281,-17.441 -0.262,-0.299 -0.599,-0.532 -0.901,-0.796 -13.528,0 -27.055,0 -40.583,0 -1.729,0.639 -2.482,1.889 -2.478,3.72 0.021,8.159 0.009,16.318 0.008,24.478 0,1.21 -0.007,1.281 -1.197,1.201 -3.258,-0.221 -5.477,2.147 -5.436,5.426 0.096,7.568 0.028,15.137 0.031,22.706 0.001,3.44 1.887,5.32 5.333,5.331 1.267,0.004 1.268,0.004 1.268,1.306 0.001,4.831 -0.002,9.662 0.002,14.493 0.002,2.595 1.262,3.855 3.85,3.855 17.446,0.001 34.891,0.001 52.337,0 2.543,0 3.822,-1.268 3.824,-3.799 0.005,-4.912 10e-4,-9.823 0.003,-14.735 0,-1.115 0.004,-1.112 1.131,-1.121 0.589,-0.005 1.177,0.017 1.761,-0.127 2.169,-0.535 3.68,-2.273 3.689,-4.503 0.034,-8.053 0.039,-16.105 10e-4,-24.157 z m -61.939,-30.777 c 11.619,-10e-4 23.237,-10e-4 34.856,0 1.192,0 1.206,0.015 1.207,1.222 0.001,4.884 -10e-4,9.767 0.002,14.651 0.001,1.765 0.543,2.305 2.307,2.306 4.159,0.003 8.318,0 12.477,0.003 0.997,10e-4 1.044,0.046 1.046,1.052 0.006,1.932 0.005,3.864 0,5.796 -0.003,1.038 -0.051,1.085 -1.098,1.085 -8.479,0.002 -16.958,10e-4 -25.438,10e-4 -8.452,0 -16.905,0 -25.357,0 -1.198,0 -1.202,-0.003 -1.202,-1.221 -10e-4,-7.889 -10e-4,-15.778 0,-23.667 10e-4,-1.22 0.01,-1.228 1.2,-1.228 z m 50.694,74.929 c -8.454,10e-4 -16.908,10e-4 -25.362,10e-4 -8.427,0 -16.854,0.001 -25.281,0 -1.245,0 -1.249,-0.003 -1.249,-1.262 -0.001,-4.348 -0.002,-8.696 10e-4,-13.043 0.001,-1.01 0.051,-1.059 1.041,-1.059 16.989,-0.002 33.977,-0.002 50.966,0 1.041,0 1.086,0.044 1.087,1.094 0.003,4.348 0.003,8.696 10e-4,13.043 -0.002,1.215 -0.013,1.226 -1.204,1.226 z"
   id="path4234" />
			</g>
			<g
   id="g4244">
				<path
   style="fill:#ffffff"
   d="m 470.308,880.275 c -0.737,0 -1.441,-0.104 -2.113,-0.312 -0.672,-0.208 -1.289,-0.52 -1.849,-0.936 -0.56,-0.416 -1.048,-0.925 -1.464,-1.525 -0.417,-0.601 -0.745,-1.301 -0.985,-2.101 l 3.049,-1.2 c 0.224,0.864 0.616,1.581 1.177,2.149 0.561,0.568 1.297,0.852 2.209,0.852 0.336,0 0.66,-0.044 0.973,-0.132 0.312,-0.087 0.592,-0.216 0.84,-0.384 0.248,-0.168 0.444,-0.38 0.589,-0.636 0.144,-0.256 0.216,-0.552 0.216,-0.888 0,-0.32 -0.056,-0.608 -0.168,-0.865 -0.112,-0.255 -0.3,-0.495 -0.564,-0.72 -0.264,-0.224 -0.609,-0.44 -1.033,-0.648 -0.424,-0.208 -0.948,-0.424 -1.572,-0.648 l -1.056,-0.384 c -0.465,-0.16 -0.933,-0.376 -1.405,-0.648 -0.472,-0.272 -0.9,-0.6 -1.284,-0.985 -0.385,-0.384 -0.701,-0.836 -0.949,-1.357 -0.249,-0.52 -0.372,-1.108 -0.372,-1.765 0,-0.672 0.132,-1.301 0.396,-1.885 0.264,-0.584 0.64,-1.096 1.129,-1.537 0.488,-0.44 1.072,-0.784 1.753,-1.032 0.681,-0.248 1.437,-0.372 2.269,-0.372 0.864,0 1.612,0.116 2.245,0.348 0.633,0.232 1.168,0.528 1.609,0.888 0.44,0.36 0.796,0.757 1.068,1.188 0.272,0.433 0.472,0.84 0.601,1.225 l -2.857,1.2 c -0.161,-0.48 -0.453,-0.913 -0.876,-1.297 -0.425,-0.384 -1.005,-0.576 -1.741,-0.576 -0.704,0 -1.289,0.164 -1.753,0.492 -0.465,0.329 -0.697,0.757 -0.697,1.285 0,0.512 0.224,0.949 0.672,1.309 0.448,0.36 1.161,0.708 2.137,1.044 l 1.081,0.36 c 0.688,0.241 1.316,0.517 1.885,0.828 0.568,0.312 1.056,0.684 1.465,1.117 0.408,0.433 0.72,0.925 0.936,1.477 0.217,0.552 0.324,1.189 0.324,1.909 0,0.897 -0.18,1.669 -0.54,2.317 -0.36,0.648 -0.82,1.181 -1.38,1.597 -0.561,0.416 -1.193,0.728 -1.897,0.936 -0.708,0.209 -1.396,0.312 -2.068,0.312 z"
   id="path4238" />
				<path
   style="fill:#ffffff"
   d="m 477.175,862.699 h 3.506 l 3.554,10.349 0.625,2.209 h 0.192 l 0.672,-2.209 3.698,-10.349 h 3.506 l -6.268,17.193 h -3.409 z"
   id="path4240" />
				<path
   style="fill:#ffffff"
   d="m 502.388,870.454 h 8.428 c 0.048,0.193 0.088,0.425 0.12,0.697 0.033,0.272 0.049,0.544 0.049,0.816 0,1.104 -0.169,2.145 -0.505,3.121 -0.336,0.977 -0.864,1.849 -1.585,2.618 -0.768,0.817 -1.688,1.449 -2.761,1.897 -1.073,0.448 -2.298,0.672 -3.674,0.672 -1.249,0 -2.425,-0.224 -3.529,-0.672 -1.105,-0.447 -2.066,-1.072 -2.882,-1.873 -0.816,-0.8 -1.465,-1.749 -1.945,-2.845 -0.48,-1.097 -0.72,-2.293 -0.72,-3.59 0,-1.296 0.241,-2.493 0.72,-3.589 0.48,-1.097 1.129,-2.045 1.945,-2.845 0.816,-0.8 1.777,-1.425 2.882,-1.873 1.104,-0.448 2.28,-0.672 3.529,-0.672 1.392,0 2.637,0.24 3.734,0.72 1.097,0.48 2.038,1.144 2.822,1.993 l -2.234,2.185 c -0.56,-0.592 -1.185,-1.044 -1.874,-1.357 -0.687,-0.312 -1.512,-0.468 -2.473,-0.468 -0.784,0 -1.528,0.14 -2.234,0.421 -0.704,0.28 -1.321,0.676 -1.848,1.188 -0.528,0.512 -0.949,1.133 -1.261,1.861 -0.312,0.728 -0.468,1.541 -0.468,2.437 0,0.897 0.156,1.709 0.468,2.438 0.312,0.728 0.737,1.349 1.273,1.861 0.536,0.512 1.156,0.909 1.86,1.188 0.705,0.281 1.457,0.421 2.258,0.421 0.913,0 1.685,-0.132 2.317,-0.396 0.632,-0.264 1.173,-0.604 1.621,-1.021 0.32,-0.288 0.596,-0.652 0.828,-1.092 0.233,-0.44 0.412,-0.932 0.541,-1.477 h -5.402 z"
   id="path4242" />
			</g>
			<g
   id="g4248">
				<path
   style="fill:#ffffff"
   d="m 602.976,859.493 c -0.013,-2.665 -2.087,-4.618 -4.766,-4.659 -2.011,-0.031 -1.81,0.261 -1.815,-1.887 -0.006,-2.389 -0.015,-4.778 0.006,-7.166 0.007,-0.824 -0.243,-1.505 -0.787,-2.125 -5.098,-5.81 -10.184,-11.63 -15.281,-17.441 -0.262,-0.299 -0.599,-0.532 -0.901,-0.796 -13.528,0 -27.055,0 -40.583,0 -1.729,0.639 -2.482,1.889 -2.478,3.72 0.021,8.159 0.009,16.318 0.008,24.478 0,1.21 -0.007,1.281 -1.197,1.201 -3.258,-0.221 -5.477,2.147 -5.436,5.426 0.096,7.568 0.028,15.137 0.031,22.706 10e-4,3.44 1.887,5.32 5.333,5.331 1.267,0.004 1.268,0.004 1.268,1.306 10e-4,4.831 -0.002,9.662 0.002,14.493 0.002,2.595 1.262,3.855 3.85,3.855 17.446,0.001 34.891,0.001 52.337,0 2.543,0 3.822,-1.268 3.824,-3.799 0.005,-4.912 0.001,-9.823 0.003,-14.735 0,-1.115 0.005,-1.112 1.131,-1.121 0.589,-0.005 1.178,0.017 1.761,-0.127 2.169,-0.535 3.68,-2.273 3.689,-4.503 0.035,-8.053 0.04,-16.105 10e-4,-24.157 z m -61.939,-30.777 c 11.619,-10e-4 23.237,-10e-4 34.856,0 1.193,0 1.206,0.015 1.207,1.222 10e-4,4.884 -0.002,9.767 0.002,14.651 10e-4,1.765 0.543,2.305 2.307,2.306 4.159,0.003 8.318,0 12.477,0.003 0.997,10e-4 1.044,0.046 1.046,1.052 0.006,1.932 0.005,3.864 0,5.796 -0.003,1.038 -0.051,1.085 -1.098,1.085 -8.479,0.002 -16.958,10e-4 -25.438,10e-4 -8.452,0 -16.905,0 -25.357,0 -1.198,0 -1.202,-0.003 -1.202,-1.221 -10e-4,-7.889 -10e-4,-15.778 0,-23.667 10e-4,-1.22 0.01,-1.228 1.2,-1.228 z m 50.694,74.929 c -8.454,10e-4 -16.908,10e-4 -25.362,10e-4 -8.427,0 -16.854,0.001 -25.281,0 -1.245,0 -1.249,-0.003 -1.249,-1.262 -0.001,-4.348 -0.003,-8.696 10e-4,-13.043 10e-4,-1.01 0.051,-1.059 1.041,-1.059 16.989,-0.002 33.977,-0.002 50.966,0 1.041,0 1.086,0.044 1.087,1.094 0.003,4.348 0.003,8.696 10e-4,13.043 -10e-4,1.215 -0.012,1.226 -1.204,1.226 z"
   id="path4246" />
			</g>
			<g
   id="g4256">
				<path
   style="fill:#ffffff"
   d="m 549.998,865.772 v 3.986 h 6.891 v 3.074 h -6.891 v 3.986 h 7.659 v 3.073 h -10.901 v -17.193 h 10.901 v 3.073 h -7.659 z"
   id="path4250" />
				<path
   style="fill:#ffffff"
   d="m 560.635,879.891 v -17.193 h 6.051 c 0.816,0 1.581,0.132 2.293,0.396 0.712,0.264 1.333,0.636 1.861,1.117 0.528,0.48 0.944,1.053 1.249,1.717 0.304,0.665 0.456,1.397 0.456,2.198 0,0.816 -0.152,1.557 -0.456,2.221 -0.305,0.664 -0.721,1.236 -1.249,1.717 -0.528,0.48 -1.149,0.852 -1.861,1.117 -0.713,0.264 -1.477,0.396 -2.293,0.396 h -2.809 v 6.315 h -3.242 z m 6.1,-9.388 c 0.848,0 1.489,-0.241 1.921,-0.721 0.432,-0.48 0.648,-1.032 0.648,-1.656 0,-0.304 -0.052,-0.601 -0.156,-0.889 -0.105,-0.288 -0.264,-0.54 -0.48,-0.756 -0.216,-0.217 -0.484,-0.388 -0.805,-0.516 -0.32,-0.129 -0.696,-0.193 -1.128,-0.193 h -2.857 v 4.731 z"
   id="path4252" />
				<path
   style="fill:#ffffff"
   d="m 580.109,880.275 c -0.737,0 -1.441,-0.104 -2.113,-0.312 -0.672,-0.208 -1.289,-0.52 -1.849,-0.936 -0.56,-0.416 -1.049,-0.925 -1.465,-1.525 -0.416,-0.601 -0.744,-1.301 -0.985,-2.101 l 3.049,-1.2 c 0.224,0.864 0.616,1.581 1.177,2.149 0.56,0.568 1.296,0.852 2.209,0.852 0.336,0 0.66,-0.044 0.973,-0.132 0.312,-0.087 0.592,-0.216 0.84,-0.384 0.248,-0.168 0.444,-0.38 0.588,-0.636 0.144,-0.256 0.217,-0.552 0.217,-0.888 0,-0.32 -0.057,-0.608 -0.168,-0.865 -0.112,-0.255 -0.3,-0.495 -0.565,-0.72 -0.264,-0.224 -0.608,-0.44 -1.032,-0.648 -0.424,-0.208 -0.949,-0.424 -1.573,-0.648 l -1.056,-0.384 c -0.465,-0.16 -0.932,-0.376 -1.404,-0.648 -0.473,-0.272 -0.901,-0.6 -1.285,-0.985 -0.384,-0.384 -0.701,-0.836 -0.949,-1.357 -0.248,-0.52 -0.372,-1.108 -0.372,-1.765 0,-0.672 0.132,-1.301 0.396,-1.885 0.264,-0.584 0.64,-1.096 1.129,-1.537 0.489,-0.44 1.073,-0.784 1.753,-1.032 0.68,-0.248 1.437,-0.372 2.269,-0.372 0.865,0 1.613,0.116 2.246,0.348 0.632,0.232 1.168,0.528 1.609,0.888 0.44,0.36 0.796,0.757 1.068,1.188 0.272,0.433 0.472,0.84 0.601,1.225 l -2.857,1.2 c -0.161,-0.48 -0.453,-0.913 -0.877,-1.297 -0.424,-0.384 -1.005,-0.576 -1.741,-0.576 -0.705,0 -1.289,0.164 -1.753,0.492 -0.465,0.329 -0.696,0.757 -0.696,1.285 0,0.512 0.224,0.949 0.672,1.309 0.448,0.36 1.16,0.708 2.137,1.044 l 1.08,0.36 c 0.689,0.241 1.317,0.517 1.885,0.828 0.568,0.312 1.056,0.684 1.465,1.117 0.408,0.433 0.72,0.925 0.936,1.477 0.216,0.552 0.324,1.189 0.324,1.909 0,0.897 -0.18,1.669 -0.54,2.317 -0.36,0.648 -0.821,1.181 -1.38,1.597 -0.561,0.416 -1.193,0.728 -1.897,0.936 -0.705,0.209 -1.393,0.312 -2.066,0.312 z"
   id="path4254" />
			</g>
			<g
   id="g4264">
				<path
   style="fill:#ffffff"
   d="m 655.431,876.625 8.716,-10.854 h -8.332 v -3.073 h 12.103 v 3.266 l -8.621,10.854 h 8.716 v 3.073 h -12.582 z"
   id="path4258" />
				<path
   style="fill:#ffffff"
   d="m 670.702,862.699 h 3.242 v 17.193 h -3.242 z"
   id="path4260" />
				<path
   style="fill:#ffffff"
   d="m 677.402,879.891 v -17.193 h 6.051 c 0.817,0 1.581,0.132 2.293,0.396 0.712,0.264 1.333,0.636 1.861,1.117 0.528,0.481 0.944,1.053 1.249,1.717 0.304,0.665 0.456,1.397 0.456,2.198 0,0.816 -0.152,1.557 -0.456,2.221 -0.305,0.664 -0.721,1.236 -1.249,1.717 -0.528,0.481 -1.149,0.852 -1.861,1.117 -0.713,0.264 -1.477,0.396 -2.293,0.396 h -2.809 v 6.315 h -3.242 z m 6.099,-9.388 c 0.848,0 1.489,-0.241 1.921,-0.721 0.433,-0.48 0.648,-1.032 0.648,-1.656 0,-0.304 -0.052,-0.601 -0.156,-0.889 -0.105,-0.288 -0.264,-0.54 -0.48,-0.756 -0.216,-0.217 -0.484,-0.388 -0.805,-0.516 -0.32,-0.129 -0.696,-0.193 -1.128,-0.193 h -2.857 v 4.731 z"
   id="path4262" />
			</g>
		</g>
		<g
   style="opacity:0.61"
   id="g4270">
			<path
   style="fill:#ffffff"
   d="m 609.144,863.785 h 19.739 v 4.881 h -19.739 z m 0,8.416 h 19.739 v 4.884 h -19.739 z"
   id="path4268" />
		</g>
	</g>
	<g
   style="opacity:0.61"
   id="g4318">
		<path
   style="fill:#ffffff"
   d="m 297,963.076 h 3.498 c 2.75,0 4.603,1.768 4.603,4.297 0,2.529 -1.854,4.296 -4.603,4.296 H 297 Z m 3.449,7.807 c 2.283,0 3.756,-1.448 3.756,-3.51 0,-2.062 -1.473,-3.511 -3.756,-3.511 h -2.541 v 7.021 z"
   id="path4274" />
		<path
   style="fill:#ffffff"
   d="m 315.251,967.373 c 0,-2.504 1.915,-4.37 4.517,-4.37 2.577,0 4.505,1.853 4.505,4.37 0,2.516 -1.927,4.369 -4.505,4.369 -2.602,0 -4.517,-1.865 -4.517,-4.369 z m 8.114,0 c 0,-2.05 -1.534,-3.56 -3.596,-3.56 -2.075,0 -3.621,1.51 -3.621,3.56 0,2.049 1.546,3.559 3.621,3.559 2.062,0 3.596,-1.51 3.596,-3.559 z"
   id="path4276" />
		<path
   style="fill:#ffffff"
   d="m 346.724,963.076 -2.897,8.593 h -0.957 l -2.516,-7.328 -2.529,7.328 h -0.945 l -2.897,-8.593 h 0.933 l 2.479,7.389 2.566,-7.389 h 0.847 l 2.529,7.426 2.516,-7.426 z"
   id="path4278" />
		<path
   style="fill:#ffffff"
   d="m 364.435,963.076 v 8.593 h -0.749 l -5.524,-6.972 v 6.972 h -0.908 v -8.593 h 0.749 l 5.536,6.973 v -6.973 z"
   id="path4280" />
		<path
   style="fill:#ffffff"
   d="m 376.108,963.076 h 0.908 v 7.807 h 4.812 v 0.786 h -5.72 z"
   id="path4282" />
		<path
   style="fill:#ffffff"
   d="m 391.279,967.373 c 0,-2.504 1.915,-4.37 4.517,-4.37 2.577,0 4.505,1.853 4.505,4.37 0,2.516 -1.927,4.369 -4.505,4.369 -2.602,0 -4.517,-1.865 -4.517,-4.369 z m 8.113,0 c 0,-2.05 -1.534,-3.56 -3.596,-3.56 -2.075,0 -3.621,1.51 -3.621,3.56 0,2.049 1.546,3.559 3.621,3.559 2.062,0 3.596,-1.51 3.596,-3.559 z"
   id="path4284" />
		<path
   style="fill:#ffffff"
   d="m 416.478,969.374 h -4.787 l -1.031,2.295 h -0.945 l 3.928,-8.593 h 0.896 l 3.928,8.593 h -0.957 z m -0.331,-0.737 -2.062,-4.615 -2.062,4.615 z"
   id="path4286" />
		<path
   style="fill:#ffffff"
   d="m 428.765,963.076 h 3.498 c 2.75,0 4.603,1.768 4.603,4.297 0,2.529 -1.854,4.296 -4.603,4.296 h -3.498 z m 3.449,7.807 c 2.283,0 3.756,-1.448 3.756,-3.51 0,-2.062 -1.473,-3.511 -3.756,-3.511 h -2.541 v 7.021 z"
   id="path4288" />
		<path
   style="fill:#ffffff"
   d="m 465.256,969.374 h -4.787 l -1.031,2.295 h -0.945 l 3.928,-8.593 h 0.896 l 3.928,8.593 h -0.957 z m -0.331,-0.737 -2.062,-4.615 -2.062,4.615 z"
   id="path4290" />
		<path
   style="fill:#ffffff"
   d="m 477.543,963.076 h 0.908 v 7.807 h 4.812 v 0.786 h -5.72 z"
   id="path4292" />
		<path
   style="fill:#ffffff"
   d="m 493.647,963.076 h 0.908 v 7.807 h 4.812 v 0.786 h -5.72 z"
   id="path4294" />
		<path
   style="fill:#ffffff"
   d="m 522.749,963.862 v 3.376 h 4.443 v 0.786 h -4.443 v 3.646 h -0.909 v -8.593 h 5.891 v 0.786 h -4.982 z"
   id="path4296" />
		<path
   style="fill:#ffffff"
   d="m 538.485,963.076 h 0.909 v 8.593 h -0.909 z"
   id="path4298" />
		<path
   style="fill:#ffffff"
   d="m 551.067,963.076 h 0.909 v 7.807 h 4.811 v 0.786 h -5.72 z"
   id="path4300" />
		<path
   style="fill:#ffffff"
   d="m 573.246,970.883 v 0.786 h -6.076 v -8.593 h 5.891 v 0.786 h -4.983 v 3.056 h 4.443 v 0.774 h -4.443 v 3.191 z"
   id="path4302" />
		<path
   style="fill:#ffffff"
   d="m 597.255,963.862 v 3.376 h 4.443 v 0.786 h -4.443 v 3.646 h -0.909 v -8.593 h 5.891 v 0.786 h -4.982 z"
   id="path4304" />
		<path
   style="fill:#ffffff"
   d="m 612.119,967.373 c 0,-2.504 1.915,-4.37 4.517,-4.37 2.577,0 4.505,1.853 4.505,4.37 0,2.516 -1.927,4.369 -4.505,4.369 -2.602,0 -4.517,-1.865 -4.517,-4.369 z m 8.113,0 c 0,-2.05 -1.534,-3.56 -3.596,-3.56 -2.075,0 -3.622,1.51 -3.622,3.56 0,2.049 1.547,3.559 3.622,3.559 2.062,0 3.596,-1.51 3.596,-3.559 z"
   id="path4306" />
		<path
   style="fill:#ffffff"
   d="m 637.919,971.669 -1.963,-2.762 c -0.222,0.024 -0.442,0.037 -0.688,0.037 h -2.307 v 2.725 h -0.909 v -8.593 h 3.216 c 2.185,0 3.511,1.105 3.511,2.946 0,1.351 -0.712,2.295 -1.964,2.7 l 2.099,2.946 h -0.995 z m -0.048,-5.647 c 0,-1.375 -0.909,-2.161 -2.627,-2.161 h -2.283 v 4.309 h 2.283 c 1.718,0 2.627,-0.797 2.627,-2.148 z"
   id="path4308" />
		<path
   style="fill:#ffffff"
   d="m 658.724,963.076 v 8.593 h -0.871 v -6.874 l -3.376,5.782 h -0.429 l -3.376,-5.745 v 6.837 H 649.8 v -8.593 h 0.749 l 3.732,6.371 3.695,-6.371 z"
   id="path4310" />
		<path
   style="fill:#ffffff"
   d="m 675.787,969.374 h -4.788 l -1.031,2.295 h -0.946 l 3.928,-8.593 h 0.896 l 3.928,8.593 h -0.957 z m -0.332,-0.737 -2.062,-4.615 -2.062,4.615 z"
   id="path4312" />
		<path
   style="fill:#ffffff"
   d="m 689.312,963.862 h -3.02 v -0.786 h 6.948 v 0.786 h -3.02 v 7.807 h -0.908 z"
   id="path4314" />
		<path
   style="fill:#ffffff"
   d="m 702.605,970.626 0.356,-0.7 c 0.614,0.601 1.706,1.043 2.835,1.043 1.608,0 2.308,-0.675 2.308,-1.522 0,-2.357 -5.29,-0.908 -5.29,-4.087 0,-1.265 0.982,-2.357 3.167,-2.357 0.97,0 1.976,0.282 2.664,0.761 l -0.307,0.724 c -0.737,-0.479 -1.596,-0.712 -2.357,-0.712 -1.571,0 -2.271,0.7 -2.271,1.559 0,2.357 5.29,0.933 5.29,4.063 0,1.265 -1.006,2.344 -3.204,2.344 -1.288,0 -2.553,-0.454 -3.191,-1.116 z"
   id="path4316" />
	</g>
</g>
<g
   id="g4321">
</g>
<polygon
   style="clip-rule:evenodd;fill:#ffffff;fill-rule:evenodd"
   points="900,100 900,900 100,900 100,100 "
   id="polygon4323"
   transform="matrix(0.22222222,0,0,0.22222222,795.67308,335.33654)" /><path
   style="fill:none;stroke:#ffffff;stroke-width:0.0293778;stroke-linecap:round;stroke-linejoin:round;stroke-miterlimit:2.6131"
   d="m 653.75352,218.57442 v 0 0 m 0,0 v 0 m 0,0 v 0 0 m 0,0 v 0 m 0,0 v 0 m 0,0 v 0 m 0,0 v 0 0 0 m 0,0 v 0 0 m 0.0751,0 h -0.0751 v 0 h 0.0751 v 0 h -0.0751"
   id="path4467" /><g
   id="g4873"
   transform="matrix(1.2333967,0,0,1.2333967,-671.53208,-165.97865)"><path
     style="clip-rule:evenodd;fill:#003671;fill-rule:evenodd;stroke-width:0.222222"
     d="m 624.97086,296.7242 -65.53178,-89.658 45.842,-24.67111 c 8.71755,0 30.58644,0 39.304,0 l 45.91711,24.67111 z"
     id="path4325" /><path
     style="clip-rule:evenodd;fill:#ffffff;fill-rule:evenodd;stroke-width:0.222222"
     d="m 564.24864,207.96864 42.68577,-22.11355 h 36.07245 l 42.68577,22.11355 -60.72177,83.11422 z m 2.63044,0.60178 58.09178,79.50378 58.09155,-79.50378 -40.50622,-20.91 h -35.17067 z"
     id="path4327" /><path
     style="clip-rule:evenodd;fill:#003671;fill-rule:evenodd;stroke-width:0.222222"
     d="m 624.62641,287.60309 0.34422,0.47111 0.42178,-0.57689 c -0.25511,0.0349 -0.50978,0.0731 -0.766,0.10578 z"
     id="path4329" /><path
     style="clip-rule:evenodd;fill:#003975;fill-rule:evenodd;stroke-width:0.222222"
     d="m 624.62641,287.60309 c 0.25622,-0.0327 0.51089,-0.0709 0.766,-0.106 l 0.92845,-1.27089 c -0.81489,0.126 -1.63534,0.23377 -2.45934,0.33 z m 57.94045,-78.35445 0.49533,-0.67822 -0.66489,-0.34333 c 0.058,0.34022 0.11644,0.67977 0.16956,1.02155 z"
     id="path4331" /><path
     style="clip-rule:evenodd;fill:#003c78;fill-rule:evenodd;stroke-width:0.222222"
     d="m 682.50708,209.33042 c -0.0584,-0.38289 -0.12445,-0.76356 -0.18934,-1.14422 l -1.17666,-0.60756 c 0.18044,0.98334 0.33733,1.97511 0.47378,2.97334 z m -58.64556,77.22578 c 0.82423,-0.0965 1.64467,-0.20423 2.45956,-0.33 l 0.88867,-1.21623 c -1.34112,0.22978 -2.69623,0.41956 -4.06334,0.56734 z"
     id="path4333" /><path
     style="clip-rule:evenodd;fill:#00417d;fill-rule:evenodd;stroke-width:0.222222"
     d="m 681.61463,210.55198 c -0.13644,-0.99823 -0.29333,-1.99 -0.47377,-2.97334 l -1.27111,-0.656 c 0.32111,1.62978 0.58111,3.28067 0.77866,4.95134 z m -58.46822,75.02533 c 1.36711,-0.14778 2.722,-0.33756 4.06334,-0.56734 l 0.96622,-1.32266 c -1.90534,0.36266 -3.83889,0.64422 -5.79956,0.83622 z"
     id="path4335" /><path
     style="clip-rule:evenodd;fill:#004480;fill-rule:evenodd;stroke-width:0.222222"
     d="m 680.64841,211.87398 c -0.19733,-1.67067 -0.45755,-3.32156 -0.77866,-4.95134 l -1.20312,-0.62133 c 0.47223,2.23644 0.83112,4.514 1.06378,6.82933 z m -58.27133,72.65066 c 1.95955,-0.192 3.89222,-0.47267 5.79667,-0.83422 l 0.98333,-1.34533 c -2.46956,0.518 -4.99222,0.89133 -7.55733,1.11555 z"
     id="path4337" /><path
     style="clip-rule:evenodd;fill:#004783;fill-rule:evenodd;stroke-width:0.222222"
     d="m 679.6633,213.22198 c -0.234,-2.36178 -0.59844,-4.68467 -1.08133,-6.96423 l -1.21289,-0.62622 c 0.65378,2.88978 1.10955,5.85422 1.35222,8.87978 z m -58.01311,70.30777 c 2.52778,-0.22466 5.01356,-0.59444 7.44933,-1.106 l 0.99667,-1.36444 c -2.998,0.68933 -6.07756,1.16444 -9.22244,1.408 z"
     id="path4339" /><path
     style="clip-rule:evenodd;fill:#004a85;fill-rule:evenodd;stroke-width:0.222222"
     d="m 678.72108,214.51198 c -0.24311,-3.02645 -0.70022,-5.99223 -1.35578,-8.88245 l -1.31578,-0.67911 c 0.86089,3.54911 1.41756,7.21667 1.63867,10.97511 z m -57.84778,67.95444 c 3.14556,-0.24445 6.22756,-0.72133 9.22778,-1.41333 l 1.02978,-1.40912 c -3.56911,0.90334 -7.26089,1.49378 -11.04534,1.74467 z"
     id="path4341" /><path
     style="clip-rule:evenodd;fill:#004e8a;fill-rule:evenodd;stroke-width:0.222222"
     d="m 677.68819,215.92553 c -0.22111,-3.75844 -0.77778,-7.42622 -1.63867,-10.97511 l -1.24777,-0.64422 c 1.08088,4.16644 1.72888,8.50778 1.89822,12.972 z m -57.60267,65.46289 c 3.78423,-0.25067 7.476,-0.84133 11.04534,-1.74467 l 1.05466,-1.44378 c -4.13755,1.14623 -8.45022,1.86689 -12.88889,2.10867 z"
     id="path4343" /><path
     style="clip-rule:evenodd;fill:#00518e;fill-rule:evenodd;stroke-width:0.222222"
     d="m 676.69997,217.2782 c -0.16934,-4.46422 -0.81756,-8.80556 -1.89822,-12.972 l -1.35356,-0.69889 c 1.34089,4.83355 2.08933,9.91489 2.16333,15.16044 z m -57.35111,63.10222 c 4.39755,-0.244 8.67133,-0.95933 12.77333,-2.09378 l 1.08489,-1.48444 c -4.67089,1.41355 -9.58133,2.26822 -14.65578,2.48689 z"
     id="path4345" /><path
     style="clip-rule:evenodd;fill:#005492;fill-rule:evenodd;stroke-width:0.222222"
     d="m 675.68597,218.66531 c -0.0758,-5.18756 -0.81445,-10.216 -2.13534,-15.00511 l -1.47488,-0.76134 c 1.57066,5.30089 2.41933,10.91445 2.41933,16.72823 0,0.22733 -0.006,0.45355 -0.009,0.68022 z m -57.186,60.55333 c 5.10978,-0.20911 10.05466,-1.06378 14.75666,-2.484 l 1.07112,-1.46644 c -5.23845,1.73377 -10.80356,2.74777 -16.57889,2.922 z"
     id="path4347" /><path
     style="clip-rule:evenodd;fill:#005997;fill-rule:evenodd;stroke-width:0.222222"
     d="m 674.4953,219.62709 c 0,-5.81178 -0.85178,-11.42734 -2.42867,-16.73289 l -1.30311,-0.67289 c 1.73867,5.48955 2.67956,11.33644 2.67956,17.40578 0,0.72711 -0.0189,1.44955 -0.0456,2.17044 l 1.08889,-1.49022 c 0.003,-0.22645 0.009,-0.45267 0.009,-0.68022 z m -56.74644,58.56311 c 5.77511,-0.17445 11.34022,-1.18823 16.57889,-2.922 l 1.09377,-1.49667 c -5.77266,2.084 -11.97289,3.26756 -18.42977,3.38267 z"
     id="path4349" /><path
     style="clip-rule:evenodd;fill:#005c9a;fill-rule:evenodd;stroke-width:0.222222"
     d="m 673.44286,219.62709 c 0,-6.06756 -0.94511,-11.91667 -2.69045,-17.41134 l -1.41733,-0.73155 c 1.93155,5.69689 2.98067,11.79978 2.98067,18.14266 0,1.28889 -0.0476,2.56578 -0.13289,3.83289 l 1.21444,-1.66244 c 0.0269,-0.72045 0.0456,-1.44289 0.0456,-2.17022 z m -56.45111,57.52711 c 6.45711,-0.11534 12.65666,-1.29889 18.42977,-3.38267 l 1.20889,-1.65444 c -6.33755,2.50488 -13.238,3.89155 -20.45533,3.91955 z"
     id="path4351" /><path
     style="clip-rule:evenodd;fill:#00609f;fill-rule:evenodd;stroke-width:0.222222"
     d="m 672.31597,219.62709 c 0,-6.34689 -1.05045,-12.44978 -2.98422,-18.14489 l -1.36978,-0.70711 c 2.13489,5.88622 3.30178,12.23444 3.30178,18.852 0,1.84222 -0.0924,3.66289 -0.26867,5.45889 l 1.18822,-1.626 c 0.0851,-1.26712 0.13267,-2.544 0.13267,-3.83289 z m -56.14089,56.40955 c 7.21755,-0.028 14.11755,-1.41467 20.45533,-3.91955 l 1.27111,-1.73956 c -6.73155,2.91467 -14.15289,4.53378 -21.94889,4.53378 -0.20244,0 -0.40333,-0.006 -0.60533,-0.008 z"
     id="path4353" /><path
     style="clip-rule:evenodd;fill:#0064a4;fill-rule:evenodd;stroke-width:0.222222"
     d="m 671.18863,219.62709 c 0,-6.63289 -1.16844,-12.99556 -3.30711,-18.89334 l -1.40755,-0.72689 c 2.36311,6.08578 3.66266,12.70134 3.66266,19.62023 0,2.47866 -0.17022,4.91733 -0.49288,7.308 l 1.26622,-1.73311 c 0.18333,-1.83334 0.27866,-3.69267 0.27866,-5.57489 z m -55.84133,55.27666 c 0.20178,0.002 0.40289,0.008 0.60533,0.008 7.80289,0 15.22556,-1.62222 21.95467,-4.542 l 1.27245,-1.74111 c -7.04023,3.35133 -14.916,5.23 -23.22712,5.23 -0.462,0 -0.92266,-0.006 -1.38222,-0.0178 z"
     id="path4355" /><path
     style="clip-rule:evenodd;fill:#0067a7;fill-rule:evenodd;stroke-width:0.222222"
     d="m 670.21152,219.5522 c 0,-6.86511 -1.28044,-13.43156 -3.60866,-19.47845 l -1.64867,-0.85133 c 2.61067,6.286 4.05489,13.178 4.05489,20.40467 0,3.168 -0.27889,6.27 -0.81022,9.28511 l 1.52466,-2.08689 c 0.31934,-2.37933 0.488,-4.80645 0.488,-7.27311 z m -55.69955,54.20822 c 0.50378,0.0138 1.00866,0.0227 1.51578,0.0227 8.29888,0 16.16333,-1.87378 23.19644,-5.21623 l 1.40133,-1.918 c -7.37022,3.88112 -15.764,6.08111 -24.67289,6.08111 -0.74777,0 -1.49022,-0.0195 -2.23,-0.0504 z"
     id="path4357" /><path
     style="clip-rule:evenodd;fill:#006bab;fill-rule:evenodd;stroke-width:0.222222"
     d="m 669.0093,219.62709 c 0,-7.22667 -1.44422,-14.11867 -4.05489,-20.40467 l -1.48866,-0.76844 c 2.88444,6.47 4.49133,13.63422 4.49133,21.17311 0,3.88755 -0.43245,7.67444 -1.24533,11.32066 l 1.48733,-2.03555 c 0.53111,-3.01467 0.81022,-6.11689 0.81022,-9.28511 z m -55.28689,53.05266 c 0.73978,0.0309 1.48245,0.0505 2.23,0.0505 8.90911,0 17.30245,-2.20022 24.67289,-6.08111 l 1.58356,-2.16711 c -7.70711,4.52177 -16.68045,7.11977 -26.25645,7.11977 -1.03666,0 -2.06489,-0.0344 -3.08689,-0.0944 z"
     id="path4359" /><path
     style="clip-rule:evenodd;fill:#006faf;fill-rule:evenodd;stroke-width:0.222222"
     d="m 667.88197,219.62709 c 0,-7.55467 -1.608,-14.734 -4.49667,-21.21445 l -1.53911,-0.79444 c 3.19356,6.66089 4.98378,14.12466 4.98378,22.00889 0,4.75644 -0.65756,9.36177 -1.88134,13.73355 l 1.66867,-2.28355 c 0.826,-3.68334 1.26467,-7.51445 1.26467,-11.45 z m -55.016,51.88088 c 1.02178,0.06 2.05,0.0938 3.08644,0.0938 9.58111,0 18.54956,-2.59289 26.24978,-7.11066 l 1.70133,-2.32845 c -8.02044,5.29645 -17.62489,8.38578 -27.95111,8.38578 -1.31089,0 -2.60933,-0.0502 -3.89533,-0.148 z"
     id="path4361" /><path
     style="clip-rule:evenodd;fill:#0074b4;fill-rule:evenodd;stroke-width:0.222222"
     d="m 666.82997,219.62709 c 0,-7.88423 -1.79022,-15.348 -4.98378,-22.00889 l -1.67511,-0.86489 c 3.53333,6.85289 5.53155,14.62955 5.53155,22.87378 0,5.81022 -1,11.38844 -2.83177,16.57711 l 2.08911,-2.85911 c 1.21666,-4.364 1.87,-8.96423 1.87,-13.718 z m -54.77267,50.774 c 1.286,0.0976 2.58467,0.14777 3.89511,0.14777 10.31467,0 19.90845,-3.07288 27.92422,-8.34933 l 2.09956,-2.87289 c -8.33956,6.33178 -18.73889,10.094 -30.02378,10.094 -1.61311,0 -3.20644,-0.08 -4.77978,-0.23022 z m -45.17822,-61.83067 0.42578,0.58311 c 0.0647,-0.30267 0.13066,-0.60555 0.20044,-0.90644 z"
     id="path4363" /><path
     style="clip-rule:evenodd;fill:#0078b9;fill-rule:evenodd;stroke-width:0.222222"
     d="m 665.77752,219.5522 c 0,-8.194 -1.978,-15.92022 -5.47911,-22.73289 l -1.82844,-0.94378 c 3.93266,7.02756 6.18066,15.12578 6.18066,23.75156 0,7.16311 -1.558,13.96666 -4.34911,20.09377 l 2.668,-3.65177 c 1.81623,-5.16734 2.808,-10.72489 2.808,-16.51689 z m -98.28755,-11.29711 c -0.0684,0.29422 -0.13133,0.58977 -0.19422,0.88577 l 0.85155,1.16556 c 0.176,-0.90956 0.37578,-1.81044 0.60111,-2.70089 z m 43.61911,60.84866 c 1.61867,0.15845 3.25889,0.24156 4.91867,0.24156 11.24911,0 21.63844,-3.74756 29.98177,-10.064 l 2.65911,-3.63978 c -8.65422,7.858 -20.14044,12.65067 -32.716,12.65067 -1.92155,0 -3.81511,-0.11556 -5.67844,-0.332 z"
     id="path4365" /><path
     style="clip-rule:evenodd;fill:#007bbd;fill-rule:evenodd;stroke-width:0.222222"
     d="m 664.65063,219.62709 c 0,-8.626 -2.248,-16.72423 -6.18066,-23.75156 l -1.84711,-0.95378 c 4.37666,7.19956 6.90044,15.65445 6.90044,24.70534 0,26.25066 -21.34311,47.612 -47.57067,47.612 -2.21777,0 -4.39733,-0.156 -6.53377,-0.44978 l 0.91444,1.252 c 1.84422,0.21244 3.71822,0.326 5.61933,0.326 12.53467,0 23.98556,-4.77933 32.63023,-12.60889 l 11.73533,-16.06089 c 2.78133,-6.12489 4.33244,-12.92133 4.33244,-20.07044 z m -95.90244,-12.02156 c -0.22533,0.89045 -0.42511,1.79133 -0.60111,2.70089 l 0.91644,1.254 c 0.26845,-1.57822 0.61445,-3.13 1.03311,-4.65089 z"
     id="path4367" /><path
     style="clip-rule:evenodd;fill:#007fc1;fill-rule:evenodd;stroke-width:0.222222"
     d="m 663.5233,219.62709 c 0,-9.05111 -2.52355,-17.506 -6.90044,-24.70534 l -1.95467,-1.00911 c 4.88,7.36734 7.72778,16.206 7.72778,25.71445 0,25.64889 -20.81667,46.484 -46.44334,46.484 -2.54266,0 -5.03711,-0.20911 -7.47066,-0.60378 l 0.93666,1.28222 c 2.13645,0.29356 4.316,0.44978 6.53378,0.44978 26.22778,-2.2e-4 47.57089,-21.36133 47.57089,-47.61222 z m -93.42644,-12.71756 c -0.41889,1.52111 -0.76467,3.07267 -1.03311,4.65089 l 0.87689,1.19956 c 0.32977,-2.22934 0.81911,-4.40578 1.45355,-6.52023 z"
     id="path4369" /><path
     style="clip-rule:evenodd;fill:#0081c5;fill-rule:evenodd;stroke-width:0.222222"
     d="m 662.39597,219.62709 c 0,-9.50845 -2.84778,-18.34711 -7.72778,-25.71445 l -2.046,-1.056 c 5.48044,7.50422 8.72178,16.75356 8.72178,26.77045 0,25.04711 -20.366,45.35555 -45.39134,45.35555 -2.88,0 -5.69666,-0.27244 -8.42933,-0.78666 l 0.96111,1.31511 c 2.432,0.39244 4.92534,0.6 7.46822,0.6 25.62645,0 46.44334,-20.83511 46.44334,-46.484 z m -91.00934,-13.38378 c -0.63177,2.11267 -1.11888,4.28778 -1.44755,6.51533 l 0.96067,1.31467 c 0.35933,-2.95022 1.00222,-5.81178 1.89866,-8.55867 z"
     id="path4371" /><path
     style="clip-rule:evenodd;fill:#0087cb;fill-rule:evenodd;stroke-width:0.222222"
     d="m 661.34397,219.62709 c 0,-10.01711 -3.24134,-19.26623 -8.72178,-26.77045 l -2.30067,-1.18778 c 6.184,7.63023 9.89511,17.35689 9.89511,27.95823 0,24.44555 -19.84,44.30244 -44.264,44.30244 -3.20844,0 -6.33644,-0.34578 -9.35222,-0.99667 l 0.988,1.352 c 2.71111,0.50534 5.50556,0.77312 8.36422,0.77312 25.02512,0 45.39134,-20.38378 45.39134,-45.43089 z m -88.554,-14.10778 c -0.89311,2.74511 -1.53289,5.60444 -1.89089,8.55289 l 0.98867,1.35355 c 0.34711,-3.702 1.14777,-7.27111 2.34533,-10.65155 z"
     id="path4373" /><path
     style="clip-rule:evenodd;fill:#008ace;fill-rule:evenodd;stroke-width:0.222222"
     d="m 660.29152,219.5522 c 0,-10.52711 -3.68244,-20.20111 -9.82244,-27.80711 l -2.80889,-1.45 c 7.09333,7.704 11.42911,18.00244 11.42911,29.332 0,23.84355 -19.31378,43.17444 -43.13667,43.17444 -3.57288,0 -7.044,-0.43867 -10.36733,-1.25822 l 0.94067,1.28755 c 3.06155,0.66845 6.23933,1.02378 9.502,1.02378 24.42378,0 44.26355,-19.85733 44.26355,-44.30244 z m -86.07311,-14.77045 c -1.19533,3.37734 -1.99289,6.94178 -2.33578,10.63711 l 0.95712,1.30978 c 0.29377,-4.444 1.25777,-8.70222 2.79111,-12.67578 z"
     id="path4375" /><path
     style="clip-rule:evenodd;fill:#008ed3;fill-rule:evenodd;stroke-width:0.222222"
     d="m 659.0893,219.62709 c 0,-11.32178 -4.35689,-21.64111 -11.48155,-29.35934 l -3.18823,-1.64577 c 8.368,7.70177 13.61778,18.74533 13.61778,31.00511 0,23.242 -18.86311,42.12133 -42.08467,42.12133 -3.93422,0 -7.74177,-0.54467 -11.35533,-1.55756 l 0.988,1.35245 c 3.32333,0.81955 6.79445,1.25822 10.36733,1.25822 23.82289,0 43.13667,-19.33067 43.13667,-43.17444 z m -83.444,-15.58223 c -1.54089,3.97934 -2.50955,8.24089 -2.80489,12.68423 l 1.05578,1.44489 c 0.17933,-5.27423 1.32733,-10.30512 3.27556,-14.91712 z"
     id="path4377" /><path
     style="clip-rule:evenodd;fill:#008ed3;fill-rule:evenodd;stroke-width:0.222222"
     d="m 659.6153,219.62709 c 0,-10.95889 -4.02644,-20.98778 -10.67889,-28.67356 l -2.84978,-1.47089 c 7.70778,7.71867 12.47667,18.37711 12.47667,30.14445 0,23.46777 -19.08844,42.57244 -42.61067,42.57244 -3.77666,0 -7.438,-0.49578 -10.92533,-1.42 l 1.04089,1.42467 c 3.17756,0.73444 6.48578,1.12355 9.88444,1.12355 24.12356,4.5e-4 43.66267,-19.556 43.66267,-43.70066 z m -84.674,-15.21845 c -1.36733,3.68045 -2.25333,7.59378 -2.58178,11.66267 l 1.03645,1.41778 c 0.24111,-4.88 1.30466,-9.54378 3.05178,-13.85823 z"
     id="path4379" /><path
     style="clip-rule:evenodd;fill:#0091d5;fill-rule:evenodd;stroke-width:0.222222"
     d="m 658.48797,219.62709 c 0,-11.78823 -4.76756,-22.46334 -12.48045,-30.18511 l -3.45133,-1.78178 h -0.124 c 9.16756,7.61378 15.00356,19.104 15.00356,31.96689 0,22.86577 -18.56245,41.44444 -41.48334,41.44444 -4.17444,0 -8.20289,-0.61978 -12.002,-1.76578 l 1.08156,1.48023 c 3.48622,0.92022 7.14533,1.41355 10.92044,1.41355 23.52245,2.2e-4 42.53556,-19.02955 42.53556,-42.57244 z m -82.04022,-15.99623 c -1.74712,4.31445 -2.81067,8.97823 -3.05178,13.85823 l 1.08178,1.48111 c 0.0891,-5.73978 1.33955,-11.196 3.52733,-16.14356 z"
     id="path4381" /><path
     style="clip-rule:evenodd;fill:#0095d7;fill-rule:evenodd;stroke-width:0.222222"
     d="m 657.43597,219.62709 c 0,-12.86289 -5.85934,-24.35289 -15.03445,-31.96689 h -1.788 c 9.53956,7.38178 15.69511,18.94466 15.69511,31.96689 0,22.264 -18.11133,40.39133 -40.356,40.39133 -4.57377,0 -8.97155,-0.76889 -13.07444,-2.17978 l 1.13667,1.55534 c 3.78066,1.13777 7.78711,1.75266 11.93777,1.75266 22.84578,0 41.48334,-18.65355 41.48334,-41.51955 z m -79.43089,-16.80045 c -2.18778,4.94756 -3.43822,10.40356 -3.52733,16.14356 l 1.13,1.54666 c -0.006,-0.29622 -0.0113,-0.59222 -0.0113,-0.88977 0,-6.33089 1.45689,-12.31734 4.048,-17.64667 z"
     id="path4383" /><path
     style="clip-rule:evenodd;fill:#0096d8;fill-rule:evenodd;stroke-width:0.222222"
     d="m 656.30863,219.62709 c 0,-13.02223 -6.15555,-24.58511 -15.69511,-31.96689 h -1.87 c 9.94778,7.11133 16.43823,18.76111 16.43823,31.96689 0,21.66244 -17.58534,39.26289 -39.22912,39.26289 -5.03266,0 -9.84488,-0.95312 -14.26866,-2.68623 l 1.20466,1.64867 c 4.09623,1.40289 8.48978,2.166 13.064,2.166 22.24467,2.2e-4 40.356,-18.12711 40.356,-40.39133 z m -76.68222,-17.63734 c -2.58133,5.32689 -4.03,11.31 -4.03,17.63734 0,0.29755 0.005,0.59333 0.0113,0.88977 l 1.20044,1.64267 c -0.0533,-0.83755 -0.0844,-1.68111 -0.0844,-2.53222 0,-6.70778 1.67733,-13.01378 4.62911,-18.52845 z"
     id="path4385" /><path
     style="clip-rule:evenodd;fill:#009ada;fill-rule:evenodd;stroke-width:0.222222"
     d="m 655.18152,219.62709 c 0,-13.17289 -6.50266,-24.84245 -16.46644,-31.96689 h -1.90489 c 10.38378,6.834 17.244,18.61289 17.244,31.96689 0,21.06066 -17.05933,38.13489 -38.10178,38.13489 -5.53978,0 -10.80244,-1.18556 -15.55133,-3.31378 l 1.28267,1.75555 c 4.42355,1.73311 9.236,2.68623 14.26866,2.68623 21.64378,2.2e-4 39.22911,-17.60045 39.22911,-39.26289 z m -73.80466,-18.54067 c -2.96689,5.524 -4.65311,11.83756 -4.65311,18.54067 0,0.85133 0.0311,1.69466 0.0844,2.53222 l 1.28489,1.75844 c -0.158,-1.40889 -0.24222,-2.83955 -0.24222,-4.29066 0,-7.10511 1.94511,-13.76378 5.32622,-19.47045 z"
     id="path4387" /><path
     style="clip-rule:evenodd;fill:#009edc;fill-rule:evenodd;stroke-width:0.222222"
     d="m 654.05419,219.62709 c 0,-13.38845 -6.89489,-25.16289 -17.324,-31.96689 h -2.03222 c 10.91378,6.45111 18.22866,18.35889 18.22866,31.96689 0,20.38377 -16.53333,37.00644 -36.97444,37.00644 -6.12089,0 -11.89,-1.492 -16.97089,-4.12778 l 1.41956,1.94245 c 4.74866,2.12844 10.01155,3.31378 15.55133,3.31378 21.04267,0 38.102,-17.07423 38.102,-38.13489 z M 583.19441,200.1482 c -3.39155,5.70178 -5.34333,12.36155 -5.34333,19.47889 0,1.45133 0.0842,2.88177 0.24222,4.29066 l 1.41067,1.93045 c -0.34356,-2.02378 -0.52556,-4.10134 -0.52556,-6.22111 0,-7.566 2.26334,-14.60578 6.14711,-20.476 z"
     id="path4389" /><path
     style="clip-rule:evenodd;fill:#00a1dd;fill-rule:evenodd;stroke-width:0.222222"
     d="m 652.92686,219.62709 c 0,-13.64711 -7.35711,-25.55111 -18.32267,-31.96689 h -2.24644 c 11.53688,5.97333 19.44177,18.04489 19.44177,31.96689 0,19.782 -16.08244,35.87844 -35.84711,35.87844 -6.80133,0 -13.15133,-1.89289 -18.56133,-5.17644 l 1.60733,2.2 c 5.07667,2.62266 10.84022,4.10466 16.954,4.10466 20.44111,0 36.97445,-16.54755 36.97445,-37.00666 z m -67.77823,-20.48778 c -3.898,5.86444 -6.17022,12.90667 -6.17022,20.48778 0,2.11911 0.18045,4.19466 0.52134,6.216 l 1.59822,2.18755 c -0.64689,-2.69689 -0.99245,-5.50978 -0.99245,-8.40333 0,-8.09933 2.66423,-15.57245 7.16467,-21.58333 z"
     id="path4391" /><path
     style="clip-rule:evenodd;fill:#00a4df;fill-rule:evenodd;stroke-width:0.222222"
     d="m 651.87486,219.5522 c 0,-13.90978 -7.89134,-25.93489 -19.41178,-31.89178 h -2.71733 c 12.30844,5.34822 20.92644,17.63556 20.92644,31.96689 0,19.18044 -15.556,34.75 -34.71978,34.75 -7.64866,0 -14.73311,-2.48289 -20.48711,-6.68356 l 1.78111,2.43756 c 5.46422,3.35867 11.896,5.29911 18.78111,5.29911 19.76489,0 35.84734,-16.09622 35.84734,-35.87822 z m -64.62023,-21.50022 c -4.48933,5.98644 -7.14933,13.426 -7.14933,21.50022 0,2.93689 0.35822,5.79111 1.02667,8.52533 l 1.77444,2.42822 c -1.13311,-3.42266 -1.74866,-7.07866 -1.74866,-10.87844 0,-8.74089 3.22222,-16.72245 8.53288,-22.83245 z"
     id="path4393" /><path
     style="clip-rule:evenodd;fill:#16a8e1;fill-rule:evenodd;stroke-width:0.222222"
     d="m 650.74752,219.5522 c 0,-14.21911 -8.54977,-26.49245 -20.78,-31.89178 h -3.36489 c 13.36,4.47089 23.01756,17.11178 23.01756,31.96689 0,18.57867 -15.10533,33.622 -33.66778,33.622 -8.98178,0 -17.15311,-3.52311 -23.19644,-9.26333 l 2.54333,3.48022 c 5.78689,4.29355 12.95645,6.83578 20.72845,6.83578 19.16355,0 34.71977,-15.56978 34.71977,-34.74978 z m -61.03755,-22.76734 c -5.28289,6.11245 -8.47711,14.07689 -8.47711,22.76734 0,3.91289 0.64866,7.67378 1.84266,11.18466 l 2.53578,3.47 c -2.13067,-4.40955 -3.326,-9.35422 -3.326,-14.57955 0,-9.60911 4.042,-18.29156 10.51245,-24.43645 z"
     id="path4395" /><path
     style="clip-rule:evenodd;fill:#31abe2;fill-rule:evenodd;stroke-width:0.222222"
     d="m 649.62019,219.5522 c 0,-14.772 -9.502,-27.35534 -22.72644,-31.89178 h -4.70245 c 14.98045,2.91556 26.30178,16.12556 26.30178,31.96689 0,17.97667 -14.57933,32.49355 -32.54045,32.49355 -17.96111,0 -32.54066,-14.51688 -32.54066,-32.49377 0,-11.22845 5.68844,-21.13623 14.336,-26.992 l -4.96022,2.56044 c -6.42089,6.14 -10.42778,14.78911 -10.42778,24.35645 0,5.42822 1.292,10.55955 3.58066,15.106 l 6.53978,8.95066 c 6.07534,5.95956 14.39,9.64045 23.54711,9.64045 18.56267,0 33.59267,-15.11867 33.59267,-33.69689 z m -39.90533,-31.89178 h -2.32934 l -2.80489,1.44778 c 1.65245,-0.61711 3.36734,-1.104 5.13423,-1.44778 z"
     id="path4397" /><path
     style="clip-rule:evenodd;fill:#44afe4;fill-rule:evenodd;stroke-width:0.222222"
     d="m 648.49286,219.62709 c 0,-15.84134 -11.32134,-29.05134 -26.30178,-31.96689 h -12.47645 c -1.76688,0.34378 -3.48177,0.83066 -5.13444,1.44778 l -6.83244,3.52711 c -8.64778,5.856 -14.336,15.76355 -14.336,26.992 0,17.97666 14.57933,32.56889 32.54044,32.56889 17.96111,0 32.54067,-14.592 32.54067,-32.56889 z m -1.12734,0 c 0,17.29977 -14.05311,31.44044 -31.41311,31.44044 -17.35978,0 -31.41311,-14.14067 -31.41311,-31.44044 0,-17.37489 14.05333,-31.44023 31.41311,-31.44023 17.36,0 31.41311,14.06534 31.41311,31.44023 z"
     id="path4399" /><path
     style="clip-rule:evenodd;fill:#53b3e6;fill-rule:evenodd;stroke-width:0.222222"
     d="m 647.36552,219.62709 c 0,-17.37489 -14.12844,-31.44023 -31.41311,-31.44023 -17.35978,0 -31.41311,14.06534 -31.41311,31.44023 0,17.29977 14.05333,31.44044 31.41311,31.44044 17.28489,2.2e-4 31.41311,-14.14044 31.41311,-31.44044 z m -1.12711,0 v 0 c 0,16.698 -13.60244,30.31244 -30.286,30.31244 -16.75866,0 -30.28578,-13.61444 -30.28578,-30.31244 0,-16.77311 13.52712,-30.31223 30.28578,-30.31223 16.68378,2.3e-4 30.286,13.53934 30.286,30.31223 z"
     id="path4401" /><path
     style="clip-rule:evenodd;fill:#5ab6e7;fill-rule:evenodd;stroke-width:0.222222"
     d="m 646.23841,219.62709 c 0,-16.77311 -13.60244,-30.31223 -30.286,-30.31223 -16.75866,0 -30.28578,13.53912 -30.28578,30.31223 0,16.698 13.52712,30.31244 30.28578,30.31244 16.68378,0 30.286,-13.61422 30.286,-30.31244 z m -1.12733,0 c 0,16.09644 -13.07645,29.184 -29.15867,29.184 -16.08222,0 -29.15844,-13.08756 -29.15844,-29.184 0,-16.17156 13.076,-29.18378 29.15844,-29.18378 16.08245,0 29.15867,13.01244 29.15867,29.18378 z"
     id="path4403" /><path
     style="clip-rule:evenodd;fill:#65bae9;fill-rule:evenodd;stroke-width:0.222222"
     d="m 645.11108,219.62709 c 0,-16.09623 -13.07645,-29.18378 -29.15867,-29.18378 -16.08222,0 -29.15844,13.08755 -29.15844,29.18378 0,16.09644 13.076,29.184 29.15844,29.184 16.08245,0 29.15867,-13.08756 29.15867,-29.184 z m -1.12733,0 c 0,15.49466 -12.55,28.056 -28.03134,28.056 -15.48111,0 -28.03111,-12.56134 -28.03111,-28.056 0,-15.49445 12.55,-28.13111 28.03111,-28.13111 15.48134,2.2e-4 28.03134,12.63688 28.03134,28.13111 z"
     id="path4405" /><path
     style="clip-rule:evenodd;fill:#71bfeb;fill-rule:evenodd;stroke-width:0.222222"
     d="m 643.98375,219.62709 c 0,-15.49445 -12.55,-28.05578 -28.03134,-28.05578 -15.48111,0 -28.03111,12.56133 -28.03111,28.05578 0,15.49466 12.55,28.056 28.03111,28.056 15.48134,0 28.03134,-12.56134 28.03134,-28.056 z m -1.12712,0 v 0 c 0,14.81777 -12.024,26.92755 -26.904,26.92755 -14.87977,0 -26.904,-12.10978 -26.904,-26.92755 0,-14.89289 12.02423,-27.00267 26.904,-27.00267 14.87978,2.2e-4 26.904,12.11 26.904,27.00267 z"
     id="path4407" /><path
     style="clip-rule:evenodd;fill:#7cc3ed;fill-rule:evenodd;stroke-width:0.222222"
     d="m 642.85663,219.62709 c 0,-14.89289 -12.024,-27.00267 -26.904,-27.00267 -14.87977,0 -26.97911,12.10978 -26.97911,27.00267 0,14.89311 12.09934,26.92755 26.97911,26.92755 14.87978,0 26.904,-12.03444 26.904,-26.92755 z m -1.12711,0 c 0,14.216 -11.49822,25.79955 -25.77689,25.79955 -14.27866,0 -25.85177,-11.58355 -25.85177,-25.79955 0,-14.29111 11.57311,-25.87423 25.85177,-25.87423 14.27867,0 25.77689,11.58334 25.77689,25.87423 z"
     id="path4409" /><path
     style="clip-rule:evenodd;fill:#81c5ee;fill-rule:evenodd;stroke-width:0.222222"
     d="m 641.72952,219.62709 c 0,-14.29111 -11.57333,-25.87423 -25.77689,-25.87423 -14.27866,0 -25.85177,11.58334 -25.85177,25.87423 0,14.216 11.57311,25.79955 25.85177,25.79955 14.20356,0 25.77689,-11.58355 25.77689,-25.79955 z m -1.05244,0 c 0,13.61444 -11.12245,24.67111 -24.72467,24.67111 -13.60244,0 -24.72466,-11.05667 -24.72466,-24.67111 0,-13.68934 11.12244,-24.74623 24.72466,-24.74623 13.60245,2.3e-4 24.72467,11.05689 24.72467,24.74623 z"
     id="path4411" /><path
     style="clip-rule:evenodd;fill:#8bc9ef;fill-rule:evenodd;stroke-width:0.222222"
     d="m 640.60219,219.62709 c 0,-13.68934 -11.04733,-24.74623 -24.64956,-24.74623 -13.67733,0 -24.72466,11.05667 -24.72466,24.74623 0,13.61444 11.04733,24.67111 24.72466,24.67111 13.60223,0 24.64956,-11.05667 24.64956,-24.67111 z m -1.05222,0 c 0,13.01244 -10.596,23.54266 -23.59734,23.54266 -13.00111,0 -23.59733,-10.53022 -23.59733,-23.54266 0,-13.08756 10.59645,-23.61778 23.59733,-23.61778 13.00112,0 23.59734,10.53022 23.59734,23.61778 z"
     id="path4413" /><path
     style="clip-rule:evenodd;fill:#92cdf1;fill-rule:evenodd;stroke-width:0.222222"
     d="m 639.54997,219.62709 c 0,-13.01223 -10.596,-23.61778 -23.59734,-23.61778 -13.00111,0 -23.59733,10.60555 -23.59733,23.61778 0,13.01244 10.59645,23.618 23.59733,23.618 13.00112,2.2e-4 23.59734,-10.60534 23.59734,-23.618 z m -1.12711,0 c 0,12.41066 -10.07045,22.41466 -22.47023,22.41466 -12.39977,0 -22.47,-10.004 -22.47,-22.41466 0,-12.41067 10.07023,-22.48978 22.47,-22.48978 12.39978,2.2e-4 22.47023,10.07911 22.47023,22.48978 z"
     id="path4415" /><path
     style="clip-rule:evenodd;fill:#92cdf1;fill-rule:evenodd;stroke-width:0.222222"
     d="m 640.00086,219.62709 c 0,-13.31334 -10.74667,-24.06934 -24.04845,-24.06934 -13.30178,0 -24.04822,10.75623 -24.04822,24.06934 0,13.31355 10.74667,24.06933 24.04844,24.06933 13.30178,0 24.04823,-10.75578 24.04823,-24.06933 z m -1.052,0 c 0,12.71155 -10.29578,23.01644 -22.99623,23.01644 -12.70044,0 -22.996,-10.30489 -22.996,-23.01644 0,-12.71134 10.29578,-23.01623 22.996,-23.01623 12.70045,0 22.99623,10.30489 22.99623,23.01623 z"
     id="path4417" /><path
     style="clip-rule:evenodd;fill:#98cff2;fill-rule:evenodd;stroke-width:0.222222"
     d="m 638.94886,219.62709 c 0,-12.71134 -10.29578,-23.01623 -22.99623,-23.01623 -12.70044,0 -22.996,10.30489 -22.996,23.01623 0,12.71155 10.29578,23.01644 22.996,23.01644 12.70045,2.2e-4 22.99623,-10.30467 22.99623,-23.01644 z m -1.05223,0 c 0,12.11 -9.84466,21.888 -21.944,21.888 -12.09933,0 -21.944,-9.778 -21.944,-21.888 0,-12.10978 9.84467,-21.96311 21.944,-21.96311 12.09934,0 21.944,9.85333 21.944,21.96311 z"
     id="path4419" /><path
     style="clip-rule:evenodd;fill:#9fd1f2;fill-rule:evenodd;stroke-width:0.222222"
     d="m 637.89663,219.62709 c 0,-12.10978 -9.84466,-21.96311 -21.944,-21.96311 -12.09933,0 -21.944,9.85333 -21.944,21.96311 0,12.11 9.84467,21.96333 21.944,21.96333 12.09934,0 21.944,-9.85311 21.944,-21.96333 z m -1.05222,0 c 0,11.50822 -9.39378,20.83511 -20.892,20.83511 -11.498,0 -20.89178,-9.32689 -20.89178,-20.83511 0,-11.58334 9.39378,-20.91 20.89178,-20.91 11.49845,0 20.892,9.32689 20.892,20.91 z"
     id="path4421" /><path
     style="clip-rule:evenodd;fill:#a4d4f3;fill-rule:evenodd;stroke-width:0.222222"
     d="m 636.84441,219.5522 c 0,-11.50822 -9.31866,-20.91022 -20.81666,-20.91022 -11.57334,0 -20.892,9.402 -20.892,20.91022 0,11.508 9.31866,20.91 20.892,20.91 11.498,0 20.81666,-9.402 20.81666,-20.91 z m -1.12733,0.0749 c 0,10.90644 -8.86778,19.782 -19.76467,19.782 -10.89666,0 -19.76466,-8.87556 -19.76466,-19.782 0,-10.98156 8.868,-19.85711 19.76466,-19.85711 10.89711,2.2e-4 19.76467,8.87577 19.76467,19.85711 z"
     id="path4423" /><path
     style="clip-rule:evenodd;fill:#a9d6f4;fill-rule:evenodd;stroke-width:0.222222"
     d="m 635.71708,219.62709 c 0,-10.98156 -8.86778,-19.85711 -19.76467,-19.85711 -10.972,0 -19.83978,8.87555 -19.83978,19.85711 0,10.90644 8.86778,19.782 19.83978,19.782 10.89711,0 19.76467,-8.87556 19.76467,-19.782 z m -1.052,0 c 0,10.30489 -8.41689,18.72889 -18.71267,18.72889 -10.37066,0 -18.71244,-8.424 -18.71244,-18.72889 0,-10.37978 8.34178,-18.72889 18.71244,-18.72889 10.29578,0 18.71267,8.34911 18.71267,18.72889 z"
     id="path4425" /><path
     style="clip-rule:evenodd;fill:#afd8f4;fill-rule:evenodd;stroke-width:0.222222"
     d="m 634.74019,219.5522 c 0,-10.37978 -8.41667,-18.72889 -18.71244,-18.72889 -10.37089,0 -18.71267,8.34911 -18.71267,18.72889 0,10.30466 8.34178,18.72889 18.71267,18.72889 10.29577,0 18.71244,-8.42445 18.71244,-18.72889 z m -1.12711,0.0749 c 0,9.70311 -7.89111,17.676 -17.66067,17.676 -9.76978,0 -17.66044,-7.97311 -17.66044,-17.676 0,-9.778 7.89066,-17.67578 17.66044,-17.67578 9.76978,0 17.66067,7.89778 17.66067,17.67578 z"
     id="path4427" /><path
     style="clip-rule:evenodd;fill:#b4daf5;fill-rule:evenodd;stroke-width:0.222222"
     d="m 633.61308,219.62709 c 0,-9.778 -7.966,-17.67578 -17.66067,-17.67578 -9.76978,0 -17.66044,7.89778 -17.66044,17.67578 0,9.70311 7.89066,17.676 17.66044,17.676 9.69467,2.2e-4 17.66067,-7.97289 17.66067,-17.676 z m -1.05222,0 c 0,9.10111 -7.43978,16.54777 -16.60845,16.54777 -9.16844,0 -16.60844,-7.44644 -16.60844,-16.54777 0,-9.17623 7.44,-16.62267 16.60844,-16.62267 9.16867,0 16.60845,7.44644 16.60845,16.62267 z"
     id="path4429" /><path
     style="clip-rule:evenodd;fill:#b9dcf5;fill-rule:evenodd;stroke-width:0.222222"
     d="m 632.48575,219.62709 c 0,-9.17623 -7.36467,-16.62267 -16.53334,-16.62267 -9.16844,0 -16.60844,7.44644 -16.60844,16.62267 0,9.17644 7.44,16.54777 16.60844,16.54777 9.16867,0 16.53334,-7.37133 16.53334,-16.54777 z m -1.052,0 c 0,8.57489 -6.914,15.49466 -15.48134,15.49466 -8.56711,0 -15.48111,-6.91977 -15.48111,-15.49466 0,-8.57467 6.914,-15.56956 15.48111,-15.56956 8.56734,0 15.48134,6.99511 15.48134,15.56956 z"
     id="path4431" /><path
     style="clip-rule:evenodd;fill:#bee0f7;fill-rule:evenodd;stroke-width:0.222222"
     d="m 631.43375,219.62709 c 0,-8.57467 -6.914,-15.56956 -15.48134,-15.56956 -8.56711,0 -15.556,6.99511 -15.556,15.56956 0,8.57489 6.98911,15.49466 15.556,15.49466 8.56734,0 15.48134,-6.91977 15.48134,-15.49466 z m -1.05223,0 c 0,7.97311 -6.46311,14.44155 -14.42911,14.44155 -7.966,0 -14.42911,-6.46844 -14.42911,-14.44155 0,-7.97289 6.46311,-14.51667 14.42911,-14.51667 7.966,2.2e-4 14.42911,6.544 14.42911,14.51667 z"
     id="path4433" /><path
     style="clip-rule:evenodd;fill:#c3e2f7;fill-rule:evenodd;stroke-width:0.222222"
     d="m 630.38152,219.62709 c 0,-7.97289 -6.46311,-14.44156 -14.42911,-14.44156 -7.966,0 -14.42911,6.46867 -14.42911,14.44156 0,7.97311 6.46311,14.44155 14.42911,14.44155 7.966,2.2e-4 14.42911,-6.46844 14.42911,-14.44155 z m -1.052,0 c 0,7.37133 -6.012,13.38866 -13.37689,13.38866 -7.36466,0 -13.37666,-6.01755 -13.37666,-13.38866 0,-7.44623 6.012,-13.38845 13.37666,-13.38845 7.36489,0 13.37689,5.94222 13.37689,13.38845 z"
     id="path4435" /><path
     style="clip-rule:evenodd;fill:#cae4f8;fill-rule:evenodd;stroke-width:0.222222"
     d="m 629.32952,219.62709 c 0,-7.37089 -6.012,-13.38845 -13.37689,-13.38845 -7.36466,0 -13.37666,6.01756 -13.37666,13.38845 0,7.37133 6.012,13.38866 13.37666,13.38866 7.36489,2.3e-4 13.37689,-6.01733 13.37689,-13.38866 z m -1.052,0 c 0,6.76955 -5.56133,12.26044 -12.32489,12.26044 -6.76333,0 -12.32466,-5.49067 -12.32466,-12.26044 0,-6.84467 5.56133,-12.33534 12.32466,-12.33534 6.76356,0 12.32489,5.49067 12.32489,12.33534 z"
     id="path4437" /><path
     style="clip-rule:evenodd;fill:#cfe7f9;fill-rule:evenodd;stroke-width:0.222222"
     d="m 628.20219,219.62709 c 0,-6.84467 -5.486,-12.33534 -12.24978,-12.33534 -6.83866,0 -12.32466,5.49067 -12.32466,12.33534 0,6.76955 5.486,12.26044 12.32466,12.26044 6.76378,0 12.24978,-5.49067 12.24978,-12.26044 z m -1.052,0 c 0,6.16777 -5.03533,11.20733 -11.19756,11.20733 -6.23733,0 -11.27266,-5.03956 -11.27266,-11.20733 0,-6.24289 5.03533,-11.28245 11.27266,-11.28245 6.16223,2.2e-4 11.19756,5.03956 11.19756,11.28245 z"
     id="path4439" /><path
     style="clip-rule:evenodd;fill:#d3e9fa;fill-rule:evenodd;stroke-width:0.222222"
     d="m 627.15019,219.62709 c 0,-6.24289 -5.03533,-11.28245 -11.19756,-11.28245 -6.23733,0 -11.27266,5.03956 -11.27266,11.28245 0,6.16777 5.03533,11.20733 11.27266,11.20733 6.16223,0 11.19756,-5.03933 11.19756,-11.20733 z m -1.05244,0 c 0,5.566 -4.50912,10.15422 -10.14534,10.15422 -5.63644,0 -10.14533,-4.58822 -10.14533,-10.15422 0,-5.64111 4.50911,-10.22934 10.14533,-10.22934 5.63645,2.3e-4 10.14534,4.58845 10.14534,10.22934 z"
     id="path4441" /><path
     style="clip-rule:evenodd;fill:#d7ebfa;fill-rule:evenodd;stroke-width:0.222222"
     d="m 626.09775,219.62709 c 0,-5.64111 -4.584,-10.15423 -10.14534,-10.15423 -5.63644,0 -10.14533,4.51312 -10.14533,10.15423 0,5.566 4.50911,10.15422 10.14533,10.15422 5.56134,2.2e-4 10.14534,-4.58822 10.14534,-10.15422 z m -1.052,0 c 0,4.96444 -4.058,9.10111 -9.09334,9.10111 -5.03511,0 -9.09311,-4.13667 -9.09311,-9.10111 0,-5.03956 4.058,-9.10111 9.09311,-9.10111 5.03534,0 9.09334,4.06177 9.09334,9.10111 z"
     id="path4443" /><path
     style="clip-rule:evenodd;fill:#ddedfa;fill-rule:evenodd;stroke-width:0.222222"
     d="m 625.04575,219.62709 c 0,-5.03956 -4.058,-9.10111 -9.09334,-9.10111 -5.03511,0 -9.09311,4.06177 -9.09311,9.10111 0,5.03955 4.058,9.10111 9.09311,9.10111 5.03534,2.2e-4 9.09334,-4.06156 9.09334,-9.10111 z m -1.052,0 c 0,4.438 -3.60734,7.97311 -8.04134,7.97311 -4.43378,0 -8.04111,-3.53511 -8.04111,-7.97311 0,-4.43778 3.60733,-8.04823 8.04111,-8.04823 4.434,2.3e-4 8.04134,3.61067 8.04134,8.04823 z"
     id="path4445" /><path
     style="clip-rule:evenodd;fill:#e1effb;fill-rule:evenodd;stroke-width:0.222222"
     d="m 623.99375,219.62709 c 0,-4.43778 -3.60734,-8.04823 -8.04134,-8.04823 -4.43378,0 -8.04111,3.61045 -8.04111,8.04823 0,4.438 3.60733,8.04822 8.04111,8.04822 4.434,2.2e-4 8.04134,-3.61022 8.04134,-8.04822 z m -1.12734,0 c 0,3.836 -3.08133,6.92 -6.914,6.92 -3.83266,0 -6.98911,-3.084 -6.98911,-6.92 0,-3.83578 3.15622,-6.99511 6.98911,-6.99511 3.83289,0 6.914,3.15933 6.914,6.99511 z"
     id="path4447" /><path
     style="clip-rule:evenodd;fill:#e5f1fb;fill-rule:evenodd;stroke-width:0.222222"
     d="m 622.94152,219.5522 c 0,-3.836 -3.08111,-6.99534 -6.91377,-6.99534 -3.83267,0 -6.98912,3.15934 -6.98912,6.99534 0,3.836 3.15645,6.91978 6.98912,6.91978 3.83266,0 6.91377,-3.08378 6.91377,-6.91978 z m -1.12711,0.0749 c 0,3.23444 -2.63022,5.86689 -5.862,5.86689 -3.23133,0 -5.86178,-2.63245 -5.86178,-5.86689 0,-3.30956 2.63023,-5.942 5.86178,-5.942 3.23178,0 5.862,2.63244 5.862,5.942 z"
     id="path4449" /><path
     style="clip-rule:evenodd;fill:#e9f4fc;fill-rule:evenodd;stroke-width:0.222222"
     d="m 621.81441,219.62709 c 0,-3.23423 -2.63022,-5.86667 -5.862,-5.86667 -3.23133,0 -5.93666,2.63244 -5.93666,5.86667 0,3.23444 2.70533,5.86689 5.93666,5.86689 3.23178,2.2e-4 5.862,-2.63223 5.862,-5.86689 z m -1.05222,0 v 0 c 0,2.63266 -2.17933,4.81377 -4.80956,4.81377 -2.63044,0 -4.80977,-2.18111 -4.80977,-4.81377 0,-2.70778 2.17933,-4.81378 4.80977,-4.81378 2.63023,0 4.80956,2.10622 4.80956,4.81378 z"
     id="path4451" /><path
     style="clip-rule:evenodd;fill:#eef6fd;fill-rule:evenodd;stroke-width:0.222222"
     d="m 620.83752,219.5522 c 0,-2.63267 -2.17933,-4.81378 -4.80955,-4.81378 -2.70556,0 -4.80978,2.18111 -4.80978,4.81378 0,2.63244 2.104,4.81378 4.80978,4.81378 2.63022,0 4.80955,-2.18134 4.80955,-4.81378 z m -1.12733,0.0749 c 0,2.03089 -1.72844,3.68577 -3.75756,3.68577 -2.104,0 -3.75733,-1.65488 -3.75733,-3.68577 0,-2.106 1.65333,-3.76089 3.75733,-3.76089 2.02912,2.2e-4 3.75756,1.65511 3.75756,3.76089 z"
     id="path4453" /><path
     style="clip-rule:evenodd;fill:#f2f8fd;fill-rule:evenodd;stroke-width:0.222222"
     d="m 619.71019,219.62709 c 0,-2.106 -1.72844,-3.76089 -3.75756,-3.76089 -2.104,0 -3.75733,1.65489 -3.75733,3.76089 0,2.03089 1.65333,3.76111 3.75733,3.76111 2.02912,0 3.75756,-1.73022 3.75756,-3.76111 z m -1.052,0 c 0,1.42933 -1.20267,2.63266 -2.70556,2.63266 -1.50311,0 -2.70533,-1.20333 -2.70533,-2.63266 0,-1.50423 1.20245,-2.70778 2.70533,-2.70778 1.50289,2.2e-4 2.70556,1.20355 2.70556,2.70778 z"
     id="path4455" /><path
     style="clip-rule:evenodd;fill:#f6fbff;fill-rule:evenodd;stroke-width:0.222222"
     d="m 618.58286,219.62709 c 0,-1.50423 -1.20245,-2.70778 -2.63023,-2.70778 -1.50311,0 -2.70533,1.20333 -2.70533,2.70778 0,1.42933 1.20245,2.63266 2.70533,2.63266 1.42778,0 2.63023,-1.20333 2.63023,-2.63266 z m -1.052,0 c 0,0.82733 -0.67645,1.57955 -1.57823,1.57955 -0.90177,0 -1.578,-0.75222 -1.578,-1.57955 0,-0.90245 0.67645,-1.65467 1.578,-1.65467 0.90178,2.2e-4 1.57823,0.75222 1.57823,1.65467 z"
     id="path4457" /><path
     style="clip-rule:evenodd;fill:#fafcff;fill-rule:evenodd;stroke-width:0.222222"
     d="m 617.53086,219.62709 c 0,-0.90245 -0.67645,-1.65467 -1.57823,-1.65467 -0.90177,0 -1.65333,0.75222 -1.65333,1.65467 0,0.90266 0.75156,1.57955 1.65333,1.57955 0.90178,2.2e-4 1.57823,-0.67666 1.57823,-1.57955 z m -1.05245,0 c 0,0.30089 -0.22533,0.52644 -0.526,0.52644 -0.30066,0 -0.526,-0.22555 -0.526,-0.52644 0,-0.30067 0.22534,-0.52667 0.526,-0.52667 0.30067,2.2e-4 0.526,0.226 0.526,0.52667 z"
     id="path4459" /><path
     style="clip-rule:evenodd;fill:#ffffff;fill-rule:evenodd;stroke-width:0.222222"
     d="m 616.47841,219.62709 c 0,-0.30067 -0.22533,-0.52667 -0.526,-0.52667 -0.30066,0 -0.526,0.22578 -0.526,0.52667 0,0.30089 0.22534,0.52644 0.526,0.52644 0.30067,2.2e-4 0.526,-0.22555 0.526,-0.52644 z"
     id="path4461" /><polygon
     style="clip-rule:evenodd;fill:#003671;fill-rule:evenodd"
     points="586.406,617.281 614.136,605.434 589.449,690.392 440.988,661.282 303.349,512.693 330.742,424.689 414.948,403.027 425.432,384.411 456.882,398.288 514.373,393.888 626.311,459.552 649.984,503.554 650.66,523.186 603.653,596.634 596.551,570.911 582.009,581.741 581.333,554.664 571.187,549.925 562.733,613.558 587.082,604.758 "
     id="polygon4463"
     transform="matrix(0.22222222,0,0,0.22222222,514.42308,104.56731)" /><path
     style="clip-rule:evenodd;fill:#ffffff;fill-rule:evenodd;stroke-width:0.222222"
     d="m 590.10063,201.65042 19.38867,-5.566 0.97711,-2.55733 2.48,1.88044 14.72978,-0.82755 21.944,12.56133 1.428,1.57933 4.50911,6.09267 1.12733,2.78289 -1.05222,3.23444 -6.46289,12.18511 -0.82666,-5.86689 -2.63,2.78289 0.37577,-6.76977 -7.13933,0.90266 -2.17933,18.35267 2.40466,2.10622 3.83267,-1.73 v 2.55733 l 4.88489,-2.85822 -3.908,12.63645 c -18.48711,-4.73867 -33.59244,-13.68956 -33.59244,-13.68956 l -14.50423,-26.40067 2.40489,3.53512 c 0,0 9.46911,18.05177 25.02534,27.60444 8.19133,4.88889 19.76466,7.59689 19.61444,7.59689 0.15022,0 2.25444,-7.67222 2.25444,-7.67222 l -2.48,1.42911 -7.43977,-3.836 2.02911,-22.33911 9.39378,0.67689 3.30666,5.03955 3.83267,-7.44644 -0.0751,-1.05289 -1.954,-1.20378 1.20244,-3.38444 -2.85578,-3.53512 -8.19133,-1.354 2.55511,5.41578 -14.05311,-8.12333 18.036,2.40689 -20.81667,-11.95956 c -4.35866,0 -7.59044,0 -12.09933,0.75222 l 9.61933,6.544 c 0,0 -16.08244,-7.14555 -13.00111,-2.33177 1.20245,1.80533 4.50911,3.61044 4.50911,3.61044 l 7.89067,1.42911 0.376,1.05311 -8.41689,0.97778 -8.492,-9.70311 c -6.914,1.50422 -15.25578,4.21222 -18.71266,5.34044 z"
     id="path4465" /><polygon
     style="clip-rule:evenodd;fill:#adb3d1;fill-rule:evenodd"
     points="233.346,332.286 216.099,332.286 216.099,278.131 233.346,278.131 "
     id="polygon4469"
     transform="matrix(0.22222222,0,0,0.22222222,514.42308,104.56731)" /><polygon
     style="clip-rule:evenodd;fill:#adb3d1;fill-rule:evenodd"
     points="283.059,332.286 298.953,332.286 298.953,278.131 283.059,278.131 283.059,304.193 282.72,304.193 271.899,278.131 257.356,278.131 257.356,332.286 272.913,332.286 272.913,306.562 273.589,306.562 "
     id="polygon4471"
     transform="matrix(0.22222222,0,0,0.22222222,514.42308,104.56731)" /><path
     style="clip-rule:evenodd;fill:#adb3d1;fill-rule:evenodd;stroke-width:0.222222"
     d="m 594.98552,177.12998 v -4.96423 h -4.28377 v 2.33178 h 0.526 v 1.57933 c 0,0.15067 -0.45067,0.37623 -0.60112,0.37623 -0.22555,0 -0.75155,-0.15067 -0.75155,-0.22556 v -7.52178 c 0,-0.15044 0.526,-0.30066 0.67644,-0.30066 0.15023,0 0.67645,0.15022 0.67645,0.30066 v 1.27867 h 3.75755 v -2.106 c 0,-0.90267 -4.13333,-1.65489 -4.434,-1.65489 -0.37577,0 -4.43377,0.75222 -4.43377,1.65489 v 9.25156 c 0,0.75222 3.98288,1.50422 4.43377,1.50422 0.45089,0 4.434,-0.752 4.434,-1.50422 z"
     id="path4473" /><path
     style="clip-rule:evenodd;fill:#adb3d1;fill-rule:evenodd;stroke-width:0.222222"
     d="m 609.18908,177.12998 v -9.25156 c 0,-0.90267 -4.13333,-1.65489 -4.50933,-1.65489 -0.30045,0 -4.35867,0.75222 -4.35867,1.65489 v 9.25156 c 0,0.75222 3.98289,1.50422 4.434,1.50422 0.45111,0 4.434,-0.752 4.434,-1.50422 z m -3.75756,-1.05312 c 0,0.15067 -0.526,0.37623 -0.67622,0.37623 -0.15022,0 -0.67644,-0.15067 -0.67644,-0.22556 v -7.52178 c 0,-0.15044 0.526,-0.30066 0.67644,-0.30066 0.15022,0 0.67622,0.15022 0.67622,0.30066 z"
     id="path4475" /><polygon
     style="clip-rule:evenodd;fill:#adb3d1;fill-rule:evenodd"
     points="450.119,332.286 479.879,332.286 479.879,322.132 467.366,322.132 467.366,278.131 450.119,278.131 "
     id="polygon4477"
     transform="matrix(0.22222222,0,0,0.22222222,514.42308,104.56731)" /><path
     style="clip-rule:evenodd;fill:#adb3d1;fill-rule:evenodd;stroke-width:0.222222"
     d="m 635.11619,170.36042 v -2.482 c 0,-0.90267 -4.13333,-1.65489 -4.434,-1.65489 -0.37578,0 -4.434,0.75222 -4.434,1.65489 v 4.814 l 5.11044,1.05311 v 2.33156 c 0,0.15066 -0.526,0.37622 -0.67644,0.37622 -0.15022,0 -0.67644,-0.22556 -0.67644,-0.37622 v -1.65467 h -3.83267 v 2.55733 c 0,0.82734 4.13333,1.65467 4.50889,1.65467 0.37555,0 4.434,-0.82711 4.434,-1.65467 v -4.88911 l -5.11045,-1.128 v -2.25666 c 0,-0.15045 0.526,-0.30067 0.67645,-0.30067 0.15044,0 0.67644,0.15022 0.67644,0.30067 v 1.65488 h 3.75778 z"
     id="path4479" /><polygon
     style="clip-rule:evenodd;fill:#adb3d1;fill-rule:evenodd"
     points="565.439,288.622 574.907,288.622 574.907,332.286 591.816,332.286 591.816,288.622 601.286,288.622 601.286,278.131 565.439,278.131 "
     id="polygon4481"
     transform="matrix(0.22222222,0,0,0.22222222,514.42308,104.56731)" /><path
     style="clip-rule:evenodd;fill:#adb3d1;fill-rule:evenodd;stroke-width:0.222222"
     d="m 661.0433,178.40864 -0.97689,-12.03444 h -7.13933 l -0.82667,12.03444 h 3.75756 l 0.0751,-3.53511 h 1.20244 l 0.0753,3.53511 z m -3.908,-5.71644 h -1.20244 l 0.30066,-4.13711 h 0.60111 z"
     id="path4483" /><path
     style="clip-rule:evenodd;fill:#adb3d1;fill-rule:evenodd;stroke-width:0.222222"
     d="m 675.0213,177.35553 v -9.778 c 0,-0.90267 -3.98311,-1.20333 -4.434,-1.20333 h -4.43378 v 12.03444 h 4.43378 c 0.45089,0 4.434,-0.30089 4.434,-1.05311 z m -3.75778,-1.20333 c 0,0.15022 -0.45066,0.22555 -0.60111,0.22555 h -0.75155 v -7.89777 h 0.67644 c 0.22556,0 0.67622,0 0.67622,0.15066 z"
     id="path4485" /><polygon
     style="clip-rule:evenodd;fill:#adb3d1;fill-rule:evenodd"
     points="745.012,288.622 754.481,288.622 754.481,332.286 771.389,332.286 771.389,288.622 780.859,288.622 780.859,278.131 745.012,278.131 "
     id="polygon4487"
     transform="matrix(0.22222222,0,0,0.22222222,514.42308,104.56731)" /><polygon
     style="clip-rule:evenodd;fill:#003671;fill-rule:evenodd"
     points="228.949,328.225 212.041,328.225 212.041,274.068 228.949,274.068 "
     id="polygon4489"
     transform="matrix(0.22222222,0,0,0.22222222,514.42308,104.56731)" /><polyline
     style="fill:none;stroke:#ffffff;stroke-width:0.5604;stroke-miterlimit:2.6131"
     points="212.041,328.225    212.041,274.068 228.949,274.068 228.949,328.225 212.041,328.225  "
     id="polyline4491"
     transform="matrix(0.22222222,0,0,0.22222222,514.42308,104.56731)" /><polygon
     style="clip-rule:evenodd;fill:#003671;fill-rule:evenodd"
     points="279,328.225 294.556,328.225 294.556,274.068 279,274.068 279,300.131 278.324,300.131 267.84,274.068 252.96,274.068 252.96,328.225 268.855,328.225 268.855,302.5 269.532,302.5 "
     id="polygon4493"
     transform="matrix(0.22222222,0,0,0.22222222,514.42308,104.56731)" /><polyline
     style="fill:none;stroke:#ffffff;stroke-width:0.5604;stroke-miterlimit:2.6131"
     points="294.556,328.225    294.556,274.068 279,274.068 279,300.131 278.324,300.131 267.84,274.068 252.96,274.068 252.96,328.225 268.855,328.225    268.855,302.5 269.532,302.5 279,328.225 294.556,328.225  "
     id="polyline4495"
     transform="matrix(0.22222222,0,0,0.22222222,514.42308,104.56731)" /><path
     style="clip-rule:evenodd;fill:#003671;fill-rule:evenodd;stroke-width:0.222222"
     d="m 594.08375,176.22753 v -4.96444 h -4.28378 v 2.33177 h 0.526 v 1.57956 c 0,0.0753 -0.526,0.30089 -0.67645,0.30089 -0.15022,0 -0.67622,-0.0753 -0.67622,-0.22556 v -7.44644 c 0,-0.15045 0.526,-0.376 0.67622,-0.376 0.15023,0 0.67645,0.22555 0.67645,0.376 v 1.27867 h 3.75755 v -2.18134 c 0,-0.82755 -4.13333,-1.65489 -4.50933,-1.65489 -0.30044,0 -4.35867,0.82756 -4.35867,1.65489 v 9.32689 c 0,0.67689 3.98311,1.42911 4.434,1.42911 0.45111,-2.2e-4 4.43423,-0.75244 4.43423,-1.42911 z"
     id="path4497" /><path
     style="fill:none;stroke:#ffffff;stroke-width:0.124533;stroke-miterlimit:2.6131"
     d="m 594.08375,176.22753 v -4.96444 h -4.28378 v 2.33177 h 0.526 v 1.57956 c 0,0.0753 -0.526,0.30089 -0.67645,0.30089 -0.15022,0 -0.67622,-0.0753 -0.67622,-0.22556 v -7.44644 c 0,-0.15045 0.526,-0.376 0.67622,-0.376 0.15023,0 0.67645,0.22555 0.67645,0.376 v 1.27867 h 3.75755 v -2.18134 c 0,-0.82755 -4.13333,-1.65489 -4.50933,-1.65489 -0.30044,0 -4.35867,0.82756 -4.35867,1.65489 v 9.32689 c 0,0.67689 3.98311,1.42911 4.434,1.42911 0.45111,-2.2e-4 4.43423,-0.75244 4.43423,-1.42911"
     id="path4499" /><path
     style="clip-rule:evenodd;fill:#003671;fill-rule:evenodd;stroke-width:0.222222"
     d="m 608.28708,176.22753 v -9.32689 c 0,-0.82755 -4.13333,-1.65489 -4.50911,-1.65489 -0.30067,0 -4.434,0.82756 -4.434,1.65489 v 9.32689 c 0,0.67689 3.98311,1.42911 4.50911,1.42911 0.45111,-2.2e-4 4.434,-0.75244 4.434,-1.42911 z m -3.75733,-1.05311 c 0,0.0753 -0.52623,0.30089 -0.67667,0.30089 -0.15,0 -0.67645,-0.0753 -0.67645,-0.22556 v -7.44644 c 0,-0.15045 0.45089,-0.376 0.67645,-0.376 0.0753,0 0.67667,0.22555 0.67667,0.376 z"
     id="path4501" /><path
     style="fill:none;stroke:#ffffff;stroke-width:0.124533;stroke-miterlimit:2.6131"
     d="m 608.28708,176.22753 v -9.32689 c 0,-0.82755 -4.13333,-1.65489 -4.50911,-1.65489 -0.30067,0 -4.434,0.82756 -4.434,1.65489 v 9.32689 c 0,0.67689 3.98311,1.42911 4.50911,1.42911 0.45111,-2.2e-4 4.434,-0.75244 4.434,-1.42911 m -3.75733,-1.05311 c 0,0.0753 -0.52623,0.30089 -0.67667,0.30089 -0.15,0 -0.67645,-0.0753 -0.67645,-0.22556 v -7.44644 c 0,-0.15045 0.45089,-0.376 0.67645,-0.376 0.0753,0 0.67667,0.22555 0.67667,0.376 v 7.37111"
     id="path4503" /><polygon
     style="clip-rule:evenodd;fill:#003671;fill-rule:evenodd"
     points="446.061,328.225 475.821,328.225 475.821,317.732 462.969,317.732 462.969,274.068 446.061,274.068 "
     id="polygon4505"
     transform="matrix(0.22222222,0,0,0.22222222,514.42308,104.56731)" /><polyline
     style="fill:none;stroke:#ffffff;stroke-width:0.5604;stroke-miterlimit:2.6131"
     points="475.821,328.225    475.821,317.732 462.969,317.732 462.969,274.068 446.061,274.068 446.061,328.225 475.821,328.225  "
     id="polyline4507"
     transform="matrix(0.22222222,0,0,0.22222222,514.42308,104.56731)" /><path
     style="clip-rule:evenodd;fill:#003671;fill-rule:evenodd;stroke-width:0.222222"
     d="m 634.21419,169.45775 v -2.55711 c 0,-0.82755 -4.13333,-1.65489 -4.50911,-1.65489 -0.30067,0 -4.434,0.82756 -4.434,1.65489 v 4.81378 l 5.11044,1.128 v 2.33178 c 0,0.15022 -0.526,0.30089 -0.67644,0.30089 -0.15022,0 -0.67645,-0.15067 -0.67645,-0.30089 v -1.65489 h -3.75755 v 2.48244 c 0,0.90245 4.13333,1.65467 4.50933,1.65467 0.30045,0 4.43378,-0.75222 4.43378,-1.65467 v -4.88911 l -5.11,-1.12844 v -2.18111 c 0,-0.15045 0.526,-0.376 0.67644,-0.376 0.15,0 0.67645,0.22555 0.67645,0.376 v 1.65466 z"
     id="path4509" /><path
     style="fill:none;stroke:#ffffff;stroke-width:0.124533;stroke-miterlimit:2.6131"
     d="m 634.21419,169.45775 v -2.55711 c 0,-0.82755 -4.13333,-1.65489 -4.50911,-1.65489 -0.30067,0 -4.434,0.82756 -4.434,1.65489 v 4.81378 l 5.11044,1.128 v 2.33178 c 0,0.15022 -0.526,0.30089 -0.67644,0.30089 -0.15022,0 -0.67645,-0.15067 -0.67645,-0.30089 v -1.65489 h -3.75755 v 2.48244 c 0,0.90245 4.13333,1.65467 4.50933,1.65467 0.30045,0 4.43378,-0.75222 4.43378,-1.65467 v -4.88911 l -5.11,-1.12844 v -2.18111 c 0,-0.15045 0.526,-0.376 0.67644,-0.376 0.15,0 0.67645,0.22555 0.67645,0.376 v 1.65466 h 3.75711"
     id="path4511" /><polygon
     style="clip-rule:evenodd;fill:#003671;fill-rule:evenodd"
     points="561.042,284.561 570.511,284.561 570.511,328.225 587.758,328.225 587.758,284.561 597.227,284.561 597.227,274.068 561.042,274.068 "
     id="polygon4513"
     transform="matrix(0.22222222,0,0,0.22222222,514.42308,104.56731)" /><polyline
     style="fill:none;stroke:#ffffff;stroke-width:0.5604;stroke-miterlimit:2.6131"
     points="597.227,284.561    597.227,274.068 561.042,274.068 561.042,284.561 570.511,284.561 570.511,328.225 587.758,328.225 587.758,284.561    597.227,284.561  "
     id="polyline4515"
     transform="matrix(0.22222222,0,0,0.22222222,514.42308,104.56731)" /><path
     style="clip-rule:evenodd;fill:#003671;fill-rule:evenodd;stroke-width:0.222222"
     d="m 660.06619,177.5062 -0.90178,-12.03467 h -7.13933 l -0.902,12.03467 h 3.83267 l 0.0753,-3.61045 h 1.20244 l 0.0751,3.61045 z m -3.83267,-5.71667 h -1.20244 l 0.30044,-4.13667 h 0.60134 z"
     id="path4517" /><path
     style="fill:none;stroke:#ffffff;stroke-width:0.124533;stroke-miterlimit:2.6131"
     d="m 660.06619,177.5062 -0.90178,-12.03467 h -7.13933 l -0.902,12.03467 h 3.83267 l 0.0753,-3.61045 h 1.20244 l 0.0751,3.61045 h 3.75756 m -3.83267,-5.71667 h -1.20244 l 0.30044,-4.13667 h 0.60134 l 0.30066,4.13667"
     id="path4519" /><path
     style="clip-rule:evenodd;fill:#003671;fill-rule:evenodd;stroke-width:0.222222"
     d="m 674.11952,176.45309 v -9.85334 c 0,-0.82755 -4.05822,-1.12844 -4.50933,-1.12844 h -4.43378 v 12.03467 h 4.50911 c 0.45111,2.2e-4 4.434,-0.30067 4.434,-1.05289 z m -3.75755,-1.20356 c 0,0.0751 -0.45089,0.15045 -0.67622,0.15045 h -0.67645 v -7.89778 h 0.67645 c 0.15022,0 0.67622,0.0753 0.67622,0.22555 z"
     id="path4521" /><path
     style="fill:none;stroke:#ffffff;stroke-width:0.124533;stroke-miterlimit:2.6131"
     d="m 674.11952,176.45309 v -9.85334 c 0,-0.82755 -4.05822,-1.12844 -4.50933,-1.12844 h -4.43378 v 12.03467 h 4.50911 c 0.45111,2.2e-4 4.434,-0.30067 4.434,-1.05289 m -3.75755,-1.20356 c 0,0.0751 -0.45089,0.15045 -0.67622,0.15045 h -0.67645 v -7.89778 h 0.67645 c 0.15022,0 0.67622,0.0753 0.67622,0.22555 v 7.52178"
     id="path4523" /><polygon
     style="clip-rule:evenodd;fill:#003671;fill-rule:evenodd"
     points="740.615,284.561 750.085,284.561 750.085,328.225 767.332,328.225 767.332,284.561 776.8,284.561 776.8,274.068 740.615,274.068 "
     id="polygon4525"
     transform="matrix(0.22222222,0,0,0.22222222,514.42308,104.56731)" /><polyline
     style="fill:none;stroke:#ffffff;stroke-width:0.5604;stroke-miterlimit:2.6131"
     points="776.8,284.561 776.8,274.068    740.615,274.068 740.615,284.561 750.085,284.561 750.085,328.225 767.332,328.225 767.332,284.561 776.8,284.561  "
     id="polyline4527"
     transform="matrix(0.22222222,0,0,0.22222222,514.42308,104.56731)" /><polygon
     style="clip-rule:evenodd;fill:#ffffff;fill-rule:evenodd"
     points="574.569,507.954 584.038,504.569 507.609,493.061 "
     id="polygon4529"
     transform="matrix(0.22222222,0,0,0.22222222,514.42308,104.56731)" /><polygon
     style="clip-rule:evenodd;fill:#ffffff;fill-rule:evenodd"
     points="575.246,515.4 584.038,511.339 495.435,504.231 "
     id="polygon4531"
     transform="matrix(0.22222222,0,0,0.22222222,514.42308,104.56731)" /><polygon
     style="clip-rule:evenodd;fill:#ffffff;fill-rule:evenodd"
     points="574.569,521.832 583.362,518.447 494.759,514.724 "
     id="polygon4533"
     transform="matrix(0.22222222,0,0,0.22222222,514.42308,104.56731)" /><polygon
     style="clip-rule:evenodd;fill:#ffffff;fill-rule:evenodd"
     points="574.569,507.954 584.038,504.569 507.609,493.061 "
     id="polygon4535"
     transform="matrix(0.22222222,0,0,0.22222222,514.42308,104.56731)" /><polygon
     style="clip-rule:evenodd;fill:#ffffff;fill-rule:evenodd"
     points="575.246,515.4 584.038,511.339 495.435,504.231 "
     id="polygon4537"
     transform="matrix(0.22222222,0,0,0.22222222,514.42308,104.56731)" /><polygon
     style="clip-rule:evenodd;fill:#ffffff;fill-rule:evenodd"
     points="574.569,521.832 583.362,518.447 494.759,514.724 "
     id="polygon4539"
     transform="matrix(0.22222222,0,0,0.22222222,514.42308,104.56731)" /><path
     style="clip-rule:evenodd;fill:#adb3d1;fill-rule:evenodd;stroke-width:0.222222"
     d="m 599.71997,140.80042 c 0.82666,-3.38489 -1.87889,-5.34044 -6.46289,-5.34044 h -19.16356 c -4.13333,0 -8.19133,2.18111 -9.018,5.26511 l -3.75755,14.66711 c -0.75133,3.15911 2.17933,5.26511 6.388,5.26511 h 19.08844 c 4.35867,0 8.19134,-1.57956 9.09311,-5.18978 h -26.00244 l 1.27755,-4.73889 h 16.38289 c 5.78667,0 10.07023,-1.65466 10.972,-5.26511 H 572.5153 l 1.20245,-4.66333 h 26.00222 z"
     id="path4541" /><path
     style="fill:none;stroke:#adb3d1;stroke-width:0.224156;stroke-miterlimit:2.6131"
     d="m 599.71997,140.80042 c 0.82666,-3.38489 -1.87889,-5.34044 -6.46289,-5.34044 h -19.16356 c -4.13333,0 -8.19133,2.18111 -9.018,5.26511 l -3.75755,14.66711 c -0.75133,3.15911 2.17933,5.26511 6.388,5.26511 h 19.08844 c 4.35867,0 8.19134,-1.57956 9.09311,-5.18978 h -26.00244 l 1.27755,-4.73889 h 16.38289 c 5.78667,0 10.07023,-1.65466 10.972,-5.26511 H 572.5153 l 1.20245,-4.66333 h 26.00222"
     id="path4543" /><path
     style="clip-rule:evenodd;fill:#adb3d1;fill-rule:evenodd;stroke-width:0.222222"
     d="m 644.43486,140.80042 c 0.82666,-3.46022 -1.80356,-5.34044 -6.46289,-5.34044 h -26.82911 l -6.38778,25.12244 h 0.90178 c 2.02933,0 4.13333,-0.30089 5.78666,-1.05311 1.80378,-0.90267 2.78067,-2.33178 3.382,-4.81378 l 3.60711,-13.91511 h 17.43489 l -1.20244,4.66333 h -13.37689 l 8.41689,15.26911 h 10.37089 l -5.63645,-9.92866 c 4.80978,-0.22556 7.966,-2.10622 8.79267,-5.26511 z"
     id="path4545" /><path
     style="fill:none;stroke:#adb3d1;stroke-width:0.224156;stroke-miterlimit:2.6131"
     d="m 644.43486,140.80042 c 0.82666,-3.46022 -1.80356,-5.34044 -6.46289,-5.34044 h -26.82911 l -6.38778,25.12244 h 0.90178 c 2.02933,0 4.13333,-0.30089 5.78666,-1.05311 1.80378,-0.90267 2.78067,-2.33178 3.382,-4.81378 l 3.60711,-13.91511 h 17.43489 l -1.20244,4.66333 h -13.37689 l 8.41689,15.26911 h 10.37089 l -5.63645,-9.92866 c 4.80978,-0.22556 7.966,-2.10622 8.79267,-5.26511 l 1.20267,-4.73867"
     id="path4547" /><path
     style="clip-rule:evenodd;fill:#adb3d1;fill-rule:evenodd;stroke-width:0.222222"
     d="m 690.12663,140.80042 c 0.97689,-3.46022 -1.80377,-5.34044 -6.538,-5.34044 h -19.08844 c -4.20867,0 -8.26667,2.18111 -9.01822,5.11466 l -3.75734,14.81756 c -0.82666,3.15911 2.104,5.26511 6.23734,5.26511 h 19.16355 c 4.28334,0 8.19134,-1.73 9.16845,-5.34044 l 1.35266,-4.96423 h -0.75133 c -2.17956,0 -4.28356,0.45134 -6.01222,1.42911 -1.72845,0.90267 -2.70533,1.80534 -2.93067,3.00867 l -0.22555,0.67711 h -17.43511 l 3.75755,-14.66711 h 17.35978 l -1.20245,4.73867 h 0.75156 c 2.104,0 4.13333,-0.52645 5.86178,-1.50422 1.12733,-0.45134 2.85555,-1.42912 3.30666,-3.23445 z"
     id="path4549" /><path
     style="fill:none;stroke:#adb3d1;stroke-width:0.224156;stroke-miterlimit:2.6131"
     d="m 690.12663,140.80042 c 0.97689,-3.46022 -1.80377,-5.34044 -6.538,-5.34044 h -19.08844 c -4.20867,0 -8.26667,2.18111 -9.01822,5.11466 l -3.75734,14.81756 c -0.82666,3.15911 2.104,5.26511 6.23734,5.26511 h 19.16355 c 4.28334,0 8.19134,-1.73 9.16845,-5.34044 l 1.35266,-4.96423 h -0.75133 c -2.17956,0 -4.28356,0.45134 -6.01222,1.42911 -1.72845,0.90267 -2.70533,1.80534 -2.93067,3.00867 l -0.22555,0.67711 h -17.43511 l 3.75755,-14.66711 h 17.35978 l -1.20245,4.73867 h 0.75156 c 2.104,0 4.13333,-0.52645 5.86178,-1.50422 1.12733,-0.45134 2.85555,-1.42912 3.30666,-3.23445"
     id="path4551" /><path
     style="clip-rule:evenodd;fill:#003671;fill-rule:evenodd;stroke-width:0.222222"
     d="m 598.06663,139.97309 c 0.82667,-3.38489 -1.80355,-5.34045 -6.46288,-5.34045 h -19.16378 c -4.13333,0 -8.19133,2.18111 -8.94289,5.26511 l -3.75733,14.66712 c -0.82667,3.15911 2.104,5.26533 6.31266,5.26533 h 19.08845 c 4.35866,0 8.19133,-1.50467 9.09333,-5.19 h -25.92755 l 1.20266,-4.73867 h 16.458 c 5.78667,0 9.99511,-1.65489 10.89667,-5.26533 h -26.002 l 1.20244,-4.66333 h 26.00222 z"
     id="path4553" /><path
     style="fill:none;stroke:#ffffff;stroke-width:0.124533;stroke-miterlimit:2.6131"
     d="m 598.06663,139.97309 c 0.82667,-3.38489 -1.80355,-5.34045 -6.46288,-5.34045 h -19.16378 c -4.13333,0 -8.19133,2.18111 -8.94289,5.26511 l -3.75733,14.66712 c -0.82667,3.15911 2.104,5.26533 6.31266,5.26533 h 19.08845 c 4.35866,0 8.19133,-1.50467 9.09333,-5.19 h -25.92755 l 1.20266,-4.73867 h 16.458 c 5.78667,0 9.99511,-1.65489 10.89667,-5.26533 h -26.002 l 1.20244,-4.66333 h 26.00222"
     id="path4555" /><path
     style="clip-rule:evenodd;fill:#003671;fill-rule:evenodd;stroke-width:0.222222"
     d="m 642.78152,139.97309 c 0.90178,-3.45978 -1.72866,-5.34045 -6.46289,-5.34045 h -26.75377 l -6.388,25.12245 h 0.82666 c 2.02934,0 4.13334,-0.22556 5.862,-1.05311 1.72845,-0.90245 2.78045,-2.33178 3.38178,-4.81378 l 3.532,-13.91511 h 17.43511 l -1.12733,4.66333 h -13.37667 l 8.34178,15.26911 h 10.446 l -5.63644,-9.92866 c 4.80977,-0.22556 7.966,-2.03089 8.71777,-5.26512 z"
     id="path4557" /><path
     style="fill:none;stroke:#ffffff;stroke-width:0.124533;stroke-miterlimit:2.6131"
     d="m 642.78152,139.97309 c 0.90178,-3.45978 -1.72866,-5.34045 -6.46289,-5.34045 h -26.75377 l -6.388,25.12245 h 0.82666 c 2.02934,0 4.13334,-0.22556 5.862,-1.05311 1.72845,-0.90245 2.78045,-2.33178 3.38178,-4.81378 l 3.532,-13.91511 h 17.43511 l -1.12733,4.66333 h -13.37667 l 8.34178,15.26911 h 10.446 l -5.63644,-9.92866 c 4.80977,-0.22556 7.966,-2.03089 8.71777,-5.26512 l 1.202,-4.73866"
     id="path4559" /><path
     style="clip-rule:evenodd;fill:#003671;fill-rule:evenodd;stroke-width:0.222222"
     d="m 688.54819,139.97309 c 0.902,-3.45978 -1.87867,-5.34045 -6.538,-5.34045 h -19.08844 c -4.20845,0 -8.26667,2.18111 -9.018,5.19 l -3.83267,14.74223 c -0.75156,3.15911 2.17933,5.26533 6.31267,5.26533 h 19.16333 c 4.28378,0 8.19133,-1.73022 9.16844,-5.34045 l 1.27756,-4.96444 h -0.75134 c -2.10422,0 -4.20866,0.45133 -6.01222,1.42933 -1.65333,0.90245 -2.63,1.80489 -2.93066,3.00867 l -0.22556,0.67689 h -17.43511 l 3.83267,-14.66711 h 17.36 l -1.27756,4.73866 h 0.82667 c 2.02911,0 4.13333,-0.45133 5.78666,-1.42911 1.20223,-0.52666 2.93089,-1.50444 3.38156,-3.30955 z"
     id="path4561" /><path
     style="fill:none;stroke:#ffffff;stroke-width:0.124533;stroke-miterlimit:2.6131"
     d="m 688.54819,139.97309 c 0.902,-3.45978 -1.87867,-5.34045 -6.538,-5.34045 h -19.08844 c -4.20845,0 -8.26667,2.18111 -9.018,5.19 l -3.83267,14.74223 c -0.75156,3.15911 2.17933,5.26533 6.31267,5.26533 h 19.16333 c 4.28378,0 8.19133,-1.73022 9.16844,-5.34045 l 1.27756,-4.96444 h -0.75134 c -2.10422,0 -4.20866,0.45133 -6.01222,1.42933 -1.65333,0.90245 -2.63,1.80489 -2.93066,3.00867 l -0.22556,0.67689 h -17.43511 l 3.83267,-14.66711 h 17.36 l -1.27756,4.73866 h 0.82667 c 2.02911,0 4.13333,-0.45133 5.78666,-1.42911 1.20223,-0.52666 2.93089,-1.50444 3.38156,-3.30955"
     id="path4563" /><path
     style="clip-rule:evenodd;fill:#003671;fill-rule:evenodd;stroke-width:0.222222"
     d="m 685.76797,195.18198 c -0.60134,0.60177 -0.902,1.27866 -0.902,2.10622 0,0.90244 0.30066,1.57933 0.902,2.18111 0.60111,0.60178 1.27733,0.90244 2.17933,0.90244 0.82667,0 1.578,-0.30066 2.17933,-0.90244 0.60134,-0.60178 0.90178,-1.27867 0.90178,-2.18111 0,-0.82734 -0.30044,-1.50422 -0.90178,-2.10622 -0.60133,-0.67689 -1.35266,-0.97778 -2.17933,-0.97778 -0.902,0 -1.57844,0.30089 -2.17933,0.97778 z m 4.73444,4.81377 c -0.67644,0.67689 -1.578,1.05311 -2.55511,1.05311 -1.052,0 -1.954,-0.37622 -2.63022,-1.12844 -0.75156,-0.67689 -1.12734,-1.57956 -1.12734,-2.63244 0,-1.05312 0.37578,-1.95578 1.20245,-2.708 0.67667,-0.67689 1.57822,-0.97778 2.55533,-0.97778 0.97711,0 1.87867,0.37622 2.63022,1.05311 0.67623,0.75222 1.052,1.65467 1.052,2.63267 -2.2e-4,1.05288 -0.37577,1.95577 -1.12733,2.70777 z m -1.35289,-0.82733 c -0.37578,0.22556 -0.75133,0.37622 -1.12733,0.37622 -0.60111,0 -1.052,-0.22555 -1.50289,-0.60178 -0.37578,-0.45133 -0.60111,-0.97777 -0.60111,-1.65466 0,-0.60178 0.22533,-1.12845 0.526,-1.50422 0.37578,-0.45156 0.90178,-0.67712 1.50311,-0.67712 0.37578,0 0.75133,0.0753 0.97711,0.22556 0.526,0.30089 0.82667,0.75222 0.90178,1.42933 l -0.97689,-0.0753 c 0,-0.30089 -0.15022,-0.45133 -0.30067,-0.60178 -0.15,-0.0751 -0.37577,-0.15022 -0.526,-0.15022 -0.30066,0 -0.526,0.15022 -0.67644,0.376 -0.22533,0.22578 -0.30067,0.60178 -0.30067,1.05311 0,0.45156 0.0753,0.75222 0.30067,0.97778 0.22555,0.22578 0.45089,0.30089 0.75155,0.30089 0.22534,0 0.37578,-0.0751 0.526,-0.22556 0.15023,-0.0753 0.22534,-0.30089 0.22534,-0.45133 h 0.97689 c -0.15045,0.52622 -0.37578,0.97733 -0.67645,1.20311 z"
     id="path4565" /></g>
</svg>
