<?xml version="1.0" encoding="UTF-8" standalone="no"?>
<!-- Generator: Adobe Illustrator 24.3.0, SVG Export Plug-In . SVG Version: 6.00 Build 0)  -->

<svg
   version="1.0"
   id="svg3054"
   x="0px"
   y="0px"
   viewBox="0 0 200 199.99999"
   xml:space="preserve"
   sodipodi:docname="logo_BHV.svg"
   width="200"
   height="200"
   inkscape:version="1.1 (c68e22c387, 2021-05-23)"
   xmlns:inkscape="http://www.inkscape.org/namespaces/inkscape"
   xmlns:sodipodi="http://sodipodi.sourceforge.net/DTD/sodipodi-0.dtd"
   xmlns:xlink="http://www.w3.org/1999/xlink"
   xmlns="http://www.w3.org/2000/svg"
   xmlns:svg="http://www.w3.org/2000/svg"><defs
   id="defs1794" /><sodipodi:namedview
   id="namedview1792"
   pagecolor="#ffffff"
   bordercolor="#666666"
   borderopacity="1.0"
   inkscape:pageshadow="2"
   inkscape:pageopacity="0.0"
   inkscape:pagecheckerboard="0"
   showgrid="false"
   inkscape:zoom="2.0586061"
   inkscape:cx="256.72712"
   inkscape:cy="158.1167"
   inkscape:window-width="1920"
   inkscape:window-height="1017"
   inkscape:window-x="-8"
   inkscape:window-y="-8"
   inkscape:window-maximized="1"
   inkscape:current-layer="svg3054" />
<style
   type="text/css"
   id="style1685">
	.st0{clip-path:url(#SVGID_2_);}
	.st1{fill:#FFFFFF;}
	.st2{fill:#231F20;}
	.st3{fill:#FFF200;}
	.st4{fill:#254AA5;}
	.st5{fill:#ED1C24;}
	.st6{clip-path:url(#SVGID_4_);}
	.st7{fill-rule:evenodd;clip-rule:evenodd;fill:#FFFFFF;}
	.st8{fill-rule:evenodd;clip-rule:evenodd;fill:#ED1C24;}
</style>
<g
   id="g3064"
   transform="matrix(0.69433028,0,0,-0.7266614,-42.92253,282.20248)">
	<g
   id="g3356"
   transform="matrix(2.6009562,0,0,2.6009562,-608.42607,-887.10113)">
		<g
   id="g3066">
			<g
   id="g1698">
				<defs
   id="defs1688">
					<rect
   id="SVGID_1_"
   x="179.94"
   y="267.84"
   width="266.04999"
   height="339.17001" />
				</defs>
				<clipPath
   id="SVGID_2_">
					<use
   xlink:href="#SVGID_1_"
   style="overflow:visible"
   id="use1690"
   x="0"
   y="0"
   width="100%"
   height="100%" />
				</clipPath>
				<g
   id="g3068"
   class="st0"
   clip-path="url(#SVGID_2_)">
					<path
   id="path3074"
   class="st1"
   d="m 289.2,407.88 h 48.05 v -5.14 H 289.2 Z" />
					<path
   id="path3076"
   class="st1"
   d="m 353.93,437.42 -41.3,-52.16 -40.44,52.35 41.01,51.94 40.73,-52.13" />
					<path
   id="path3078"
   class="st2"
   d="m 338.8,457.63 15.27,-20.22 -13.61,-17.58 h -1.83 l -0.02,4.77 h -0.53 l 10.02,12.92 c 0,0 -14.41,18.8 -14.41,18.76 l 5.11,1.35" />
					<path
   id="path3080"
   class="st2"
   d="m 323.46,469.46 -10.07,12.58 c 0,0 -10.64,-13.29 -11.75,-14.44 -0.13,-0.22 -0.55,-0.63 -0.62,-0.84 l -2.21,5.03 c 2.91,3.68 14.41,18.14 14.41,18.14 0,0 13.76,-17.18 13.77,-17.18 l -3.53,-3.29" />
				</g>
			</g>
		</g>
		<path
   id="path3082"
   class="st3"
   d="m 298.46,471.26 -1.02,-1.35 -0.99,-1.49 -1.24,0.99 -0.63,0.99 -0.19,-0.03 0.96,-3.36 -0.99,-1.21 -5.27,5.51 -0.06,-0.33 3.78,-7.03 -0.99,-1.35 -4.52,2.84 -0.08,-0.3 3.31,-4.11 -0.61,-0.74 -3.89,2.01 0.14,-1.21 9.57,-6.42 -1.63,-0.3 0.19,-0.63 3.86,-0.5 2.4,-0.52 5.29,-3.75 2.37,-2.23 2.01,-1.76 4.71,2.78 10.09,7.69 7.39,-1.21 0.44,0.83 7.19,2.45 0.33,0.58 -1.88,0.03 -0.77,0.66 2.92,1.3 -0.39,0.22 -4.08,0.08 -0.41,0.94 6.26,4.11 h -0.91 l -6.59,-2.4 -0.52,0.66 4.3,4.08 -0.99,-0.33 -4.71,-2.07 -0.39,0.5 5.6,5.76 -0.5,-0.11 -6.2,-4 -0.58,0.58 3.5,4.3 -0.96,-0.17 -3.94,-2.37 -1.02,1.32 0.96,2.48 -0.06,0.72 -1.13,-0.96 -4.52,-3.94 0.41,2.34 -0.8,-0.77 -7.86,-6.78 -1.49,0.33 -2.01,4.66 -0.28,0.22 -1.54,-6.4 -1.9,5.9 0.17,-8.63 -3.58,7.91 -0.83,0.8 0.19,-6.04 -3.28,3.09 -2.11,5.14" />
		<path
   id="path3084"
   class="st4"
   d="m 286.38,461.63 c 0.07,0.18 0.02,0.29 0,0.51 0.22,0.04 0.33,-0.18 0.51,-0.22 0.55,-0.15 2.14,-1.01 2.45,-1.17 0.18,-0.09 0.35,-0.26 0.57,-0.18 0.18,0.24 0.33,0.42 0.53,0.66 0.82,-0.77 1.43,-1.57 2.27,-2.34 0.31,-0.13 0.6,-0.29 0.9,-0.4 0.66,-0.35 1.35,-0.7 2.03,-0.97 0.86,-0.51 1.83,-0.86 2.69,-1.3 0.42,-0.22 0.79,-0.4 1.23,-0.57 0,-0.11 -0.11,-0.07 -0.15,-0.11 -0.95,-0.13 -1.87,-0.48 -2.8,-0.62 -0.81,0.49 -9.61,6.25 -10.23,6.71" />
		<path
   id="path3086"
   class="st4"
   d="m 339.48,426.32 c 0.01,0.08 1.44,7.55 1.8,9.35 -0.24,0.44 -5.05,9.42 -5.47,10.21 -1.3,0.49 -2.62,0.9 -3.9,1.5 -2.16,0.79 -4.41,1.61 -6.53,2.34 -0.24,-0.44 -0.75,-3.6 -0.77,-4.21 0.15,-0.11 0.31,0.09 0.49,0.13 1.08,0.64 2.23,1.1 3.31,1.74 0.29,0.15 0.6,0.33 0.93,0.11 0.46,-0.2 2.89,-1.46 3.75,-1.83 -0.09,-0.24 -0.4,-0.2 -0.64,-0.24 -1.37,0.15 -2.87,0.07 -4.26,0.09 -0.49,-0.4 -0.97,-0.93 -1.37,-1.46 l 0.15,-0.09 c 1.79,0.07 3.35,0.11 5.14,0.07 0.82,-0.84 1.59,-1.76 2.38,-2.67 0.24,-0.37 0.57,-0.68 0.84,-1.06 -0.42,-0.09 -0.73,0.26 -1.08,0.44 -1.3,0.62 -2.49,1.5 -3.79,2.12 -0.95,-0.26 -5.43,-2.03 -6.75,-2.56 -0.2,-0.15 -0.13,-0.44 -0.15,-0.64 -0.13,-1.06 -0.84,-4.65 -0.93,-5.45 -0.18,-0.2 -0.24,-0.51 -0.55,-0.57 -2.91,-1.74 -5.84,-3.48 -8.73,-5.23 -0.15,-0.31 -0.26,-0.62 -0.38,-0.93 -0.2,-0.44 -0.31,-0.93 -0.46,-1.39 -0.22,-0.04 -0.49,-0.11 -0.66,-0.04 -0.49,-0.02 -0.73,0.02 -1.19,0.04 -0.22,0.44 -0.33,0.9 -0.49,1.37 -0.86,0.53 -1.79,0.95 -2.67,1.48 -0.29,0.24 -0.71,0.35 -1.01,0.55 -0.04,0 -0.09,0 -0.13,-0.04 0.33,-1.5 0.51,-2.98 0.82,-4.32 0.02,-0.24 0.09,-0.44 0.11,-0.66 h -1.65 c -0.22,0.55 -0.33,1.17 -0.46,1.76 -0.31,1.3 -0.55,2.56 -0.82,3.84 -0.15,0.38 -0.09,0.9 -0.57,1.01 -0.33,0.31 -0.99,0.31 -0.99,0.84 -0.07,0.4 -1.08,4.94 -1.59,6.62 -1.3,0.64 -10.23,4.21 -11.18,4.83 -0.37,0 -0.26,-0.46 -0.44,-0.64 -0.42,-1.28 -3.02,-9.37 -3.22,-9.75 0.02,-0.07 0.02,-0.13 -0.04,-0.2 -0.07,-0.6 1.87,-8.38 1.87,-8.38 h -0.69 l -4.47,6.28 c 0.05,0.11 5.19,13.6 5.27,13.66 0.02,0.51 6.97,4.01 10.06,5.69 0.2,0.15 0.18,0.44 0.09,0.64 -0.15,0.46 -0.35,2.07 -0.66,2.21 -1.15,0.24 -2.38,0.51 -3.57,0.79 0,0.09 0.02,0.18 0.11,0.26 2.12,0.24 4.21,0.64 6.35,0.97 0.29,-0.26 0.62,-0.6 0.88,-0.88 2.47,-2.67 5.01,-5.36 7.54,-7.98 -0.35,-0.35 -0.55,0.2 -0.86,0.35 -2.51,1.88 -5.12,3.84 -7.59,5.76 -0.31,-0.13 -0.09,-0.6 -0.09,-0.6 0,0 3.11,-17.22 3.44,-18.79 1.7,-0.82 3.4,-1.59 5.12,-2.32 0.18,0 0.09,0.22 0.09,0.29 -0.24,0.84 -0.62,1.7 -0.71,2.49 -0.07,0.18 -0.15,0.4 -0.2,0.62 -0.2,0.73 -0.46,1.43 -0.64,2.16 -0.55,1.83 -1.17,3.73 -1.68,5.45 0.93,0.33 1.79,0.75 2.71,1.06 0.42,-0.13 0.82,-0.82 1.35,-0.49 0.6,0.15 1.12,0.51 1.74,0.6 0.53,-0.31 1.01,-0.71 1.54,-1.04 0.44,0.09 0.9,0.24 1.37,0.38 0.68,-0.02 1.57,0.95 2.01,-0.04 0.37,-0.29 0.66,-0.66 1.01,-0.93 -0.95,-2.62 -3.42,-9.66 -3.57,-10.26 0.09,-0.15 0.24,0.02 0.37,0.04 2.23,1.59 4.61,3.04 6.88,4.52 0.24,0.33 0.07,0.82 0.24,1.19 0.02,0.71 1.54,15.48 1.41,15.61 -1.34,-0.6 -2.6,-1.46 -3.93,-2.14 -1.46,-0.73 -2.85,-1.63 -4.23,-2.38 -0.09,0.02 -0.07,0.13 -0.04,0.18 0.37,0.2 9.2,7.39 9.53,7.76 0.26,0.09 0.42,0.46 0.75,0.31 2.23,-0.4 4.41,-0.9 6.64,-1.3 0.29,-0.15 0.64,-0.11 0.95,-0.24 -0.24,-0.2 -0.55,-0.49 -0.93,-0.35 -1.96,-0.35 -3.9,-0.57 -5.87,-0.97 -0.04,-0.31 -0.35,-0.79 -0.02,-1.08 1.5,-0.6 9.24,-4.04 10.74,-4.7 0.31,-0.07 0.44,-0.42 0.77,-0.44 0.18,-0.35 5.95,-10.83 5.89,-11.18 0.77,-0.77 -0.53,-4.73 -0.56,-5.1 l -3.26,-4.14" />
		<path
   id="path3088"
   class="st1"
   d="m 299.26,446.99 c 0.2,-0.9 0.4,-1.83 0.66,-2.71 0.37,-1.54 0.51,-2.58 0.88,-4.15 v -0.04 c -0.46,-0.07 -0.71,0.4 -1.13,0.51 -2.49,1.48 -4.87,2.73 -7.3,4.28 1.43,1.06 3.09,1.79 4.57,2.73 0.6,0.35 1.19,0.73 1.81,1.06 0.27,-0.47 0.31,-1.13 0.51,-1.68" />
		<path
   id="path3090"
   class="st5"
   d="m 313.04,440.37 c 0.71,0.33 1.39,0.66 2.12,0.99 0.35,-0.04 0.64,-0.33 0.86,-0.53 -0.26,-0.95 -0.51,-1.87 -0.88,-2.76 -0.24,-0.97 -0.57,-1.81 -0.88,-2.76 -0.2,-0.82 -0.53,-1.48 -0.75,-2.27 0.04,-0.15 -0.04,-0.29 -0.13,-0.42 -0.42,-1.08 -0.66,-2.45 -1.19,-3.53 -0.07,-0.53 -0.24,-1.06 -0.46,-1.5 -0.2,-0.04 -0.4,0.04 -0.42,0.2 -0.46,1.65 -0.9,3.31 -1.37,4.92 0.02,0.31 -0.22,0.68 -0.2,1.06 -0.77,2.4 -1.21,4.63 -1.98,7.01 0.2,0.26 0.57,0.4 0.95,0.4 0.31,-0.18 0.64,-0.33 0.93,-0.57 0.62,0.24 1.26,0.46 1.81,0.88 0.53,-0.33 1.11,-0.66 1.59,-1.12" />
		<path
   id="path3092"
   class="st4"
   d="m 320.92,468 c -0.9,-1.08 -1.61,-2.23 -2.51,-3.35 -1.72,-2.54 -3.64,-4.92 -5.32,-7.41 -0.04,-0.02 -0.04,0.02 -0.07,0.04 0.33,0.93 1.5,5.54 1.52,5.69 0.24,0.55 0.22,1.26 0.75,1.68 0.97,0.82 2.07,1.72 3.04,2.58 0.22,0.13 5.13,4.35 5.13,4.35 0,0 -2.17,-3 -2.54,-3.58" />
		<path
   id="path3094"
   class="st4"
   d="m 326.93,472.91 0.08,-0.09 c 0,0 0.95,0.93 1.54,1.28 0.22,-0.46 -0.18,-0.84 -0.37,-1.17 -4.52,-5.67 -9,-11.47 -13.48,-17.05 -0.09,0.04 0.04,0.13 0.09,0.22 2.16,3.97 4.52,7.74 6.86,11.64 0.46,0.62 1.19,1.12 1.7,1.7 l 0.02,0.11 -0.04,0.05 3.6,3.31" />
		<path
   id="path3096"
   class="st4"
   d="m 301.2,466.64 c 0.82,-0.97 1.57,-2.03 2.36,-3.09 0.75,-0.97 1.48,-2.01 2.27,-2.98 0.15,-0.31 0.49,-0.55 0.62,-0.86 l 0.02,0.04 c 0.53,-0.82 1.19,-1.59 1.7,-2.43 h -0.11 c -1.68,1.63 -3.22,3.37 -4.94,4.98 l -0.02,0.09 c -1.13,1.08 -2.32,2.36 -3.37,3.37 -0.49,0.68 -1.15,4.74 -1.34,5.01 0.09,0.13 -0.07,0.31 0.02,0.49 l 0.41,0.52 c -0.01,0.01 2.31,-5.03 2.38,-5.14" />
		<path
   id="path3098"
   class="st4"
   d="m 333.29,472.22 v -0.11 c -2.4,-2.27 -4.7,-4.52 -7.04,-6.77 -0.53,-0.51 -0.97,-0.97 -1.52,-1.43 -1.15,-1.1 -2.38,-2.29 -3.57,-3.42 l 0.02,-0.02 c -1.15,-1.06 -2.29,-2.16 -3.37,-3.15 1.65,2.47 3.24,4.9 4.96,7.34 0.22,0.46 0.62,0.93 0.9,1.34 0.29,0.13 2.73,3.26 3.81,4.52 l 0.62,0.77 c 0.24,-0.07 0.75,-0.99 0.99,-1.08 l 0.22,0.02 c 1.26,0.71 2.54,1.32 3.82,2.12 0.11,0.02 0.11,-0.07 0.16,-0.13" />
		<path
   id="path3100"
   class="st4"
   d="m 337.43,471.42 c -2.36,-1.92 -4.72,-4.04 -6.99,-5.84 -0.15,-0.22 -0.37,-0.31 -0.57,-0.51 -2.65,-2.25 -5.29,-4.48 -7.98,-6.73 -0.07,0 -0.15,-0.04 -0.2,0.04 1.17,1.37 2.25,2.91 3.42,4.3 0.13,0.22 0.33,0.44 0.51,0.71 1.26,1.5 2.87,2.89 4.34,4.23 0.13,0.24 0.42,0.35 0.62,0.62 0.15,-0.2 0.26,-0.55 0.57,-0.49 2.03,1.37 4.23,2.49 6.24,3.93 0.09,-0.04 0.09,-0.19 0.04,-0.26" />
		<path
   id="path3102"
   class="st4"
   d="m 292.66,467.87 c 0.57,-0.51 1.1,-1.13 1.7,-1.61 0.4,0.26 0.6,0.73 0.95,1.04 0.84,-1.57 1.68,-3.15 2.56,-4.7 1.43,-1.41 2.91,-2.93 4.26,-4.34 0.79,-0.66 1.41,-1.37 2.16,-2.16 0.09,-0.04 0.18,-0.11 0.26,-0.18 -0.09,-0.09 -0.26,-0.07 -0.33,-0.04 -0.35,0.22 -0.71,0.53 -1.04,0.77 -2.14,1.65 -4.28,3.24 -6.4,4.85 -0.64,0.53 -1.43,1.15 -2.12,1.65 -1.04,1.54 -2.05,3.09 -3.13,4.61 -0.09,0.29 -0.4,0.49 -0.46,0.77 -0.62,0.86 -1.15,1.63 -1.7,2.54 1.09,-1.04 2.17,-2.16 3.29,-3.2" />
		<path
   id="path3104"
   class="st4"
   d="m 296.3,468.62 c 0.46,0.46 0.79,1.1 1.28,1.59 0.07,-0.35 0.93,-3.35 1.17,-4.21 0.22,-0.31 0.24,-0.73 0.53,-0.99 0.51,-0.66 6.77,-7.76 8.14,-9.42 -0.44,0.07 -1.04,0.15 -1.5,0.35 -2.71,2.54 -5.29,5.31 -7.83,8.05 -0.77,1.43 -1.63,2.93 -2.45,4.37 -0.18,0.37 -1.01,1.92 -1.12,2.16 0.24,-0.2 1.3,-1.7 1.78,-1.9" />
		<path
   id="path3106"
   class="st4"
   d="m 313.84,464.54 c -0.22,-1.65 -1.3,-6.2 -1.39,-6.75 -0.2,-0.13 -0.24,0.11 -0.31,0.24 0.07,0.22 -0.13,0.33 -0.13,0.53 -0.26,0.77 -0.93,3.59 -1.06,3.88 -0.09,0.64 -0.51,1.26 -0.15,1.9 0.11,1.08 1.04,4.23 1.08,4.43 0.68,-1.38 1.32,-2.8 1.96,-4.23" />
		<path
   id="path3108"
   class="st4"
   d="m 305.08,467.32 c 1.28,-2.84 2.62,-5.76 3.75,-8.6 0.22,-0.24 0.2,-0.57 0.4,-0.82 -0.02,-0.18 -0.2,-0.15 -0.31,-0.2 -0.49,0.79 -1.08,1.46 -1.54,2.25 -0.15,0.07 -0.15,0.29 -0.26,0.4 -0.93,1.26 -1.76,2.47 -2.65,3.73 0.02,1.1 -0.24,3.99 -0.24,4.43 0.59,-0.11 0.59,-0.79 0.85,-1.19" />
		<path
   id="path3110"
   class="st4"
   d="m 308.56,467.43 c 0.15,-0.68 0.46,-1.35 0.62,-2.05 0.55,-1.94 2.05,-7.5 2.32,-8.05 -0.02,-0.07 -0.02,-0.15 -0.13,-0.15 -0.18,-0.04 -0.18,0.24 -0.31,0.35 -0.33,0.44 -2.47,3.22 -2.34,4.08 -0.15,1.76 -0.09,3.73 -0.37,5.56 0.09,0.26 -0.13,0.57 -0.02,0.84 0.15,-0.09 0.17,-0.38 0.23,-0.58" />
		<path
   id="path3112"
   class="st4"
   d="m 337.59,467.63 c -0.07,-0.24 -0.35,-0.26 -0.53,-0.44 -4.59,-3.02 -8.98,-6 -13.56,-8.98 -0.02,0 -0.07,0 -0.09,0.02 1.7,1.57 3.24,2.87 4.87,4.37 1.37,1.01 2.58,2.4 3.95,3.4 0.2,0 0.22,-0.33 0.44,-0.4 0.22,-0.04 0.31,0.18 0.51,0.2 1.48,0.62 2.93,1.21 4.41,1.83" />
		<path
   id="path3114"
   class="st4"
   d="m 341.25,465.4 c -0.09,-0.2 -0.29,-0.18 -0.44,-0.29 -5.07,-2.43 -10.26,-4.63 -15.35,-6.95 -0.07,0.02 -0.13,0.04 -0.18,0.09 v 0.09 c 2.91,1.79 5.82,3.71 8.73,5.43 0.24,-0.11 0.29,-0.44 0.57,-0.35 1.65,0.55 3.4,1.12 5.09,1.63 0.4,0.04 0.77,0.31 1.21,0.35 0.11,0.07 0.35,0.22 0.37,0" />
		<path
   id="path3116"
   class="st4"
   d="m 291.65,462.95 c 0.35,0.04 0.44,0.44 0.66,0.64 0.09,0.22 0.29,0.35 0.4,0.55 0.09,0.02 0.13,-0.07 0.15,-0.11 0.33,-1.08 1.52,-1.32 2.23,-2.03 0.42,-0.22 0.77,-0.68 1.21,-0.84 0.24,-0.24 -0.29,-0.68 -0.29,-0.71 0,0 3.35,-2.21 5.03,-3.29 0.33,-0.15 0.6,-0.42 0.95,-0.51 0.07,-0.11 -0.09,-0.09 -0.13,-0.13 -1.76,0.55 -3.57,1.17 -5.25,1.79 -0.71,0.11 -1.32,0.49 -1.98,0.6 -0.6,0.31 -1.41,0.29 -1.72,1.01 -1.65,1.63 -3.26,3.02 -4.72,4.68 -0.18,0.2 -0.64,0.35 -0.51,0.71 1.32,-0.68 2.65,-1.63 3.97,-2.36" />
		<path
   id="path3118"
   class="st4"
   d="m 336.27,460.9 c 0.15,-0.6 0.84,-0.4 1.24,-0.44 0.95,-0.07 1.83,-0.07 2.8,-0.11 l 0.04,-0.11 c -3.66,-0.71 -7.43,-1.3 -11.16,-2.03 -0.9,-0.07 -1.76,-0.33 -2.65,-0.44 -0.2,-0.07 -0.4,-0.15 -0.6,-0.09 3.26,1.24 6.53,2.54 9.84,3.73 0.22,-0.02 0.38,-0.31 0.49,-0.51" />
		<path
   id="path3120"
   class="st4"
   d="m 315.73,451.24 c -1.54,-1.59 -3.13,-3.46 -4.76,-5.07 -0.26,0 -0.49,0.33 -0.68,0.55 -1.17,1.15 -2.23,2.23 -3.33,3.42 -0.33,0.4 -0.75,0.73 -1.04,1.08 0.18,0.11 0.4,0 0.57,0 1.41,-0.77 2.89,-1.41 4.34,-2.1 0.4,0.02 0.73,0.29 1.08,0.46 0.6,0.2 1.15,0.53 1.7,0.82 0.6,0.29 1.23,0.53 1.81,0.9 0.11,-0.01 0.25,0.05 0.31,-0.06" />
		<path
   id="path3122"
   class="st4"
   d="m 312.05,445.09 1.24,-0.9 -0.07,-0.09 c -1.3,0.02 -2.67,0.15 -4.01,0.22 -0.02,0.18 0.2,0.2 0.31,0.29 0.6,0.33 1.17,0.73 1.72,1.06 0.32,-0.14 0.52,-0.38 0.81,-0.58" />
		<path
   id="path3124"
   class="st4"
   d="m 312.09,438.25 c -0.33,-2.27 -0.42,-4.79 -0.75,-7.01 -0.11,0.02 -0.2,0.13 -0.24,0.26 -0.04,0.26 -0.04,0.55 0,0.79 -0.02,0.49 -0.04,0.95 -0.07,1.46 -0.04,1.72 -0.13,3.02 -0.24,4.72 0.07,0.29 -0.04,0.49 0,0.77 -0.02,0.29 -0.07,0.75 -0.09,1.08 0.13,0.04 0.24,-0.15 0.26,-0.26 0.29,-0.46 0.53,-0.95 0.88,-1.35 0.01,-0.19 0.21,-0.28 0.25,-0.46" />
		<path
   id="path3126"
   class="st4"
   d="m 337.83,436.25 c 0,0 -5.71,0.57 -6.74,0.82 -0.22,-0.09 -0.49,-0.22 -0.6,-0.42 -3.46,-3.11 -6.9,-6.26 -10.45,-9.53 h -0.09 c 0.04,0.35 0.35,0.53 0.53,0.82 0.73,0.99 1.54,1.87 2.23,2.89 2.07,2.69 4.04,5.23 6.02,7.98 1.21,0.33 3.75,0.97 3.75,0.97 l 5.35,-3.53" />
		<path
   id="path3128"
   class="st4"
   d="m 293.83,438.34 c 2.05,-1.48 4.06,-2.85 6.04,-4.17 0,-0.22 0.46,-0.18 0.22,-0.4 -2.12,0.73 -4.32,1.41 -6.46,2.18 -0.44,-0.02 -0.82,0.49 -1.26,0.15 -1.32,-0.42 -2.71,-0.84 -4.08,-1.21 -0.09,0.13 0.02,0.26 0.11,0.37 1.5,1.3 3.07,2.43 4.57,3.62 0.31,-0.1 0.55,-0.41 0.86,-0.54" />
		<path
   id="path3130"
   class="st4"
   d="m 294.41,424.49 -0.09,-0.07 -1.1,0.04 c -1.59,2.67 -3.33,5.18 -4.92,7.85 -0.04,0.31 0.4,0.18 0.57,0.33 0.9,0.2 1.83,0.55 2.76,0.71 0.13,-0.08 1.85,-6.04 2.78,-8.86" />
		<path
   id="path3132"
   class="st4"
   d="m 298.27,431.13 c 1.06,-1.34 2.32,-2.8 3.4,-4.12 -0.04,-0.86 -0.51,-1.63 -0.68,-2.49 l -0.11,-0.07 c -0.97,-0.04 -1.61,0.04 -2.58,0 -0.11,2.34 -0.04,4.5 -0.09,6.73 l 0.06,-0.05" />
		<path
   id="path3134"
   class="st4"
   d="m 324.49,428.28 c -0.02,-0.42 -0.18,-0.82 -0.31,-1.21 -0.24,-0.82 -0.46,-1.65 -0.75,-2.45 -0.33,-0.13 -0.68,-0.04 -1.08,-0.07 -0.18,0.2 0.11,0.46 0.07,0.75 -0.04,0.11 0.07,0.26 -0.09,0.33 -0.75,-0.24 -1.39,-0.75 -2.09,-1.08 h -1.88 c 0.02,0.24 0.2,0.46 0.24,0.73 1.94,0.95 3.86,2.03 5.82,3 h 0.07" />
		<path
   id="path3136"
   class="st5"
   d="m 337.99,419.29 0.2,-0.07 h 9.13 c 0.09,-0.24 -0.13,-0.48 -0.26,-0.71 -0.68,-1.41 -1.5,-2.89 -2.32,-4.21 l 0.04,-0.02 c -0.68,-1.1 -1.15,-2.23 -1.76,-3.35 -0.02,-0.33 0.24,-0.51 0.37,-0.75 0.55,-0.9 1.3,-1.87 1.88,-2.73 0.57,-0.91 1.37,-2.05 1.92,-2.91 0.38,-0.57 0.75,-1.1 1.19,-1.65 l -0.13,-0.11 -11.18,-0.02 v 4.48 l -47.42,0.02 v -4.5 h -12.07 c 0.9,1.52 2.17,2.98 3.16,4.48 0.57,0.9 1.21,1.61 1.74,2.54 0.31,0.44 0.95,0.93 0.66,1.5 -0.35,0.46 -0.55,1.04 -0.82,1.52 -0.82,1.32 -1.5,2.73 -2.36,4.06 -0.42,0.77 -0.88,1.54 -1.3,2.32 l 9.68,0.07 0.07,0.11 0.02,4.17 h 49.56 v -4.24" />
		<path
   id="path3138"
   class="st1"
   d="m 335.47,407.98 h -44.55 v 13.94 h 44.55 v -13.94" />
		<path
   id="path3140"
   class="st1"
   d="m 288.36,417.43 v -1.87 l -6.77,0.02 c -0.2,0.15 -0.22,0.37 -0.33,0.57 -0.29,0.35 -0.53,0.86 -0.73,1.26 0.66,0.07 1.43,0.07 2.12,0.02 h 5.71" />
		<path
   id="path3142"
   class="st1"
   d="m 345.57,417.23 c 0,-0.13 -0.13,-0.26 -0.22,-0.4 l 0.02,-0.02 c -0.26,-0.38 -0.44,-0.82 -0.64,-1.21 l -0.2,-0.13 -6.55,0.02 -0.02,1.81 7.61,-0.07" />
		<path
   id="path3144"
   class="st1"
   d="m 288.36,411.81 -4.68,0.04 c -0.37,0.6 -0.71,1.19 -1.04,1.81 1.92,0.04 3.84,0.07 5.69,0.04 l 0.03,-1.89" />
		<path
   id="path3146"
   class="st1"
   d="m 343.52,413.62 c 0.18,-0.11 -0.55,-1.41 -0.95,-1.94 -1.41,-0.02 -3.09,-0.04 -4.59,0.04 l -0.02,1.87 c 1.83,0.05 3.69,0.03 5.56,0.03" />
		<path
   id="path3148"
   class="st1"
   d="m 342.88,409.34 c 0.29,-0.51 0.66,-0.88 0.97,-1.37 h -5.89 v 1.76 h 3.9 c 0.18,0.02 0.48,0.02 0.71,0 l 0.31,-0.39" />
		<path
   id="path3150"
   class="st1"
   d="m 288.36,408.02 -6.11,-0.04 -0.11,0.13 c 0.42,0.57 0.79,1.08 1.19,1.63 h 5.03 v -1.72" />
		<path
   id="path3152"
   class="st1"
   d="m 288.36,406.21 c 0.31,-0.51 0.62,-1.12 0.84,-1.68 l -9.66,-0.02 c 0.33,0.6 0.84,1.12 1.21,1.7 2.52,0.04 5.25,0.04 7.61,0" />
		<g
   id="g3154">
			<g
   id="g1746">
				<defs
   id="defs1738">
					<rect
   id="SVGID_3_"
   x="179.94"
   y="267.84"
   width="266.04999"
   height="339.17001" />
				</defs>
				<clipPath
   id="SVGID_4_">
					<use
   xlink:href="#SVGID_3_"
   style="overflow:visible"
   id="use1740"
   x="0"
   y="0"
   width="100%"
   height="100%" />
				</clipPath>
				<g
   id="g3156"
   class="st6"
   clip-path="url(#SVGID_4_)">
					<path
   id="path3162"
   class="st1"
   d="m 345.07,406.12 c 0.33,-0.18 0.44,-0.62 0.64,-0.86 0.2,-0.27 0.46,-0.46 0.53,-0.79 l -0.07,-0.07 -8.62,0.04 c -0.07,0.09 -0.2,0 -0.24,0.04 0.26,0.53 0.57,1.08 0.86,1.63 l 6.9,0.01" />
					<path
   id="path3164"
   class="st2"
   d="m 305.54,401.82 7.12,-8.87 7.1,8.84 h 6.26 l -13.41,-16.78 -13.4,16.83 6.33,-0.02" />
				</g>
			</g>
		</g>
		<path
   id="path3166"
   class="st4"
   d="m 290.22,406.74 h 46.24 v -4 h -46.24 z" />
		<path
   id="path3168"
   class="st7"
   d="m 292.5,404.51 c 0.4,0.07 0.62,0.41 0.62,0.8 0,0.6 -0.42,0.87 -0.98,0.87 h -1.1 v -2.83 h 0.73 v 1.09 h 0.01 l 0.69,-1.09 h 0.91 l -0.88,1.16 v 0 m -0.73,1.11 h 0.07 c 0.24,0 0.51,-0.05 0.51,-0.35 0,-0.31 -0.27,-0.35 -0.51,-0.35 h -0.07 v 0.7" />
		<path
   id="path3170"
   class="st1"
   d="m 295.71,405.56 v 0.62 h -1.61 v -2.83 h 1.61 v 0.62 h -0.87 v 0.49 h 0.83 v 0.62 h -0.83 v 0.47 h 0.87" />
		<path
   id="path3172"
   class="st1"
   d="m 297.19,406.18 h -0.8 l 1.19,-2.83 h 0.57 l 1.21,2.83 h -0.8 l -0.69,-1.72 -0.68,1.72" />
		<path
   id="path3174"
   class="st7"
   d="m 302.61,404.52 h 0.07 c 0.24,0 0.6,0.03 0.6,-0.31 0,-0.31 -0.37,-0.3 -0.58,-0.3 h -0.09 v 0.61 0 m 0.4,-1.17 c 0.52,0 1.02,0.2 1.02,0.79 0,0.39 -0.17,0.67 -0.58,0.72 v 0.01 c 0.23,0.12 0.31,0.32 0.31,0.58 0,0.54 -0.34,0.74 -0.84,0.74 h -1.05 v -2.83 l 1.14,-0.01 v 0 m -0.4,2.27 h 0.05 c 0.2,0 0.43,-0.02 0.43,-0.27 0,-0.24 -0.2,-0.27 -0.4,-0.27 h -0.08 v 0.54" />
		<path
   id="path3176"
   class="st7"
   d="m 306.4,404.51 c 0.4,0.07 0.62,0.41 0.62,0.8 0,0.6 -0.42,0.87 -0.98,0.87 h -1.1 v -2.83 h 0.74 v 1.09 h 0.01 l 0.69,-1.09 h 0.91 l -0.89,1.16 v 0 m -0.72,1.11 h 0.07 c 0.24,0 0.51,-0.05 0.51,-0.35 0,-0.31 -0.27,-0.35 -0.51,-0.35 h -0.07 v 0.7" />
		<path
   id="path3178"
   class="st1"
   d="m 309.62,405.56 v 0.62 h -1.61 v -2.83 h 1.61 v 0.62 h -0.87 v 0.49 h 0.83 v 0.62 h -0.83 v 0.47 h 0.87" />
		<path
   id="path3180"
   class="st1"
   d="m 310.43,403.35 h 0.73 l 0.24,1.63 h 0.01 l 0.65,-1.63 h 0.29 l 0.68,1.63 h 0.01 l 0.21,-1.63 h 0.73 l -0.43,2.83 h -0.73 l -0.61,-1.51 -0.57,1.51 h -0.72 l -0.49,-2.83" />
		<path
   id="path3182"
   class="st1"
   d="m 316.42,405.56 v 0.62 h -1.61 v -2.83 h 1.61 v 0.62 h -0.87 v 0.49 h 0.83 v 0.62 h -0.83 v 0.47 h 0.87" />
		<path
   id="path3184"
   class="st7"
   d="m 318.86,404.51 c 0.4,0.07 0.62,0.41 0.62,0.8 0,0.6 -0.42,0.87 -0.98,0.87 h -1.1 v -2.83 h 0.73 v 1.09 h 0.01 l 0.69,-1.09 h 0.91 l -0.88,1.16 v 0 m -0.73,1.11 h 0.07 c 0.24,0 0.51,-0.05 0.51,-0.35 0,-0.31 -0.27,-0.35 -0.51,-0.35 h -0.07 v 0.7" />
		<path
   id="path3186"
   class="st1"
   d="m 321.2,405.09 v 1.09 h -0.73 v -2.83 h 0.73 v 1.16 h 1.06 v -1.16 H 323 v 2.83 h -0.73 v -1.09 h -1.07" />
		<path
   id="path3188"
   class="st7"
   d="m 325.74,403.84 0.18,-0.49 h 0.78 l -1.06,2.83 h -0.8 l -1.09,-2.83 h 0.78 l 0.19,0.49 h 1.02 v 0 m -0.2,0.56 h -0.61 l 0.3,0.9 h 0.01 l 0.3,-0.9" />
		<path
   id="path3190"
   class="st1"
   d="m 327.54,406.18 h -0.8 l 1.19,-2.83 h 0.57 l 1.21,2.83 h -0.8 l -0.69,-1.72 -0.68,1.72" />
		<path
   id="path3192"
   class="st1"
   d="m 332.03,405.56 v 0.62 h -1.61 v -2.83 h 1.61 v 0.62 h -0.87 v 0.49 h 0.83 v 0.62 h -0.83 v 0.47 h 0.87" />
		<path
   id="path3194"
   class="st1"
   d="m 333,403.35 h 0.74 v 1.73 h 0.01 l 1.35,-1.73 h 0.73 v 2.83 h -0.73 v -1.73 h -0.01 l -1.35,1.73 H 333 v -2.83" />
		<path
   id="path3196"
   class="st4"
   d="m 322.28,450.67 c -0.04,-0.51 -0.35,-0.88 -0.46,-1.34 -0.66,-1.7 -1.23,-3.42 -1.92,-5.09 0.09,-0.2 -0.18,-0.24 -0.13,-0.42 -0.88,-0.13 -1.72,-0.18 -2.58,-0.26 -1.04,-0.15 -2.16,-0.13 -3.18,-0.38 -0.07,0.04 -0.15,0.04 -0.2,0.11 v 0.09 c 0.26,0.2 0.53,0.42 0.79,0.64 2.51,2.25 5.01,4.43 7.61,6.77 l 0.07,-0.12" />
		<path
   id="path3198"
   class="st5"
   d="m 319.68,446.81 c -0.24,-0.6 -0.57,-1.17 -0.75,-1.74 -0.18,-0.31 -0.49,-0.02 -0.71,-0.09 -0.26,0.09 -0.64,0.02 -0.88,0.04 l -0.07,0.09 c 0.77,0.75 1.59,1.43 2.43,2.14 0.25,-0.07 -0.02,-0.31 -0.02,-0.44" />
		<path
   id="path3200"
   class="st4"
   d="m 308.04,444.3 c 0.31,-0.42 0.73,-0.64 1.08,-1.04 l -0.02,-0.13 c -1.83,0.22 -3.75,0.42 -5.6,0.53 -0.26,0.57 -0.4,1.19 -0.66,1.76 0.04,0.04 0,0.13 0.02,0.2 -0.2,0.37 -0.33,0.77 -0.46,1.19 -0.26,0.88 -0.62,1.81 -0.93,2.69 0.02,0.22 -0.04,0.46 0.07,0.64 2.17,-1.87 4.36,-4.04 6.5,-5.84" />
		<path
   id="path3202"
   class="st5"
   d="m 305.63,445.27 c 0.02,-0.09 -0.02,-0.09 -0.09,-0.11 -0.64,0 -1.17,0 -1.79,0 -0.33,0.53 -0.24,0.95 -0.49,1.5 0.02,0.33 -0.29,0.57 -0.13,0.88 0.94,-0.71 1.62,-1.46 2.5,-2.27" />
		<path
   id="path3204"
   class="st8"
   d="m 295.85,413.42 c 0,0 0.21,-0.28 -0.2,-0.73 -0.13,-0.22 -1.22,-1.32 -1.32,-1.37 -0.15,-0.06 -0.28,-0.15 -0.45,-0.18 -0.13,-0.04 -0.52,0.01 -0.52,0.01 l -0.03,2.41 c 0.03,0.06 0.07,0.1 0.13,0.13 h 1.84 c 0,0 0.48,-0.04 0.55,-0.27 v 0 m -0.67,1.15 c 0.35,-0.02 0.97,0.05 1.28,-0.31 0.12,-0.16 0.18,-0.22 0.24,-0.39 0.1,-0.35 0.06,-0.76 0.06,-0.76 0,0 -0.03,-0.35 -0.25,-0.69 -0.13,-0.25 -0.36,-0.42 -0.52,-0.67 -0.41,-0.39 -0.8,-0.8 -1.21,-1.18 -0.26,-0.17 -0.34,-0.22 -0.58,-0.25 -0.2,-0.08 -0.53,-0.03 -0.78,-0.04 -0.04,-0.03 -0.07,-0.08 -0.06,-0.14 0,0 -0.04,-0.54 0.02,-0.73 h 0.22 c 0,0 0.48,0.04 0.57,-0.11 0,-0.07 0.02,-0.67 0,-0.74 -0.6,0 -2,-0.02 -2.34,0.02 v 0.71 c 0.02,0.04 0.01,0.07 0.07,0.1 0.21,-0.01 0.42,-0.01 0.53,0.14 0,0 0.04,2.72 0.01,3.98 0,0.07 -0.06,0.14 -0.11,0.17 h -0.27 c 0,0 -0.11,0.03 -0.17,0.03 -0.13,0.15 -0.04,0.45 -0.07,0.66 0.03,0.1 -0.01,0.18 0.08,0.17 1.06,0.05 2.18,0.02 3.28,0.03" />
		<path
   id="path3206"
   class="st5"
   d="m 299.47,414.56 c 0.08,-0.03 0.11,-0.04 0.13,-0.11 v -0.67 c -0.13,-0.17 -0.39,-0.06 -0.56,-0.15 l -0.03,-0.06 c -0.03,-0.04 -0.03,-0.17 -0.03,-0.17 0,0 -0.06,-3.57 -0.03,-3.79 0,-0.08 0.04,-0.2 0.14,-0.2 l 0.11,-0.01 c 0.14,-0.04 0.32,0.01 0.35,-0.15 l 0.01,-0.56 c -0.04,-0.04 -0.04,-0.13 -0.14,-0.11 l -1.87,-0.01 c -0.04,0.04 -0.11,0.04 -0.13,0.11 v 0.6 c 0.02,0.05 -0.01,0.11 0.05,0.12 0.14,0.04 0.5,-0.08 0.56,0.11 0.06,0.15 0.08,3.13 0.04,4 0,0.07 -0.06,0.13 -0.11,0.17 h -0.1 c 0,0 -0.22,-0.02 -0.39,0.05 -0.06,0.11 -0.01,0.37 -0.02,0.54 l 0.02,0.26 c 0.02,0.02 0.01,0.03 0.12,0.03 h 1.88" />
		<path
   id="path3208"
   class="st5"
   d="m 301.8,414.62 c 0.31,0.03 0.48,-0.15 0.67,-0.28 0.19,-0.2 1.79,-1.78 2.36,-2.36 0.1,-0.1 0.17,-0.24 0.29,-0.28 v 1.88 c 0.04,0.18 -0.48,0.17 -0.48,0.17 -0.08,0.02 -0.13,0.04 -0.13,0.13 l -0.01,0.68 c -0.03,0.08 0.39,0.07 0.39,0.07 0,0 1.62,0.01 1.69,0.01 0.13,-0.18 0.04,-0.54 0.05,-0.79 -0.08,-0.22 -0.55,0.04 -0.6,-0.24 0,0 0.03,-3.74 -0.03,-5.02 -0.23,-0.06 -0.46,-0.02 -0.68,-0.03 -0.06,0.02 -0.13,0.02 -0.14,0.09 -0.06,0.71 0.17,1.63 -0.29,2.05 l -2.66,2.67 -0.06,-0.07 c 0.01,-0.41 -0.08,-3.66 0.17,-3.84 h 0.34 c 0.12,-0.03 0.13,-0.04 0.14,-0.08 0,-0.15 0,-0.67 0,-0.67 -0.01,-0.03 -0.02,-0.08 -0.1,-0.08 l -1.95,-0.02 c -0.13,-0.01 -0.06,0.48 -0.1,0.72 0.02,0.09 0.06,0.11 0.13,0.14 0.17,0 0.38,-0.03 0.49,0.08 0,0 0.06,2.83 -0.03,4.14 0,0.04 -0.07,0.03 -0.11,0.03 0,0 -0.47,-0.03 -0.46,0.06 v 0.84 c 0.02,0.01 1.11,0 1.11,0" />
		<path
   id="path3210"
   class="st5"
   d="m 314.9,414.56 c 0.07,-0.06 0.17,-0.1 0.15,-0.24 0,0 0.07,-0.62 -0.13,-0.62 -0.21,0.01 -0.41,0.01 -0.49,-0.14 0,0 -0.03,-0.1 -0.04,-0.11 0.04,-0.22 -0.03,-3.31 0.13,-3.67 0.11,-0.13 0.21,-0.31 0.45,-0.29 v -0.01 l 0.31,-0.03 v -0.01 c 0.08,-0.01 0.31,0 0.32,-0.01 0.14,0.02 0.37,-0.03 0.77,0.11 0.39,0.21 0.73,0.56 0.87,1 0.03,0.07 0.14,0.42 0.17,0.91 -0.06,0.03 0.02,0.68 -0.03,1.42 0.01,-0.01 0.05,0.64 -0.08,0.83 h -0.08 l -0.31,0.03 c -0.04,0.04 -0.11,0.06 -0.13,0.11 0.03,0.25 -0.11,0.63 0.11,0.74 h 1.92 c 0.13,-0.03 0.01,-0.67 0.07,-0.78 -0.13,-0.17 -0.49,0.04 -0.57,-0.17 -0.07,-0.1 -0.03,-0.27 -0.04,-0.41 -0.01,0.01 0,-1.99 0,-1.99 -0.01,0.01 -0.03,0 -0.03,-0.01 0.1,-0.04 0,-0.41 0,-0.55 -0.07,-0.34 -0.22,-0.71 -0.28,-0.78 -0.22,-0.29 -0.45,-0.59 -0.74,-0.8 -0.17,-0.15 -0.39,-0.25 -0.59,-0.35 -0.27,-0.13 -0.98,-0.15 -0.98,-0.15 -0.3,0.03 -0.95,0.04 -0.95,0.04 -0.18,0.01 -0.43,0.08 -0.43,0.08 -0.1,0.08 -0.41,0.29 -0.48,0.38 -0.06,0.08 -0.08,0.12 -0.14,0.28 -0.13,0.39 -0.05,0.89 -0.1,1.36 -0.01,0.95 0.01,1.89 -0.01,2.83 -0.01,0.06 -0.04,0.11 -0.11,0.1 v 0.01 l -0.48,0.08 c -0.06,0.17 -0.03,0.41 -0.03,0.59 0.03,0.07 0.03,0.17 0.11,0.21 l 0.06,0.03 1.81,-0.02" />
		<path
   id="path3212"
   class="st5"
   d="m 321.76,414.56 c 0.08,-0.03 0.11,-0.04 0.13,-0.11 v -0.67 c -0.13,-0.17 -0.39,-0.06 -0.56,-0.15 l -0.03,-0.06 c -0.03,-0.04 -0.03,-0.17 -0.03,-0.17 0,0 -0.06,-3.57 -0.03,-3.79 0,-0.08 0.04,-0.2 0.14,-0.2 l 0.11,-0.01 c 0.14,-0.04 0.32,0.01 0.35,-0.15 l 0.01,-0.56 c -0.04,-0.04 -0.04,-0.13 -0.14,-0.11 l -1.86,-0.01 c -0.04,0.04 -0.11,0.04 -0.13,0.11 v 0.6 c 0.02,0.05 -0.01,0.11 0.05,0.12 0.14,0.04 0.5,-0.08 0.56,0.11 0.06,0.15 0.08,3.13 0.04,4 0,0.07 -0.06,0.13 -0.11,0.17 h -0.1 c 0,0 -0.22,-0.02 -0.39,0.05 -0.06,0.11 -0.01,0.37 -0.02,0.54 l 0.02,0.26 c 0.02,0.02 0.01,0.03 0.12,0.03 h 1.87" />
		<path
   id="path3214"
   class="st5"
   d="m 324.12,414.62 c 0.31,0.03 0.48,-0.15 0.67,-0.28 0.19,-0.2 1.79,-1.78 2.36,-2.36 0.1,-0.1 0.17,-0.24 0.29,-0.28 v 1.88 c 0.04,0.18 -0.48,0.17 -0.48,0.17 -0.08,0.02 -0.13,0.04 -0.13,0.13 l -0.01,0.68 c -0.03,0.08 0.39,0.07 0.39,0.07 0,0 1.62,0.01 1.69,0.01 0.13,-0.18 0.04,-0.54 0.05,-0.79 -0.08,-0.22 -0.55,0.04 -0.6,-0.24 0,0 0.03,-3.74 -0.03,-5.02 -0.23,-0.06 -0.46,-0.02 -0.68,-0.03 -0.06,0.02 -0.13,0.02 -0.14,0.09 -0.06,0.71 0.17,1.63 -0.29,2.05 l -2.66,2.67 -0.06,-0.07 c 0.01,-0.41 -0.08,-3.66 0.17,-3.84 H 325 c 0.12,-0.03 0.13,-0.04 0.14,-0.08 0,-0.15 0,-0.67 0,-0.67 -0.01,-0.03 -0.02,-0.08 -0.1,-0.08 l -1.95,-0.02 c -0.13,-0.01 -0.06,0.48 -0.1,0.72 0.02,0.09 0.06,0.11 0.13,0.14 0.17,0 0.38,-0.03 0.49,0.08 0,0 0.06,2.83 -0.03,4.14 0,0.04 -0.07,0.03 -0.11,0.03 0,0 -0.47,-0.03 -0.46,0.06 v 0.84 c 0.01,0.01 1.11,0 1.11,0" />
		<path
   id="path3216"
   class="st5"
   d="m 311.82,414.26 c 0.08,-0.27 0.06,-0.67 0.01,-0.97 -0.24,-0.04 -0.6,-0.03 -0.83,0.01 0.03,0.13 0.01,0.22 -0.02,0.34 h -0.12 c -0.68,0.03 -2.43,0.14 -2.56,-0.3 -0.04,-0.07 -0.06,-0.15 -0.06,-0.15 0,0 -0.04,-3.38 0.13,-3.56 0.03,-0.15 0.21,-0.15 0.34,-0.2 l 0.2,-0.04 c 0.46,-0.04 0.9,0.03 1.19,0.25 0.39,0.34 0.86,0.67 1.05,1.18 0,0 0.06,0.17 0.06,0.29 -0.04,0.07 -0.04,0.15 -0.13,0.2 h -0.58 c -0.09,0 -0.11,0.04 -0.14,0.08 0,0.08 -0.08,0.73 0.08,0.73 h 1.99 c 0.13,-0.17 0.04,-0.48 0.07,-0.71 -0.11,-0.13 -0.43,-0.01 -0.41,-0.27 0,0 -0.08,-0.6 -0.22,-0.88 -0.13,-0.21 -0.48,-0.63 -0.48,-0.63 -0.24,-0.25 -0.93,-0.81 -1.04,-0.88 -0.49,-0.27 -1.23,-0.18 -1.91,-0.2 v 0.01 c -0.1,0.01 -0.26,0.02 -0.41,0.08 -0.11,0.05 -0.18,0.09 -0.27,0.18 -0.29,0.18 -0.41,0.5 -0.42,0.9 l -0.03,3.52 c 0,0 0.04,0.45 0.14,0.63 0.06,0.06 0.07,0.17 0.15,0.21 0.41,0.45 0.95,0.46 0.95,0.46 h 2.68 c 0.03,0.02 0.5,0.04 0.59,-0.28" />
		<path
   id="path3218"
   class="st5"
   d="m 333.56,414.5 c 0.28,-0.11 0.35,-0.41 0.38,-0.44 0,0 0.01,-0.63 0.01,-0.7 -0.04,-0.08 -0.03,-0.1 -0.09,-0.13 h -0.69 c -0.1,0.11 -0.06,0.35 -0.24,0.41 l -0.2,0.01 c -0.43,-0.02 -1.81,0.19 -1.98,-0.34 l -0.01,-0.08 c -0.01,-0.4 0.06,-0.64 0.18,-0.74 0.12,-0.09 0.34,-0.1 0.34,-0.1 0.6,-0.04 1.89,-0.03 1.89,-0.03 0.18,0 0.31,-0.06 0.46,-0.08 0.23,-0.08 0.36,-0.35 0.45,-0.46 0.03,-0.22 0.19,-0.6 0.03,-1.11 -0.03,0.01 -0.13,-0.28 -0.18,-0.34 -0.29,-0.45 -0.96,-1.11 -1.57,-1.58 -0.23,-0.11 -0.34,-0.14 -0.58,-0.18 0,0 -0.46,-0.03 -0.63,-0.03 -0.32,-0.01 -0.73,-0.04 -1.02,0.01 -0.14,0.04 -0.22,0.18 -0.25,0.31 0,0.28 -0.11,0.74 0.1,0.93 h 0.67 c 0.11,-0.11 0.01,-0.43 0.27,-0.41 0,0 0.43,-0.07 0.9,0.04 0.25,0.1 0.62,0.46 0.62,0.46 0.24,0.22 0.4,0.4 0.66,0.69 0.03,0.08 0.2,0.29 0.2,0.59 -0.02,0.24 -0.34,0.31 -0.34,0.31 l -2.05,0.06 c 0,0 -0.42,0.08 -0.58,0.21 -0.55,0.21 -0.35,1 -0.43,1.54 0,0 0.06,0.41 0.13,0.56 0.06,0.25 0.29,0.39 0.49,0.52 0.2,0.08 0.73,0.14 0.73,0.14 0,0 2.25,0.02 2.33,-0.04" />
		<path
   id="path3220"
   class="st4"
   d="m 333.18,432.89 c 0.18,-0.75 -0.4,-1.46 -0.68,-2.12 -0.66,-1.54 -1.35,-3.07 -2.07,-4.56 -0.93,-0.6 -1.85,-1.17 -2.82,-1.63 h -3.42 c -0.11,0.07 -0.11,0.24 -0.02,0.31 0.33,0.82 0.55,1.63 0.84,2.49 0.29,0.44 0.26,0.99 0.46,1.48 2.03,1.23 4.23,2.09 6.26,3.29 0.5,0.15 0.99,0.48 1.45,0.74" />
		<path
   id="path3222"
   class="st5"
   d="m 331.33,430.69 c -0.64,-1.28 -1.17,-2.73 -1.87,-4.06 -0.9,-0.55 -1.85,-0.97 -2.78,-1.48 l -0.09,0.02 c 0.2,0.51 0.53,0.97 0.75,1.5 0.15,0.26 0.26,0.55 0.46,0.82 0,0.11 0.02,0.29 -0.07,0.33 h -0.09 c -0.68,-0.77 -1.43,-1.57 -2.14,-2.32 -0.15,0.02 -0.15,-0.16 -0.29,-0.13 0.22,0.9 0.6,1.87 0.97,2.8 1.61,0.97 3.35,1.76 5.03,2.62 0.07,-0.01 0.09,-0.04 0.12,-0.1" />
		<path
   id="path3224"
   class="st2"
   d="m 292.88,456.56 -14.72,-18.91 9.51,-13.32 -0.01,-4.51 h -2.11 l -13.49,17.82 16.84,21.61 3.98,-2.69" />
		<path
   id="path3226"
   class="st4"
   d="m 333.76,456.11 c -1.21,-0.08 -2.63,0.18 -3.87,0.2 -0.77,0.04 -1.28,-0.02 -2.03,0.13 0.02,0.15 0.22,0.11 0.33,0.22 0.35,0.02 0.6,0.26 0.91,0.33 0.84,0.42 1.83,0.64 2.67,1.1 2.01,0.31 4.01,0.46 6.04,0.77 0.09,-0.22 0.24,-0.38 0.42,-0.53 0.64,-0.11 1.21,-0.13 1.85,-0.18 0.02,-0.6 -0.99,-0.66 -1.16,-0.66 l -5.16,-1.38" />
		<path
   id="path3228"
   class="st5"
   d="m 297.66,420.63 c 0.06,-0.02 0.09,-0.03 0.1,-0.09 v -0.52 c -0.1,-0.13 -0.3,-0.04 -0.43,-0.12 l -0.02,-0.04 c -0.02,-0.03 -0.02,-0.13 -0.02,-0.13 0,0 -0.04,-2.76 -0.02,-2.92 0,-0.06 0.03,-0.15 0.11,-0.15 l 0.09,-0.01 c 0.11,-0.03 0.25,0.01 0.27,-0.12 l 0.01,-0.43 c -0.03,-0.03 -0.03,-0.1 -0.11,-0.09 L 296.2,416 c -0.03,0.03 -0.09,0.03 -0.1,0.09 v 0.46 c 0.01,0.04 -0.01,0.08 0.03,0.1 0.1,0.03 0.39,-0.06 0.43,0.09 0.04,0.12 0.06,2.41 0.03,3.08 0,0.05 -0.04,0.1 -0.09,0.13 h -0.08 c 0,0 -0.17,-0.02 -0.3,0.04 -0.04,0.09 0,0.29 -0.02,0.42 l 0.01,0.2 c 0.01,0.02 0.01,0.02 0.09,0.03 l 1.46,-0.01" />
		<path
   id="path3230"
   class="st5"
   d="m 330.43,420.66 c 0.24,0.02 0.37,-0.12 0.52,-0.22 0.15,-0.16 1.38,-1.37 1.81,-1.81 0.08,-0.08 0.13,-0.18 0.23,-0.22 v 1.45 c 0.03,0.14 -0.37,0.13 -0.37,0.13 -0.06,0.02 -0.1,0.03 -0.1,0.1 l -0.01,0.53 c -0.02,0.06 0.3,0.06 0.3,0.06 0,0 1.25,0.01 1.3,0.01 0.1,-0.14 0.03,-0.42 0.04,-0.61 -0.06,-0.17 -0.42,0.03 -0.46,-0.18 0,0 0.02,-2.88 -0.02,-3.87 -0.18,-0.05 -0.35,-0.01 -0.53,-0.02 -0.05,0.02 -0.1,0.01 -0.11,0.07 -0.04,0.55 0.13,1.26 -0.23,1.58 l -2.05,2.06 -0.04,-0.05 c 0.01,-0.31 -0.06,-2.82 0.13,-2.96 h 0.26 c 0.09,-0.03 0.1,-0.03 0.11,-0.06 0,-0.12 0,-0.52 0,-0.52 -0.01,-0.02 -0.01,-0.06 -0.08,-0.07 l -1.5,-0.01 c -0.1,-0.01 -0.04,0.37 -0.08,0.55 0.02,0.07 0.04,0.09 0.1,0.11 0.13,0 0.29,-0.02 0.38,0.06 0,0 0.04,2.18 -0.02,3.19 0,0.03 -0.05,0.02 -0.09,0.02 0,0 -0.37,-0.02 -0.36,0.05 v 0.65 c 0.02,-0.01 0.87,-0.02 0.87,-0.02" />
		<path
   id="path3232"
   class="st8"
   d="m 318.87,419.98 c -0.01,-0.02 0.02,-0.03 0.03,-0.02 0.08,0.04 0.21,0.02 0.3,0.02 -0.01,-0.01 0.01,-0.02 0.01,-0.02 0.02,0 0.04,-0.01 0.05,0.01 0.01,-0.02 0.05,-0.01 0.09,-0.01 0.01,0 0.02,0.01 0.02,0.02 h 0.03 c 0.26,-0.04 0.55,0 0.78,-0.05 0,-0.01 0.02,-0.03 0.04,-0.02 h 0.03 c 0.06,-0.01 0.09,-0.1 0.16,-0.11 0.13,-0.11 0.16,-0.27 0.16,-0.49 l 0.02,-1.13 h -0.02 c -0.02,-0.04 0,-0.1 -0.01,-0.15 -0.04,-0.01 -0.02,-0.08 -0.02,-0.11 -0.04,0 -0.02,-0.07 -0.03,-0.1 -0.01,-0.04 -0.06,-0.06 -0.04,-0.13 -0.06,-0.06 -0.1,-0.14 -0.15,-0.21 -0.26,-0.32 -0.52,-0.67 -0.97,-0.77 -0.11,-0.03 -0.28,0.01 -0.39,-0.04 h -0.03 l -0.44,0.03 c -0.01,0.04 -0.08,0.01 -0.11,0.02 0.01,0.02 -0.01,0.03 -0.03,0.02 h -0.04 c 0,0.05 -0.05,0.02 -0.08,0.05 -0.17,0.11 -0.18,0.3 -0.22,0.5 l -0.02,1.9 h 0.02 l 0.01,0.26 c 0.03,0.03 0.02,0.09 0.02,0.13 0.04,0.04 0.09,0.12 0.11,0.18 0.17,0.12 0.35,0.23 0.64,0.18 0,0.06 0.04,0.04 0.08,0.04 v 0 m 1.39,0.65 c 0.05,-0.03 0.39,-0.09 0.42,-0.14 0.8,-0.35 0.54,-1.5 0.59,-2.41 l -0.02,-0.24 h -0.02 c -0.02,-0.03 -0.1,-0.3 -0.09,-0.32 v -0.03 c -0.08,-0.05 -0.06,-0.16 -0.12,-0.22 -0.22,-0.36 -0.52,-0.65 -0.84,-0.93 -0.09,-0.02 -0.12,-0.09 -0.21,-0.12 -0.37,-0.28 -1.02,-0.16 -1.57,-0.19 -0.04,0.04 -0.11,0.02 -0.16,0.03 -0.03,0.03 -0.14,0.02 -0.23,0.04 -0.17,0.05 -0.27,0.11 -0.39,0.24 -0.07,0.07 -0.14,0.1 -0.14,0.21 -0.1,0.15 -0.17,0.31 -0.16,0.55 l -0.01,2.27 0.02,0.3 h 0.02 c 0.02,0.03 0,0.09 0.01,0.13 0.04,0.01 0.05,0.18 0.05,0.18 0.07,0.04 0.07,0.16 0.11,0.21 0.15,0.16 0.29,0.32 0.52,0.37 0.06,0.02 0.12,0.06 0.19,0.06 0.53,0.08 1.16,0.02 1.73,0.04 l 0.3,-0.03" />
		<path
   id="path3234"
   class="st5"
   d="m 292.07,420.63 c 0,-0.01 0.01,-0.02 0.01,-0.02 0.03,0.02 0.05,0.02 0.1,0.02 0,-0.04 0.06,-0.02 0.1,-0.02 0.01,0 0.02,0.01 0.02,0.02 0,-0.03 0.08,-0.03 0.09,0 -0.01,-0.02 0.02,-0.03 0.04,-0.02 0.01,0 0.04,-0.01 0.04,0.01 v 0.01 h 0.04 c -0.01,-0.01 0.01,-0.02 0.01,-0.02 0.02,0 0.04,-0.01 0.05,0.01 v 0.01 c 0.12,-0.08 0.22,0.04 0.38,0 -0.01,-0.02 0.02,-0.03 0.03,-0.02 0.02,0 0.05,-0.01 0.05,0.01 v 0.01 c 0.01,0 0.03,-0.05 0.05,-0.01 v 0.01 h 0.04 v -0.01 c 0.19,-0.05 0.31,0.04 0.52,0.01 -0.01,-0.01 0,-0.02 0.01,-0.02 l 0.03,0.02 h 1.56 c 0.04,-0.04 0.13,-0.05 0.15,-0.13 0.08,-0.16 0,-0.45 0.06,-0.65 -0.04,-0.06 -0.02,-0.19 -0.12,-0.22 h -0.5 c 0.01,0.01 0,0.02 -0.01,0.02 h -0.04 c -0.04,0.1 0,0.25 -0.13,0.29 h -0.1 v 0.01 c -0.08,0.01 -0.18,0.03 -0.24,-0.01 v 0.01 c -0.05,0.01 -0.15,0.03 -0.19,-0.01 h -0.03 c 0,0.01 -0.02,0.03 -0.04,0.02 -0.02,-0.01 -0.04,0.01 -0.05,-0.01 v -0.01 h -0.03 v 0.01 c -0.04,0.02 -0.11,0.02 -0.15,0 v -0.01 c -0.01,0.04 -0.08,0.01 -0.11,0.02 -0.01,-0.01 -0.02,-0.01 -0.02,-0.02 h -0.03 v 0.01 c -0.22,0.05 -0.37,-0.04 -0.58,-0.03 -0.01,-0.01 -0.08,-0.01 -0.05,-0.06 h -0.01 l -0.01,-0.17 c -0.02,0 -0.02,-0.01 -0.03,-0.02 l 0.03,-0.03 c -0.05,-0.01 -0.02,-0.08 -0.03,-0.11 0.04,-0.06 0.02,-0.18 0.03,-0.28 -0.02,0 -0.02,-0.01 -0.03,-0.01 0.08,-0.12 -0.04,-0.36 0.11,-0.42 h 1.95 c 0.05,-0.02 0.09,-0.05 0.09,-0.13 l 0.01,-0.29 h -0.01 c -0.02,-0.05 0,-0.11 -0.01,-0.16 l -0.09,-0.05 c -0.64,0 -1.29,0.02 -1.91,-0.01 -0.19,-0.11 -0.04,-0.49 -0.13,-0.7 -0.02,-0.05 0.05,-0.04 0.03,-0.11 -0.02,0 -0.02,-0.01 -0.03,-0.02 0.04,-0.04 0.02,-0.16 0.03,-0.24 -0.02,0 -0.02,-0.01 -0.03,-0.02 0.08,-0.12 -0.05,-0.42 0.17,-0.41 h 0.38 c -0.01,-0.02 0.01,-0.03 0.03,-0.02 0.06,0 0.06,-0.06 0.1,-0.1 v -0.44 c -0.03,-0.03 -0.03,-0.1 -0.11,-0.09 l -1.58,-0.01 c -0.01,0.03 -0.06,0.02 -0.1,0.02 -0.03,0.04 0,0.13 -0.05,0.16 0,0 0.05,0.03 0.02,0.04 h -0.02 c 0,0.01 0.05,0.03 0.02,0.05 h -0.02 c 0,0.01 0.05,0.03 0.02,0.05 h -0.02 c 0,0.01 0.05,0.03 0.02,0.05 l -0.02,0.16 c 0.02,0.06 0.06,0.09 0.13,0.1 0.12,0.04 0.35,-0.04 0.37,0.12 -0.01,1.02 0.01,2.04 -0.01,3.05 0.01,0.06 -0.07,0.11 -0.12,0.13 h -0.26 c -0.05,0.01 -0.09,0.05 -0.09,0.13 l -0.02,0.42 c 0.05,0.05 0.09,0.14 0.19,0.11 0.02,0.02 0.03,0.02 0.05,0.02" />
		<path
   id="path3236"
   class="st5"
   d="m 304.87,420.64 0.83,-0.01 c 0.01,-0.04 0.24,-0.11 0.28,-0.13 0.18,-0.16 0.12,-0.62 0.05,-0.84 -0.14,-0.04 -0.34,-0.02 -0.51,-0.02 0.01,0.02 -0.01,0.03 -0.03,0.02 h -0.04 c -0.03,0.09 -0.03,0.19 -0.1,0.25 -0.06,0 -0.09,0.05 -0.16,0.04 v 0.01 c -0.49,0 -1.06,0.06 -1.49,-0.05 -0.07,-0.03 -0.15,-0.1 -0.15,-0.19 -0.02,0.01 -0.03,-0.02 -0.03,-0.04 v -0.03 h -0.01 c -0.02,-0.19 0,-2.28 0,-2.51 0.02,-0.21 0.16,-0.34 0.32,-0.41 l 0.11,-0.01 c 0.45,-0.02 0.99,-0.08 1.24,0.24 0.06,0.03 0.48,0.49 0.66,0.62 l 0.1,0.01 c 0,-0.04 0.05,-0.01 0.08,-0.05 0.08,-0.13 0.26,-0.18 0.26,-0.38 -0.14,-0.16 -0.31,-0.31 -0.46,-0.48 -0.02,-0.09 -0.29,-0.3 -0.38,-0.35 -0.12,-0.11 -0.23,-0.19 -0.4,-0.23 -0.35,-0.12 -1.26,-0.05 -1.26,-0.05 l -0.18,0.03 c -0.03,0.02 -0.19,0.03 -0.23,0.03 -0.04,0.04 -0.12,0.09 -0.18,0.11 -0.14,0.09 -0.21,0.24 -0.26,0.38 -0.02,0.09 -0.07,0.14 -0.07,0.25 -0.08,0.84 -0.02,1.78 -0.04,2.68 0.02,-0.01 0.05,0.46 0.05,0.46 0.04,0.01 0.05,0.18 0.05,0.18 0.06,0.04 0.05,0.15 0.14,0.18 0.03,0.1 0.37,0.29 0.53,0.27 0.28,-0.01 1.28,0.02 1.28,0.02" />
		<path
   id="path3238"
   class="st5"
   d="m 308.59,420.63 0.13,-0.21 -0.09,-0.45 -0.4,-0.06 -0.01,-0.06 c -0.02,-0.28 -0.05,-0.59 0.02,-0.86 0.01,0.01 0.06,-0.01 0.04,-0.02 l 2.15,-0.01 0.03,0.21 h 0.02 v 0.69 l -0.3,0.11 -0.18,0.09 v 0.44 c 0.04,0.03 0.07,0.09 0.1,0.13 0.5,0.03 1,0.03 1.5,0 0.11,-0.16 0.04,-0.4 0.05,-0.58 -0.13,-0.08 -0.3,-0.06 -0.44,-0.12 l -0.01,-0.04 c -0.03,-1.02 -0.05,-2.05 -0.03,-3.07 l 0.16,-0.13 h 0.22 c -0.01,-0.02 0.04,-0.03 0.05,-0.02 0.05,-0.17 0.02,-0.36 0.02,-0.54 l -0.13,-0.09 c -0.48,-0.01 -0.96,-0.03 -1.44,0.01 -0.09,0.16 -0.08,0.48 0.01,0.64 0.09,0 0.39,0.11 0.39,0.11 l 0.01,1.47 -0.13,0.04 -2.04,0.02 -0.1,-0.1 v -1.46 l 0.13,-0.07 0.35,-0.09 c 0.04,-0.16 0.04,-0.35 0,-0.52 -0.05,-0.07 -1.17,-0.1 -1.45,-0.08 l -0.17,0.09 -0.03,0.42 0.1,0.15 c 0.1,-0.01 0.33,-0.03 0.37,0.11 h 0.02 v 3.12 l -0.15,0.05 -0.3,0.09 v 0.5 l 0.08,0.1 1.45,-0.01" />
		<path
   id="path3240"
   class="st5"
   d="m 316.3,420.63 c 0.05,0 0.08,-0.09 0.13,-0.12 v -0.78 c -0.05,0 -0.02,-0.05 -0.05,-0.08 -0.03,0 -0.35,-0.02 -0.45,-0.02 -0.05,0.04 -0.18,0 -0.14,0.13 -0.02,0.04 -0.02,0.14 -0.05,0.18 h -0.06 v 0.01 c -0.27,0.01 -0.58,0.03 -0.83,-0.01 l -0.04,-0.1 c 0.01,-1.02 -0.01,-2.04 0.02,-3.06 0.01,-0.14 0.19,-0.1 0.32,-0.11 0.04,-0.03 0.15,-0.01 0.15,-0.11 v -0.42 c -0.04,-0.03 -0.03,-0.13 -0.13,-0.12 l -1.44,-0.01 c 0,0.01 -0.01,0.02 -0.01,0.03 h -0.04 c -0.04,0.14 -0.02,0.36 -0.02,0.53 0.01,-0.01 0.01,0 0.02,0.01 v 0.04 c 0.11,0.08 0.29,0.01 0.41,0.09 v 0.04 h 0.02 c -0.01,0.11 -0.02,2.98 0,3.14 -0.01,0.03 -0.06,0.03 -0.1,0.03 v 0.01 l -0.71,0.01 c -0.04,-0.02 -0.11,-0.04 -0.13,-0.11 v -0.15 c -0.01,0.01 -0.02,-0.01 -0.02,-0.01 v -0.04 c -0.16,-0.04 -0.38,-0.02 -0.56,-0.02 -0.18,0.18 -0.09,0.61 -0.08,0.86 0.02,0.05 0.08,0.11 0.13,0.13 l 3.66,0.03" />
		<path
   id="path3242"
   class="st5"
   d="m 323.74,420.63 0.13,-0.14 c -0.03,-0.13 0.07,-0.46 -0.1,-0.52 l -0.35,-0.11 -0.03,-0.03 -0.01,-0.04 c -0.02,-0.24 0.01,-2.96 0.01,-3.13 l 0.13,-0.04 c 0.35,0.21 1.62,1.49 1.75,1.89 h 0.02 l 0.01,0.16 c 0.03,0.39 0.03,0.79 0.01,1.18 l -0.4,0.13 -0.05,0.08 v 0.49 l 0.13,0.09 c 0.48,0.01 0.96,0.03 1.44,-0.01 l 0.08,-0.21 -0.08,-0.43 c -0.14,0.01 -0.28,-0.03 -0.41,-0.09 l -0.01,-0.06 c -0.02,-0.27 -0.01,-2.77 0.02,-3.13 l 0.09,-0.08 c 0.45,0.28 0.97,0.87 1.32,1.27 0.13,0.14 0.43,0.54 0.46,0.74 l 0.01,0.1 0.01,0.13 0.03,1.01 -0.26,0.1 -0.22,0.09 c 0.03,0.13 -0.05,0.26 -0.02,0.39 l 0.09,0.18 c 0.27,0.05 0.56,0.02 0.83,0.02 l 0.21,-0.12 0.05,-0.67 v -0.85 c -0.17,-1.14 -1.33,-2.59 -2.43,-3.02 -0.26,-0.1 -0.47,0.03 -0.54,0.01 -0.43,0.42 -0.23,0.42 -0.34,0.93 0,0 0.02,0.36 -0.01,0.53 -0.3,-0.31 -0.64,-0.69 -0.98,-0.95 v -0.03 c -0.69,-0.52 -0.63,-0.44 -1.26,-0.48 -0.6,0.38 -0.34,3.11 -0.4,3.89 -0.01,0.01 -0.08,0.05 -0.07,0.06 -0.45,0.09 -0.42,-0.03 -0.39,0.57 l 0.11,0.13 1.42,-0.03" />
		<path
   id="path3244"
   class="st5"
   d="m 301.47,420.58 c 0.22,-0.08 0.27,-0.32 0.29,-0.34 0,0 0.01,-0.49 0.01,-0.54 -0.03,-0.06 -0.03,-0.08 -0.07,-0.1 h -0.53 c -0.08,0.09 -0.04,0.27 -0.18,0.31 l -0.15,0.01 c -0.33,-0.02 -1.39,0.14 -1.52,-0.26 l -0.01,-0.06 c -0.01,-0.31 0.04,-0.5 0.14,-0.57 0.09,-0.07 0.26,-0.08 0.26,-0.08 0.46,-0.03 1.46,-0.02 1.46,-0.02 0.14,0 0.24,-0.04 0.36,-0.06 0.18,-0.06 0.28,-0.27 0.35,-0.36 0.02,-0.17 0.15,-0.47 0.02,-0.85 -0.02,0.01 -0.1,-0.22 -0.14,-0.26 -0.23,-0.35 -0.74,-0.85 -1.21,-1.22 -0.18,-0.08 -0.26,-0.11 -0.44,-0.14 0,0 -0.35,-0.02 -0.49,-0.02 -0.25,-0.01 -0.56,-0.03 -0.79,0.01 -0.11,0.03 -0.17,0.14 -0.19,0.24 0,0.22 -0.09,0.57 0.08,0.71 h 0.52 c 0.09,-0.09 0.01,-0.34 0.21,-0.31 0,0 0.33,-0.06 0.69,0.03 0.19,0.08 0.48,0.36 0.48,0.36 0.18,0.17 0.31,0.31 0.51,0.53 0.02,0.06 0.15,0.22 0.15,0.45 -0.02,0.18 -0.26,0.24 -0.26,0.24 l -1.58,0.04 c 0,0 -0.32,0.06 -0.44,0.16 -0.42,0.16 -0.27,0.77 -0.34,1.19 0,0 0.05,0.32 0.1,0.43 0.04,0.19 0.23,0.3 0.38,0.4 0.15,0.06 0.56,0.11 0.56,0.11 0,0 1.71,0.02 1.77,-0.03" />
	</g>
</g>
</svg>
