<?xml version="1.0" encoding="UTF-8" standalone="no"?>
<!-- Creator: CorelDRAW X5 -->

<svg
   xml:space="preserve"
   width="200mm"
   height="200mm"
   style="clip-rule:evenodd;fill-rule:evenodd;image-rendering:optimizeQuality;shape-rendering:geometricPrecision;text-rendering:geometricPrecision"
   viewBox="0 0 19088.955 19089.042"
   version="1.1"
   id="svg2455"
   sodipodi:docname="logo_AEV.svg"
   inkscape:version="1.1 (c68e22c387, 2021-05-23)"
   xmlns:inkscape="http://www.inkscape.org/namespaces/inkscape"
   xmlns:sodipodi="http://sodipodi.sourceforge.net/DTD/sodipodi-0.dtd"
   xmlns="http://www.w3.org/2000/svg"
   xmlns:svg="http://www.w3.org/2000/svg"><sodipodi:namedview
   id="namedview2457"
   pagecolor="#ffffff"
   bordercolor="#666666"
   borderopacity="1.0"
   inkscape:pageshadow="2"
   inkscape:pageopacity="0.0"
   inkscape:pagecheckerboard="0"
   inkscape:document-units="mm"
   showgrid="false"
   inkscape:zoom="0.36864119"
   inkscape:cx="1080.9969"
   inkscape:cy="-147.84023"
   inkscape:window-width="1920"
   inkscape:window-height="1017"
   inkscape:window-x="-8"
   inkscape:window-y="-8"
   inkscape:window-maximized="1"
   inkscape:current-layer="Ebene_x0020_1" />
 <defs
   id="defs2370">
  <style
   type="text/css"
   id="style2368">
   <![CDATA[
    .str5 {stroke:#2B2A29;stroke-width:7.27271}
    .str4 {stroke:#E31E24;stroke-width:7.27271}
    .str7 {stroke:#101F22;stroke-width:1.28847}
    .str6 {stroke:#2B2A29;stroke-width:1.28847}
    .str3 {stroke:#FEFEFE;stroke-width:1.28847}
    .str2 {stroke:#E31E24;stroke-width:1.46981}
    .str0 {stroke:#009846;stroke-width:143.631;stroke-linejoin:round}
    .str1 {stroke:#009846;stroke-width:144.118;stroke-linejoin:round}
    .fil2 {fill:none}
    .fil6 {fill:none;fill-rule:nonzero}
    .fil7 {fill:#009E43}
    .fil1 {fill:#101F22}
    .fil3 {fill:#2B2A29}
    .fil4 {fill:#898989}
    .fil5 {fill:#E31E24}
    .fil0 {fill:#FEFEFE}
   ]]>
  </style>
 </defs>
 <g
   id="Ebene_x0020_1"
   inkscape:label="Ebene 1"
   inkscape:groupmode="layer">
  <metadata
   id="CorelCorpID_0Corel-Layer" />
  <g
   id="ap_logo_panther_weiss.eps"
   transform="matrix(1.4663575,0,0,1.4663575,-0.04354032,4885.17)">
   <polygon
   class="fil0"
   points="9357,618 9370,628 9383,638 9396,649 9402,655 9432,668 9503,701 9574,733 9645,766 9716,798 9786,831 9856,864 9926,897 9995,931 10064,964 10133,998 10202,1031 10270,1065 10338,1099 10405,1133 10472,1168 10539,1202 10605,1237 10671,1272 10737,1306 10802,1341 10866,1377 10930,1412 10994,1447 11057,1483 11120,1518 11182,1554 11244,1590 11305,1626 11366,1663 11426,1699 13018,2675 12246,2472 12717,2675 11103,2519 11766,2807 10386,2801 10297,2801 10211,2802 10128,2803 10047,2806 9969,2809 9893,2813 9820,2818 9749,2825 9680,2832 9614,2840 9549,2849 9487,2860 9428,2871 9386,2880 10558,2880 10661,2887 10758,2894 10851,2903 10941,2912 11028,2923 11113,2934 11194,2947 11273,2960 11349,2974 11423,2989 11495,3005 11565,3022 11633,3039 11698,3058 11762,3076 11825,3096 11885,3116 11945,3137 12003,3159 12060,3181 12116,3203 12171,3226 12225,3250 12279,3274 12332,3298 12385,3322 12437,3347 12490,3373 12542,3398 12594,3424 12647,3449 12842,3545 12680,3690 12634,3729 12588,3767 12541,3804 12494,3840 12446,3874 12398,3908 12350,3940 12301,3971 12252,4001 12203,4029 12153,4057 12103,4084 12053,4111 12003,4136 11952,4160 11901,4184 11850,4207 11799,4229 11747,4250 11695,4271 11643,4291 11591,4311 11539,4330 11487,4349 11434,4367 11382,4385 11329,4402 11276,4420 11275,4420 11288,4433 11330,4476 11372,4517 11415,4557 11459,4596 11504,4635 11549,4673 11595,4710 11641,4747 11688,4783 11736,4818 11784,4854 11832,4888 11881,4923 11930,4957 11979,4992 12028,5026 12078,5060 12127,5094 12177,5128 12227,5163 12277,5198 12326,5233 12376,5269 12426,5305 12475,5342 12524,5379 12573,5417 12621,5456 12872,5663 12564,5686 12518,5689 12472,5691 12426,5692 12379,5693 12333,5692 12286,5692 12239,5690 12192,5687 12145,5684 12097,5680 12049,5675 12001,5669 11952,5663 11904,5655 11855,5646 11805,5637 11756,5626 11706,5615 11656,5602 11605,5589 11554,5574 11503,5559 11452,5542 11400,5524 11348,5505 11295,5485 11242,5464 11189,5441 11135,5418 11081,5393 11049,5377 10828,5377 10583,5377 10338,5376 10093,5375 9848,5374 9603,5372 9358,5371 9113,5369 8868,5367 8623,5365 8378,5363 8133,5361 7888,5359 7643,5358 7398,5356 7153,5355 6908,5353 6664,5352 6419,5351 6174,5351 5929,5350 5684,5350 5440,5351 5195,5352 4950,5353 4705,5355 4461,5357 4216,5360 3971,5363 3727,5367 3482,5372 3238,5377 3150,5381 3062,5387 2975,5395 2887,5406 2800,5419 2712,5434 2625,5451 2538,5470 2451,5491 2363,5514 2276,5538 2189,5563 2102,5590 2015,5619 1927,5648 1840,5679 1753,5710 1665,5742 1578,5775 1490,5808 1402,5842 1314,5876 1226,5911 1138,5945 1050,5979 962,6013 873,6047 784,6081 695,6114 606,6146 516,6178 0,6355 379,5971 440,5909 502,5846 563,5784 623,5722 684,5660 744,5599 804,5537 863,5475 922,5413 980,5351 1038,5289 1096,5226 1153,5164 1209,5101 1265,5038 1320,4974 1375,4910 1429,4846 1483,4782 1536,4717 1588,4651 1639,4585 1690,4519 1740,4452 1789,4384 1837,4316 1885,4247 1932,4177 1978,4106 1995,4079 1991,4078 1964,4070 1937,4062 1910,4053 1883,4045 1830,4029 1803,4021 1776,4013 1749,4005 1723,3997 1696,3989 1669,3981 1616,3965 1589,3956 1562,3948 1536,3940 1509,3932 1482,3924 1455,3916 1428,3908 1401,3900 1374,3891 1347,3883 1320,3875 1292,3867 909,3751 1307,3644 1346,3633 1384,3623 1423,3612 1462,3601 1501,3590 1540,3578 1579,3567 1617,3555 1656,3544 1695,3532 1734,3520 1774,3508 1813,3496 1852,3485 1930,3461 1969,3449 2009,3437 2048,3425 2087,3413 2126,3401 2166,3390 2205,3378 2245,3366 2284,3355 2323,3344 2363,3332 2402,3321 2442,3310 2475,3301 2475,3301 2482,3287 2489,3273 2496,3260 2502,3246 2509,3233 2516,3220 2522,3207 2529,3194 2535,3181 2541,3168 2548,3155 2554,3142 2561,3129 2567,3116 2573,3103 2580,3090 2586,3077 2593,3064 2544,3062 2487,3059 2430,3055 2372,3050 2313,3045 2254,3039 2195,3032 2136,3025 2077,3017 2017,3008 1958,2999 1898,2990 1839,2980 1780,2969 1721,2958 1662,2946 1604,2935 1546,2922 1489,2910 1432,2897 1376,2883 1320,2870 1266,2856 1212,2842 1159,2828 1108,2813 1057,2799 1007,2784 652,2675 1164,2494 1371,2426 1574,2364 1775,2308 1973,2258 2169,2214 2361,2176 2551,2144 2738,2117 2923,2095 3105,2079 3284,2068 3461,2063 3636,2062 3809,2067 3979,2076 4147,2090 4313,2109 4476,2132 4638,2160 4798,2193 4955,2229 5111,2270 5265,2315 5417,2364 5567,2416 5716,2473 5863,2533 5977,2582 5967,2572 5949,2553 5932,2533 5916,2513 5901,2492 5887,2472 5874,2450 5862,2428 5850,2406 5846,2397 5838,2393 5830,2389 5823,2384 5815,2380 5809,2376 5803,2376 5769,2374 5735,2369 5702,2361 5669,2349 5636,2335 5604,2317 5573,2295 5544,2270 5517,2242 5492,2211 5470,2177 5452,2141 5437,2103 5426,2065 5419,2025 5415,1985 5414,1946 5415,1906 5420,1866 5427,1826 5432,1807 5431,1805 5427,1801 5424,1796 5318,1658 5405,1493 5414,1476 5424,1459 5434,1442 5444,1425 5454,1409 5465,1393 5476,1377 5487,1361 5498,1345 5509,1330 5521,1315 5533,1300 5545,1285 5557,1271 5569,1256 5582,1242 5594,1228 5607,1214 5620,1201 5633,1188 5647,1175 5658,1164 5659,1158 5661,1138 5665,1119 5669,1101 5674,1082 5680,1064 5686,1046 5694,1029 5702,1012 5710,995 5720,979 5730,963 5740,948 5752,933 5764,918 5776,904 5789,891 5803,877 5818,865 5832,854 5839,848 5845,844 5851,839 5857,835 5863,831 5870,827 5876,823 5882,819 5885,818 5890,809 5921,763 5955,722 5990,685 6028,650 6067,618 6108,588 6150,560 6194,533 6238,508 6284,484 6331,461 6379,439 6428,418 6477,398 6527,379 6578,361 6629,345 6680,329 6731,314 6782,300 6834,287 6885,276 6935,265 6985,256 7035,247 7084,240 7132,235 7165,231 7197,213 7233,195 7269,176 7306,158 7343,141 7381,124 7419,108 7458,92 7497,77 7536,63 7574,50 7613,39 7652,28 7691,19 7731,11 7771,5 7813,1 7857,0 7906,3 7960,14 8021,36 8086,76 8146,139 8186,218 8190,237 8197,237 8210,239 8224,241 8238,243 8252,245 8263,246 8267,245 8270,244 8274,243 8278,242 8281,240 8285,239 8289,238 8292,237 8296,236 8299,235 8304,234 8359,219 8412,205 8464,194 8513,184 8561,175 8607,168 8652,163 8695,160 8737,158 8778,158 8818,160 8858,164 8898,170 8938,180 8979,194 9020,212 9061,236 9101,267 9139,306 9170,352 9195,403 9210,456 9217,508 9217,526 9219,527 9233,536 9248,544 9262,553 9276,561 9290,570 9304,579 9318,589 9331,598 9344,608 "
   id="polygon2373" />
   <path
   class="fil1"
   d="m 976,2671 c 2311,-846 4038,-536 5553,319 1337,0 2675,0 4012,0 1072,62 1527,305 2099,584 -465,426 -1005,624 -1568,797 431,516 1019,792 1514,1209 -469,38 -959,-29 -1528,-306 -2613,0 -5226,-61 -7838,0 -972,23 -1895,518 -2843,837 660,-669 1291,-1302 1765,-2091 -292,-89 -569,-172 -862,-261 416,-111 836,-255 1252,-365 80,-155 136,-277 216,-432 -554,8 -1273,-136 -1773,-292 z"
   id="path2375" />
   <path
   class="fil2 str0"
   d="m 3228,3586 c 145,-266 317,-550 461,-816 754,40 1200,101 1536,324 -403,272 -1314,428 -1997,492 z M 1187,5576 c 732,-543 1011,-1096 1369,-1738 -180,-31 -361,-62 -541,-94 268,-42 420,-47 680,-114 153,-264 369,-653 522,-916 -461,-17 -923,-35 -1384,-52 1385,-361 2837,-295 4263,370 -730,571 -1763,803 -3050,916 -276,298 -479,779 0,1083 -479,21 -916,57 -1858,547 z"
   id="path2377" />
   <path
   class="fil0"
   d="m 3228,3586 c 145,-266 317,-550 461,-816 754,40 1200,101 1536,324 -403,272 -1314,428 -1997,492 z M 1187,5576 c 732,-543 1011,-1096 1369,-1738 -180,-31 -361,-62 -541,-94 268,-42 420,-47 680,-114 153,-264 369,-653 522,-916 -461,-17 -923,-35 -1384,-52 1385,-361 2837,-295 4263,370 -730,571 -1763,803 -3050,916 -276,298 -479,779 0,1083 -479,21 -916,57 -1858,547 z"
   id="path2379" />
   <path
   class="fil2 str1"
   d="m 10127,5030 c -250,-158 -213,-391 -96,-576 28,-45 120,-213 155,-250 477,615 1084,1004 1774,1153 -717,-416 -1053,-731 -1306,-1189 612,-87 1137,-263 1516,-559 -924,-430 -1864,-473 -2761,-239 299,11 598,22 897,34 -99,171 -239,423 -338,594 -169,44 -267,47 -441,74 117,20 234,40 351,61 -161,289 -337,701 -685,899 l 935,-1 z m 185,-1061 c 94,-173 205,-356 299,-529 488,26 777,66 995,210 -261,176 -851,278 -1294,319 z"
   id="path2381" />
   <path
   class="fil0"
   d="m 10127,5030 c -250,-158 -213,-391 -96,-576 28,-45 120,-213 155,-250 477,615 1084,1004 1774,1153 -717,-416 -1053,-731 -1306,-1189 612,-87 1137,-263 1516,-559 -924,-430 -1864,-473 -2761,-239 299,11 598,22 897,34 -99,171 -239,423 -338,594 -169,44 -267,47 -441,74 117,20 234,40 351,61 -161,289 -337,701 -685,899 l 935,-1 z m 185,-1061 c 94,-173 205,-356 299,-529 488,26 777,66 995,210 -261,176 -851,278 -1294,319 z"
   id="path2383" />
   <path
   class="fil2 str0"
   d="m 3851,4714 h 198 l 78,-320 z m -579,316 853,-925 h 319 l -164,925 h -312 l 31,-122 h -312 l -105,122 h -309 z m 1229,0 508,-925 h 299 l 38,430 c 2,12 1,29 -1,51 -3,22 -7,49 -14,80 6,-16 14,-34 24,-54 9,-20 22,-44 37,-72 l 240,-436 h 300 l -508,925 h -300 l -40,-427 c -1,-13 -1,-30 2,-53 3,-23 7,-49 13,-79 -6,16 -13,33 -22,51 -8,18 -21,43 -39,75 l -238,433 h -299 z m 1446,0 374,-681 h -282 l 134,-244 h 873 l -134,244 h -276 l -374,681 z m 829,0 508,-925 h 315 l -173,314 h 293 l 173,-314 h 315 l -508,925 h -315 l 197,-358 h -293 l -197,358 z m 1238,0 508,-925 h 783 l -122,222 h -468 l -68,123 h 396 l -117,212 h -396 l -79,143 h 488 l -124,225 h -803 z"
   id="path2385" />
   <path
   class="fil0"
   d="m 3851,4714 h 198 l 78,-320 z m -579,316 853,-925 h 319 l -164,925 h -312 l 31,-122 h -312 l -105,122 h -309 z m 1229,0 508,-925 h 299 l 38,430 c 2,12 1,29 -1,51 -3,22 -7,49 -14,80 6,-16 14,-34 24,-54 9,-20 22,-44 37,-72 l 240,-436 h 300 l -508,925 h -300 l -40,-427 c -1,-13 -1,-30 2,-53 3,-23 7,-49 13,-79 -6,16 -13,33 -22,51 -8,18 -21,43 -39,75 l -238,433 h -299 z m 1446,0 374,-681 h -282 l 134,-244 h 873 l -134,244 h -276 l -374,681 z m 829,0 508,-925 h 315 l -173,314 h 293 l 173,-314 h 315 l -508,925 h -315 l 197,-358 h -293 l -197,358 z m 1238,0 508,-925 h 783 l -122,222 h -468 l -68,123 h 396 l -117,212 h -396 l -79,143 h 488 l -124,225 h -803 z"
   id="path2387" />
   <polygon
   class="fil3"
   points="6367,2883 6372,2905 6379,2928 6387,2950 6396,2972 6406,2994 6417,3015 6429,3036 6443,3057 6455,3074 6456,3080 6459,3094 6462,3108 6467,3122 6472,3135 6477,3148 6484,3160 6490,3171 6498,3182 6506,3193 6514,3203 6522,3212 6531,3221 6541,3229 6551,3237 6561,3245 6571,3252 6582,3258 6594,3264 6605,3270 6618,3275 6626,3277 6660,3314 6698,3353 6737,3388 6777,3422 6817,3453 6859,3481 6902,3507 6945,3529 6990,3549 7035,3565 7082,3578 7129,3587 7177,3592 7225,3593 7273,3590 7322,3582 7369,3570 7416,3555 7461,3535 7506,3511 7549,3484 7591,3453 7631,3418 7670,3381 7708,3340 7745,3296 7781,3248 7815,3198 7845,3150 7864,3166 7887,3185 7909,3204 7931,3221 7953,3237 7975,3253 7997,3268 8019,3283 8041,3296 8064,3308 8088,3320 8112,3330 8137,3339 8162,3347 8189,3353 8216,3357 8244,3359 8272,3358 8301,3356 8329,3350 8356,3343 8383,3333 8408,3322 8433,3309 8456,3294 8488,3272 8542,3215 8586,3173 8629,3134 8673,3097 8718,3062 8763,3029 8809,2998 8856,2970 8903,2943 8952,2917 9002,2894 9053,2872 9106,2851 9160,2833 9215,2815 9272,2799 9331,2784 9392,2771 9454,2759 9519,2748 9585,2739 9654,2730 9724,2723 9797,2717 9872,2711 9949,2707 10029,2704 10111,2701 10195,2699 10282,2699 10372,2698 11236,2703 10494,2380 10459,2365 10451,2361 10464,2362 10538,2368 10615,2373 10694,2380 10775,2387 10859,2394 10944,2402 12040,2508 11049,2080 10986,2053 10926,2029 10951,2034 11034,2053 11118,2074 11204,2095 12334,2393 11356,1793 11297,1757 11237,1721 11176,1686 11115,1650 11053,1614 10991,1579 10928,1544 10865,1509 10801,1474 10737,1439 10672,1404 10607,1369 10542,1335 10476,1300 10409,1266 10343,1232 10276,1198 10208,1164 10140,1130 10072,1097 10004,1063 9935,1030 9866,997 9796,964 9726,931 9657,898 9586,866 9516,833 9445,801 9374,769 9329,749 9322,742 9312,733 9301,724 9290,715 9278,706 9267,697 9255,688 9243,680 9231,671 9218,663 9206,655 9193,647 9180,639 9166,632 9153,624 9139,616 9125,609 9111,602 9097,595 9090,591 9091,587 9096,553 9096,518 9092,481 9081,444 9064,409 9042,378 9016,350 8987,328 8957,310 8926,297 8894,286 8862,278 8829,273 8796,269 8761,268 8725,268 8687,270 8648,273 8607,278 8564,284 8519,292 8472,301 8423,313 8371,325 8318,340 8314,341 8311,342 8308,343 8305,344 8302,345 8298,346 8295,347 8292,348 8289,349 8286,350 8282,351 8279,352 8276,353 8273,354 8270,355 8267,356 8263,357 8260,359 8260,359 8250,357 8236,355 8223,354 8210,352 8196,350 8183,348 8169,347 8156,345 8142,343 8129,342 8115,340 8102,339 8088,337 8082,337 8082,312 8071,258 8044,205 8005,163 7960,136 7917,120 7878,113 7840,110 7804,111 7769,114 7734,119 7699,126 7664,135 7628,144 7592,155 7556,168 7519,181 7482,195 7446,210 7409,225 7373,241 7337,258 7302,275 7267,293 7234,311 7201,329 7183,339 7174,340 7129,344 7083,350 7037,356 6990,364 6942,373 6893,383 6844,395 6795,407 6745,420 6696,434 6647,450 6598,466 6549,483 6501,501 6454,520 6408,540 6362,561 6318,582 6275,605 6233,629 6193,653 6155,679 6118,706 6083,735 6050,765 6020,797 5991,831 5966,868 5948,900 5947,901 5942,904 5937,906 5932,909 5927,912 5922,915 5917,918 5912,921 5907,924 5902,927 5898,930 5893,934 5888,937 5883,941 5872,950 5861,960 5850,970 5840,980 5830,991 5821,1003 5812,1014 5804,1026 5796,1038 5789,1051 5782,1063 5776,1076 5771,1089 5766,1103 5761,1116 5757,1130 5754,1144 5752,1159 5750,1173 5749,1188 5748,1203 5748,1216 5743,1220 5731,1231 5718,1243 5706,1255 5694,1267 5682,1279 5670,1291 5658,1304 5646,1317 5635,1330 5623,1343 5612,1356 5601,1370 5590,1384 5580,1398 5569,1412 5559,1426 5549,1441 5539,1455 5529,1470 5520,1485 5511,1500 5502,1516 5493,1531 5484,1547 5429,1651 5494,1736 5497,1740 5500,1744 5504,1749 5507,1753 5511,1758 5514,1762 5518,1767 5522,1772 5526,1776 5530,1781 5534,1785 5525,1817 5517,1851 5511,1885 5507,1918 5505,1950 5506,1982 5510,2013 5515,2044 5524,2073 5535,2102 5548,2128 5564,2153 5582,2176 5602,2197 5624,2215 5646,2231 5669,2244 5693,2254 5717,2263 5742,2269 5766,2272 5791,2274 5815,2273 5823,2273 5828,2276 5835,2280 5841,2284 5848,2288 5854,2292 5861,2296 5867,2300 5874,2303 5881,2307 5887,2310 5894,2313 5901,2317 5908,2320 5913,2322 5915,2326 5923,2345 5931,2363 5941,2382 5951,2400 5962,2418 5974,2435 5987,2453 6000,2470 6014,2486 6029,2502 6045,2518 6061,2534 6078,2548 6096,2563 6114,2577 6133,2590 6153,2603 6174,2616 6195,2628 6217,2639 6239,2650 6262,2661 6286,2671 6311,2680 6336,2689 6356,2695 6356,2703 6354,2725 6353,2748 6354,2770 6354,2792 6356,2815 6359,2838 6362,2860 "
   id="polygon2389" />
   <path
   class="fil4"
   d="m 5911,1276 c -123,88 -235,214 -311,360 32,42 62,78 106,102 -167,355 67,416 131,358 9,8 19,16 31,24 0,0 -1,0 -1,0 47,37 100,64 159,80 28,144 144,284 388,352 -46,-178 -76,-293 -59,-356 34,-8 68,-17 104,-29 38,164 139,263 279,291 -32,-155 -23,-246 5,-351 0,0 0,0 1,0 154,37 346,144 171,429 -4,7 -22,34 -27,41 -30,-25 -50,-60 -71,-103 -11,50 -22,82 -23,126 -29,-7 -109,16 -130,87 -36,-35 -81,-114 -118,-195 -68,210 -84,393 55,527 -22,50 22,105 75,113 27,4 29,15 48,37 356,400 757,380 1059,-272 284,261 421,378 584,255 491,-525 1076,-619 2081,-611 -348,-154 -782,-269 -1194,-296 241,-87 823,-87 1778,8 -653,-286 -1373,-487 -2000,-524 619,-54 1334,-19 2284,236 -617,-381 -1338,-744 -2093,-1083 -76,-79 -204,-151 -368,-212 162,-189 45,-333 -510,-177 -27,8 -54,18 -83,29 -135,-21 -276,-36 -420,-43 256,-372 -312,-171 -607,5 l -26,12 c -405,21 -1104,258 -1154,531 -31,4 -63,18 -91,39 -72,56 -95,148 -53,210 z"
   id="path2391" />
   <path
   class="fil1"
   d="m 7798,2848 c 247,205 422,434 662,145 245,-295 944,-550 1838,-479 -376,-148 -765,-225 -1163,-256 247,-113 741,-144 1617,-76 -621,-257 -1342,-397 -1936,-451 198,21 669,-244 2285,144 -627,-377 -1268,-690 -1916,-971 -111,-80 -225,-152 -364,-199 -144,143 -435,303 -810,377 1097,-538 1026,-714 -3,-433 67,-35 129,-69 188,-97 -112,-17 -230,-30 -351,-38 -8,1 -17,1 -26,2 -777,-30 -1308,232 -1305,444 -105,-123 11,-263 277,-357 -237,67 -466,172 -619,327 -39,39 -55,82 -73,128 -29,1 -72,13 -99,33 -56,44 -74,116 -41,164 16,-10 32,-20 49,-28 0,0 0,0 0,0 148,-68 261,-92 385,-146 -70,72 -275,115 -382,185 l -10,5 c -117,68 -243,186 -340,359 96,147 284,130 437,87 l 3,13 c -153,71 -256,142 -246,269 l -11,2 c -26,-150 -63,-214 -101,-239 v 0 c -52,107 -82,396 98,291 4,-3 15,-5 19,-1 30,40 133,137 329,126 351,-37 717,-267 1026,-228 251,6 548,143 383,399 -9,25 -71,78 -116,113 -33,25 -56,40 -50,67 59,134 -146,65 -13,-58 408,-231 -4,-474 -258,-469 -2,0 -4,0 -6,0 -1,0 -1,0 -2,0 -79,-5 -160,9 -236,27 0,0 0,0 -1,0 -53,12 -107,28 -162,44 302,35 341,271 159,524 -11,13 -26,23 -43,30 -32,9 -59,37 -71,-2 -89,3 -130,84 -121,129 -49,-50 -91,-114 -130,-181 -56,189 -27,330 79,427 -7,2 -27,108 59,102 441,457 718,286 1018,-145 73,-106 139,-214 196,-330 -71,153 -41,91 -103,226 z"
   id="path2393" />
   <path
   class="fil0"
   d="m 6566,2658 c 64,129 159,246 242,246 -12,36 -65,67 -113,68 -116,-62 -161,-199 -129,-314 z"
   id="path2395" />
   <path
   class="fil5"
   d="m 6856,1196 c -14,-5 -25,-13 -33,-26 -12,15 -3,41 18,58 22,18 49,20 61,6 12,-15 4,-41 -18,-59 -8,-7 -18,-11 -26,-14 -4,11 -4,23 -2,34 z"
   id="path2397" />
   <path
   class="fil2 str2"
   d="m 6856,1196 c -14,-5 -25,-13 -33,-26 -12,15 -3,41 18,58 22,18 49,20 61,6 12,-15 4,-41 -18,-59 -8,-7 -18,-11 -26,-14 -4,11 -4,23 -2,34 z"
   id="path2399" />
   <path
   class="fil0"
   d="m 6941,1251 c 194,-64 148,-146 115,-171 -22,-16 -79,-40 -74,37 -30,15 -49,25 -79,30 25,18 68,40 38,103 z"
   id="path2401" />
   <path
   class="fil2 str3"
   d="m 6941,1251 c 194,-64 148,-146 115,-171 -22,-16 -79,-40 -74,37 -30,15 -49,25 -79,30 25,18 68,40 38,103 z"
   id="path2403" />
   <path
   class="fil5"
   d="m 7025,2485 c -27,74 -79,129 -131,163 -35,23 -83,53 -114,8 -153,48 -50,210 105,208 52,-1 161,-13 230,-48 8,-4 16,-9 25,-14 79,-48 150,-134 169,-208 15,-59 33,-147 93,-177 130,-36 25,-125 -100,-102 -101,19 -196,313 -267,331 82,-54 115,-317 217,-333 17,-22 -8,-34 -54,-34 -145,-1 -130,90 -172,205 z"
   id="path2405" />
   <g
   id="g2409">
    <path
   class="fil6 str4"
   d="m 7025,2485 c -27,74 -79,129 -130,163 -35,23 -83,53 -114,8 -153,48 -50,210 105,208 52,-1 161,-13 230,-48 8,-4 16,-9 25,-14 79,-48 150,-134 169,-208 16,-59 33,-147 93,-177 130,-36 25,-125 -100,-102 -101,19 -196,313 -267,331 82,-54 115,-317 217,-333 17,-22 -8,-34 -54,-34 -145,-1 -130,90 -172,205 z"
   id="path2407" />
   </g>
   <path
   class="fil4"
   d="m 6748,3070 c 3,4 8,-3 11,1 98,110 314,206 437,167 -141,86 -286,-4 -448,-168 z"
   id="path2411" />
   <g
   id="g2415">
    <path
   class="fil6 str5"
   d="m 6748,3070 c 3,4 8,-3 11,1 98,110 314,206 437,167 -141,86 -286,-4 -448,-168 z"
   id="path2413" />
   </g>
   <path
   class="fil1"
   d="m 7343,471 463,-8 c 218,-290 -402,-49 -463,8 z"
   id="path2417" />
   <path
   class="fil2 str6"
   d="m 7343,471 463,-8 c 218,-290 -402,-49 -463,8 z"
   id="path2419" />
   <path
   class="fil5"
   d="m 6607,1745 c 432,-221 1242,-504 1927,-336 l 64,-242 c -831,14 -1361,149 -1991,578 z"
   id="path2421" />
   <path
   class="fil7"
   d="m 6520,1858 c 415,-173 1347,-426 1976,-87 l 101,-234 c -819,-139 -1510,12 -2077,320 z"
   id="path2423" />
   <path
   class="fil0"
   d="m 6627,1893 c 452,-120 1264,-157 1794,310 l 142,-215 C 7855,1654 7322,1605 6627,1893 Z"
   id="path2425" />
   <path
   class="fil4"
   d="m 6622,1174 c -145,31 -184,-156 -78,-152 124,262 541,-403 774,165 -254,-420 -534,30 -696,-13 z"
   id="path2427" />
   <path
   class="fil1"
   d="m 6825,2551 c -1,57 -6,113 -1,170 3,26 8,50 15,74 3,10 7,20 11,30 14,31 31,57 55,83 6,5 11,11 17,16 20,17 41,33 66,43 6,2 12,3 18,5 22,3 40,1 61,-5 5,-2 11,-4 16,-6 27,-13 47,-29 65,-52 9,-13 14,-24 19,-38 28,-109 -16,-87 -70,-78 -34,-11 -67,-28 -94,-50 -33,-27 -62,-59 -90,-91 -29,-33 -58,-67 -88,-101 z"
   id="path2429" />
   <path
   class="fil0"
   d="m 6863,2656 c -4,110 28,210 128,268 55,33 145,-29 141,-87 -31,6 -86,-20 -115,-36 -52,-29 -102,-85 -153,-144 z"
   id="path2431" />
   <path
   class="fil4"
   d="m 8050,715 c 381,-162 615,18 -30,317 196,-169 276,-272 30,-317 z"
   id="path2433" />
   <path
   class="fil4"
   d="m 7159,2913 c 6,64 -31,133 -129,131 -36,-11 -42,-48 -29,-67 38,37 111,-6 158,-64 z"
   id="path2435" />
   <path
   class="fil0"
   d="m 6883,1273 c -57,15 -84,8 -112,7 -3,0 -6,0 -9,0 0,3 0,5 0,8 -1,8 -4,14 -10,16 -10,3 -25,-10 -32,-30 -4,-11 -5,-23 -3,-31 4,-22 27,-47 48,-61 10,73 68,101 117,91 z"
   id="path2437" />
   <path
   class="fil2 str3"
   d="m 6883,1273 c -57,15 -84,8 -112,7 h -9 v 8 c 0,8 -4,14 -10,16 -10,3 -25,-10 -32,-30 -4,-11 -5,-23 -3,-31 4,-22 27,-47 48,-61 10,73 68,101 117,91 z"
   id="path2439" />
   <path
   class="fil1"
   d="m 6713,2087 c -35,88 -48,245 -11,327 -127,-23 -192,-154 -217,-255 1,-1 2,-1 3,-2 2,-1 4,-1 5,-2 73,-23 146,-45 220,-68 z"
   id="path2441" />
   <path
   class="fil0"
   d="m 6650,2175 c -8,52 -9,116 1,180 -51,-23 -87,-76 -110,-129 -38,-51 14,-45 49,-58 35,-13 74,-41 61,6 z"
   id="path2443" />
   <path
   class="fil1"
   d="m 6108,2216 h 5 c 51,5 106,3 164,-5 h 10 c 7,-1 14,-2 21,-3 5,-1 10,-2 15,-3 -22,54 5,165 48,298 -208,-71 -284,-191 -301,-291 12,2 25,4 38,5 z"
   id="path2445" />
   <path
   class="fil2 str7"
   d="m 6108,2216 h 5 c 51,5 106,3 164,-5 h 10 c 7,-1 14,-2 21,-3 5,-1 10,-2 15,-3 -22,54 5,165 48,298 -208,-71 -284,-191 -301,-291 12,2 25,4 38,5 z"
   id="path2447" />
   <path
   class="fil0"
   d="m 6137,2295 c 38,66 108,131 192,161 -26,-53 -42,-108 -46,-162 -5,-70 -30,-39 -79,-38 -45,0 -113,-22 -67,39 z"
   id="path2449" />
   <path
   class="fil5"
   d="m 5475,3798 h 82 l 33,-130 -114,130 z m -240,129 354,-376 h 132 l -68,376 h -129 l 13,-50 h -129 l -44,50 h -128 z m 674,-376 h 131 l -130,232 c -12,21 -16,37 -11,46 5,9 18,14 41,14 22,0 40,-4 55,-13 14,-9 28,-24 40,-46 l 130,-232 h 131 l -135,241 c -26,47 -63,83 -110,108 -47,25 -101,37 -164,37 -63,0 -104,-12 -123,-37 -19,-25 -15,-61 11,-108 l 135,-241 z m 572,376 12,-32 c -23,14 -47,25 -71,32 -25,7 -51,11 -79,11 -58,0 -94,-18 -108,-53 -14,-35 -3,-84 31,-145 35,-63 81,-112 138,-146 57,-35 119,-52 186,-52 53,0 89,12 108,37 19,24 19,59 0,103 h -124 c 3,-15 2,-26 -5,-34 -7,-8 -18,-12 -35,-12 -26,0 -51,9 -74,28 -23,19 -45,46 -66,83 -19,34 -27,59 -23,76 4,17 19,25 45,25 19,0 38,-4 56,-12 18,-8 32,-19 43,-33 h -59 l 45,-81 h 179 l -115,206 h -84 z m 223,-117 h 127 c -4,14 -3,23 3,29 6,6 18,9 36,9 15,0 29,-2 40,-7 11,-5 20,-11 24,-20 8,-14 -4,-25 -36,-33 -6,-2 -11,-3 -15,-4 -26,-7 -46,-14 -61,-20 -15,-6 -24,-11 -30,-16 -10,-10 -15,-23 -14,-37 0,-15 6,-31 16,-50 21,-37 52,-67 95,-88 42,-21 90,-32 143,-32 52,0 88,10 106,31 19,20 19,50 2,88 h -124 c 4,-11 3,-19 -2,-25 -5,-5 -16,-8 -32,-8 -14,0 -25,2 -35,6 -9,4 -16,11 -21,19 -7,12 5,23 36,31 3,1 5,1 6,2 5,1 11,3 20,5 41,11 66,21 76,30 12,11 18,24 18,38 0,14 -5,31 -16,50 -23,42 -57,73 -101,96 -44,22 -95,34 -154,34 -54,0 -90,-11 -109,-34 -19,-22 -19,-54 0,-94 z m 551,29 h 60 c 20,0 36,-3 47,-8 12,-5 21,-14 28,-27 7,-12 8,-21 2,-26 -6,-5 -19,-8 -39,-8 h -59 z m 77,-138 h 54 c 18,0 32,-2 42,-7 10,-5 18,-13 25,-25 7,-12 8,-21 2,-26 -5,-5 -22,-7 -51,-7 h -36 z m -253,226 211,-376 h 167 c 36,0 61,1 77,3 15,2 28,5 37,8 17,7 26,18 29,33 3,15 -2,34 -14,55 -10,17 -22,32 -37,45 -15,13 -33,23 -55,31 18,7 27,18 30,32 2,14 -3,33 -16,56 -13,22 -28,42 -48,58 -19,16 -41,29 -65,38 -16,6 -33,10 -51,13 -18,3 -46,4 -84,4 h -180 z m 657,-376 h 131 l -130,232 c -12,21 -16,37 -11,46 4,9 18,14 41,14 22,0 40,-4 55,-13 14,-9 28,-24 40,-46 l 130,-232 h 131 l -135,241 c -26,47 -63,83 -110,108 -47,25 -101,37 -164,37 -63,0 -104,-12 -123,-37 -19,-25 -16,-61 11,-108 l 135,-241 z m 519,162 h 59 c 21,0 37,-3 47,-8 11,-5 20,-14 27,-27 7,-13 9,-22 4,-28 -5,-5 -19,-8 -42,-8 h -56 l -39,70 z m -249,215 211,-376 h 195 c 61,0 100,8 116,25 17,17 14,45 -8,83 -13,23 -29,42 -48,57 -19,15 -42,27 -70,36 20,4 32,13 35,26 3,13 -2,32 -16,57 l -27,52 c 0,0 0,1 0,1 -8,15 -8,23 -2,24 l -8,14 h -132 c 3,-9 5,-17 8,-24 3,-7 5,-12 7,-16 l 21,-38 c 11,-19 14,-33 10,-41 -4,-8 -16,-12 -36,-12 h -55 l -73,130 h -129 z m 752,0 12,-32 c -23,14 -47,25 -71,32 -25,7 -51,11 -79,11 -58,0 -94,-18 -108,-53 -14,-35 -3,-84 31,-145 35,-63 81,-112 138,-146 57,-35 119,-52 186,-52 53,0 89,12 108,37 19,24 19,59 0,103 h -124 c 3,-15 2,-26 -5,-34 -7,-8 -18,-12 -35,-12 -26,0 -51,9 -74,28 -23,19 -45,46 -66,83 -19,34 -27,59 -23,76 4,17 19,25 45,25 19,0 38,-4 56,-12 18,-8 32,-19 43,-33 h -59 l 45,-81 h 179 l -115,206 h -84 z m 177,0 211,-376 h 325 l -51,90 h -194 l -28,50 h 164 l -48,86 h -164 l -33,58 h 202 l -51,91 h -333 z m 662,-215 h 59 c 21,0 37,-3 47,-8 11,-5 20,-14 27,-27 7,-13 9,-22 4,-28 -5,-5 -19,-8 -42,-8 h -56 l -39,70 z m -249,215 211,-376 h 195 c 61,0 100,8 116,25 17,17 14,45 -8,83 -13,23 -29,42 -48,57 -19,15 -42,27 -70,36 20,4 32,13 35,26 3,13 -2,32 -16,57 l -27,52 c 0,0 0,1 0,1 -8,15 -8,23 -2,24 l -8,14 h -132 c 3,-9 5,-17 8,-24 3,-7 5,-12 7,-16 l 21,-38 c 11,-19 14,-33 11,-41 -4,-8 -16,-12 -36,-12 h -55 l -73,130 h -129 z"
   id="path2451" />
  </g>
 </g>
</svg>
