<?xml version="1.0" encoding="UTF-8" standalone="no"?>
<svg
   clip-rule="evenodd"
   fill-rule="evenodd"
   stroke-linejoin="round"
   stroke-miterlimit="2"
   viewBox="0 0 200 200"
   version="1.1"
   id="svg1915"
   sodipodi:docname="logo_KEV.svg"
   width="200"
   height="200"
   inkscape:version="1.1 (c68e22c387, 2021-05-23)"
   xmlns:inkscape="http://www.inkscape.org/namespaces/inkscape"
   xmlns:sodipodi="http://sodipodi.sourceforge.net/DTD/sodipodi-0.dtd"
   xmlns="http://www.w3.org/2000/svg"
   xmlns:svg="http://www.w3.org/2000/svg">
  <defs
     id="defs1919" />
  <sodipodi:namedview
     id="namedview1917"
     pagecolor="#ffffff"
     bordercolor="#666666"
     borderopacity="1.0"
     inkscape:pageshadow="2"
     inkscape:pageopacity="0.0"
     inkscape:pagecheckerboard="0"
     showgrid="false"
     inkscape:zoom="0.5"
     inkscape:cx="279"
     inkscape:cy="201"
     inkscape:window-width="1920"
     inkscape:window-height="1017"
     inkscape:window-x="-8"
     inkscape:window-y="-8"
     inkscape:window-maximized="1"
     inkscape:current-layer="svg1915" />
  <linearGradient
     id="a"
     gradientTransform="matrix(-2.98e-5,23.3919,-23.3919,-2.98e-5,217.751,42.0429)"
     gradientUnits="userSpaceOnUse"
     x1="0"
     x2="1"
     y1="0"
     y2="0">
    <stop
       offset="0"
       stop-color="#a38c37"
       id="stop1376" />
    <stop
       offset=".02"
       stop-color="#a68f35"
       id="stop1378" />
    <stop
       offset=".19"
       stop-color="#c6ac25"
       id="stop1380" />
    <stop
       offset=".37"
       stop-color="#dfc218"
       id="stop1382" />
    <stop
       offset=".56"
       stop-color="#f1d20f"
       id="stop1384" />
    <stop
       offset=".77"
       stop-color="#fcdb0a"
       id="stop1386" />
    <stop
       offset="1"
       stop-color="#ffde08"
       id="stop1388" />
  </linearGradient>
  <clipPath
     id="b">
    <path
       clip-rule="evenodd"
       d="m 237.564,130.577 0.004,0.005 h -0.002 l 0.902,1.095 0.004,0.007 c 10.622,-1.541 21.233,-3.125 31.835,-4.752 -10.926,1.17 -21.84,2.385 -32.743,3.646"
       id="path1391" />
  </clipPath>
  <clipPath
     id="c">
    <path
       clip-rule="evenodd"
       d="m 75.364,109.522 c 0.075,-0.037 0.851,-0.434 1.362,-0.696 l 0.007,-0.003 c -8.686,-3.53 -17.399,-7.028 -26.138,-10.494 8.233,3.761 16.489,7.493 24.769,11.193 m 143.013,4.077 c 0.449,0.344 1.393,1.1 1.393,1.1 l 0.008,0.006 c 12.195,-5.392 24.338,-10.851 36.429,-16.376 -12.663,5.023 -25.273,10.113 -37.83,15.27 M 96.985,93.428 c 0.047,-0.062 0.53,-0.686 0.807,-1.094 l 0.007,-0.011 C 90.94,86.527 84.039,80.757 77.097,75.011 c 6.584,6.166 13.214,12.305 19.888,18.417 m 107.729,2.531 c 0.229,0.511 0.665,1.5 0.665,1.5 l 0.008,0.017 c 8.172,-7.448 16.279,-14.936 24.319,-22.465 -8.392,6.944 -16.723,13.927 -24.992,20.948"
       id="path1394" />
  </clipPath>
  <clipPath
     id="d">
    <path
       clip-rule="evenodd"
       d="m 51.839,129.255 0.466,-0.593 0.003,-0.004 c -5.268,-0.586 -10.539,-1.161 -15.813,-1.726 5.113,0.785 10.227,1.559 15.344,2.323"
       id="path1397" />
  </clipPath>
  <clipPath
     id="e">
    <path
       clip-rule="evenodd"
       d="M 0.001,0.106 H 300.765 V 332.381 H 0.001 Z"
       id="path1400" />
  </clipPath>
  <clipPath
     id="f">
    <path
       clip-rule="evenodd"
       d="m 203.768,56.897 c 7.718,0.651 15.393,1.448 23.026,2.392 v -8.537 c -7.657,-0.932 -15.333,-1.718 -23.026,-2.357 z"
       id="path1403" />
  </clipPath>
  <clipPath
     id="g">
    <path
       clip-rule="evenodd"
       d="M 0.001,0.106 H 300.765 V 332.381 H 0.001 Z"
       id="path1406" />
  </clipPath>
  <g
     transform="matrix(0.60191107,0,0,0.60191107,9.4828076,-0.06380297)"
     id="g1913">
    <path
       d="m 34.962,200.57 c -7.78,-19.484 -12.717,-39.987 -14.658,-60.877 -0.655,-6.972 -0.987,-13.976 -0.987,-20.817 0.005,-15.095 1.556,-30.15 4.629,-44.93 l 0.53,-2.547 2.539,-0.569 C 107.531,52.869 190.983,52.504 271.653,69.761 l 2.557,0.549 0.544,2.556 c 3.216,15.126 4.837,30.547 4.838,46.01 0.027,27.963 -5.291,55.674 -15.666,81.64 -38.238,-1.726 -199.601,-5.202 -228.964,0.054"
       fill-rule="nonzero"
       id="path1409" />
    <path
       d="m 237.564,130.577 0.004,0.005 h -0.002 l 0.902,1.095 0.004,0.007 c 10.622,-1.541 21.233,-3.125 31.835,-4.752 -10.926,1.17 -21.84,2.385 -32.743,3.646"
       fill="#5c5c5c"
       fill-rule="nonzero"
       id="path1411" />
    <g
       clip-path="url(#b)"
       id="g1415">
      <path
         d="m 237.564,126.932 h 32.742 v 4.752 h -32.742 z"
         fill="#5c5c5c"
         fill-rule="nonzero"
         id="path1413" />
    </g>
    <path
       d="m 75.364,109.522 c 0.075,-0.037 0.851,-0.434 1.362,-0.696 l 0.007,-0.003 c -8.686,-3.53 -17.399,-7.028 -26.138,-10.494 8.233,3.761 16.489,7.493 24.769,11.193 m 143.013,4.077 c 0.449,0.344 1.393,1.1 1.393,1.1 l 0.008,0.006 c 12.195,-5.392 24.338,-10.851 36.429,-16.376 -12.663,5.023 -25.273,10.113 -37.83,15.27 M 96.985,93.428 c 0.047,-0.062 0.53,-0.686 0.807,-1.094 l 0.007,-0.011 C 90.94,86.527 84.039,80.757 77.097,75.011 c 6.584,6.166 13.214,12.305 19.888,18.417 m 107.729,2.531 c 0.229,0.511 0.665,1.5 0.665,1.5 l 0.008,0.017 c 8.172,-7.448 16.279,-14.936 24.319,-22.465 -8.392,6.944 -16.723,13.927 -24.992,20.948"
       fill="#5c5c5c"
       fill-rule="nonzero"
       id="path1417" />
    <g
       clip-path="url(#c)"
       id="g1421">
      <path
         d="m 50.595,75.011 h 205.612 v 39.695 H 50.595 Z"
         fill="#5c5c5c"
         fill-rule="nonzero"
         id="path1419" />
    </g>
    <path
       d="m 51.839,129.255 0.466,-0.593 0.003,-0.004 c -5.268,-0.586 -10.539,-1.161 -15.813,-1.726 5.113,0.785 10.227,1.559 15.344,2.323"
       fill="#5c5c5c"
       fill-rule="nonzero"
       id="path1423" />
    <g
       clip-path="url(#d)"
       id="g1427">
      <path
         d="m 36.495,126.932 h 15.812 v 2.323 H 36.495 Z"
         fill="#5c5c5c"
         fill-rule="nonzero"
         id="path1425" />
    </g>
    <g
       clip-path="url(#e)"
       fill-rule="nonzero"
       id="g1437">
      <path
         d="m 152.107,63.732 c 2.583,0 5.212,0.017 7.815,0.05 0.729,0.009 1.458,0.024 2.187,0.039 0.435,0.01 0.871,0.018 1.307,0.027 l 1.265,0.022 c 1.017,0.017 2.033,0.034 3.049,0.06 1.151,0.028 2.301,0.067 3.452,0.106 l 1.189,0.039 c 0.418,0.014 0.836,0.026 1.254,0.038 0.633,0.019 1.267,0.038 1.899,0.062 1.677,0.064 3.401,0.144 5.067,0.221 l 0.467,0.021 c 0.339,0.017 0.679,0.031 1.017,0.045 0.412,0.018 0.822,0.035 1.233,0.056 2.048,0.102 4.136,0.226 6.1,0.343 0.27,0.017 0.541,0.032 0.812,0.047 0.289,0.016 0.577,0.032 0.866,0.05 2.416,0.152 4.799,0.322 6.604,0.456 0.201,0.013 0.403,0.027 0.605,0.04 0.184,0.013 0.369,0.025 0.552,0.039 2.121,0.16 4.42,0.348 7.024,0.573 0.14,0.012 0.28,0.024 0.42,0.035 l 0.309,0.026 c 2.37,0.207 4.793,0.435 7.409,0.696 l 0.228,0.022 0.101,0.01 c 2.497,0.25 5.073,0.525 7.658,0.817 l 0.082,0.008 c 16.351,1.849 32.791,4.374 48.943,7.517 0.986,6.147 1.725,12.385 2.205,18.611 0.447,5.812 0.674,11.674 0.674,17.423 -0.004,10.086 -0.676,20.161 -2.013,30.159 l -1.327,9.922 h 9.518 c -0.514,2.574 -1.029,5.141 -1.545,7.702 l -0.171,0.854 v 0.872 l 0.002,34.756 c -3.95,-0.212 -8.608,-0.451 -13.868,-0.696 l -6.246,-0.291 -2.305,5.812 c -0.051,0.131 -0.106,0.262 -0.159,0.392 -0.047,0.113 -0.094,0.227 -0.139,0.341 -1.064,2.477 -2.216,5.024 -3.427,7.574 l -0.06,0.121 c -0.059,0.119 -0.119,0.24 -0.176,0.359 -0.717,1.497 -1.364,2.818 -1.98,4.041 -0.128,0.255 -0.261,0.506 -0.392,0.758 -0.109,0.211 -0.219,0.421 -0.327,0.633 -0.514,1 -1.06,2.062 -1.606,3.085 -0.18,0.338 -0.364,0.673 -0.548,1.008 l -0.319,0.583 c -0.472,0.867 -1.02,1.872 -1.569,2.845 -0.22,0.39 -0.443,0.777 -0.667,1.164 l -0.252,0.437 c -0.652,1.136 -1.155,1.997 -1.627,2.793 -0.273,0.458 -0.55,0.914 -0.828,1.37 l -0.101,0.168 c -0.619,1.021 -1.188,1.946 -1.74,2.826 -0.298,0.475 -0.597,0.946 -0.901,1.422 -0.616,0.966 -1.255,1.949 -1.897,2.924 -0.275,0.415 -0.55,0.829 -0.83,1.246 -0.659,0.984 -1.354,2 -2.123,3.107 l -0.237,0.339 c -0.152,0.22 -0.304,0.44 -0.457,0.658 -0.769,1.091 -1.575,2.212 -2.461,3.421 l -0.238,0.327 c -0.069,0.095 -0.139,0.19 -0.209,0.286 -8.195,11.087 -17.415,21.379 -27.539,30.739 l -0.031,0.029 -0.033,0.03 c -3.143,2.964 -6.415,5.878 -9.733,8.664 l -0.051,0.042 -0.133,0.111 c -0.984,0.824 -2.001,1.661 -3.022,2.487 l -0.328,0.263 -0.219,0.176 c -0.923,0.742 -1.844,1.47 -2.736,2.164 -0.232,0.181 -0.466,0.362 -0.694,0.539 -0.867,0.669 -1.768,1.354 -2.676,2.034 l -0.252,0.19 c -0.157,0.118 -0.315,0.235 -0.471,0.351 -0.885,0.657 -1.826,1.344 -2.796,2.042 l -0.299,0.216 c -0.103,0.075 -0.206,0.148 -0.311,0.225 -1.128,0.803 -2.24,1.584 -3.29,2.305 l -0.159,0.111 0.024,-0.017 c -2.311,1.586 -4.701,3.159 -7.101,4.677 -0.147,0.094 -0.296,0.186 -0.444,0.277 l -0.404,0.251 c -1.022,0.64 -1.866,1.162 -2.661,1.643 -0.282,0.171 -0.564,0.34 -0.847,0.51 l -0.337,0.201 c -0.789,0.471 -1.581,0.939 -2.375,1.403 -0.442,0.257 -0.885,0.513 -1.329,0.767 -0.761,0.436 -1.525,0.868 -2.292,1.296 -0.461,0.257 -0.921,0.513 -1.384,0.766 -0.772,0.423 -1.547,0.841 -2.324,1.255 l -0.383,0.204 c -0.325,0.174 -0.651,0.348 -0.978,0.521 -0.846,0.444 -1.713,0.886 -2.521,1.298 l -0.506,0.257 c -0.208,0.109 -0.419,0.216 -0.629,0.321 -11.752,-5.904 -22.966,-12.822 -33.517,-20.675 -0.827,-0.615 -1.709,-1.284 -2.698,-2.044 -0.182,-0.141 -0.364,-0.282 -0.546,-0.423 l -0.28,-0.217 c -0.63,-0.489 -1.258,-0.982 -1.884,-1.478 -0.3,-0.237 -0.6,-0.475 -0.899,-0.715 -0.64,-0.513 -1.277,-1.03 -1.912,-1.55 l -0.292,-0.239 c -0.151,-0.123 -0.302,-0.245 -0.451,-0.369 -0.956,-0.79 -1.816,-1.511 -2.631,-2.203 l -0.036,-0.032 -0.008,-0.007 c -0.78,-0.665 -1.609,-1.384 -2.535,-2.196 -0.149,-0.13 -0.297,-0.262 -0.445,-0.394 l -0.248,-0.219 c -0.638,-0.565 -1.273,-1.133 -1.905,-1.705 -0.249,-0.226 -0.497,-0.452 -0.744,-0.676 -0.663,-0.607 -1.323,-1.217 -1.978,-1.831 l -0.256,-0.237 -0.287,-0.268 c -0.909,-0.856 -1.74,-1.649 -2.542,-2.428 l -0.027,-0.028 -0.029,-0.027 c -2.226,-2.123 -4.438,-4.324 -6.579,-6.546 l -0.115,-0.121 -0.142,-0.145 c -1.002,-1.045 -2.002,-2.108 -2.976,-3.162 l -0.255,-0.279 -0.19,-0.206 c -1.098,-1.197 -2.049,-2.254 -2.909,-3.228 -13.308,-15.101 -24.464,-31.971 -33.15,-50.129 -0.053,-0.11 -0.106,-0.219 -0.16,-0.328 l -0.089,-0.184 c -0.884,-1.86 -1.796,-3.869 -2.792,-6.145 -0.309,-0.735 -0.611,-1.472 -0.912,-2.211 l -2.337,-5.732 -6.185,0.289 c -4.133,0.193 -8.16,0.394 -12.046,0.6 l 0.002,-28.588 v -0.377 l 0.001,-5.704 v -0.872 l -0.173,-0.854 c -0.514,-2.561 -1.03,-5.128 -1.545,-7.703 h 4.814 v -0.004 h 2.725 l -1.324,-9.919 c -0.386,-2.887 -0.718,-5.811 -0.991,-8.697 l -0.01,-0.096 c -0.672,-7.167 -1.013,-14.353 -1.013,-21.364 0,-1.351 0.016,-2.78 0.051,-4.5 0.008,-0.417 0.02,-0.834 0.031,-1.251 l 0.009,-0.312 c 0.026,-0.957 0.06,-1.953 0.101,-2.961 l 0.017,-0.442 c 0.019,-0.459 0.037,-0.917 0.058,-1.37 0.07,-1.432 0.146,-2.746 0.229,-4.014 l 0.004,-0.072 0.002,-0.014 0.016,-0.23 v -0.009 c 0.017,-0.251 0.037,-0.502 0.055,-0.752 l 0.045,-0.596 c 0.071,-0.967 0.147,-1.923 0.227,-2.839 l 0.022,-0.275 c 0.041,-0.472 0.081,-0.944 0.125,-1.416 0.123,-1.309 0.259,-2.639 0.404,-3.952 0.042,-0.366 0.084,-0.732 0.128,-1.096 l 0.04,-0.341 c 0.137,-1.162 0.281,-2.316 0.43,-3.431 l 0.062,-0.48 c 0.023,-0.181 0.046,-0.363 0.071,-0.543 0.175,-1.27 0.371,-2.603 0.601,-4.069 16.506,-3.366 33.338,-6.085 50.12,-8.092 l 0.075,-0.009 c 2.645,-0.316 5.282,-0.614 7.844,-0.887 l 0.104,-0.011 0.241,-0.024 c 2.672,-0.284 5.147,-0.532 7.571,-0.759 l 0.313,-0.027 c 0.14,-0.012 0.281,-0.024 0.421,-0.038 2.676,-0.248 5.032,-0.453 7.202,-0.629 0.183,-0.015 0.367,-0.028 0.55,-0.042 0.203,-0.015 0.407,-0.029 0.608,-0.044 2.741,-0.218 4.837,-0.374 6.795,-0.507 0.283,-0.02 0.565,-0.037 0.846,-0.053 0.271,-0.016 0.542,-0.032 0.813,-0.05 1.915,-0.125 4.14,-0.269 6.309,-0.39 0.427,-0.023 0.854,-0.043 1.282,-0.063 0.351,-0.017 0.702,-0.033 1.053,-0.052 l 0.503,-0.025 c 1.692,-0.088 3.442,-0.179 5.145,-0.25 0.651,-0.029 1.301,-0.051 1.952,-0.073 0.428,-0.014 0.855,-0.03 1.282,-0.045 l 1.223,-0.047 c 1.18,-0.045 2.361,-0.09 3.542,-0.125 1.06,-0.032 2.12,-0.055 3.18,-0.078 l 1.294,-0.027 c 0.447,-0.01 0.893,-0.021 1.337,-0.033 0.735,-0.018 1.47,-0.038 2.206,-0.05 2.677,-0.046 5.378,-0.074 8.03,-0.085 0.416,-0.002 0.832,-0.006 1.247,-0.01 h 0.035 c 0.447,-0.004 0.897,-0.009 1.346,-0.009 m 0,-8.76 c -0.488,0 -0.976,0.005 -1.465,0.009 -0.399,0.004 -0.799,0.008 -1.2,0.01 -2.714,0.011 -5.428,0.039 -8.142,0.086 -1.198,0.02 -2.395,0.057 -3.592,0.084 -1.512,0.033 -3.025,0.061 -4.537,0.107 -1.611,0.047 -3.22,0.113 -4.831,0.174 -1.092,0.04 -2.187,0.072 -3.279,0.119 -1.911,0.081 -3.819,0.182 -5.727,0.28 -0.789,0.041 -1.579,0.073 -2.368,0.116 -2.133,0.118 -4.266,0.255 -6.398,0.395 -0.56,0.037 -1.121,0.067 -1.68,0.105 -2.3,0.157 -4.596,0.328 -6.89,0.513 -0.392,0.031 -0.785,0.057 -1.177,0.089 -2.436,0.196 -4.87,0.409 -7.302,0.637 -0.249,0.023 -0.497,0.042 -0.745,0.066 -2.562,0.24 -5.12,0.497 -7.676,0.769 -0.117,0.013 -0.236,0.024 -0.353,0.036 -2.654,0.283 -5.304,0.583 -7.951,0.9 l -0.063,0.007 c -18.716,2.238 -37.261,5.307 -55.635,9.206 -0.366,0.078 -0.734,0.149 -1.1,0.228 -0.282,1.541 -0.543,3.086 -0.793,4.634 -0.062,0.379 -0.123,0.758 -0.183,1.138 -0.233,1.484 -0.454,2.971 -0.66,4.461 -0.049,0.353 -0.093,0.707 -0.14,1.061 -0.157,1.187 -0.306,2.375 -0.447,3.564 -0.058,0.497 -0.118,0.993 -0.172,1.491 -0.152,1.368 -0.292,2.736 -0.421,4.105 -0.054,0.586 -0.104,1.172 -0.155,1.759 -0.084,0.982 -0.162,1.963 -0.233,2.945 -0.042,0.564 -0.087,1.125 -0.124,1.687 l -10e-4,0.004 -0.002,0.047 c -0.091,1.387 -0.171,2.776 -0.237,4.165 -0.03,0.628 -0.053,1.255 -0.079,1.884 -0.042,1.024 -0.076,2.049 -0.104,3.074 -0.015,0.543 -0.032,1.085 -0.042,1.627 -0.032,1.56 -0.053,3.119 -0.053,4.677 0,7.289 0.354,14.758 1.053,22.204 l 0.009,0.085 c 0.285,3.019 0.628,6.028 1.029,9.027 h -1.479 l 0.001,0.004 H 10.02 l 0.073,0.361 1.716,8.572 c 0.62,3.094 1.239,6.179 1.857,9.255 v 6.082 l -0.002,37.85 c 5.213,-0.306 12.376,-0.698 21.216,-1.111 0.322,0.787 0.644,1.573 0.973,2.357 0.946,2.166 1.917,4.32 2.931,6.45 0.084,0.178 0.173,0.355 0.258,0.534 9.035,18.886 20.639,36.432 34.482,52.139 0.995,1.131 2.003,2.25 3.024,3.358 0.156,0.17 0.311,0.341 0.468,0.509 1.019,1.105 2.049,2.199 3.09,3.283 0.09,0.094 0.18,0.187 0.269,0.28 2.232,2.316 4.512,4.584 6.84,6.806 0.872,0.847 1.752,1.687 2.638,2.52 0.187,0.175 0.375,0.349 0.563,0.525 0.681,0.638 1.366,1.272 2.055,1.901 0.257,0.235 0.515,0.469 0.773,0.703 0.656,0.594 1.316,1.184 1.979,1.77 0.239,0.212 0.477,0.424 0.717,0.635 0.884,0.776 1.772,1.546 2.666,2.309 l 0.013,0.012 c 0.905,0.77 1.817,1.534 2.734,2.29 0.256,0.212 0.515,0.421 0.771,0.631 0.659,0.541 1.322,1.078 1.986,1.61 0.311,0.248 0.622,0.496 0.933,0.743 0.651,0.516 1.303,1.027 1.958,1.535 0.287,0.221 0.572,0.445 0.859,0.665 0.93,0.714 1.864,1.422 2.803,2.124 12.133,9.031 25.11,16.87 38.749,23.406 1.299,-0.622 2.59,-1.255 3.875,-1.901 0.411,-0.207 0.82,-0.419 1.231,-0.628 0.875,-0.446 1.75,-0.893 2.619,-1.349 0.473,-0.248 0.942,-0.5 1.414,-0.752 0.806,-0.43 1.611,-0.864 2.413,-1.303 0.481,-0.264 0.961,-0.53 1.439,-0.796 0.795,-0.444 1.589,-0.893 2.38,-1.345 0.461,-0.266 0.922,-0.53 1.381,-0.797 0.826,-0.481 1.648,-0.967 2.467,-1.459 0.41,-0.245 0.822,-0.49 1.231,-0.737 0.925,-0.562 1.846,-1.131 2.763,-1.707 0.293,-0.183 0.588,-0.363 0.88,-0.549 2.491,-1.574 4.951,-3.194 7.378,-4.859 l 0.121,-0.086 c 1.154,-0.791 2.299,-1.594 3.437,-2.407 0.211,-0.151 0.42,-0.304 0.631,-0.455 0.973,-0.701 1.942,-1.408 2.906,-2.123 0.251,-0.186 0.5,-0.375 0.75,-0.561 0.932,-0.699 1.859,-1.403 2.782,-2.114 0.24,-0.187 0.481,-0.373 0.721,-0.559 0.953,-0.743 1.901,-1.493 2.842,-2.25 0.189,-0.151 0.379,-0.302 0.568,-0.455 1.055,-0.852 2.102,-1.714 3.141,-2.585 l 0.198,-0.166 c 3.452,-2.898 6.819,-5.895 10.102,-8.992 10.53,-9.732 20.119,-20.435 28.64,-31.968 0.154,-0.208 0.306,-0.421 0.46,-0.631 0.865,-1.179 1.72,-2.367 2.564,-3.563 0.242,-0.345 0.481,-0.693 0.723,-1.039 0.744,-1.07 1.48,-2.146 2.207,-3.23 0.29,-0.431 0.576,-0.864 0.862,-1.297 0.667,-1.008 1.325,-2.022 1.975,-3.041 0.314,-0.491 0.626,-0.983 0.936,-1.477 0.611,-0.975 1.214,-1.955 1.81,-2.94 0.323,-0.532 0.646,-1.063 0.965,-1.6 0.573,-0.963 1.135,-1.933 1.695,-2.904 0.319,-0.555 0.641,-1.11 0.956,-1.667 0.552,-0.981 1.093,-1.971 1.631,-2.96 0.301,-0.551 0.606,-1.099 0.901,-1.653 0.568,-1.065 1.121,-2.137 1.672,-3.211 0.247,-0.483 0.503,-0.963 0.748,-1.448 0.7,-1.392 1.386,-2.792 2.058,-4.2 0.081,-0.17 0.168,-0.337 0.248,-0.508 1.25,-2.627 2.45,-5.282 3.602,-7.964 0.117,-0.29 0.237,-0.578 0.353,-0.868 9.881,0.461 17.685,0.895 23.036,1.216 v -0.728 l -0.002,-43.3 c 0.618,-3.075 1.237,-6.16 1.856,-9.255 l 1.79,-8.933 h -10.197 c 1.389,-10.382 2.087,-20.845 2.089,-31.32 0,-6.036 -0.234,-12.067 -0.7,-18.095 -0.653,-8.508 -1.768,-16.974 -3.338,-25.361 -0.348,-0.071 -0.698,-0.137 -1.046,-0.208 -18.013,-3.654 -36.188,-6.518 -54.525,-8.592 l -0.075,-0.008 c -2.586,-0.292 -5.174,-0.568 -7.763,-0.828 -0.111,-0.011 -0.224,-0.021 -0.336,-0.032 -2.502,-0.251 -5.005,-0.486 -7.509,-0.708 -0.248,-0.02 -0.494,-0.039 -0.739,-0.06 -2.374,-0.206 -4.749,-0.399 -7.123,-0.581 -0.392,-0.03 -0.783,-0.053 -1.174,-0.082 -2.232,-0.164 -4.464,-0.321 -6.698,-0.462 -0.567,-0.035 -1.135,-0.063 -1.702,-0.097 -2.061,-0.123 -4.122,-0.245 -6.185,-0.349 -0.76,-0.037 -1.52,-0.065 -2.281,-0.101 -1.87,-0.087 -3.74,-0.176 -5.611,-0.246 -1.066,-0.041 -2.133,-0.067 -3.198,-0.101 -1.569,-0.051 -3.137,-0.109 -4.707,-0.148 -1.458,-0.037 -2.916,-0.056 -4.374,-0.084 -1.181,-0.021 -2.362,-0.051 -3.544,-0.066 -2.643,-0.033 -5.284,-0.05 -7.925,-0.05"
         fill="#ffffff"
         id="path1429" />
      <path
         d="m 290.751,142.703 h -10.196 c 1.391,-10.382 2.089,-20.845 2.091,-31.32 0,-6.037 -0.234,-12.068 -0.702,-18.095 -0.652,-8.508 -1.766,-16.974 -3.337,-25.361 -0.349,-0.072 -0.698,-0.137 -1.046,-0.208 -18.015,-3.655 -36.19,-6.519 -54.525,-8.592 l -0.076,-0.009 c -2.586,-0.292 -5.173,-0.568 -7.762,-0.828 -0.112,-0.011 -0.224,-0.021 -0.336,-0.031 -2.502,-0.251 -5.005,-0.487 -7.511,-0.708 -0.245,-0.021 -0.492,-0.039 -0.737,-0.061 -2.373,-0.206 -4.747,-0.399 -7.123,-0.581 -0.391,-0.029 -0.783,-0.053 -1.175,-0.082 -2.231,-0.164 -4.463,-0.321 -6.697,-0.461 -0.567,-0.036 -1.134,-0.063 -1.701,-0.098 -2.062,-0.123 -4.124,-0.245 -6.186,-0.349 -0.76,-0.037 -1.521,-0.065 -2.28,-0.101 -1.871,-0.086 -3.74,-0.176 -5.612,-0.246 -1.065,-0.04 -2.132,-0.067 -3.198,-0.101 -1.568,-0.051 -3.138,-0.108 -4.706,-0.148 -1.459,-0.037 -2.917,-0.056 -4.375,-0.083 -1.181,-0.022 -2.363,-0.052 -3.544,-0.066 -2.642,-0.034 -5.284,-0.051 -7.925,-0.051 -0.488,0 -0.977,0.005 -1.465,0.009 -0.399,0.005 -0.799,0.008 -1.201,0.01 -2.714,0.012 -5.428,0.04 -8.142,0.086 -1.197,0.02 -2.394,0.057 -3.591,0.083 -1.512,0.035 -3.025,0.062 -4.537,0.108 -1.611,0.047 -3.22,0.113 -4.831,0.174 -1.093,0.04 -2.187,0.072 -3.279,0.119 -1.911,0.082 -3.819,0.182 -5.728,0.28 -0.788,0.041 -1.579,0.073 -2.368,0.117 -2.133,0.117 -4.265,0.255 -6.397,0.394 -0.56,0.037 -1.121,0.067 -1.681,0.105 -2.299,0.157 -4.595,0.328 -6.89,0.513 -0.392,0.031 -0.785,0.057 -1.176,0.089 -2.436,0.196 -4.87,0.409 -7.302,0.638 -0.248,0.023 -0.497,0.042 -0.746,0.065 -2.561,0.24 -5.119,0.497 -7.675,0.77 -0.118,0.013 -0.236,0.023 -0.354,0.035 -2.653,0.284 -5.303,0.584 -7.95,0.9 l -0.063,0.007 c -18.718,2.238 -37.263,5.307 -55.636,9.206 -0.365,0.078 -0.733,0.149 -1.099,0.228 -0.283,1.541 -0.543,3.087 -0.793,4.634 -0.063,0.379 -0.124,0.759 -0.184,1.138 -0.232,1.485 -0.453,2.972 -0.661,4.461 -0.048,0.354 -0.091,0.707 -0.139,1.061 -0.158,1.187 -0.306,2.375 -0.446,3.564 -0.058,0.497 -0.118,0.993 -0.173,1.491 -0.152,1.368 -0.292,2.736 -0.421,4.106 -0.054,0.586 -0.103,1.171 -0.154,1.758 -0.084,0.982 -0.162,1.964 -0.234,2.946 -0.041,0.563 -0.086,1.124 -0.124,1.686 v 0.004 l -0.002,0.048 c -0.091,1.386 -0.171,2.775 -0.237,4.165 -0.03,0.627 -0.054,1.255 -0.08,1.883 -0.041,1.025 -0.075,2.05 -0.104,3.074 -0.014,0.543 -0.031,1.085 -0.041,1.627 -0.033,1.56 -0.054,3.119 -0.054,4.678 0,7.288 0.355,14.758 1.053,22.204 l 0.01,0.085 c 0.284,3.019 0.627,6.028 1.029,9.026 h -1.479 v 0.005 h -6.742 l 0.073,0.36 1.716,8.572 c 0.618,3.095 1.237,6.18 1.856,9.256 v 6.081 l -0.002,37.851 c 5.214,-0.307 12.376,-0.698 21.217,-1.112 0.321,0.786 0.643,1.574 0.974,2.357 0.946,2.166 1.917,4.32 2.93,6.451 0.084,0.178 0.173,0.355 0.258,0.533 9.035,18.886 20.639,36.432 34.481,52.139 0.996,1.131 2.005,2.25 3.025,3.359 0.156,0.169 0.311,0.34 0.467,0.508 1.019,1.105 2.049,2.199 3.09,3.283 0.091,0.094 0.181,0.187 0.271,0.28 2.231,2.317 4.51,4.585 6.839,6.806 0.873,0.847 1.752,1.687 2.638,2.521 0.187,0.175 0.375,0.349 0.563,0.524 0.681,0.638 1.366,1.271 2.055,1.901 0.257,0.235 0.515,0.469 0.773,0.703 0.657,0.594 1.316,1.184 1.979,1.771 0.239,0.211 0.476,0.424 0.717,0.635 0.883,0.775 1.771,1.544 2.666,2.308 l 0.014,0.012 c 0.905,0.771 1.815,1.535 2.732,2.291 0.258,0.212 0.515,0.42 0.773,0.631 0.659,0.54 1.321,1.077 1.986,1.609 0.31,0.249 0.621,0.496 0.932,0.744 0.65,0.515 1.303,1.026 1.958,1.535 0.286,0.221 0.572,0.443 0.858,0.665 0.93,0.713 1.865,1.421 2.804,2.123 12.132,9.032 25.109,16.87 38.749,23.406 1.3,-0.621 2.591,-1.255 3.875,-1.9 0.412,-0.206 0.82,-0.42 1.231,-0.629 0.875,-0.445 1.75,-0.893 2.618,-1.348 0.473,-0.248 0.943,-0.501 1.415,-0.752 0.806,-0.43 1.611,-0.865 2.413,-1.304 0.481,-0.263 0.959,-0.529 1.438,-0.796 0.797,-0.444 1.59,-0.893 2.381,-1.346 0.461,-0.264 0.921,-0.53 1.381,-0.796 0.826,-0.481 1.648,-0.967 2.467,-1.458 0.41,-0.246 0.821,-0.49 1.231,-0.739 0.925,-0.561 1.847,-1.13 2.763,-1.706 0.293,-0.183 0.588,-0.363 0.881,-0.548 2.489,-1.575 4.948,-3.195 7.376,-4.86 l 0.123,-0.085 c 1.152,-0.791 2.297,-1.594 3.435,-2.407 0.212,-0.152 0.421,-0.305 0.632,-0.456 0.974,-0.701 1.942,-1.408 2.906,-2.122 0.25,-0.187 0.5,-0.374 0.751,-0.562 0.931,-0.698 1.858,-1.402 2.78,-2.114 0.241,-0.186 0.482,-0.372 0.722,-0.56 0.954,-0.741 1.901,-1.49 2.842,-2.248 0.19,-0.152 0.379,-0.303 0.567,-0.456 1.055,-0.852 2.102,-1.714 3.142,-2.585 l 0.197,-0.165 c 3.454,-2.899 6.822,-5.896 10.104,-8.993 10.53,-9.732 20.118,-20.435 28.638,-31.966 0.155,-0.21 0.307,-0.423 0.461,-0.632 0.866,-1.18 1.72,-2.368 2.563,-3.564 0.243,-0.345 0.483,-0.693 0.723,-1.038 0.745,-1.071 1.482,-2.147 2.209,-3.229 0.289,-0.432 0.574,-0.865 0.862,-1.299 0.666,-1.008 1.324,-2.021 1.974,-3.04 0.314,-0.491 0.626,-0.984 0.936,-1.478 0.611,-0.974 1.214,-1.953 1.81,-2.938 0.323,-0.533 0.647,-1.066 0.965,-1.601 0.572,-0.963 1.137,-1.932 1.694,-2.906 0.32,-0.554 0.642,-1.108 0.956,-1.666 0.553,-0.981 1.094,-1.97 1.632,-2.96 0.3,-0.551 0.605,-1.099 0.901,-1.654 0.569,-1.063 1.12,-2.136 1.671,-3.209 0.248,-0.485 0.504,-0.964 0.748,-1.448 0.702,-1.392 1.389,-2.792 2.059,-4.201 0.082,-0.17 0.168,-0.337 0.249,-0.507 1.248,-2.628 2.448,-5.283 3.6,-7.965 0.117,-0.29 0.239,-0.577 0.354,-0.867 9.881,0.461 17.687,0.895 23.036,1.216 v -0.728 l -0.002,-43.3 c 0.618,-3.075 1.237,-6.161 1.857,-9.256 z m -251.76,-0.002 -11.926,0.001 -0.156,-1.163 c -0.385,-2.88 -0.718,-5.804 -0.992,-8.697 l -0.011,-0.102 c -0.671,-7.161 -1.012,-14.345 -1.012,-21.357 0,-1.347 0.017,-2.777 0.052,-4.496 0.008,-0.413 0.018,-0.826 0.031,-1.239 l 0.009,-0.327 c 0.027,-0.989 0.061,-1.977 0.1,-2.959 l 0.02,-0.488 c 0.017,-0.445 0.036,-0.891 0.057,-1.329 0.064,-1.338 0.14,-2.677 0.227,-3.998 l 0.123,-1.687 c 0.069,-0.945 0.144,-1.892 0.225,-2.84 l 0.024,-0.269 c 0.04,-0.473 0.08,-0.946 0.126,-1.424 0.122,-1.318 0.257,-2.637 0.402,-3.946 0.043,-0.377 0.087,-0.755 0.132,-1.132 l 0.037,-0.311 c 0.135,-1.143 0.278,-2.287 0.43,-3.43 l 0.133,-1.02 c 0.175,-1.271 0.372,-2.606 0.601,-4.071 16.513,-3.367 33.35,-6.087 50.083,-8.088 l 0.142,-0.016 c 2.63,-0.314 5.258,-0.611 7.811,-0.884 l 0.348,-0.035 c 2.672,-0.284 5.147,-0.531 7.568,-0.759 l 0.737,-0.064 c 2.657,-0.247 5.012,-0.452 7.204,-0.63 l 1.157,-0.086 c 0.936,-0.075 1.793,-0.141 2.601,-0.203 0.011,0.322 0.023,0.643 0.03,0.984 l 0.001,0.079 c 0.003,0.224 0.006,0.453 0.007,0.685 v 0.031 c 0.003,0.501 -10e-4,1.019 -0.013,1.555 v 0.047 c -0.065,8.35 -2.685,16.484 -7.507,23.301 -0.292,0.428 -0.811,1.099 -0.811,1.099 l -10e-4,10e-4 c -0.219,0.287 -0.444,0.573 -0.676,0.857 l -0.142,0.172 c -0.181,0.221 -0.364,0.443 -0.554,0.664 l -0.232,0.269 c -0.164,0.188 -0.328,0.377 -0.497,0.565 -0.091,0.1 -0.183,0.201 -0.275,0.302 -0.162,0.177 -0.326,0.354 -0.494,0.532 -0.097,0.103 -0.197,0.208 -0.297,0.311 -0.167,0.175 -0.338,0.349 -0.511,0.522 -0.102,0.103 -0.205,0.207 -0.311,0.31 -0.178,0.177 -0.36,0.353 -0.544,0.529 -0.102,0.098 -0.204,0.196 -0.308,0.294 -0.204,0.191 -0.412,0.381 -0.622,0.57 -0.089,0.081 -0.175,0.162 -0.267,0.243 -0.292,0.262 -0.59,0.522 -0.896,0.782 l -0.029,0.025 c -0.316,0.269 -0.64,0.537 -0.97,0.804 -0.094,0.075 -0.193,0.151 -0.288,0.227 -0.235,0.188 -0.472,0.374 -0.714,0.561 -0.127,0.098 -0.257,0.195 -0.387,0.292 -0.216,0.164 -0.435,0.328 -0.658,0.491 -0.142,0.104 -0.287,0.208 -0.431,0.311 -0.219,0.156 -0.438,0.312 -0.661,0.467 -0.15,0.104 -0.302,0.208 -0.454,0.313 -0.225,0.154 -0.453,0.307 -0.683,0.458 -0.156,0.104 -0.311,0.207 -0.47,0.309 -0.239,0.155 -0.483,0.309 -0.727,0.463 -0.154,0.097 -0.306,0.194 -0.462,0.29 -0.271,0.167 -0.549,0.333 -0.827,0.499 -0.136,0.082 -0.268,0.163 -0.405,0.243 -0.418,0.245 -0.841,0.488 -1.273,0.729 0,0 -0.209,0.097 -1.423,0.684 -0.467,0.208 -0.931,0.422 -1.395,0.64 -0.46,0.216 -0.917,0.438 -1.371,0.664 -0.536,0.276 -1.368,0.698 -1.368,0.698 -1.666,0.874 -3.294,1.812 -4.881,2.811 l -0.1,0.064 c -0.509,0.321 -1.013,0.648 -1.513,0.98 l -0.025,0.018 c -6.277,4.19 -11.857,9.341 -16.534,15.264 l -0.467,0.595 c -2.378,3.076 -4.502,6.341 -6.35,9.761 -0.052,0.095 -0.105,0.191 -0.156,0.289 -0.237,0.443 -0.469,0.889 -0.698,1.338 -0.066,0.131 -0.134,0.26 -0.199,0.391 -0.277,0.552 -0.546,1.108 -0.81,1.666 z m 232.881,-1.16 -0.155,1.161 -27.714,-0.001 c -0.072,-0.424 -0.167,-0.846 -0.274,-1.268 l -0.025,-0.1 c -0.103,-0.397 -0.224,-0.794 -0.358,-1.188 l -0.057,-0.175 c -0.13,-0.375 -0.274,-0.748 -0.429,-1.121 l -0.099,-0.237 c -0.152,-0.354 -0.315,-0.708 -0.487,-1.059 -0.048,-0.098 -0.096,-0.195 -0.145,-0.292 -0.17,-0.336 -0.348,-0.67 -0.537,-1.003 -0.063,-0.114 -0.129,-0.227 -0.195,-0.342 -0.185,-0.317 -0.377,-0.634 -0.575,-0.949 -0.081,-0.128 -0.165,-0.257 -0.249,-0.385 -0.195,-0.298 -0.393,-0.596 -0.6,-0.892 -0.1,-0.144 -0.204,-0.287 -0.307,-0.43 -0.167,-0.232 -0.337,-0.463 -0.51,-0.693 -0.153,-0.203 -0.309,-0.406 -0.468,-0.609 -0.074,-0.093 -0.145,-0.188 -0.22,-0.281 l -0.902,-1.097 0.002,0.002 -0.159,-0.182 c -0.255,-0.298 -0.513,-0.595 -0.777,-0.891 l -0.166,-0.183 c -1.997,-2.182 -4.115,-4.249 -6.345,-6.192 l -0.11,-0.099 c -0.331,-0.29 -0.663,-0.578 -0.996,-0.864 l -0.214,-0.185 c -0.313,-0.269 -0.629,-0.536 -0.945,-0.8 -0.09,-0.077 -0.181,-0.152 -0.27,-0.229 -0.303,-0.254 -0.607,-0.506 -0.91,-0.755 -0.103,-0.085 -0.206,-0.169 -0.309,-0.254 -0.293,-0.241 -0.587,-0.481 -0.879,-0.718 -0.113,-0.09 -0.224,-0.181 -0.335,-0.27 -0.287,-0.232 -0.572,-0.461 -0.856,-0.689 -0.112,-0.09 -0.224,-0.178 -0.335,-0.268 -0.284,-0.226 -0.566,-0.451 -0.847,-0.673 -0.106,-0.084 -0.211,-0.166 -0.316,-0.25 -1.039,-0.822 -2.056,-1.619 -3.029,-2.381 0,0 -0.948,-0.76 -1.396,-1.103 l -0.058,-0.046 c -0.581,-0.461 -1.14,-0.908 -1.678,-1.343 l -0.068,-0.055 c -0.164,-0.133 -0.32,-0.262 -0.479,-0.394 -0.148,-0.122 -0.298,-0.244 -0.442,-0.364 -0.142,-0.118 -0.279,-0.235 -0.417,-0.351 -0.153,-0.129 -0.305,-0.258 -0.452,-0.384 -0.126,-0.108 -0.247,-0.214 -0.37,-0.32 -0.153,-0.133 -0.302,-0.266 -0.448,-0.396 -0.106,-0.096 -0.211,-0.19 -0.314,-0.283 -0.157,-0.144 -0.307,-0.286 -0.455,-0.427 l -0.241,-0.227 c -0.219,-0.213 -0.428,-0.421 -0.621,-0.624 -0.3,-0.337 -0.598,-0.687 -0.892,-1.048 -0.085,-0.104 -0.169,-0.213 -0.255,-0.32 -0.213,-0.266 -0.425,-0.536 -0.637,-0.815 -0.087,-0.116 -0.175,-0.237 -0.263,-0.355 -0.214,-0.291 -0.427,-0.586 -0.637,-0.888 -0.072,-0.102 -0.144,-0.204 -0.214,-0.308 -0.249,-0.363 -0.495,-0.734 -0.738,-1.113 l -0.085,-0.131 c -1.208,-1.908 -2.287,-3.894 -3.23,-5.945 -0.942,-2.052 -0.438,-0.993 -0.667,-1.503 -0.389,-0.91 -0.755,-1.84 -1.101,-2.789 l -0.023,-0.065 c -0.329,-0.909 -0.637,-1.833 -0.923,-2.771 l -0.065,-0.215 c -0.089,-0.297 -0.176,-0.595 -0.261,-0.894 l -0.058,-0.207 c -0.145,-0.525 -0.283,-1.053 -0.413,-1.584 -0.033,-0.132 -0.067,-0.265 -0.097,-0.398 -0.064,-0.267 -0.127,-0.536 -0.186,-0.807 -0.037,-0.162 -0.071,-0.326 -0.105,-0.49 -0.089,-0.416 -0.172,-0.834 -0.251,-1.254 -0.038,-0.2 -0.075,-0.4 -0.111,-0.602 -0.041,-0.235 -0.08,-0.472 -0.118,-0.707 -0.041,-0.254 -0.079,-0.509 -0.115,-0.764 -0.045,-0.306 -0.087,-0.612 -0.127,-0.919 -0.032,-0.269 -0.066,-0.538 -0.097,-0.808 -0.022,-0.202 -0.043,-0.404 -0.063,-0.606 -0.031,-0.335 -0.061,-0.67 -0.087,-1.005 -0.015,-0.204 -0.029,-0.409 -0.042,-0.611 -0.021,-0.331 -0.039,-0.662 -0.053,-0.993 -0.007,-0.172 -0.014,-0.345 -0.019,-0.518 -0.012,-0.394 -0.021,-0.79 -0.022,-1.183 -0.001,-0.123 0,-0.248 0,-0.371 0.002,-0.379 0.009,-0.759 0.021,-1.138 0.004,-0.148 0.009,-0.297 0.014,-0.446 0.019,-0.435 0.04,-0.869 0.071,-1.302 l 0.016,-0.192 c 0.031,-0.416 0.071,-0.83 0.115,-1.245 0.014,-0.131 0.029,-0.262 0.045,-0.392 0.054,-0.456 0.112,-0.911 0.183,-1.365 l 0.012,-0.075 c 0.068,-0.437 0.145,-0.873 0.23,-1.306 0.023,-0.121 0.047,-0.241 0.071,-0.361 0.093,-0.456 0.19,-0.911 0.301,-1.363 l 0.006,-0.025 c 0.027,-0.11 0.059,-0.218 0.088,-0.327 1.347,0.108 2.766,0.226 4.305,0.359 l 0.731,0.061 c 2.369,0.207 4.792,0.436 7.42,0.698 l 0.318,0.03 c 2.502,0.251 5.077,0.526 7.653,0.817 l 0.102,0.01 c 16.346,1.849 32.783,4.373 48.929,7.516 0.985,6.149 1.724,12.386 2.203,18.611 0.448,5.813 0.675,11.676 0.675,17.423 -0.004,10.086 -0.676,20.161 -2.013,30.158"
         fill="#ffffff"
         id="path1431" />
      <path
         d="m 290.744,134.34 h -0.362 c 0.717,-7.607 1.079,-15.309 1.086,-23.108 0.004,-17.103 -1.789,-34.159 -5.351,-50.886 -24.289,-5.205 -48.861,-8.988 -73.591,-11.328 -19.887,-1.883 -40.027,-2.835 -60.419,-2.854 -0.902,0 -1.801,0.015 -2.703,0.019 -14.389,0.06 -28.66,0.593 -42.812,1.6 -4.074,0.288 -8.135,0.617 -12.184,0.985 -27.565,2.466 -54.939,6.733 -81.947,12.774 -3.405,16.344 -5.12,32.995 -5.12,49.69 0,7.768 0.381,15.447 1.092,23.028 l 0.008,0.08 H 0 l 0.984,4.912 0.984,4.913 1.789,8.931 c 0.566,2.828 1.131,5.648 1.696,8.461 l -0.001,22.215 -0.001,18.762 v 3.452 l -10e-4,2.519 v 6.355 l 2.561,-0.198 6.287,-0.487 0.413,-0.032 c 4.016,-0.233 9.077,-0.51 15.07,-0.806 24.437,52.634 66.87,94.861 119.623,119.041 l 0.007,0.003 c 37.834,-17.343 70.61,-44.08 95.201,-77.658 9.236,-12.604 17.234,-26.07 23.883,-40.211 0.078,-0.167 0.158,-0.335 0.236,-0.503 0.107,-0.23 0.215,-0.459 0.322,-0.688 10.293,0.506 17.868,0.958 22.201,1.233 l 0.004,-0.008 0.605,0.047 c 1.913,0.123 3.076,0.203 3.45,0.229 v -11.708 l -0.002,-41.557 c 0.566,-2.812 1.131,-5.633 1.697,-8.461 l 1.789,-8.931 1.968,-9.825 z m -277.089,30.177 0.001,-3.777 z m 275.324,-13.033 c -0.62,3.094 -1.239,6.179 -1.857,9.256 l 0.003,43.299 v 0.729 c -5.35,-0.321 -13.156,-0.755 -23.037,-1.216 -0.115,0.29 -0.237,0.577 -0.353,0.867 -1.149,2.683 -2.35,5.338 -3.602,7.965 -0.08,0.171 -0.166,0.338 -0.248,0.507 -0.673,1.408 -1.359,2.807 -2.058,4.2 -0.245,0.485 -0.501,0.965 -0.749,1.449 -0.55,1.074 -1.103,2.146 -1.67,3.21 -0.296,0.555 -0.601,1.103 -0.902,1.653 -0.537,0.99 -1.078,1.98 -1.631,2.96 -0.316,0.557 -0.636,1.112 -0.956,1.667 -0.56,0.972 -1.122,1.942 -1.695,2.904 -0.318,0.537 -0.642,1.068 -0.964,1.601 -0.597,0.985 -1.201,1.965 -1.811,2.939 -0.309,0.495 -0.621,0.987 -0.936,1.478 -0.65,1.02 -1.308,2.034 -1.975,3.04 -0.285,0.433 -0.572,0.868 -0.861,1.299 -0.727,1.083 -1.463,2.16 -2.208,3.229 -0.241,0.347 -0.481,0.693 -0.724,1.038 -0.842,1.197 -1.697,2.385 -2.563,3.564 -0.154,0.209 -0.306,0.422 -0.46,0.632 -8.52,11.532 -18.109,22.235 -28.639,31.966 -3.282,3.095 -6.649,6.093 -10.103,8.994 l -0.198,0.165 c -1.04,0.87 -2.087,1.731 -3.141,2.584 -0.189,0.154 -0.379,0.304 -0.568,0.456 -0.942,0.757 -1.889,1.507 -2.842,2.249 -0.24,0.188 -0.481,0.374 -0.721,0.559 -0.923,0.711 -1.85,1.416 -2.782,2.115 -0.25,0.187 -0.499,0.374 -0.75,0.561 -0.962,0.714 -1.93,1.421 -2.906,2.121 -0.21,0.152 -0.42,0.306 -0.631,0.456 -1.138,0.812 -2.284,1.615 -3.436,2.409 l -0.122,0.085 c -2.426,1.665 -4.885,3.285 -7.377,4.859 -0.293,0.185 -0.588,0.365 -0.881,0.55 -0.917,0.573 -1.837,1.144 -2.763,1.704 -0.409,0.249 -0.821,0.493 -1.231,0.739 -0.82,0.49 -1.642,0.976 -2.466,1.458 -0.459,0.267 -0.92,0.532 -1.382,0.797 -0.79,0.453 -1.583,0.901 -2.381,1.345 -0.478,0.267 -0.957,0.533 -1.437,0.796 -0.801,0.44 -1.606,0.875 -2.414,1.305 -0.471,0.25 -0.941,0.503 -1.414,0.751 -0.869,0.457 -1.743,0.903 -2.619,1.349 -0.41,0.208 -0.819,0.421 -1.231,0.628 -1.285,0.644 -2.577,1.277 -3.875,1.9 -13.64,-6.536 -26.617,-14.374 -38.749,-23.406 -0.939,-0.7 -1.873,-1.408 -2.803,-2.123 -0.287,-0.221 -0.573,-0.443 -0.858,-0.666 -0.655,-0.508 -1.308,-1.019 -1.959,-1.534 -0.312,-0.247 -0.621,-0.494 -0.932,-0.743 -0.665,-0.533 -1.327,-1.07 -1.986,-1.61 -0.257,-0.21 -0.515,-0.419 -0.772,-0.632 -0.917,-0.756 -1.828,-1.52 -2.733,-2.29 l -0.014,-0.011 c -0.895,-0.763 -1.784,-1.533 -2.666,-2.31 -0.24,-0.21 -0.478,-0.423 -0.717,-0.634 -0.663,-0.586 -1.322,-1.177 -1.978,-1.771 -0.259,-0.234 -0.517,-0.468 -0.774,-0.703 -0.688,-0.629 -1.373,-1.263 -2.055,-1.9 -0.187,-0.176 -0.377,-0.349 -0.562,-0.525 -0.886,-0.835 -1.766,-1.675 -2.64,-2.521 -2.327,-2.22 -4.606,-4.489 -6.838,-6.805 -0.09,-0.094 -0.18,-0.186 -0.27,-0.281 -1.041,-1.083 -2.071,-2.178 -3.091,-3.282 -0.156,-0.169 -0.311,-0.339 -0.467,-0.51 -1.018,-1.109 -2.026,-2.229 -3.025,-3.357 -13.842,-15.708 -25.446,-33.254 -34.481,-52.14 -0.084,-0.178 -0.174,-0.355 -0.258,-0.533 -1.012,-2.131 -1.984,-4.284 -2.931,-6.451 -0.329,-0.783 -0.654,-1.568 -0.973,-2.357 -8.84,0.414 -16.003,0.805 -21.216,1.112 l 10e-4,-37.85 v -0.377 l 0.001,-5.705 c -0.618,-3.076 -1.237,-6.161 -1.857,-9.256 l -1.716,-8.571 -0.072,-0.361 h 6.742 l -0.001,-0.005 h 1.479 c -0.4,-2.998 -0.743,-6.007 -1.029,-9.027 l -0.009,-0.085 c -0.699,-7.445 -1.054,-14.914 -1.054,-22.203 0,-1.559 0.022,-3.118 0.054,-4.678 0.011,-0.541 0.027,-1.084 0.041,-1.627 0.028,-1.024 0.063,-2.048 0.105,-3.074 0.026,-0.628 0.049,-1.255 0.078,-1.883 0.068,-1.39 0.147,-2.778 0.238,-4.165 l 0.003,-0.048 v -0.004 c 0.036,-0.562 0.082,-1.123 0.123,-1.685 0.072,-0.983 0.151,-1.965 0.234,-2.947 0.051,-0.586 0.101,-1.173 0.154,-1.759 0.129,-1.368 0.27,-2.737 0.421,-4.104 0.055,-0.499 0.116,-0.994 0.173,-1.491 0.14,-1.19 0.289,-2.378 0.447,-3.565 0.047,-0.354 0.091,-0.707 0.139,-1.061 0.205,-1.49 0.425,-2.977 0.661,-4.461 0.06,-0.379 0.12,-0.759 0.183,-1.138 0.251,-1.547 0.511,-3.092 0.793,-4.634 0.366,-0.078 0.733,-0.15 1.1,-0.227 18.343,-3.895 36.888,-6.964 55.635,-9.206 l 0.063,-0.007 c 2.647,-0.317 5.297,-0.617 7.951,-0.9 l 0.353,-0.036 c 2.557,-0.271 5.115,-0.528 7.676,-0.77 0.248,-0.023 0.497,-0.042 0.745,-0.065 2.432,-0.225 4.866,-0.437 7.303,-0.638 0.391,-0.032 0.783,-0.057 1.175,-0.088 2.295,-0.182 4.592,-0.353 6.889,-0.514 0.561,-0.038 1.122,-0.068 1.682,-0.103 2.132,-0.14 4.264,-0.277 6.398,-0.396 0.789,-0.043 1.578,-0.075 2.367,-0.117 1.909,-0.097 3.817,-0.197 5.727,-0.279 1.093,-0.047 2.187,-0.078 3.28,-0.12 1.611,-0.06 3.22,-0.126 4.831,-0.174 1.513,-0.046 3.024,-0.072 4.537,-0.106 1.197,-0.028 2.394,-0.064 3.591,-0.085 2.715,-0.046 5.429,-0.075 8.143,-0.086 0.401,-0.002 0.801,-0.005 1.201,-0.009 0.488,-0.005 0.976,-0.01 1.464,-0.01 2.643,0 5.284,0.017 7.925,0.051 1.182,0.015 2.363,0.045 3.544,0.066 1.458,0.027 2.916,0.047 4.375,0.084 1.568,0.04 3.137,0.096 4.706,0.147 1.067,0.036 2.132,0.061 3.198,0.101 1.872,0.071 3.741,0.16 5.612,0.247 0.759,0.035 1.52,0.063 2.281,0.101 2.062,0.104 4.123,0.225 6.184,0.349 0.568,0.034 1.135,0.061 1.702,0.097 2.234,0.14 4.466,0.299 6.698,0.462 0.391,0.03 0.783,0.052 1.174,0.082 2.376,0.179 4.75,0.372 7.123,0.58 0.246,0.022 0.493,0.04 0.738,0.062 2.505,0.219 5.009,0.455 7.51,0.706 0.113,0.012 0.225,0.021 0.336,0.032 2.59,0.26 5.177,0.536 7.762,0.828 l 0.077,0.009 c 18.307,2.068 36.481,4.932 54.524,8.592 0.349,0.072 0.698,0.136 1.046,0.208 1.571,8.387 2.685,16.853 3.338,25.361 0.463,6.021 0.697,12.052 0.701,18.095 -0.002,10.475 -0.7,20.938 -2.09,31.32 h 10.197 z"
         fill="#ffdd06"
         id="path1433" />
      <path
         d="m 43.141,202.996 c 16.15,-1.672 61.346,-3.377 106.256,-3.476 49.363,-0.108 92.434,2.777 104.483,3.476 -12.38,27.429 -21.542,42.136 -49.631,70.466 -22.785,22.906 -49.789,36.889 -55.768,39.588 -6.678,-2.82 -34.685,-18.286 -57.672,-41.397 C 67.161,247.879 49.463,219.044 43.141,202.996"
         id="path1435" />
    </g>
    <g
       clip-path="url(#f)"
       id="g1441">
      <path
         d="m 209.436,42.146 h 11.691 v 23.392 h -11.691 z"
         fill="url(#a)"
         fill-rule="nonzero"
         transform="rotate(-88.000069,215.28133,53.737107)"
         id="path1439"
         style="fill:url(#a)" />
    </g>
    <g
       clip-path="url(#g)"
       fill-rule="nonzero"
       id="g1911">
      <path
         d="m 92.107,215.62 v 10.066 c -0.098,2.658 -2.257,4.816 -4.915,4.914 h -7.491 v 8.192 H 72.21 v -22.236 l -1.17,-5.851 h 16.152 c 2.658,0.097 4.817,2.256 4.915,4.915 m -7.49,1.638 c -0.009,-0.381 -0.321,-0.693 -0.702,-0.702 h -4.214 v 8.192 h 4.214 c 0.381,-0.009 0.693,-0.321 0.702,-0.702 z"
         fill="#ffdd06"
         id="path1443" />
      <path
         d="m 93.96,210.706 h 8.66 v 28.134 h -7.49 v -22.283 z"
         fill="#ffdd06"
         id="path1445" />
      <path
         d="m 106.019,216.557 -1.17,-5.851 h 8.192 l 6.554,13.809 c 0,0 -0.234,-2.621 -0.234,-5.15 v -8.659 h 7.022 v 28.086 h -7.022 l -6.554,-13.81 c 0,0 0.234,2.623 0.234,5.151 v 8.659 h -7.022 z"
         fill="#ffdd06"
         id="path1447" />
      <path
         d="m 138.229,221.472 h 10.767 v 17.321 h -14.98 c -2.658,-0.097 -4.817,-2.256 -4.916,-4.914 v -18.258 c 0.098,-2.659 2.258,-4.818 4.916,-4.915 h 14.98 l -0.937,5.851 h -10.766 c -0.382,0.009 -0.693,0.321 -0.702,0.703 v 14.98 c 0.009,0.381 0.32,0.693 0.702,0.702 h 4.213 v -5.618 H 139.4 Z"
         fill="#ffdd06"
         id="path1449" />
      <path
         d="m 172.29,210.706 v 28.087 h -14.98 c -2.658,-0.098 -4.818,-2.257 -4.916,-4.915 v -17.321 l -1.171,-5.851 h 8.661 v 21.534 c 0.01,0.381 0.321,0.692 0.703,0.701 h 4.213 v -22.235 z"
         fill="#ffdd06"
         id="path1451" />
      <path
         d="m 174.531,210.706 h 8.659 v 28.134 h -7.489 v -22.283 z"
         fill="#ffdd06"
         id="path1453" />
      <path
         d="m 186.589,216.557 -1.17,-5.851 h 8.192 l 6.554,13.809 c 0,0 -0.235,-2.621 -0.235,-5.15 v -8.659 h 7.023 v 28.086 h -7.023 l -6.554,-13.81 c 0,0 0.235,2.623 0.235,5.151 v 8.659 h -7.022 z"
         fill="#ffdd06"
         id="path1455" />
      <path
         d="m 217.804,216.557 v 4.915 h 8.893 l -1.17,5.852 h -7.723 v 5.618 h 10.064 l -1.171,5.851 h -16.384 v -22.236 l -1.122,-5.851 h 18.677 v 5.851 z"
         fill="#ffdd06"
         id="path1457" />
      <path
         d="m 132.891,256.829 v 15.529 h -4.141 v -12.294 h -1.294 l -0.648,-3.235 z"
         fill="#ffffff"
         id="path1459" />
      <path
         d="m 145.961,269.642 c -0.054,1.469 -1.248,2.663 -2.717,2.716 h -7.377 l -0.647,-3.235 h 6.211 c 0.211,-0.005 0.384,-0.177 0.389,-0.388 v -1.941 c -0.286,0.252 -0.655,0.39 -1.037,0.388 h -3.105 c -1.469,-0.054 -2.663,-1.248 -2.717,-2.718 v -4.917 c 0.053,-1.47 1.248,-2.664 2.717,-2.718 h 5.566 c 1.47,0.054 2.663,1.248 2.717,2.718 z m -4.53,-9.578 h -1.941 c -0.211,0.005 -0.383,0.177 -0.388,0.389 v 3.106 c 0.005,0.211 0.177,0.382 0.388,0.388 h 1.554 c 0.305,0 0.593,-0.144 0.776,-0.388 v -3.106 c -0.005,-0.212 -0.178,-0.384 -0.389,-0.389"
         fill="#ffffff"
         id="path1461" />
      <path
         d="m 159.031,263.119 -1.294,1.293 1.294,1.295 v 3.935 c -0.054,1.47 -1.248,2.664 -2.718,2.717 h -5.565 c -1.47,-0.053 -2.664,-1.247 -2.717,-2.717 v -2.589 h 4.141 v 1.683 c 0.005,0.211 0.177,0.383 0.388,0.388 h 1.941 c 0.211,-0.005 0.383,-0.177 0.388,-0.388 v -2.33 c -0.005,-0.211 -0.177,-0.383 -0.388,-0.388 h -2.976 l -0.648,-3.235 h 3.624 c 0.211,-0.006 0.383,-0.178 0.388,-0.388 v -1.942 c -0.005,-0.211 -0.177,-0.383 -0.388,-0.389 h -1.941 c -0.211,0.006 -0.383,0.178 -0.388,0.389 v 1.294 h -4.141 v -2.199 c 0.053,-1.47 1.247,-2.665 2.717,-2.719 h 5.565 c 1.47,0.054 2.664,1.249 2.718,2.719 z"
         fill="#ffffff"
         id="path1463" />
      <path
         d="m 161.102,259.547 c 0.053,-1.47 1.247,-2.664 2.717,-2.718 h 8.282 l -0.646,3.235 h -5.824 c -0.211,0.005 -0.383,0.177 -0.388,0.389 v 1.94 c 0.285,-0.252 0.654,-0.39 1.035,-0.388 h 3.106 c 1.47,0.054 2.664,1.249 2.717,2.719 v 4.917 c -0.053,1.469 -1.247,2.664 -2.717,2.717 h -5.565 c -1.47,-0.053 -2.664,-1.248 -2.717,-2.717 z m 4.529,9.576 h 1.941 c 0.211,-0.005 0.383,-0.177 0.388,-0.388 v -3.106 c -0.005,-0.211 -0.177,-0.384 -0.388,-0.389 h -1.553 c -0.306,10e-4 -0.593,0.145 -0.776,0.389 v 3.106 c 0.005,0.211 0.177,0.383 0.388,0.388"
         fill="#ffffff"
         id="path1465" />
      <path
         d="m 127.425,279.104 c 0.024,0.682 0.321,1.328 0.823,1.791 0.756,0.459 1.566,0.823 2.411,1.085 l 1.051,3.307 h -2.5 c -1.392,0.896 -0.246,3.963 -0.246,3.963 l 1.315,0.758 h 37.539 c 4.131,0 3.654,-4.453 3.654,-4.453 l -2.498,-5.174 -0.148,-2.619 c 0,0 -18.613,-0.016 -20.363,-0.016 -0.605,0.471 -0.959,1.195 -0.959,1.962 0,0.748 0.337,1.457 0.918,1.929 l 1.69,0.543 1.87,3.008 h -15.657 l -1.116,-3.31 h 2.542 l -2.122,-4.148 h -7.862 c 0,0 -0.394,0.297 -0.342,1.374 m 28.083,1.627 h -2.096 c -0.127,0 -0.231,-0.104 -0.231,-0.231 v -0.81 c 0,-0.126 0.104,-0.231 0.231,-0.231 h 1.791 c 0.096,10e-4 0.182,0.06 0.217,0.149 l 0.305,0.81 c 0.01,0.026 0.015,0.054 0.015,0.081 0,0.127 -0.105,0.232 -0.232,0.232 m 11.126,4.575 h -10.081 c -1.082,0 -1.987,-1.883 -1.66,-2.975 0.028,-0.093 0.115,-0.158 0.212,-0.158 h 10.314 l 1.336,2.947 c 0.007,0.017 0.011,0.036 0.011,0.055 0,0.072 -0.059,0.131 -0.131,0.131 z m -34.911,2.712 v -0.553 c 0,-0.118 0.097,-0.216 0.216,-0.216 h 0.002 l 35.527,0.134 c 0.112,0.001 0.207,0.088 0.216,0.201 l 0.034,0.416 c 0,0.006 0.001,0.011 0.001,0.017 0,0.12 -0.099,0.218 -0.219,0.218 h -35.56 c -0.119,0 -0.217,-0.098 -0.217,-0.217 z m -0.424,-8.61 h 1.949 c 0.141,0 0.261,0.106 0.277,0.246 l 0.066,0.551 c 0.001,0.012 0.002,0.023 0.002,0.034 0,0.153 -0.126,0.278 -0.278,0.278 -0.003,0 -0.006,0 -0.008,0 l -1.951,-0.045 c -0.138,-0.004 -0.254,-0.108 -0.271,-0.245 l -0.063,-0.505 c -0.001,-0.012 -0.002,-0.023 -0.002,-0.035 0,-0.153 0.126,-0.279 0.279,-0.279 z"
         fill="#ffffff"
         id="path1467" />
      <path
         d="m 45.04,150.17 c -2.674,5.787 -5.347,11.639 -8.018,17.557 -0.668,0.018 -1.335,0.036 -2.002,0.053 0.002,-5.871 0.004,-11.741 0.007,-17.61 H 20.208 c 0.668,3.337 1.336,6.664 2.002,9.979 -0.001,12.641 -0.001,25.282 -0.002,37.923 4.266,-0.33 8.532,-0.644 12.8,-0.942 0.003,-6.523 0.005,-13.045 0.007,-19.567 0.669,-0.027 1.334,-0.054 2.002,-0.081 2.666,6.396 5.33,12.723 7.994,18.981 4.802,-0.306 9.606,-0.591 14.41,-0.855 -3.837,-7.69 -7.675,-15.484 -11.513,-23.381 3.849,-7.467 7.699,-14.819 11.548,-22.058 z"
         id="path1469" />
      <path
         d="m 118.938,175.751 c 4.406,-0.049 8.813,-0.089 13.221,-0.118 0.668,-2.993 1.337,-5.984 2.006,-8.974 -5.075,0.019 -10.149,0.047 -15.222,0.085 0.001,-2.523 0.002,-5.045 0.004,-7.566 5.731,-0.024 11.463,-0.041 17.195,-0.051 -0.627,-2.985 -1.254,-5.971 -1.883,-8.957 h -30.045 c 0.638,3.026 1.276,6.049 1.915,9.068 -0.008,11.488 -0.016,22.975 -0.023,34.461 9.349,-0.249 18.699,-0.421 28.051,-0.514 0.67,-3.297 1.338,-6.592 2.007,-9.886 -5.745,0.038 -11.488,0.1 -17.231,0.185 0.002,-2.578 0.003,-5.155 0.005,-7.733"
         id="path1471" />
      <path
         d="m 170.697,150.17 h -30.16 c 0.668,2.982 1.334,5.965 2.001,8.948 -0.001,11.335 -0.003,22.67 -0.004,34.005 4.275,-0.021 8.55,-0.025 12.825,-0.013 0,-5.844 -0.001,-11.689 -0.003,-17.535 4.409,0.008 8.817,0.026 13.224,0.054 0.667,-2.984 1.333,-5.969 2,-8.956 -5.074,-0.023 -10.149,-0.037 -15.224,-0.043 0,-2.505 0,-5.009 -0.001,-7.514 5.742,0.003 11.482,0.013 17.222,0.029 z"
         id="path1473" />
      <path
         d="m 191.174,175.871 c 4.407,0.065 8.814,0.14 13.22,0.225 0.665,-3.031 1.331,-6.065 1.995,-9.104 -5.072,-0.065 -10.146,-0.122 -15.22,-0.171 -0.002,-2.534 -0.004,-5.068 -0.006,-7.601 5.741,0.029 11.482,0.065 17.223,0.106 v -0.036 l -1.911,-9.121 H 176.42 c 0.642,2.996 1.284,5.995 1.926,8.994 0.005,11.394 0.011,22.787 0.016,34.18 9.352,0.159 18.702,0.396 28.049,0.713 0.666,-3.335 1.331,-6.674 1.995,-10.019 -5.741,-0.155 -11.483,-0.287 -17.226,-0.396 -0.002,-2.59 -0.004,-5.18 -0.006,-7.77"
         id="path1475" />
      <path
         d="m 227.563,150.17 h -14.818 c 0.669,3.064 1.339,6.133 2.01,9.205 0.01,11.663 0.02,23.325 0.03,34.987 8.407,0.327 16.812,0.717 25.215,1.172 0.735,-3.45 1.471,-6.909 2.209,-10.377 -4.872,-0.188 -9.744,-0.359 -14.616,-0.515 -0.01,-11.49 -0.02,-22.981 -0.03,-34.472"
         id="path1477" />
      <path
         d="m 273.08,150.233 c -0.309,-0.041 -0.621,-0.062 -0.933,-0.064 h -27.632 c 0.668,3.168 1.338,6.344 2.008,9.527 0.008,12.069 0.017,24.137 0.026,36.205 8.54,0.496 17.077,1.058 25.61,1.687 0.23,0.017 0.459,0.017 0.687,0.012 2.497,-1.99 4.994,-4 7.492,-6.032 0.143,-0.573 0.217,-1.161 0.22,-1.751 v -31.091 c -2.492,-2.866 -4.985,-5.697 -7.478,-8.493 m -7.061,36.114 c -2.222,-0.12 -4.445,-0.237 -6.668,-0.349 -0.005,-8.712 -0.01,-17.424 -0.014,-26.136 2.328,0.032 4.657,0.065 6.988,0.1 0.728,0.818 1.456,1.64 2.183,2.465 0.003,7.299 0.006,14.598 0.008,21.896 -0.832,0.677 -1.665,1.351 -2.497,2.024"
         id="path1479" />
      <path
         d="m 99.778,175.668 0.012,-16.412 v -0.048 l -8.411,-9.039 -0.004,-0.004 H 89.81 v 0.004 H 62.951 c 0.665,3.142 1.331,6.278 1.995,9.405 -0.01,11.914 -0.019,23.827 -0.029,35.74 4.271,-0.22 8.542,-0.424 12.814,-0.611 0.005,-4.33 0.009,-8.66 0.011,-12.99 1.148,-0.036 2.297,-0.07 3.445,-0.104 2.319,4.246 4.639,8.469 6.959,12.668 4.539,-0.17 9.079,-0.322 13.62,-0.456 -2.56,-4.266 -5.121,-8.55 -7.681,-12.852 1.897,-1.776 3.795,-3.543 5.693,-5.301 m -12.814,-5.07 c -0.68,0.561 -1.36,1.124 -2.04,1.688 -2.391,0.047 -4.782,0.097 -7.174,0.15 0.005,-4.33 0.009,-8.66 0.011,-12.989 2.489,-0.023 4.979,-0.044 7.468,-0.065 0.581,0.603 1.162,1.205 1.743,1.806 -0.002,3.137 -0.005,6.274 -0.008,9.41"
         id="path1481" />
      <path
         d="m 116.08,55.661 c 0.01,-0.259 0.023,-0.518 0.036,-0.777 -0.013,0.259 -0.026,0.518 -0.036,0.777"
         fill="#ffffff"
         id="path1483" />
      <path
         d="m 171.705,102.263 -0.014,-0.014 h -0.001 z"
         fill="#ffffff"
         id="path1485" />
      <path
         d="m 116.158,54.149 c 0.017,-0.258 0.037,-0.514 0.058,-0.771 -0.021,0.257 -0.04,0.513 -0.058,0.771"
         fill="#ffffff"
         id="path1487" />
      <path
         d="m 116.392,63.321 c -0.033,-0.264 -0.063,-0.527 -0.091,-0.791 0.028,0.264 0.058,0.528 0.091,0.791"
         fill="#ffffff"
         id="path1489" />
      <path
         d="m 116.872,48.253 c 0.043,-0.248 0.09,-0.494 0.137,-0.742 -0.047,0.248 -0.094,0.494 -0.137,0.742"
         fill="#ffffff"
         id="path1491" />
      <path
         d="m 116.44,51.167 c 0.03,-0.254 0.065,-0.506 0.099,-0.757 -0.034,0.251 -0.069,0.503 -0.099,0.757"
         fill="#ffffff"
         id="path1493" />
      <path
         d="m 116.279,52.651 c 0.024,-0.257 0.051,-0.512 0.079,-0.767 -0.028,0.255 -0.054,0.511 -0.079,0.767"
         fill="#ffffff"
         id="path1495" />
      <path
         d="m 176.404,106.373 0.001,10e-4 -0.004,-0.006 z"
         fill="#ffffff"
         id="path1497" />
      <path
         d="m 116.119,60.247 c -0.014,-0.263 -0.027,-0.526 -0.036,-0.789 0.009,0.263 0.022,0.526 0.036,0.789"
         fill="#ffffff"
         id="path1499" />
      <path
         d="m 116.23,61.784 c -0.024,-0.263 -0.045,-0.527 -0.064,-0.791 0.019,0.264 0.04,0.528 0.064,0.791"
         fill="#ffffff"
         id="path1501" />
      <path
         d="m 194.28,142.703 c -4.026,-6.035 -8.925,-11.439 -14.537,-16.035 -2.236,3.238 -3.946,6.808 -5.067,10.58 -6.675,-14.581 -20.801,-24.413 -36.793,-25.606 4.776,0.676 17.054,7.755 19.655,21.104 -13.462,-17.444 -40.309,-21.992 -60.241,-8.439 0.115,-0.254 0.232,-0.505 0.35,-0.754 -3.402,5.868 -5.502,12.399 -6.157,19.15 z m -81.196,-13.606 -0.006,0.008 -0.036,0.019 z"
         fill="#ffffff"
         id="path1503" />
      <path
         d="m 116.058,58.712 c -0.007,-0.262 -0.01,-0.523 -0.012,-0.784 0.002,0.261 0.005,0.522 0.012,0.784"
         fill="#ffffff"
         id="path1505" />
      <path
         d="m 116.046,57.182 c 0.002,-0.26 0.007,-0.521 0.013,-0.781 -0.006,0.26 -0.011,0.521 -0.013,0.781"
         fill="#ffffff"
         id="path1507" />
      <path
         d="m 116.637,49.699 c 0.037,-0.25 0.078,-0.499 0.118,-0.748 -0.04,0.249 -0.081,0.498 -0.118,0.748"
         fill="#ffffff"
         id="path1509" />
      <path
         d="m 172.263,102.803 c 0.079,0.071 0.163,0.148 0.254,0.231 -0.09,-0.082 -0.175,-0.16 -0.254,-0.231"
         fill="#ffffff"
         id="path1511" />
      <path
         d="m 118.509,41.405 c 0.07,-0.228 0.143,-0.453 0.215,-0.678 -0.072,0.225 -0.145,0.45 -0.215,0.678"
         fill="#ffffff"
         id="path1513" />
      <path
         d="m 118.915,40.13 c 0.075,-0.225 0.152,-0.444 0.228,-0.665 -0.076,0.221 -0.153,0.44 -0.228,0.665"
         fill="#ffffff"
         id="path1515" />
      <path
         d="m 119.342,38.892 c 0.079,-0.223 0.164,-0.44 0.245,-0.659 -0.081,0.219 -0.166,0.436 -0.245,0.659"
         fill="#ffffff"
         id="path1517" />
      <path
         d="m 172.667,103.167 0.149,0.133 z"
         fill="#ffffff"
         id="path1519" />
      <path
         d="m 172.038,102.593 0.161,0.149 z"
         fill="#ffffff"
         id="path1521" />
      <path
         d="m 117.769,44.057 c 0.06,-0.237 0.124,-0.47 0.185,-0.706 -0.061,0.236 -0.125,0.469 -0.185,0.706"
         fill="#ffffff"
         id="path1523" />
      <path
         d="m 118.125,42.714 c 0.066,-0.233 0.133,-0.462 0.201,-0.693 -0.068,0.231 -0.135,0.46 -0.201,0.693"
         fill="#ffffff"
         id="path1525" />
      <path
         d="m 117.439,45.429 c 0.055,-0.24 0.113,-0.479 0.171,-0.718 -0.058,0.239 -0.116,0.478 -0.171,0.718"
         fill="#ffffff"
         id="path1527" />
      <path
         d="m 171.809,102.372 -0.104,-0.109 z"
         fill="#ffffff"
         id="path1529" />
      <path
         d="m 174.429,104.709 0.002,0.002 z"
         fill="#ffffff"
         id="path1531" />
      <path
         d="m 117.14,46.829 c 0.049,-0.245 0.102,-0.488 0.154,-0.73 -0.052,0.242 -0.105,0.485 -0.154,0.73"
         fill="#ffffff"
         id="path1533" />
      <path
         d="m 173.012,103.475 0.116,0.102 z"
         fill="#ffffff"
         id="path1535" />
      <path
         d="m 117.61,69.422 c -0.074,-0.261 -0.146,-0.521 -0.214,-0.781 0.068,0.261 0.14,0.52 0.214,0.781"
         fill="#ffffff"
         id="path1537" />
      <path
         d="m 140.979,93.589 -0.218,-0.084 z"
         fill="#ffffff"
         id="path1539" />
      <path
         d="m 126.502,84.673 -0.005,-0.004 z"
         fill="#ffffff"
         id="path1541" />
      <path
         d="m 137.203,92.004 0.038,0.016 z"
         fill="#ffffff"
         id="path1543" />
      <path
         d="m 127.602,85.706 -0.133,-0.118 z"
         fill="#ffffff"
         id="path1545" />
      <path
         d="m 116.609,64.855 c -0.041,-0.263 -0.082,-0.525 -0.119,-0.788 0.037,0.263 0.078,0.525 0.119,0.788"
         fill="#ffffff"
         id="path1547" />
      <path
         d="m 142.468,94.116 c -0.184,-0.062 -0.365,-0.126 -0.547,-0.19 0.182,0.064 0.363,0.128 0.547,0.19"
         fill="#ffffff"
         id="path1549" />
      <path
         d="m 128.625,86.594 -0.133,-0.108 z"
         fill="#ffffff"
         id="path1551" />
      <path
         d="M 134.473,90.601 134.434,90.58 Z"
         fill="#ffffff"
         id="path1553" />
      <path
         d="m 131.968,89.077 -0.079,-0.05 z"
         fill="#ffffff"
         id="path1555" />
      <path
         d="m 122.366,79.729 -0.014,-0.02 z"
         fill="#ffffff"
         id="path1557" />
      <path
         d="m 130.803,88.276 -0.101,-0.07 z"
         fill="#ffffff"
         id="path1559" />
      <path
         d="m 129.694,87.452 -0.125,-0.094 z"
         fill="#ffffff"
         id="path1561" />
      <path
         d="m 135.82,91.323 -0.03,-0.015 z"
         fill="#ffffff"
         id="path1563" />
      <path
         d="m 123.102,80.763 -0.019,-0.026 z"
         fill="#ffffff"
         id="path1565" />
      <path
         d="m 171.855,102.418 0.114,0.111 z"
         fill="#ffffff"
         id="path1567" />
      <path
         d="m 121.672,78.673 -0.007,-0.011 z"
         fill="#ffffff"
         id="path1569" />
      <path
         d="m 133.189,89.85 -0.055,-0.033 z"
         fill="#ffffff"
         id="path1571" />
      <path
         d="m 117.216,67.909 c -0.062,-0.262 -0.124,-0.524 -0.181,-0.787 0.057,0.263 0.119,0.526 0.181,0.787"
         fill="#ffffff"
         id="path1573" />
      <path
         d="m 147.977,95.686 c -0.553,-0.13 -1.096,-0.267 -1.632,-0.407 0.535,0.141 1.079,0.277 1.632,0.407"
         fill="#ffffff"
         id="path1575" />
      <path
         d="m 116.884,66.386 c -0.053,-0.262 -0.103,-0.525 -0.15,-0.788 0.047,0.264 0.097,0.526 0.15,0.788"
         fill="#ffffff"
         id="path1577" />
      <path
         d="m 118.066,70.921 c -0.084,-0.258 -0.168,-0.515 -0.246,-0.774 0.078,0.259 0.162,0.516 0.246,0.774"
         fill="#ffffff"
         id="path1579" />
      <path
         d="m 120.564,76.757 c -0.135,-0.249 -0.27,-0.498 -0.4,-0.75 0.13,0.252 0.265,0.501 0.4,0.75"
         fill="#ffffff"
         id="path1581" />
      <path
         d="m 121.025,77.599 c 0.205,0.356 0.418,0.709 0.637,1.058 -0.256,-0.408 -0.499,-0.822 -0.736,-1.237 z"
         fill="#ffffff"
         id="path1583" />
      <path
         d="m 144.042,94.622 c -0.249,-0.076 -0.494,-0.153 -0.738,-0.231 0.244,0.079 0.49,0.155 0.738,0.231"
         fill="#ffffff"
         id="path1585" />
      <path
         d="m 145.746,95.115 c -0.323,-0.088 -0.644,-0.176 -0.959,-0.269 0.315,0.093 0.636,0.181 0.959,0.269"
         fill="#ffffff"
         id="path1587" />
      <path
         d="m 119.176,73.878 c -0.108,-0.254 -0.216,-0.508 -0.319,-0.763 0.103,0.255 0.211,0.508 0.319,0.763"
         fill="#ffffff"
         id="path1589" />
      <path
         d="m 119.834,75.329 c -0.122,-0.253 -0.243,-0.504 -0.357,-0.757 0.114,0.253 0.235,0.504 0.357,0.757"
         fill="#ffffff"
         id="path1591" />
      <path
         d="m 118.587,72.409 c -0.096,-0.256 -0.192,-0.512 -0.282,-0.77 0.09,0.258 0.186,0.514 0.282,0.77"
         fill="#ffffff"
         id="path1593" />
      <path
         d="m 121.227,34.365 c 0.167,-0.347 0.335,-0.685 0.505,-1.014 -0.17,0.329 -0.338,0.667 -0.505,1.014"
         fill="#ffffff"
         id="path1595" />
      <path
         d="m 123.881,81.774 -0.02,-0.023 -0.179,-0.235 c 0.329,0.421 0.668,0.837 1.025,1.247 l -0.017,-0.019 c -0.277,-0.32 -0.547,-0.643 -0.809,-0.97"
         fill="#ffffff"
         id="path1597" />
      <path
         d="m 124.955,83.037 c 0.206,0.231 0.411,0.464 0.625,0.692 l -0.012,-0.013 c -0.21,-0.223 -0.411,-0.452 -0.613,-0.679"
         fill="#ffffff"
         id="path1599" />
      <path
         d="m 216.925,45.929 c 1.524,-0.972 3.115,-1.833 4.761,-2.579 3.19,-1.45 6.58,-2.409 10.057,-2.847 11.619,-1.741 17.592,0.603 24.569,2.977 0.118,-1.425 0.364,-3.349 -1.598,-9.2 -4.428,-13.201 -16.998,-21.133 -33.544,-20.53 -4.141,0.25 -8.296,0.029 -12.387,-0.657 -0.946,-0.515 -1.866,-1.079 -2.753,-1.691 -4.243,-2.92 -8.844,-5.284 -13.689,-7.032 l -0.229,-0.075 c -10.042,-3.031 -18.77,-4.393 -26.689,-4.166 -5.622,0.14 -11.197,1.077 -16.557,2.782 -1.599,0.377 -4.584,1.352 -5.731,1.758 -9.291,3.202 -22.95,12.325 -30.913,27.515 -0.5,0.953 -0.981,1.987 -1.442,3.077 -0.712,1.678 -1.267,3.532 -1.978,5.374 -2.51,6.613 -3.778,13.633 -3.739,20.707 0.304,6.742 3.539,30.071 -24.133,45.495 0,0 -0.208,0.098 -1.422,0.685 -15.79,7.035 -28.528,19.529 -35.867,35.18 h 10.525 c 2.915,-7.81 12.583,-20.26 26.788,-29.609 5,-3.312 10.358,-6.048 15.972,-8.158 0.656,-0.296 1.89,-1.085 2.583,-1.365 0.916,-0.492 1.746,-1.132 2.456,-1.893 0.545,-0.55 1.053,-1.128 1.496,-1.652 1.844,-2.174 3.079,-4.799 3.579,-7.606 0.594,2.589 0.596,5.279 0.007,7.87 3.985,-1.703 8.279,-2.563 12.612,-2.527 0.639,-1.542 0.96,-3.197 0.944,-4.866 0,-0.452 -0.013,-0.903 -0.037,-1.354 1.046,0.951 2.017,1.982 2.906,3.082 1.357,-5.121 -3.681,-9.235 -6.038,-13.908 -0.121,-0.177 -0.244,-0.348 -0.363,-0.53 -0.864,-1.314 0.356,5.916 0.356,5.916 -2.945,-3.401 -12.583,-27.64 -0.21,-51.243 7.291,-13.909 19.995,-22.1 27.709,-24.752 2.045,-0.724 4.894,-1.563 5.323,-1.628 l -0.01,0.042 c 4.96,-1.623 10.132,-2.511 15.35,-2.633 7.358,-0.213 15.626,1.134 24.857,3.921 9.543,3.325 14.26,8.457 17.197,8.935 4.534,0.778 9.143,1.034 13.735,0.762 12.82,-0.465 23.13,4.268 27.957,16.839 -5.904,-1.903 -12.165,-2.436 -18.306,-1.558 -18.891,2.358 -29.542,17.19 -31.04,19.753 -13.972,23.92 -5.163,42.04 4.415,54.218 0.439,0.558 -13.198,-8.329 -16.318,-20.612 -1.348,0.825 -2.74,1.574 -4.172,2.242 -0.152,7.593 3.836,13.237 7.654,17.994 -3.783,-2.623 -7.241,-5.687 -10.302,-9.126 0.444,2.592 1.52,5.034 3.133,7.11 23.353,12.535 41.173,18.286 48.291,36.336 h 11.329 c -2.466,-14.304 -25.044,-27.369 -31.673,-34.32 -9.71,-10.911 -17.148,-34.219 -7.384,-50.935 3.174,-4.603 7.243,-8.521 11.964,-11.518"
         fill="#ffffff"
         id="path1601" />
      <path
         d="m 119.789,37.695 c 0.087,-0.224 0.176,-0.442 0.265,-0.661 -0.089,0.219 -0.178,0.437 -0.265,0.661"
         fill="#ffffff"
         id="path1603" />
      <path
         d="m 114.498,101.842 c 0.127,-0.048 0.248,-0.094 0.366,-0.14 -0.116,0.045 -0.243,0.093 -0.366,0.14"
         fill="#ffffff"
         id="path1605" />
      <path
         d="m 167.202,96.204 0.005,0.033 0.175,0.113 c -0.115,-0.092 -0.18,-0.146 -0.18,-0.146"
         fill="#ffffff"
         id="path1607" />
      <path
         d="m 120.735,35.429 c 0.108,-0.243 0.218,-0.476 0.329,-0.712 -0.111,0.236 -0.221,0.469 -0.329,0.712"
         fill="#ffffff"
         id="path1609" />
      <path
         d="m 120.254,36.54 c 0.094,-0.227 0.191,-0.447 0.288,-0.668 -0.097,0.221 -0.194,0.441 -0.288,0.668"
         fill="#ffffff"
         id="path1611" />
      <path
         d="m 121.732,33.351 c -0.17,0.329 -0.338,0.667 -0.504,1.014 -0.056,0.114 -0.11,0.235 -0.164,0.351 -0.111,0.236 -0.221,0.47 -0.33,0.713 -0.065,0.145 -0.128,0.295 -0.191,0.442 -0.097,0.222 -0.195,0.442 -0.289,0.668 -0.068,0.162 -0.132,0.33 -0.2,0.495 -0.088,0.219 -0.178,0.437 -0.264,0.661 -0.069,0.176 -0.134,0.358 -0.202,0.537 -0.082,0.219 -0.166,0.437 -0.246,0.659 -0.067,0.189 -0.132,0.383 -0.199,0.573 -0.076,0.221 -0.154,0.441 -0.228,0.666 -0.066,0.196 -0.127,0.396 -0.192,0.596 -0.071,0.225 -0.145,0.45 -0.214,0.678 -0.062,0.204 -0.122,0.412 -0.182,0.617 -0.068,0.231 -0.136,0.46 -0.201,0.694 -0.06,0.21 -0.115,0.424 -0.172,0.636 -0.062,0.235 -0.125,0.468 -0.185,0.706 -0.055,0.216 -0.107,0.436 -0.159,0.654 -0.058,0.239 -0.117,0.477 -0.171,0.717 -0.05,0.222 -0.098,0.446 -0.145,0.671 -0.053,0.242 -0.106,0.484 -0.154,0.73 -0.046,0.225 -0.088,0.454 -0.131,0.681 -0.047,0.248 -0.094,0.494 -0.137,0.742 -0.041,0.232 -0.079,0.465 -0.117,0.698 -0.04,0.249 -0.08,0.498 -0.118,0.75 -0.035,0.235 -0.066,0.471 -0.098,0.709 -0.035,0.251 -0.069,0.503 -0.1,0.757 -0.028,0.238 -0.055,0.477 -0.081,0.718 -0.028,0.255 -0.054,0.511 -0.079,0.767 -0.022,0.241 -0.043,0.483 -0.063,0.726 -0.02,0.257 -0.041,0.514 -0.058,0.771 -0.016,0.245 -0.029,0.49 -0.041,0.735 -0.014,0.259 -0.027,0.518 -0.037,0.777 -0.009,0.247 -0.015,0.494 -0.021,0.741 -0.006,0.26 -0.011,0.52 -0.013,0.781 -0.002,0.247 -0.001,0.497 10e-4,0.745 0.002,0.261 0.005,0.522 0.011,0.784 0.006,0.249 0.015,0.497 0.024,0.746 0.01,0.263 0.022,0.526 0.037,0.79 0.013,0.249 0.029,0.497 0.046,0.745 0.02,0.265 0.041,0.528 0.065,0.792 0.021,0.248 0.045,0.497 0.071,0.746 0.027,0.264 0.059,0.526 0.091,0.791 0.03,0.248 0.063,0.496 0.098,0.745 0.038,0.263 0.078,0.526 0.119,0.789 0.04,0.248 0.081,0.496 0.125,0.743 0.047,0.262 0.097,0.525 0.149,0.787 0.049,0.246 0.1,0.492 0.152,0.737 0.057,0.263 0.119,0.524 0.181,0.787 0.059,0.244 0.117,0.487 0.181,0.731 0.067,0.261 0.139,0.521 0.213,0.781 0.068,0.242 0.137,0.484 0.209,0.726 0.079,0.258 0.163,0.516 0.246,0.774 0.079,0.239 0.157,0.478 0.24,0.717 0.09,0.258 0.187,0.514 0.282,0.77 0.088,0.236 0.177,0.471 0.27,0.706 0.101,0.255 0.211,0.509 0.319,0.763 0.098,0.232 0.197,0.463 0.3,0.694 0.115,0.254 0.236,0.505 0.358,0.757 0.109,0.226 0.217,0.454 0.33,0.678 0.129,0.252 0.264,0.502 0.4,0.75 0.119,0.223 0.237,0.444 0.362,0.663 0.236,0.416 0.481,0.829 0.736,1.238 l 0.003,0.005 0.007,0.01 c 0.22,0.349 0.445,0.695 0.68,1.037 l 0.013,0.02 c 0.232,0.339 0.471,0.675 0.717,1.008 l 0.018,0.026 c 0.189,0.253 0.385,0.504 0.582,0.753 l 0.179,0.233 0.02,0.025 c 0.262,0.326 0.532,0.649 0.809,0.97 l 0.017,0.018 c 0.081,0.093 0.167,0.183 0.248,0.275 0.202,0.227 0.403,0.455 0.613,0.679 l 0.012,0.013 c 0.297,0.316 0.603,0.63 0.916,0.939 l 0.004,0.004 c 0.315,0.309 0.638,0.614 0.968,0.916 l 0.134,0.118 c 0.291,0.262 0.585,0.523 0.89,0.78 l 0.133,0.108 c 0.309,0.257 0.622,0.513 0.944,0.764 l 0.124,0.094 c 0.331,0.254 0.664,0.506 1.009,0.753 l 0.1,0.071 c 0.355,0.254 0.718,0.504 1.088,0.75 l 0.078,0.05 c 0.381,0.251 0.768,0.5 1.167,0.742 l 0.053,0.032 c 0.407,0.247 0.822,0.49 1.246,0.729 l 0.039,0.021 c 0.431,0.241 0.87,0.477 1.317,0.708 l 0.03,0.014 c 0.453,0.233 0.914,0.461 1.383,0.682 l 0.037,0.016 c 1.12,0.527 2.293,1.021 3.519,1.484 l 0.22,0.085 c 0.308,0.115 0.625,0.226 0.942,0.337 0.181,0.064 0.363,0.128 0.547,0.19 0.275,0.093 0.555,0.185 0.836,0.274 0.244,0.08 0.489,0.156 0.737,0.232 0.248,0.075 0.494,0.151 0.745,0.223 0.316,0.093 0.637,0.182 0.96,0.269 0.199,0.055 0.396,0.111 0.599,0.164 0.536,0.141 1.078,0.277 1.631,0.407 0,0 -6.214,-5.922 -5.268,-7.404 5.942,3.525 12.622,5.622 19.513,6.126 7.454,0.527 14.922,-0.856 21.693,-4.019 1.431,-0.668 2.824,-1.417 4.172,-2.242 3.12,12.283 16.756,21.17 16.318,20.611 -9.578,-12.178 -18.388,-30.298 -4.416,-54.217 1.498,-2.563 12.15,-17.396 31.041,-19.753 6.141,-0.878 12.403,-0.345 18.307,1.558 -4.829,-12.571 -15.138,-17.305 -27.958,-16.839 -4.592,0.272 -9.201,0.016 -13.735,-0.763 -2.938,-0.477 -7.655,-5.609 -17.197,-8.934 -9.231,-2.787 -17.5,-4.134 -24.857,-3.921 -5.218,0.122 -10.389,1.01 -15.35,2.633 -12.388,4.213 -22.634,13.137 -28.508,24.83 m 36.275,2.001 c -2.572,0.351 -5.116,-0.886 -6.43,-3.126 -0.168,-0.316 -0.301,-0.649 -0.395,-0.994 -0.096,-0.355 -0.156,-0.718 -0.18,-1.085 0.046,-1.052 0.507,-2.045 1.283,-2.758 0.01,0.156 0.022,0.31 0.041,0.46 0.092,0.774 0.323,1.525 0.682,2.217 0.168,-1.566 1.11,-2.949 2.506,-3.678 1.135,0.211 2.149,0.844 2.836,1.772 -0.204,0.617 -0.79,1.032 -1.439,1.019 -0.657,0.011 -1.25,-0.407 -1.46,-1.029 -0.131,1.978 1.106,3.808 2.991,4.422 1.42,0.277 2.889,0.168 4.253,-0.316 -1.008,1.692 -2.736,2.834 -4.688,3.096 m 1.622,-4.195 c 0,0 3.267,-0.998 2.75,-2.373 l -0.072,-0.111 c 0.444,0.318 0.904,0.611 1.38,0.879 -0.201,1.388 -2.783,1.843 -4.058,1.605 m -6.766,-7.167 c 2.153,-0.653 4.431,-0.786 6.646,-0.39 0.259,0.009 -4.812,-2.362 -5.467,-2.65 3.762,-0.132 7.444,1.125 10.34,3.528 0.182,0.155 2.588,2.428 7.22,1.753 0.043,0.266 -0.686,2.321 -4.217,1.911 -3.532,-0.411 -5.759,-3.497 -14.522,-4.152 m 43.029,31.738 c -5.725,4.523 -9.212,22.65 -8.433,26.917 -2.019,2.852 -5.622,4.425 -8.906,5.204 -3.523,1.071 -7.289,1.048 -10.799,-0.065 6.892,-2.865 12.329,-8.414 15.053,-15.363 0.342,1.136 0.526,2.312 0.547,3.498 4.693,-15.237 13.019,-20.77 12.538,-20.191 m 45.06,-23.839 h -0.001 c -0.82,-0.169 -1.602,-0.32 -2.368,-0.465 -5.568,-0.797 -14.336,0.098 -21.922,3.06 -0.098,0.026 -0.195,0.052 -0.292,0.076 -0.121,0.049 -0.248,0.082 -0.377,0.098 -11.518,2.98 -21.132,5.47 -32.009,10.443 -6.905,3.082 -7.68,-4.303 3.964,-8.983 l 0.018,-0.009 c 0,0 -4.869,4.458 -4.687,4.804 0.165,-0.61 4.687,-4.75 4.687,-4.75 l -0.018,0.008 c 6.223,-2.673 12.796,-4.44 19.52,-5.246 l -0.04,-0.051 c 4.554,-0.867 9.158,-1.437 13.786,-1.707 3.974,-0.381 7.982,-0.171 11.894,0.623 2.664,0.498 5.286,1.199 7.843,2.098 l 0.003,10e-4 m -42.797,-6.633 c 0.361,0.265 0.005,-3.608 -1.503,-5.736 2.223,-0.899 3.789,2.128 9.092,2.604 4.863,0.23 9.736,0.178 14.593,-0.155 8.787,-0.445 19.11,2.25 23.025,8.737 -18.949,-7.804 -44.118,-1.048 -55.028,2.258 3.617,-1.463 6.194,-4.745 6.761,-8.605 1.093,-0.07 2.177,0.248 3.06,0.897 m -3.649,-11.123 0.169,0.126 c -4.796,-0.29 -9.59,0.617 -13.95,2.639 -4.359,2.023 4.005,-4.216 4.709,-4.268 -14.53,-4.014 -25.69,-2.768 -34.846,-1.168 17.166,-8.114 41.023,-0.943 43.918,2.671 M 130.845,84.25 C 110.425,64.5 121.908,38.591 123.916,35.442 l -10e-4,0.004 c -2.117,6.023 -2.89,12.437 -2.264,18.791 0.893,9.294 4.694,18.074 10.86,25.086 -0.694,-0.423 -3.342,-2.051 -4.535,-2.92 0.397,2.787 1.374,5.461 2.869,7.847"
         id="path1613" />
      <path
         d="m 194.281,142.702 h 22.263 c -2.386,-11.035 -22.253,-23.131 -25.03,-25.106 l -0.023,-0.016 c -4.759,1.744 -8.864,4.919 -11.747,9.088 5.612,4.596 10.511,10 14.537,16.034"
         fill="#d2d2d2"
         id="path1615" />
      <path
         d="m 113.084,129.097 -0.042,0.027 0.036,-0.02 z"
         id="path1617" />
      <path
         d="m 171.681,102.24 0.009,0.009 v -10e-4 l -0.007,-0.008 z"
         id="path1619" />
      <path
         d="m 171.601,26.232 c -4.633,0.673 -7.038,-1.599 -7.22,-1.754 -2.896,-2.403 -6.578,-3.659 -10.34,-3.528 0.656,0.287 5.727,2.659 5.467,2.65 -2.215,-0.397 -4.492,-0.263 -6.646,0.39 8.763,0.656 10.99,3.742 14.522,4.152 3.53,0.41 4.261,-1.645 4.217,-1.91"
         fill="#5b5b5b"
         id="path1621" />
      <path
         d="m 185.434,12.63 c -0.704,0.052 -4.709,4.268 -4.709,4.268 4.36,-2.021 9.154,-2.928 13.95,-2.639 l -0.17,-0.126 c -2.893,-3.614 -26.75,-10.784 -43.918,-2.671 9.157,-1.6 20.317,-2.845 34.847,1.168"
         fill="#5b5b5b"
         id="path1623" />
      <path
         d="m 183.355,75.92 c -0.023,-1.186 -0.207,-2.362 -0.549,-3.498 -2.724,6.948 -8.16,12.497 -15.051,15.362 3.509,1.113 7.274,1.136 10.797,0.066 3.285,-0.779 6.889,-2.352 8.907,-5.205 -0.78,-4.267 2.708,-22.393 8.432,-26.916 0.481,-0.58 -7.845,4.954 -12.536,20.191"
         fill="#5b5b5b"
         id="path1625" />
      <path
         d="m 158.442,32.573 c -1.886,-0.614 -3.123,-2.444 -2.991,-4.422 0.21,0.622 0.802,1.039 1.459,1.028 0.649,0.014 1.236,-0.401 1.439,-1.018 -0.687,-0.928 -1.701,-1.561 -2.836,-1.771 -1.396,0.728 -2.338,2.11 -2.506,3.676 0.94,1.734 2.616,2.953 4.555,3.313 1.358,0.301 2.779,0.134 4.029,-0.474 0.442,-0.242 0.673,-0.371 1.103,-0.648 -1.364,0.484 -2.832,0.593 -4.252,0.316"
         fill="#ffffff"
         id="path1627" />
      <path
         d="m 162.378,28.785 c 0.517,1.374 -2.749,2.372 -2.749,2.372 1.275,0.239 3.858,-0.216 4.058,-1.604 -0.476,-0.267 -0.937,-0.561 -1.381,-0.879 z"
         fill="#ffdd06"
         id="path1629" />
      <path
         d="m 188.334,32.964 c 10.909,-3.306 36.079,-10.062 55.028,-2.257 -3.915,-6.487 -14.238,-9.183 -23.025,-8.738 -4.857,0.333 -9.73,0.385 -14.594,0.156 -5.303,-0.477 -6.869,-3.504 -9.091,-2.604 1.508,2.127 1.864,6 1.503,5.736 -0.883,-0.649 -1.967,-0.967 -3.061,-0.897 -0.566,3.86 -3.144,7.141 -6.76,8.604 m 9.915,-11.885 c 1.629,0.207 3.364,1.761 7.415,2.05 4.571,0.269 9.154,0.231 13.719,-0.114 7.093,-0.543 16.93,1.317 19.835,5.344 -4.608,-2.854 -11.256,-4.959 -22.791,-4.033 -4.97,0.399 -15.727,1.263 -18.178,-3.247"
         fill="#5b5b5b"
         id="path1631" />
      <path
         d="m 216.427,24.326 c 11.535,-0.926 18.183,1.18 22.791,4.034 -2.905,-4.027 -12.742,-5.887 -19.835,-5.345 -4.565,0.346 -9.148,0.384 -13.718,0.115 -4.052,-0.29 -5.788,-1.843 -7.416,-2.051 2.45,4.511 13.208,3.647 18.178,3.247"
         fill="#d2d2d2"
         id="path1633" />
      <path
         d="m 221.176,30.435 0.052,0.003 c -0.061,0.103 -0.13,0.201 -0.206,0.293 -0.098,0.134 -3.48,3.13 -3.597,3.215 -0.246,0.177 -0.501,0.357 -0.765,0.539 7.586,-2.963 16.353,-3.858 21.923,-3.059 -8.359,-1.579 -13.436,-1.733 -17.407,-0.991"
         fill="#5b5b5b"
         id="path1635" />
      <path
         d="m 233.106,29.791 c -3.912,-0.794 -7.92,-1.004 -11.894,-0.624 3.975,-0.248 7.966,-0.039 11.894,0.624"
         fill="#5a5b5d"
         id="path1637" />
      <path
         d="m 216.368,34.56 c -0.125,0.032 -0.251,0.066 -0.377,0.098 0.129,-0.016 0.256,-0.049 0.377,-0.098"
         fill="#5a5b5d"
         id="path1639" />
      <path
         d="m 240.951,31.889 -0.002,-10e-4 z"
         fill="#a8aaab"
         id="path1641" />
      <path
         d="m 240.949,31.888 c -2.557,-0.899 -5.178,-1.6 -7.842,-2.098 2.086,0.454 4.141,1.034 6.156,1.737 -0.218,-0.039 -0.45,-0.07 -0.679,-0.102 0.764,0.145 1.546,0.296 2.368,0.464 z"
         fill="#a8aaab"
         id="path1643" />
      <path
         d="m 240.95,31.889 h 0.001 l -0.003,-10e-4 z"
         fill="#a8aaab"
         id="path1645" />
      <path
         d="M 240.951,31.889 H 240.95 Z"
         fill="#a8aaab"
         id="path1647" />
      <path
         d="m 233.106,29.791 c -3.928,-0.663 -7.919,-0.872 -11.894,-0.624 -4.627,0.27 -9.232,0.841 -13.785,1.707 l 0.039,0.052 c 1.849,-0.238 3.727,-0.417 5.614,-0.521 0.192,-0.01 0.385,-0.013 0.577,-0.022 2.506,-0.125 5.016,-0.107 7.519,0.052 3.972,-0.742 9.048,-0.588 17.407,0.991 0.229,0.031 0.462,0.063 0.68,0.101 -2.015,-0.702 -4.071,-1.282 -6.157,-1.736"
         fill="#d2d2d2"
         id="path1649" />
      <path
         d="m 183.404,40.922 c 4.111,-1.309 8.069,-2.987 12.227,-4.189 4.495,-1.298 9.017,-2.477 13.567,-3.535 l -1.732,-2.272 c -6.724,0.806 -13.297,2.573 -19.519,5.246 l 0.018,-0.007 c 0,0 -4.523,4.139 -4.688,4.749 z"
         fill="#ffdd06"
         id="path1651" />
      <path
         d="m 221.022,30.731 c 0.077,-0.091 0.145,-0.19 0.205,-0.293 l -0.051,-0.003 c -1.163,0.219 -2.307,0.528 -3.421,0.925 1.088,-0.212 2.177,-0.421 3.267,-0.629"
         fill="#ffdd06"
         id="path1653" />
      <path
         d="m 211.939,32.562 c 1.351,-0.303 2.703,-0.583 4.058,-0.855 -0.612,-0.688 -1.435,-1.155 -2.34,-1.325 -0.192,0.009 -0.384,0.013 -0.577,0.023 -1.887,0.104 -3.765,0.283 -5.614,0.52 l 1.732,2.272 c 0.913,-0.214 1.825,-0.429 2.741,-0.635"
         fill="#ffdd06"
         id="path1655" />
      <path
         d="m 217.755,31.36 c 1.114,-0.398 2.258,-0.707 3.421,-0.925 -2.503,-0.159 -5.013,-0.177 -7.518,-0.053 0.904,0.17 1.728,0.637 2.34,1.325 0.585,-0.118 1.171,-0.233 1.757,-0.347"
         fill="#ffdd06"
         id="path1657" />
      <path
         d="m 180.224,45.43 c -2.346,-2.784 1.181,-6.34 7.722,-9.312 -11.644,4.68 -10.869,12.065 -3.965,8.983 -2.187,0.546 -3.316,0.856 -3.757,0.329"
         fill="#f9b117"
         id="path1659" />
      <path
         d="m 216.223,31.956 c -1.851,0.782 -3.674,1.752 -5.813,2.831 l -1.178,-1.544 c -4.559,1.068 -9.092,2.249 -13.6,3.543 -4.158,1.202 -8.117,2.881 -12.227,4.189 -0.111,0.036 -0.147,0.009 -0.128,-0.061 -0.182,-0.346 4.689,-4.804 4.689,-4.804 l -0.019,0.008 c -6.541,2.972 -10.068,6.528 -7.722,9.312 0.44,0.527 1.57,0.218 3.756,-0.329 10.878,-4.972 20.492,-7.463 32.01,-10.442 0.127,-0.033 0.252,-0.066 0.378,-0.099 0.163,-0.05 0.315,-0.098 0.291,-0.075 0.265,-0.181 0.52,-0.362 0.766,-0.539 -0.249,-0.744 -0.66,-1.424 -1.203,-1.99"
         fill="#f9b117"
         id="path1661" />
      <path
         d="m 216.368,34.56 c 0.098,-0.024 0.194,-0.05 0.292,-0.075 0.023,-0.023 -0.128,0.024 -0.292,0.075"
         fill="#f9b117"
         id="path1663" />
      <path
         d="m 216.223,31.956 c 0.543,0.566 0.954,1.246 1.203,1.99 0.117,-0.085 3.499,-3.08 3.596,-3.215 -1.137,0.217 -2.272,0.448 -3.406,0.679 -0.47,0.17 -0.933,0.351 -1.393,0.546"
         fill="#f9b117"
         id="path1665" />
      <path
         d="m 211.939,32.616 c -0.904,0.202 -1.805,0.416 -2.707,0.626 l 1.177,1.545 c 2.14,-1.079 3.963,-2.049 5.814,-2.832 l -0.199,-0.22 c -1.363,0.285 -2.725,0.578 -4.085,0.881"
         fill="#f9b117"
         id="path1667" />
      <path
         d="m 216.025,31.734 0.198,0.222 c 0.46,-0.194 0.923,-0.376 1.393,-0.546 -0.531,0.108 -1.061,0.213 -1.591,0.324"
         fill="#f9b117"
         id="path1669" />
      <path
         d="m 183.404,40.975 c 4.111,-1.308 8.069,-2.987 12.227,-4.189 4.506,-1.302 9.039,-2.483 13.601,-3.544 l -0.034,-0.045 c -4.549,1.065 -9.071,2.244 -13.567,3.535 -4.158,1.203 -8.116,2.881 -12.227,4.189 l -0.127,-0.007 c -0.019,0.07 0.017,0.096 0.127,0.061"
         fill="#f9b117"
         id="path1671" />
      <path
         d="m 217.615,31.41 c 1.134,-0.231 2.27,-0.462 3.407,-0.679 -1.091,0.209 -2.18,0.418 -3.267,0.629 z"
         fill="#f9b117"
         id="path1673" />
      <path
         d="m 216.025,31.734 -0.027,-0.026 c -1.355,0.271 -2.708,0.552 -4.058,0.854 -0.916,0.206 -1.829,0.421 -2.741,0.636 l 0.034,0.045 c 0.901,-0.211 1.803,-0.425 2.707,-0.627 1.359,-0.304 2.72,-0.598 4.085,-0.882"
         fill="#f9b117"
         id="path1675" />
      <path
         d="m 216.025,31.734 c 0.53,-0.111 1.06,-0.216 1.591,-0.324 l 0.139,-0.049 c -0.586,0.113 -1.172,0.229 -1.757,0.347 z"
         fill="#f9b117"
         id="path1677" />
      <path
         d="m 121.651,54.237 c -0.626,-6.354 0.146,-12.768 2.264,-18.791 l 10e-4,-0.003 c -2.009,3.149 -13.491,29.057 6.929,48.807 -1.495,-2.386 -2.473,-5.06 -2.869,-7.847 1.192,0.869 3.841,2.497 4.534,2.92 -6.165,-7.012 -9.966,-15.792 -10.859,-25.086"
         fill="#5b5b5b"
         id="path1679" />
      <path
         d="m 161.827,33.151 c -6.137,2.71 -9.075,-0.136 -8.819,-3.085 -0.359,-0.692 -0.59,-1.443 -0.682,-2.216 -0.019,-0.15 -0.032,-0.304 -0.042,-0.46 -0.775,0.713 -1.237,1.706 -1.282,2.758 0.024,0.367 0.085,0.73 0.18,1.085 0.094,0.345 0.226,0.679 0.395,0.994 0.256,0.436 0.563,0.84 0.913,1.205 1.215,1.268 2.898,1.986 4.654,1.985 2.271,-0.017 4.377,-1.216 5.55,-3.16 -0.253,0.24 -0.539,0.747 -0.867,0.894"
         fill="#5a5b5d"
         id="path1681" />
      <path
         d="m 157.562,33.379 c -1.939,-0.36 -3.614,-1.579 -4.554,-3.313 -0.256,2.948 2.682,5.794 8.819,3.085 0.328,-0.147 0.614,-0.655 0.867,-0.894 -0.429,0.278 -0.661,0.406 -1.103,0.648 -1.25,0.608 -2.671,0.775 -4.029,0.474"
         fill="#5b5b5b"
         id="path1683" />
      <path
         d="m 167.557,97.32 c -0.088,-0.181 -0.164,-0.368 -0.227,-0.56 0.063,0.192 0.139,0.379 0.227,0.56"
         fill="#ffdd06"
         id="path1685" />
      <path
         d="m 168.826,99.234 -0.175,-0.229 z"
         fill="#ffdd06"
         id="path1687" />
      <path
         d="m 167.886,97.92 c -0.072,-0.117 -0.125,-0.227 -0.186,-0.34 0.061,0.113 0.114,0.223 0.186,0.34"
         fill="#ffdd06"
         id="path1689" />
      <path
         d="m 170.108,100.683 -0.23,-0.249 z"
         fill="#ffdd06"
         id="path1691" />
      <path
         d="m 171.435,102.003 0.247,0.238 z"
         fill="#ffdd06"
         id="path1693" />
      <path
         d="m 169.427,99.943 -0.2,-0.234 z"
         fill="#ffdd06"
         id="path1695" />
      <path
         d="m 168.31,98.558 -0.166,-0.249 z"
         fill="#ffdd06"
         id="path1697" />
      <path
         d="m 170.863,101.452 -0.227,-0.231 z"
         fill="#ffdd06"
         id="path1699" />
      <path
         d="m 171.683,102.24 h -0.002 z"
         fill="#ffdd06"
         id="path1701" />
      <path
         d="m 174.432,104.711 -0.002,-0.002 c -0.474,-0.406 -0.915,-0.79 -1.302,-1.132 l -0.116,-0.102 -0.196,-0.175 -0.149,-0.133 -0.149,-0.133 c -0.091,-0.082 -0.175,-0.16 -0.254,-0.231 l -0.065,-0.061 -0.16,-0.149 -0.07,-0.066 -0.113,-0.109 -0.046,-0.046 -0.104,-0.109 -0.016,-0.014 -0.072,0.007 c 1.38,1.297 3.009,2.683 4.788,4.117 l -0.005,-0.004 c -0.67,-0.553 -1.344,-1.122 -1.969,-1.658"
         fill="#d2d2d2"
         id="path1703" />
      <path
         d="m 171.681,102.24 -0.074,0.007 0.011,0.01 0.072,-0.008 z"
         fill="#d2d2d2"
         id="path1705" />
      <path
         d="m 167.219,96.467 c -0.035,-0.083 -0.056,-0.172 -0.062,-0.263 l 0.05,0.032 -0.006,-0.032 c 0,0 0.066,0.054 0.181,0.145 5.925,3.859 11.619,7.12 17.018,10.018 -1.614,-2.076 -2.69,-4.519 -3.134,-7.11 3.061,3.439 6.519,6.503 10.303,9.126 -3.819,-4.757 -7.807,-10.401 -7.655,-17.994 -4.865,2.276 -10.108,3.637 -15.466,4.016 -1.235,0.521 -1.532,1.24 -1.229,2.062"
         fill="#d2d2d2"
         id="path1707" />
      <path
         d="M 130.148,96.401 C 135.6,92.927 125.7,92.86 117.433,80.716 c 2.358,4.672 7.396,8.787 6.039,13.908 -0.888,-1.1 -1.86,-2.131 -2.906,-3.082 0.024,0.45 0.036,0.902 0.036,1.354 0.016,1.669 -0.305,3.324 -0.943,4.866 1.747,0.015 3.484,0.266 5.164,0.747 3.028,-1.325 5.083,-1.954 5.325,-2.108"
         fill="#d2d2d2"
         id="path1709" />
      <path
         d="m 114.498,101.842 c 0.123,-0.047 0.25,-0.095 0.366,-0.14 l 0.122,-0.047 c 1.079,-0.417 2.101,-0.782 3.067,-1.106 0.648,-0.859 1.188,-1.795 1.607,-2.786 -4.333,-0.037 -8.628,0.823 -12.612,2.527 0.589,-2.591 0.586,-5.281 -0.008,-7.87 -0.499,2.807 -1.734,5.432 -3.579,7.606 -0.443,0.523 -0.951,1.102 -1.496,1.652 -0.71,0.761 -1.539,1.401 -2.455,1.893 -0.694,0.279 -1.927,1.069 -2.583,1.365 -5.614,2.109 -10.972,4.846 -15.973,8.157 -14.204,9.349 -23.872,21.8 -26.787,29.609 h 16.471 c 4.243,-26.97 34.827,-37.429 43.86,-40.86"
         fill="#5b5b5b"
         id="path1711" />
      <path
         d="m 123.754,98.987 c 0.368,-0.168 0.725,-0.328 1.069,-0.478 -1.68,-0.481 -3.417,-0.732 -5.164,-0.747 -0.419,0.991 -0.959,1.927 -1.607,2.786 1.864,-0.645 3.769,-1.166 5.702,-1.561"
         fill="#5a5b5d"
         id="path1713" />
      <path
         d="m 118.065,101.953 c 1.949,-1.146 3.791,-2.085 5.422,-2.842 -1.795,0.66 -3.518,1.501 -5.141,2.512 -0.086,0.117 -0.18,0.227 -0.281,0.33"
         id="path1715" />
      <path
         d="m 70.999,142.702 h 20.492 c 0.655,-6.751 2.755,-13.282 6.157,-19.15 3.719,-7.684 9.393,-14.256 16.452,-19.056 1.479,-1.144 2.807,-2.471 3.953,-3.948 -0.967,0.325 -1.988,0.69 -3.066,1.106 l -0.124,0.047 c -0.118,0.046 -0.238,0.092 -0.365,0.141 -8.881,3.388 -35.268,12.662 -43.499,40.86"
         id="path1717" />
      <path
         d="m 118.346,101.622 c 1.624,-1.01 3.346,-1.851 5.141,-2.511 l 0.267,-0.124 c -1.933,0.395 -3.837,0.917 -5.701,1.562 -1.146,1.477 -2.475,2.804 -3.954,3.947 1.35,-0.942 2.681,-1.788 3.966,-2.544 0.082,-0.1 0.308,-0.326 0.281,-0.33"
         id="path1719" />
      <path
         d="m 114.498,101.842 c -9.033,3.431 -39.617,13.89 -43.86,40.86 h 0.361 c 8.231,-28.198 34.618,-37.472 43.499,-40.86"
         id="path1721" />
      <path
         d="m 118.053,100.549 c -0.967,0.324 -1.988,0.689 -3.067,1.106 l -0.122,0.047 0.122,-0.047 c 1.079,-0.417 2.1,-0.781 3.067,-1.106"
         id="path1723" />
      <path
         d="m 123.754,98.987 c -1.933,0.395 -3.838,0.917 -5.702,1.561 1.864,-0.644 3.769,-1.166 5.702,-1.561"
         id="path1725" />
      <g
         fill="#ffdd06"
         id="g1859">
        <path
           d="m 130.148,96.401 c -1.603,0.868 -3.289,1.574 -5.033,2.108 l 0.017,-0.001 -0.124,0.056 c 0.176,0.055 0.356,0.104 0.529,0.166 -0.362,0.027 -0.785,0.081 -1.26,0.16 h -0.001 c -2.098,0.928 -4.146,1.967 -6.134,3.112 -2.162,1.243 -4.23,2.644 -6.185,4.193 -5.778,4.875 -10.626,10.756 -14.31,17.357 -0.118,0.25 -0.235,0.5 -0.35,0.754 19.932,-13.552 46.779,-9.005 60.241,8.44 -2.6,-13.349 -14.88,-20.429 -19.655,-21.104 15.992,1.193 30.118,11.024 36.793,25.605 1.122,-3.771 2.832,-7.341 5.067,-10.579 -3.759,-3.108 -7.907,-5.713 -12.339,-7.749 -0.81,-0.358 -1.035,-1.248 -0.463,-1.592 0.069,-0.082 0.153,-0.149 0.248,-0.199 5.387,-2.719 11.286,-4.276 17.313,-4.569 -2.156,-1.575 -4.294,-3.172 -6.295,-4.733 l -0.011,-0.008 c -0.557,-0.436 -1.171,-0.933 -1.79,-1.445 l -0.002,-0.001 c -1.778,-1.433 -3.408,-2.819 -4.786,-4.116 l -0.011,-0.01 0.074,-0.005 -0.247,-0.238 c -0.194,-0.186 -0.388,-0.37 -0.572,-0.551 l -0.226,-0.231 c -0.179,-0.18 -0.361,-0.362 -0.529,-0.538 l -0.229,-0.249 c -0.154,-0.165 -0.31,-0.331 -0.451,-0.491 l -0.2,-0.235 c -0.137,-0.159 -0.277,-0.32 -0.401,-0.475 l -0.176,-0.229 c -0.116,-0.15 -0.237,-0.301 -0.34,-0.446 l -0.166,-0.249 c -0.088,-0.13 -0.182,-0.263 -0.259,-0.389 -0.071,-0.117 -0.124,-0.227 -0.185,-0.34 l -0.143,-0.26 c -0.088,-0.181 -0.165,-0.368 -0.228,-0.56 -0.032,-0.097 -0.075,-0.198 -0.11,-0.293 -0.304,-0.822 -0.006,-1.541 1.228,-2.062 -2.073,0.148 -4.154,0.149 -6.227,0.002 -6.89,-0.504 -13.57,-2.601 -19.511,-6.125 -0.947,1.483 5.267,7.403 5.267,7.403 -0.553,-0.129 -1.096,-0.266 -1.631,-0.407 -0.203,-0.052 -0.399,-0.109 -0.599,-0.163 -0.323,-0.089 -0.645,-0.177 -0.96,-0.269 -0.251,-0.073 -0.498,-0.149 -0.744,-0.224 -0.249,-0.076 -0.495,-0.152 -0.738,-0.231 -0.282,-0.09 -0.561,-0.181 -0.836,-0.275 -0.184,-0.062 -0.365,-0.126 -0.547,-0.189 -0.317,-0.112 -0.633,-0.223 -0.943,-0.338 l -0.219,-0.084 c -1.228,-0.463 -2.401,-0.957 -3.519,-1.484 l -0.03,-0.014 -0.006,-0.002 c -0.471,-0.222 -0.932,-0.449 -1.384,-0.682 l -0.03,-0.015 c -0.448,-0.23 -0.887,-0.466 -1.317,-0.708 l -0.039,-0.021 c -0.424,-0.238 -0.839,-0.481 -1.246,-0.729 l -0.054,-0.032 c -0.397,-0.242 -0.786,-0.489 -1.166,-0.741 l -0.079,-0.05 c -0.37,-0.247 -0.732,-0.497 -1.086,-0.75 l -0.101,-0.071 c -0.344,-0.247 -0.679,-0.5 -1.009,-0.754 l -0.124,-0.094 c -0.322,-0.252 -0.636,-0.507 -0.944,-0.764 l -0.133,-0.108 c -0.304,-0.257 -0.6,-0.518 -0.891,-0.78 l -0.133,-0.117 c -0.33,-0.301 -0.653,-0.607 -0.967,-0.916 l -0.005,-0.005 c -0.313,-0.309 -0.618,-0.622 -0.915,-0.938 l -0.001,-0.001 c -0.215,-0.227 -0.419,-0.461 -0.626,-0.692 -0.081,-0.091 -0.167,-0.182 -0.247,-0.274 v -0.001 c -0.356,-0.409 -0.694,-0.826 -1.025,-1.245 -0.197,-0.25 -0.394,-0.5 -0.581,-0.753 v -10e-4 l -0.019,-0.026 c -0.246,-0.333 -0.485,-0.668 -0.716,-1.007 v -0.001 l -0.015,-0.02 -0.001,-0.002 c -0.234,-0.341 -0.459,-0.686 -0.678,-1.033 v -0.001 l -0.007,-0.011 -0.001,-0.001 -0.002,-0.004 c -0.22,-0.349 -0.433,-0.702 -0.637,-1.058 l -0.099,-0.179 c -0.126,-0.22 -0.243,-0.441 -0.362,-0.663 -0.135,-0.249 -0.271,-0.499 -0.399,-0.75 -0.115,-0.225 -0.222,-0.453 -0.331,-0.679 -0.121,-0.252 -0.244,-0.503 -0.358,-0.756 -0.104,-0.231 -0.201,-0.463 -0.301,-0.695 -0.108,-0.254 -0.216,-0.507 -0.318,-0.763 -0.093,-0.235 -0.181,-0.47 -0.27,-0.706 -0.096,-0.256 -0.192,-0.512 -0.282,-0.769 -0.083,-0.24 -0.162,-0.478 -0.24,-0.718 -0.084,-0.258 -0.167,-0.516 -0.246,-0.774 -0.073,-0.242 -0.142,-0.483 -0.209,-0.727 -0.075,-0.259 -0.145,-0.519 -0.214,-0.78 -0.062,-0.243 -0.121,-0.487 -0.18,-0.731 -0.062,-0.262 -0.124,-0.524 -0.18,-0.787 -0.054,-0.244 -0.104,-0.491 -0.152,-0.736 -0.053,-0.263 -0.103,-0.525 -0.149,-0.788 -0.045,-0.247 -0.086,-0.494 -0.125,-0.743 -0.043,-0.263 -0.083,-0.526 -0.12,-0.789 -0.035,-0.249 -0.067,-0.497 -0.098,-0.745 -0.032,-0.264 -0.064,-0.527 -0.09,-0.791 -0.026,-0.248 -0.051,-0.497 -0.073,-0.746 -0.023,-0.263 -0.045,-0.528 -0.063,-0.791 -0.018,-0.248 -0.034,-0.497 -0.048,-0.746 -0.014,-0.264 -0.027,-0.527 -0.037,-0.79 -0.009,-0.249 -0.018,-0.497 -0.023,-0.745 -0.006,-0.263 -0.01,-0.523 -0.012,-0.784 -0.001,-0.249 -0.002,-0.498 0,-0.746 0.002,-0.26 0.006,-0.521 0.012,-0.781 0.006,-0.247 0.013,-0.493 0.022,-0.741 0.01,-0.259 0.022,-0.518 0.036,-0.778 0.013,-0.244 0.027,-0.488 0.043,-0.733 0.016,-0.258 0.036,-0.515 0.057,-0.771 0.019,-0.244 0.04,-0.486 0.063,-0.727 0.024,-0.257 0.051,-0.512 0.078,-0.767 0.027,-0.24 0.053,-0.479 0.082,-0.718 0.031,-0.253 0.065,-0.505 0.099,-0.756 0.033,-0.238 0.065,-0.475 0.099,-0.711 0.037,-0.251 0.078,-0.5 0.119,-0.749 0.037,-0.233 0.075,-0.465 0.115,-0.697 0.044,-0.248 0.091,-0.495 0.138,-0.742 0.043,-0.227 0.084,-0.456 0.13,-0.682 0.05,-0.246 0.101,-0.488 0.154,-0.73 0.049,-0.225 0.095,-0.448 0.146,-0.671 0.055,-0.24 0.113,-0.479 0.17,-0.717 0.053,-0.219 0.105,-0.438 0.159,-0.654 0.06,-0.238 0.124,-0.47 0.186,-0.705 0.057,-0.213 0.113,-0.427 0.171,-0.638 0.066,-0.233 0.134,-0.462 0.201,-0.693 0.062,-0.205 0.12,-0.413 0.182,-0.617 0.07,-0.228 0.144,-0.453 0.214,-0.678 0.066,-0.2 0.127,-0.399 0.192,-0.596 0.076,-0.225 0.153,-0.444 0.229,-0.666 0.066,-0.19 0.132,-0.384 0.199,-0.572 0.081,-0.223 0.164,-0.441 0.246,-0.66 0.067,-0.179 0.133,-0.36 0.201,-0.537 0.088,-0.224 0.177,-0.442 0.265,-0.661 0.067,-0.165 0.132,-0.332 0.2,-0.494 0.094,-0.227 0.192,-0.447 0.288,-0.668 0.065,-0.148 0.127,-0.298 0.192,-0.443 0.109,-0.243 0.219,-0.476 0.33,-0.712 0.054,-0.117 0.108,-0.238 0.164,-0.352 0.165,-0.347 0.334,-0.685 0.504,-1.014 5.874,-11.693 16.119,-20.617 28.507,-24.83 l 0.01,-0.041 c -0.429,0.064 -3.278,0.903 -5.323,1.627 -7.713,2.652 -20.418,10.843 -27.71,24.752 -12.372,23.603 -2.735,47.842 0.21,51.243 0,0 -1.219,-7.23 -0.355,-5.916 0.12,0.182 0.242,0.353 0.362,0.53 8.266,12.144 18.168,12.212 12.715,15.685 m -9.598,18.759 -0.033,0.017 0.041,-0.023 z m 17.619,-16.465 c -1.871,1.35 -3.487,3.022 -4.772,4.939 5.266,1.952 10.328,4.415 15.113,7.353 -6.114,-1.672 -12.339,-2.913 -18.627,-3.714 2.868,2.342 5.206,5.266 6.859,8.58 -6.674,-4.741 -15.067,-6.407 -23.045,-4.573 6.633,-6.659 15.197,-11.063 24.472,-12.585"
           id="path1727" />
        <path
           d="m 135.791,91.308 c -0.448,-0.23 -0.887,-0.466 -1.317,-0.708 0.43,0.241 0.869,0.477 1.317,0.708"
           id="path1729" />
        <path
           d="m 134.434,90.579 c -0.424,-0.238 -0.839,-0.481 -1.245,-0.729 0.406,0.248 0.821,0.491 1.245,0.729"
           id="path1731" />
        <path
           d="m 144.787,94.846 c -0.251,-0.073 -0.498,-0.148 -0.745,-0.223 0.247,0.075 0.494,0.151 0.745,0.223"
           id="path1733" />
        <path
           d="m 143.304,94.391 c -0.281,-0.09 -0.56,-0.181 -0.835,-0.275 0.276,0.094 0.555,0.185 0.835,0.275"
           id="path1735" />
        <path
           d="m 137.204,92.004 c -0.47,-0.221 -0.931,-0.448 -1.384,-0.681 0.452,0.233 0.913,0.461 1.384,0.681"
           id="path1737" />
        <path
           d="m 141.922,93.926 c -0.317,-0.111 -0.634,-0.222 -0.943,-0.337 0.31,0.115 0.626,0.226 0.943,0.337"
           id="path1739" />
        <path
           d="m 146.345,95.279 c -0.202,-0.052 -0.399,-0.109 -0.599,-0.164 0.2,0.055 0.397,0.112 0.599,0.164"
           id="path1741" />
        <path
           d="m 140.76,93.505 c -1.227,-0.463 -2.4,-0.957 -3.52,-1.484 1.12,0.527 2.293,1.021 3.52,1.484"
           id="path1743" />
        <path
           d="m 116.082,59.458 c -0.01,-0.249 -0.018,-0.497 -0.024,-0.746 0.006,0.249 0.014,0.498 0.024,0.746"
           id="path1745" />
        <path
           d="m 116.059,56.401 c 0.006,-0.247 0.012,-0.493 0.021,-0.741 -0.009,0.248 -0.015,0.494 -0.021,0.741"
           id="path1747" />
        <path
           d="m 116.046,57.928 c -0.002,-0.249 -0.002,-0.498 -0.001,-0.746 -0.001,0.249 -0.001,0.497 0.001,0.746"
           id="path1749" />
        <path
           d="m 116.116,54.883 c 0.013,-0.244 0.025,-0.489 0.041,-0.734 -0.016,0.245 -0.028,0.489 -0.041,0.734"
           id="path1751" />
        <path
           d="m 116.217,53.378 c 0.019,-0.243 0.039,-0.485 0.062,-0.727 -0.022,0.242 -0.043,0.484 -0.062,0.727"
           id="path1753" />
        <path
           d="m 116.539,50.41 c 0.033,-0.238 0.063,-0.475 0.099,-0.711 -0.036,0.237 -0.066,0.473 -0.099,0.711"
           id="path1755" />
        <path
           d="m 116.358,51.884 c 0.026,-0.24 0.053,-0.479 0.082,-0.718 -0.029,0.239 -0.056,0.478 -0.082,0.718"
           id="path1757" />
        <path
           d="m 116.735,65.598 c -0.044,-0.247 -0.085,-0.494 -0.126,-0.743 0.041,0.249 0.082,0.496 0.126,0.743"
           id="path1759" />
        <path
           d="m 117.035,67.123 c -0.053,-0.245 -0.103,-0.491 -0.151,-0.737 0.048,0.246 0.098,0.492 0.151,0.737"
           id="path1761" />
        <path
           d="m 117.397,68.641 c -0.063,-0.244 -0.122,-0.488 -0.18,-0.731 0.058,0.243 0.117,0.487 0.18,0.731"
           id="path1763" />
        <path
           d="m 116.49,64.067 c -0.035,-0.249 -0.067,-0.497 -0.098,-0.745 0.031,0.248 0.063,0.496 0.098,0.745"
           id="path1765" />
        <path
           d="m 116.301,62.53 c -0.025,-0.249 -0.05,-0.498 -0.071,-0.746 0.021,0.248 0.046,0.497 0.071,0.746"
           id="path1767" />
        <path
           d="m 116.166,60.993 c -0.018,-0.248 -0.033,-0.497 -0.047,-0.746 0.014,0.25 0.029,0.498 0.047,0.746"
           id="path1769" />
        <path
           d="m 118.327,42.021 c 0.06,-0.205 0.12,-0.413 0.182,-0.616 -0.062,0.203 -0.122,0.411 -0.182,0.616"
           id="path1771" />
        <path
           d="m 119.588,38.233 c 0.067,-0.179 0.132,-0.361 0.201,-0.538 -0.069,0.177 -0.134,0.359 -0.201,0.538"
           id="path1773" />
        <path
           d="m 118.723,40.726 c 0.064,-0.2 0.126,-0.4 0.192,-0.596 -0.066,0.197 -0.128,0.396 -0.192,0.596"
           id="path1775" />
        <path
           d="m 120.054,37.034 c 0.067,-0.164 0.132,-0.332 0.2,-0.494 -0.068,0.162 -0.133,0.33 -0.2,0.494"
           id="path1777" />
        <path
           d="m 119.143,39.465 c 0.067,-0.19 0.131,-0.384 0.199,-0.573 -0.068,0.189 -0.132,0.383 -0.199,0.573"
           id="path1779" />
        <path
           d="m 121.064,34.717 c 0.055,-0.116 0.109,-0.237 0.164,-0.351 -0.055,0.114 -0.109,0.235 -0.164,0.351"
           id="path1781" />
        <path
           d="m 120.542,35.872 c 0.063,-0.147 0.127,-0.298 0.192,-0.443 -0.065,0.145 -0.129,0.296 -0.192,0.443"
           id="path1783" />
        <path
           d="m 117.009,47.511 c 0.043,-0.227 0.084,-0.456 0.131,-0.682 -0.047,0.226 -0.088,0.455 -0.131,0.682"
           id="path1785" />
        <path
           d="m 116.755,48.95 c 0.038,-0.232 0.076,-0.465 0.116,-0.697 -0.04,0.232 -0.078,0.465 -0.116,0.697"
           id="path1787" />
        <path
           d="m 117.294,46.099 c 0.048,-0.224 0.095,-0.448 0.146,-0.671 -0.051,0.223 -0.098,0.447 -0.146,0.671"
           id="path1789" />
        <path
           d="m 117.61,44.711 c 0.052,-0.218 0.104,-0.438 0.159,-0.654 -0.055,0.216 -0.107,0.435 -0.159,0.654"
           id="path1791" />
        <path
           d="m 117.819,70.147 c -0.073,-0.241 -0.142,-0.483 -0.209,-0.725 0.067,0.242 0.136,0.484 0.209,0.725"
           id="path1793" />
        <path
           d="m 117.954,43.352 c 0.057,-0.212 0.113,-0.426 0.171,-0.637 -0.058,0.211 -0.114,0.425 -0.171,0.637"
           id="path1795" />
        <path
           d="m 128.492,86.486 c -0.304,-0.257 -0.599,-0.517 -0.89,-0.78 0.29,0.263 0.587,0.523 0.89,0.78"
           id="path1797" />
        <path
           d="m 118.305,71.639 c -0.083,-0.239 -0.162,-0.478 -0.239,-0.718 0.077,0.24 0.157,0.479 0.239,0.718"
           id="path1799" />
        <path
           d="m 118.857,73.114 c -0.093,-0.235 -0.181,-0.47 -0.269,-0.706 0.088,0.237 0.176,0.471 0.269,0.706"
           id="path1801" />
        <path
           d="m 119.477,74.572 c -0.104,-0.231 -0.202,-0.462 -0.301,-0.694 0.099,0.232 0.197,0.463 0.301,0.694"
           id="path1803" />
        <path
           d="m 125.581,83.73 c 0.297,0.317 0.602,0.63 0.916,0.938 -0.314,-0.309 -0.62,-0.622 -0.917,-0.938 z"
           id="path1805" />
        <path
           d="m 120.164,76.007 c -0.114,-0.225 -0.221,-0.452 -0.33,-0.678 0.109,0.226 0.216,0.453 0.33,0.678"
           id="path1807" />
        <path
           d="m 131.89,89.026 c -0.371,-0.245 -0.733,-0.496 -1.087,-0.749 0.354,0.254 0.717,0.504 1.087,0.749"
           id="path1809" />
        <path
           d="m 123.102,80.764 c 0.187,0.253 0.383,0.504 0.58,0.753 -0.197,-0.249 -0.393,-0.5 -0.581,-0.753 z"
           id="path1811" />
        <path
           d="m 129.569,87.359 c -0.322,-0.251 -0.635,-0.507 -0.944,-0.764 0.309,0.257 0.622,0.513 0.944,0.764"
           id="path1813" />
        <path
           d="m 122.366,79.73 c 0.231,0.339 0.47,0.675 0.717,1.007 -0.248,-0.332 -0.487,-0.669 -0.717,-1.008 z"
           id="path1815" />
        <path
           d="m 124.708,82.764 c 0.079,0.092 0.166,0.182 0.247,0.274 -0.081,-0.092 -0.168,-0.182 -0.247,-0.275 z"
           id="path1817" />
        <path
           d="m 120.926,77.42 c -0.125,-0.22 -0.242,-0.441 -0.362,-0.663 0.12,0.222 0.237,0.443 0.362,0.663"
           id="path1819" />
        <path
           d="m 126.502,84.673 c 0.314,0.309 0.636,0.614 0.966,0.916 -0.331,-0.302 -0.653,-0.608 -0.967,-0.916 z"
           id="path1821" />
        <path
           d="m 121.666,78.661 0.001,0.001 -0.005,-0.005 z"
           id="path1823" />
        <path
           d="m 121.672,78.674 c 0.219,0.347 0.445,0.692 0.678,1.034 l 0.001,0.002 c -0.234,-0.342 -0.46,-0.688 -0.679,-1.037 z"
           id="path1825" />
        <path
           d="m 133.134,89.818 c -0.397,-0.242 -0.786,-0.491 -1.166,-0.741 0.38,0.251 0.769,0.498 1.166,0.741"
           id="path1827" />
        <path
           d="m 130.702,88.206 c -0.344,-0.247 -0.678,-0.5 -1.008,-0.753 0.329,0.253 0.665,0.506 1.008,0.753"
           id="path1829" />
        <path
           d="m 191.491,117.58 c -2.242,-1.594 -4.615,-3.286 -6.966,-5.003 l -0.023,-0.018 c -6.027,0.293 -11.926,1.85 -17.313,4.569 -0.095,0.049 -0.179,0.117 -0.248,0.199 -0.572,0.344 -0.347,1.234 0.463,1.592 4.432,2.036 8.58,4.641 12.339,7.749 2.884,-4.169 6.988,-7.344 11.748,-9.088"
           id="path1831" />
        <path
           d="m 125.008,98.564 0.125,-0.055 h -0.017 l -0.133,0.047 z"
           id="path1833" />
        <path
           d="m 120.55,115.16 0.008,-0.006 -0.042,0.025 z"
           id="path1835" />
        <path
           d="m 171.681,102.24 -0.074,0.006 z"
           id="path1837" />
        <path
           d="m 125.115,98.509 c 1.744,-0.534 3.43,-1.24 5.033,-2.108 -0.242,0.155 -2.298,0.783 -5.325,2.108 l 0.039,0.01 c 0.132,-0.007 0.218,-0.009 0.253,-0.01"
           id="path1839" />
        <path
           d="m 124.983,98.556 0.132,-0.047 c -0.035,0.001 -0.121,0.003 -0.253,0.01 z"
           id="path1841" />
        <path
           d="m 123.873,98.965 c 0.135,-0.024 0.278,-0.054 0.404,-0.075 h 0.001 c 0.474,-0.079 0.897,-0.132 1.259,-0.16 -0.173,-0.061 -0.352,-0.11 -0.529,-0.166 l -0.025,-0.008 c -0.364,0.131 -0.733,0.268 -1.11,0.409"
           id="path1843" />
        <path
           d="m 124.983,98.556 -0.121,-0.037 -0.039,-0.01 c -0.344,0.15 -0.7,0.309 -1.069,0.478 l 0.119,-0.021 c 0.375,-0.141 0.746,-0.279 1.11,-0.41"
           id="path1845" />
        <path
           d="m 123.487,99.11 c -1.631,0.758 -3.473,1.697 -5.422,2.842 l -0.029,0.049 c -1.446,0.837 -2.843,1.738 -4.192,2.702 -0.571,0.45 -1.171,0.895 -1.795,1.341 0.586,-0.462 1.185,-0.906 1.795,-1.341 l 0.255,-0.207 c -7.058,4.8 -12.733,11.373 -16.451,19.057 3.684,-6.602 8.531,-12.483 14.309,-17.358 1.955,-1.549 4.023,-2.95 6.185,-4.194 1.988,-1.144 4.036,-2.183 6.134,-3.111 -0.126,0.021 -0.269,0.051 -0.403,0.074 -0.129,0.049 -0.256,0.097 -0.386,0.146"
           id="path1847" />
        <path
           d="m 123.873,98.965 -0.119,0.023 c -0.088,0.04 -0.177,0.081 -0.267,0.124 0.13,-0.051 0.257,-0.098 0.386,-0.147"
           id="path1849" />
        <path
           d="m 118.036,102.002 0.03,-0.049 c -1.286,0.755 -2.617,1.601 -3.967,2.544 l -0.255,0.207 c 1.349,-0.962 2.746,-1.862 4.192,-2.702"
           id="path1851" />
        <path
           d="m 113.844,104.704 c -0.609,0.434 -1.209,0.879 -1.794,1.34 0.623,-0.445 1.223,-0.89 1.794,-1.34"
           id="path1853" />
        <path
           d="m 123.873,98.965 c 0.134,-0.024 0.278,-0.054 0.404,-0.075 -0.126,0.021 -0.269,0.051 -0.404,0.075"
           id="path1855" />
        <path
           d="m 123.873,98.965 -0.119,0.023 z"
           id="path1857" />
      </g>
      <path
         d="m 113.697,111.28 c 7.978,-1.834 16.371,-0.168 23.045,4.574 -1.653,-3.314 -3.991,-6.239 -6.859,-8.581 6.288,0.801 12.512,2.042 18.626,3.715 -4.785,-2.939 -9.846,-5.402 -15.112,-7.354 1.285,-1.916 2.901,-3.589 4.772,-4.939 -9.275,1.522 -17.839,5.926 -24.472,12.585"
         fill="#f9b118"
         id="path1861" />
      <path
         d="m 175.36,102.043 -0.018,-0.009 c -2.782,-1.709 -5.441,-3.609 -7.961,-5.685 l -0.175,-0.113 c 0.023,0.155 0.057,0.309 0.105,0.459 l 0.019,0.041 c 0.467,1.437 2.076,3.342 4.375,5.502 l 0.008,0.008 -0.023,0.002 0.015,0.015 0.104,0.109 0.046,0.046 0.183,0.175 0.161,0.149 0.065,0.061 c 0.078,0.071 0.163,0.149 0.254,0.231 l 0.298,0.266 0.196,0.175 0.115,0.101 c 0.387,0.342 0.829,0.727 1.303,1.133 l 0.002,0.002 c 0.623,0.535 1.3,1.105 1.968,1.657 l 0.005,0.004 c 0.585,0.472 1.186,0.948 1.802,1.429 2.009,1.567 4.153,3.17 6.318,4.751 l 0.008,0.006 0.099,-0.006 c 5.273,3.852 20.517,10.96 33.999,30.15 h 14.059 c -7.118,-18.05 -24.938,-23.801 -48.291,-36.336 0.161,0.227 0.325,0.455 0.502,0.689 -3.798,-1.97 -8.052,-4.248 -9.541,-5.012"
         id="path1863" />
      <path
         d="m 191.491,117.58 0.023,0.016 c 2.776,1.975 22.644,14.071 25.03,25.106 h 2.087 c -13.482,-19.19 -28.725,-26.297 -33.999,-30.15 l -0.099,0.006 c 2.357,1.721 4.735,3.417 6.981,5.013 z"
         id="path1865" />
      <path
         d="m 171.69,102.249 0.023,-0.002 -0.009,-0.008 -0.023,0.002 z"
         id="path1867" />
      <path
         d="m 171.705,102.238 c -2.298,-2.161 -3.906,-4.066 -4.375,-5.502 l -0.018,-0.04 0.018,0.064 c 0.063,0.192 0.139,0.379 0.227,0.56 l 0.143,0.26 c 0.061,0.112 0.115,0.222 0.186,0.34 0.077,0.126 0.171,0.258 0.259,0.389 l 0.166,0.249 c 0.103,0.144 0.223,0.296 0.34,0.446 l 0.175,0.229 c 0.124,0.155 0.264,0.315 0.401,0.475 l 0.2,0.234 c 0.142,0.161 0.298,0.327 0.452,0.492 l 0.229,0.249 c 0.168,0.176 0.349,0.358 0.528,0.538 l 0.227,0.23 c 0.183,0.181 0.377,0.366 0.572,0.551 l 0.247,0.238 z"
         id="path1869" />
      <path
         d="m 171.682,102.24 0.023,-0.002 z"
         id="path1871" />
      <path
         d="m 172.518,103.034 0.149,0.134 z"
         id="path1873" />
      <path
         d="m 171.969,102.529 0.069,0.065 z"
         id="path1875" />
      <path
         d="m 172.199,102.742 0.065,0.061 z"
         id="path1877" />
      <path
         d="m 172.816,103.3 0.196,0.175 z"
         id="path1879" />
      <path
         d="m 171.855,102.418 -0.046,-0.045 z"
         id="path1881" />
      <path
         d="m 173.128,103.577 c 0.387,0.342 0.828,0.726 1.302,1.132 -0.474,-0.405 -0.915,-0.79 -1.302,-1.132"
         id="path1883" />
      <path
         d="m 174.432,104.711 c 0.625,0.536 1.299,1.105 1.969,1.658 -0.669,-0.552 -1.344,-1.123 -1.969,-1.658"
         id="path1885" />
      <path
         d="m 167.206,96.236 -0.05,-0.033 c 0.006,0.091 0.027,0.18 0.062,0.264 l 0.093,0.228 c -0.048,-0.15 -0.083,-0.303 -0.105,-0.459"
         id="path1887" />
      <path
         d="m 175.342,102.034 0.018,0.009 c 1.489,0.765 5.743,3.042 9.542,5.013 -0.178,-0.233 -0.342,-0.463 -0.503,-0.689 -5.398,-2.898 -11.092,-6.159 -17.017,-10.018 2.519,2.077 5.179,3.976 7.96,5.685"
         id="path1889" />
      <path
         d="m 169.878,100.434 c -0.154,-0.165 -0.309,-0.331 -0.45,-0.491 0.141,0.16 0.296,0.326 0.45,0.491"
         id="path1891" />
      <path
         d="m 170.636,101.221 c -0.179,-0.18 -0.36,-0.362 -0.528,-0.538 0.168,0.176 0.349,0.358 0.528,0.538"
         id="path1893" />
      <path
         d="m 168.651,99.004 c -0.116,-0.15 -0.237,-0.301 -0.34,-0.446 0.103,0.145 0.224,0.296 0.34,0.446"
         id="path1895" />
      <path
         d="m 167.7,97.581 -0.143,-0.26 z"
         id="path1897" />
      <path
         d="m 168.145,98.31 c -0.088,-0.131 -0.182,-0.263 -0.259,-0.389 0.077,0.126 0.171,0.258 0.259,0.389"
         id="path1899" />
      <path
         d="m 169.227,99.707 c -0.137,-0.158 -0.277,-0.319 -0.401,-0.473 0.124,0.154 0.264,0.315 0.401,0.473"
         id="path1901" />
      <path
         d="m 171.435,102.003 c -0.194,-0.185 -0.388,-0.37 -0.572,-0.551 0.184,0.181 0.378,0.366 0.572,0.551"
         id="path1903" />
      <path
         d="m 167.219,96.467 c 0.035,0.096 0.079,0.196 0.111,0.293 l -0.018,-0.064 z"
         id="path1905" />
      <path
         d="m 184.525,112.552 c -2.165,-1.581 -4.31,-3.184 -6.318,-4.751 -0.615,-0.48 -1.215,-0.956 -1.802,-1.428 0.62,0.512 1.234,1.009 1.791,1.445 l 0.011,0.008 c 2.001,1.561 4.138,3.158 6.295,4.734 l 0.031,-0.002 z"
         id="path1907" />
      <path
         d="m 191.491,117.58 0.023,-0.009 c -2.246,-1.596 -4.624,-3.292 -6.981,-5.013 l -0.031,10e-4 0.023,0.018 c 2.351,1.717 4.724,3.409 6.966,5.003"
         id="path1909" />
    </g>
  </g>
</svg>
