<?xml version="1.0" encoding="UTF-8" standalone="no"?>
<!-- Creator: CorelDRAW 2019 (64-Bit) -->

<svg
   xml:space="preserve"
   width="200"
   height="200"
   version="1.1"
   style="clip-rule:evenodd;fill-rule:evenodd;image-rendering:optimizeQuality;shape-rendering:geometricPrecision;text-rendering:geometricPrecision"
   viewBox="0 0 52.83124 52.831545"
   id="svg1961"
   sodipodi:docname="logo_NIT.svg"
   inkscape:version="1.1 (c68e22c387, 2021-05-23)"
   xmlns:inkscape="http://www.inkscape.org/namespaces/inkscape"
   xmlns:sodipodi="http://sodipodi.sourceforge.net/DTD/sodipodi-0.dtd"
   xmlns="http://www.w3.org/2000/svg"
   xmlns:svg="http://www.w3.org/2000/svg"><sodipodi:namedview
   id="namedview1963"
   pagecolor="#ffffff"
   bordercolor="#666666"
   borderopacity="1.0"
   inkscape:pageshadow="2"
   inkscape:pageopacity="0.0"
   inkscape:pagecheckerboard="0"
   inkscape:document-units="mm"
   showgrid="false"
   units="px"
   inkscape:zoom="1.1898842"
   inkscape:cx="309.694"
   inkscape:cy="350.03406"
   inkscape:window-width="1920"
   inkscape:window-height="1017"
   inkscape:window-x="-8"
   inkscape:window-y="-8"
   inkscape:window-maximized="1"
   inkscape:current-layer="Layer_x0020_1" />
 <defs
   id="defs1870">
  <style
   type="text/css"
   id="style1868">
   <![CDATA[
    .fil3 {fill:#E42126}
    .fil2 {fill:#7B7978}
    .fil1 {fill:#221E1F}
    .fil0 {fill:white}
   ]]>
  </style>
 </defs>
 <g
   id="Layer_x0020_1"
   inkscape:label="Layer 1"
   inkscape:groupmode="layer">
  <metadata
   id="CorelCorpID_0Corel-Layer" />
  <g
   id="_992017088"
   transform="matrix(0.28602955,0,0,0.28602955,2.9950199,2.826294e-5)">
   <path
   class="fil0"
   d="m 162.9304,87.1954 c -13.7692,-1.5011 -27.4581,-2.1088 -40.7145,-1.8138 l 0.0532,-0.0659 2.8451,-1.296 1.2512,-1.0991 1.376,-1.5908 0.1104,-0.0294 2.7943,-3.4649 1.7371,-8.9517 -3.7507,1.1799 0.4824,-3.4527 -6.1098,1.8645 -0.0983,-0.2236 3.7714,-6.315 4.5337,-2.6992 0.698,1.7905 1.8488,0.301 0.8679,-0.5246 -0.9626,3.1933 3.8155,1.9248 4.0544,-1.9932 4.201,-2.9937 2.2431,-3.879 3.1397,-0.8159 3.721,-8.7862 3.9829,-2.4728 0.715,-8.856 -5.0313,-7.9712 -13.3516,-5.4075 -3.9843,-8.8625 L 110.5556,2.395 93.9743,6.64 86.0322,-1e-4 l -17.9008,2.94 -0.2296,0.0362 -7.0361,5.6541 5.2994,8.9701 3.1995,5.898 -3.4553,4.3086 -4.2724,8.1386 -6.6193,5.99 -7.9839,18.6821 5.9578,-1.5611 -9.4997,11.6959 3.8368,-0.7359 -11.9522,12.4616 4.4269,-0.5991 -1.7845,2.1925 c -5.5316,1.5284 -10.8219,3.2206 -15.7385,5.0319 l -0.5808,0.2144 0.0061,0.6199 c 0.0301,1.9958 0.0506,4.0421 0.0717,6.1038 0.0419,4.0244 0.0866,8.1776 0.1787,12.0677 -13.5399,6.6166 -20.4424,12.0506 -20.7313,12.2802 l -1.2245,0.9739 8.8421,3.2355 9.6281,-2.1301 -12.1693,10.4267 7.7424,3.1366 7.939,-3.0265 -7.6952,9.5419 6.4556,2.6546 3.3959,-1.7845 -4.7066,11.3142 4.2272,2.5025 1.9927,-1.5315 -0.4971,26.2033 0.5092,0.2443 c 0.1821,0.0867 4.43,2.1092 4.9754,2.3473 l 0.4853,0.2089 0.4141,-0.3309 c 4.0634,-3.2795 17.4357,-12.1753 22.9949,-15.8449 l -0.4738,1.0992 5.5589,2.4518 0.4232,-0.3816 c 0.1905,-0.1728 18.5,-16.6619 35.1824,-24.5026 -0.2949,0.5393 -0.4232,0.7775 -0.4591,0.8489 l -0.6045,1.2665 1.3165,-0.009 c 0.3995,0.113 2.0201,0.7597 3.3667,1.3259 l 0.5241,0.2204 0.4171,-0.3874 c 0.0389,-0.0388 4.0544,-3.7744 11.5705,-8.6362 11.4723,-7.4209 22.9022,-12.2112 31.1135,-15.0741 -0.009,0.0148 -0.0209,0.0329 -0.03,0.0477 l -0.4865,0.7388 3.2007,2.0525 0.4412,-0.2149 c 0.0791,-0.0385 8.1229,-3.9292 16.5962,-6.4551 l 0.5864,-0.1727 0.039,-0.6107 c 0.1374,-2.199 0.2089,-6.9056 0.2943,-12.3602 0.1195,-7.5878 0.2545,-16.1905 0.5994,-21.6548 l 0.0532,-0.8372 -0.8329,-0.0907 z"
   id="path1873" />
   <path
   class="fil1"
   d="m 120.3296,86.3034 1.3971,-1.7068 2.9135,-1.3259 1.156,-1.0131 1.4687,-1.7159 0.0983,-0.0239 2.4718,-3.0681 1.4154,-7.2927 -3.6729,1.153 0.4854,-3.462 -5.5437,1.6922 -0.587,-1.3582 4.1137,-6.8903 5.6156,-3.3398 0.8902,2.2851 1.0404,0.1698 2.5415,-1.5432 -1.4088,4.6773 2.7698,1.3997 3.6613,-1.8022 3.9234,-2.8092 2.3326,-4.0305 3.0735,-0.8044 3.6651,-8.6391 3.839,-2.3858 0.6564,-8.1269 -4.7224,-7.4872 -13.4176,-5.4296 -3.9883,-8.8754 L 110.4923,3.3135 93.7645,7.5975 85.7836,0.9276 68.2789,3.8027 62.0144,8.834 l 4.9211,8.3293 3.4857,6.426 -3.7654,4.6952 -4.3078,8.2008 -6.5924,5.9707 -7.2036,16.8552 6.819,-1.7874 -9.6733,11.9102 4.1796,-0.8013 -12.1218,12.6363 4.1409,-0.5599 -3.3692,4.1293 c -5.407,1.4864 -10.7693,3.1786 -15.9351,5.0821 0.0832,6.1128 0.1098,12.7205 0.262,18.7265 C 8.906,115.4092 1.777,121.0725 1.777,121.0725 l 7.1322,2.6094 12.7975,-2.8298 -13.7336,11.7672 6.0862,2.4666 10.6502,-4.0574 -8.9935,11.1504 4.9898,2.0495 5.1834,-2.7199 -5.3472,12.8522 3.0621,1.8113 2.9674,-2.2821 -0.5217,27.4637 c 0,0 4.406,2.1002 4.9452,2.3358 5.2432,-4.2302 25.5218,-17.5137 25.5218,-17.5137 l -1.2991,2.9998 4.2426,1.8711 c 0,0 20.1859,-18.2735 37.7858,-25.7152 0.0121,-0.003 -1.5877,2.8983 -1.6805,3.0888 0.295,0 3.6256,1.3972 3.6256,1.3972 0,0 15.9797,-14.9838 45.2612,-24.6666 0.1492,-0.0507 -1.2728,2.1245 -1.2728,2.1245 l 2.0383,1.3075 c 0,0 8.0904,-3.9292 16.7298,-6.5032 0.3193,-5.1597 0.2959,-24.5233 0.8941,-34.0168 -15.2081,-1.6568 -29.3821,-2.1392 -42.5137,-1.7582 l 10e-4,-10e-4 z"
   id="path1875" />
   <path
   class="fil0"
   d="m 48.5812,82.315 c 5.0138,-1.1468 9.9921,-2.1215 14.8243,-2.9287 l 2.8985,-1.5043 1.1828,-2.4134 0.6376,-1.2091 0.1667,-2.1001 -9.9468,4.102 3.0443,-9.8364 -3.0834,0.593 -3.5449,1.9688 -2.237,2.2852 -2.4134,4.659 0.4678,0.7358 -2.2102,2.8183 0.2138,2.8299 z"
   id="path1877" />
   <path
   class="fil2"
   d="m 73.0924,77.9525 -3.7301,-1.8113 -1.0693,-3.986 -4.8855,7.2273 c 3.3098,-0.5543 6.5477,-1.0307 9.6849,-1.4301 z"
   id="path1879" />
   <path
   class="fil2"
   d="m 41.9769,83.9165 c 2.2014,-0.5692 4.406,-1.1054 6.6043,-1.606 l 5.6128,-6.8996 -3.0834,0.3903 7.1945,-8.7879 -4.7248,0.9057 -9.6159,10.105 2.9879,-0.3781 -4.9755,6.2706 z"
   id="path1881" />
   <path
   class="fil0"
   d="m 145.6258,54.1376 c -0.1247,0.1401 -3.1216,4.9296 -3.1216,4.9296 l -5.0559,3.542 0.9353,-2.6453 2.7416,-7.0161 -1.3715,1.326 -5.2193,2.4369 1.5827,-3.253 2.7609,-5.5347 3.1759,0.9769 c 0,0 1.0665,0.3867 1.1859,0.5151 0.4347,0.7992 1.1196,1.6801 1.8318,2.7738 0.2296,0.4411 0.5658,1.9422 0.5541,1.9474 v 0.0014 z"
   id="path1883" />
   <path
   class="fil0"
   d="M 149.6763,30.2513 137.4768,25.3148 132.8439,17.2333 109.8106,6.9372 92.5234,10.8163 82.9729,4.5266 68.8968,7.1513 l -1.9422,1.719 2.2847,5.2259 8.0377,9.9342 -6.9087,5.9641 -4.9747,8.389 -6.3602,4.6952 -3.307,8.8833 2.267,2.5974 1.1712,1.6654 -6.9771,9.6129 10.5966,-5.7912 2.6131,2.273 -2.4726,8.3109 6.2857,-3.7147 5.106,8.0579 5.1743,1.2605 c 4.3914,-0.4262 8.6514,-1.0278 12.3363,-1.1292 l 6.2442,-0.158 2.3743,2.1837 0.0655,2.2609 0.9978,3.3158 7.0694,4.2151 4.704,4.1948 1.68,-4.1857 7.0631,-5.3325 0.2209,-1.5046 -5.559,-3.9769 -5.7433,-2.1331 -0.7035,-1.2152 -0.6107,-3.8998 3.4112,-8.2308 -0.6168,-3.7478 3.4528,-5.1001 18.7198,-6.8126 10.352,2.4417 1.7462,6.0212 2.3782,-1.0275 2.4532,-6.4324 3.3967,-3.6548 0.6292,-5.5684 -5.8758,-6.5064 z"
   id="path1885" />
   <polygon
   class="fil2"
   points="96.8423,28.2754 89.4754,34.425 89.0077,42.1107 75.3163,47.8789 70.9217,56.2374 65.3959,62.3264 52.1902,65.8387 53.5667,63.9381 62.8693,57.1374 63.0928,54.6047 66.8376,51.4169 71.1302,42.8282 80.3923,36.7046 82.0189,33.2781 92.8801,26.3579 102.6962,22.2646 108.3681,23.9693 "
   id="polygon1887" />
   <polygon
   class="fil2"
   points="81.4803,9.9497 87.2121,13.8315 82.4989,16.1941 80.4854,19.3182 78.4385,13.4618 70.6364,10.3298 77.8431,8.808 "
   id="polygon1889" />
   <path
   class="fil2"
   d="m 147.0294,41.6852 c 0.6072,-0.144 1.2001,0.1634 1.3261,0.6876 0.1246,0.5242 -0.2635,1.0665 -0.8705,1.2091 -0.6047,0.1467 -1.2003,-0.1634 -1.326,-0.6876 -0.1247,-0.5242 0.2634,-1.0665 0.8704,-1.2091 z"
   id="path1891" />
   <path
   class="fil2"
   d="m 143.2398,42.4831 c 0.6032,-0.1454 1.1974,0.1634 1.3247,0.685 0.1257,0.528 -0.2648,1.0704 -0.8694,1.213 -0.6084,0.1427 -1.2014,-0.1634 -1.3259,-0.6889 -0.1245,-0.5242 0.2621,-1.0652 0.8706,-1.2091 z"
   id="path1893" />
   <path
   class="fil2"
   d="m 140.6074,40.6811 c 0.6085,-0.1454 1.2015,0.1634 1.3299,0.6889 0.1246,0.5242 -0.2661,1.0665 -0.8705,1.2091 -0.6073,0.1454 -1.2002,-0.1634 -1.326,-0.6889 -0.1273,-0.5242 0.2621,-1.0665 0.8666,-1.2091 z"
   id="path1895" />
   <path
   class="fil2"
   d="m 144.4063,38.4975 c 0.7472,-0.179 1.4776,0.2025 1.6346,0.8459 0.152,0.6461 -0.3268,1.313 -1.0717,1.492 -0.7472,0.1791 -1.4803,-0.2024 -1.6359,-0.8484 -0.1545,-0.6436 0.3256,-1.3117 1.073,-1.4895 z"
   id="path1897" />
   <polygon
   class="fil2"
   points="110.1401,6.2521 134.4785,16.556 138.2592,25.0228 149.7346,30.0814 155.7311,36.7278 155.0099,42.4208 151.5898,46.0341 149.1677,52.5431 145.6206,54.6344 145.304,55.3109 142.5872,59.3116 137.7947,62.7912 136.7282,62.851 136.6736,61.5907 138.3993,58.2367 140.3271,53.7795 139.2659,54.8913 134.4487,58.0041 133.3796,58.0634 133.3263,56.8034 135.0507,53.4486 136.5557,48.0334 138.8845,47.9205 138.3214,50.2052 136.5608,54.6254 135.253,55.9277 136.88,55.3824 138.6769,54.0208 141.2951,50.0171 141.9774,48.8727 142.9478,48.9921 143.2605,49.4215 141.67,54.9926 139.9094,59.4129 137.7297,61.9186 139.0753,61.0935 142.0242,58.8083 144.6437,54.8045 145.0965,52.1824 145.7969,53.7354 147.1905,52.9777 148.4294,52.0812 149.017,51.0355 150.6675,45.6617 151.647,44.6134 147.3694,38.1018 143.0166,35.6848 136.1652,34.1175 135.6201,33.3677 143.7328,33.644 148.2996,36.6267 150.7867,36.5942 154.6568,37.2222 148.4839,30.7365 136.4428,26.1697 132.5933,19.2261 128.2295,17.1489 125.3397,18.0882 113.3904,16.8013 107.8497,19.2702 104.364,19.8215 104.6535,18.9549 110.4862,13.9704 116.3224,14.8434 120.7162,13.5772 110.0268,8.4953 92.3617,12.66 91.462,12.2254 81.0232,6.8204 78.437,6.666 68.5917,8.7639 70.5488,13.7537 77.5437,21.8117 80.0522,21.1682 85.6911,21.4303 86.4627,18.9367 92.1437,16.3471 93.5586,16.7234 91.119,18.2842 88.8668,24.4065 85.9294,26.4824 73.5667,31.2425 67.2571,40.5681 59.8752,50.8098 57.763,54.2959 53.2824,55.6419 58.9218,42.9113 65.2824,38.2173 70.2567,29.831 74.8388,25.2641 68.4371,14.9239 66.8431,8.7068 68.7857,6.9878 82.8581,4.3632 92.4118,10.6516 "
   id="polygon1899" />
   <path
   class="fil1"
   d="m 119.1553,18.5825 9.5205,2.6415 0.1192,2.1161 5.2308,6.5116 -1.099,0.5099 -5.3977,-3.6522 -9.1878,-0.3166 2.9912,-1.7449 c 0,0 -2.0587,-0.528 -2.1033,-0.5398 -0.0298,-0.009 -1.2274,-1.8915 -1.2274,-1.8915 l 4.141,-1.5582 z"
   id="path1901" />
   <path
   class="fil0"
   d="m 125.5996,22.6667 2.3713,2.6662 -2.9403,-1.5699 -0.2981,0.227 0.0685,0.89 -0.6493,-0.0375 c -0.7419,-0.349 -1.0785,-0.5787 -1.4569,-0.9121 -0.4703,-0.4112 -0.6823,-0.5099 -0.8606,-0.9055 -0.1013,-0.2179 -0.1313,-0.349 -0.1283,-0.5748 0.2859,-0.1518 0.4708,-0.227 0.8136,-0.3218 0.3511,-0.0959 0.566,-0.1349 0.947,-0.1647 l 2.681,-0.0234 -0.5478,0.7265 z"
   id="path1903" />
   <polygon
   class="fil3"
   points="114.6529,72.2854 115.0522,73.0153 119.5267,71.7225 118.1265,67.6651 121.2636,60.3723 120.3611,55.3378 117.4621,53.4188 117.0602,53.7795 117.2745,58.6387 114.3165,65.5913 "
   id="polygon1905" />
   <path
   class="fil2"
   d="m 120.3142,38.1965 -4.3076,0.7059 -13.4801,1.6269 0.1906,-2.8568 4.7217,-4.5409 0.3665,-0.157 0.0719,-0.0324 6.1961,1.0743 -4.2095,1.9279 0.9117,3.4317 6.1576,-2.9165 1.3942,0.5928 2.6784,1.1379 -0.6913,0.0064 z m -0.2742,3.0386 v 0 l 6.8548,0.253 5.1302,0.9445 c -0.3932,0.0389 -0.7862,0.083 -1.1833,0.1258 -1.4741,0.1609 -2.9936,0.3568 -4.8617,0.6189 -0.2411,0.0337 -0.4732,0.0662 -0.703,0.0986 -4.5521,0.6435 -7.4387,1.1196 -11.827,2.1692 -0.3066,0.074 -0.6222,0.1492 -0.944,0.2283 -1.8944,0.4645 -3.3515,0.7603 -4.8319,1.1624 l 0.0745,-0.7512 -3.9591,-3.128 16.2504,-1.7216 z m 19.763,-2.8296 v 0 l -5.5464,-1.505 -2.1875,-0.5929 c 0,0 -1.8669,-0.4255 -4.3339,-0.9613 -0.0629,-0.0156 -0.1282,-0.0299 -0.191,-0.0428 -0.3873,-0.0831 -0.786,-0.1686 -1.1946,-0.2556 -0.1698,-0.0389 -0.3396,-0.074 -0.5093,-0.1102 -0.2144,-0.0454 -0.4287,-0.0922 -0.6461,-0.1376 -0.242,-0.0506 -0.483,-0.1011 -0.7274,-0.1518 l -5.4663,-2.8867 -3.2263,1.4777 -6.0146,-1.1144 4.3611,-1.8968 3.4888,-1.5167 -2.9704,-0.9237 -3.4706,-1.8891 -2.6782,2.5002 -5.2637,2.4092 -0.5989,0.4359 -4.987,-0.0597 -2.2076,0.0324 -0.0744,0.5748 6.2766,0.1699 -5.675,4.1115 0.1074,3.5925 0.1099,3.5925 -9.1932,1.8202 -0.1252,0.5657 5.0436,-0.8122 5.0432,-0.8173 2.2523,1.4933 3.1786,2.1056 -0.4379,1.0483 -0.0983,0.2361 c -1.9841,0.6811 -4.5129,1.4946 -6.1515,2.1796 -0.1099,0.0454 -0.2144,0.0896 -0.3158,0.135 -0.0121,0 -0.0298,0.0857 -0.2058,0.2621 0,0 2.2852,-0.6669 5.0945,-1.4777 0.1844,-0.0558 0.3755,-0.1103 0.5659,-0.1634 l -10.2209,7.1256 -7.3551,17.5969 -4.2777,0.3219 -4.5611,-1.8473 4.0097,-13.4238 3.5302,-3.0114 3.5333,-3.0085 8.7525,-7.4509 -10.4111,3.6665 -6.685,3.6469 -7.6683,10.6202 -6.3125,5.7557 -0.2383,0.8073 6.0531,-3.435 3.1998,7.391 5.9194,2.7798 c 0.4586,-0.0476 0.9112,-0.0957 1.3643,-0.1404 0.0745,-0.0086 0.149,-0.0147 0.2235,-0.0208 0.3632,-0.0355 0.7236,-0.0715 1.0816,-0.1044 0.113,-0.0117 0.2259,-0.0208 0.3395,-0.0324 0.3334,-0.0299 0.6669,-0.0598 1.0009,-0.0897 0.0982,-0.0087 0.1997,-0.0178 0.2978,-0.0239 0.8575,-0.0745 1.7009,-0.1429 2.5291,-0.2022 0.0866,-0.0061 0.1697,-0.0122 0.2534,-0.0153 0.3273,-0.0238 0.6492,-0.0476 0.9709,-0.0684 0.1161,-0.0085 0.2265,-0.0147 0.3396,-0.0208 0.3041,-0.0207 0.6075,-0.0385 0.9086,-0.0563 0.1013,-0.0061 0.2029,-0.0121 0.3041,-0.0182 0.792,-0.0446 1.567,-0.0832 2.3291,-0.1161 0.0929,-0.0029 0.1881,-0.0091 0.2802,-0.0117 0.2829,-0.0121 0.5662,-0.0207 0.8458,-0.0329 0.1136,-0.003 0.2295,-0.0091 0.3397,-0.0121 0.2712,-0.0087 0.5423,-0.0148 0.8074,-0.0239 0.1013,-0.0029 0.2027,-0.0061 0.3009,-0.0085 0.3548,-0.0062 0.7059,-0.0149 1.0547,-0.021 h 0.0116 c 0.3518,-0.0059 0.6974,-0.0121 1.04,-0.0152 h 0.2918 c 0.2444,-0.003 0.4885,-0.003 0.7268,-0.003 h 0.334 c 0.2352,0.003 0.4678,0.003 0.6968,0.0061 0.0984,0 0.1968,0.003 0.2918,0.003 0.322,0.0032 0.6376,0.0091 0.9508,0.0184 l 1.6111,7.8197 8.6876,2.8959 4.9869,4.1734 1.7308,-4.2869 7.0753,-5.3142 0.0744,-0.587 0.0953,-0.7271 0.9985,-0.4703 4.23,-3.5213 2.154,-3.9951 -0.483,-0.6197 -4.6027,1.6653 1.3617,-1.6892 0.4471,-1.1409 -0.2713,-0.7925 -0.483,-0.0537 -1.4326,0.5482 -3.2175,1.0608 -5.6246,1.5371 -0.6968,0.3486 1.8143,1.7069 3.0118,2.3413 0.2769,0.8074 -0.0264,0.2082 1.0841,1.5672 -0.1785,1.0307 -0.0358,0.2174 -6.4977,4.9575 -1.1853,3.0888 -4.144,-3.4107 -6.2499,-3.5151 0.0451,-6.6973 -4.8292,-8.389 -9.4826,2.8866 3.5156,-8.1055 4.1851,-4.1588 11.4721,-8.3949 0.1431,-1.4415 1.1206,-0.3114 c 0.375,-0.1037 0.7414,-0.2011 1.099,-0.2945 3.7626,-0.9885 6.6047,-1.5128 9.9708,-2.0136 1.4419,-0.2141 2.982,-0.4229 4.7305,-0.6642 0.4378,-0.0597 0.9054,-0.1219 1.388,-0.1816 3.3845,-0.4177 7.5821,-0.8018 7.5936,-0.8018 -1.7475,0.4748 -3.2823,0.8524 -4.7332,1.204 -3.5544,0.8576 -6.5631,1.54 -10.7335,2.997 -5.0344,1.758 -10.3047,4.5254 -12.688,5.824 -0.551,0.2971 -0.9473,0.5177 -1.15,0.6319 -2.0464,1.1225 -4.2241,2.7224 -6.3394,3.9767 -0.4886,0.2888 -0.974,0.557 -1.4535,0.8013 l 0.417,0.4262 c 0,0 9.6579,-6.0125 16.6889,-8.833 0.2259,-0.0922 0.4494,-0.179 0.6698,-0.2621 0.1819,-0.0688 0.3578,-0.1375 0.5361,-0.2024 3.3428,-1.2727 5.8662,-2.2172 8.6631,-3.1164 0.1491,-0.0479 0.2949,-0.0921 0.4442,-0.1401 1.6384,-0.519 3.3867,-1.0301 5.4569,-1.5841 0.4293,-0.1167 0.8341,-0.2244 1.2219,-0.3257 2.5352,-0.6668 4.3099,-1.069 7.1733,-1.6437 v -0.0039 l -0.3399,-0.8394 0.1128,-0.79 0.0129,-0.0766 -3.6403,-0.5605 -3.6431,-0.5631 -8.5562,-0.467 -5.1774,0.2192 -5.3891,0.7278 -8.2548,1.1106 -0.3396,-0.2647 v -0.0324 l 0.0416,-0.6616 13.0069,-1.4959 5.6182,-0.8278 1.862,0.1583 1.0844,0.458 13.7403,0.7447 0.3269,-0.5929 0.0753,-0.1375 1.6153,-1.095 z"
   id="path1907" />
   <polygon
   class="fil0"
   points="121.7305,76.8167 121.8464,78.0087 122.8356,78.8368 126.7502,76.0602 128.3232,73.0426 123.914,74.4607 122.8802,75.7414 "
   id="polygon1909" />
   <polygon
   class="fil0"
   points="117.6146,74.8595 119.6909,76.2354 121.9016,74.8175 124.5972,72.3393 125.6732,70.9628 125.5925,70.5964 124.9789,71.0013 121.4455,72.3686 116.5538,73.7036 "
   id="polygon1911" />
   <path
   class="fil0"
   d="m 32.3309,92.0992 c 0.0659,2.6215 0.1223,4.084 0.1998,6.7564 -0.0269,0.0122 -0.0416,0.0152 -0.0684,0.0269 -1.2092,-2.2522 -1.8412,-3.5389 -3.0418,-5.8565 -0.9589,0.3128 -1.4419,0.4703 -2.4099,0.7922 0.0654,3.3336 0.1369,6.6674 0.1996,10.0036 0.7152,-0.3127 1.0664,-0.4617 1.7669,-0.7567 -0.0599,-2.8182 -0.1014,-3.9651 -0.1821,-7.0601 0.0179,-0.006 0.0268,-0.0091 0.0447,-0.0152 1.2629,2.6753 1.9035,3.5658 3.1431,5.8479 0.9324,-0.3725 1.3943,-0.5509 2.3084,-0.8995 -0.0832,-3.1219 -0.143,-6.262 -0.232,-9.3842 -0.6736,0.2058 -1.0516,0.331 -1.7283,0.5453 z"
   id="path1913" />
   <path
   class="fil0"
   d="m 49.785,91.4819 c -0.9026,0.2651 -1.3525,0.3958 -2.2552,0.6608 -0.0031,-1.2776 -0.0061,-1.936 -0.0093,-3.2501 0.9001,-0.2443 1.3498,-0.3634 2.2524,-0.5985 0.1312,0.0537 0.1996,0.0806 0.3279,0.1368 0.0031,1.1083 0.0061,1.6623 0.0061,2.7408 -0.1253,0.1222 -0.1937,0.1849 -0.3219,0.3102 z m 2.0616,-0.2595 v 0 c -0.0122,-1.528 -0.0213,-2.3085 -0.0358,-3.8577 -0.4708,-0.182 -0.7805,-0.2474 -1.2274,-0.408 -1.7191,0.4379 -2.8661,0.7268 -4.8202,1.2452 0.0153,2.8984 0.0238,5.8001 0.0359,8.6986 0.6969,-0.2296 1.0455,-0.3426 1.746,-0.5692 -0.0061,-1.2213 -0.0091,-1.8381 -0.0122,-3.0505 0.7537,-0.2294 1.1323,-0.3424 1.8889,-0.569 0.3603,1.0874 0.5538,1.6324 0.8848,2.7285 0.6583,-0.2023 0.9832,-0.3006 1.6294,-0.4941 -0.4171,-1.1322 -0.6255,-1.7159 -1.0337,-2.8628 0.313,-0.3158 0.6135,-0.5513 0.9445,-0.861 z"
   id="path1915" />
   <path
   class="fil0"
   d="m 59.1865,84.8773 c 0.0147,2.234 0.0299,3.4553 0.0384,5.7288 -0.0233,0.0061 -0.0353,0.0117 -0.0623,0.0178 -1.0156,-2.0287 -1.5371,-3.1193 -2.577,-5.1449 -0.8519,0.1997 -1.2776,0.3009 -2.1271,0.5092 0.0452,2.7291 0.0746,5.4578 0.1136,8.1862 0.6046,-0.1728 0.9055,-0.259 1.5073,-0.4262 -0.0354,-2.3083 -0.0354,-3.3959 -0.0746,-5.8771 0.0148,-0.0031 0.0239,-0.0062 0.0391,-0.0091 1.0784,2.2283 1.5933,3.1993 2.6447,5.1777 0.8227,-0.2149 1.2429,-0.3249 2.0472,-0.5306 -0.027,-3.0264 -0.027,-4.8469 -0.0417,-7.9687 -0.5874,0.1282 -0.8971,0.1967 -1.5077,0.3371 z"
   id="path1917" />
   <g
   id="g1921">
    <path
   class="fil0"
   d="m 67.1973,89.9563 c -0.8255,0.1815 -1.2333,0.2712 -2.0378,0.4557 -0.006,-0.9203 -0.006,-1.4058 -0.006,-2.3505 0.8105,-0.1698 1.2183,-0.2559 2.0495,-0.4256 0.113,0.0537 0.1698,0.0806 0.2827,0.1337 0,0.7779 0,1.1738 0.0036,1.9273 -0.1165,0.1044 -0.1758,0.1552 -0.2923,0.2595 h 3e-4 z m -2.0646,-5.2818 v 0 c 0.8074,-0.1636 1.2123,-0.2412 2.0378,-0.3994 0.119,0.0629 0.1783,0.0953 0.2975,0.1581 0.0061,0.7745 0.0122,1.1916 0.0153,1.8974 -0.1135,0.1013 -0.1698,0.1521 -0.2833,0.2534 -0.8312,0.1637 -1.2392,0.2473 -2.0496,0.4171 -0.003,-0.8819 -0.0085,-1.3881 -0.0177,-2.3267 z m 3.1219,2.2223 v 0 c 0.3372,-0.2919 0.5069,-0.4348 0.8463,-0.7181 -0.003,-0.9709 -0.0152,-1.5696 -0.0238,-2.5916 -0.4502,-0.2053 -0.6736,-0.3036 -1.1144,-0.4972 -1.7962,0.3218 -2.6663,0.4884 -4.3848,0.8428 0.0177,3.0685 0.0146,4.9274 0.0414,7.8673 1.7161,-0.4139 2.5827,-0.6168 4.3885,-1.0246 0.4377,-0.3604 0.6612,-0.5392 1.1077,-0.9057 -0.0087,-0.9892 -0.0087,-1.5314 -0.0117,-2.5799 -0.3424,-0.1576 -0.5122,-0.2352 -0.8488,-0.3934 l -5e-4,5e-4 z"
   id="path1919" />
   </g>
   <path
   class="fil0"
   d="m 73.7405,88.5606 c -0.0061,-0.8548 -0.0061,-1.3136 -0.0091,-2.1953 0.9924,-0.1759 1.4894,-0.2595 2.4819,-0.4263 v -0.9771 c -0.9949,0.1581 -1.4925,0.2387 -2.4874,0.4025 -0.0061,-0.7988 -0.0152,-1.269 -0.0269,-2.1661 1.302,-0.2112 1.9657,-0.3127 3.2587,-0.5092 -0.0061,-0.4589 -0.0088,-0.6761 -0.0118,-1.0725 -1.9871,0.3041 -3.0148,0.4708 -5.0077,0.7957 0.0355,2.8835 0.0301,4.7993 0.0777,7.4833 1.9926,-0.4054 2.9936,-0.593 4.9716,-0.9448 -0.0061,-0.3842 -0.0085,-0.5838 -0.0116,-0.9826 -1.2872,0.226 -1.9395,0.345 -3.2355,0.5923 z"
   id="path1923" />
   <g
   id="g1927">
    <path
   class="fil0"
   d="m 83.5784,84.3507 c -0.1313,0.0868 -0.1967,0.1313 -0.3279,0.2204 -0.8013,0.1106 -1.1978,0.1642 -1.9957,0.2804 0.0091,-1.0426 0.0091,-1.5671 -0.003,-2.833 0.8009,-0.1105 1.2004,-0.1637 2.0047,-0.2712 0.1312,0.0745 0.1967,0.1104 0.3279,0.1845 0.0086,1.1382 0.0061,1.5345 -0.006,2.4193 v -5e-4 z m 1.7459,0.2327 v 0 c 0.0238,-1.2452 0.0299,-1.9513 0.0178,-3.4528 -0.4825,-0.2382 -0.7269,-0.3426 -1.2092,-0.5361 -1.8651,0.2411 -2.7974,0.3724 -4.6446,0.6436 0.0268,2.8123 -0.0234,4.5581 0.0213,7.2866 0.6938,-0.113 1.0393,-0.1696 1.7336,-0.2801 -0.0152,-0.9741 -0.0091,-1.4774 0,-2.4635 0.6133,-0.0923 0.9171,-0.1369 1.531,-0.2265 0.381,0.9208 0.5692,1.3825 0.974,2.3089 0.7149,-0.1043 1.0723,-0.158 1.7875,-0.2564 -0.4587,-0.9949 -0.6706,-1.4803 -1.0993,-2.4483 0.3548,-0.2326 0.5331,-0.3455 0.888,-0.5752 z"
   id="path1925" />
   </g>
   <path
   class="fil0"
   d="m 94.1942,83.1384 c -1.1024,0.0923 -1.6501,0.14 -2.7526,0.2474 -0.006,0.3542 -0.012,0.5301 -0.0207,0.8875 0.4733,-0.0502 0.7117,-0.0771 1.1854,-0.1247 -0.0116,0.557 -0.0207,0.8396 -0.0238,1.4235 -0.1308,0.0867 -0.1967,0.1283 -0.3274,0.215 -0.8494,0.0982 -1.2696,0.149 -2.1155,0.2529 -0.1281,-0.0532 -0.1936,-0.0801 -0.3249,-0.1369 0.021,-1.832 0.0868,-2.2253 0.0715,-4.6889 0.1314,-0.1043 0.1967,-0.155 0.3249,-0.2564 0.8372,-0.0776 1.2514,-0.113 2.0854,-0.1815 0.1314,0.0771 0.1967,0.1161 0.3281,0.1993 0.003,0.3188 0.0061,0.5929 0.0061,0.8195 0.6221,-0.0476 0.9349,-0.0684 1.5578,-0.1074 -0.003,-0.3933 -0.0121,-0.9087 -0.0209,-1.4181 -0.4799,-0.2741 -0.718,-0.3962 -1.1944,-0.6075 -1.4601,0.1104 -2.193,0.1758 -3.6615,0.3249 -0.4764,0.3004 -0.7147,0.4677 -1.1917,0.825 0.0148,2.6754 -0.0653,3.5512 -0.0684,5.8063 0.4739,0.1936 0.715,0.2888 1.1946,0.4885 1.4748,-0.188 2.2136,-0.2772 3.7032,-0.4531 0.4822,-0.3187 0.7265,-0.4764 1.2151,-0.7834 -0.0146,-1.1616 0.0091,-1.6709 0.03,-2.7317 h -5e-4 z"
   id="path1929" />
   <path
   class="fil0"
   d="m 41.1364,89.4684 c 0.033,2.9434 0.0624,4.495 0.1045,7.4892 -0.1221,0.1338 -0.1819,0.2023 -0.3042,0.3366 -0.7596,0.256 -1.0038,0.3305 -1.7666,0.5954 -0.1221,-0.0531 -0.1813,-0.08 -0.3035,-0.1339 -0.0599,-3.0326 -0.1042,-4.6264 -0.1581,-7.6053 -0.6881,0.2028 -1.0841,0.3275 -1.7753,0.5332 0.0624,2.7792 0.1399,5.5588 0.2058,8.3386 0.4672,0.1759 0.6999,0.259 1.1646,0.4318 1.4388,-0.5124 2.1508,-0.7597 3.5689,-1.2422 0.45,-0.4824 0.6731,-0.7241 1.1261,-1.2036 -0.0301,-3.2171 -0.0537,-4.8738 -0.0777,-8.0432 -0.6759,0.1875 -1.1051,0.3096 -1.7844,0.5033 z"
   id="path1931" />
   <path
   class="fil0"
   d="m 37.6574,88.7057 c 0.1844,0.0982 0.2772,0.149 0.4617,0.2442 l 0.0328,0.0178 0.6732,-0.1814 0.5153,-0.5391 V 87.526 L 39.2897,87.4991 C 39.1023,87.4008 39.0069,87.35 38.8196,87.2487 l -0.033,-0.0178 -0.6791,0.1789 -0.5037,0.5484 0.003,0.7206 0.0507,0.0269 z"
   id="path1933" />
   <path
   class="fil0"
   d="m 40.8987,88.2176 0.0324,0.0146 0.6676,-0.1696 0.4946,-0.5185 v -0.0385 c 0,-0.2413 0.0031,-0.3604 0.0061,-0.6047 v -0.0567 l -0.0476,-0.0269 c -0.1789,-0.1013 -0.2682,-0.1521 -0.447,-0.256 l -0.033,-0.0182 -0.6698,0.1641 -0.5155,0.5301 -0.003,0.7122 0.0506,0.0269 c 0.1875,0.0952 0.2796,0.146 0.4646,0.2412 z"
   id="path1935" />
   <path
   class="fil0"
   d="m 119.0787,87.8365 -5.3617,6.5477 -6.5185,-4.9482 -3.5989,-0.6077 c -45.0842,4.2154 -79.0312,19.0422 -98.2114,31.3896 0.4587,-0.2948 21.3209,-4.2333 23.3055,-4.1586 -0.8494,0.8103 -15.5949,14.2666 -16.6888,14.7608 0.4703,-0.1758 19.7452,-7.007 19.7179,-7.0155 -1.4599,2.0642 -12.3481,16.0805 -12.8457,16.5994 0.1935,-0.003 11.5169,-6.265 11.5193,-6.0891 -0.5751,1.3943 -6.5121,16.0654 -7.7964,18.5922 0.2564,-0.1343 5.9102,-3.9443 5.9102,-3.9443 l -0.3689,30.1147 c 0,0 10.7811,-7.1078 33.6449,-20.0037 -0.1135,0 -1.8562,6.0385 -1.8562,6.1516 0.1135,0.2295 17.5766,-14.5496 42.9486,-25.9266 0.047,0.0476 -3.4828,5.6187 -3.4021,5.5797 0,0.0329 21.7649,-15.8601 48.334,-22.7332 0,0 -1.6801,3.2293 -1.7812,3.3307 -0.008,0.0177 9.0479,-3.873 14.4996,-5.2403 l 0.733,-30.711 c -14.8447,-1.6923 -28.9331,-2.1569 -42.1826,-1.6892 l -5e-4,0.001 z"
   id="path1937" />
   <path
   class="fil3"
   d="m 42.5789,149.0069 c -0.3279,-12.7272 -0.8911,-39.7757 -0.8911,-39.7757 -1.1352,0.3541 -7.4417,2.8598 -7.4417,2.8598 0,0 0.6912,30.213 1.1114,44.5421 0.1069,3.6433 0.3365,10.9781 0.3365,10.9781 l 7.2569,-4.3644 c 0,0 -0.2474,-9.3362 -0.372,-14.2399 z"
   id="path1939" />
   <path
   class="fil3"
   d="m 63.5509,137.3689 -6.3512,3.1339 c 0,0 0.1429,4.1618 0.1791,6.3395 0.0176,0.9924 -0.4324,1.6954 -1.5824,2.3536 -0.8073,0.4617 -1.4418,0.5869 -1.6292,0.5124 -0.1637,-0.0628 -0.2383,-0.3158 -0.2505,-0.6791 -0.2443,-6.5898 -0.8666,-24.9048 -0.8666,-24.9048 -0.045,-1.2123 0.7831,-2.1747 1.9689,-2.6902 0.5032,-0.2204 0.8697,-0.262 1.0846,-0.1252 0.2203,0.1404 0.3424,0.5038 0.3664,1.0785 0.086,2.2968 0.2319,6.2143 0.2319,6.2143 l 6.6705,-2.8268 -0.155,-8.0671 c -0.0777,-2.8329 -0.9595,-3.9413 -1.856,-4.5369 -1.5462,-1.0251 -4.1439,-0.5099 -6.3096,0.2022 -1.6592,0.5484 -1.6176,0.5601 -2.7168,0.9954 -5.1627,2.0433 -7.0393,6.64 -6.7475,13.873 0.2383,8.6626 0.4466,16.271 0.6939,24.9343 0.1043,2.1594 0.042,3.5089 1.5046,4.406 1.445,0.8874 4.6321,0.3721 9.506,-2.6393 4.8769,-3.0118 6.5452,-5.6097 6.3785,-11.1059 -0.0389,-2.2192 -0.1191,-6.4673 -0.1191,-6.4673 l -5e-4,-4e-4 z"
   id="path1941" />
   <polygon
   class="fil3"
   points="92.281,102.0743 92.8411,136.9524 98.513,134.3844 97.9769,100.6714 "
   id="polygon1943" />
   <path
   class="fil3"
   d="m 114.7777,98.7112 c -1.3821,-1.144 -3.7265,-1.3436 -6.1936,-0.6761 -5.4247,1.4747 -7.6436,4.0397 -7.5339,8.392 l 0.0836,6.0801 c 0.0719,5.0704 0.1399,9.9767 0.2058,15.0293 0.008,1.7338 0.3426,2.7556 1.272,3.3869 0.5478,0.3695 1.2183,0.5185 1.945,0.5124 1.4957,-0.006 3.2234,-0.6668 4.6297,-1.3136 4.781,-2.2045 7.3789,-3.9799 7.2298,-9.2261 -0.0182,-3.0302 -0.0265,-6.3096 -0.0234,-10.0274 v -0.3158 l -0.3009,0.0923 c -2.5739,0.7834 -4.0781,1.2543 -6.7413,2.196 l -0.1551,0.0532 v 0.1672 c 0.009,2.5496 0.0121,3.8368 0.0238,6.3064 v 0.3426 l 0.8636,-0.3578 c 0.2357,-0.0951 0.7181,-0.2736 0.9624,-0.3719 0.0122,1.829 0.0328,2.9105 -0.1013,4.6767 -0.0391,0.5306 -0.623,1.0993 -1.7637,1.6061 -0.8698,0.3841 -1.4774,0.4139 -1.5909,0.3365 -0.0358,-0.0207 -0.1399,-0.0893 -0.1399,-0.3872 -0.0532,-6.2534 -0.0981,-12.6161 -0.1398,-19.4533 -0.009,-1.531 0.6432,-2.0256 1.6232,-2.2938 0.6913,-0.188 1.12,-0.1965 1.3404,-0.0269 0.2028,0.1576 0.3042,0.5185 0.3042,1.1054 l 0.009,3.7295 0.301,-0.0923 c 1.9958,-0.6168 3.211,-0.9355 5.0522,-1.418 l 0.4556,-0.1191 0.008,-3.2532 c 0.0235,-2.3475 -0.4293,-3.6884 -1.6237,-4.6801 z"
   id="path1945" />
   <path
   class="fil3"
   d="m 128.8938,117.3196 c 0,0 -2.9222,0.8966 -4.6026,1.3997 -0.0122,-2.4428 -0.008,-3.8906 0.008,-6.6607 1.7721,-0.4349 4.1973,-1.0339 4.1973,-1.0339 l 0.0141,-5.371 c 0,0 -2.5051,0.5125 -4.1704,0.8636 0.0209,-2.3353 0.036,-3.6165 0.0624,-5.851 0.6558,-0.1069 4.3975,-0.6821 4.3975,-0.6821 0,0 0.0172,-4.6559 0.0263,-5.1536 -4.8794,0.5722 -9.9675,1.3613 -9.9675,1.3613 0,0 0.1074,29.1881 0.1074,29.7902 2.8627,-1.1468 9.9347,-3.5901 9.9347,-3.5901 l -0.007,-5.0725 z"
   id="path1947" />
   <g
   id="g1951">
    <path
   class="fil3"
   d="m 139.3646,99.8858 -0.0324,4.4295 c -0.0117,1.7666 -0.3907,2.1062 -1.6893,2.3597 -0.5333,0.1013 -0.8342,0.1611 -1.3908,0.2832 0.0415,-2.7261 0.0857,-5.5767 0.1361,-8.2997 0.6761,-0.0958 1.0432,-0.1374 1.6218,-0.2028 l 0.2557,-0.0269 c 0.3515,-0.039 0.602,0.0117 0.7681,0.1637 0.227,0.2088 0.3373,0.6315 0.3309,1.2929 v 3e-4 z m -1.3819,-5.899 v 0 c -2.3262,0.1196 -6.426,0.5783 -6.426,0.5783 l -0.4137,27.1063 4.9742,-1.5968 c 0,0 0.0272,-5.2519 0.0636,-8.0854 0.602,-0.1521 0.8965,-0.2234 1.4115,-0.3426 0.7513,-0.1759 1.2273,-0.1698 1.457,0.0147 0.1608,0.1313 0.2387,0.3842 0.2387,0.7774 -0.0131,2.6753 0,6.6882 0,6.6882 l 4.8497,-1.3435 c 0,0 0.044,-3.542 0.0765,-5.9731 -0.0143,-2.4158 -0.4969,-3.2085 -2.4625,-3.5212 1.8528,-0.9116 2.5261,-2.419 2.6027,-5.5529 l 0.0544,-3.4883 c 0.1389,-1.8144 -0.2414,-3.1817 -1.1327,-4.0664 -1.0482,-1.0456 -2.7284,-1.3289 -5.2908,-1.1946 h -0.003 z"
   id="path1949" />
   </g>
   <path
   class="fil3"
   d="m 97.8932,93.96 c -10.8617,1.9273 -17.9815,3.4675 -26.198,5.6366 l 0.1014,5.2757 c 0,0 8.8744,-2.4843 9.9347,-2.6961 0.0744,5.1566 0.7742,39.5821 0.7742,39.5821 l 6.5722,-3.2024 c 0,0 -0.5602,-32.7754 -0.6169,-37.9376 2.9198,-0.7004 9.4347,-2.2973 9.4347,-2.2973 L 97.8933,93.96 Z"
   id="path1953" />
   <path
   class="fil3"
   d="m 152.2074,102.5167 c -1.3675,-0.3511 -1.549,-0.9112 -1.5335,-2.1986 l 0.0182,-1.4655 c 0.0143,-1.2422 0.3035,-1.7099 1.1794,-1.7607 1.1884,-0.0684 1.2181,1.1591 1.209,2.008 -0.009,0.8458 0,0.9142 -0.0142,1.2152 2.0759,-0.2082 4.0685,-0.2619 4.0685,-0.2619 0,0 0.009,-1.892 -0.0272,-2.7378 -0.0416,-0.9086 -0.3387,-1.8858 -0.8966,-2.4965 -1.1677,-1.2781 -2.8945,-1.2867 -4.7355,-1.2867 -1.6127,0 -2.9893,0.4884 -3.8233,1.3551 -0.9641,1.0101 -1.1976,2.4042 -1.2028,4.7158 l -0.009,1.4332 c -0.0985,2.9729 0.4229,5.1449 4.4294,5.8833 1.4413,0.2145 1.806,0.3725 1.7878,1.5847 -0.0144,0.9741 -0.0779,1.3826 -0.122,2.3388 -0.0389,0.8397 -0.2752,1.5074 -1.1145,1.5757 -1.0457,0.0837 -1.0936,-0.5599 -1.1442,-1.8113 l -0.008,-1.3253 c -2.5377,0.3426 -4.0803,0.6582 -4.0803,0.6582 0.009,0.4227 -0.013,0.9204 0.044,2.1864 0.0663,1.5341 0.3581,3.0119 1.3507,3.6971 0.655,0.4501 1.2947,0.6284 2.2808,0.602 0.4735,-0.0122 0.986,-0.1374 1.553,-0.2712 4.537,-1.0905 5.4658,-2.8512 5.5696,-7.1382 0.0985,-3.8845 0.388,-5.1774 -4.7809,-6.5001 h 10e-4 z"
   id="path1955" />
   <path
   class="fil3"
   d="m 79.178,137.7202 c 0,0 -3.5507,1.6592 -5.6929,2.6661 -0.0714,-3.0356 -0.1521,-6.0176 -0.235,-9.0533 l 5.0967,-2.1599 -0.1576,-7.4626 -5.1565,1.9811 -0.2535,-8.4362 5.5676,-1.8589 c 0,0 -0.119,-5.7673 -0.1667,-7.388 -1.9005,0.4586 -12.2645,3.7417 -12.2645,3.7417 l 1.0902,39.7614 12.2679,-6.2533 -0.0956,-5.5382 z"
   id="path1957" />
  </g>
 </g>
</svg>
