<?xml version="1.0" encoding="UTF-8" standalone="no"?>
<svg
   width="200"
   height="200"
   version="1.2"
   viewBox="0 0 150 150"
   id="svg3674"
   sodipodi:docname="logo_DEL.svg"
   inkscape:version="1.1 (c68e22c387, 2021-05-23)"
   xmlns:inkscape="http://www.inkscape.org/namespaces/inkscape"
   xmlns:sodipodi="http://sodipodi.sourceforge.net/DTD/sodipodi-0.dtd"
   xmlns="http://www.w3.org/2000/svg"
   xmlns:svg="http://www.w3.org/2000/svg">
  <sodipodi:namedview
     id="namedview3676"
     pagecolor="#ffffff"
     bordercolor="#666666"
     borderopacity="1.0"
     inkscape:pageshadow="2"
     inkscape:pageopacity="0.0"
     inkscape:pagecheckerboard="0"
     showgrid="false"
     inkscape:zoom="2.1591837"
     inkscape:cx="244.76843"
     inkscape:cy="120.18431"
     inkscape:window-width="1920"
     inkscape:window-height="1017"
     inkscape:window-x="-8"
     inkscape:window-y="-8"
     inkscape:window-maximized="1"
     inkscape:current-layer="svg3674" />
  <defs
     id="defs3648">
    <clipPath
       id="clipPath3521">
      <path
         d="M 0,0 H 595.27 V 239.4 H 0 Z"
         id="path3519" />
    </clipPath>
    <clipPath
       id="clipPath3525">
      <path
         d="M 0,0 H 595.27 V 239 H 0 Z"
         id="path3523" />
    </clipPath>
    <clipPath
       id="clip5">
      <rect
         width="596"
         height="240"
         id="rect3527"
         x="0"
         y="0" />
    </clipPath>
    <g
       clip-path="url(#clip5)"
       id="g3530" />
    <clipPath
       id="clip3">
      <rect
         width="596"
         height="240"
         id="rect3532"
         x="0"
         y="0" />
    </clipPath>
    <g
       clip-path="url(#clip3)"
       id="g3535" />
    <clipPath
       id="clipPath3539">
      <path
         d="m 0,0.42578 h 595.27 v 88.598 H 0 Z"
         id="path3537" />
    </clipPath>
    <clipPath
       id="clipPath3543">
      <path
         d="M 0,1 H 595.27 V 89 H 0 Z"
         id="path3541" />
    </clipPath>
    <clipPath
       id="clip10">
      <rect
         width="596"
         height="90"
         id="rect3545"
         x="0"
         y="0" />
    </clipPath>
    <g
       clip-path="url(#clip10)"
       id="g3548" />
    <clipPath
       id="clip8">
      <rect
         width="596"
         height="90"
         id="rect3550"
         x="0"
         y="0" />
    </clipPath>
    <g
       clip-path="url(#clip8)"
       id="g3553" />
    <clipPath
       id="clipPath3557">
      <path
         d="M 0,0 H 225.66 V 841.89 H 0 Z"
         id="path3555" />
    </clipPath>
    <clipPath
       id="clipPath3561">
      <path
         d="M 0,0 H 225 V 841.89 H 0 Z"
         id="path3559" />
    </clipPath>
    <clipPath
       id="clip15">
      <rect
         width="226"
         height="842"
         id="rect3563"
         x="0"
         y="0" />
    </clipPath>
    <g
       clip-path="url(#clip15)"
       id="g3566" />
    <clipPath
       id="clip13">
      <rect
         width="226"
         height="842"
         id="rect3568"
         x="0"
         y="0" />
    </clipPath>
    <g
       clip-path="url(#clip13)"
       id="g3571" />
    <clipPath
       id="clip21">
      <path
         d="m 491.91,785.05 h 75.77 v 37.133 h -75.77 z"
         id="path3573" />
    </clipPath>
    <clipPath
       id="clipPath3578">
      <path
         d="m 0.39062,0.73828 h 130.32 v 55.801 h -130.32 z"
         id="path3576" />
    </clipPath>
    <clipPath
       id="clip22">
      <rect
         width="131"
         height="57"
         id="rect3580"
         x="0"
         y="0" />
    </clipPath>
    <g
       clip-path="url(#clip22)"
       id="g3583" />
    <clipPath
       id="clipPath3587">
      <path
         d="m 0.39062,0.70703 h 204.48 v 61.199 h -204.48 z"
         id="path3585" />
    </clipPath>
    <clipPath
       id="clip24">
      <rect
         width="205"
         height="62"
         id="rect3589"
         x="0"
         y="0" />
    </clipPath>
    <g
       clip-path="url(#clip24)"
       id="g3592" />
    <clipPath
       id="clipPath3596">
      <path
         d="m 0.45312,0.67188 h 208.08 v 55.801 h -208.08 z"
         id="path3594" />
    </clipPath>
    <clipPath
       id="clip26">
      <rect
         width="209"
         height="57"
         id="rect3598"
         x="0"
         y="0" />
    </clipPath>
    <g
       clip-path="url(#clip26)"
       id="g3601" />
    <clipPath
       id="clipPath3605">
      <path
         d="m 0.46094,0.38672 h 247.68 v 60.121 h -247.68 z"
         id="path3603" />
    </clipPath>
    <clipPath
       id="clip28">
      <rect
         width="249"
         height="61"
         id="rect3607"
         x="0"
         y="0" />
    </clipPath>
    <g
       clip-path="url(#clip28)"
       id="g3610" />
    <clipPath
       id="clipPath3614">
      <path
         d="m 0.55078,0.3125 h 76.32 v 76.68 h -76.32 z"
         id="path3612" />
    </clipPath>
    <clipPath
       id="clip30">
      <rect
         width="77"
         height="77"
         id="rect3616"
         x="0"
         y="0" />
    </clipPath>
    <g
       clip-path="url(#clip30)"
       id="g3619" />
    <clipPath
       id="clipPath3623">
      <path
         d="m 0.83594,0.64453 h 201.6 v 153 h -201.6 z"
         id="path3621" />
    </clipPath>
    <clipPath
       id="clip32">
      <rect
         width="203"
         height="154"
         id="rect3625"
         x="0"
         y="0" />
    </clipPath>
    <g
       clip-path="url(#clip32)"
       id="g3628" />
    <clipPath
       id="clipPath3632">
      <path
         d="m 0.64844,0.50781 h 225 v 119.88 h -225 z"
         id="path3630" />
    </clipPath>
    <clipPath
       id="clip34">
      <rect
         width="226"
         height="121"
         id="rect3634"
         x="0"
         y="0" />
    </clipPath>
    <g
       clip-path="url(#clip34)"
       id="g3637" />
    <clipPath
       id="clipPath3641">
      <path
         d="m 0.83594,0.12891 h 269.28 v 144 h -269.28 z"
         id="path3639" />
    </clipPath>
    <clipPath
       id="clip36">
      <rect
         width="271"
         height="145"
         id="rect3643"
         x="0"
         y="0" />
    </clipPath>
    <g
       clip-path="url(#clip36)"
       id="g3646" />
  </defs>
  <g
     transform="matrix(1.979806,0,0,1.979806,-973.88637,-1516.0077)"
     id="g3672">
    <g
       clip-path="url(#clip21)"
       id="g3652">
      <path
         d="m 557.21,822.19 h -54.836 c -5.7812,0 -10.469,-4.6875 -10.469,-10.469 v -16.199 c 0,-5.7812 4.6875,-10.469 10.469,-10.469 h 54.836 c 5.7812,0 10.465,4.6875 10.465,10.469 v 16.199 c 0,5.7812 -4.6836,10.469 -10.465,10.469"
         fill="#ffffff"
         id="path3650" />
    </g>
    <g
       fill="#cc1114"
       id="g3666">
      <path
         d="m 528.43,819.87 h -26.043 c -4.5,0 -8.1445,-3.6445 -8.1445,-8.1445 v -16.199 c 0,-4.5 3.6445,-8.1484 8.1445,-8.1484 h 26.043 z"
         id="path3654" />
      <path
         d="m 558.76,802.06 -0.32812,1.0078 c 2.0976,-0.0508 4.1992,-0.47657 5.1641,-1.1328 0.60547,-0.41406 0.85156,-0.96093 1.1641,-1.9102 -0.90625,1.0117 -2.9219,1.7812 -5.7226,1.8633 -0.0312,0 -0.0508,0.004 -0.0742,0.008 -0.082,0.008 -0.17578,0.0703 -0.20313,0.16406 m 6.5274,-3.7383 c -0.19532,1.4883 -2.5312,2.8203 -6.2539,2.8867 l 0.62109,-1.9102 c 0.0274,-0.082 0.11328,-0.14843 0.20703,-0.16015 0.0234,-0.004 0.0469,-0.008 0.0703,-0.008 1.9375,-0.14063 3.1406,-0.7461 3.25,-1.4062 0.125,-0.72657 -1.3633,-1.2695 -3.2578,-1.2695 -1.8828,0 -3.4844,0.47657 -3.9805,1.2891 h -1.8047 c 0.61719,-1.0703 3,-2.0039 5.9726,-2.0039 3.0117,0 5.3672,1.1016 5.1758,2.582"
         fill-rule="evenodd"
         id="path3656" />
      <g
         id="g3664">
        <path
           d="m 534.53,806.05 h 2.2461 c 1.1172,0 1.6328,-0.33203 1.9414,-1.2812 l 0.74219,-2.2812 c 0.0391,-0.15234 0.0781,-0.28515 0.0937,-0.40234 0.0937,-0.63281 -0.26953,-0.88281 -1.2031,-0.88281 h -2.2461 z m 8.1992,-4.2109 c -0.0391,0.26562 -0.0976,0.53125 -0.1875,0.8164 l -0.6289,1.9414 c -0.73047,2.2383 -2.0039,3.5195 -4.8242,3.5195 h -6.2031 c -0.0898,0 -0.14062,-0.0742 -0.11328,-0.16406 l 2.8125,-8.6484 c 0.0273,-0.0937 0.12891,-0.16797 0.21875,-0.16797 h 6.1875 c 2.0195,0 2.9922,0.98438 2.7383,2.7031"
           id="path3658" />
        <path
           d="m 561.37,806.05 -4.4062,-0.004 c -0.93359,0 -1.2226,-0.10546 -1.1406,-0.66406 0.0195,-0.125 0.0625,-0.28515 0.125,-0.48437 l 1.8203,-5.5977 c 0.0273,-0.0937 -0.0234,-0.16797 -0.11328,-0.16797 h -2.8047 c -0.0937,0 -0.1914,0.0742 -0.22265,0.16797 l -0.5625,1.7305 -1.3672,4.207 c -0.0977,0.30859 -0.17578,0.59375 -0.21485,0.86328 -0.20703,1.4024 0.54688,2.0117 2.3047,2.0117 l 5.9102,0.004 c 0.0898,0 0.1914,-0.0742 0.21875,-0.16797 l 0.5664,-1.7305 c 0.0273,-0.0937 -0.0234,-0.16797 -0.11328,-0.16797"
           id="path3660" />
        <path
           d="m 553.57,799.13 h -5.9219 c -2.6211,0 -3.3047,0.86328 -3.9453,2.875 l -1.0469,3.2344 c -0.10156,0.30078 -0.17968,0.58984 -0.21875,0.85937 -0.20703,1.4024 0.54688,2.0117 2.3086,2.0117 h 5.9062 c 0.0937,0 0.1914,-0.0742 0.21875,-0.16406 l 0.5664,-1.7344 c 0.0274,-0.0937 -0.0234,-0.16797 -0.11328,-0.16797 h -4.4023 c -0.9375,0 -1.2266,-0.10546 -1.1406,-0.66406 0.0156,-0.125 0.0586,-0.28515 0.125,-0.48437 l 0.10547,-0.32813 h 3.9062 c 0.0937,0 0.19141,-0.0742 0.22266,-0.16406 l 0.53125,-1.6445 c 0.0312,-0.0898 -0.0195,-0.16406 -0.11328,-0.16406 h -3.9062 l 0.0781,-0.25 c 0.32422,-0.96875 0.60156,-1.1484 1.7695,-1.1484 h 4.3984 c 0.0937,0 0.19141,-0.0742 0.22266,-0.16797 l 0.5625,-1.7305 c 0.0273,-0.0937 -0.0195,-0.16797 -0.11328,-0.16797"
           id="path3662" />
      </g>
    </g>
    <path
       d="m 525.68,805.31 c 0,0.65235 -0.53125,1.1836 -1.1836,1.1836 -0.65234,0 -1.1836,-0.53125 -1.1836,-1.1836 0,-0.65234 0.53125,-1.1836 1.1836,-1.1836 0.65235,0 1.1836,0.53125 1.1836,1.1836"
       fill="#ffd400"
       id="path3668" />
    <path
       d="m 499.45,803.52 h 0.4414 c 0.5,0 0.80469,-0.30859 0.85938,-0.69531 0.0469,-0.33203 -0.18359,-0.69531 -0.65625,-0.69531 h -0.42188 z m 22.238,-0.80469 1,-1.8789 h 2.3047 l -3.4766,5.5039 h -2.3438 l 1.1133,-1.5703 -1.2695,-3.8164 -0.86718,5.3867 h -1.8438 l -1.1328,-2.543 -0.40625,2.543 h -1.8438 l 0.88672,-5.5039 h 1.8906 l 1.0938,2.4648 0.39844,-2.4648 h 4.0273 z m -8.6133,-1.8789 -0.88281,5.5039 h -1.8438 l -1.1328,-2.543 -0.41015,2.543 h -1.8398 l 0.88282,-5.5039 h 1.8945 l 1.0938,2.4648 0.39843,-2.4648 z m -12.457,-0.082 c 1.2734,0 2.1367,0.6875 2.1445,1.8008 l 0.27734,-1.7188 h 4.1719 l -0.22266,1.3945 h -2.2031 l -0.10938,0.65625 h 1.9922 l -0.21875,1.375 h -2 l -0.11328,0.68359 h 2.2422 l -0.22656,1.3945 h -4.1992 l 0.48047,-2.9805 c -0.32422,0.96485 -1.2031,1.5352 -2.3555,1.5352 h -1.0508 l -0.23047,1.4453 h -2.0039 l 0.89843,-5.5859 z"
       fill="#ffffff"
       id="path3670" />
  </g>
</svg>
