<?xml version="1.0" encoding="UTF-8" standalone="no"?>
<!-- Generator: Adobe Illustrator 16.0.2, SVG Export Plug-In . SVG Version: 6.00 Build 0)  -->

<svg
   version="1.0"
   id="Ebene_1"
   x="0px"
   y="0px"
   width="200"
   height="200"
   viewBox="19.821 15.229 200 200"
   enable-background="new 19.821 15.229 159.25 159"
   xml:space="preserve"
   sodipodi:docname="logo_DEG.svg"
   inkscape:version="1.1 (c68e22c387, 2021-05-23)"
   xmlns:inkscape="http://www.inkscape.org/namespaces/inkscape"
   xmlns:sodipodi="http://sodipodi.sourceforge.net/DTD/sodipodi-0.dtd"
   xmlns="http://www.w3.org/2000/svg"
   xmlns:svg="http://www.w3.org/2000/svg"><defs
   id="defs1145" /><sodipodi:namedview
   id="namedview1143"
   pagecolor="#ffffff"
   bordercolor="#666666"
   borderopacity="1.0"
   inkscape:pageshadow="2"
   inkscape:pageopacity="0.0"
   inkscape:pagecheckerboard="0"
   showgrid="false"
   inkscape:zoom="1.3081761"
   inkscape:cx="383.35817"
   inkscape:cy="18.728365"
   inkscape:window-width="1920"
   inkscape:window-height="1017"
   inkscape:window-x="-8"
   inkscape:window-y="-8"
   inkscape:window-maximized="1"
   inkscape:current-layer="Ebene_1" />









<g
   id="g1558"
   transform="matrix(1.2514663,0,0,1.2514663,-4.6767447,-3.52076)"><path
     d="m 22.909,94.885 c 0,-42.277 34.281,-76.558 76.572,-76.558 42.292,0 76.572,34.281 76.572,76.558 0,42.291 -34.281,76.572 -76.572,76.572 -42.291,0 -76.572,-34.281 -76.572,-76.572 z m -0.94,0 c 0,-42.808 34.704,-77.513 77.512,-77.513 42.808,0 77.513,34.705 77.513,77.513 0,42.822 -34.705,77.52 -77.513,77.52 -42.808,0 -77.512,-34.697 -77.512,-77.52"
     id="path1122" /><path
     fill="#ffffff"
     d="m 22.909,94.885 c 0,-42.277 34.281,-76.558 76.572,-76.558 42.292,0 76.572,34.281 76.572,76.558 0,42.291 -34.281,76.572 -76.572,76.572 -42.291,0 -76.572,-34.281 -76.572,-76.572"
     id="path1124" /><path
     fill="#e42129"
     d="m 99.481,20.208 c -41.25,0 -74.677,33.448 -74.677,74.677 0,41.251 33.426,74.677 74.677,74.677 41.243,0 74.677,-33.427 74.677,-74.677 0,-41.229 -33.434,-74.677 -74.677,-74.677 z m -0.029,138.415 c -34.783,0.001 -62.977,-28.194 -62.977,-62.97 0,-34.784 28.194,-62.978 62.977,-62.978 34.791,0 62.985,28.194 62.985,62.978 0,34.776 -28.194,62.97 -62.985,62.97 z"
     id="path1126" /><path
     fill="#e42129"
     d="m 135.628,85.669 c -0.014,0.732 0.058,1.457 0.237,2.175 0.201,0.883 0.552,1.751 1.069,2.521 0.502,0.761 1.148,1.407 1.895,1.938 0.294,0.208 0.66,0.409 1.033,0.488 0.129,0.029 0.309,0.015 0.453,0 0.237,-0.05 0.488,-0.122 0.725,-0.208 0.424,-0.165 0.818,-0.409 1.17,-0.725 0.546,-0.481 0.955,-1.112 1.206,-1.801 0.395,-1.134 0.488,-2.397 0.395,-3.589 -0.115,-1.5 -0.552,-2.972 -1.17,-4.335 -0.517,-1.12 -1.148,-2.189 -1.931,-3.137 -0.409,-0.495 -1.069,-1.17 -1.529,-1.644 -0.337,0.38 -0.818,0.955 -1.127,1.356 -0.459,0.617 -0.854,1.263 -1.191,1.952 -0.768,1.556 -1.22,3.279 -1.235,5.009 z m -23.435,-29.96 -0.617,0.05 c -0.144,0.014 -0.309,0.043 -0.452,0.086 -0.165,0.043 -0.309,0.145 -0.402,0.294 -0.057,0.101 -0.072,0.244 -0.072,0.366 0,0.179 0.029,0.352 0.086,0.517 0.05,0.129 0.107,0.266 0.179,0.352 0.137,0.115 0.352,0.129 0.531,0.101 0.101,0 0.208,-0.043 0.251,-0.115 0.086,-0.101 0.115,-0.294 0.129,-0.431 0.015,-0.172 0.058,-0.524 0.208,-0.632 0.172,-0.057 0.222,-0.057 0.265,-0.072 l 0.259,-0.251 -0.043,-0.237 c -0.057,-0.057 -0.229,-0.042 -0.322,-0.028 z m 1.765,5.577 0.015,0.438 0.014,0.488 c 0,0.28 -0.014,0.603 -0.101,0.861 -0.072,0.194 -0.151,0.374 -0.179,0.488 -0.029,0.086 -0.015,0.179 0.014,0.251 0.043,0.101 0.136,0.18 0.237,0.158 0.136,-0.029 0.617,-0.28 0.675,-0.424 0.079,-0.222 0.151,-0.459 0.194,-0.689 0.101,-0.459 0.158,-0.926 0.158,-1.385 0,-0.538 -0.072,-1.084 -0.201,-1.615 -0.072,-0.28 -0.18,-0.574 -0.323,-0.826 -0.029,-0.072 -0.445,-0.101 -0.517,-0.144 -0.043,-0.029 -0.115,-0.057 -0.165,-0.029 -0.058,0.029 -0.086,0.144 -0.086,0.215 0.015,0.18 0.029,0.237 0.015,0.28 -0.029,0.222 0.028,0.416 0.072,0.517 0.107,0.266 0.15,0.459 0.165,0.632 0.014,0.179 0.014,0.395 0.014,0.574 z m 1.5,26.457 c -0.086,0.058 -0.165,0.043 -0.337,-0.057 -0.266,-0.18 -0.424,-0.474 -0.474,-0.783 -0.028,-0.129 -0.129,-0.229 -0.251,-0.309 -0.058,-0.043 -0.316,-0.014 -0.395,0 -0.266,0.079 -0.481,0.517 -0.574,0.71 -0.086,0.201 -0.215,0.453 -0.366,0.632 -0.115,0.129 -0.337,0.294 -0.488,0.409 l -0.567,0.438 -0.366,0.266 c -0.165,0.122 -0.28,0.28 -0.474,0.294 -0.194,0.029 -0.266,0.043 -0.366,-0.115 -0.179,-0.266 -0.294,-0.998 -0.337,-1.306 -0.029,-0.151 -0.079,-0.331 -0.122,-0.459 -0.057,-0.251 -0.129,-0.589 -0.129,-0.84 0.014,-0.201 0.029,-0.689 -0.058,-0.869 -0.05,-0.101 -0.151,-0.187 -0.266,-0.158 -0.122,0.029 -0.474,0.366 -0.56,0.474 -0.115,0.115 -0.323,0.244 -0.474,0.33 -0.287,0.18 -0.495,0.287 -0.674,0.316 -0.201,0.029 -0.409,-0.029 -0.574,-0.165 -0.23,-0.194 -0.38,-0.452 -0.438,-0.747 -0.029,-0.107 -0.043,-0.266 -0.058,-0.38 l -0.122,-0.417 -0.337,0.058 c -0.129,0.086 -0.294,0.237 -0.409,0.337 -0.101,0.079 -0.251,0.208 -0.352,0.28 -0.266,0.194 -0.416,0.294 -0.725,0.402 -0.337,0.101 -0.661,0.172 -1.012,0.215 -0.323,0.029 -0.66,0.029 -0.983,-0.072 -0.323,-0.1 -0.632,-0.294 -0.883,-0.531 -0.208,-0.187 -0.072,-0.086 -0.223,-0.323 -0.072,-0.115 -0.115,-0.266 -0.072,-0.38 0.043,-0.101 0.208,-0.115 0.309,-0.129 0.151,-0.043 0.38,-0.043 0.531,-0.043 0.072,0.015 0.201,0.015 0.28,0.015 0.273,-0.015 0.381,-0.18 0.646,-0.287 0.352,-0.144 0.618,-0.395 0.94,-0.61 0.309,-0.237 0.481,-0.603 0.617,-0.955 0.086,-0.237 -0.136,-0.696 -0.093,-0.933 -0.272,0.136 -0.631,0.294 -0.918,0.388 -0.388,0.115 -0.797,0.129 -1.192,0.086 -0.122,-0.014 -0.28,-0.043 -0.402,-0.072 -0.158,-0.043 -0.366,-0.086 -0.524,-0.107 -0.136,-0.015 -0.402,-0.043 -0.502,-0.129 -0.057,-0.072 -0.072,-0.165 -0.057,-0.251 0.043,-0.115 0.144,-0.237 0.222,-0.337 0.172,-0.165 0.302,-0.309 0.366,-0.409 0.086,-0.194 0.115,-0.517 0.115,-0.754 -0.223,0.137 -0.452,0.266 -0.675,0.38 -0.237,0.108 -0.502,0.166 -0.768,0.194 -0.438,0.043 -0.875,0 -1.306,-0.115 -0.531,-0.136 -1.041,-0.366 -1.5,-0.696 -0.51,-0.38 -0.869,-0.955 -1.026,-1.572 -0.115,-0.452 -0.137,-0.94 -0.029,-1.407 0.029,-0.18 0.129,-0.417 0.201,-0.589 l 0.151,-0.309 c 0.043,-0.136 0.101,-0.237 0.18,-0.294 0.072,-0.058 0.172,-0.079 0.244,-0.029 0.094,0.072 0.137,0.208 0.166,0.309 l 0.043,0.158 c 0.029,0.137 0.057,0.266 0.101,0.402 0.064,0.172 0.165,0.337 0.28,0.467 0.165,0.165 0.388,0.266 0.603,0.337 0.251,0.072 0.517,0.086 0.768,0.043 0.251,-0.043 0.495,-0.129 0.689,-0.294 0.194,-0.172 0.352,-0.366 0.481,-0.596 0.036,-0.079 0.079,-0.15 0.122,-0.194 l 0.208,-0.079 0.229,-0.129 c 0.058,-0.014 0.122,-0.029 0.18,-0.043 l 0.179,-0.043 c 0.058,-0.029 0.129,-0.058 0.158,-0.115 0.028,-0.064 0.014,-0.136 -0.015,-0.179 -0.072,-0.101 -0.194,-0.194 -0.309,-0.251 -0.337,-0.294 -0.323,-0.352 -0.452,-0.617 l -0.093,-0.208 c -0.029,-0.058 -0.101,-0.201 -0.086,-0.266 0.014,-0.086 0.144,-0.187 0.237,-0.244 0.158,-0.107 0.229,-0.194 0.294,-0.251 l 0.144,-0.18 c 0.086,-0.072 0.208,-0.201 0.266,-0.309 0.086,-0.158 0.115,-0.423 0.129,-0.603 l -0.029,-0.481 c 0,-0.122 -0.129,-0.28 -0.215,-0.352 -0.029,-0.036 -0.122,-0.165 -0.151,-0.194 -0.086,-0.115 -0.194,-0.366 -0.251,-0.517 -0.086,-0.23 -0.158,-0.495 -0.158,-0.761 0,-0.194 0.043,-0.474 0.086,-0.675 l 0.043,-0.28 c 0.029,-0.122 0.043,-0.208 0.072,-0.309 0.014,-0.072 0.05,-0.15 0.079,-0.222 0.014,-0.072 0.057,-0.165 0.115,-0.194 0.122,-0.043 0.136,0.014 0.237,0.093 0.129,0.086 0.28,0.215 0.423,0.28 0.38,0.158 0.84,0.215 1.249,0.215 0.488,0 1.005,-0.014 1.472,-0.043 l -0.029,-0.912 c -0.015,-0.38 0,-0.825 0.043,-1.191 0.101,-0.632 0.352,-1.234 0.675,-1.773 0.294,-0.474 0.617,-0.919 1.005,-1.313 0.086,-0.101 0.229,-0.223 0.366,-0.237 0.115,-0.015 0.237,0.05 0.251,0.165 0.014,0.115 -0.359,0.502 -0.431,0.603 -0.072,0.115 -0.129,0.237 -0.172,0.366 -0.107,0.28 0.309,1.063 0.38,1.335 0.086,0.28 0.208,0.588 0.38,0.825 0.151,0.194 0.352,0.323 0.589,0.337 0.38,0.029 1.163,0.122 1.515,-0.029 0.265,-0.101 0.631,-0.266 0.897,-0.38 0.223,-0.101 0.545,-0.251 0.775,-0.337 0.474,-0.194 1.12,-0.402 1.607,-0.545 0.453,-0.129 1.041,-0.294 1.529,-0.352 0.588,-0.086 1.306,-0.137 1.895,-0.015 0.294,0.072 0.969,0.208 1.278,0.194 0.266,-0.021 0.782,-0.237 0.969,-0.431 0.237,-0.222 0.352,-0.897 0.388,-1.22 0.043,-0.323 -0.036,-0.804 -0.093,-1.12 l -0.043,-0.258 c -0.043,-0.223 -0.101,-0.545 -0.058,-0.782 0.029,-0.266 0.251,-0.826 0.337,-1.055 l -0.179,-1.357 c -0.015,-0.1 -0.115,-0.222 -0.244,-0.208 -0.251,-0.115 -0.696,0.194 -0.897,0.402 -0.373,0.366 -0.631,0.854 -0.631,1.378 0,0.222 0.057,0.531 0.101,0.739 0.043,0.237 0.086,0.466 0.115,0.689 0.043,0.423 0.014,0.983 -0.294,1.292 -0.423,0.431 -1.364,0.459 -1.967,0.431 l -0.352,-0.036 c -0.337,-0.014 -0.854,-0.043 -1.191,0 -0.337,0.043 -0.826,0.18 -1.148,0.266 -0.775,0.294 -1.601,0.589 -2.397,0.854 -0.495,0.165 -1.055,0.222 -1.572,0.115 -0.352,-0.072 -0.675,-0.316 -0.718,-0.689 -0.029,-0.244 0.266,-1.105 0.352,-1.35 0.058,-0.165 0.194,-0.517 0.309,-0.632 0.18,-0.165 0.467,-0.193 0.718,-0.15 0.18,0.014 0.431,0.079 0.589,0.122 0.179,0.043 0.352,0.072 0.517,0.1 0.531,0.101 1.069,0.043 1.586,-0.115 0.237,-0.079 0.459,-0.179 0.674,-0.294 0.194,-0.108 0.402,-0.237 0.502,-0.352 0.18,-0.222 0.459,-0.631 0.424,-0.918 -0.029,-0.316 -0.115,-0.818 -0.244,-1.127 -0.108,-0.251 -0.165,-0.632 -0.603,-0.869 -0.208,-0.115 -0.574,-0.294 -0.797,-0.366 -0.474,-0.15 -1.249,-0.165 -1.737,-0.15 -0.38,0 -0.747,0.028 -1.112,0.086 -0.266,0.036 -0.618,0.108 -0.826,0.273 -0.129,0.1 -0.309,0.603 -0.337,0.89 0.251,0.029 0.603,0.065 0.854,0.079 0.646,0.043 1.292,0.043 1.938,0 0.337,-0.014 0.689,-0.036 1.041,-0.014 0.266,0.014 0.208,0.057 0.431,0.187 0.101,0.058 0.208,0.194 0.28,0.28 0.072,0.115 0.129,0.194 0.144,0.251 0.043,0.15 -0.043,0.323 -0.144,0.438 -0.057,0.072 -0.165,0.18 -0.266,0.223 -0.28,0.122 -0.617,0.122 -0.926,0.108 -0.352,-0.021 -0.883,0.014 -1.234,0.028 -0.474,0.029 -1.005,0.058 -1.472,0.029 -0.646,-0.029 -1.349,-0.222 -1.967,-0.445 -0.445,-0.172 -0.868,-0.38 -1.285,-0.646 -0.603,-0.395 -1.112,-0.926 -1.45,-1.572 -0.374,-0.732 -0.574,-1.558 -0.632,-2.383 -0.029,-0.323 -0.064,-0.912 -0.029,-1.234 0.015,-0.115 0.086,-0.266 0.129,-0.366 0.101,-0.208 0.187,-0.409 0.266,-0.431 l 0.172,0.05 0.136,0.309 c 0.029,0.144 0,0.352 -0.015,0.495 l -0.028,0.208 c -0.029,0.502 0.115,1.012 0.323,1.457 0.144,0.337 0.423,0.79 0.617,1.098 l 0.266,0.416 c 0.172,0.294 0.496,0.79 0.775,0.969 0.223,0.129 0.675,0.208 0.926,0.251 l 0.043,-0.373 0.029,-0.144 c 0.021,-0.223 0.064,-0.56 0.122,-0.775 0.072,-0.258 0.229,-0.603 0.352,-0.825 l -0.452,-0.014 c -0.064,0 -0.179,-0.029 -0.222,-0.094 -0.079,-0.072 -0.065,-0.201 -0.015,-0.301 0.029,-0.093 0.115,-0.208 0.172,-0.287 0.136,-0.172 0.266,-0.366 0.352,-0.481 l 0.33,-0.452 c 0.086,-0.122 0.201,-0.266 0.316,-0.359 0.151,-0.086 0.388,-0.158 0.545,-0.187 l 0.208,-0.058 0.423,-0.122 c 0.266,-0.086 0.445,-0.115 0.588,-0.115 0.094,0.015 0.166,0.029 0.18,0.029 0.086,-0.05 0.158,-0.366 0.172,-0.474 0.05,-0.201 0.15,-0.395 0.309,-0.51 0.165,-0.122 0.359,-0.194 0.545,-0.223 0.309,-0.043 0.632,-0.057 0.94,-0.072 l 1.285,-0.036 5.994,-0.058 c 0.409,0 0.839,0.029 1.234,0.072 0.38,0.065 0.768,0.18 1.055,0.431 0.359,0.28 0.603,0.661 0.725,1.105 0.1,0.395 0.179,0.998 0.222,1.407 l 0.058,0.502 c 0.057,0.424 0.144,0.84 0.28,1.249 0.086,0.294 0.215,0.66 0.409,0.912 0.115,0.158 0.323,0.352 0.474,0.481 0.23,0.223 0.337,0.359 0.38,0.474 0.029,0.129 0,0.294 -0.122,0.366 -0.201,0.122 -0.509,0.079 -0.732,0.014 l -0.251,-0.072 c -0.237,-0.072 -0.496,-0.129 -0.747,-0.165 -0.058,-0.014 -0.208,-0.029 -0.251,0.014 l 0.129,0.388 c 0.079,0.058 0.194,0.129 0.266,0.188 0.064,0.029 0.179,0.108 0.222,0.151 0.158,0.144 0.337,0.423 0.438,0.617 l 0.151,0.251 c 0.144,0.244 0.352,0.617 0.452,0.883 0.093,0.201 0.165,0.524 0.223,0.747 l 0.072,0.323 c 0.043,0.158 0.122,0.38 0.179,0.545 0.058,0.172 0.144,0.438 0.194,0.632 l 0.043,0.144 c 0.043,0.223 0.101,0.445 0.187,0.632 0.079,0.15 0.18,0.301 0.309,0.373 0.193,0.101 0.416,0.129 0.617,0.086 0.079,-0.014 0.588,-0.115 0.667,-0.072 0.086,0.043 0.115,0.158 0.086,0.266 -0.057,0.144 -0.208,0.337 -0.309,0.438 l -0.237,0.28 c -0.086,0.101 -0.251,0.309 -0.366,0.366 -0.237,0.165 -0.674,0.208 -0.969,0.223 l -0.797,0.057 c 0.101,0.122 0.266,0.294 0.352,0.424 0.137,0.222 0.223,0.474 0.266,0.725 0.043,0.366 0.029,0.869 0.015,1.235 -0.015,0.38 -0.043,0.747 -0.101,1.026 -0.014,0.122 -0.058,0.28 -0.093,0.402 l -0.086,0.345 c -0.1,0.445 -0.115,0.918 0.029,1.342 0.093,0.28 0.237,0.545 0.417,0.782 0.172,0.244 0.28,0.38 0.38,0.495 0.086,0.072 0.194,0.165 0.194,0.223 0.029,0.144 -0.093,0.251 -0.223,0.309 -0.251,0.086 -0.56,0.072 -0.811,0.014 -0.187,-0.028 -0.466,-0.107 -0.66,-0.165 l -0.38,-0.101 c -0.251,-0.072 -0.768,-0.187 -0.969,-0.352 -0.502,-0.409 -1.356,-1.615 -1.486,-1.809 0.029,0.208 -0.079,0.689 0.309,1.672 0.101,0.301 0.732,0.869 0.969,1.077 0.222,0.172 0.517,0.445 0.66,0.675 0.072,0.15 0.151,0.387 0.194,0.531 l 0.072,0.266 c 0.029,0.101 0.101,0.251 0.144,0.337 l 0.108,0.28 c 0.057,0.129 0.115,0.323 0.144,0.452 0.043,0.165 0.122,0.416 0.193,0.574 0.086,0.208 0.294,0.488 0.438,0.66 l 0.517,0.531 c 0.165,0.151 0.438,0.029 0.646,0.029 0.294,0.014 1.177,-0.043 1.428,-0.201 0.201,-0.179 0.28,-0.237 0.352,-0.28 0.086,-0.05 0.237,-0.122 0.323,-0.065 -0.015,0.359 -0.352,0.689 -0.502,0.854 -0.115,0.107 -0.259,0.266 -0.366,0.38 -0.158,0.194 -0.38,0.431 -0.588,0.603 -0.208,0.194 -0.51,0.359 -0.761,0.474 -0.28,0.129 -0.588,0.266 -0.897,0.323 -0.323,0.058 -0.661,0.043 -0.983,-0.028 -0.18,-0.058 -0.445,-0.151 -0.625,-0.208 -0.158,-0.057 -0.33,-0.115 -0.495,-0.172 -0.237,-0.079 -0.502,-0.107 -0.754,-0.122 -0.072,0 -0.244,0.165 -0.287,0.193 -0.136,0.086 -0.344,0.438 -0.359,0.603 -0.014,0.144 -0.072,0.352 -0.101,0.488 -0.028,0.101 -0.057,0.258 -0.086,0.359 -0.014,0.136 -0.029,0.33 -0.043,0.459 -0.029,0.294 -0.079,0.588 -0.165,0.868 -0.058,0.165 -0.058,0.237 -0.194,0.337 -0.101,0.086 -0.086,0.043 -0.215,0.058 -0.309,0.014 -0.531,-0.115 -0.782,-0.294 -0.158,-0.115 -0.28,-0.201 -0.409,-0.251 -0.137,-0.058 -0.646,-0.015 -0.754,0.093 -0.158,0.158 -0.28,0.481 -0.337,0.689 -0.043,0.101 -0.101,0.309 -0.144,0.395 -0.101,0.223 -0.294,0.459 -0.445,0.632 -0.072,0.093 -0.187,0.223 -0.258,0.309 -0.127,0.166 -0.321,0.403 -0.48,0.503 z m 26.214,-18.418 c 0.567,-0.983 1.084,-2.002 1.521,-3.043 0.302,-0.725 0.589,-1.558 0.667,-2.34 0.086,-0.804 -0.014,-1.773 -0.122,-2.584 -0.129,-0.854 -0.323,-1.708 -0.588,-2.526 -0.172,-0.546 -0.438,-1.077 -0.747,-1.558 -0.144,-0.237 -0.445,-0.711 -0.66,-0.869 -0.086,-0.064 -0.223,-0.122 -0.323,-0.151 l -0.366,-0.215 0.144,-0.301 c 0.129,-0.072 0.409,-0.058 0.56,-0.043 0.603,0.064 1.177,0.237 1.723,0.474 0.481,0.215 0.955,0.502 1.335,0.854 0.409,0.38 0.747,0.897 1.012,1.393 0.165,0.309 0.309,0.632 0.423,0.955 0.108,0.251 0.151,0.402 0.18,0.517 0.043,0.194 0.072,0.294 0.151,0.381 0.043,0.064 0.129,0.122 0.201,0.093 0.086,-0.043 0.137,-0.208 0.165,-0.294 l 0.043,-0.266 c 0.043,-0.179 0.1,-0.445 0.129,-0.632 0.036,-0.222 0.093,-0.445 0.165,-0.646 0.015,-0.043 0.043,-0.136 0.086,-0.15 0.1,-0.043 0.237,0.057 0.294,0.15 0.072,0.101 0.137,0.244 0.18,0.352 0.101,0.266 0.201,0.466 0.28,0.603 0.086,0.158 0.266,0.495 0.309,0.674 0.129,0.603 0.043,1.292 -0.107,1.881 -0.086,0.294 -0.144,0.588 -0.172,0.897 -0.029,0.115 -0.043,0.323 0.029,0.445 0.057,0.115 0.222,0.201 0.337,0.258 l 0.517,0.309 c 0.144,0.093 0.258,0.266 0.352,0.431 0.072,0.158 0.129,0.352 0.172,0.51 0.029,0.15 0.064,0.373 0.079,0.517 l -0.029,0.474 -0.287,0.058 c -0.158,-0.029 -0.33,-0.086 -0.466,-0.18 -0.18,-0.129 -0.266,-0.194 -0.337,-0.222 -0.115,-0.043 -0.294,-0.029 -0.431,0 -0.101,0.014 -0.287,0.063 -0.366,0.136 -0.144,0.115 -0.237,0.409 -0.28,0.588 -0.101,0.409 -0.259,0.869 -0.496,1.235 -0.222,0.337 -0.545,0.617 -0.926,0.761 -0.337,0.136 -0.689,0.237 -1.034,0.294 -0.144,0.014 -0.309,0.043 -0.38,0.107 -0.115,0.072 -0.223,0.266 -0.28,0.38 -0.251,0.517 -0.495,0.983 -0.775,1.457 -0.194,0.309 -0.488,0.761 -0.675,1.07 -0.208,0.294 -0.488,0.753 -0.682,1.062 -0.352,0.603 -0.818,1.479 -1.141,2.096 l 0.631,0.933 c 0.704,1.041 1.364,2.11 1.996,3.187 0.588,0.998 1.163,2.046 1.651,3.086 0.481,1.041 0.79,2.189 0.955,3.338 0.144,1.012 0.158,2.045 0.058,3.058 -0.151,1.249 -0.517,2.469 -1.105,3.596 -0.309,0.603 -0.732,1.256 -1.249,1.708 -0.043,0.043 -0.208,0.166 -0.266,0.208 -0.129,0.086 -0.309,0.237 -0.423,0.337 -0.072,0.086 -0.194,0.222 -0.266,0.309 -0.015,0.94 -0.115,2.512 -0.589,3.352 -0.438,0.79 -2.498,2.297 -3.244,2.806 -0.093,0.445 -0.208,0.897 -0.316,1.328 -0.323,1.213 -0.818,2.39 -1.543,3.424 -0.553,0.804 -1.292,1.644 -1.967,2.361 l -0.409,0.459 c 0.058,0.172 0.129,0.409 0.215,0.588 l 0.122,0.23 c 0.058,0.079 0.129,0.208 0.158,0.301 0.043,0.115 0.108,0.287 0.137,0.409 l 0.072,0.323 0.086,0.309 0.043,0.208 0.065,0.229 c 0.043,0.165 0.1,0.374 0.172,0.517 0.072,0.129 0.223,0.294 0.323,0.395 0.194,0.208 0.323,0.337 0.416,0.431 0.101,0.101 0.158,0.158 0.215,0.187 0.072,0.05 0.151,0.108 0.151,0.137 0.029,0.072 -0.043,0.144 -0.122,0.188 -0.101,0.057 -0.215,0.093 -0.352,0.093 l -0.409,0.029 c 0.144,0.129 0.38,0.323 0.531,0.452 l 0.337,0.323 0.201,0.18 c 0.093,0.072 0.237,0.187 0.323,0.28 0.122,0.129 0.251,0.323 0.344,0.467 l 0.259,0.373 0.179,0.258 c 0.129,0.194 0.208,0.309 0.28,0.402 0.086,0.115 0.208,0.23 0.337,0.294 0.151,0.072 0.366,0.115 0.517,0.144 l 0.172,0.029 c 0.179,0.043 0.38,0.079 0.56,0.093 0.366,0.014 0.718,-0.122 0.998,-0.373 0.094,-0.072 0.166,-0.158 0.237,-0.244 l 0.38,-0.388 c 0.043,0.165 0.136,0.474 0.122,0.646 -0.015,0.294 -0.337,0.854 -0.488,1.105 -0.158,0.294 -0.38,0.56 -0.632,0.775 -0.309,0.266 -0.674,0.459 -1.055,0.574 -0.265,0.094 -0.574,0.18 -0.854,0.251 0.101,0.179 0.237,0.38 0.38,0.531 0.165,0.129 0.352,0.208 0.56,0.237 0.251,0.029 0.545,0 0.79,-0.058 0.316,-0.079 0.588,-0.179 0.869,-0.316 0.265,-0.144 0.653,-0.352 0.868,-0.552 0.223,-0.223 0.474,-0.618 0.632,-0.897 0.043,0.294 0.086,0.732 0.043,1.012 -0.058,0.488 -0.481,1.134 -0.761,1.543 -0.337,0.474 -0.732,0.926 -1.206,1.278 -0.28,0.208 -0.718,0.474 -1.012,0.631 -0.166,0.094 -0.388,0.208 -0.531,0.294 -0.223,0.136 -0.531,0.337 -0.739,0.488 0.15,0.129 0.402,0.323 0.588,0.409 0.316,0.136 0.667,0.15 1.005,0.107 0.467,-0.079 0.983,-0.208 1.436,-0.373 -0.115,0.251 -0.309,0.337 -0.466,0.56 -0.28,0.395 -0.783,0.768 -1.192,1.048 -0.237,0.144 -0.488,0.28 -0.732,0.395 -0.28,0.129 -0.603,0.251 -0.897,0.323 -0.359,0.072 -0.796,0.265 -1.134,0.438 -0.129,0.072 0.172,0.294 0.309,0.374 l 0.179,0.057 0.215,0.058 c 0.108,0.014 0.208,0 0.309,-0.029 0.165,-0.058 0.366,-0.194 0.502,-0.294 0.208,-0.15 0.366,-0.251 0.545,-0.352 0.352,-0.194 0.732,-0.323 1.127,-0.366 0.309,-0.036 0.617,0.015 0.883,0.144 0.208,0.086 0.395,0.237 0.502,0.424 0.101,0.194 0.179,0.459 0.222,0.682 0.072,-0.079 0.201,-0.237 0.259,-0.323 0.107,-0.208 0.15,-0.546 0.179,-0.783 l 0.029,-0.222 c 0.014,-0.201 0.058,-0.395 0.136,-0.574 0.029,-0.115 0.101,-0.259 0.144,-0.366 0.144,0.266 0.309,0.588 0.409,0.883 0.108,0.294 0.122,0.66 0.122,0.969 -0.014,0.366 -0.072,0.782 -0.237,1.12 -0.165,0.323 -0.409,0.617 -0.718,0.825 -0.352,0.244 -0.782,0.467 -1.177,0.646 -0.057,0.129 -0.136,0.258 -0.223,0.366 -0.1,0.179 -0.265,0.352 -0.452,0.423 -0.237,0.108 -0.574,0.137 -0.84,0.137 -0.057,0.208 -0.129,0.409 -0.237,0.588 -0.144,0.266 -0.409,0.438 -0.703,0.495 -0.223,0.058 -0.474,0.079 -0.711,-0.014 -0.144,-0.043 -0.366,-0.158 -0.509,-0.244 l -0.208,-0.122 c -0.172,-0.086 -0.352,-0.144 -0.545,-0.208 -0.115,-0.029 -0.352,-0.072 -0.466,-0.029 -0.18,0.072 -0.352,0.359 -0.445,0.531 l -0.495,0.912 c -0.223,0.409 -0.531,0.912 -0.782,1.292 l -0.28,0.517 c -0.043,0.086 -0.072,0.237 -0.086,0.337 l -0.014,0.158 c -0.015,0.137 -0.058,0.266 -0.144,0.374 -0.079,0.072 -0.223,0.172 -0.316,0.229 -0.323,0.208 -0.481,0.374 -0.617,0.574 -0.086,0.137 -0.158,0.28 -0.201,0.431 l -0.058,0.201 -0.064,0.194 c -0.043,0.165 -0.129,0.366 -0.244,0.481 -0.208,0.194 -0.639,0.33 -0.912,0.387 l -0.294,0.058 c -0.28,0.072 -0.682,0.158 -0.955,0.208 -0.417,0.086 -0.811,0.158 -1.077,0.266 -0.517,0.187 -1.026,0.467 -1.414,0.876 -0.172,0.179 -0.395,0.416 -0.617,0.531 -0.115,0.072 -0.266,0.108 -0.395,0.029 -0.158,-0.072 -0.266,-0.244 -0.309,-0.423 -0.072,-0.323 0,-0.84 0.058,-1.163 0.028,-0.251 0.107,-0.51 0.222,-0.718 0.144,-0.28 0.424,-0.589 0.646,-0.826 l 0.151,-0.158 c 0.115,-0.122 0.266,-0.28 0.366,-0.417 l 0.129,-0.158 c 0.108,-0.151 0.072,-0.151 0.194,-0.28 0.101,-0.107 0.237,-0.222 0.38,-0.251 0.129,-0.015 0.337,0.086 0.459,0.144 l 1.823,0.962 -0.294,-0.646 c -0.107,-0.251 -0.194,-0.431 -0.28,-0.546 -0.208,-0.179 -0.266,-0.237 -0.309,-0.294 -0.079,-0.093 -0.108,-0.223 -0.108,-0.337 0,-0.151 0.043,-0.302 0.151,-0.402 0.058,-0.058 0.158,-0.115 0.237,-0.158 0.273,-0.194 0.409,-0.366 0.51,-0.517 0.179,-0.266 0.725,-0.818 0.588,-0.84 -0.223,-0.029 -0.675,0.093 -0.84,0.194 -0.323,0.223 -0.675,0.445 -0.998,0.646 -0.481,0.28 -0.998,0.56 -1.486,0.811 l -0.747,0.366 c -0.194,0.251 -0.431,0.56 -0.574,0.825 -0.057,0.101 -0.129,0.28 -0.172,0.38 -0.093,0.201 -0.208,0.474 -0.344,0.646 -0.23,0.294 -0.617,0.474 -0.983,0.56 -0.266,0.072 -0.56,0.086 -0.84,0.029 -0.244,-0.058 -0.201,0.014 -0.423,-0.086 -0.223,-0.107 -0.352,-0.165 -0.438,-0.222 -0.107,-0.058 -0.194,-0.101 -0.266,-0.122 -0.093,-0.015 -0.223,0 -0.309,0.036 -0.28,0.058 -0.545,0.172 -0.782,0.337 -0.323,0.215 -0.646,0.588 -0.883,0.912 -0.172,0.223 -0.409,0.538 -0.496,0.804 -0.064,0.194 -0.093,0.266 -0.122,0.323 -0.057,0.107 -0.158,0.179 -0.265,0.165 -0.172,-0.014 -0.323,-0.136 -0.409,-0.28 -0.223,-0.366 -0.309,-0.826 -0.309,-1.249 0,-0.632 0.115,-1.278 0.309,-1.881 0.194,-0.603 0.517,-1.5 0.912,-1.974 0.237,-0.294 0.811,-0.539 1.148,-0.689 l 0.538,-0.144 c 0.136,-0.036 0.266,-0.021 0.373,0.072 0.072,0.072 0.129,0.179 0.172,0.28 0.108,0.201 0.237,0.438 0.337,0.603 0.05,-0.266 0.093,-0.56 0.151,-0.826 0.057,-0.237 0.172,-0.517 0.38,-0.66 0.208,-0.151 0.531,-0.194 0.797,-0.208 l 0.452,0.014 c 0.15,-0.014 0.366,-0.043 0.517,-0.058 l 0.28,-0.043 c 0.294,-0.029 0.589,-0.072 0.732,-0.165 0.136,-0.086 0.531,-0.337 0.388,-0.409 -0.165,-0.086 -0.445,-0.129 -0.618,-0.101 -0.301,0.058 -0.603,0.101 -0.918,0.101 -0.366,0.015 -0.89,-0.014 -1.263,-0.043 l -0.452,-0.014 c -0.251,-0.015 -0.603,-0.029 -0.854,-0.058 -0.208,-0.029 -0.409,-0.043 -0.56,-0.029 -0.172,0.015 -0.337,0.086 -0.481,0.172 -0.165,0.101 -0.337,0.237 -0.459,0.402 -0.172,0.201 -0.395,0.539 -0.524,0.761 l -0.18,0.28 -0.15,0.251 c -0.086,0.129 -0.144,0.215 -0.23,0.294 -0.043,0.043 -0.136,0.101 -0.194,0.086 -0.179,-0.043 -0.237,-0.309 -0.251,-0.474 -0.015,-0.251 0,-0.337 0.029,-0.567 l 0.028,-0.316 c 0.029,-0.438 0.094,-1.112 0.237,-1.536 0.072,-0.208 0.208,-0.402 0.366,-0.545 0.266,-0.237 0.574,-0.445 0.883,-0.603 0.208,-0.107 0.459,-0.222 0.675,-0.294 l 0.208,-0.058 c 0.086,-0.021 0.223,-0.05 0.309,-0.093 0.193,-0.072 0.38,-0.201 0.545,-0.323 l 0.266,-0.158 c 0.057,-0.029 0.172,-0.021 0.251,-0.021 0.115,0.021 0.244,0.05 0.352,0.122 0.144,0.101 0.28,0.28 0.381,0.423 0.014,-0.172 0.043,-0.366 0.1,-0.524 0.065,-0.208 0.194,-0.366 0.352,-0.488 0.251,-0.208 0.56,-0.352 0.883,-0.38 0.474,-0.072 1.091,-0.029 1.543,0.015 0.359,0.028 0.696,0.072 0.926,0.144 0.165,0.043 0.402,0.122 0.56,0.165 l 0.237,0.086 c 0.101,0.029 0.223,0.058 0.323,0.043 0.072,0 0.136,-0.028 0.179,-0.072 0.029,-0.057 0.058,-0.144 0.058,-0.208 0.043,-0.187 0.101,-0.287 0.172,-0.38 0.043,-0.043 0.107,-0.101 0.165,-0.115 0.101,-0.029 0.208,0 0.294,0.043 0.144,0.086 0.28,0.208 0.409,0.323 l 0.854,-0.732 c -0.101,-0.136 -0.266,-0.359 -0.352,-0.502 -0.488,-0.747 -0.796,-1.601 -0.868,-2.498 -0.029,-0.474 -0.029,-1.019 0.028,-1.485 0.043,-0.223 0.072,-0.546 0.015,-0.768 -0.015,-0.072 -0.043,-0.129 -0.072,-0.172 -0.144,-0.165 -0.337,-0.309 -0.531,-0.409 -0.115,-0.079 -0.294,-0.165 -0.409,-0.223 -0.208,-0.115 -0.502,-0.266 -0.689,-0.395 -0.309,-0.223 -0.323,-0.237 -0.56,-0.531 -0.179,-0.208 -0.237,-0.294 -0.395,-0.517 -0.036,-0.058 -0.036,-0.381 0.029,-0.438 0.1,-0.108 0.187,-0.309 0.244,-0.459 l 0.094,-0.172 c 0.1,-0.194 0.28,-0.459 0.409,-0.631 l 0.194,-0.251 c 0.144,-0.223 0.28,-0.459 0.395,-0.71 0.115,-0.244 0.28,-0.617 0.323,-0.89 v -0.179 c 0.015,-0.137 -0.014,-0.208 0.043,-0.309 0.222,-0.144 0.309,-0.179 0.409,-0.179 0.166,0.014 0.402,-0.043 0.546,0.014 0.28,0.151 0.294,0.165 0.531,0.359 0.129,0.101 0.323,0.23 0.488,0.244 0.101,0.021 0.352,-0.072 0.409,-0.144 0.086,-0.093 0.237,-0.28 0.28,-0.395 0.129,-0.302 0.309,-0.739 0.424,-1.048 l 0.107,-0.294 0.129,-0.352 c 0.158,-0.38 0.409,-1.091 0.502,-1.485 0.38,-1.716 -0.431,-3.381 -0.488,-3.704 -0.101,-0.617 -0.309,1.292 -0.459,1.895 -0.086,0.417 -0.258,0.969 -0.395,1.371 -0.101,0.366 -0.266,0.861 -0.352,1.22 -0.1,0.38 -0.251,0.775 -0.488,1.098 -0.072,0.107 -0.187,0.223 -0.316,0.237 -0.136,0.014 -0.316,-0.072 -0.431,-0.144 l -0.237,-0.136 -0.438,-0.237 c -0.165,-0.101 -0.337,-0.23 -0.459,-0.395 -0.057,-0.101 -0.086,-0.158 -0.115,-0.187 -0.043,-0.079 -0.129,-0.122 -0.222,-0.093 -0.223,0.28 -0.266,0.56 -0.294,0.753 l -0.043,0.294 c -0.058,0.294 -0.172,0.588 -0.323,0.861 l -0.194,0.345 -0.201,0.396 -0.101,0.194 c -0.064,0.144 -0.18,0.366 -0.266,0.495 -0.165,0.223 -0.474,0.459 -0.696,0.618 -0.675,0.474 -1.421,0.839 -2.204,1.091 -0.438,0.129 -0.955,0.28 -1.277,0.309 -0.266,0.014 -0.531,-0.043 -0.754,-0.165 -0.187,-0.101 -0.38,-0.266 -0.423,-0.452 -0.029,-0.122 0.014,-0.237 0.122,-0.294 l 0.201,-0.093 c 0.223,-0.101 0.431,-0.301 0.589,-0.495 0.38,-0.459 0.768,-0.955 1.134,-1.429 0.086,-0.574 0.237,-1.407 0.309,-1.981 l 0.129,-1.091 c 0.079,-0.617 0.179,-1.529 0.294,-2.146 0.072,-0.481 0.194,-0.969 0.309,-1.443 0.179,-0.704 0.416,-1.436 0.675,-2.11 0.237,-0.574 0.502,-1.148 0.796,-1.68 0.352,-0.66 0.912,-1.586 1.307,-2.218 -0.266,-0.251 -0.818,-0.797 -1.127,-0.998 -0.488,-0.345 -1.256,-0.711 -1.78,-0.962 -0.251,-0.129 -0.617,-0.287 -0.854,-0.423 l -0.517,-0.28 c -0.294,-0.158 -0.847,-0.452 -1.177,-0.574 -0.603,-0.229 -1.558,-0.452 -2.189,-0.574 -0.955,-0.201 -1.895,-0.452 -2.835,-0.732 -0.732,-0.237 -1.78,-0.617 -2.397,-1.091 -0.423,-0.337 -1.206,-1.32 -1.543,-1.744 -0.28,-0.352 -0.703,-0.868 -0.983,-1.206 l -0.445,-0.517 -0.423,-0.531 0.725,-0.689 c 0.302,-0.294 0.661,-0.617 0.847,-0.868 0.28,-0.352 0.459,-0.56 0.632,-0.969 l 0.079,-0.208 c 0.072,-0.172 0.086,-0.158 0.201,-0.302 0.043,-0.064 0.122,-0.136 0.194,-0.165 0.172,-0.028 0.337,0.043 0.438,0.194 0.079,0.101 0.136,0.23 0.165,0.366 l 0.072,0.237 0.072,0.201 c 0,0 0.093,0.15 0.194,0.179 l 0.545,-0.294 0.409,-0.474 0.488,-0.545 0.158,-0.158 c 0.15,-0.144 0.323,-0.337 0.431,-0.517 0.043,-0.086 0.1,-0.201 0.129,-0.294 0.058,-0.144 0.129,-0.323 0.237,-0.438 0.115,-0.151 0.309,-0.237 0.51,-0.251 0.151,0 0.316,0.015 0.459,0.072 0.144,0.065 0.352,0.165 0.502,0.237 l 0.229,0.129 0.151,0.079 0.172,0.072 c 0.266,0.057 0.388,-0.137 0.445,-0.251 0.158,-0.309 0.294,-0.631 0.38,-0.969 0.101,-0.352 0.18,-0.732 0.194,-1.105 0.015,-0.229 0.029,-0.467 0.058,-0.704 0.014,-0.129 0.043,-0.352 0.144,-0.438 0.064,-0.058 0.222,-0.058 0.309,-0.058 0.122,0 0.237,0.014 0.359,0.043 0.158,0.043 0.323,0.101 0.466,0.172 0.251,0.122 0.517,0.237 0.661,0.266 0.323,0.072 0.854,-0.014 1.177,-0.086 l 0.768,-0.194 c 0.215,-0.058 0.496,-0.237 0.675,-0.366 l 0.309,-0.194 c 0.129,-0.086 0.28,-0.187 0.395,-0.294 0.072,-0.086 0.115,-0.115 0.165,-0.144 0.072,-0.064 0.158,-0.072 0.229,-0.064 0.079,0.021 0.137,0.05 0.194,0.093 0.072,0.072 0.129,0.151 0.158,0.237 0.036,0.101 0.05,0.201 0.064,0.323 0,0.101 0,0.187 0.014,0.237 0.043,0.144 0.144,0.272 0.28,0.366 0.129,0.1 -0.058,-0.237 0.086,-0.166 l 0.28,0.166 c 0.18,0.1 0.337,0.222 0.481,0.352 0.302,0.237 0.574,0.545 0.811,0.825 0.223,0.266 0.424,0.539 0.618,0.818 0.222,0.323 0.409,0.682 0.574,1.012 0.165,0.359 0.309,0.739 0.395,1.105 0.093,0.366 0.151,0.912 0.18,1.292 l 0.057,0.796 1.105,0.689 0.187,0.122 c 0.431,0.259 1.063,0.646 1.443,0.955 0.266,0.208 0.588,0.509 0.825,0.746 0.266,0.251 0.51,0.502 0.761,0.754 0.28,0.28 0.603,0.617 0.811,0.847 l 0.309,0.374 c 0.337,0.38 0.689,0.818 0.969,1.263 0.101,0.144 0.424,0.632 0.603,0.588 0.309,-0.072 1.041,-0.782 1.077,-0.868 0.043,-0.072 0.115,-0.194 0.158,-0.266 0.086,-0.115 0.194,-0.309 0.208,-0.459 0.029,-0.158 -0.029,-0.409 -0.079,-0.553 l -0.273,-0.064 c -0.56,-0.101 -1.091,-0.352 -1.579,-0.646 -0.294,-0.187 -0.588,-0.409 -0.847,-0.646 -0.374,-0.309 -0.696,-0.661 -1.005,-1.041 -0.423,-0.545 -0.775,-1.191 -1.084,-1.823 -0.366,-0.797 -0.675,-1.629 -0.883,-2.498 -0.237,-0.926 -0.352,-1.874 -0.352,-2.821 0,-0.84 0.086,-1.694 0.294,-2.52 0.244,-0.969 0.646,-1.938 1.084,-2.821 0.531,-1.041 1.105,-2.06 1.708,-3.058 0.352,-0.56 0.868,-1.393 1.22,-1.953 -0.266,-0.416 -0.661,-1.005 -0.94,-1.399 -0.402,-0.588 -1.019,-1.393 -1.443,-1.952 l -0.646,-0.854 c -0.222,-0.294 -0.438,-0.588 -0.689,-0.854 -0.136,-0.144 -0.266,-0.28 -0.416,-0.395 -0.101,-0.072 -0.215,-0.144 -0.337,-0.193 -0.086,-0.015 -0.23,-0.029 -0.337,-0.015 l -0.194,-0.014 c -0.215,-0.015 -0.481,-0.129 -0.689,-0.223 -0.366,-0.172 -0.761,-0.409 -1.07,-0.689 -0.222,-0.215 -0.416,-0.452 -0.545,-0.732 l -0.101,-0.251 c -0.064,-0.122 -0.15,-0.309 -0.237,-0.423 -0.136,-0.223 -0.309,-0.402 -0.531,-0.531 -0.129,-0.086 -0.352,-0.194 -0.502,-0.28 L 128.8,66.151 c -0.208,-0.115 -0.388,-0.244 -0.56,-0.409 -0.079,-0.086 -0.165,-0.194 -0.193,-0.309 -0.058,-0.251 0.043,-0.502 0.265,-0.617 0.129,-0.072 0.294,-0.101 0.438,-0.129 l 0.151,-0.014 c 0.201,-0.043 0.452,-0.151 0.646,-0.237 l 0.172,-0.926 0.05,-0.165 c 0.028,-0.144 0.072,-0.366 0.086,-0.51 l 0.014,-0.28 c 0,-0.136 0.015,-0.28 0.029,-0.431 0.029,-0.115 0.058,-0.251 0.122,-0.352 0.072,-0.101 0.115,-0.158 0.129,-0.187 0.028,-0.093 0.014,-0.237 0.014,-0.345 -0.029,-0.201 0,-0.366 0.014,-0.481 0.015,-0.179 0.029,-0.38 0,-0.56 0,-0.043 -0.028,-0.129 -0.043,-0.18 -0.043,-0.101 -0.057,-0.215 -0.057,-0.337 0,-0.187 0.115,-0.38 0.323,-0.409 0.187,-0.014 0.438,0.115 0.603,0.237 0.309,0.223 0.704,0.481 1.041,0.632 0.166,0.072 0.366,0.086 0.531,-0.014 0.115,-0.079 0.237,-0.237 0.323,-0.366 0.086,-0.165 0.222,-0.402 0.309,-0.56 0.144,-0.28 0.366,-0.689 0.56,-0.955 0.309,-0.445 0.983,-1.077 1.393,-1.443 0.352,-0.309 0.897,-0.732 1.278,-1.026 l 0.388,-0.294 c 0.481,-0.374 0.998,-0.696 1.543,-0.962 0.101,-0.043 0.237,-0.101 0.352,-0.101 0.058,0.014 0.158,0.058 0.208,0.086 l -0.897,1.034 c -0.603,0.646 -1.299,1.443 -1.809,2.175 -0.502,0.704 -0.869,1.572 -1.12,2.397 -0.28,0.883 -0.452,1.852 -0.424,2.778 0.029,0.854 0.323,1.895 0.589,2.706 0.423,1.292 1.012,2.584 1.758,3.732 0.682,1.026 1.622,2.175 2.412,3.115 0.337,-0.395 0.826,-0.998 1.134,-1.414 0.389,-0.542 0.755,-1.131 1.1,-1.705 z m -46.914,3.912 c -0.187,-0.222 -0.337,-0.603 -0.424,-0.883 -0.1,-0.323 -0.194,-0.66 -0.222,-0.998 -0.015,-0.316 0,-0.632 0.043,-0.962 0.014,-0.158 0.079,-0.538 0.014,-0.703 -0.029,-0.101 -0.187,-0.251 -0.258,-0.323 -0.445,-0.438 -0.739,-0.969 -0.962,-1.443 -0.086,0.122 -0.229,0.309 -0.287,0.445 -0.079,0.201 -0.122,0.545 -0.15,0.761 -0.029,0.431 -0.086,0.826 -0.151,1.22 -0.086,0.474 -0.187,0.926 -0.366,1.371 -0.187,0.524 -0.567,1.026 -1.098,1.199 -0.136,0.05 -0.223,0.036 -0.323,-0.072 -0.108,-0.101 -0.015,-0.23 -0.029,-0.366 0,-0.086 0.115,-0.366 0.115,-0.438 l 0.029,-0.165 c 0.014,-0.237 -0.029,-0.495 -0.101,-0.718 -0.079,-0.237 -0.208,-0.438 -0.352,-0.631 -0.079,-0.094 -0.402,-0.194 -0.502,-0.166 -0.072,0.015 -0.223,0.266 -0.194,0.337 0.029,0.165 0.136,0.366 0.222,0.502 l 0.144,0.251 c 0.108,0.201 0.18,0.452 0.166,0.689 -0.043,0.459 -0.352,0.84 -0.732,1.077 -0.28,0.172 -0.603,0.273 -0.926,0.244 -0.517,-0.043 -1.077,-0.337 -1.5,-0.632 -0.28,-0.187 -0.589,-0.438 -0.797,-0.703 -0.172,-0.251 -0.323,-0.661 -0.409,-0.955 -0.093,-0.294 -0.151,-0.603 -0.18,-0.897 -0.014,-0.129 -0.028,-0.423 0.072,-0.502 0.108,-0.086 0.266,-0.029 0.359,0.079 0.072,0.101 0.144,0.28 0.172,0.395 0.086,0.28 0.18,0.438 0.28,0.589 0.193,0.251 0.474,0.423 0.782,0.502 0.158,0.043 0.366,0.086 0.524,0.028 0.05,0 0.122,-0.05 0.151,-0.079 0.129,-0.086 0.201,-0.144 0.222,-0.187 -0.05,-0.208 -0.107,-0.294 -0.15,-0.352 -0.187,-0.287 -0.266,-0.545 -0.323,-0.782 -0.057,-0.266 -0.086,-0.56 -0.057,-0.84 0.014,-0.187 0.072,-0.366 0.158,-0.545 0.122,-0.215 0.294,-0.438 0.531,-0.553 0.194,-0.108 0.517,-0.18 0.739,-0.223 l 0.366,-0.086 c 0.129,-0.029 0.28,-0.079 0.409,-0.093 0.166,-0.015 0.294,-0.043 0.381,-0.101 0.064,-0.029 0.107,-0.086 0.136,-0.151 0.029,-0.129 0.043,-0.33 0.043,-0.466 0,-0.058 0,-0.208 0,-0.266 0.029,-0.237 0.144,-0.603 0.223,-0.818 0.101,-0.33 0.266,-0.904 0.115,-1.22 -0.058,-0.151 -0.352,-0.373 -0.488,-0.459 -0.072,-0.072 -0.266,-0.208 -0.337,-0.28 -0.229,-0.251 -0.452,-0.603 -0.603,-0.912 l -0.761,0.165 c -0.402,0.086 -1.033,0.172 -1.399,0 -0.144,-0.064 -0.323,-0.237 -0.438,-0.352 -0.136,-0.151 -0.309,-0.302 -0.502,-0.388 -0.172,-0.072 -0.38,-0.072 -0.531,0.043 -0.1,0.072 -0.187,0.251 -0.244,0.374 l -0.093,0.172 c -0.115,0.208 -0.294,0.366 -0.496,0.502 -0.057,0.043 -0.28,0.172 -0.337,0.158 l -0.079,-1.084 c 0.122,-0.66 0.309,-1.313 0.588,-1.945 0.294,-0.66 0.71,-1.306 1.234,-1.809 0.151,-0.144 0.388,-0.287 0.546,-0.409 0.15,-0.086 0.1,-0.057 0.251,-0.158 0.223,-0.194 0.56,-0.417 0.84,-0.459 0.129,-0.014 0.28,0.029 0.294,0.151 0.029,0.129 -0.093,0.337 -0.18,0.438 -0.158,0.223 -0.337,0.502 -0.474,0.739 0.223,-0.05 0.545,-0.136 0.768,-0.193 l 0.753,-0.166 c 0.201,-0.043 0.424,-0.028 0.596,0.058 0.193,0.093 0.337,0.223 0.459,0.388 0.101,0.129 0.194,0.28 0.266,0.409 l 0.172,0.294 c 0.165,0.266 0.359,0.603 0.459,0.883 0.029,0.1 0.072,0.294 0.101,0.395 0.028,0.151 0.1,0.431 0.179,0.574 0.144,0.266 0.689,0.417 0.912,0.617 -0.029,-0.144 -0.058,-0.366 -0.072,-0.517 -0.036,-0.158 -0.093,-0.38 -0.136,-0.545 C 91.866,61.119 91.808,60.839 91.78,60.666 91.716,60.329 91.716,59.84 91.716,59.503 91.544,59.439 91.264,59.338 91.099,59.237 90.955,59.122 90.762,58.914 90.647,58.778 L 90.41,58.505 90.238,58.34 c -0.108,-0.101 -0.28,-0.294 -0.359,-0.423 -0.144,-0.28 -0.144,-0.632 -0.072,-0.94 0.043,-0.165 0.1,-0.337 0.165,-0.502 0.072,-0.208 0.144,-0.502 0.101,-0.718 -0.043,-0.151 -0.166,-0.266 -0.309,-0.323 -0.222,-0.093 -0.452,-0.093 -0.674,-0.036 -0.208,0.079 -0.445,0.179 -0.603,0.337 -0.058,0.043 -0.115,0.122 -0.18,0.179 -0.1,0.122 -0.237,0.251 -0.38,0.323 -0.158,0.072 -0.409,0.136 -0.531,0 -0.172,-0.201 0.194,-0.732 0.359,-0.94 l 0.23,-0.309 c 0.208,-0.266 0.431,-0.531 0.631,-0.775 0.266,-0.33 0.589,-0.603 0.955,-0.811 0.373,-0.208 0.796,-0.309 1.206,-0.294 0.136,0 0.309,0.014 0.445,0.028 0.115,0.015 0.265,0.029 0.38,0.043 0.179,0.014 0.459,0.043 0.603,0.136 0.18,0.086 0.237,0.309 0.144,0.481 -0.057,0.122 -0.172,0.208 -0.287,0.266 -0.05,0.014 -0.122,0.029 -0.165,0.043 -0.086,0.014 -0.179,0.043 -0.251,0.093 -0.172,0.101 -0.294,0.244 -0.366,0.423 v 0.18 c 0.194,0.172 0.409,0.115 0.517,0.086 0.237,-0.072 0.466,-0.107 0.703,-0.086 0.18,0.014 0.366,0.072 0.531,0.129 0.187,0.086 0.423,0.201 0.553,0.352 0.373,0.423 0.617,1.399 0.753,1.938 l 0.029,0.194 c 0.072,0.294 0.165,0.732 0.194,1.026 0.029,0.28 0.014,0.71 0.014,0.99 0.172,-0.28 0.675,-0.768 0.718,-1.105 0.029,-0.266 -0.115,-0.812 -0.187,-1.07 -0.165,-0.574 -0.266,-1.271 -0.107,-1.823 0.029,-0.122 0.107,-0.265 0.165,-0.373 0.043,-0.101 0.101,-0.215 0.144,-0.323 0.101,-0.28 0.136,-0.618 0,-0.883 -0.115,-0.201 -0.309,-0.38 -0.502,-0.531 -0.043,-0.021 -0.352,-0.021 -0.395,-0.058 -0.172,-0.115 -0.115,-0.287 -0.28,-0.452 -0.187,-0.18 -0.495,-0.56 -0.366,-0.811 0.043,-0.086 0.266,-0.172 0.366,-0.201 0.294,-0.093 0.359,-0.107 0.66,-0.136 0.402,-0.014 0.797,0.014 1.177,0.136 0.417,0.115 0.811,0.323 1.163,0.574 0.366,0.258 0.674,0.603 0.955,0.948 0.194,0.258 0.395,0.574 0.488,0.89 0.029,0.115 0.029,0.287 -0.072,0.352 -0.093,0.043 -0.266,0 -0.373,-0.05 -0.172,-0.072 -0.38,-0.144 -0.567,-0.201 -0.18,-0.057 -0.359,-0.101 -0.531,-0.129 -0.122,-0.021 -0.223,-0.036 -0.323,-0.036 l -0.122,0.208 0.223,0.337 c 0.072,0.058 0.208,0.151 0.28,0.194 l 0.172,0.115 c 0.208,0.151 0.417,0.352 0.502,0.603 0.115,0.309 0.115,0.675 0.072,1.012 -0.072,0.617 -0.201,1.313 -0.352,1.931 -0.129,0.603 -0.251,1.235 -0.352,1.852 -0.058,0.438 -0.086,0.89 -0.029,1.335 0.029,0.237 0.101,0.502 0.251,0.689 0.208,0.237 0.56,0.474 0.826,0.632 l 0.998,0.631 0.409,0.251 c 0.337,0.223 0.84,0.56 1.091,0.869 0.158,0.222 0.352,0.66 0.453,0.912 0.395,0.15 0.883,0.323 1.263,0.517 0.416,0.187 0.811,0.466 1.148,0.79 0.294,0.266 0.165,0.223 0.366,0.488 0.137,0.15 0.223,0.337 0.251,0.545 0.029,0.115 -0.029,0.187 -0.101,0.294 -0.179,0.244 -0.696,0.043 -0.983,0.029 -0.33,-0.014 -0.667,-0.072 -0.976,-0.179 -0.244,-0.072 -0.495,-0.194 -0.718,-0.323 -0.237,-0.144 -0.294,-0.215 -0.517,-0.38 -0.072,0.129 -0.158,0.589 -0.23,0.718 -0.373,0.71 -0.617,1.543 -0.488,2.326 0.043,0.294 0.172,0.603 0.337,0.854 0.115,0.187 0.15,0.258 0.222,0.366 l 0.072,0.144 c 0.043,0.079 0.043,0.151 0.072,0.237 0.072,0.28 0.18,0.775 -0.029,0.983 -0.086,0.107 -0.28,0.223 -0.395,0.28 -0.136,0.086 -0.366,0.294 -0.409,0.459 -0.064,0.28 0.187,0.861 0.337,1.113 0.101,0.179 0.294,0.531 0.144,0.667 -0.129,0.129 -0.309,0.129 -0.481,0.086 -0.28,-0.072 -0.445,-0.151 -0.696,-0.309 -0.237,-0.151 -0.481,-0.309 -0.703,-0.474 0.014,0.093 0.057,0.222 0.086,0.309 0.122,0.251 0.179,0.416 0.151,0.56 -0.015,0.115 -0.108,0.223 -0.223,0.266 -0.18,0.058 -0.294,0.029 -0.423,-0.086 -0.137,-0.122 -0.223,-0.337 -0.294,-0.502 -0.337,-0.747 -0.854,-1.88 -1.249,-2.648 -0.179,0.251 -0.194,0.646 -0.136,0.961 0.014,0.086 0.043,0.215 0.072,0.302 0.043,0.179 0.093,0.373 0.093,0.56 0.014,0.151 -0.014,0.402 -0.136,0.474 -0.215,0.129 -0.531,-0.101 -0.689,-0.294 -0.193,-0.237 -0.352,-0.517 -0.502,-0.782 -0.1,-0.201 -0.229,-0.424 -0.38,-0.603 z m -0.452,21.074 c -0.086,0.222 -0.208,0.445 -0.366,0.617 l -0.589,0.682 c -0.179,0.201 -0.387,0.38 -0.588,0.539 -0.151,0.107 -0.208,0.151 -0.266,0.194 -0.086,0.072 -0.237,0.237 -0.194,0.337 0.029,0.057 0.151,0.086 0.223,0.086 0.151,0.014 0.309,0 0.459,-0.043 l 0.172,-0.058 0.237,-0.072 c 0.057,-0.014 0.222,-0.057 0.28,-0.014 l 0.086,0.201 -0.222,0.445 c -0.172,0.194 -0.574,0.409 -0.804,0.545 -0.337,0.187 -0.689,0.366 -1.019,0.467 -0.258,0.079 -0.589,0.079 -0.861,0.064 C 90.437,98.265 89.957,98.193 89.591,97.999 89.16,97.77 88.78,97.447 88.5,97.03 88.399,96.886 88.12,96.477 87.955,96.37 87.84,96.312 87.783,96.298 87.783,96.284 l 0.23,-0.086 c 0.043,0 0.122,0.043 0.165,0.072 0.179,0.101 0.38,0.144 0.509,0.158 l 0.417,0.079 0.531,0.086 c 0.115,0.029 0.244,0.029 0.38,0.015 0.058,-0.015 0.194,-0.043 0.208,-0.086 l -0.294,-0.431 c -0.094,-0.294 -0.079,-0.646 -0.022,-0.94 0.079,-0.395 0.223,-0.883 0.374,-1.235 0.086,-0.208 0.323,-0.689 0.423,-0.869 l 0.194,-0.352 c 0.086,-0.144 0.215,-0.352 0.309,-0.51 0.086,-0.165 0.201,-0.445 0.294,-0.617 l -0.402,-2.534 c -0.115,-0.072 -0.273,-0.179 -0.395,-0.223 -0.158,-0.057 -0.395,-0.086 -0.574,-0.1 -0.309,-0.029 -0.718,-0.072 -0.998,-0.158 -0.28,-0.107 -0.646,-0.323 -0.897,-0.502 -0.409,-0.266 -0.746,-0.531 -1.026,-0.84 -0.251,-0.266 -0.431,-0.617 -0.431,-0.983 0,-0.28 0.058,-0.574 0.151,-0.825 l 0.172,-0.567 0.107,-0.331 0.058,-0.244 -0.101,-0.208 -0.632,-0.208 c -0.344,-0.029 -0.696,-0.014 -1.019,0.043 l -0.237,0.029 c -0.187,0.029 -0.452,0.079 -0.632,0.18 -0.057,0.028 -0.129,0.086 -0.172,0.136 -0.079,0.072 -0.166,0.129 -0.266,0.172 -0.086,0.043 -0.237,0.1 -0.309,0.028 -0.101,-0.086 0,-0.337 0.072,-0.452 0.165,-0.309 0.38,-0.574 0.646,-0.796 0.251,-0.201 0.646,-0.467 0.926,-0.632 0.431,-0.251 0.811,-0.438 1.191,-0.545 0.38,-0.115 0.782,-0.058 1.134,0.086 0.086,0.036 0.172,0.093 0.251,0.137 0.129,0.086 0.266,0.165 0.28,0.222 l -0.237,0.187 c -0.057,0.043 -0.093,0.122 -0.093,0.18 -0.014,0.072 -0.014,0.208 0.05,0.251 0.129,0.072 0.589,-0.107 0.732,-0.165 0.193,-0.086 0.617,-0.1 0.839,-0.1 0.158,0 0.323,0.028 0.481,0.072 0.194,0.043 0.402,0.136 0.517,0.28 0.165,0.165 0.323,0.488 0.409,0.703 0.136,0.323 0.373,0.768 0.545,1.091 0.029,-0.18 0.194,-0.502 0.179,-0.661 -0.014,-0.344 -0.136,-0.66 -0.309,-0.926 -0.086,-0.151 -0.237,-0.323 -0.337,-0.459 l -0.179,-0.222 c -0.072,-0.086 -0.158,-0.23 -0.237,-0.316 -0.086,-0.136 -0.201,-0.33 -0.309,-0.445 l -0.215,-0.251 c -0.165,-0.158 -0.402,-0.423 -0.488,-0.646 -0.072,-0.194 -0.072,-0.66 -0.058,-0.869 0,-0.229 -0.028,-0.466 0.058,-0.689 0.014,-0.058 0.058,-0.129 0.086,-0.179 0.043,-0.086 0.029,-0.144 0.058,-0.23 0.05,-0.107 0.064,-0.237 0.014,-0.352 -0.043,-0.108 -0.129,-0.194 -0.229,-0.251 -0.165,-0.107 -0.337,-0.179 -0.517,-0.222 l -0.323,-0.072 c -0.115,-0.015 -0.28,-0.043 -0.38,-0.072 l -0.194,-0.079 c -0.115,-0.043 -0.266,-0.086 -0.38,-0.101 -0.058,0 -0.151,0 -0.208,0.015 -0.086,0 -0.266,0.014 -0.323,-0.043 -0.158,-0.136 -0.129,-0.38 0.029,-0.531 0.093,-0.101 0.28,-0.18 0.402,-0.237 l 0.409,-0.201 c 0.165,-0.093 0.423,-0.208 0.603,-0.266 0.28,-0.079 0.574,-0.093 0.854,-0.064 0.352,0.036 0.718,0.107 1.055,0.208 0.409,0.107 0.797,0.223 1.091,0.366 0.201,0.107 0.452,0.315 0.617,0.474 l 0.251,0.201 c 0.144,0.137 0.287,0.302 0.38,0.474 0.043,0.086 0.058,0.208 -0.014,0.28 -0.108,0.072 -0.337,0.043 -0.459,0.029 -0.187,-0.029 -0.38,-0.043 -0.56,-0.029 -0.158,0.014 -0.381,0.043 -0.481,0.151 -0.086,0.072 -0.122,0.215 -0.043,0.323 0.086,0.115 0.28,0.201 0.438,0.23 l 0.28,0.079 c 0.18,0.043 0.266,0.144 0.445,0.201 0.215,0.072 0.423,0.194 0.582,0.359 0.15,0.129 0.265,0.301 0.28,0.495 0.014,0.136 -0.029,0.323 -0.072,0.445 -0.129,0.38 -0.129,0.746 -0.158,1.012 -0.05,0.366 -0.064,0.761 -0.064,1.134 0,0.452 0.079,0.89 0.208,1.321 0.072,0.251 0.28,0.452 0.366,0.689 l -0.057,-0.84 -0.072,-0.969 c -0.015,-0.215 0.043,-0.48 0.115,-0.674 l 0.179,-0.488 c 0.072,-0.187 0.172,-0.452 0.23,-0.646 0.093,-0.258 0.165,-0.538 0.222,-0.818 0.058,-0.294 0.108,-0.617 0.108,-0.926 0.014,-0.417 -0.093,-0.84 -0.294,-1.206 -0.208,-0.352 -0.488,-0.725 -0.825,-0.955 -0.208,-0.15 -0.854,-0.617 -1.048,-0.796 -0.115,-0.137 -0.244,-0.352 -0.129,-0.488 0.057,-0.086 0.237,-0.072 0.337,-0.058 0.352,0.043 0.71,0.165 1.012,0.309 0.316,0.151 0.632,0.323 0.883,0.56 0.265,0.251 0.517,0.56 0.71,0.869 l 0.144,0.237 c 0.086,0.158 0.223,0.352 0.323,0.495 l 0.137,0.165 0.172,0.237 c 0.086,0.115 0.166,0.244 0.18,0.38 0.014,0.086 -0.014,0.201 -0.093,0.251 -0.072,0.043 -0.244,0 -0.337,-0.036 -0.086,-0.028 -0.215,-0.043 -0.294,0 -0.014,0.302 0.294,0.488 0.431,0.574 0.187,0.122 0.366,0.266 0.481,0.459 0.151,0.187 0.237,0.409 0.266,0.646 0.043,0.251 0.043,0.531 -0.014,0.775 -0.058,0.266 -0.201,0.653 -0.309,0.918 l -0.144,0.381 c -0.065,0.172 -0.137,0.38 -0.208,0.538 -0.086,0.165 -0.129,0.266 -0.158,0.373 -0.029,0.115 -0.05,0.294 0.029,0.381 0.115,0.1 0.352,0.057 0.495,0 0.352,-0.151 0.84,-0.438 1.163,-0.646 l 1.529,-0.969 c 0.166,-0.093 0.381,-0.251 0.531,-0.359 l 0.409,-0.273 c 0.136,-0.093 0.337,-0.208 0.517,-0.208 0.129,0 0.28,0.072 0.395,0.151 l 0.194,0.129 0.172,0.115 c 0.28,0.194 0.588,0.323 0.912,0.431 0.352,0.1 0.739,0.187 1.105,0.158 0.144,-0.014 0.28,-0.043 0.309,-0.029 l 0.086,0.165 -0.481,0.567 c -0.309,0.222 -0.696,0.344 -1.063,0.33 -0.517,0 -0.689,0.423 -1.206,0.38 0.043,0.208 0.101,0.438 0.165,0.66 0.101,0.366 0.309,0.704 0.553,0.998 0.517,0.588 1.206,1.091 1.959,1.234 0.409,0.072 0.84,0.043 1.234,-0.058 l 0.28,-0.086 c 0.237,-0.058 0.488,-0.122 0.718,-0.165 0.337,-0.058 0.703,-0.029 1.005,0.136 0.244,0.144 0.481,0.38 0.567,0.661 0.223,0.689 -0.115,1.041 -0.115,1.766 -0.015,0.352 0,0.703 0.043,1.055 0.014,0.237 0.072,0.56 0.223,0.753 0.172,0.201 0.423,0.345 0.674,0.438 0.129,0.058 0.323,0.115 0.366,0.194 l 0.043,0.144 -0.043,0.144 -0.423,0.287 c -0.337,0.201 -0.754,0.258 -1.148,0.215 -0.223,-0.015 -0.438,-0.043 -0.646,-0.115 -0.409,-0.151 -1.278,-0.869 -1.249,-0.431 0.014,0.237 0.172,0.488 0.366,0.603 0.107,0.072 0.352,0.166 0.459,0.208 l 0.423,0.237 c 0,0.158 -0.043,0.187 -0.115,0.215 -0.151,0.064 -0.237,0.136 -0.294,0.165 -0.064,0.043 -0.194,0.136 -0.266,0.151 -0.179,0.057 -0.603,-0.065 -0.782,-0.108 -0.424,-0.129 -0.854,-0.309 -1.235,-0.545 -0.366,-0.229 -0.703,-0.51 -0.983,-0.833 -0.1,-0.137 -0.251,-0.337 -0.352,-0.474 -0.029,0.15 -0.043,0.309 -0.057,0.452 -0.029,0.272 -0.015,0.545 0.115,0.768 0.136,0.222 0.323,0.409 0.545,0.56 0.172,0.129 0.438,0.352 0.524,0.56 0.05,0.129 0.021,0.28 -0.115,0.323 -0.115,0.043 -0.309,0 -0.423,-0.029 -0.194,-0.072 -0.459,-0.122 -0.661,-0.15 -0.093,-0.015 -0.28,-0.043 -0.373,-0.058 -0.438,-0.122 -0.94,-0.352 -1.35,-0.574 -0.251,-0.129 -0.56,-0.309 -0.768,-0.495 -0.086,-0.079 -0.229,-0.251 -0.301,-0.33 -0.064,0.05 -0.194,0.15 -0.237,0.222 -0.165,0.251 -0.165,0.589 -0.108,0.883 l 0.029,0.194 c 0.036,0.129 0.064,0.266 0.093,0.395 0.015,0.208 0.058,0.66 -0.136,0.747 -0.144,0.093 -0.366,-0.043 -0.495,-0.158 -0.18,-0.165 -0.366,-0.445 -0.517,-0.631 l -0.323,-0.431 -0.323,-0.438 c -0.251,-0.352 -0.488,-0.66 -0.66,-0.84 -0.18,-0.158 -0.474,-0.337 -0.682,-0.452 l -0.466,-0.223 c -0.101,-0.057 -0.294,-0.129 -0.395,-0.086 -0.072,0.043 -0.107,0.172 -0.122,0.266 l -0.1,0.452 c -0.043,0.223 -0.237,0.531 -0.337,0.703 -0.058,0.094 -0.151,0.237 -0.194,0.331 z m 30.886,11.19 c -0.294,0.588 -0.546,1.191 -0.754,1.823 -0.294,0.897 -0.588,2.017 -0.646,2.972 -0.014,0.265 -0.086,0.603 -0.251,0.818 -0.072,0.093 -0.144,0.194 -0.201,0.223 -0.107,0.072 -0.237,0.129 -0.373,0.172 -0.215,0.064 -0.467,0.093 -0.689,0.093 -0.129,-0.014 -0.294,-0.029 -0.409,-0.043 l -0.237,-0.015 c -0.144,-0.014 -0.337,-0.014 -0.488,0.029 -0.158,0.058 -0.273,0.172 -0.366,0.309 -0.072,0.115 -0.158,0.309 -0.215,0.424 -0.05,0.093 -0.107,0.222 -0.151,0.309 -0.1,0.179 -0.28,0.431 -0.409,0.588 l -0.166,0.223 c -0.244,0.309 -0.674,0.84 -0.969,1.098 -0.517,0.459 -1.364,0.897 -1.981,1.206 -0.05,0.194 -0.122,0.488 -0.165,0.682 -0.029,0.172 -0.072,0.423 -0.086,0.603 0.115,0.172 0.309,0.438 0.452,0.603 0.208,0.215 0.352,0.38 0.431,0.495 0.129,0.194 0.215,0.416 0.266,0.646 0.043,0.251 0.058,0.574 0.058,0.84 0,0.337 0,0.753 -0.058,1.083 l -0.05,0.287 -0.043,0.259 c -0.043,0.251 -0.043,0.517 -0.014,0.768 0.014,0.158 0.057,0.495 0.15,0.631 0.043,0.058 0.115,0.115 0.172,0.165 0.058,0.043 0.122,0.072 0.165,0.129 0.086,0.086 0.144,0.208 0.129,0.337 -0.014,0.115 -0.058,0.237 -0.144,0.294 -0.151,0.086 -0.38,0.101 -0.56,0.101 -0.674,0 -1.414,-0.187 -2.045,-0.395 -0.352,-0.129 -0.689,-0.294 -1.012,-0.502 -0.194,-0.115 -0.409,-0.28 -0.531,-0.481 -0.1,-0.194 -0.129,-0.251 -0.158,-0.294 -0.05,-0.057 -0.093,-0.122 -0.165,-0.136 -0.072,-0.029 -0.158,0 -0.187,0.086 -0.036,0.065 -0.036,0.18 -0.036,0.244 l 0.266,1.493 c 0.014,0.136 0.072,0.251 0.165,0.344 0.086,0.086 0.115,0.144 0.158,0.201 0.036,0.072 0.05,0.165 0.014,0.237 -0.043,0.101 -0.101,0.194 -0.187,0.237 -0.237,0.086 -0.661,-0.014 -0.897,-0.079 -0.402,-0.115 -0.782,-0.294 -1.12,-0.509 -0.28,-0.18 -0.545,-0.402 -0.761,-0.646 -0.151,-0.194 -0.28,-0.417 -0.359,-0.646 -0.086,-0.237 -0.144,-0.488 -0.201,-0.725 -0.057,0.179 -0.129,0.488 -0.115,0.675 0.014,0.222 0.158,0.531 0.258,0.725 l -0.466,0.244 0.466,0.768 c 0.266,0.423 0.488,0.869 0.661,1.321 0.165,0.402 0.266,0.825 0.315,1.249 0.043,0.416 0.029,0.825 -0.05,1.242 -0.029,0.129 -0.072,0.316 -0.172,0.423 -0.108,0.101 -0.251,0.115 -0.352,0.029 -0.107,-0.136 -0.15,-0.194 -0.165,-0.208 l -0.266,0.56 c -0.086,0.431 -0.337,0.84 -0.617,1.177 l -1.163,1.407 -0.158,0.015 c -0.1,-0.524 -0.1,-0.998 -0.057,-1.464 l 0.057,-0.417 c 0.043,-0.301 0.072,-0.631 0.086,-0.94 0.014,-0.294 -0.029,-0.582 -0.129,-0.869 -0.122,-0.287 -0.294,-0.582 -0.56,-0.761 -0.115,-0.086 -0.294,-0.172 -0.424,-0.237 -0.122,-0.043 -0.222,-0.101 -0.337,-0.158 -0.208,-0.122 -0.416,-0.28 -0.488,-0.502 -0.058,-0.129 -0.058,-0.366 -0.058,-0.531 0.015,-0.215 0,-0.395 -0.014,-0.509 l -0.043,-0.352 c 0,-0.179 -0.036,-0.488 -0.151,-0.625 -0.058,-0.057 -0.18,-0.086 -0.251,-0.086 -0.115,0 -0.251,0 -0.352,0.058 -0.086,0.064 -0.208,0.179 -0.28,0.266 -0.029,0.05 -0.101,0.122 -0.144,0.165 -0.093,0.072 -0.237,0.158 -0.345,0.222 -0.172,0.101 -0.272,0.172 -0.352,0.23 -0.172,0.122 -0.409,0.251 -0.617,0.309 -0.23,0.029 -0.337,0.057 -0.409,0.107 -0.086,0.043 -0.144,0.129 -0.158,0.215 -0.014,0.122 0,0.294 0.015,0.417 0.115,0.775 -0.122,1.471 -0.474,2.039 -0.086,0.165 -0.208,0.359 -0.352,0.459 -0.222,0.179 -0.502,0.294 -0.782,0.366 -0.172,0.043 -0.51,0.144 -0.646,0.266 -0.129,0.115 -0.172,0.294 -0.172,0.467 0.015,0.603 0.294,1.206 0.818,1.486 0.223,0.107 0.359,0.165 0.402,0.251 0.058,0.086 0.058,0.208 -0.014,0.294 -0.108,0.107 -0.388,0.179 -0.545,0.208 -0.531,0.115 -1.077,0.115 -1.623,0.014 -0.66,-0.115 -1.407,-0.366 -1.895,-0.839 -0.589,-0.574 -0.833,-1.429 -0.833,-2.261 0.015,-0.617 0.058,-1.486 0.23,-2.089 0.043,-0.15 0.151,-0.266 0.294,-0.337 0.093,-0.043 0.265,-0.122 0.337,-0.057 0.208,0.115 0.251,0.804 0.266,1.026 0.015,0.266 0.093,0.531 0.266,0.718 0.086,0.122 0.251,0.237 0.402,0.194 0.115,-0.043 0.172,-0.18 0.144,-0.294 -0.014,-0.107 -0.1,-0.237 -0.165,-0.309 -0.423,-0.732 -0.309,-1.615 -0.057,-2.326 0.136,-0.395 0.323,-0.761 0.545,-1.127 0.151,-0.222 0.251,-0.38 0.352,-0.517 0.043,-0.072 0.459,-0.574 0.445,-0.66 l -0.108,-0.18 -0.172,-0.072 c -0.222,-0.029 -0.431,0.014 -0.617,0.129 -0.388,0.266 -0.811,0.897 -1.062,1.285 -0.208,0.323 -0.424,0.632 -0.675,0.926 -0.194,0.244 -0.424,0.496 -0.675,0.689 -0.28,0.201 -0.617,0.337 -0.969,0.352 -0.28,0.014 -0.617,0 -0.883,-0.101 -0.107,-0.05 -0.266,-0.136 -0.366,-0.194 -0.194,-0.115 -0.474,-0.251 -0.696,-0.266 -0.201,-0.014 -0.409,0.079 -0.574,0.194 -0.309,0.201 -0.582,0.488 -0.747,0.818 -0.18,0.344 -0.323,0.739 -0.438,1.091 l -0.194,0.337 -0.38,-0.014 c -0.344,-0.251 -0.459,-0.826 -0.488,-1.22 -0.058,-0.689 0.028,-1.378 0.237,-2.024 0.237,-0.753 0.588,-1.457 1.069,-2.088 0.093,-0.108 0.237,-0.28 0.373,-0.309 0.172,-0.043 0.366,0.072 0.438,0.251 0.043,0.129 0.029,0.337 0.029,0.481 l -0.014,0.179 c -0.015,0.187 0.028,0.366 0.1,0.531 0.036,0.058 0.122,0.201 0.194,0.187 0.072,0 0.115,-0.115 0.129,-0.172 0.029,-0.194 0.064,-0.459 0.079,-0.639 0,-0.172 0.014,-0.38 0.043,-0.538 0.072,-0.459 0.294,-0.883 0.574,-1.235 0.309,-0.402 0.689,-0.725 1.127,-0.947 0.445,-0.201 0.926,-0.301 1.428,-0.273 0.366,0.029 0.732,0.086 1.105,0.201 l 0.323,0.108 c 0.187,0.057 0.409,0.115 0.603,0.172 0.409,0.108 0.833,0.137 1.234,0.043 0.115,-0.015 0.28,-0.058 0.381,-0.101 -0.208,-0.115 -0.488,-0.294 -0.689,-0.395 -0.165,-0.086 -0.387,-0.179 -0.545,-0.251 -0.323,-0.137 -0.753,-0.323 -0.998,-0.545 -0.165,-0.151 -0.502,-0.453 -0.71,-0.51 -0.101,-0.036 -0.215,0 -0.309,0.057 -0.057,0.029 -0.115,0.086 -0.158,0.129 -0.251,0.194 -0.969,0.352 -1.148,0.38 -0.395,0.093 -0.825,0.122 -1.22,0.029 -0.28,-0.072 -0.56,-0.187 -0.79,-0.337 -0.287,-0.158 -0.502,-0.28 -0.667,-0.323 -0.187,-0.058 -0.481,-0.043 -0.675,-0.029 -0.309,0.029 -0.646,0.107 -0.926,0.251 -0.337,0.18 -0.675,0.395 -0.94,0.661 l -0.517,0.474 c -0.201,-0.043 -0.215,-0.208 -0.201,-0.309 0.029,-0.352 0.158,-0.754 0.309,-1.077 0.337,-0.797 0.804,-1.543 1.407,-2.146 0.474,-0.466 1.063,-0.804 1.694,-1.041 0.337,-0.136 0.617,-0.208 0.897,-0.237 0.129,-0.029 0.266,0 0.38,0.072 0.072,0.043 0.158,0.122 0.158,0.194 0,0.129 -0.101,0.309 -0.172,0.395 -0.086,0.115 -0.223,0.309 -0.251,0.445 -0.043,0.144 -0.014,0.366 0,0.495 0.137,-0.237 0.294,-0.467 0.438,-0.704 0.194,-0.294 0.431,-0.574 0.682,-0.825 0.129,-0.129 0.265,-0.251 0.423,-0.352 0.115,-0.072 0.251,-0.115 0.38,-0.129 0.122,0 0.266,0.014 0.388,0.043 0.172,0.043 0.352,0.101 0.509,0.172 0.237,0.122 0.574,0.323 0.797,0.459 l 0.266,0.158 0.266,0.165 c 0.144,0.086 0.366,0.223 0.51,0.309 0.194,0.129 0.459,0.352 0.646,0.496 0.165,0.15 0.416,0.344 0.588,0.474 0.108,0.072 0.28,0.179 0.417,0.251 0.115,0.072 0.28,0.158 0.395,0.251 0.165,0.115 0.294,0.188 0.409,0.244 0.136,0.064 0.28,0.093 0.431,0.079 0.144,-0.028 0.352,-0.122 0.495,-0.194 0.28,-0.129 0.589,-0.222 0.811,-0.294 l 0.158,-0.043 c 0.316,-0.101 0.797,-0.223 1.12,-0.137 0.058,0.036 0.136,0.079 0.194,0.122 0.144,0.086 0.323,0.194 0.452,0.194 0.151,0 0.352,-0.107 0.474,-0.179 0.366,-0.208 0.854,-0.467 1.235,-0.618 0.201,-0.086 0.531,-0.179 0.732,-0.251 0.237,-0.058 0.56,-0.158 0.782,-0.251 0.086,-0.043 0.208,-0.1 0.294,-0.144 0.215,-0.1 0.481,-0.222 0.718,-0.251 h 0.165 c 0.086,0 0.172,-0.015 0.266,-0.029 0.072,-0.014 0.158,-0.058 0.201,-0.115 0.028,-0.079 0,-0.194 -0.015,-0.266 -0.158,-0.56 -0.187,-1.206 -0.172,-1.766 0,-0.294 0.015,-0.632 0.072,-0.926 0.043,-0.237 0.144,-0.588 0.215,-0.825 -0.466,-0.775 -1.055,-1.895 -1.126,-2.792 -0.029,-0.352 0.1,-1.041 0.172,-1.393 -0.266,-0.029 -0.646,-0.064 -0.912,-0.064 l -0.38,0.021 c -0.294,0.014 -0.603,0.014 -0.897,-0.036 -0.409,-0.057 -0.804,-0.266 -1.084,-0.582 -0.309,-0.344 -0.517,-0.782 -0.667,-1.22 -0.187,-0.574 -0.258,-1.191 -0.229,-1.809 0.014,-0.517 0.144,-1.034 0.38,-1.507 0.072,-0.158 0.194,-0.316 0.352,-0.409 0.101,-0.072 0.251,-0.101 0.337,-0.029 0.043,0.029 0.093,1.034 0.093,1.077 0.014,0.251 0.115,0.481 0.287,0.646 0.18,0.194 0.431,0.309 0.667,0.38 0.158,0.043 0.366,0.086 0.524,0.058 0.237,-0.029 0.459,-0.115 0.646,-0.244 0.151,-0.107 0.33,-0.251 0.459,-0.359 0.144,-0.115 0.294,-0.244 0.438,-0.352 0.294,-0.208 0.639,-0.38 1.005,-0.423 0.251,-0.029 0.524,0 0.775,0.043 0.517,0.101 1.134,0.266 1.651,0.409 0.467,0.136 0.969,0.237 1.45,0.309 0.416,0.057 0.84,0.072 1.234,-0.029 0.417,-0.086 0.797,-0.28 1.12,-0.531 0.194,-0.158 0.474,-0.409 0.646,-0.588 0.223,-0.201 0.445,-0.409 0.675,-0.603 0.431,-0.366 0.955,-0.66 1.529,-0.747 0.266,-0.043 0.531,-0.043 0.811,-0.029 l 0.223,0.015 c 0.144,0.014 0.409,0.043 0.545,0.029 0.366,-0.015 0.861,-0.144 1.22,-0.251 l 0.273,-0.072 c 0.753,-0.208 1.564,-0.237 2.311,-0.029 0.689,0.194 1.543,0.718 1.486,1.443 -0.014,0.244 -0.574,1.055 -0.71,1.278 -0.144,0.201 -0.273,0.438 -0.395,0.674 l -0.158,0.352 -0.165,0.323 z m -2.62,-55.197 c 0.28,0 0.603,0.029 0.854,0.115 0.101,0.029 0.366,0.122 0.474,0.072 0.072,-0.043 0.129,-0.201 0.144,-0.294 0.072,-0.353 0.014,-0.718 -0.144,-1.041 -0.165,-0.309 -0.374,-0.574 -0.618,-0.797 -0.265,-0.244 -0.603,-0.481 -0.933,-0.603 -0.287,-0.1 -0.617,-0.144 -0.918,-0.144 -0.266,0.015 -0.531,0.043 -0.768,0.129 -0.237,0.108 -0.423,0.165 -0.56,0.151 -0.086,0 -0.179,-0.058 -0.251,-0.122 l -0.201,-0.158 -0.208,-0.158 c -0.266,-0.194 -0.56,-0.316 -0.869,-0.373 -0.187,-0.029 -0.56,-0.043 -0.631,0.136 -0.072,0.201 -0.101,0.294 -0.072,0.352 0.144,0.237 0.237,0.38 0.294,0.481 0.144,0.237 0.237,0.402 0.28,0.56 0.043,0.179 0.014,0.366 -0.029,0.531 -0.079,0.222 -0.194,0.438 -0.388,0.56 -0.129,0.086 -0.294,0.101 -0.452,0.072 -0.122,-0.029 -0.423,-0.072 -0.517,-0.151 -0.187,-0.187 -0.323,-0.438 -0.337,-0.718 -0.015,-0.201 0,-0.409 0.028,-0.603 0.029,-0.187 0.086,-0.452 0.18,-0.618 l 0.144,-0.215 c 0.079,-0.122 0.136,-0.265 0.179,-0.402 -0.136,-0.057 -0.337,-0.158 -0.474,-0.251 -0.201,-0.129 -0.395,-0.294 -0.574,-0.467 -0.172,-0.194 -0.352,-0.395 -0.524,-0.603 -0.251,-0.28 -0.488,-0.588 -0.71,-0.897 -0.144,-0.208 -0.23,-0.337 -0.352,-0.452 l -0.158,-0.18 c -0.05,-0.043 -0.122,-0.107 -0.179,-0.086 -0.101,0.029 -0.187,0.086 -0.266,0.158 -0.072,0.072 -0.129,0.194 -0.187,0.266 -0.151,0.266 -0.309,0.474 -0.445,0.646 -0.086,0.115 -0.223,0.28 -0.294,0.38 l -0.215,0.337 c -0.122,0.208 -0.315,0.502 -0.474,0.682 l -0.459,0.466 c -0.043,0.058 -0.144,0.101 -0.215,0.122 -0.15,0.058 -0.309,0.129 -0.323,0.215 -0.014,0.093 0.086,0.237 0.129,0.309 l 0.165,0.223 0.1,0.151 c 0.101,0.115 0.294,0.395 0.366,0.524 0.108,0.237 0.136,0.517 0.093,0.768 -0.036,0.201 -0.107,0.438 -0.237,0.588 -0.122,0.129 -0.517,0.229 -0.682,0.172 -0.129,-0.043 -0.366,-0.229 -0.438,-0.352 -0.101,-0.166 -0.129,-0.381 -0.194,-0.546 -0.058,-0.172 -0.072,-0.352 -0.043,-0.524 0.029,-0.093 0.072,-0.208 0.107,-0.28 0.101,-0.251 0.115,-0.388 0.115,-0.517 0,-0.108 -0.043,-0.208 -0.115,-0.266 -0.122,-0.101 -0.28,-0.129 -0.431,-0.115 -0.187,0.029 -0.38,0.072 -0.56,0.144 -0.309,0.129 -0.596,0.323 -0.833,0.56 -0.094,0.101 -0.294,0.294 -0.431,0.323 -0.101,0.014 -0.294,-0.043 -0.395,-0.086 -0.337,-0.122 -0.646,-0.151 -0.926,-0.064 -0.223,0.064 -0.467,0.316 -0.632,0.502 -0.294,0.352 -0.531,0.782 -0.631,1.249 -0.072,0.251 -0.223,0.868 -0.166,1.134 0.015,0.115 0.094,0.237 0.194,0.266 0.194,0.058 0.783,-0.266 0.955,-0.352 0.223,-0.122 0.517,-0.194 0.768,-0.251 0.51,-0.122 0.94,-0.093 1.264,0.129 0.237,0.151 0.574,0.574 0.732,0.797 0.151,0.187 0.38,0.438 0.545,0.617 l 0.129,0.38 c 0.107,0.294 0.337,0.66 0.646,0.646 h 4.292 l 1.472,-0.014 2.383,-0.129 c 0.323,-0.029 0.704,-0.194 0.732,-0.517 l 0.064,-0.603 c 0.043,-0.294 0.101,-0.589 0.187,-0.869 0.079,-0.273 0.237,-0.538 0.474,-0.732 0.294,-0.251 0.675,-0.38 1.055,-0.402 0.298,-0.004 0.62,0.003 0.915,0.039"
     id="path1128" /><polyline
     points="73.139,89.76 60.922,89.774 60.922,93.342 73.082,93.299 73.082,97.957 60.922,98.05 60.922,101.74   73.082,101.797 73.139,106.456 55.367,106.441 55.367,85.08 73.167,85.023 73.139,89.76 "
     id="polyline1130" /><path
     d="M 64.755,120.129 H 75.78 c 0,0.144 -0.015,0.438 -0.015,0.588 -0.028,1.098 -0.1,2.39 -0.323,3.496 -0.28,1.443 -0.818,2.835 -1.629,4.055 -0.983,1.472 -2.326,2.663 -3.912,3.424 -1.73,0.854 -3.718,1.148 -5.642,1.063 -1.988,-0.086 -3.998,-0.56 -5.706,-1.586 -1.766,-1.077 -3.144,-2.648 -4.027,-4.5 -0.869,-1.823 -1.191,-3.861 -1.105,-5.878 0.108,-1.823 0.531,-3.632 1.414,-5.232 0.969,-1.78 2.426,-3.251 4.206,-4.207 1.751,-0.955 3.79,-1.364 5.792,-1.378 1.278,-0.014 2.584,0.129 3.79,0.51 1.263,0.402 2.426,1.048 3.409,1.902 0.854,0.747 1.572,1.644 2.118,2.642 0.151,0.266 0.352,0.66 0.488,0.94 l -5.283,2.16 c -0.072,-0.158 -0.187,-0.423 -0.28,-0.603 -0.244,-0.509 -0.582,-1.012 -0.998,-1.421 -0.452,-0.445 -0.983,-0.782 -1.558,-1.02 -0.574,-0.201 -1.163,-0.309 -1.766,-0.309 -0.89,-0.014 -1.773,0.208 -2.541,0.646 -0.955,0.546 -1.672,1.429 -2.175,2.397 -0.467,0.926 -0.754,1.959 -0.826,3 -0.101,1.399 0.137,2.806 0.739,4.084 0.481,1.063 1.235,2.031 2.247,2.62 0.732,0.409 1.601,0.617 2.455,0.66 0.747,0.029 1.515,-0.072 2.204,-0.352 0.646,-0.251 1.234,-0.661 1.68,-1.206 0.309,-0.431 0.524,-0.912 0.646,-1.414 0.057,-0.201 0.1,-0.524 0.129,-0.732 h -4.558 v -4.349"
     id="path1132" /><path
     d="m 118.165,147.06 -5.146,0.912 c -1.105,0.187 -2.232,-0.093 -3.129,-0.768 L 79.873,124.422 c -0.237,-0.179 -0.374,-0.502 -0.194,-0.753 l 0.352,-0.539 c 0.223,-0.309 0.632,-0.474 0.94,-0.251 l 1.091,0.79 25.56,18.834 c 1.902,1.378 4.429,1.658 6.733,1.22 l 9.381,-1.809 c 0.603,-0.115 1.371,0.058 1.543,0.646 l 0.337,1.091 c 0.28,0.89 -0.352,1.809 -1.278,2.039 l -3.237,0.826 -2.936,0.544"
     id="path1134" /><path
     d="m 91.571,142.782 c -1.307,0.309 -2.835,0.101 -4.134,-0.237 l -9.231,-2.412 c -0.603,-0.158 -1.364,-0.028 -1.601,0.546 l -0.395,1.055 c -0.352,0.883 0.237,1.823 1.134,2.117 l 3.187,1.048 2.878,0.732 5.075,1.234 c 1.041,0.251 2.232,-0.086 3.187,-0.56 2.928,-1.421 5.792,-3.352 8.383,-5.333 l -1.766,-1.558 c -1.879,1.265 -4.513,2.851 -6.717,3.368"
     id="path1136" /><path
     d="m 123.103,125.534 c 0.058,-0.115 0.309,-0.632 0.251,-0.747 l -0.323,-0.56 c -0.194,-0.323 -0.603,-0.517 -0.926,-0.309 l -1.134,0.725 -18.963,12.503 1.78,1.191 19.315,-12.803"
     id="path1138" /><path
     d="M 73.325,66.928 C 72.722,65.5 71.818,64.222 70.698,63.167 69.693,62.212 68.509,61.43 67.21,60.978 66.083,60.59 64.862,60.332 63.671,60.332 h -8.204 v 21.353 h 8.204 c 1.192,0 2.412,-0.251 3.539,-0.646 1.299,-0.452 2.483,-1.235 3.488,-2.175 1.12,-1.076 2.024,-2.34 2.627,-3.761 0.56,-1.292 0.869,-2.691 0.869,-4.091 0,-1.407 -0.309,-2.792 -0.869,-4.084 z m -5.233,6.159 c -0.266,0.782 -0.66,1.514 -1.22,2.132 -0.603,0.646 -1.335,1.177 -2.189,1.457 -0.747,0.237 -1.601,0.323 -2.397,0.323 H 61.023 V 76.998 65.033 h 1.263 c 0.797,0 1.665,0.072 2.397,0.323 0.854,0.28 1.586,0.79 2.189,1.45 0.56,0.625 0.955,1.357 1.22,2.139 0.223,0.66 0.337,1.364 0.337,2.067 0,0.711 -0.115,1.4 -0.337,2.075 z"
     id="path1140" /></g>
</svg>
