<?xml version="1.0" encoding="UTF-8" standalone="no"?>
<!-- Created with Inkscape (http://www.inkscape.org/) -->

<svg
   version="1.1"
   id="svg2"
   width="200"
   height="200"
   viewBox="0 0 200 200"
   sodipodi:docname="logo_EBB.svg"
   inkscape:version="1.1 (c68e22c387, 2021-05-23)"
   xmlns:inkscape="http://www.inkscape.org/namespaces/inkscape"
   xmlns:sodipodi="http://sodipodi.sourceforge.net/DTD/sodipodi-0.dtd"
   xmlns="http://www.w3.org/2000/svg"
   xmlns:svg="http://www.w3.org/2000/svg">
  <defs
     id="defs6" />
  <sodipodi:namedview
     id="namedview4"
     pagecolor="#ffffff"
     bordercolor="#000000"
     borderopacity="0.25"
     inkscape:showpageshadow="2"
     inkscape:pageopacity="0.0"
     inkscape:pagecheckerboard="0"
     inkscape:deskcolor="#d1d1d1"
     inkscape:pageshadow="2"
     showgrid="false"
     inkscape:zoom="0.57154743"
     inkscape:cx="649.9898"
     inkscape:cy="91.855894"
     inkscape:window-width="1920"
     inkscape:window-height="1017"
     inkscape:window-x="-8"
     inkscape:window-y="-8"
     inkscape:window-maximized="1"
     inkscape:current-layer="g8" />
  <g
     id="g8"
     inkscape:groupmode="layer"
     inkscape:label="ink_ext_XXXXXX"
     transform="matrix(1.3333333,0,0,-1.3333333,0,257.33333)">
    <path
       d="m 666.61137,392.21452 h 192.756 v -192.756 h -192.756 v 192.756"
       style="fill:#ffffff;fill-opacity:1;fill-rule:evenodd;stroke:none;stroke-width:0.1"
       id="path12" />
    <g
       id="g2243"
       transform="matrix(0.77074382,0,0,0.79093737,-268.31273,28.278512)">
      <path
         d="m 452.44141,55.996052 h 3.665 l 5.098,4.6211 h 11.951 v 8.4445 l 14.818,7.1703 6.533,0.7965 v 8.445 h 9.401 l 0.159,15.296398 8.445,20.5541 -3.665,34.895 10.994,9.241 -6.533,12.747 h -15.137 l -6.054,10.994 c 0,0 -40.472,11.951 -40.631,12.11 l -6.0549,-2.868 -5.8953,2.709 c 0,0 -39.8344,-13.225 -39.9933,-12.11 l -6.852,-11.153 h -14.9773 l -6.6922,-12.588 11.1535,-9.401 -3.6649,-34.895 8.445,-20.5538 V 85.154652 h 9.5601 v -8.4449 l 6.5328,-0.6371 14.8184,-7.3297 v -8.2852 l 11.791,-0.1593 5.0988,-4.3024 h 17.6863"
         style="fill:#231f20;fill-opacity:1;fill-rule:evenodd;stroke:none;stroke-width:0.1"
         id="path14" />
      <path
         d="m 451.16641,198.44295 -5.5765,-2.709 -5.7363,2.39 c -0.7965,0.797 -26.609,-7.648 -38.7184,-11.153 h -0.3191 l -6.3735,-11.313 h -14.9773 l -4.7805,-9.72 10.1977,-9.241 -3.3457,-35.054 8.2851,-20.5547 0.1594,-12.746898 h 9.5606 v -8.7633 l 4.3015,-0.4781 16.8899,-8.2855 v -7.3293 h 10.0382 l 5.0989,-4.4614 16.571,0.159 h 2.549 l 5.258,4.4617 9.879,0.159 v 7.3297 l 17.049,8.2856 4.302,0.4777 v 8.7637 h 9.561 v 12.746798 l 8.444,20.395 -3.346,35.213 10.039,9.083 -4.781,9.879 h -14.818 l -6.373,11.312 c 0,-0.796 -39.197,11.791 -39.038,11.154"
         style="fill:#ffffff;fill-opacity:1;fill-rule:evenodd;stroke:none;stroke-width:0.1"
         id="path16" />
      <path
         d="m 432.52431,65.715552 c -1.5934,1.2747 -9.4008,8.1262 -9.2414,8.1262 l 4.1425,24.2192 -3.1867,17.208198 c -0.1593,-0.1594 -3.0273,7.0108 -3.0273,7.4888 -0.1594,-0.159 7.0105,30.433 6.6922,30.752 h 2.3902 c -0.1594,-0.159 -4.6211,-31.071 -4.9398,-30.911 0,0.159 3.5054,-3.506 3.8242,-3.824 -0.3188,0 12.9062,-0.16 12.7469,0 -0.3188,-0.16 0.1593,3.983 -1.1157,3.983 -1.1148,-0.159 -1.2742,0 -1.2742,-0.319 1.2742,0.16 -2.0715,-1.912 -4.4613,-1.912 -0.4785,1.912 -2.8684,10.516 -2.8684,10.516 4.9395,4.621 5.2582,4.781 12.1098,4.94 7.0101,0 6.3731,0 12.5871,-4.302 0,-0.797 -2.868,-9.082 -3.505,-11.154 -2.868,0.319 -3.346,1.912 -4.143,2.072 -0.159,0.159 -1.9118,-0.319 -2.2305,0.159 -1.2746,-0.478 -1.2746,-3.824 -0.9559,-4.143 -0.1593,0.16 14.3394,0 14.3394,0 0.319,-0.159 3.825,4.143 3.347,3.984 0.159,0 -4.143,30.911 -3.665,30.911 0,-0.159 1.593,0 1.434,0 0.159,0.16 5.895,-31.389 6.214,-30.752 0.16,-0.319 -4.461,-7.4888 -4.302,-7.3295 l -3.983,-17.526898 c 0.318,-0.4778 5.098,-23.741 5.417,-23.741 l -9.401,-8.445 c -7.3293,0.4782 -15.4555,0.1594 -22.9441,0"
         style="fill:#231f20;fill-opacity:1;fill-rule:evenodd;stroke:none;stroke-width:0.1"
         id="path18" />
      <path
         d="m 437.30441,102.52225 c 0.7968,0.3187 0.4781,0.1594 1.9117,0 -0.4778,0.4781 4.6211,-4.142598 4.9398,-4.301998 0.1594,0 4.9395,4.620698 5.8955,4.142998 0.637,0 0.478,0.159 1.115,0 -0.478,0.9559 -2.7085,-7.807798 -2.3898,-7.807798 l 2.3898,-12.1094 h -13.862 l 2.8679,11.9504 c 0,-0.1594 -2.5496,8.603898 -2.8679,8.125798"
         style="fill:#ed1c24;fill-opacity:1;fill-rule:evenodd;stroke:none;stroke-width:0.1"
         id="path20" />
      <path
         d="m 424.23871,169.44395 -10.9941,4.939 c 0.6371,0 18.4832,-4.939 17.6863,-4.78 0,-0.159 -3.3461,-15.456 -3.5055,-15.296 0,0 0.1594,9.879 0.1594,9.719 -0.1594,0.478 -3.0273,3.187 -2.5496,2.231 -0.4777,0.638 -0.7965,3.027 -0.7965,3.187"
         style="fill:#231f20;fill-opacity:1;fill-rule:evenodd;stroke:none;stroke-width:0.1"
         id="path22" />
      <path
         d="m 464.23241,169.44395 11.153,4.939 c -0.637,0 -18.483,-4.939 -17.845,-4.78 0,-0.159 3.505,-15.456 3.664,-15.296 0,0 -0.159,9.879 -0.159,9.719 0.159,0.478 3.028,3.187 2.549,2.231 0.479,0.638 0.638,3.027 0.638,3.187"
         style="fill:#231f20;fill-opacity:1;fill-rule:evenodd;stroke:none;stroke-width:0.1"
         id="path24" />
      <path
         d="m 447.18331,172.15195 c 0,0 10.3571,-2.071 10.1971,-2.389 -0.159,0.477 -0.318,-2.391 -0.637,-2.55 0,0 -9.5601,2.709 -9.7195,2.709 l 0.1594,2.23"
         style="fill:#231f20;fill-opacity:1;fill-rule:evenodd;stroke:none;stroke-width:0.1"
         id="path26" />
      <path
         d="m 432.20551,169.92195 c 0,0.159 11.791,2.23 11.791,2.23 0.3188,1.753 0.3188,16.731 0.1594,18.802 l 1.5934,-0.318 c -0.4781,-6.693 0,-13.544 0.1594,-20.714 -0.4782,0.318 -12.2692,-2.55 -12.1098,-2.39 0,-0.319 -1.9117,2.549 -1.5934,2.39"
         style="fill:#231f20;fill-opacity:1;fill-rule:evenodd;stroke:none;stroke-width:0.1"
         id="path28" />
      <path
         d="m 429.17821,113.99445 h 3.3461 v -10.0378 z"
         style="fill:#ffffff;fill-opacity:1;fill-rule:evenodd;stroke:none;stroke-width:0.1"
         id="path30" />
      <path
         d="m 457.69941,113.99445 h -3.506 v -10.1972 z"
         style="fill:#ffffff;fill-opacity:1;fill-rule:evenodd;stroke:none;stroke-width:0.1"
         id="path32" />
      <path
         d="m 436.66721,68.902352 h -3.5058 v 10.0382 z"
         style="fill:#ffffff;fill-opacity:1;fill-rule:evenodd;stroke:none;stroke-width:0.1"
         id="path34" />
      <path
         d="m 450.21041,68.902352 h 3.346 v 10.0382 z"
         style="fill:#ffffff;fill-opacity:1;fill-rule:evenodd;stroke:none;stroke-width:0.1"
         id="path36" />
      <path
         d="m 438.26021,113.99445 -1.9117,-4.9394 -1.5934,4.9394 z"
         style="fill:#ffffff;fill-opacity:1;fill-rule:evenodd;stroke:none;stroke-width:0.1"
         id="path38" />
      <path
         d="m 453.55641,113.83515 -2.071,-4.7801 -1.434,4.7801 z"
         style="fill:#ffffff;fill-opacity:1;fill-rule:evenodd;stroke:none;stroke-width:0.1"
         id="path40" />
      <path
         d="m 442.88131,113.83515 -1.9121,-4.7801 -1.5934,4.7801 z"
         style="fill:#ffffff;fill-opacity:1;fill-rule:evenodd;stroke:none;stroke-width:0.1"
         id="path42" />
      <path
         d="m 448.29851,113.83515 -2.0715,-4.7801 -1.434,4.7801 z"
         style="fill:#ffffff;fill-opacity:1;fill-rule:evenodd;stroke:none;stroke-width:0.1"
         id="path44" />
      <path
         d="m 442.88131,69.061652 -1.9121,4.7801 -1.5934,-4.7801 z"
         style="fill:#ffffff;fill-opacity:1;fill-rule:evenodd;stroke:none;stroke-width:0.1"
         id="path46" />
      <path
         d="m 448.29851,69.061652 -2.0715,4.7801 -1.434,-4.7801 z"
         style="fill:#ffffff;fill-opacity:1;fill-rule:evenodd;stroke:none;stroke-width:0.1"
         id="path48" />
      <path
         d="m 420.70791,82.764852 v -13.5438 h -3.1356 v 13.5438 h 3.1356"
         style="fill:#231f20;fill-opacity:1;fill-rule:nonzero;stroke:none;stroke-width:0.1"
         id="path50" />
      <path
         d="m 473.28841,82.764852 v -13.5438 h -3.135 v 13.5438 h 3.135"
         style="fill:#231f20;fill-opacity:1;fill-rule:nonzero;stroke:none;stroke-width:0.1"
         id="path52" />
      <path
         d="m 393.96491,58.705052 -7.9668,6.0543 -2.709,-3.5051 7.8074,-6.0547 c 0.6375,-0.4781 1.1157,-0.7968 1.4344,-0.7968 0.3184,0 0.7965,0.1593 0.9559,0.6375 l 1.1152,1.2746 c 0.3188,0.4781 0.4781,0.7964 0.3188,1.1156 -0.1594,0.3183 -0.4782,0.7965 -0.9559,1.2746 z m -4.7801,-6.0547 -7.8074,6.2141 -2.8684,-3.8242 7.8075,-6.0551 c 0.6375,-0.4778 1.1156,-0.7965 1.5933,-0.7965 0.3188,0 0.7969,0.3187 1.1156,0.7965 l 0.7965,1.1156 c 0.4782,0.4777 0.6375,0.9562 0.4782,1.2746 0,0.3188 -0.3188,0.7965 -1.1153,1.275 z m -16.0933,2.3899 11.4726,14.8183 12.5875,-9.8793 c 1.2746,-0.9555 1.9117,-1.9117 2.0711,-2.7082 0.1594,-0.7969 -0.1594,-1.7531 -0.9558,-2.709 l -1.434,-1.9117 c -0.4778,-0.6375 -1.1153,-1.1156 -1.9121,-1.1156 -0.7965,-0.1594 -1.5934,0.1594 -2.5493,0.6371 0.7965,-0.7965 1.2747,-1.5934 1.2747,-2.3899 0.1593,-0.9558 -0.1594,-1.7527 -0.7969,-2.5492 l -1.434,-1.9121 c -0.7965,-0.9562 -1.7527,-1.434 -2.868,-1.2746 -0.9558,0 -2.2308,0.6371 -3.8238,1.7524 l -11.632,9.2418"
         style="fill:#231f20;fill-opacity:1;fill-rule:evenodd;stroke:none;stroke-width:0.1"
         id="path54" />
      <path
         d="m 398.74501,36.716352 6.6918,17.368 18.0051,-6.8516 -1.1153,-2.8683 -13.8621,5.2582 -1.5937,-3.9832 8.1265,-3.0278 -1.1156,-3.0273 -8.1258,3.1867 -1.5933,-4.4613 14.0214,-5.2578 -1.2746,-3.3461 -18.1644,7.0105"
         style="fill:#231f20;fill-opacity:1;fill-rule:evenodd;stroke:none;stroke-width:0.1"
         id="path56" />
      <path
         d="m 442.24381,41.655852 -9.7195,0.6375 -0.3188,-5.2582 9.7196,-0.6375 c 0.7968,0 1.2746,0 1.5933,0.3187 0.3188,0.1594 0.4781,0.4781 0.4781,1.1153 l 0.1594,2.2308 c 0,0.4781 -0.1594,0.9559 -0.3187,1.1153 -0.3188,0.3187 -0.7969,0.4781 -1.5934,0.4781 z m -15.1367,-14.4996 1.2742,18.6422 16.0934,-1.1153 c 1.434,0 2.5492,-0.4781 3.0273,-0.9558 0.6371,-0.6375 0.9559,-1.5934 0.9559,-2.868 l -0.3188,-4.4617 c -0.1594,-1.2746 -0.4777,-2.0711 -1.2746,-2.7086 -0.6375,-0.4781 -1.7527,-0.6371 -3.1867,-0.6371 l -2.5492,0.159 8.1258,-7.64809 -6.2141,0.47812 -7.0109,7.64807 -4.1422,0.1594 -0.4785,-7.01098 -4.3016,0.31878"
         style="fill:#231f20;fill-opacity:1;fill-rule:evenodd;stroke:none;stroke-width:0.1"
         id="path58" />
      <path
         d="m 459.29341,26.359732 -4.143,18.32342 4.302,0.9563 3.346,-14.8184 13.703,3.0274 0.796,-3.3461 -18.004,-4.14262"
         style="fill:#231f20;fill-opacity:1;fill-rule:evenodd;stroke:none;stroke-width:0.1"
         id="path60" />
      <path
         d="m 485.58341,34.167152 -7.648,17.0488 3.983,1.7528 7.648,-17.0489 -3.983,-1.7527"
         style="fill:#231f20;fill-opacity:1;fill-rule:evenodd;stroke:none;stroke-width:0.1"
         id="path62" />
      <path
         d="m 500.56141,41.655852 -11.473,14.8183 2.39,1.7528 17.049,-0.6375 c 0.638,0 1.116,0 1.594,0 0.478,-0.159 0.956,-0.159 1.434,-0.3184 -0.797,0.7965 -1.275,1.434 -1.594,1.7527 -0.159,0.3184 -0.478,0.6372 -0.637,0.7965 l -6.055,7.6481 3.187,2.5496 11.472,-14.8184 -2.39,-1.9121 -17.845,0.7969 c -0.478,0 -0.957,0 -1.275,0 -0.319,0 -0.637,0.1594 -0.956,0.1594 0.478,-0.4785 0.797,-0.7969 1.115,-1.1157 0.319,-0.4777 0.638,-0.7968 0.797,-1.1152 l 6.214,-7.9668 -3.027,-2.3902"
         style="fill:#231f20;fill-opacity:1;fill-rule:evenodd;stroke:none;stroke-width:0.1"
         id="path64" />
    </g>
  </g>
</svg>
