<?xml version="1.0" encoding="UTF-8" standalone="no"?>
<!-- Created with Inkscape (http://www.inkscape.org/) -->

<svg
   version="1.1"
   width="200"
   height="200"
   id="svg2443"
   xml:space="preserve"
   sodipodi:docname="logo_SCB.svg"
   inkscape:version="1.1 (c68e22c387, 2021-05-23)"
   xmlns:inkscape="http://www.inkscape.org/namespaces/inkscape"
   xmlns:sodipodi="http://sodipodi.sourceforge.net/DTD/sodipodi-0.dtd"
   xmlns:xlink="http://www.w3.org/1999/xlink"
   xmlns="http://www.w3.org/2000/svg"
   xmlns:svg="http://www.w3.org/2000/svg"><sodipodi:namedview
     id="namedview2320"
     pagecolor="#ffffff"
     bordercolor="#666666"
     borderopacity="1.0"
     inkscape:pageshadow="2"
     inkscape:pageopacity="0.0"
     inkscape:pagecheckerboard="0"
     showgrid="false"
     inkscape:zoom="2.645"
     inkscape:cx="199.81096"
     inkscape:cy="109.82987"
     inkscape:window-width="1920"
     inkscape:window-height="1017"
     inkscape:window-x="-8"
     inkscape:window-y="-8"
     inkscape:window-maximized="1"
     inkscape:current-layer="svg2443" /><defs
     id="defs2446"><linearGradient
       id="linearGradient5791"><stop
         id="stop5793"
         style="stop-color:#c5c6c9;stop-opacity:1"
         offset="0" /><stop
         id="stop5795"
         style="stop-color:#646567;stop-opacity:1"
         offset="1" /></linearGradient><linearGradient
       id="linearGradient14981"><stop
         id="stop14983"
         style="stop-color:#c5c6c8;stop-opacity:1"
         offset="0" /><stop
         id="stop14985"
         style="stop-color:#888888;stop-opacity:1"
         offset="1" /></linearGradient><linearGradient
       x1="254.14024"
       y1="492.7598"
       x2="261.67224"
       y2="492.7598"
       id="linearGradient14995"
       xlink:href="#linearGradient14981"
       gradientUnits="userSpaceOnUse" /><linearGradient
       x1="265.27328"
       y1="493.55399"
       x2="270.84451"
       y2="493.55399"
       id="linearGradient15003"
       xlink:href="#linearGradient14981"
       gradientUnits="userSpaceOnUse" /><linearGradient
       x1="246.21083"
       y1="488.49603"
       x2="251.86792"
       y2="488.49603"
       id="linearGradient15011"
       xlink:href="#linearGradient14981"
       gradientUnits="userSpaceOnUse" /><linearGradient
       x1="245.99374"
       y1="475.25522"
       x2="295.90036"
       y2="475.25522"
       id="linearGradient5797"
       xlink:href="#linearGradient5791"
       gradientUnits="userSpaceOnUse" /><linearGradient
       x1="265.27328"
       y1="493.55399"
       x2="270.84451"
       y2="493.55399"
       id="linearGradient5811"
       xlink:href="#linearGradient14981"
       gradientUnits="userSpaceOnUse" /><linearGradient
       x1="254.14024"
       y1="492.7598"
       x2="261.67224"
       y2="492.7598"
       id="linearGradient5813"
       xlink:href="#linearGradient14981"
       gradientUnits="userSpaceOnUse" /><linearGradient
       x1="246.21083"
       y1="488.49603"
       x2="251.86792"
       y2="488.49603"
       id="linearGradient5815"
       xlink:href="#linearGradient14981"
       gradientUnits="userSpaceOnUse" /><linearGradient
       x1="245.99374"
       y1="475.25522"
       x2="295.90036"
       y2="475.25522"
       id="linearGradient5817"
       xlink:href="#linearGradient5791"
       gradientUnits="userSpaceOnUse" /><linearGradient
       x1="245.99374"
       y1="475.25522"
       x2="295.90036"
       y2="475.25522"
       id="linearGradient5820"
       xlink:href="#linearGradient5791"
       gradientUnits="userSpaceOnUse"
       gradientTransform="matrix(5.0885635,0,0,5.0885635,-1193.7078,-1940.4937)" /><linearGradient
       x1="246.21083"
       y1="488.49603"
       x2="251.86792"
       y2="488.49603"
       id="linearGradient5823"
       xlink:href="#linearGradient14981"
       gradientUnits="userSpaceOnUse"
       gradientTransform="matrix(5.0885635,0,0,5.0885635,-1193.7078,-1940.4937)" /><linearGradient
       x1="254.14024"
       y1="492.7598"
       x2="261.67224"
       y2="492.7598"
       id="linearGradient5826"
       xlink:href="#linearGradient14981"
       gradientUnits="userSpaceOnUse"
       gradientTransform="matrix(5.0885635,0,0,5.0885635,-1193.7078,-1940.4937)" /><linearGradient
       x1="265.27328"
       y1="493.55399"
       x2="270.84451"
       y2="493.55399"
       id="linearGradient5829"
       xlink:href="#linearGradient14981"
       gradientUnits="userSpaceOnUse"
       gradientTransform="matrix(5.0885635,0,0,5.0885635,-1193.7078,-1940.4937)" /></defs><g
     transform="matrix(0.65789472,0,0,-0.65789472,-5.2631526,433.73422)"
     id="g2452"><g
       id="g5837"><path
         d="m 87.923195,540.00621 -12.126047,1.88786 -6.48283,-10.82337 -0.122125,-1.80135 7.205406,12.02427 12.243083,-1.90821 z m -1.190724,14.95529 -1.424798,-0.43253 -5.739899,-7.21049 0.641159,-0.55465 z m -16.64978,-12.21255 -10.996385,-0.14248 -1.017713,-0.62589 11.97339,0.16283 z"
         id="path3612"
         style="fill:#000000;fill-opacity:1;fill-rule:evenodd;stroke:none" /><path
         d="m 167.11142,568.00349 -10.99639,2.27968 -0.85996,-0.29514 11.72405,-2.43233 z m 17.02125,-6.61004 -11.72914,4.55935 -8.51317,-8.99658 -0.52412,-1.78609 9.63774,10.18222 11.53577,-4.50847 z m -6.2742,8.43683 8.1875,6.6304 -1.48587,-0.11195 -7.21049,-5.84675 z"
         id="path3614"
         style="fill:#000000;fill-opacity:1;fill-rule:evenodd;stroke:none" /><path
         d="m 138.36104,577.22397 -1.46042,-0.26461 -9.0322,-9.01184 0.56992,-0.62081 z m -0.48851,-20.26775 -15.83561,4.36599 -10.55368,-13.75948 -0.32566,-1.77082 11.40347,14.86369 15.95773,-4.4016 z m -23.51425,6.39632 -14.945109,1.52148 -1.088952,-0.50376 15.922111,-1.61817 z"
         id="path3616"
         style="fill:#000000;fill-opacity:1;fill-rule:evenodd;stroke:none" /><path
         d="m 225.11092,554.17962 c -0.53324,0.0742 -1.37546,-0.067 -2.28986,-1.01771 l -0.12721,0.25442 c -0.60554,0.55466 -16.29354,-27.66656 -19.59097,-28.62317 -1.15001,-0.33075 -2.56972,0.17302 -2.92592,1.39936 -0.88541,3.0684 1.76569,7.99922 3.43478,10.55877 1.34338,1.96418 2.46791,3.47549 1.78099,5.85185 -0.55465,1.3332 -1.48073,2.43738 -3.05313,3.56199 -1.02789,0.69713 -4.91047,-1.50117 -11.83091,-4.57971 0.11194,0.77855 0.0916,1.52152 -0.12722,2.28986 -0.19845,0.69204 -1.01767,1.23652 -1.781,1.01771 -1.84206,-0.5343 -8.08059,-8.34524 -6.48791,-13.86634 0.46814,-1.60798 1.14488,-2.09144 2.79871,-1.78099 -0.59537,-1.73264 -1.11147,-3.40083 -2.16264,-5.21578 -0.14525,-0.21282 -0.23021,-0.42154 -0.38165,-0.63607 -0.0596,-0.0954 -0.19194,-0.15775 -0.25442,-0.25443 -2.85799,-3.98618 -6.70225,-8.13511 -10.68599,-9.28663 -2.45268,-0.7124 -5.15976,-0.41217 -5.85185,2.54428 l -0.25442,1.781 c 13.32186,9.08309 15.33188,15.83557 14.24797,19.59097 -0.88541,3.0684 -4.03523,2.74274 -6.48791,2.03543 -8.46713,-2.37665 -15.62291,-12.42668 -15.64734,-21.49918 -2.32775,-3.70387 -6.72052,-9.87784 -10.81319,-11.06763 -2.07105,-0.59536 -3.51111,0.5954 -4.70693,2.16264 -0.91594,1.73011 -1.33324,3.96908 -1.01771,5.47021 11.98357,20.9089 11.99888,28.18046 10.43156,35.61994 -0.20863,1.0228 -0.98718,2.79366 -2.28986,2.41707 -2.45268,-0.7124 -7.45979,-10.08554 -12.08533,-20.22704 -2.28522,-6.20854 -3.59066,-13.63845 -2.79871,-20.48147 -3.13737,-4.43466 -7.84832,-11.33117 -13.10306,-12.84862 -2.45268,-0.70731 -5.16485,-0.41218 -5.85184,2.54428 l -0.25443,1.65378 c 13.32695,9.08818 15.33693,15.83056 14.24798,19.59097 -0.88541,3.06332 -4.03523,2.87504 -6.48792,2.16264 -8.19817,-2.29999 -15.18493,-11.77644 -15.64734,-20.60868 -3.13158,-4.40694 -7.965755,-11.67825 -13.357475,-13.23027 -2.452687,-0.70731 -5.164932,-0.40708 -5.851848,2.54429 l -0.381642,1.65378 c 13.326945,9.08308 15.459095,15.83561 14.375195,19.59097 -0.8905,3.0684 -4.035234,2.86995 -6.487921,2.16264 -8.467126,-2.37665 -15.621768,-12.43177 -15.647333,-21.49918 -6.335262,-7.96361 -8.36051,-10.99639 -10.813198,-11.7037 -1.765731,-0.50886 -2.69185,0.22386 -3.180352,1.90821 -1.328115,4.59497 1.292455,12.16167 2.925924,16.2834 8.584407,1.90313 8.426661,4.90029 9.922699,13.23027 l -4.961349,-0.8905 c 0.452882,1.29758 2.050691,4.34568 1.653783,5.72464 -0.3562,1.23143 -1.928606,1.05329 -2.925924,0.76328 -4.447405,-1.28232 -5.093693,-5.35317 -6.487919,-9.15941 -8.116258,-2.68168 -8.268956,-4.07086 -10.558769,-11.95813 l -0.508856,-1.65378 c 3.882574,1.78608 2.569684,1.06347 7.251203,2.41707 -1.445152,-5.64831 -3.180352,-14.12077 -3.180352,-14.12077 -0.3562,-2.50866 -0.605499,-5.7399 0.127214,-8.26891 0.88541,-3.06332 3.368588,-4.55427 6.360704,-3.68921 6.023475,1.74114 11.58841,10.609 15.011262,16.2834 1.618164,-5.00715 5.724634,-9.12379 11.322054,-7.50563 6.80459,1.96243 12.53647,9.76442 15.90176,16.2834 0.074,-0.29277 0.0346,-0.60322 0.12722,-0.8905 1.61307,-5.01223 5.72459,-9.1187 11.32205,-7.50563 6.8915,1.98751 12.68416,9.96842 16.02897,16.53783 0.055,-0.2092 0.0674,-0.42878 0.12722,-0.63607 1.30776,-4.52373 4.07089,-9.63265 9.66827,-8.01448 5.70004,1.6493 10.0824,9.12359 13.10305,14.75683 0.0476,-0.16951 0.0732,-0.3413 0.12721,-0.50886 1.61308,-5.01223 5.7246,-9.25096 11.32206,-7.63284 6.23446,1.80514 11.56146,8.48182 15.01126,14.62962 1.95474,3.18646 3.73883,6.68763 4.83414,10.43155 l 7.37841,4.07086 0.25443,-0.12722 c -2.00489,-4.56444 -4.81382,-9.79552 -3.30757,-15.01126 0.83962,-2.91066 3.64854,-5.25144 6.86956,-4.32528 8.34171,2.39529 17.18999,18.64816 21.6264,27.73267 1.83343,-2.86307 5.01981,-6.96413 7.2512,-8.90499 1.93366,-1.6894 -13.84093,-5.4906 -19.59097,-21.49918 -0.61062,-1.69958 4.0505,3.34832 6.86956,5.343 2.81907,1.9998 6.68129,3.54672 11.44927,5.72463 4.76799,2.1779 8.74211,4.39652 10.8132,6.23349 2.07613,1.83188 2.00493,4.03523 -0.12721,5.85185 -8.29436,7.0731 -13.10306,17.93714 -13.10306,17.93718 0,0 -0.25959,0.0925 -0.50885,0.12722 z m -77.72781,-11.57648 c -0.11704,-4.76799 -2.76313,-13.59665 -6.74235,-20.22704 l -0.25442,0.12721 c 1.06351,6.95607 2.79362,14.23271 6.99677,20.09983 z m 25.18839,-7.76006 c 0.36019,0.007 0.64494,-0.23155 0.76328,-0.63607 0.45289,-1.27723 -2.56972,-7.96365 -8.65055,-12.21256 0.60554,5.65849 3.95886,10.6198 7.50563,12.72141 0.12338,0.0776 0.26159,0.1249 0.38164,0.12722 z M 51.082046,526.57416 c -3.419514,-0.24425 -6.701679,-0.72257 -9.922699,-1.65378 -16.792259,-4.85449 -28.597727,-16.16128 -29.768096,-20.7359 -0.70731,-2.4476 -0.223897,-8.41644 0.508856,-10.94041 1.328115,-4.59497 5.658483,-4.68657 9.668271,-4.19806 3.857131,0.45288 25.966939,3.52128 27.096601,-0.38165 0.356199,-1.22634 -4.905416,-11.2813 -32.566807,-18.19161 v 0.12721 c 0.325668,0.59028 0.519074,1.08387 0.890499,1.52657 0.447793,0.45797 1.109347,1.13984 0.890498,1.90821 -0.132302,0.46306 -0.381601,0.36133 -0.763284,0.25443 -1.150016,-0.33584 -5.281888,-3.03783 -5.979062,-4.07085 -0.890499,-1.50113 -2.3712302,-6.40137 -1.9082116,-8.01449 1.2874066,-4.4474 10.6198726,-1.63343 13.6119076,-0.76328 11.037094,3.18544 37.100757,13.37783 32.69402,28.62317 -1.083864,3.75027 -5.841711,6.75761 -14.120763,6.3607 -22.827296,-1.19581 -22.028392,-0.45797 -22.262466,0.63607 -0.508856,1.76065 5.989199,11.40343 25.570032,17.80998 l 0.127214,-0.12722 c -3.317744,-4.03523 -3.989434,-6.83903 -3.943637,-6.99677 0.218808,-0.76329 0.758155,-0.98723 1.526569,-0.76329 0.610628,0.1781 1.20603,0.80908 1.653783,1.27214 2.371271,3.01243 2.905529,3.54677 5.851848,5.72464 4.009788,3.07349 5.582114,5.01223 3.943637,10.68598 -0.442705,1.53166 -0.920989,2.03034 -2.79871,1.90821 z m 71.112674,-6.23349 c 0.36019,0.005 0.64495,-0.36255 0.76329,-0.76328 0.45288,-1.28232 -2.56973,-7.83134 -8.65056,-12.08534 0.61063,5.66357 3.96395,10.61478 7.50563,12.72141 0.12339,0.0763 0.26159,0.12554 0.38164,0.12721 z M 94.843692,512.4534 c 0.36137,0.007 0.648772,-0.36259 0.763285,-0.76329 0.452882,-1.28231 -2.564636,-7.83638 -8.650558,-12.08534 0.610627,5.65849 3.96395,10.61984 7.505631,12.72141 0.123388,0.0776 0.261186,0.12482 0.381642,0.12722 z"
         id="path3618"
         style="fill:#000000;fill-opacity:1;fill-rule:nonzero;stroke:none" /><path
         d="m 238.76857,536.07275 c 2.13211,-1.81661 2.16773,-4.01996 0.0916,-5.85184 -2.07105,-1.83697 -6.09101,-3.99961 -10.859,-6.17752 -4.76798,-2.1779 -8.65056,-3.74009 -11.46962,-5.7399 -2.81907,-1.99472 -7.4293,-7.06293 -6.81868,-5.36335 5.75008,16.00863 21.56025,19.79452 19.62659,21.48392 -3.04805,2.65114 -7.81094,9.47999 -8.58949,11.42382 -0.78364,1.93875 0.95665,5.71955 0.95665,5.71955 1.45024,3.39916 3.86731,2.46287 3.86731,2.46287 0,0 4.90028,-10.88444 13.19464,-17.95755"
         id="path3632"
         style="fill:#000000;fill-opacity:1;fill-rule:nonzero;stroke:none" /><path
         d="m 223.07549,555.19736 c -0.42784,-0.10401 -0.93278,-0.42729 -1.39935,-0.8905 l -0.12722,0.25443 c -0.61062,0.55465 -16.29867,-27.79374 -19.59097,-28.75039 -1.15001,-0.33075 -2.57486,0.29514 -2.92592,1.52657 -0.88541,3.06332 1.76568,7.87201 3.43478,10.43156 1.33829,1.96418 2.4679,3.6027 1.781,5.97906 -0.54957,1.3332 -1.48072,2.31021 -3.05314,3.43478 -1.03298,0.69713 -4.91052,-1.37391 -11.83091,-4.45249 0.10686,0.77855 0.0967,1.52143 -0.12721,2.28985 -0.19846,0.69204 -1.01767,1.11445 -1.781,0.8905 -1.84206,-0.52921 -8.08573,-8.34525 -6.48792,-13.86634 0.46306,-1.61307 1.14498,-2.0914 2.79871,-1.78099 -0.59918,-1.73266 -1.11267,-3.27363 -2.16264,-5.08857 -0.14828,-0.21753 -0.22685,-0.4167 -0.38164,-0.63607 -0.26186,-0.41991 -0.56758,-0.82521 -0.8905,-1.27214 -2.77454,-3.67567 -6.24774,-7.20764 -9.9227,-8.26891 -2.45269,-0.70731 -5.29205,-0.41218 -5.97906,2.54428 l -0.25443,1.65378 c 13.32695,9.08309 15.45906,15.83561 14.37519,19.59097 -0.88541,3.0684 -4.16249,2.86995 -6.61513,2.16264 -8.50615,-2.38761 -15.6857,-12.52138 -15.64733,-21.6264 -2.32945,-3.70503 -6.60175,-9.88377 -10.68599,-11.06762 -2.07104,-0.60045 -3.63328,0.6004 -4.83413,2.16264 -0.91594,1.73011 -1.32817,3.96399 -1.01771,5.4702 11.98356,20.90891 11.99888,28.31277 10.43155,35.74716 -0.21372,1.0228 -0.98214,2.66636 -2.28985,2.28986 -2.45269,-0.70731 -7.45984,-10.08554 -12.08534,-20.22704 -2.28522,-6.20856 -3.59202,-13.51391 -2.79871,-20.35426 -3.13771,-4.43834 -7.72174,-11.4571 -12.97584,-12.97583 -2.45777,-0.7124 -5.28696,-0.41218 -5.97906,2.54428 l -0.25443,1.78099 c 13.32186,9.08818 15.45906,15.83556 14.37519,19.59097 -0.88541,3.06841 -4.16249,2.74274 -6.61513,2.03543 -8.15498,-2.28904 -15.12306,-11.68405 -15.64733,-20.48147 -3.13649,-4.41148 -7.842293,-11.80511 -13.230267,-13.35748 -2.452688,-0.70731 -5.286967,-0.40703 -5.979062,2.54428 l -0.254428,1.781 c 13.321859,9.08309 15.331837,15.83561 14.247977,19.59097 -0.88541,3.0684 -4.035231,2.74782 -6.487918,2.03543 -8.467115,-2.37667 -15.622908,-12.43177 -15.647333,-21.49918 -6.335261,-7.96361 -8.355472,-10.99634 -10.813197,-11.7037 -1.760643,-0.50886 -2.564636,0.35111 -3.053138,2.03542 -1.328116,4.59498 1.170318,12.15658 2.798709,16.28341 8.589496,1.89803 8.421522,4.90537 9.922699,13.23026 l -4.834135,-1.01771 c 0.457971,1.29758 1.923477,4.4729 1.526569,5.85185 -0.356199,1.22634 -1.928515,1.04824 -2.925924,0.76328 -4.447404,-1.2874 -5.09869,-5.35317 -6.487918,-9.15941 -8.116259,-2.67659 -8.273954,-4.19298 -10.55877,-12.08534 l -0.381642,-1.65378 c 3.887663,1.78608 2.44765,1.06351 7.123989,2.41706 -1.440064,-5.6483 -3.180403,-14.12076 -3.180352,-14.12076 -0.3562,-2.50866 -0.478325,-5.73985 0.254428,-8.26891 0.88541,-3.06841 3.246554,-4.55427 6.23349,-3.68921 6.090604,1.75916 11.593224,11.00651 15.011263,16.66504 0.02427,-0.0801 -0.02575,-0.17474 0,-0.25443 1.613074,-5.00714 5.724583,-9.25095 11.322053,-7.63284 6.843457,1.97233 12.544227,9.87344 15.901757,16.41062 0.0747,-0.29753 0.1605,-0.59867 0.25443,-0.8905 1.61817,-5.01224 5.59737,-9.25096 11.19484,-7.63285 6.89613,1.98749 12.68411,9.9684 16.02898,16.53783 0.0533,-0.2012 0.0695,-0.43665 0.12721,-0.63607 1.30776,-4.52373 4.0709,-9.50543 9.66827,-7.88727 5.68021,1.64488 10.08172,9.0035 13.10305,14.62962 0.0475,-0.1695 0.0733,-0.34129 0.12722,-0.50886 1.61816,-5.01223 5.72458,-9.25101 11.32205,-7.63284 5.11569,1.48219 9.60064,6.47927 12.97584,11.57648 0.36098,0.52753 0.78944,1.10569 1.14492,1.65378 0.32745,0.53929 0.59165,0.99385 0.8905,1.52657 1.95284,3.18717 3.73496,6.68765 4.83414,10.43156 l 7.50563,4.07085 0.12721,-0.12722 c -2.00489,-4.56444 -4.81383,-9.79548 -3.30756,-15.01126 0.8447,-2.91066 3.6485,-5.37861 6.86956,-4.45249 8.34733,2.39692 17.19064,18.77939 21.62639,27.85988 1.82201,-2.8645 4.9898,-7.06196 7.25121,-9.0322 1.93365,-1.68431 -13.84085,-5.49056 -19.59097,-21.49918 -0.61063,-1.69958 4.04535,3.34823 6.86956,5.34299 2.81906,1.99981 6.68123,3.67395 11.44927,5.85185 4.77307,2.17791 8.7422,4.2744 10.81319,6.10628 2.07105,1.83697 2.13211,4.03523 0,5.85185 -8.29436,7.07819 -13.23031,17.93718 -13.23026,17.93718 0,0 -0.61445,0.31804 -1.39936,0.12722 z m -76.83731,-11.57648 c -0.11703,-4.76799 -2.75805,-13.46943 -6.74234,-20.09983 h -0.25443 c 1.06351,6.95607 2.79357,14.23276 6.99677,20.09983 z m 25.18839,-7.63285 c 0.36139,0.007 0.64879,-0.36261 0.76329,-0.76328 0.45288,-1.28232 -2.56469,-7.83639 -8.65056,-12.08534 0.61063,5.65848 3.96394,10.61983 7.50563,12.72141 0.1234,0.0776 0.2612,0.12482 0.38164,0.12721 z M 50.064333,527.71911 c -3.419514,-0.23916 -6.833889,-0.84979 -10.049912,-1.78099 -16.79226,-4.8494 -28.597778,-16.16123 -29.768097,-20.7359 -0.7022217,-2.4476 -0.218808,-8.41139 0.508856,-10.94041 1.333204,-4.58989 5.658432,-4.69161 9.668271,-4.19807 3.857131,0.45289 25.966889,3.52134 27.096601,-0.38164 0.351111,-1.22634 -4.910413,-11.28139 -32.566807,-18.19161 v 0.25443 c 0.325668,0.59536 0.519034,1.08895 0.890499,1.52656 0.447794,0.46306 1.114446,1.01777 0.890499,1.781 -0.132303,0.46306 -0.376503,0.49354 -0.763285,0.38164 -1.150015,-0.33075 -5.154715,-3.16513 -5.851848,-4.19806 -0.8955872,-1.50113 -2.5035223,-6.27934 -2.0354254,-7.88727 1.282318,-4.44741 10.6249204,-1.75551 13.6119074,-0.8905 11.042183,3.19053 37.105856,13.37788 32.69402,28.62317 -1.083864,3.75027 -5.846708,6.75766 -14.120763,6.3607 -22.832385,-1.19581 -22.028443,-0.33076 -22.262466,0.76329 -0.513944,1.76064 5.989291,11.27625 25.570032,17.68275 l 0.254428,-0.12721 c -3.317743,-4.03523 -4.116699,-6.7169 -4.070851,-6.86956 0.223897,-0.76837 0.763336,-1.10931 1.526569,-0.8905 0.615717,0.1781 1.20599,0.94138 1.653784,1.39936 2.37127,3.01243 2.910709,3.54158 5.851848,5.72463 4.014876,3.0684 5.587191,4.88502 3.943636,10.55877 -0.442705,1.53166 -0.798904,2.16264 -2.671496,2.03542 z m 70.985457,-6.3607 c 0.36017,0.006 0.64498,-0.23153 0.76329,-0.63607 0.45288,-1.28232 -2.56978,-7.95851 -8.65056,-12.21255 0.60554,5.65848 3.95895,10.61469 7.50563,12.72141 0.1234,0.0763 0.26161,0.12512 0.38164,0.12721 z m -27.351024,-7.88727 c 0.360168,0.007 0.645026,-0.23535 0.763284,-0.63607 0.452882,-1.28232 -2.569725,-7.95852 -8.650558,-12.21256 0.605539,5.65849 3.958852,10.61984 7.505631,12.72141 0.123398,0.0776 0.261603,0.12482 0.381643,0.12722 z"
         id="path3636"
         style="fill:#008854;fill-opacity:1;fill-rule:nonzero;stroke:none" /><path
         d="m 163.90232,556.96914 8.48971,8.97827 11.78119,-4.55936 -6.83241,9.15331 7.16088,5.7628 -9.47511,-0.72558 -6.92065,9.42662 -0.87437,-10.93283 -11.07943,-3.78177 10.9598,-2.26487 z"
         id="path12968"
         style="fill:url(#linearGradient5829);fill-opacity:1" /><path
         d="m 111.55942,547.66114 10.54534,13.65298 15.7232,-4.31327 -10.00605,10.89634 9.04741,9.04528 -13.0373,-2.3701 -10.54809,11.6581 0.44632,-14.72717 -14.22925,-6.62388 14.8557,-1.53135 z"
         id="path13743"
         style="fill:url(#linearGradient5826);fill-opacity:1" /><path
         d="m 69.325208,531.0937 6.482016,10.79035 12.130881,-1.88063 -8.348094,7.33577 5.715322,7.20301 -9.05688,-2.82852 -8.923916,7.69126 1.585037,-10.86332 -9.757931,-5.9293 10.924077,0.14141 z"
         id="path13745"
         style="fill:url(#linearGradient5823);fill-opacity:1;fill-rule:nonzero;stroke:none" /><path
         d="m 176.83317,428.32802 c -3.47422,-0.0515 -7.49164,0.201 -12.88042,0.95411 -7.15452,0.99735 -10.96581,1.81539 -17.17391,2.38526 -6.92044,0.63607 -10.26485,0.58391 -14.15256,0.47705 -3.88258,-0.10686 -8.10985,-0.63602 -8.1099,-0.63607 0,0 8.09331,4.07864 23.21657,3.49839 15.1283,-0.58519 17.02893,-2.31896 29.57727,-1.74919 9.68863,0.43761 16.34574,5.53752 18.60506,7.15579 2.25933,1.61816 8.15763,6.21354 15.95845,8.98686 7.91399,2.84476 16.13263,3.66066 24.43203,4.37062 16.35973,1.23143 26.18188,2.38903 37.0511,6.67874 3.51111,1.38409 6.43698,2.90038 8.90499,4.45249 5.18015,3.25668 8.45846,6.7397 10.97221,9.85909 -6.02486,-4.59497 -12.27489,-7.69655 -17.96899,-9.85909 -6.35561,-2.41198 -12.04839,-3.5251 -16.37881,-4.29348 -10.5893,-1.87768 -22.07037,-2.47563 -31.32647,-3.49838 -7.53107,-0.82944 -14.57741,-2.45401 -20.83131,-4.61151 -0.91085,-0.31041 -1.82303,-0.61328 -2.7033,-0.95411 -6.90009,-2.67658 -9.11489,-3.89021 -12.88042,-6.04267 -3.76045,-2.15755 -10.38067,-6.48044 -23.53461,-6.04267 -13.14885,0.43253 -17.04928,4.14337 -32.12156,5.24758 -15.06214,1.09913 -23.33864,-1.3677 -30.84941,-3.02133 -7.505634,-1.6487 -13.669157,-3.21328 -17.968993,-4.13446 -3.704474,-0.7989 -6.996826,-1.11322 -6.996775,-1.11312 0,0 10.334924,3.52653 20.990328,6.99677 10.65545,3.4704 20.96875,6.34916 32.28057,6.20169 10.22293,-0.13739 15.43992,-2.75424 25.60184,-2.7033 9.12379,0.0407 12.82694,2.63964 13.83453,5.56562 0.25952,0.74802 0.36892,1.65755 0.31803,2.38526 -0.28496,3.6943 -5.47137,6.06801 -11.60828,6.04267 -6.13172,-0.0254 -10.55241,-1.08397 -15.74274,-2.54428 -5.19034,-1.46551 -11.01283,-3.42191 -16.06078,-4.13446 -5.04786,-0.7124 -9.91884,-0.32434 -17.33292,1.43116 -7.41913,1.76064 -10.43024,3.00617 -15.742746,3.6574 -5.312461,0.64625 -9.711524,0.73133 -15.583726,-0.79508 -5.872202,-1.52657 -10.983664,-3.96018 -14.311585,-5.88366 4.706921,3.35337 8.504262,5.86712 14.788638,8.26892 6.284376,2.40689 10.733052,2.68284 16.060778,2.06723 5.327731,-0.61572 12.348721,-2.90048 23.375591,-2.54428 6.50827,0.20863 11.47084,2.22869 16.06078,4.45249 2.67658,1.2925 5.21705,2.74777 7.79186,3.81642 5.72463,2.38145 11.45436,3.45127 18.44604,3.33937 8.06538,-0.1323 9.28785,-2.46556 16.06078,-2.22624 6.78306,0.23916 6.06938,3.74253 4.92955,5.40659 -0.4478,0.64625 -1.09537,1.33957 -2.06723,2.06723 -1.52657,1.1602 -3.67262,2.36619 -6.83776,3.18036 -5.18016,1.3332 -12.1667,1.2124 -18.44604,-0.47706 -3.16,-0.8447 -5.44482,-1.74665 -7.63285,-2.7033 -2.16264,-0.95156 -4.28085,-1.89666 -7.15579,-3.02133 -5.78061,-2.26441 -13.74548,-5.07579 -19.8772,-6.04267 -6.13172,-0.96683 -10.50157,-0.69322 -15.10667,-0.15902 6.48791,0.17301 17.29088,2.36379 24.80674,5.4066 2.42725,0.98209 5.11523,2.28477 7.79187,3.81642 5.6025,3.21598 11.16563,7.0554 14.78863,9.22302 1.67414,1.00245 3.51493,2.1373 5.56562,3.18036 4.51864,2.2695 10.35518,4.35586 19.08211,5.08856 12.69088,1.06351 16.13334,0.2353 16.85587,0.15902 -0.56483,-1.59272 -1.27346,-3.03396 -0.79509,-5.24758 0.0814,-0.38673 0.16034,-0.83463 0.31804,-1.27214 1.21107,-3.38899 4.44486,-5.19924 7.95088,-6.83776 3.50602,-1.63852 11.45817,-3.76284 24.64773,-3.49839 13.18446,0.2697 31.82265,3.37255 46.27412,8.74597 2.51375,0.9363 4.73104,1.92612 6.83776,2.86232 10.00411,4.40669 15.7058,8.65188 18.76408,11.60828 3.69938,3.57726 6.16983,7.79823 5.40659,11.76731 -0.76328,3.96908 -4.17262,6.11884 -8.26891,7.95088 -4.09121,1.83188 -11.21397,3.41692 -22.73952,3.49838 -11.53068,0.0814 -25.99879,-2.03786 -37.0511,-4.77052 -0.15775,0.34093 -0.52031,0.97954 -0.79509,1.59017 9.22557,2.69694 21.08436,4.85948 32.75763,5.72464 11.7902,0.87014 20.17493,-0.0114 25.91987,-1.43116 4.8952,-1.21108 11.29793,-4.00231 13.51649,-7.95088 1.09913,-1.94892 1.6461,-2.90695 2.22625,-7.1558 0.42744,-3.12437 0.55715,-5.51992 0.95411,-11.29025 0.27987,-4.01996 0.45156,-7.03229 0.47705,-9.54105 0.0204,-2.27968 -0.12976,-4.16886 -0.31804,-5.88365 -0.27987,-2.58499 -0.61826,-4.31129 -1.59017,-6.51973 -2.08779,-5.11095 -6.06542,-8.78006 -9.85909,-12.56239 -4.86976,-4.33037 -10.74837,-7.9725 -16.69685,-10.65418 -1.0686,-0.48341 -2.26701,-1.06101 -3.49839,-1.59017 -7.66434,-3.25653 -15.78508,-5.07127 -24.01166,-6.36071 -10.67581,-1.32302 -19.03886,-2.15119 -22.5805,-2.38526 -4.70692,-0.30532 -10.16054,-0.86262 -16.37881,-2.86232 -5.2514,-1.69449 -7.02095,-2.7467 -12.56239,-5.56562 -5.54145,-2.82415 -12.28766,-5.42822 -18.28703,-6.20168 -3.00225,-0.38928 -5.90782,-0.74354 -9.38204,-0.79509 z M 64.407722,442.6396 c -4.019965,0.0591 -6.360705,0.31799 -6.360705,0.31804 0,0 11.502647,1.28863 18.764078,3.33937 5.495649,1.54692 6.967516,2.20197 10.972215,3.6574 3.75536,1.36374 6.482779,2.43229 9.541057,2.54429 h 1.272141 c 2.849592,-0.23408 3.862222,-1.90811 3.816422,-3.18036 -0.0509,-1.35864 -1.38154,-2.74538 -6.042669,-3.49838 -4.656035,-0.74802 -7.071882,-0.9478 -15.106673,-2.06723 -7.027306,-0.97955 -12.835901,-1.17225 -16.855866,-1.11313 z m 150.271638,20.35426 c 2.35402,-0.0229 5.05295,0.0382 8.26892,0.31803 3.59761,0.31549 7.32748,0.8675 10.8132,1.59018 10.26363,2.14229 18.76407,5.40665 18.76407,5.4066 0,0 -11.56635,-2.31779 -23.5346,-2.86232 -13.17429,-0.60554 -19.30606,1.15775 -24.17068,2.86232 -2.4934,0.87523 -5.99947,3.19419 -7.63284,6.20169 -0.52993,1.34653 -1.1662,2.65042 -1.7492,3.97544 0,0 0.17169,-1.22126 0.47705,-3.18036 0.32058,-2.09648 0.81036,-4.90807 1.43116,-7.95088 0.46815,-2.28476 2.32415,-3.23378 4.29348,-4.13445 0.18319,-0.0865 0.38668,-0.20619 0.63607,-0.31804 1.77464,-0.75565 5.34131,-1.83952 12.40337,-1.90821 z M 97.960437,473.01197 c 0,0 7.723223,1.51761 15.106673,3.97544 0.34093,0.11195 0.62844,0.201 0.95411,0.31803 6.26911,2.19317 9.95704,4.50979 11.29025,5.24758 1.40444,0.77347 2.69699,1.36252 5.08856,1.7492 3.17526,0.50885 5.92685,-0.44657 6.20169,-2.38527 0.27987,-1.98962 -2.17536,-3.23251 -4.77053,-3.97544 -3.88614,-1.15088 -7.93149,-1.61271 -11.92632,-2.22624 -5.68902,-0.90577 -13.40333,-1.68045 -16.53783,-2.06723 -3.12947,-0.39182 -5.406653,-0.63597 -5.406603,-0.63607 z m 127.691143,11.44927 c -7.20658,0.16934 -13.16152,1.37264 -17.80997,3.49838 -1.10422,0.50377 -2.20208,1.03181 -3.02134,1.7492 -3.21597,2.76309 -3.78711,6.88472 1.11312,11.44926 5.84676,5.44986 18.2451,9.99267 25.12479,11.92633 -6.62022,-2.72747 -11.79015,-5.2083 -15.90176,-7.95088 -4.11156,-2.74274 -5.93454,-6.09213 -5.24759,-9.06401 0.73785,-3.17526 3.95631,-5.3378 13.03945,-6.3607 1.98963,-0.2239 4.25282,-0.36017 6.83776,-0.47706 5.40914,-0.24934 11.46321,-0.0877 17.65095,0.47706 10.66563,0.96174 21.67479,3.02764 30.21335,5.72463 -4.2286,-2.25423 -9.11108,-4.18779 -14.31159,-5.72463 -9.84637,-2.91575 -20.7015,-4.56958 -30.05433,-5.08857 -2.67022,-0.14884 -5.23063,-0.21545 -7.63284,-0.15901 z"
         id="path3455"
         style="fill:url(#linearGradient5820);fill-opacity:1" /></g></g></svg>
